<svg xmlns="http://www.w3.org/2000/svg" viewBox="0 0 1200 1200"><path fill="#F7C277" d="M124.748 392.937l-29.76-36.846a8.095 8.095 0 00-6.316-3.038c-1.595 0-3.21.472-4.636 1.445-12.451 8.489-25.681 21.123-18 33.094 17.991 28.049 33.046 41.329 39.986 42.046 1.079.11 1.683-.1 2.408-.835 5.238-5.333 11.39-15 17.321-27.219 1.365-2.81.971-6.204-1.003-8.647zm98.297 459.336c-10.676 1.004-20.208-6.163-22.199-16.659-8.29-43.686-24.231-62.108-36.294-60.947-12.169 1.144-25.102 22.526-25.102 59.903 0 74.58 38.722 75.531 40.372 75.535 1.685.063 110.144 4.467 260.144 6.647-63.583-13.628-113.189-36.633-148.35-68.881-20.097.536-43.124 2.006-68.571 4.402z"/><path fill="#F7C277" d="M115.01 334.789l-.861-1.345c-9.166-14.341-19.733-28.312-28.628-23.326-7.699 4.33-4.36 19.287-1.099 29.817 7.716-1.495 15.983 1.184 21.163 7.596l29.76 36.846c5.277 6.529 6.321 15.618 2.662 23.157-3.517 7.244-8.513 16.515-14.207 24.131 10.556 14.203 49.804 61.797 116.28 84.581-1.764-25.767 2.135-50.698 11.661-74.587-78.167-15.75-113.25-70.325-136.731-106.87zm643.915 581.965c150.388-2.178 259.479-6.585 260.917-6.643.135-.003.266-.003.402-.007 1.581-.003 40.303-.955 40.303-75.535 0-37.377-12.933-58.759-25.102-59.903-12.055-1.174-28.004 17.265-36.294 60.947-1.992 10.5-11.538 17.664-22.197 16.659-14.401-1.355-42.209-3.685-69.658-4.412-35.163 32.256-84.778 55.266-148.371 68.894zM599.452 610.945c210.99 0 324.316-58.393 341.642-68.075a180.233 180.233 0 003.14-17.554c.013-.156.035-.311.058-.466 4.608-36.888-3.083-72.009-23.07-104.646-41.402-67.608-124.286-107.724-188.049-122.722-87.485-20.576-179.965-20.576-267.443 0-63.763 14.998-146.648 55.114-188.048 122.721-23.215 37.914-29.868 79.172-19.876 122.663 17.376 9.676 131.047 68.079 341.646 68.079zm176.746-225.862c22.032 0 39.896 17.479 39.896 39.043 0 21.562-17.863 39.043-39.896 39.043-22.036 0-39.898-17.481-39.898-39.043.001-21.564 17.863-39.043 39.898-39.043zm-229.65 75.711c3.525-1.294 7.447.506 8.747 4.038 2.494 6.713 10.176 20.802 17.973 21.44 5.471.467 12.316-5.992 19.26-18.138a7.991 7.991 0 016.916-4.016h.007a7.993 7.993 0 016.921 4.014c6.946 12.146 13.759 18.562 19.262 18.139 7.798-.639 15.479-14.727 17.978-21.449a6.819 6.819 0 018.749-4.021 6.809 6.809 0 014.031 8.739c-1.084 2.938-11.114 28.762-29.614 30.307-.579.048-1.156.072-1.731.072-8.92 0-17.503-5.795-25.596-17.271-8.617 12.218-17.792 17.987-27.327 17.2-18.5-1.545-28.53-27.369-29.614-30.307a6.815 6.815 0 014.038-8.747zm-122.744-75.711c22.032 0 39.896 17.479 39.896 39.043 0 21.562-17.863 39.043-39.896 39.043-22.034 0-39.898-17.481-39.898-39.043 0-21.564 17.864-39.043 39.898-39.043z"/><path fill="#F9BF78" d="M599.452 624.568c-217.968 0-331.573-60.149-348.992-70.175-8.469 1.55-40.721 9.113-70.945 38.176-4.568 4.394-4.556 10.058-3.022 13.892 1.936 4.833 6.209 7.733 11.434 7.756 12.477.053 25.949.467 40.277 1.335.226 0 .449.02.673.042 83.384 5.124 196.684 26.201 325.152 87.922.16.065.306.146.459.221 12.86 6.186 25.851 12.73 38.998 19.756a12.633 12.633 0 0011.93 0c13.147-7.026 26.14-13.571 39-19.756.153-.075.299-.156.457-.221 128.711-61.837 242.199-82.88 325.628-87.952l.033-.002c14.39-.875 27.918-1.292 40.441-1.345 5.223-.023 9.497-2.923 11.433-7.756 1.535-3.835 1.547-9.499-3.022-13.892-30.395-29.23-62.507-36.67-70.933-38.183-17.39 10.012-130.998 70.182-349.001 70.182z"/><path fill="#F7C277" d="M1115.963 354.498a8.212 8.212 0 00-4.636-1.445 8.093 8.093 0 00-6.313 3.037c0 .002-.002.002-.002.002l-29.762 36.846c-1.972 2.443-2.366 5.837-1.003 8.647 5.935 12.221 12.086 21.888 17.321 27.219.725.737 1.327.946 2.408.835 6.94-.717 21.994-13.995 39.987-42.046 7.681-11.972-5.549-24.606-18-33.095z"/><path fill="#F7C277" d="M1064.654 384.376l29.762-36.846-.002.002c5.18-6.414 13.447-9.098 21.164-7.601 3.261-10.53 6.599-25.483-1.101-29.813-8.895-4.997-19.463 8.99-28.628 23.326l-.861 1.345c-28.4 44.203-64.769 92.211-137.827 106.868 9.522 23.882 13.422 48.806 11.662 74.569 66.746-22.869 106.725-70.589 117.346-84.599-5.681-7.608-10.665-16.861-14.177-24.091-3.659-7.538-2.614-16.628 2.662-23.16z"/><path fill="#F0EB6D" d="M649.021 716.636c-12.264 5.923-24.652 12.174-37.184 18.871a26.258 26.258 0 01-12.386 3.11 26.268 26.268 0 01-12.387-3.11c-12.532-6.697-24.919-12.948-37.184-18.871-157.535-.103-262.143-15.174-307.202-43.895-18.03 9.93-27.208 19.402-27.279 28.18-.072 8.857 7.146 11.89 23.634 16.699a404.91 404.91 0 015.982 1.793l.073.023c10.492 3.244 21.317 7.53 28.343 16.596 16.746 21.612 28.403 33.286 73.137 22.154 32.077-7.989 48.686 2.764 63.344 12.256 13.079 8.471 24.377 15.778 46.784 11.73 17.381-3.146 29.117-7.307 38.546-10.65 18.673-6.619 29.943-10.613 53.01 5.933a1282.075 1282.075 0 0015.963 11.268c21.075 14.647 49.4 14.647 70.478 0a1297.494 1297.494 0 0015.961-11.268c23.067-16.553 34.337-12.552 53.01-5.933 9.429 3.343 21.163 7.503 38.544 10.65 22.4 4.051 33.703-3.259 46.784-11.73 14.657-9.492 31.265-20.248 63.344-12.256 44.738 11.132 56.394-.542 73.138-22.154 7.024-9.063 17.844-13.35 28.335-16.593l.085-.028a404.235 404.235 0 015.978-1.791c16.487-4.809 23.705-7.843 23.632-16.699-.07-8.779-9.248-18.251-27.277-28.18-45.062 28.721-149.668 43.792-307.206 43.895z"/><path fill="#F7C277" d="M936.241 744.374c-19.126 24.685-35.529 39.904-87.2 27.03-26.338-6.552-38.529 1.337-52.646 10.473-13.546 8.77-28.896 18.715-56.614 13.699-18.469-3.343-31.302-7.892-40.671-11.215-17.847-6.329-23.233-8.238-40.516 4.164a1333.488 1333.488 0 01-16.129 11.388c-12.865 8.937-27.939 13.407-43.014 13.407-15.075 0-30.149-4.47-43.012-13.407a1333.137 1333.137 0 01-16.131-11.388c-17.28-12.399-22.666-10.49-40.516-4.164-9.371 3.323-22.204 7.872-40.673 11.215-27.703 5.009-43.064-4.929-56.614-13.699-14.115-9.136-26.306-17.022-52.646-10.473-51.676 12.878-68.075-2.348-87.199-27.03-3.065-3.955-7.718-6.695-13.011-8.887.69 16.541 6.176 53.723 38.67 89.796a177.215 177.215 0 0010.23 10.422c.298.239.572.501.825.787 57.398 53.354 160.605 81.455 300.075 81.455 149.218 0 256.906-32.155 311.425-92.992 32.399-36.153 37.772-73.052 38.409-89.48-5.306 2.194-9.97 4.938-13.042 8.899z"/><path fill="#9B5E55" d="M245.884 658.747a6.732 6.732 0 011.911 1.377c27.304 19.067 97.215 40.408 272.209 42.691-112.856-49.919-212.391-68.297-287.784-73.359-1.216 3.354-2.178 9.073 1.337 15.776 2.148 4.094 5.923 8.714 12.327 13.515zm719.46-13.515c3.515-6.702 2.553-12.422 1.339-15.776-75.393 5.062-174.929 23.441-287.784 73.359 175.001-2.283 244.911-23.626 272.212-42.695a6.776 6.776 0 011.904-1.372c6.406-4.8 10.183-9.422 12.329-13.516z"/><path fill="#8C5757" d="M423.804 463.169c22.032 0 39.896-17.481 39.896-39.043 0-21.564-17.863-39.043-39.896-39.043-22.034 0-39.898 17.479-39.898 39.043 0 21.562 17.864 39.043 39.898 39.043zm352.394 0c22.032 0 39.896-17.481 39.896-39.043 0-21.564-17.863-39.043-39.896-39.043-22.036 0-39.898 17.479-39.898 39.043.001 21.562 17.863 39.043 39.898 39.043zm-204.074 36.679c9.535.787 18.71-4.982 27.327-17.2 8.094 11.476 16.676 17.271 25.596 17.271.575 0 1.152-.023 1.731-.072 18.5-1.545 28.53-27.369 29.614-30.307a6.81 6.81 0 00-4.031-8.739 6.819 6.819 0 00-8.749 4.021c-2.499 6.722-10.181 20.81-17.978 21.449-5.503.422-12.316-5.993-19.262-18.139a7.993 7.993 0 00-6.921-4.014h-.007a7.991 7.991 0 00-6.916 4.016c-6.944 12.146-13.789 18.605-19.26 18.138-7.798-.639-15.479-14.727-17.973-21.44-1.3-3.532-5.222-5.331-8.747-4.038a6.815 6.815 0 00-4.038 8.747c1.085 2.939 11.114 28.763 29.614 30.307z"/><path fill="#8C5757" d="M1127.86 346.273c4.778-14.597 10.713-38.238-6.707-48.029-21.306-11.982-39.161 15.939-46.781 27.863l-.845 1.319c-28.488 44.343-62.189 88.569-131.997 101.442a194.051 194.051 0 00-8.692-15.778c-43.589-71.179-130.109-113.24-196.546-128.867-89.528-21.055-184.164-21.055-273.682 0-66.437 15.627-152.957 57.686-196.546 128.867a194.085 194.085 0 00-8.692 15.78c-68.703-12.65-101.176-55.178-130.901-101.443l-.845-1.319c-7.62-11.923-25.47-39.854-46.781-27.863-17.418 9.791-11.483 33.432-6.707 48.029-28.54 21.377-23.436 39.532-17.571 48.675 11.05 17.227 32.245 46.401 50.053 48.242.637.065 1.267.098 1.887.098 2.724 0 5.247-.707 7.55-1.941 13.382 17.514 56.497 67.411 127.605 89.743.539 3.575 1.219 7.171 1.971 10.776-13.728 3.096-44.304 12.748-73.562 40.885-7.783 7.487-10.227 18.778-6.226 28.772 4.009 10.018 13.214 16.27 24.021 16.317 9.569.042 19.749.304 30.437.817-1.352 5.84-1.493 13.706 2.965 22.471 2.252 4.425 5.543 8.621 9.75 12.613-19.545 11.77-29.137 23.95-29.243 37.066-.161 20.089 18.47 25.523 33.442 29.89l.688.203c-.201 15.5 3.045 59.707 41.973 103.146.196.22.409.429.607.649-17.202.742-36.199 2.082-56.717 4.014-3.63.313-6.865-2.082-7.54-5.637-8.963-47.225-28.054-74.088-50.953-71.969-22.4 2.105-37.45 31.629-37.45 73.466 0 34.616 7.876 59.906 23.409 75.162 13.503 13.26 28.185 13.969 30.477 13.995 5.689.229 195.332 7.843 419.738 7.843 224.432 0 415.156-7.613 420.834-7.843 2.292-.027 16.974-.735 30.477-13.995 15.534-15.256 23.409-40.546 23.409-75.162 0-41.837-15.05-71.361-37.45-73.466-22.955-2.162-41.991 24.748-50.953 71.969-.675 3.555-3.928 5.963-7.538 5.637-12.339-1.161-34.418-3.032-57.806-4.024.195-.215.404-.422.597-.639 38.928-43.44 42.174-87.646 41.971-103.146l.69-.203c14.973-4.367 33.605-9.801 33.442-29.887-.105-13.119-9.697-25.3-29.241-37.071 4.206-3.991 7.498-8.187 9.748-12.612 4.458-8.765 4.319-16.631 2.965-22.471a702.312 702.312 0 0130.439-.817c10.806-.047 20.01-6.299 24.02-16.317 4.001-9.994 1.557-21.286-6.226-28.772-29.256-28.137-59.833-37.789-73.561-40.885.752-3.609 1.432-7.206 1.971-10.784 63.678-20.042 109.437-64.148 128.751-89.708 2.29 1.217 4.794 1.914 7.5 1.914.62 0 1.25-.033 1.887-.098 17.807-1.841 39.003-31.016 50.055-48.242 5.867-9.143 10.97-27.298-17.57-48.675zm-850.178 73.93c41.401-67.607 124.286-107.723 188.048-122.721 87.478-20.576 179.958-20.576 267.443 0 63.763 14.998 146.648 55.114 188.048 122.723 19.987 32.637 27.678 67.759 23.07 104.646a7.23 7.23 0 00-.058.466 179.879 179.879 0 01-3.14 17.554c-17.326 9.682-130.652 68.075-341.642 68.075-210.598 0-324.269-58.403-341.645-68.08-9.993-43.492-3.339-84.749 19.876-122.663zm-169.252 8.601c-.725.735-1.329.945-2.408.835-6.939-.717-21.994-13.997-39.986-42.046-7.681-11.972 5.549-24.605 18-33.094a8.212 8.212 0 014.636-1.445 8.095 8.095 0 016.316 3.038l29.76 36.846c1.974 2.443 2.368 5.837 1.003 8.647-5.932 12.219-12.083 21.886-17.321 27.219zm131.651 87.441c-66.477-22.784-105.724-70.378-116.28-84.581 5.694-7.616 10.689-16.887 14.207-24.131 3.658-7.538 2.614-16.628-2.662-23.157l-29.76-36.846c-5.18-6.412-13.447-9.091-21.163-7.596-3.261-10.53-6.6-25.486 1.099-29.817 8.895-4.986 19.462 8.985 28.628 23.326l.861 1.345c23.481 36.545 58.564 91.12 136.731 106.87-9.526 23.889-13.426 48.82-11.661 74.587zm-60.259 393.859c-1.65-.003-40.372-.955-40.372-75.535 0-37.377 12.933-58.759 25.102-59.903 12.063-1.161 28.004 17.261 36.294 60.947 1.991 10.497 11.523 17.664 22.199 16.659 25.447-2.396 48.473-3.866 68.57-4.404 35.161 32.248 84.767 55.253 148.35 68.881-149.999-2.178-258.459-6.582-260.143-6.645zm797.133-57.831c10.66 1.004 20.205-6.16 22.197-16.659 8.29-43.682 24.239-62.121 36.294-60.947 12.169 1.144 25.102 22.526 25.102 59.903 0 74.58-38.722 75.531-40.303 75.535-.136.003-.268.003-.402.007-1.438.058-110.53 4.465-260.917 6.643 63.593-13.628 113.207-36.638 148.372-68.893 27.448.726 55.256 3.056 69.657 4.411zm-66.079-27.319c-54.518 60.838-162.206 92.992-311.425 92.992-139.47 0-242.676-28.101-300.075-81.455a6.747 6.747 0 00-.825-.787 176.9 176.9 0 01-10.23-10.422c-32.494-36.073-37.98-73.255-38.67-89.796 5.293 2.192 9.946 4.932 13.011 8.887 19.124 24.682 35.522 39.908 87.199 27.03 26.34-6.549 38.531 1.337 52.646 10.473 13.55 8.77 28.91 18.708 56.614 13.699 18.469-3.343 31.302-7.892 40.673-11.215 17.85-6.326 23.236-8.235 40.516 4.164a1317.542 1317.542 0 0016.131 11.388c12.863 8.937 27.938 13.407 43.012 13.407 15.075 0 30.149-4.47 43.014-13.407a1333.488 1333.488 0 0016.129-11.388c17.283-12.402 22.669-10.493 40.516-4.164 9.369 3.323 22.202 7.872 40.671 11.215 27.718 5.015 43.067-4.929 56.614-13.699 14.117-9.136 26.308-17.025 52.646-10.473 51.671 12.875 68.075-2.345 87.2-27.03 3.071-3.961 7.736-6.705 13.044-8.9-.639 16.429-6.012 53.329-38.411 89.481zm72.626-124.033c.073 8.857-7.146 11.89-23.632 16.699a404.235 404.235 0 00-5.978 1.791l-.085.028c-10.492 3.243-21.311 7.53-28.335 16.593-16.744 21.612-28.4 33.286-73.138 22.154-32.078-7.992-48.686 2.764-63.344 12.256-13.081 8.471-24.384 15.781-46.784 11.73-17.381-3.146-29.115-7.307-38.544-10.65-18.673-6.619-29.943-10.62-53.01 5.933a1297.494 1297.494 0 01-15.961 11.268c-21.078 14.647-49.403 14.647-70.478 0a1289.57 1289.57 0 01-15.963-11.268c-23.067-16.546-34.337-12.552-53.01-5.933-9.429 3.343-21.164 7.503-38.546 10.65-22.407 4.048-33.705-3.259-46.784-11.73-14.657-9.492-31.267-20.245-63.344-12.256-44.733 11.132-56.391-.542-73.137-22.154-7.026-9.066-17.852-13.352-28.343-16.596l-.073-.023a404.91 404.91 0 00-5.982-1.793c-16.488-4.809-23.705-7.843-23.634-16.699.072-8.779 9.249-18.251 27.279-28.18 45.059 28.721 149.667 43.792 307.202 43.895 12.264 5.923 24.652 12.174 37.184 18.871a26.271 26.271 0 0012.387 3.11c4.254 0 8.509-1.038 12.386-3.11 12.532-6.697 24.919-12.948 37.184-18.871 157.538-.103 262.145-15.174 307.204-43.895 18.032 9.929 27.209 19.401 27.279 28.18zM232.22 629.456c75.393 5.062 174.928 23.441 287.784 73.359-174.994-2.283-244.905-23.624-272.209-42.691a6.718 6.718 0 00-1.911-1.377c-6.404-4.801-10.179-9.421-12.327-13.515-3.516-6.703-2.553-12.422-1.337-15.776zm446.679 73.359c112.855-49.919 212.391-68.297 287.784-73.359 1.214 3.354 2.177 9.075-1.339 15.776-2.147 4.094-5.923 8.716-12.329 13.516a6.776 6.776 0 00-1.904 1.372c-27.3 19.07-97.211 40.412-272.212 42.695zm340.488-110.245c4.568 4.394 4.557 10.058 3.022 13.892-1.936 4.833-6.209 7.733-11.433 7.756-12.524.053-26.052.471-40.441 1.345l-.033.002c-83.429 5.072-196.917 26.115-325.628 87.952-.158.065-.304.146-.457.221-12.86 6.185-25.852 12.73-39 19.756a12.633 12.633 0 01-11.93 0c-13.147-7.026-26.138-13.57-38.998-19.756-.153-.075-.299-.156-.459-.221-128.468-61.721-241.768-82.798-325.152-87.922a6.868 6.868 0 00-.673-.042c-14.328-.868-27.8-1.282-40.277-1.335-5.225-.023-9.499-2.923-11.434-7.756-1.535-3.835-1.547-9.499 3.022-13.892 30.224-29.063 62.475-36.627 70.945-38.176 17.419 10.026 131.024 70.175 348.992 70.175 218.003 0 331.611-60.171 349.002-70.182 8.425 1.513 40.537 8.953 70.932 38.183zm-60.563-76.345c1.759-25.762-2.14-50.687-11.662-74.569 73.058-14.657 109.427-62.665 137.827-106.868l.861-1.345c9.165-14.336 19.733-28.323 28.628-23.326 7.699 4.33 4.362 19.284 1.101 29.813-7.718-1.497-15.984 1.187-21.164 7.601l.002-.002-29.762 36.846c-5.276 6.532-6.321 15.622-2.661 23.158 3.512 7.231 8.496 16.483 14.177 24.091-10.622 14.012-50.601 61.732-117.347 84.601zm175.141-128.633c-17.993 28.051-33.048 41.329-39.987 42.046-1.081.111-1.683-.098-2.408-.835-5.235-5.331-11.386-14.998-17.321-27.219-1.364-2.81-.969-6.204 1.003-8.647l29.762-36.846s.002 0 .002-.002a8.09 8.09 0 016.313-3.037 8.21 8.21 0 014.636 1.445c12.449 8.49 25.679 21.124 18 33.095z"/><linearGradient id="a" gradientUnits="userSpaceOnUse" x1="423.259" y1="429.034" x2="447.71" y2="404.582"><stop offset="0" stop-color="#fff" stop-opacity="0"/><stop offset=".259" stop-color="#fffbf5" stop-opacity=".259"/><stop offset=".697" stop-color="#feefda" stop-opacity=".697"/><stop offset="1" stop-color="#fee6c4"/></linearGradient><path fill="url(#a)" d="M435.275 434.306c9.549 0 17.29-7.739 17.29-17.288 0-9.55-7.741-17.291-17.29-17.291s-17.29 7.741-17.29 17.291c0 9.549 7.741 17.288 17.29 17.288z"/><linearGradient id="b" gradientUnits="userSpaceOnUse" x1="775.652" y1="429.034" x2="800.103" y2="404.582"><stop offset="0" stop-color="#fff" stop-opacity="0"/><stop offset=".259" stop-color="#fffbf5" stop-opacity=".259"/><stop offset=".697" stop-color="#feefda" stop-opacity=".697"/><stop offset="1" stop-color="#fee6c4"/></linearGradient><path fill="url(#b)" d="M787.668 434.306c9.549 0 17.29-7.739 17.29-17.288 0-9.55-7.741-17.291-17.29-17.291s-17.29 7.741-17.29 17.291c0 9.549 7.741 17.288 17.29 17.288z"/><radialGradient id="c" cx="599.446" cy="446.498" r="365.311" gradientTransform="matrix(.9998 .0183 -.0144 .7855 6.532 84.772)" gradientUnits="userSpaceOnUse"><stop offset=".337" stop-color="#f7c277" stop-opacity="0"/><stop offset=".489" stop-color="#f1b570" stop-opacity=".283"/><stop offset=".768" stop-color="#e2935e" stop-opacity=".804"/><stop offset=".874" stop-color="#db8556"/></radialGradient><path fill="url(#c)" d="M599.452 610.945c210.99 0 324.316-58.393 341.642-68.075a180.233 180.233 0 003.14-17.554c.013-.156.035-.311.058-.466 4.608-36.888-3.083-72.009-23.07-104.646-41.402-67.608-124.286-107.724-188.049-122.722-87.485-20.576-179.965-20.576-267.443 0-63.763 14.998-146.648 55.114-188.048 122.721-23.215 37.914-29.868 79.172-19.876 122.663 17.376 9.676 131.047 68.079 341.646 68.079zm176.746-225.862c22.032 0 39.896 17.479 39.896 39.043 0 21.562-17.863 39.043-39.896 39.043-22.036 0-39.898-17.481-39.898-39.043.001-21.564 17.863-39.043 39.898-39.043zm-229.65 75.711c3.525-1.294 7.447.506 8.747 4.038 2.494 6.713 10.176 20.802 17.973 21.44 5.471.467 12.316-5.992 19.26-18.138a7.991 7.991 0 016.916-4.016h.007a7.993 7.993 0 016.921 4.014c6.946 12.146 13.759 18.562 19.262 18.139 7.798-.639 15.479-14.727 17.978-21.449a6.819 6.819 0 018.749-4.021 6.809 6.809 0 014.031 8.739c-1.084 2.938-11.114 28.762-29.614 30.307-.579.048-1.156.072-1.731.072-8.92 0-17.503-5.795-25.596-17.271-8.617 12.218-17.792 17.987-27.327 17.2-18.5-1.545-28.53-27.369-29.614-30.307a6.815 6.815 0 014.038-8.747zm-122.744-75.711c22.032 0 39.896 17.479 39.896 39.043 0 21.562-17.863 39.043-39.896 39.043-22.034 0-39.898-17.481-39.898-39.043 0-21.564 17.864-39.043 39.898-39.043z"/><radialGradient id="d" cx="401.774" cy="518.769" r="122.398" gradientTransform="matrix(1 0 0 .6019 0 206.51)" gradientUnits="userSpaceOnUse"><stop offset="0" stop-color="#f56849"/><stop offset=".513" stop-color="#f56849" stop-opacity="0"/></radialGradient><path fill="url(#d)" d="M401.773 564.296c37.689 0 67.211-19.996 67.211-45.526s-29.522-45.528-67.211-45.528c-37.686 0-67.208 19.998-67.208 45.528s29.521 45.526 67.208 45.526z"/><radialGradient id="e" cx="798.225" cy="518.769" r="122.398" gradientTransform="matrix(1 0 0 .6019 0 206.51)" gradientUnits="userSpaceOnUse"><stop offset="0" stop-color="#f56849"/><stop offset=".513" stop-color="#f56849" stop-opacity="0"/></radialGradient><path fill="url(#e)" d="M798.224 564.296c37.688 0 67.211-19.996 67.211-45.526s-29.522-45.528-67.211-45.528c-37.686 0-67.208 19.998-67.208 45.528s29.522 45.526 67.208 45.526z"/><linearGradient id="f" gradientUnits="userSpaceOnUse" x1="58.579" y1="309.031" x2="249.069" y2="499.522"><stop offset=".337" stop-color="#f7c277" stop-opacity="0"/><stop offset=".513" stop-color="#eca969" stop-opacity=".329"/><stop offset=".739" stop-color="#df8f5b" stop-opacity=".75"/><stop offset=".874" stop-color="#db8556"/></linearGradient><path fill="url(#f)" d="M115.01 334.789l-.861-1.345c-9.166-14.341-19.733-28.312-28.628-23.326-7.699 4.33-4.36 19.287-1.099 29.817 7.716-1.495 15.983 1.184 21.163 7.596l29.76 36.846c5.277 6.529 6.321 15.618 2.662 23.157-3.517 7.244-8.513 16.515-14.207 24.131 10.556 14.203 49.804 61.797 116.28 84.581-1.764-25.767 2.135-50.698 11.661-74.587-78.167-15.75-113.25-70.325-136.731-106.87z"/><linearGradient id="g" gradientUnits="userSpaceOnUse" x1="1086.097" y1="363.594" x2="964.462" y2="485.229"><stop offset=".337" stop-color="#f7c277" stop-opacity="0"/><stop offset=".513" stop-color="#eca969" stop-opacity=".329"/><stop offset=".739" stop-color="#df8f5b" stop-opacity=".75"/><stop offset=".874" stop-color="#db8556"/></linearGradient><path fill="url(#g)" d="M1064.654 384.376l29.762-36.846-.002.002c5.18-6.414 13.447-9.098 21.164-7.601 3.261-10.53 6.599-25.483-1.101-29.813-8.895-4.997-19.463 8.99-28.628 23.326l-.861 1.345c-28.4 44.203-64.769 92.211-137.827 106.868 9.522 23.882 13.422 48.806 11.662 74.569 66.746-22.869 106.725-70.589 117.346-84.599-5.681-7.608-10.665-16.861-14.177-24.091-3.659-7.538-2.614-16.628 2.662-23.16z"/><linearGradient id="h" gradientUnits="userSpaceOnUse" x1="175.569" y1="639.689" x2="1023.332" y2="639.689"><stop offset="0" stop-color="#ffe4bd"/><stop offset=".64" stop-color="#fdd687" stop-opacity="0"/></linearGradient><path fill="url(#h)" d="M599.452 624.568c-217.968 0-331.573-60.149-348.992-70.175-8.469 1.55-40.721 9.113-70.945 38.176-4.568 4.394-4.556 10.058-3.022 13.892 1.936 4.833 6.209 7.733 11.434 7.756 12.477.053 25.949.467 40.277 1.335.226 0 .449.02.673.042 83.384 5.124 196.684 26.201 325.152 87.922.16.065.306.146.459.221 12.86 6.186 25.851 12.73 38.998 19.756a12.633 12.633 0 0011.93 0c13.147-7.026 26.14-13.571 39-19.756.153-.075.299-.156.457-.221 128.711-61.837 242.199-82.88 325.628-87.952l.033-.002c14.39-.875 27.918-1.292 40.441-1.345 5.223-.023 9.497-2.923 11.433-7.756 1.535-3.835 1.547-9.499-3.022-13.892-30.395-29.23-62.507-36.67-70.933-38.183-17.39 10.012-130.998 70.182-349.001 70.182z"/><radialGradient id="i" cx="599.451" cy="736.226" r="275.251" gradientUnits="userSpaceOnUse"><stop offset="0" stop-color="#b9db69" stop-opacity="0"/><stop offset="1" stop-color="#b9db69"/></radialGradient><path fill="url(#i)" d="M649.021 716.636c-12.264 5.923-24.652 12.174-37.184 18.871a26.258 26.258 0 01-12.386 3.11 26.268 26.268 0 01-12.387-3.11c-12.532-6.697-24.919-12.948-37.184-18.871-157.535-.103-262.143-15.174-307.202-43.895-18.03 9.93-27.208 19.402-27.279 28.18-.072 8.857 7.146 11.89 23.634 16.699a404.91 404.91 0 015.982 1.793l.073.023c10.492 3.244 21.317 7.53 28.343 16.596 16.746 21.612 28.403 33.286 73.137 22.154 32.077-7.989 48.686 2.764 63.344 12.256 13.079 8.471 24.377 15.778 46.784 11.73 17.381-3.146 29.117-7.307 38.546-10.65 18.673-6.619 29.943-10.613 53.01 5.933a1282.075 1282.075 0 0015.963 11.268c21.075 14.647 49.4 14.647 70.478 0a1297.494 1297.494 0 0015.961-11.268c23.067-16.553 34.337-12.552 53.01-5.933 9.429 3.343 21.163 7.503 38.544 10.65 22.4 4.051 33.703-3.259 46.784-11.73 14.657-9.492 31.265-20.248 63.344-12.256 44.738 11.132 56.394-.542 73.138-22.154 7.024-9.063 17.844-13.35 28.335-16.593l.085-.028a404.235 404.235 0 015.978-1.791c16.487-4.809 23.705-7.843 23.632-16.699-.07-8.779-9.248-18.251-27.277-28.18-45.062 28.721-149.668 43.792-307.206 43.895z"/><radialGradient id="j" cx="599.468" cy="826.71" r="378.071" gradientUnits="userSpaceOnUse"><stop offset="0" stop-color="#f7c277" stop-opacity="0"/><stop offset=".226" stop-color="#f1b570" stop-opacity=".283"/><stop offset=".642" stop-color="#e2935e" stop-opacity=".804"/><stop offset=".799" stop-color="#db8556"/></radialGradient><path fill="url(#j)" d="M936.241 744.374c-19.126 24.685-35.529 39.904-87.2 27.03-26.338-6.552-38.529 1.337-52.646 10.473-13.546 8.77-28.896 18.715-56.614 13.699-18.469-3.343-31.302-7.892-40.671-11.215-17.847-6.329-23.233-8.238-40.516 4.164a1333.488 1333.488 0 01-16.129 11.388c-12.865 8.937-27.939 13.407-43.014 13.407-15.075 0-30.149-4.47-43.012-13.407a1333.137 1333.137 0 01-16.131-11.388c-17.28-12.399-22.666-10.49-40.516-4.164-9.371 3.323-22.204 7.872-40.673 11.215-27.703 5.009-43.064-4.929-56.614-13.699-14.115-9.136-26.306-17.022-52.646-10.473-51.676 12.878-68.075-2.348-87.199-27.03-3.065-3.955-7.718-6.695-13.011-8.887.69 16.541 6.176 53.723 38.67 89.796a177.215 177.215 0 0010.23 10.422c.298.239.572.501.825.787 57.398 53.354 160.605 81.455 300.075 81.455 149.218 0 256.906-32.155 311.425-92.992 32.399-36.153 37.772-73.052 38.409-89.48-5.306 2.194-9.97 4.938-13.042 8.899z"/><linearGradient id="k" gradientUnits="userSpaceOnUse" x1="139.45" y1="845.683" x2="439.966" y2="845.683"><stop offset=".025" stop-color="#f7c277" stop-opacity="0"/><stop offset=".243" stop-color="#eca969" stop-opacity=".329"/><stop offset=".522" stop-color="#df8f5b" stop-opacity=".75"/><stop offset=".689" stop-color="#db8556"/></linearGradient><path fill="url(#k)" d="M223.045 852.273c-10.676 1.004-20.208-6.163-22.199-16.659-8.29-43.686-24.231-62.108-36.294-60.947-12.169 1.144-25.102 22.526-25.102 59.903 0 74.58 38.722 75.531 40.372 75.535 1.685.063 110.144 4.467 260.144 6.647-63.583-13.628-113.189-36.633-148.35-68.881-20.097.536-43.124 2.006-68.571 4.402z"/><linearGradient id="l" gradientUnits="userSpaceOnUse" x1="1053.18" y1="845.684" x2="751.557" y2="845.684"><stop offset=".025" stop-color="#f7c277" stop-opacity="0"/><stop offset=".243" stop-color="#eca969" stop-opacity=".329"/><stop offset=".522" stop-color="#df8f5b" stop-opacity=".75"/><stop offset=".689" stop-color="#db8556"/></linearGradient><path fill="url(#l)" d="M758.925 916.754c150.388-2.178 259.479-6.585 260.917-6.643.135-.003.266-.003.402-.007 1.581-.003 40.303-.955 40.303-75.535 0-37.377-12.933-58.759-25.102-59.903-12.055-1.174-28.004 17.265-36.294 60.947-1.992 10.5-11.538 17.664-22.197 16.659-14.401-1.355-42.209-3.685-69.658-4.412-35.163 32.256-84.778 55.266-148.371 68.894z"/><g opacity=".8"><linearGradient id="m" gradientUnits="userSpaceOnUse" x1="411.727" y1="418.745" x2="375.088" y2="355.284"><stop offset="0" stop-color="#fff" stop-opacity="0"/><stop offset="1" stop-color="#fff"/></linearGradient><path fill="url(#m)" d="M298.714 481.547c15.962-41.917 46.962-77.01 84.898-100.54 20.834-12.922 43.563-22.733 67-29.826 20.669-6.256 47.277-6.426 65.723-17.538 7.925-4.774 6.42-17.171-2.574-19.696-22.953-6.443-54.374 5.234-76.132 12.476-26.145 8.702-51.25 20.519-73.686 36.61-39.236 28.139-69.409 66.871-81.547 114.016-2.765 10.738 12.506 14.507 16.318 4.498z"/></g><g opacity=".8"><linearGradient id="n" gradientUnits="userSpaceOnUse" x1="569.941" y1="853.575" x2="350.945" y2="853.575"><stop offset="0" stop-color="#fff" stop-opacity="0"/><stop offset="1" stop-color="#fff"/></linearGradient><path fill="url(#n)" d="M351.653 822.479c9.409 15.086 29.459 24.213 44.804 32.138 17.267 8.918 35.584 16.271 54.184 21.894 18.813 5.687 38.166 9.56 57.643 12.096 18.61 2.423 39.53 5.647 57.165-1.965 7.98-3.445 4.107-14.008-2.155-16.486-15.019-5.944-33.244-4.105-49.191-5.772-19.344-2.022-38.359-5.78-57.131-10.836a436.225 436.225 0 01-49.864-16.698c-16.034-6.47-33.165-18.715-50.317-21.054-3.619-.494-7.464 2.954-5.138 6.683z"/></g></svg>