<svg xmlns="http://www.w3.org/2000/svg" viewBox="0 0 1200 1200"><path fill="#F6C774" d="M864.024 663.175c66.431 40.257 115.364 54.519 148.046 64l3.287.956c19.741 5.742 23.855 2.25 24.018 2.095.464-.425.708-2.156.155-4.962-1.166-5.897.408-11.83 4.317-16.282 3.849-4.39 9.433-6.66 15.304-6.305 4.547.302 6.315-.641 6.542-.911.141-.249.4-2.017-1.133-5.354-2.548-5.537-2.44-11.773.296-17.103 2.742-5.341 7.763-9.074 13.774-10.238 3.473-.674 3.959-1.952 4.22-2.642.394-1.037-.706-2.385-1.952-3.042-75.397-39.871-126.106-91.117-157.194-130.56l-59.68 130.348z"/><path fill="#F99891" d="M600.001 579.312a31.098 31.098 0 00-29.609 21.423c8.157 6.444 18.43 10.324 29.609 10.324 11.177 0 21.45-3.88 29.607-10.322a31.1 31.1 0 00-29.607-21.425z"/><path fill="#EE726B" d="M647.886 549.717a3.83 3.83 0 00-3.826-3.826h-88.12a3.83 3.83 0 00-3.826 3.826v13.456c0 8.572 2.293 16.606 6.254 23.573a47.823 47.823 0 0141.633-24.161c17.668 0 33.32 9.56 41.631 24.163 3.961-6.969 6.254-15.001 6.254-23.575v-13.456zM535.387 843.441c0-56.192-45.715-101.904-101.907-101.904-13.809 0-27.075 2.712-39.565 8l84.816 185.245c34.664-17.122 56.656-52.158 56.656-91.341zm116.951 111.424c0 24.057 12.68 46.256 32.869 58.683l56.905-124.285a68.54 68.54 0 00-20.9-3.269c-37.977-.001-68.874 30.897-68.874 68.871z"/><path fill="#F6C774" d="M119.105 663.383c-1.248.662-2.348 2.009-1.956 3.046.261.69.747 1.968 4.223 2.642 6.007 1.164 11.028 4.892 13.772 10.234 2.736 5.329 2.844 11.565.298 17.107-1.535 3.336-1.274 5.105-1.129 5.362.221.257 1.983 1.205 6.538.903 5.878-.331 11.451 1.915 15.302 6.301 3.908 4.455 5.482 10.389 4.316 16.286-.553 2.806-.308 4.537.155 4.962.161.151 4.278 3.647 24.018-2.099l3.287-.951c32.682-9.48 81.615-23.743 148.046-64l-59.68-130.347c-31.088 39.441-81.799 90.689-157.19 130.554zm927.446-524.816c-86.807-33.139-255.843-71.84-446.55-71.84-190.708 0-359.745 38.701-446.552 71.84-31.757 12.124-49.737 46.37-40.935 77.962 9.278 33.311 41.458 38.954 49.062 39.828 21.186-8.225 214.618-80.8 438.425-80.8 223.862 0 417.339 72.612 438.442 80.804 7.72-.841 39.714-6.33 49.043-39.828 8.802-31.6-9.178-65.841-40.935-77.966z"/><path fill="#D37433" d="M174.119 269.484l35.67 77.907c20.411 7.506 38.555-9.201 58.349-30.219 23.961-25.437 48.092-31.832 83.277-22.052 3.093.858 6.019 1.699 8.804 2.499 29.082 8.359 37.864 10.887 60.055-14.693 19.551-22.534 48.23-15.032 69.17-9.552l1.109.286c25.546 6.681 41.431 6.832 57.39-10.854 13.795-15.289 32.288-23.71 52.073-23.71 19.763 0 38.246 8.421 52.045 23.714 15.951 17.678 31.845 17.527 57.388 10.85l1.109-.286c20.939-5.48 49.621-12.978 69.17 9.552 22.195 25.584 30.971 23.057 60.055 14.693 2.785-.8 5.711-1.642 8.802-2.499 35.187-9.793 59.318-3.389 83.279 22.052 19.797 21.019 37.941 37.748 58.347 30.223l35.67-77.907c-39.789-14.807-219.761-77.204-425.878-77.204-206.253 0-386.113 62.395-425.884 77.2z"/><path fill="#F9CD50" d="M919.685 328.639c-19.792-21.019-37.223-25.568-66.623-17.405-3.04.845-5.919 1.674-8.657 2.462-30.007 8.621-48.124 13.84-77.313-19.81-11.824-13.623-29.137-10.393-52.302-4.333l-1.115.294c-24.467 6.391-50.336 10.434-74.033-15.832-10.585-11.732-24.657-18.193-39.626-18.193-14.989 0-29.072 6.46-39.655 18.189-23.698 26.274-49.568 22.232-74.037 15.832l-1.113-.29c-23.169-6.06-40.48-9.303-52.302 4.333-29.186 33.65-47.303 28.435-77.312 19.81-2.738-.788-5.617-1.617-8.659-2.462-29.39-8.163-46.83-3.61-66.621 17.405-14.65 15.555-35.287 37.464-60.445 37.468-.511 0-1.036-.067-1.552-.086l168.635 368.31c14.63-6.224 30.536-9.521 46.527-9.521 65.415 0 118.633 53.219 118.633 118.631 0 45.786-25.798 86.705-66.418 106.55l71.268 155.652c7.804 17.045 24.294 27.63 43.036 27.63 18.744 0 35.236-10.585 43.04-27.63l35.167-76.806c-26.103-15.216-42.595-43.385-42.595-73.972 0-47.199 38.401-85.598 85.6-85.598 9.623 0 18.976 1.58 27.916 4.672l232.53-507.864c-25.852.911-47.03-21.565-61.974-37.436zM413.13 517.895c-27.056 0-48.988-21.464-48.988-47.939 0-26.477 21.932-47.938 48.988-47.938 27.053 0 48.986 21.462 48.986 47.938 0 26.475-21.932 47.939-48.986 47.939zm186.871 109.89c-17.327 0-33.049-6.891-44.664-18.034-.047-.043-.096-.084-.142-.129-12.187-11.759-19.808-28.218-19.808-46.45v-13.456c0-11.332 9.221-20.553 20.553-20.553h88.12c11.332 0 20.553 9.221 20.553 20.553v13.456c0 18.228-7.616 34.683-19.796 46.44-.059.057-.122.11-.182.165-11.611 11.127-27.32 18.008-44.634 18.008zm56.249 161.09c-9.378 0-16.982-7.604-16.982-16.984 0-9.378 7.604-16.982 16.982-16.982 9.379 0 16.982 7.604 16.982 16.982 0 9.38-7.603 16.984-16.982 16.984zm130.623-270.98c-27.055 0-48.988-21.464-48.988-47.939 0-26.477 21.932-47.938 48.988-47.938 27.053 0 48.986 21.462 48.986 47.938 0 26.475-21.933 47.939-48.986 47.939z"/><path fill="#913D58" d="M1052.517 122.943C964.381 89.293 792.984 50 600.001 50c-192.985 0-364.382 39.293-452.518 72.943-39.738 15.167-62.178 58.25-51.083 98.078 9.998 35.892 41.609 48.99 60.788 51.665l111.245 242.97c-29.406 38.838-79.84 92.063-157.144 132.941-9.072 4.79-13.184 14.787-9.78 23.763 1.85 4.876 6.244 11.112 16.684 13.137 1.217.233 1.799.919 2.072 1.454.27.523.484 1.376-.02 2.475-3.804 8.274-3.704 16.024.284 21.823 2.854 4.153 8.884 8.931 21.407 8.122.686-.053 1.233.176 1.646.641.267.306.684.972.48 2.009-2.175 11.001 1.664 17.241 5.266 20.541 4.067 3.724 9.666 5.578 17.098 5.578 6.266 0 13.838-1.319 22.889-3.953l3.275-.947c33.268-9.652 82.942-24.126 150.396-64.755l198.77 434.125c10.56 23.061 32.878 37.39 58.244 37.39h.002c25.364 0 47.685-14.33 58.246-37.39l198.768-434.125c67.454 40.629 117.128 55.103 150.396 64.755l3.275.952c9.054 2.63 16.621 3.949 22.889 3.949 7.43 0 13.033-1.854 17.098-5.578 3.602-3.3 7.441-9.54 5.266-20.541-.204-1.037.212-1.703.48-2.009.417-.466.968-.69 1.648-.641 12.529.813 18.55-3.965 21.407-8.122 3.986-5.799 4.088-13.546.284-21.823-.504-1.099-.29-1.952-.022-2.475.276-.535.856-1.221 2.075-1.454 10.438-2.026 14.832-8.261 16.68-13.133 3.408-8.98-.704-18.973-9.774-23.763-77.313-40.886-127.743-94.109-157.147-132.947l111.244-242.968c19.179-2.675 50.79-15.773 60.788-51.665 11.092-39.829-11.345-82.912-51.086-98.079zM187.93 727.174l-3.287.951c-19.741 5.746-23.857 2.25-24.018 2.099-.464-.425-.709-2.156-.155-4.962 1.166-5.897-.408-11.83-4.316-16.286-3.851-4.386-9.423-6.632-15.302-6.301-4.555.302-6.317-.645-6.538-.903-.145-.257-.406-2.026 1.129-5.362 2.546-5.542 2.438-11.777-.298-17.107-2.744-5.341-7.765-9.07-13.772-10.234-3.475-.674-3.961-1.952-4.223-2.642-.392-1.037.709-2.385 1.956-3.046 75.391-39.865 126.101-91.113 157.191-130.556l59.68 130.347c-66.433 40.26-115.365 54.522-148.047 64.002zm205.985 22.363c12.49-5.288 25.756-8 39.565-8 56.192 0 101.907 45.713 101.907 101.904 0 39.183-21.992 74.219-56.655 91.34l-84.817-185.244zm291.291 264.01c-20.189-12.427-32.869-34.626-32.869-58.683 0-37.974 30.897-68.872 68.874-68.872a68.536 68.536 0 0120.9 3.269l-56.905 124.286zm395.693-350.16c1.246.657 2.346 2.005 1.952 3.042-.261.69-.747 1.968-4.22 2.642-6.011 1.164-11.032 4.896-13.774 10.238-2.736 5.329-2.844 11.565-.296 17.103 1.533 3.336 1.274 5.105 1.133 5.354-.227.27-1.995 1.213-6.542.911-5.87-.355-11.455 1.915-15.304 6.305-3.908 4.451-5.482 10.385-4.317 16.282.553 2.806.308 4.537-.155 4.962-.163.155-4.278 3.647-24.018-2.095l-3.287-.956c-32.682-9.48-81.615-23.743-148.046-64l59.681-130.347c31.086 39.442 81.795 90.688 157.193 130.559zM749.127 873.938c-8.94-3.091-18.293-4.672-27.916-4.672-47.199 0-85.6 38.399-85.6 85.598 0 30.587 16.492 58.756 42.595 73.972l-35.167 76.806c-7.804 17.045-24.296 27.63-43.04 27.63-18.742 0-35.232-10.585-43.036-27.63L485.695 949.99c40.62-19.845 66.418-60.763 66.418-106.55 0-65.413-53.219-118.631-118.633-118.631-15.991 0-31.897 3.298-46.527 9.521L218.318 366.02c.516.018 1.04.086 1.552.086 25.158-.004 45.795-21.913 60.445-37.468 19.792-21.015 37.231-25.568 66.621-17.405 3.042.845 5.921 1.674 8.659 2.462 30.009 8.625 48.126 13.84 77.312-19.81 11.822-13.635 29.133-10.393 52.302-4.333l1.113.29c24.469 6.399 50.34 10.442 74.037-15.832 10.583-11.728 24.666-18.189 39.655-18.189 14.969 0 29.041 6.46 39.626 18.193 23.698 26.266 49.566 22.223 74.033 15.832l1.115-.294c23.165-6.06 40.478-9.29 52.302 4.333 29.188 33.65 47.306 28.431 77.313 19.81 2.738-.788 5.617-1.617 8.657-2.462 29.401-8.163 46.832-3.614 66.623 17.405 14.944 15.871 36.122 38.348 61.972 37.435L749.127 873.938zm241.082-526.543c-20.406 7.524-38.55-9.205-58.347-30.223-23.961-25.441-48.092-31.845-83.279-22.052-3.091.858-6.017 1.699-8.802 2.499-29.084 8.363-37.86 10.891-60.055-14.693-19.549-22.53-48.23-15.032-69.17-9.552l-1.109.286c-25.543 6.677-41.437 6.828-57.388-10.85-13.799-15.293-32.282-23.714-52.045-23.714-19.786 0-38.279 8.421-52.073 23.71-15.959 17.686-31.845 17.535-57.39 10.854l-1.109-.286c-20.939-5.48-49.619-12.982-69.17 9.552-22.191 25.58-30.973 23.052-60.055 14.693-2.785-.8-5.711-1.642-8.804-2.499-35.185-9.78-59.316-3.385-83.277 22.052-19.794 21.019-37.938 37.725-58.349 30.219l-35.67-77.907c39.771-14.805 219.631-77.2 425.882-77.2 206.117 0 386.089 62.397 425.878 77.204l-35.668 77.907zm97.277-130.862c-9.329 33.499-41.323 38.987-49.043 39.828-21.102-8.192-214.58-80.804-438.442-80.804-223.807 0-417.239 72.575-438.425 80.8-7.604-.874-39.783-6.518-49.062-39.828-8.802-31.591 9.178-65.837 40.935-77.962 86.807-33.139 255.843-71.84 446.552-71.84 190.706 0 359.743 38.701 446.55 71.84 31.757 12.125 49.737 46.366 40.935 77.966z"/><path fill="#913D58" d="M413.13 422.018c-27.056 0-48.988 21.462-48.988 47.938 0 26.475 21.932 47.939 48.988 47.939 27.053 0 48.986-21.464 48.986-47.939 0-26.476-21.932-47.938-48.986-47.938zm373.743 0c-27.055 0-48.988 21.462-48.988 47.938 0 26.475 21.932 47.939 48.988 47.939 27.053 0 48.986-21.464 48.986-47.939 0-26.476-21.933-47.938-48.986-47.938zM644.817 609.613c12.18-11.757 19.796-28.212 19.796-46.44v-13.456c0-11.332-9.221-20.553-20.553-20.553h-88.12c-11.332 0-20.553 9.221-20.553 20.553v13.456c0 18.232 7.621 34.691 19.808 46.45.046.045.095.086.142.129 11.615 11.142 27.337 18.034 44.664 18.034 17.314 0 33.023-6.881 44.635-18.007.06-.056.122-.109.181-.166zm-44.816 1.446c-11.179 0-21.452-3.88-29.609-10.324a31.098 31.098 0 0129.609-21.423 31.1 31.1 0 0129.607 21.425c-8.157 6.442-18.43 10.322-29.607 10.322zm0-48.474a47.823 47.823 0 00-41.633 24.161c-3.961-6.967-6.254-15.001-6.254-23.573v-13.456a3.83 3.83 0 013.826-3.826h88.12a3.83 3.83 0 013.826 3.826v13.456c0 8.574-2.293 16.606-6.254 23.575a47.818 47.818 0 00-41.631-24.163zm56.249 192.324c-9.378 0-16.982 7.604-16.982 16.982 0 9.38 7.604 16.984 16.982 16.984 9.379 0 16.982-7.604 16.982-16.984 0-9.378-7.603-16.982-16.982-16.982z"/><linearGradient id="a" gradientUnits="userSpaceOnUse" x1="411.581" y1="476.862" x2="441.604" y2="446.84"><stop offset="0" stop-color="#fff" stop-opacity="0"/><stop offset=".498" stop-color="#fef7e5" stop-opacity=".498"/><stop offset="1" stop-color="#fceec7"/></linearGradient><circle fill="url(#a)" cx="427.214" cy="461.23" r="21.229"/><linearGradient id="b" gradientUnits="userSpaceOnUse" x1="912.135" y1="984.552" x2="531.739" y2="322.748"><stop offset=".205" stop-color="#f2a561"/><stop offset="1" stop-color="#f2a561" stop-opacity="0"/></linearGradient><path fill="url(#b)" d="M919.685 328.639c-19.792-21.019-37.223-25.568-66.623-17.405-3.04.845-5.919 1.674-8.657 2.462-30.007 8.621-48.124 13.84-77.313-19.81-11.824-13.623-29.137-10.393-52.302-4.333l-1.115.294c-24.467 6.391-50.336 10.434-74.033-15.832-10.585-11.732-24.657-18.193-39.626-18.193-14.989 0-29.072 6.46-39.655 18.189-23.698 26.274-49.568 22.232-74.037 15.832l-1.113-.29c-23.169-6.06-40.48-9.303-52.302 4.333-29.186 33.65-47.303 28.435-77.312 19.81-2.738-.788-5.617-1.617-8.659-2.462-29.39-8.163-46.83-3.61-66.621 17.405-14.65 15.555-35.287 37.464-60.445 37.468-.511 0-1.036-.067-1.552-.086l168.635 368.31c14.63-6.224 30.536-9.521 46.527-9.521 65.415 0 118.633 53.219 118.633 118.631 0 45.786-25.798 86.705-66.418 106.55l71.268 155.652c7.804 17.045 24.294 27.63 43.036 27.63 18.744 0 35.236-10.585 43.04-27.63l35.167-76.806c-26.103-15.216-42.595-43.385-42.595-73.972 0-47.199 38.401-85.598 85.6-85.598 9.623 0 18.976 1.58 27.916 4.672l232.53-507.864c-25.852.911-47.03-21.565-61.974-37.436zM413.13 517.895c-27.056 0-48.988-21.464-48.988-47.939 0-26.477 21.932-47.938 48.988-47.938 27.053 0 48.986 21.462 48.986 47.938 0 26.475-21.932 47.939-48.986 47.939zm186.871 109.89c-17.327 0-33.049-6.891-44.664-18.034-.047-.043-.096-.084-.142-.129-12.187-11.759-19.808-28.218-19.808-46.45v-13.456c0-11.332 9.221-20.553 20.553-20.553h88.12c11.332 0 20.553 9.221 20.553 20.553v13.456c0 18.228-7.616 34.683-19.796 46.44-.059.057-.122.11-.182.165-11.611 11.127-27.32 18.008-44.634 18.008zm56.249 161.09c-9.378 0-16.982-7.604-16.982-16.984 0-9.378 7.604-16.982 16.982-16.982 9.379 0 16.982 7.604 16.982 16.982 0 9.38-7.603 16.984-16.982 16.984zm130.623-270.98c-27.055 0-48.988-21.464-48.988-47.939 0-26.477 21.932-47.938 48.988-47.938 27.053 0 48.986 21.462 48.986 47.938 0 26.475-21.933 47.939-48.986 47.939z"/><linearGradient id="c" gradientUnits="userSpaceOnUse" x1="300.12" y1="268.805" x2="839.882" y2="808.567"><stop offset=".012" stop-color="#fceaa3"/><stop offset=".366" stop-color="#fbe68c" stop-opacity="0"/></linearGradient><path fill="url(#c)" d="M919.697 328.639c-19.792-21.019-37.223-25.568-66.623-17.405-3.04.845-5.919 1.674-8.657 2.462-30.007 8.621-48.124 13.84-77.313-19.81-11.824-13.623-29.137-10.393-52.302-4.333l-1.115.294c-24.467 6.391-50.336 10.434-74.033-15.832-10.585-11.732-24.657-18.193-39.626-18.193-14.989 0-29.072 6.46-39.655 18.189-23.698 26.274-49.568 22.232-74.037 15.832l-1.113-.29c-23.169-6.06-40.48-9.303-52.302 4.333-29.186 33.65-47.303 28.435-77.312 19.81-2.738-.788-5.617-1.617-8.659-2.462-29.39-8.163-46.83-3.61-66.621 17.405-14.65 15.555-35.287 37.464-60.445 37.468-.511 0-1.036-.067-1.552-.086l168.635 368.31c14.63-6.224 30.536-9.521 46.527-9.521 65.415 0 118.633 53.219 118.633 118.631 0 45.786-25.798 86.705-66.418 106.55l71.268 155.652c7.804 17.045 24.294 27.63 43.036 27.63 18.744 0 35.236-10.585 43.04-27.63l35.167-76.806c-26.103-15.216-42.595-43.385-42.595-73.972 0-47.199 38.401-85.598 85.6-85.598 9.623 0 18.976 1.58 27.916 4.672l232.53-507.864c-25.852.911-47.03-21.565-61.974-37.436zM413.142 517.895c-27.055 0-48.988-21.464-48.988-47.939 0-26.477 21.932-47.938 48.988-47.938 27.053 0 48.986 21.462 48.986 47.938 0 26.475-21.932 47.939-48.986 47.939zm186.871 109.89c-17.327 0-33.049-6.891-44.664-18.034-.047-.043-.096-.084-.142-.129-12.187-11.759-19.808-28.218-19.808-46.45v-13.456c0-11.332 9.221-20.553 20.553-20.553h88.12c11.332 0 20.553 9.221 20.553 20.553v13.456c0 18.228-7.616 34.683-19.796 46.44-.059.057-.122.11-.182.165-11.611 11.127-27.32 18.008-44.634 18.008zm56.249 161.09c-9.378 0-16.982-7.604-16.982-16.984 0-9.378 7.604-16.982 16.982-16.982 9.379 0 16.982 7.604 16.982 16.982 0 9.38-7.603 16.984-16.982 16.984zm130.623-270.98c-27.055 0-48.988-21.464-48.988-47.939 0-26.477 21.932-47.938 48.988-47.938 27.053 0 48.986 21.462 48.986 47.938 0 26.475-21.932 47.939-48.986 47.939z"/><radialGradient id="d" cx="600" cy="161.544" r="630.603" gradientUnits="userSpaceOnUse"><stop offset="0" stop-color="#f6c774" stop-opacity="0"/><stop offset=".223" stop-color="#efba6d" stop-opacity=".28"/><stop offset=".634" stop-color="#de985a" stop-opacity=".793"/><stop offset=".799" stop-color="#d68952"/></radialGradient><path fill="url(#d)" d="M1046.551 138.567c-86.807-33.139-255.843-71.84-446.55-71.84-190.708 0-359.745 38.701-446.552 71.84-31.757 12.124-49.737 46.37-40.935 77.962 9.278 33.311 41.458 38.954 49.062 39.828 21.186-8.225 214.618-80.8 438.425-80.8 223.862 0 417.339 72.612 438.442 80.804 7.72-.841 39.714-6.33 49.043-39.828 8.802-31.6-9.178-65.841-40.935-77.966z"/><radialGradient id="e" cx="464.651" cy="838.159" r="117.438" gradientUnits="userSpaceOnUse"><stop offset=".063" stop-color="#e9292a" stop-opacity="0"/><stop offset=".142" stop-color="#e7282a" stop-opacity=".085"/><stop offset="1" stop-color="#d72128"/></radialGradient><path fill="url(#e)" d="M535.387 843.441c0-56.192-45.715-101.904-101.907-101.904-13.809 0-27.075 2.712-39.565 8l84.816 185.245c34.664-17.122 56.656-52.158 56.656-91.341z"/><radialGradient id="f" cx="697.225" cy="949.77" r="75.863" gradientUnits="userSpaceOnUse"><stop offset=".063" stop-color="#e9292a" stop-opacity="0"/><stop offset=".142" stop-color="#e7282a" stop-opacity=".085"/><stop offset="1" stop-color="#d72128"/></radialGradient><path fill="url(#f)" d="M652.338 954.865c0 24.057 12.68 46.256 32.869 58.683l56.905-124.285a68.54 68.54 0 00-20.9-3.269c-37.977-.001-68.874 30.897-68.874 68.871z"/><radialGradient id="g" cx="600" cy="566.32" r="69.429" gradientUnits="userSpaceOnUse"><stop offset=".063" stop-color="#e9292a" stop-opacity="0"/><stop offset=".142" stop-color="#e7282a" stop-opacity=".085"/><stop offset="1" stop-color="#d72128"/></radialGradient><path fill="url(#g)" d="M647.886 549.717a3.83 3.83 0 00-3.826-3.826h-88.12a3.83 3.83 0 00-3.826 3.826v13.456c0 8.572 2.293 16.606 6.254 23.573a47.823 47.823 0 0141.633-24.161c17.668 0 33.32 9.56 41.631 24.163 3.961-6.969 6.254-15.001 6.254-23.575v-13.456z"/><linearGradient id="h" gradientUnits="userSpaceOnUse" x1="785.324" y1="476.862" x2="815.346" y2="446.84"><stop offset="0" stop-color="#fff" stop-opacity="0"/><stop offset=".498" stop-color="#fef7e5" stop-opacity=".498"/><stop offset="1" stop-color="#fceec7"/></linearGradient><circle fill="url(#h)" cx="800.956" cy="461.23" r="21.229"/><radialGradient id="i" cx="436.907" cy="587.301" r="150.286" gradientTransform="matrix(1 0 0 .6019 0 233.791)" gradientUnits="userSpaceOnUse"><stop offset="0" stop-color="#df2e2e"/><stop offset=".528" stop-color="#f04846" stop-opacity="0"/></radialGradient><path fill="url(#i)" d="M436.906 643.201c46.276 0 82.524-24.552 82.524-55.899S483.182 531.4 436.906 531.4c-46.273 0-82.521 24.554-82.521 55.902 0 31.348 36.248 55.899 82.521 55.899z"/><radialGradient id="j" cx="763.092" cy="587.301" r="150.286" gradientTransform="matrix(1 0 0 .6019 0 233.791)" gradientUnits="userSpaceOnUse"><stop offset="0" stop-color="#df2e2e"/><stop offset=".528" stop-color="#f04846" stop-opacity="0"/></radialGradient><path fill="url(#j)" d="M763.091 643.201c46.276 0 82.524-24.552 82.524-55.899S809.367 531.4 763.091 531.4c-46.273 0-82.521 24.554-82.521 55.902 0 31.348 36.248 55.899 82.521 55.899z"/><linearGradient id="k" gradientUnits="userSpaceOnUse" x1="1014.977" y1="673.553" x2="829.244" y2="557.69"><stop offset="0" stop-color="#e9292a" stop-opacity="0"/><stop offset="1" stop-color="#d72128"/></linearGradient><path opacity=".6" fill="url(#k)" d="M864.024 663.175c66.431 40.257 115.364 54.519 148.046 64l3.287.956c19.741 5.742 23.855 2.25 24.018 2.095.464-.425.708-2.156.155-4.962-1.166-5.897.408-11.83 4.317-16.282 3.849-4.39 9.433-6.66 15.304-6.305 4.547.302 6.315-.641 6.542-.911.141-.249.4-2.017-1.133-5.354-2.548-5.537-2.44-11.773.296-17.103 2.742-5.341 7.763-9.074 13.774-10.238 3.473-.674 3.959-1.952 4.22-2.642.394-1.037-.706-2.385-1.952-3.042-75.397-39.871-126.106-91.117-157.194-130.56l-59.68 130.348z"/><linearGradient id="l" gradientUnits="userSpaceOnUse" x1="193.026" y1="684.16" x2="367.167" y2="551.512"><stop offset="0" stop-color="#e9292a" stop-opacity="0"/><stop offset="1" stop-color="#d72128"/></linearGradient><path opacity=".6" fill="url(#l)" d="M119.105 663.383c-1.248.662-2.348 2.009-1.956 3.046.261.69.747 1.968 4.223 2.642 6.007 1.164 11.028 4.892 13.772 10.234 2.736 5.329 2.844 11.565.298 17.107-1.535 3.336-1.274 5.105-1.129 5.362.221.257 1.983 1.205 6.538.903 5.878-.331 11.451 1.915 15.302 6.301 3.908 4.455 5.482 10.389 4.316 16.286-.553 2.806-.308 4.537.155 4.962.161.151 4.278 3.647 24.018-2.099l3.287-.951c32.682-9.48 81.615-23.743 148.046-64l-59.68-130.347c-31.088 39.441-81.799 90.689-157.19 130.554z"/><linearGradient id="m" gradientUnits="userSpaceOnUse" x1="218.319" y1="694.548" x2="1336.762" y2="694.548"><stop offset=".064" stop-color="#fff" stop-opacity="0"/><stop offset=".123" stop-color="#f9e4d5" stop-opacity=".068"/><stop offset=".185" stop-color="#f5cdb1" stop-opacity=".139"/><stop offset=".25" stop-color="#f1b994" stop-opacity=".214"/><stop offset=".318" stop-color="#eeab7d" stop-opacity=".293"/><stop offset=".392" stop-color="#eca06d" stop-opacity=".378"/><stop offset=".474" stop-color="#ea9a63" stop-opacity=".474"/><stop offset=".584" stop-color="#ea9860" stop-opacity=".6"/></linearGradient><path opacity=".4" fill="url(#m)" d="M919.685 328.639c-19.792-21.019-37.223-25.568-66.623-17.405-3.04.845-5.919 1.674-8.657 2.462-30.007 8.621-48.124 13.84-77.313-19.81-11.824-13.623-29.137-10.393-52.302-4.333l-1.115.294c-24.467 6.391-50.336 10.434-74.033-15.832-10.585-11.732-24.657-18.193-39.626-18.193-14.989 0-29.072 6.46-39.655 18.189-23.698 26.274-49.568 22.232-74.037 15.832l-1.113-.29c-23.169-6.06-40.48-9.303-52.302 4.333-29.186 33.65-47.303 28.435-77.312 19.81-2.738-.788-5.617-1.617-8.659-2.462-29.39-8.163-46.83-3.61-66.621 17.405-14.65 15.555-35.287 37.464-60.445 37.468-.511 0-1.036-.067-1.552-.086l168.635 368.31c14.63-6.224 30.536-9.521 46.527-9.521 65.415 0 118.633 53.219 118.633 118.631 0 45.786-25.798 86.705-66.418 106.55l71.268 155.652c7.804 17.045 24.294 27.63 43.036 27.63 18.744 0 35.236-10.585 43.04-27.63l35.167-76.806c-26.103-15.216-42.595-43.385-42.595-73.972 0-47.199 38.401-85.598 85.6-85.598 9.623 0 18.976 1.58 27.916 4.672l232.53-507.864c-25.852.911-47.03-21.565-61.974-37.436zM413.13 517.895c-27.056 0-48.988-21.464-48.988-47.939 0-26.477 21.932-47.938 48.988-47.938 27.053 0 48.986 21.462 48.986 47.938 0 26.475-21.932 47.939-48.986 47.939zm186.871 109.89c-17.327 0-33.049-6.891-44.664-18.034-.047-.043-.096-.084-.142-.129-12.187-11.759-19.808-28.218-19.808-46.45v-13.456c0-11.332 9.221-20.553 20.553-20.553h88.12c11.332 0 20.553 9.221 20.553 20.553v13.456c0 18.228-7.616 34.683-19.796 46.44-.059.057-.122.11-.182.165-11.611 11.127-27.32 18.008-44.634 18.008zm56.249 161.09c-9.378 0-16.982-7.604-16.982-16.984 0-9.378 7.604-16.982 16.982-16.982 9.379 0 16.982 7.604 16.982 16.982 0 9.38-7.603 16.984-16.982 16.984zm130.623-270.98c-27.055 0-48.988-21.464-48.988-47.939 0-26.477 21.932-47.938 48.988-47.938 27.053 0 48.986 21.462 48.986 47.938 0 26.475-21.933 47.939-48.986 47.939z"/><linearGradient id="n" gradientUnits="userSpaceOnUse" x1="174.119" y1="270.756" x2="1025.879" y2="270.756"><stop offset="0" stop-color="#fde6b9"/><stop offset=".64" stop-color="#fbd984" stop-opacity="0"/></linearGradient><path fill="url(#n)" d="M174.119 269.484l35.67 77.907c20.411 7.506 38.555-9.201 58.349-30.219 23.961-25.437 48.092-31.832 83.277-22.052 3.093.858 6.019 1.699 8.804 2.499 29.082 8.359 37.864 10.887 60.055-14.693 19.551-22.534 48.23-15.032 69.17-9.552l1.109.286c25.546 6.681 41.431 6.832 57.39-10.854 13.795-15.289 32.288-23.71 52.073-23.71 19.763 0 38.246 8.421 52.045 23.714 15.951 17.678 31.845 17.527 57.388 10.85l1.109-.286c20.939-5.48 49.621-12.978 69.17 9.552 22.195 25.584 30.971 23.057 60.055 14.693 2.785-.8 5.711-1.642 8.802-2.499 35.187-9.793 59.318-3.389 83.279 22.052 19.797 21.019 37.941 37.748 58.347 30.223l35.67-77.907c-39.789-14.807-219.761-77.204-425.878-77.204-206.253 0-386.113 62.395-425.884 77.2z"/><g opacity=".8"><linearGradient id="o" gradientUnits="userSpaceOnUse" x1="564.743" y1="1030.813" x2="747.24" y2="746.889" gradientTransform="rotate(-2.734 -2905.33 5473.355)"><stop offset="0" stop-color="#fff" stop-opacity="0"/><stop offset="1" stop-color="#fff"/></linearGradient><path fill="url(#o)" d="M308.427 482.299c38.176 84.146 72.767 169.966 110.995 254.143 18.855 41.518 37.677 83.051 56.565 124.554 9.164 20.136 18.496 40.196 27.81 60.264 9.025 19.447 16.789 42.674 33.018 57.269 9.288 8.353 24.068 1.057 23.754-11.194-.526-20.537-11.832-39.682-20.24-58.047-9.784-21.372-19.556-42.75-29.516-64.041l-58.043-124.07c-38.771-82.876-81.153-164.062-119.934-246.878-6.885-14.698-31.28-7.144-24.409 8z"/></g><g opacity=".8"><linearGradient id="p" gradientUnits="userSpaceOnUse" x1="-5893.981" y1="10294.815" x2="-6018.227" y2="10294.815" gradientTransform="rotate(-175.415 -2816.263 5433.677)"><stop offset="0" stop-color="#fff" stop-opacity="0"/><stop offset="1" stop-color="#fff"/></linearGradient><path fill="url(#p)" d="M654.857 981.262c22.013-49.013 44.152-97.968 65.71-147.182l31.492-71.893c8.994-20.533 25.284-44.846 21.309-67.835-1.39-8.04-10.243-9.575-16.144-5.672-19.055 12.599-25.992 42.601-34.696 62.769l-31.09 72.04c-21.264 49.272-41.942 98.792-62.747 148.26-6.995 16.632 18.897 25.699 26.166 9.513z"/></g></svg>