<svg xmlns="http://www.w3.org/2000/svg" viewBox="0 0 1200 1200"><path fill="#52B252" d="M499.31 698.016c-8.23-20.508-23.672-36.933-34.197-56.193-2.537-4.642-4.575-9.408-6.432-14.254-13.507-4.435-27.737-11.156-31.383-14.977-2.257-2.365-4.409-4.997-7.39-6.345-4.331-1.956-9.547 1.072-14.081 2.839 12.63 20.791 25.391 41.482 40.854 60.332 14.846 18.097 31.254 34.414 42.528 55.166 7.522 13.845 13.182 28.573 18.254 43.487.978-23.866.735-47.908-8.153-70.055zm29.754 201.868c-1.687-14.09-2.58-28.306-6.231-42.459-4.483-17.374-14.557-33.061-25.326-47.7 7.374 13.419 13.268 27.637 18.247 42.127 5.408 15.739 9.719 31.795 13.31 48.032zM246.649 293.923c6.488 8.086 10.333 17.804 13.048 27.732 5.303 19.395 6.301 39.736 13.763 58.566 8.521 21.502 22.754 40.206 29.346 62.56 7.035 23.854 7.592 47.181 25.285 66.396 5.642 6.128 11.473 11.916 17.254 17.71a425.821 425.821 0 018.192-9.125c4.16-4.519 8.554-8.745 13.087-12.797-.927-3.625-2.133-7.181-3.695-10.648a94.147 94.147 0 01-5.891-4.862c-2.301-2.286-4.306-4.787-5.686-7.742-2.201-4.713-1.592-9.279-4.845-13.601-2.026-2.692-5.316-4.493-7.394-7.278-5.536-7.421-6.99-17.093-9.207-25.858-10.149-40.126-24.327-86.874-.562-125.048 1.282-2.059 3.091-3.31 5.014-3.913 2.773-8.041 5.902-15.986 9.215-24.038-.924-3.947-1.35-8.084-1.821-12.111-2.775-23.74-11.238-49.981-32.838-60.216-5.743-2.721-12.111-4.117-17.514-7.462-7.136-4.418-11.856-11.749-16.514-18.73-7.189-10.774-15.048-21.528-25.91-28.583s-25.426-9.755-36.849-3.65c-5.652 3.02-10.303 8.005-16.461 9.778-6.218 1.791-12.96-.002-19.308 1.252-9.834 1.943-16.999 11.034-19.669 20.695-2.67 9.661-1.7 19.907-.709 29.881 2.336 23.51 5.546 48.973 22.094 65.836 2.692 2.744 5.888 5.578 6.226 9.407.275 3.111-1.45 6.008-3.1 8.66-7.456 11.984-14.827 24.411-17.593 38.252-2.766 13.841-.128 29.559 10.1 39.285-7.449 19.25-14.952 40.631-7.795 59.992.327.884.704 1.748 1.076 2.614.87.115 1.731.289 2.598.428-1.061-3.738 2.755-8.086 7.759-7.254 22.453 3.737 42.833 16.972 57.501 34.198 15.98 18.766 23.405 47.045 46.157 59.034 15.601 8.221 27.465 11.696 38.12 26.684a305.367 305.367 0 015.168 7.524c2.741-5.858 6.191-11.44 10.017-16.775-13.956-13.494-28.693-26.061-36.428-44.377-10-23.679-11.307-49.311-23.267-72.508-10.266-19.911-20.959-38.656-24.858-61.013-3.407-19.537-3.122-43.589-17.197-59.233-10.898-12.112-24.718-15.985-21.895-35.148 1.803-12.236 4.302-22.781 3.042-35.289-1.205-11.966-5.264-22.818-9.507-34.016-2.803-7.399 9.518-12.057 13.518-5.949 14.54 22.202 12.704 46.398 10.401 71.328-1.593 17.245 9.522 18.183 18.532 29.412zm104.315 264.762c-2.868 5.881-2.919 11.723 5.091 15.408 2.909 1.338 6.037 2.35 9.225 3.171-4.541-6.354-9.282-12.568-14.316-18.579zm165.7-142.748c5.365-1.014 9.628 2.347 11.414 6.724-1.785-4.379-6.049-7.74-11.414-6.724zM387.525 579.394c9.372-.469 18.7-2.673 26.902-7.087-12.151-10.78-22.77-22.886-32.943-36.049a133.352 133.352 0 01-4.606-6.307 147.73 147.73 0 00-14.988 14.25c4.154 4.667 8.159 9.511 11.878 14.722 4.778 6.695 9.329 13.542 13.757 20.471zm25.168 72.371c-8.303-12.756-16.102-25.8-24.039-38.714-8.328 1.521-16.736 2.492-25.246 2.241a86.348 86.348 0 01-3.154-.158c22.848 33.88 50.409 64.201 77.761 94.448 17.341 19.176 34.673 38.401 50.968 58.459-6.39-18.132-14.013-35.824-25.423-51.393-16.344-22.302-35.699-41.581-50.867-64.883zm417.088-122.888c3.944-5.29 7.672-10.691 11.291-16.152-3.937 2.41-7.986 4.642-12.175 6.627-4.56 2.16-22.95 7.864-34.413 6.712-2.671 3.946-5.311 7.906-7.689 12.015-4.487 17.026-8.333 34.259-10.595 52.058-.369 2.904-.739 5.81-1.122 8.715l-.008.812c.414-1.205.828-2.411 1.284-3.598 4.362-11.35 10.737-20.713 19.213-29.361 12.361-12.609 23.495-23.453 34.214-37.828zm-59.824-360.531c1.382 6.488 2.105 13.174 2.661 19.783.126 1.499.255 3.01.395 4.521 1.075-8.267-.044-16.49-3.056-24.304zM538.108 408.827a34.247 34.247 0 00-5.8-2.126c-2.953-.778-5.961-1.117-8.948-1.095 5.114.019 10.145 1.177 14.735 3.301.003-.027.009-.053.013-.08zm406.431-117.539c1.121-1.899 1.131-4.222 1.083-6.433a147.676 147.676 0 00-5.234 9.235c1.696-.293 3.185-1.166 4.151-2.802zm-428.571 512.5c.215.31.442.611.657.922.151.218.295.439.445.658-.117-1.233-.257-2.484-.357-3.703-.032.159-.059.318-.091.476a4.783 4.783 0 01-.654 1.647zm505.958-525.122c16.548-16.863 19.758-42.326 22.094-65.836.991-9.975 1.961-20.22-.709-29.881-2.671-9.661-9.835-18.753-19.669-20.695-6.348-1.254-13.09.539-19.308-1.252-6.158-1.773-10.809-6.758-16.461-9.778-11.424-6.105-25.987-3.405-36.849 3.65-10.862 7.055-18.721 17.809-25.91 28.583-4.658 6.981-9.378 14.312-16.514 18.73-5.403 3.345-11.771 4.741-17.514 7.462-13.305 6.305-21.613 18.689-26.69 32.815-1.602-13.294-1.7-26.83-3.874-40.065-2.896-17.624-10.604-35.926-26.18-44.666-4.977-2.793-10.742-4.624-14.454-8.959-10.527-12.296 3.073-33.211-5.545-46.913-7.067-11.235-23.326-9.961-36.401-12.243-12.098-2.112-23.23-8.331-35.393-10.033-11.377-1.592-25.09 2.754-29.13 13.103-4.306-2.188-9.053-3.27-13.86-2.637-6.731.886-12.829 4.933-19.612 5.242-6.716.306-13.014-3.085-19.646-4.189-11.394-1.895-22.894 3.306-31.266 11.453-1.926.585-3.874 1.04-5.888 1.132-6.402.292-12.404-2.941-18.725-3.992-12.777-2.125-25.709 5.095-33.74 15.257-8.031 10.162-12.033 22.866-15.393 35.374-2.178 8.105-4.302 16.562-9.648 23.032a30.454 30.454 0 01-1.528 1.681c7.364-1.587 13.095 8.067 5.445 12.761-3.438 2.11 4.371 32.438 4.874 37.811.962 10.268 6.992 18.179 8.507 28.153 1.493 9.824-2.77 18.962-4.223 28.547-2.59 17.09 1.511 34.118-.495 51.072-.779 6.584-9.883 4.822-12.1.288-5.903-12.074-4.709-31.286-3.621-44.366.668-8.036 2.523-15.556 4.207-23.378 2.033-9.443-2.271-15.476-5.229-23.975-2.235-6.422-2.228-12.533-2.865-19.22-.779-8.168-4.597-14.67-6.391-22.475-1.789-7.783-.233-15.381 4.992-20.76.201-12.718 2.623-26.214-3.66-36.96-5.742-9.82-18.032-15.685-20.48-26.795-1.501-6.812 1.211-14.045-.396-20.832-2.829-11.95-17.666-17.031-29.828-15.33-12.162 1.702-23.295 7.921-35.393 10.033-13.075 2.283-29.334 1.008-36.401 12.243-8.618 13.702 4.982 34.617-5.545 46.913-3.712 4.335-9.476 6.166-14.454 8.959-15.576 8.74-23.284 27.042-26.18 44.666-2.048 12.464-2.276 25.19-3.631 37.733 11.322-22.178 30.151-40.843 56.851-39.359 21.372 1.188 34.602 19.57 36.011 39.543.751 10.634-4.175 21.135 1.525 31.038 3.206 5.57 8.526 7.758 13.609 11.68 11.092 8.559 20.332 17.888 27.745 28.036 8.206 11.234 14.121 23.495 17.741 36.861a66.57 66.57 0 017.81-1.437c6.827-.82 17.371-3.598 20.456 4.967a8 8 0 01.447 2.361c9.646-.496 14.618 11.628 7.43 18.298l-.407.378c.367 2.822-.808 5.909-3.646 7.38-4.899 2.541-9.858 4.792-14.819 6.993a53.167 53.167 0 0112.331 3.607c3.573-6.499 8-12.624 9.774-19.796 1.264-5.111 1.094-10.462 1.883-15.668 1.942-12.814 9.328-23.532 18.474-33.014 8.446-8.757 14.377-19.811 16.379-31.811 1.408-8.435 5.548-16.612 11.116-23.199 9.112-10.779 21.571-18.096 33.891-24.983 2.726-1.524 5.636-3.226 6.9-6.083 1.555-3.516.128-7.541-.903-11.245-6.335-22.761 3.162-46.603 12.481-68.313 3.954-9.211 8.057-18.649 15.065-25.816 7.008-7.167 17.674-11.662 27.222-8.609 6.164 1.971 11.199 6.799 17.508 8.237 6.248 1.424 12.729-.691 19.137-.603.901.012 1.794.08 2.679.179 10.703 1.2 20.14 8.573 26.047 17.833 2.035-5.012 8.519-8.319 12.751-3.275 14.716 17.539 18.821 39.836 13.247 61.423 15.087 11.324 25.689 27.322 28.341 46.595 1.672 12.147-.184 24.87-5.141 36.101-2.545 5.765-5.96 11.184-10.005 16.008-2.172 2.59-5.106 4.862-7.407 7.495 1.798 3.849 4.74 7.649 6.486 11.149 3.25 6.511 6.178 13.21 8.55 20.093 3.405 9.881 5.962 20.139 7.465 30.483 1.036 7.126 1.497 14.269 1.572 21.408 2.217-6.753 4.883-13.345 8.25-19.603 3.682-6.845 8.686-12.895 12.293-19.765 5.087-9.69 1.21-17.106-1.527-26.597-4.71-16.333 4.836-24.431 7.826-39.696 2.971-15.17 1.126-30.732 9.436-44.427 4.161-6.857 16.239-2.17 13.01 5.788-6.949 17.13-2.881 36.062-10.125 53.024-3.87 9.063-6.636 12.927-3.323 23.205 1.798 5.577 3.964 10.901 4.178 16.845.454 12.583-6.612 22.414-13.045 32.568-8.88 14.016-13.552 29.636-16.699 45.824-4.736 24.361-7.123 49.576-16.194 72.713 30.441-15.146 55.111-40.667 73.258-69.527 3.922-6.237 7.548-12.633 10.94-19.149 5.229-15.34 8.959-31.13 10.945-48.231 1.877-16.167 4.404-31.452 9.141-46.218-3.314-3.727-7.292-8.34-11.35-15.635-7.426-13.351 3.622-44.614 16.823-25.138 2.941 4.339 3.794 9.75 5.882 14.544.293-.522.567-1.046.868-1.567 5.47-9.467 11.687-18.403 18.357-26.994.038-.046.053-.105.093-.15.02-.023.047-.034.067-.056 8.419-10.823 17.573-21.088 27.048-31.034 6.673-7.005 18.091 1.045 11.353 8.83-8.522 9.846-17.435 19.786-25.636 30.228.184 1.889.117 3.837-.044 5.717-.356 4.143-.996 8.43.323 12.373 5.35-3.345 7.401-9.995 11.084-15.119 3.682-5.124 11.891-8.596 15.925-3.745 3.393 4.081.741 10.187-1.998 14.734a2895.609 2895.609 0 01-13.577 22.316l25.454-11.62c4.779-2.182 11.896-3.576 14.021 1.229.814 1.841.444 3.99-.226 5.888-3.74 10.599-15.287 16.11-26.058 19.319-23.481 6.996-33.352 12.597-39.686 36.699-.689 2.621-1.356 5.25-2.063 7.871-1.198 4.478-2.919 8.777-4.669 13.043-12.57 30.643-26.199 61.026-45.245 88.35-11.601 22.188-23.25 44.479-37.195 65.311-14.519 21.689-33.094 37.983-50.162 57.299-15.818 17.901-14.611 43.867-28.952 62.931-6.657 8.849-15.737 16.265-20.846 26.201-5.6 10.893-4.815 23.624-8.517 35.101-3.27 10.139-9.539 17.101-16.52 24.845-7.46 8.276-9.918 15.74-9.903 24.658a2745.878 2745.878 0 0113.494-18.916c13.629-18.976 28.153-36.498 45.798-51.885 9.859-8.597 20.252-16.537 30.642-24.473 5.373-4.104 10.824-7.535 12.99-14.441 1.686-5.376 1.049-11.813 2.247-17.381 2.092-9.731 5.774-18.898 10.803-27.477 4.985-8.503 9.239-11.616 17.157-17.185 8.077-5.681 7.352-12.948 10.121-21.917 2.509-8.127 7.021-14.779 13.229-20.527 7.384-6.836 16.381-11.526 25.649-15.297 3.913-1.592 8.02-2.74 11.872-4.475 8.997-4.051 10.425-8.697 13.293-17.342 3.506-10.569 10.581-14.59 15.538-24.092 4.784-9.171 6.723-17.61 13.914-25.546 13.097-14.454 35.143-26.393 54.384-28.555 6.849-.77 9.473 6.797 5.993 11.389 4.925-1.453 9.945-2.577 15.034-3.251.372-.867.75-1.731 1.076-2.614 7.157-19.361-.345-40.742-7.795-59.992 10.228-9.726 12.866-25.444 10.1-39.285-2.766-13.841-10.137-26.268-17.593-38.252-1.65-2.652-3.375-5.549-3.1-8.66.336-3.829 3.531-6.663 6.223-9.407zm-360.699 741.408a28.44 28.44 0 01-.183-.342c-6.001-11.456-4.765-25.202-3.242-38.044 1.219-10.274 2.533-20.551 4.006-30.806-15.802 30.952-36.491 59.391-61.422 83.62l-.561-7.72c-.782-10.751 1.284-21.537 6.133-31.164 8.619-17.113 15.374-35.157 20.205-53.703.064-1.371.116-2.726.133-4.041.201-16.075-.004-32.157-.992-48.205-2.272-36.911-10.632-71.788-21.977-106.857-2.254-6.968 7.262-6.546 9.884-2.004 8.786 15.224 14.728 31.476 18.859 48.259-.366-5.364-.509-10.729-.095-16.091 1.359-17.583 8.484-35.449 3.421-52.342-3.479-11.61-12.208-20.753-18.876-30.874-3.179-4.825-5.898-10.355-7.298-15.993-1.537-6.188-1.484-12.506 1.369-18.17 3.663-7.273 11.725-13.506 10.147-21.495-.659-3.339-2.971-6.08-5.281-8.579-15.14-16.376-35.14-32.023-36.39-54.291-.34-6.051.816-12.123.35-18.166-.914-11.862-7.89-22.291-14.865-31.929-2.77-3.827-5.561-7.666-8.304-11.537-2.015-2.231-3.693-4.643-4.941-7.228-2.494-3.764-4.904-7.574-7.047-11.516-.422-.775-.864-1.541-1.267-2.325-.48 2.853-1.05 5.706-1.738 8.558-3.844 15.949-12.203 28.969-12.459 44.338-.238 14.308 6.781 25.156 10.465 37.704 6.672 22.723 6.331 44.273 7.597 67.531.237 4.351.329 8.014.448 12.002.066 2.219.139 4.535.252 7.135.669 15.511.975 23.211.939 41.307-.036 18.097-7.35 29.986-3.982 54.464 8.44 61.35 38.177 136.379 44.018 202.811 1.707 19.414.08 27.435-6.513 37.898-3.833 6.082-23.794 19.843-24.816-14.528-.734-24.721-5.689-52.706-11.922-81.607-.471-2.185-.961-4.383-1.446-6.577-2.34.311-4.589-.523-5.979-3.009-.587.24-1.171.472-1.762.691 1.974 12.356 3.695 24.759 5.223 37.172.298 2.421.593 4.842.88 7.263 1.523 12.843 2.759 26.588-3.242 38.044-.06.115-.121.229-.183.342-8.617 15.786-22.6 9.994-23.563-7.965-.295-5.502-.829-12.055-1.56-19.315-.154 3.79-.173 7.582.047 11.377.858 14.852 5.971 30.384 17.787 39.423 13.498 10.325 32.229 9.866 49.026 7.282 15.451-2.377 60.282 1.004 65.401 1.455 11.821 1.041 22.914-7.171 28.822-17.463 1.371-2.389 2.5-4.881 3.474-7.436-5.037 3.698-11.925 1.908-16.98-7.354zM597.51 840.141c-.811 3.863-5.713 4.681-7.383.993-11.283-24.925-14.378-53.437-21.439-79.806-2.144-8.006 10.375-9.589 12.725-2.584 4.809 14.331 9.165 28.703 12.541 43.444 2.851 12.446 6.228 25.226 3.556 37.953z"/><path fill="#6C6" d="M531.756 916.974c-1.188-5.667-2.007-11.368-2.692-17.09-3.591-16.236-7.902-32.293-13.31-48.032-4.979-14.49-10.872-28.707-18.247-42.127-3.437-4.671-6.943-9.238-10.362-13.716-49.361-64.637-112.099-118.952-154.774-188.695-1.203-.736-2.372-1.513-3.465-2.374-6.72-5.293-9.523-13.871-10.203-22.309-8.453-15.839-18.02-31.435-34.156-38.45-16.144-7.018-27.496-14.903-37.356-29.831-8.296-12.559-14.219-26.662-23.71-38.432-13.532-16.78-31.297-26.085-50.43-34.954-1.994-.924-3.065-2.249-3.465-3.659-.867-.139-1.727-.313-2.598-.428-3.924-.519-7.876-.848-11.845-.87-5.478-.03-11.234.33-16.14-2.108-8.722-4.334-11.19-15.323-16.267-23.635-9.535-15.611-31.608-22.022-48.023-13.948-23.589 11.604-28.056 43.808-22.659 69.536 8.42 40.135 9.328 74.898 32.755 108.556 11.721 16.841 46.494 33.779 58.215 50.619 5.085 7.305 10.441 14.862 18.228 19.172 8.348 4.621 18.32 4.879 27.6 7.098 26.479 6.329 47.391 28.682 74.282 32.931 8.965 1.417 18.265.735 26.993 3.227 7.277 2.078 13.749 6.249 20.1 10.363l102.211 66.221c13.589 8.804 27.348 17.784 39.052 28.858 3.682 3.483 7.173 7.161 10.375 11.122 10.38 12.838 17.459 28.022 23.331 43.452a158.893 158.893 0 011.712 4.764c6.395 18.573 12.445 45.9 17.318 73.607l.063-.023c.607-.211 1.209-.435 1.818-.641 6.444-2.181 12.898-4.351 19.431-6.249 1.994-.579 4.093-1.363 6.218-1.955zm9.563 57.45c-1.528-12.413-3.249-24.816-5.223-37.172-1.803.667-3.594 1.26-5.163 1.878-5.667 2.231-11.333 4.444-16.99 6.699-.258.103-.517.202-.774.305-.5.2-1.003.391-1.502.592-1.249.502-2.514.967-3.77 1.454 2.462 16.096 4.438 31.541 5.755 44.615.731 7.26 1.265 13.813 1.56 19.315.963 17.959 14.946 23.751 23.563 7.965l.183-.342c6.001-11.456 4.765-25.202 3.242-38.044-.289-2.423-.583-4.844-.881-7.265zM517.93 437.437c1.429.053 2.963-.21 4.571-.866-1.608.657-3.143.92-4.571.866zm-9.146-6.902c-2.034-4.988-.852-11.289 5.58-13.915-6.434 2.623-7.615 8.926-5.58 13.915zm616.503-34.219c-16.414-8.074-38.488-1.663-48.023 13.948-5.077 8.312-7.545 19.301-16.267 23.635-4.906 2.438-10.661 2.077-16.14 2.108-3.97.022-7.921.351-11.845.87-5.09.674-10.109 1.798-15.034 3.251a7.677 7.677 0 01-1.947 1.809c-12.48 8.11-26.945 11.425-38.719 21.154-.943.779-1.785 1.577-2.616 2.378-.295.287-.601.562-.893.853-6.947 7.07-10.079 15.036-13.623 24.576-3.09 8.318-10.239 12.923-13.574 20.853-3.299 7.845-3.19 14.935-9.55 21.505-13.402 13.845-35.741 13.169-48.77 27.973-11.33 12.874-5.452 32.605-22.556 41.591-12.457 6.545-18.515 18.498-21.467 32.152-1.995 9.23-1.134 18.848-5.84 27.339-4.289 7.738-11.992 12.873-18.844 18.118-9.69 7.417-19.353 14.875-28.558 22.894-34.641 30.175-57.036 69.354-84.948 104.935-.089.521-.17 1.046-.262 1.566-4.732 26.703-11.546 52.648-21.381 77.927-4.066 10.45-18.343 5.167-15.226-5.448 6.252-21.284 11.926-42.897 16.24-64.705-.808-1.381-.96-3.05.066-4.853.417-.732.858-1.453 1.279-2.183.454-2.473.908-4.946 1.323-7.424 4.393-26.249 3.977-53.512 11.362-79.219 5.974-20.796 18.112-37.784 30.019-55.505 12.429-18.496 18.912-38.184 22.355-60.096 4.156-26.449 6.158-52.652 13.093-78.601 5.822-21.782 13.312-43.066 19.561-64.722 13.701-47.478 17.681-95.357-6.996-140.173-3.748-6.808-7.459-12.397-4.256-20.215 3.557-8.682 13.05-13.649 17.625-22.095 12.362-22.819 5.385-50.806-16.908-64.469-4.253-2.607-6.526-7.505-4.496-12.359 1.807-4.32 2.973-8.683 3.539-13.035-.14-1.511-.269-3.022-.395-4.521-.556-6.609-1.279-13.295-2.661-19.783-1.76-4.567-4.15-8.997-7.168-13.206-1.745-2.434-1.768-5.181-.806-7.551-5.907-9.26-15.344-16.633-26.047-17.833a27.698 27.698 0 00-2.679-.179c-6.408-.088-12.889 2.027-19.137.603-6.309-1.438-11.344-6.266-17.508-8.237-9.547-3.053-20.214 1.443-27.222 8.609-7.008 7.167-11.111 16.605-15.065 25.816-9.319 21.71-18.817 45.553-12.481 68.313 1.031 3.703 2.458 7.729.903 11.245-1.263 2.857-4.174 4.559-6.9 6.083-12.32 6.887-24.779 14.204-33.891 24.983-5.568 6.587-9.708 14.764-11.116 23.199-2.002 12-7.933 23.054-16.379 31.811-9.146 9.482-16.532 20.2-18.474 33.014-.789 5.206-.619 10.557-1.883 15.668-1.774 7.172-6.202 13.297-9.774 19.796 11.041 4.726 20.491 13.151 26.089 24.336 9.68 19.34 6.157 43.233-8.65 58.981-.111.118-.233.221-.344.338 2.942 2.269 5.288 5.273 6.567 8.978l-.137-.467.39.998c.227.574.41 1.131.583 1.683 3.767 3.255 5.519 8.527 1.706 12.992-21.478 25.146-60.888 36.741-92.491 26.058-13.631-4.608-26.082-16.395-24.762-31.906.756-8.889 5.405-16.449 11.877-22.054-7.825-11.601-8.881-29.583-6.178-44.378-4.669 1.357-10.47-1.994-10.001-8.207.19-2.514.701-4.914 1.439-7.225-2.313 1.035-5.296-.164-5.795-2.89-.615-3.36 3.398-7.866 5.165-10.477 2.312-3.418 4.889-6.646 7.453-9.876 11.031-13.898 24.431-23.884 39.854-32.483 5.576-3.109 11.486-5.45 17.634-6.949-3.62-13.366-9.535-25.627-17.741-36.861-7.412-10.148-16.653-19.477-27.745-28.036-5.083-3.922-10.403-6.109-13.609-11.68-5.699-9.903-.774-20.403-1.525-31.038-1.41-19.974-14.64-38.356-36.011-39.543-26.7-1.484-45.529 17.182-56.851 39.359a118.513 118.513 0 00-4.607 10.179c-4.375 11.027-8.857 21.434-13.067 31.666-3.314 8.053-6.442 15.997-9.215 24.038 6.005-1.883 13.147 2.68 9.024 9.752-14.426 24.738-12.446 52.269-6.342 79.198 3.033 13.379 6.67 26.63 10.131 39.903.994 3.813 1.897 9.512 3.936 12.961 2.421 4.095 6.95 6.304 9.897 9.937 5.058 6.236 4.304 14.109 9.986 19.815 6.233 6.259 12.173 9.76 13.592 19.295.936 6.293.725 11.842 3.676 17.788 2.701 5.442 6.863 10.172 10.576 14.936 6.82 8.751 13.834 17.479 21.742 25.278 2.454 2.42 5.034 4.648 7.664 6.785 8.397-8.442 15.822-18.25 27.008-21.743 5.465-1.707 12.571-1.047 15.338 3.965 3.476 6.296-2.416 13.721-8.487 17.577-6.071 3.856-13.543 7.519-15.061 14.549l38.167-15.588c2.977-1.216 6.136-2.456 9.316-1.978 3.18.478 6.23 3.387 5.626 6.545-.506 2.65-3.161 4.237-5.553 5.486l-27.245 14.222a712.555 712.555 0 0125.527-3.013c3.815-.381 8.788-.013 9.92 3.65 1.173 3.797-3.034 6.917-6.598 8.674l-24.527 12.092c4.878-2.405 33.221 6.735 31.326 9.916-2.233 3.748.087 15.975-23.706 15.942 1.326 2.759 2.75 5.495 4.398 8.184 6.006 9.801 12.759 19.126 18.695 28.976 24.578 40.783 23.434 87.264 14.331 132.547.1 1.219.239 2.47.357 3.703 11.232 16.346 21.269 33.093 25.341 52.766 4.797 23.171 3.34 47.367 9.696 70.261 1.479 5.329-3.532 10.545-8.27 11.174.485 2.194.975 4.393 1.446 6.577 6.233 28.901 11.188 56.886 11.922 81.607 1.021 34.371 20.983 20.61 24.816 14.528 6.593-10.462 8.221-18.484 6.513-37.898-5.841-66.432-35.578-141.461-44.018-202.811-3.368-24.478 3.946-36.367 3.982-54.464.036-18.097-.271-25.797-.939-41.307-.112-2.6-.186-4.916-.252-7.135-.118-3.988-.21-7.651-.448-12.002-1.267-23.258-.925-44.808-7.597-67.531-3.685-12.548-10.704-23.395-10.465-37.704.256-15.369 8.614-28.389 12.459-44.338a124.743 124.743 0 001.738-8.558c.403.784.845 1.55 1.267 2.325 2.143 3.942 4.553 7.752 7.047 11.516-1.718-3.555-2.632-7.429-2.438-11.61.268-5.775 8.766-9.117 12.712-5.84-.266-1.989-.197-3.93.458-5.552 1.747-4.325 7.904-4.743 10.202-.658 1.147 2.039 1.149 4.538 2.256 6.695a48.525 48.525 0 004.979 7.728c6.668 8.458 20.157 10.669 29.011 4.609 4.839-3.312 7.299-8.941 9.126-14.37-8.605-5.435-14.798-14.435-14.216-25.119.516-9.474 6.53-16.148 14.008-21.144-4.724-5.815-8.094-13.077-10.628-19.928-6.981-18.875-7.477-39.927 3.679-57.278 8.76-13.625 20.564-21.126 33.546-24.09-4.528.223-9.085.434-13.741.209-8.189-.395-9.653-10.128-3.149-14.332a36.09 36.09 0 012.802-1.621c-.115-.575-.216-1.156-.216-1.77-.001-6.353 5.193-10.461 10.594-12.585 12.751-5.015 27.869-3.874 40.726.493 13.035 4.427 23.331 13.847 32.765 23.492 1.867 1.903 1.384 5.141-.528 6.804 2.171 2.107 4.086 4.323 5.679 6.637 5.209 7.566-.475 15.23-7.631 15.301-1.539 3.844-6.203 7.029-10.518 5.688-1.133-.352-2.28-.721-3.437-1.099 5.643 5.988 9.93 13.293 12.213 21.458 4.07 14.561 1.291 29.939-6.559 42.185 7.051 1.569 13.243 6.158 15.669 13.186l-.137-.471c.479 1.3 1.097 2.565 1.331 3.942.985 5.76-.488 10.273-3.44 13.85-.286 1.467-.891 2.951-1.927 4.397-13.412 18.711-42.934 29.238-68.318 28.791.093.759.135 1.548.059 2.394-1.883 20.868-24.055 34.971-43.669 35.513-14.069.389-35.222-6.389-46.321-18.678 2.743 3.871 5.535 7.71 8.304 11.537 6.975 9.638 13.951 20.067 14.865 31.929.466 6.043-.69 12.114-.35 18.166 1.25 22.267 21.25 37.915 36.39 54.291 2.31 2.499 4.621 5.241 5.281 8.579 1.578 7.989-6.484 14.222-10.147 21.495-2.853 5.664-2.906 11.982-1.369 18.17 1.401 5.638 4.119 11.168 7.298 15.993 6.668 10.121 15.397 19.264 18.876 30.874 5.062 16.893-2.062 34.759-3.421 52.342-.414 5.362-.271 10.727.095 16.091 3.949 16.046 6.244 32.578 7.742 49.177 1.655 18.335 1.981 36.782 1.805 55.182-.164 17.129 2.268 38.296-4.942 54.109-2.054 4.506-6.872 2.432-8.447-1.214-5.562-12.877-2.744-29.995-2.067-44.405-4.831 18.546-11.586 36.589-20.205 53.703-4.849 9.627-6.915 20.414-6.133 31.164l.561 7.72c24.931-24.229 45.62-52.668 61.422-83.62-1.473 10.255-2.788 20.532-4.006 30.806-1.523 12.843-2.759 26.588 3.242 38.044.06.115.121.229.183.342 5.056 9.263 11.944 11.052 16.98 7.358 3.548-2.602 6.184-7.901 6.582-15.323.4-7.46 1.232-16.823 2.414-27.322 1.45-12.88 3.433-27.491 5.814-42.481-2.686-1.056-5.369-2.119-8.056-3.176-4.733-1.863-11.462-3.435-14.552-7.818-3.224-4.573-1.493-11.089 3.281-13.849 5.317-3.074 11.358-.074 16.666 1.468 2.115.614 4.211 1.291 6.311 1.954 4.712-25.979 10.411-51.187 16.424-68.648a162.768 162.768 0 011.712-4.764c5.872-15.43 12.95-30.614 23.331-43.452 3.203-3.961 6.693-7.639 10.375-11.122 11.704-11.073 25.463-20.054 39.052-28.858l102.211-66.221c6.351-4.115 12.823-8.286 20.1-10.363 8.727-2.492 18.028-1.811 26.993-3.227 26.891-4.249 47.803-26.602 74.282-32.931 9.28-2.218 19.252-2.477 27.6-7.098 7.787-4.311 13.144-11.867 18.228-19.172 11.721-16.841 46.494-33.779 58.215-50.619 23.427-33.658 24.335-68.421 32.755-108.556 5.399-25.733.932-57.937-22.657-69.541zM635.945 578.422c-4.235 20.843-31.635 29.134-47.403 15.316-3.755-3.29-.718-9.369 2.96-11.024 1.939-.872 3.717-1.768 5.871-1.853 4.302-.169 8.89 1.716 13.167.107 5.181-1.948 8.432-8.391 11.662-12.219 2.469-2.926 7.482-2.874 10.417-.824 3.503 2.445 4.117 6.602 3.326 10.497zm20.516 187.877c-12.664-18.174-16.898-46.714-7.598-66.842 2.047-4.43 3.802-5.351 2.114-9.251-.946-2.185-4.385-4.593-5.834-6.677-2.546-3.664-4.46-7.7-5.622-12.008-2.772-10.274-1.194-19.858 3.393-29.218 2.933-5.986 14.207-1.386 12.275 5.005-3.371 11.157-.998 20.236 6.576 28.554 4.816 5.29 9.719 9.373 9.124 17.226-.336 4.438-2.083 6.157-4.282 10.04-5.213 9.205-6.258 13.231-4.334 24.727 2.049 12.246 6.471 23.412 7.371 35.984.51 7.129-10.193 6.75-13.183 2.46zM538.108 408.827c-.004.026-.01.052-.013.079a35.647 35.647 0 016.864 4.158 34.969 34.969 0 00-6.851-4.237zm-21.444 7.11zm137.236 12.93c2.26 5.773 8.277 10.085 15.677 7.065-7.395 3.018-13.415-1.293-15.677-7.065zm40.74 7.817c-.185-2.242-.614-4.427-1.217-6.547a35.38 35.38 0 01.383 17.083c.801-3.401 1.131-6.94.834-10.536zm-204.78 13.195c1.052 3.846 2.741 7.543 5.121 10.883a34.354 34.354 0 007.473 7.617c-6.087-4.629-10.509-11.182-12.594-18.5zm141.483 9.914a34.361 34.361 0 007.469 7.613c-6.083-4.628-10.502-11.176-12.588-18.489 1.052 3.844 2.741 7.538 5.119 10.876zm-73.066-22.139c-.185-2.244-.615-4.43-1.22-6.553a35.368 35.368 0 01.385 17.095c.803-3.403 1.132-6.944.835-10.542zm-63.292-17.406c-1.023 1.44-1.877 2.963-2.654 4.518a35.704 35.704 0 0111.17-12.871c-3.258 2.251-6.166 5.044-8.516 8.353zm144.872-9.316c-3.255 2.25-6.161 5.041-8.509 8.348-1.023 1.441-1.878 2.964-2.654 4.52a35.692 35.692 0 0111.163-12.868zm31.024 24.393c6.061-3.211 7.17-9.662 5.154-14.933 2.013 5.272.901 11.724-5.154 14.933zm-2.21-29.593c-2.956-.778-5.966-1.118-8.956-1.095 7.825.027 15.466 2.705 21.606 7.456-3.688-2.915-7.965-5.127-12.65-6.361z"/><path fill="#449247" d="M458.981 426.038c-2.703 14.795-1.647 32.776 6.178 44.378-6.472 5.605-11.121 13.165-11.877 22.054-1.32 15.511 11.131 27.298 24.762 31.906 31.603 10.682 71.013-.912 92.491-26.058 3.813-4.464 2.061-9.737-1.706-12.992 6.408 20.523-23.908 26.318-38.197 28.731-9.862 1.665-20.063 2.346-30.066 2.157-8.635-.163-18.129-1.021-25.923-5.088-7.668-4.002-11.098-10.771-7.472-18.988 3.388-7.676 11.912-12.4 19.278-15.678.577-.257 1.159-.472 1.741-.699-11.064-10.6-17.326-25.871-16.12-41.564 1.658-21.572 17.015-40.326 37.859-46.15 7.316-2.045 14.84-2.357 22.072-1.175 4.962-2.2 9.92-4.452 14.819-6.993 2.838-1.472 4.013-4.558 3.646-7.38l.407-.378c7.188-6.671 2.215-18.795-7.43-18.298.125 2.782-1.158 5.532-3.366 7.296-2.984 2.384-6.548 2.182-10.148 2.242-4.012.067-8.122-.229-12.118.11-4.219.357-8.415 1.758-12.416 3.06-9.116 3.357-18.093 8.059-26.114 13.53-8.051 5.491-14.548 12.747-20.793 20.153-1.531 1.815-3.03 3.628-4.35 5.605-.869 1.301-1.506 3.12-2.691 4.146a4.112 4.112 0 01-1.027.643c-.737 2.31-1.249 4.71-1.439 7.225-.47 6.211 5.33 9.562 10 8.205zm-119.867 34.797c2.077 2.785 5.368 4.586 7.394 7.278 3.252 4.322 2.644 8.887 4.845 13.601 1.38 2.955 3.385 5.456 5.686 7.742a94.438 94.438 0 005.891 4.862c1.562 3.466 2.768 7.022 3.695 10.648a250.737 250.737 0 016.971-6.027c5.979 7 10.816 14.73 15.375 22.606-2.362 1.303-4.532 2.519-6.075 3.662-2.053 1.521-4.046 3.12-6.017 4.745a132.65 132.65 0 004.606 6.307c10.173 13.163 20.792 25.268 32.943 36.049 2.585-1.391 5.091-2.933 7.409-4.783.293-.234.576-.485.866-.726 1.922-1.599 3.751-3.338 5.539-5.136-2.63-2.137-5.21-4.365-7.664-6.785-7.908-7.799-14.922-16.527-21.742-25.278-3.713-4.764-7.875-9.494-10.576-14.936-2.95-5.945-2.739-11.495-3.676-17.788-1.418-9.535-7.359-13.036-13.592-19.295-5.682-5.705-4.928-13.579-9.986-19.815-2.947-3.633-7.476-5.842-9.897-9.937-2.039-3.449-2.942-9.148-3.936-12.961-3.461-13.273-7.098-26.524-10.131-39.903-6.104-26.929-8.084-54.46 6.342-79.198 4.124-7.072-3.019-11.635-9.024-9.752-1.923.603-3.732 1.855-5.014 3.913-23.765 38.174-9.587 84.921.562 125.048 2.217 8.766 3.67 18.438 9.206 25.859zm22.776 83.367c-1.609 1.759-3.208 3.529-4.729 5.365-2.352 2.837-4.668 5.983-6.197 9.118 5.035 6.011 9.776 12.225 14.317 18.579a71.317 71.317 0 0013.086 2.11c3.027.196 6.093.174 9.159.02-4.427-6.93-8.979-13.776-13.757-20.471-3.719-5.211-7.725-10.054-11.879-14.721zm176.724-321.467c.638 6.687.63 12.799 2.865 19.22 2.957 8.499 7.261 14.532 5.229 23.975-1.684 7.823-3.539 15.342-4.207 23.378-1.088 13.08-2.282 32.291 3.621 44.366 2.217 4.534 11.321 6.296 12.1-.288 2.006-16.954-2.095-33.983.495-51.072 1.453-9.585 5.716-18.723 4.223-28.547-1.516-9.975-7.545-17.886-8.507-28.153-.504-5.374-8.312-35.702-4.874-37.811 7.65-4.695 1.92-14.348-5.445-12.761a8.83 8.83 0 00-2.769 1.098c-1.599.971-2.929 2.126-4.129 3.361-5.225 5.378-6.781 12.977-4.992 20.76 1.793 7.805 5.611 14.307 6.39 22.474zm418.977 35.795c1.307 1.858 1.897 4.044 2.118 6.318 8.202-10.442 17.115-20.382 25.636-30.228 6.738-7.785-4.679-15.834-11.353-8.83-9.475 9.946-18.629 20.21-27.048 31.034 2.773-3.031 8.273-1.671 10.647 1.706zm-17.202 35.56a147.173 147.173 0 015.234-9.235c-.001-.059 0-.119-.002-.178l-.458-20.299c-.058-2.567-.002-5.383 1.622-7.349-6.67 8.592-12.887 17.527-18.357 26.994-.301.521-.575 1.045-.868 1.567.432.991.898 1.965 1.466 2.887 2.323 3.77 7.412 6.295 11.363 5.613zm-24.183 17.73c-4.737 14.766-7.264 30.051-9.141 46.218-1.986 17.102-5.716 32.891-10.945 48.231 9.834-18.893 17.63-38.821 24.419-59.01 7.651-22.75 3.545-26.579-4.333-35.439zm-702.5-78.671c1.26 12.508-1.239 23.053-3.042 35.289-2.823 19.163 10.997 23.037 21.895 35.148 14.075 15.644 13.79 39.696 17.197 59.233 3.899 22.357 14.592 41.101 24.858 61.013 11.96 23.198 13.267 48.83 23.267 72.508 7.735 18.315 22.472 30.883 36.428 44.377 3.449-4.808 7.201-9.414 11.036-13.83-5.781-5.794-11.612-11.582-17.254-17.71-17.693-19.215-18.251-42.542-25.285-66.396-6.592-22.354-20.825-41.059-29.346-62.56-7.462-18.83-8.46-39.17-13.763-58.566-2.715-9.928-6.559-19.647-13.048-27.732-9.01-11.229-20.125-12.167-18.531-29.411 2.304-24.931 4.139-49.126-10.401-71.328-4-6.108-16.321-1.45-13.518 5.949 4.243 11.198 8.302 22.05 9.507 34.016zm408.497 335.6c-3.231 3.828-6.482 10.271-11.662 12.219-4.278 1.608-8.865-.277-13.167-.107-2.154.085-3.933.98-5.871 1.853-3.678 1.656-6.715 7.734-2.96 11.024 15.768 13.818 43.168 5.527 47.403-15.316.791-3.895.177-8.051-3.325-10.496-2.936-2.05-7.949-2.102-10.418.823zm40.069 159.107c-1.924-11.496-.879-15.522 4.334-24.727 2.2-3.884 3.946-5.602 4.282-10.04.595-7.853-4.308-11.937-9.124-17.226-7.574-8.319-9.948-17.397-6.576-28.554 1.931-6.391-9.342-10.991-12.275-5.005-4.587 9.36-6.165 18.944-3.393 29.218 1.163 4.309 3.076 8.344 5.622 12.008 1.449 2.084 4.888 4.492 5.834 6.677 1.688 3.9-.067 4.821-2.114 9.251-9.3 20.128-5.065 48.668 7.598 66.842 2.989 4.29 13.693 4.67 13.182-2.459-.899-12.573-5.321-23.74-7.37-35.985zm349.712-299.117c-19.24 2.163-41.287 14.101-54.384 28.555-7.191 7.936-9.13 16.375-13.914 25.546-4.957 9.502-12.032 13.523-15.538 24.092-2.868 8.646-4.297 13.291-13.293 17.342-3.852 1.735-7.959 2.883-11.872 4.475-9.268 3.771-18.265 8.46-25.649 15.297-6.208 5.748-10.72 12.399-13.229 20.527-2.769 8.969-2.044 16.236-10.121 21.917-7.918 5.569-12.172 8.681-17.157 17.185-5.029 8.579-8.711 17.746-10.803 27.477-1.197 5.568-.561 12.005-2.247 17.381-2.166 6.906-7.618 10.337-12.99 14.441-10.39 7.937-20.783 15.876-30.642 24.473-17.645 15.388-32.169 32.909-45.798 51.885a2795.417 2795.417 0 00-13.494 18.916c-.015-8.918 2.443-16.382 9.903-24.658 6.981-7.744 13.25-14.706 16.52-24.845 3.701-11.477 2.916-24.208 8.517-35.101 5.109-9.937 14.189-17.352 20.846-26.201 14.341-19.065 13.134-45.03 28.952-62.931 17.068-19.316 35.643-35.61 50.162-57.299 13.945-20.832 25.594-43.123 37.195-65.311-13.937 19.994-31.178 38.155-51.876 50.823-3.619 5.461-7.347 10.862-11.291 16.152-10.719 14.375-21.854 25.219-34.213 37.829-8.476 8.648-14.851 18.011-19.213 29.361-.456 1.187-.87 2.393-1.284 3.598l.008-.812c.383-2.905.753-5.811 1.122-8.715 2.262-17.799 6.107-35.032 10.595-52.058 2.378-4.11 5.017-8.07 7.689-12.015-7.613-.765-12.177-4.547-7.585-14.418.495-1.065 1.163-2.156 2.02-3.264 4.149-5.364 10.863-7.901 17.065-10.643a144.793 144.793 0 005.938-2.794c9.071-23.137 11.458-48.352 16.194-72.713 3.147-16.188 7.819-31.807 16.699-45.824 6.433-10.154 13.499-19.985 13.045-32.568-.214-5.944-2.38-11.268-4.178-16.845-3.313-10.278-.547-14.142 3.323-23.205 7.243-16.962 3.175-35.894 10.125-53.024 3.228-7.958-8.849-12.645-13.01-5.788-8.31 13.695-6.465 29.257-9.436 44.427-2.99 15.265-12.536 23.363-7.826 39.696 2.737 9.491 6.614 16.907 1.527 26.597-3.607 6.87-8.611 12.921-12.293 19.765-3.366 6.258-6.033 12.85-8.25 19.603-.076-7.139-.537-14.281-1.572-21.408-1.503-10.344-4.06-20.602-7.465-30.483-2.372-6.883-5.301-13.581-8.55-20.093-1.747-3.5-4.688-7.299-6.486-11.149 2.302-2.633 5.236-4.905 7.407-7.495 4.044-4.823 7.46-10.242 10.005-16.008 4.957-11.231 6.813-23.953 5.141-36.101-2.653-19.273-13.254-35.271-28.341-46.595 5.574-21.587 1.469-43.884-13.247-61.423-4.232-5.044-10.716-1.737-12.751 3.275-.962 2.37-.939 5.117.806 7.551 3.018 4.209 5.408 8.64 7.168 13.206 3.012 7.814 4.131 16.037 3.055 24.305-.566 4.352-1.733 8.715-3.539 13.035-2.03 4.854.243 9.752 4.496 12.359 22.293 13.663 29.27 41.65 16.908 64.469-4.575 8.446-14.069 13.413-17.625 22.095-3.203 7.817.507 13.407 4.256 20.215 24.677 44.816 20.697 92.696 6.996 140.173-6.249 21.656-13.739 42.94-19.561 64.722-6.936 25.948-8.937 52.152-13.093 78.601-3.443 21.912-9.926 41.6-22.355 60.096-11.908 17.721-24.045 34.709-30.019 55.505-7.385 25.708-6.969 52.971-11.362 79.219-.415 2.478-.87 4.951-1.323 7.424-.421.73-.862 1.451-1.279 2.183-1.026 1.802-.874 3.472-.066 4.853-4.315 21.808-9.989 43.421-16.24 64.705-3.118 10.614 11.16 15.897 15.226 5.448 9.835-25.279 16.65-51.224 21.381-77.927.092-.52.173-1.045.262-1.566 27.911-35.581 50.307-74.76 84.948-104.935 9.206-8.019 18.868-15.477 28.558-22.894 6.852-5.245 14.555-10.38 18.844-18.118 4.706-8.491 3.845-18.109 5.84-27.339 2.952-13.654 9.01-25.608 21.467-32.152 17.104-8.986 11.226-28.716 22.556-41.591 13.028-14.804 35.368-14.128 48.77-27.973 6.36-6.57 6.251-13.66 9.55-21.505 3.335-7.93 10.485-12.535 13.574-20.853 3.544-9.54 6.676-17.506 13.623-24.576.282-.287.598-.568.893-.853.832-.801 1.673-1.599 2.616-2.378 11.774-9.729 26.239-13.043 38.719-21.154a7.677 7.677 0 001.947-1.809c3.477-4.591.853-12.159-5.997-11.389zm-730.981 94.545c-22.752-11.989-30.177-40.268-46.157-59.034-14.669-17.226-35.048-30.461-57.501-34.198-5.004-.833-8.82 3.516-7.759 7.254.4 1.409 1.471 2.734 3.465 3.659 19.133 8.869 36.898 18.174 50.43 34.954 9.492 11.77 15.415 25.873 23.71 38.432 9.86 14.928 21.212 22.813 37.356 29.831 16.136 7.015 25.703 22.61 34.156 38.45a55.344 55.344 0 01-.092-7.602c.636-3.691 1.637-7.276 2.886-10.776a76.765 76.765 0 012.796-6.761 301.613 301.613 0 00-5.168-7.524c-10.656-14.99-22.521-18.464-38.122-26.685zm360.615 410.141c.176-18.4-.15-36.847-1.805-55.182-1.499-16.599-3.793-33.131-7.742-49.177-4.131-16.784-10.072-33.035-18.859-48.259-2.622-4.542-12.138-4.964-9.884 2.004 11.344 35.069 19.705 69.945 21.977 106.857.988 16.049 1.193 32.131.992 48.205a120.644 120.644 0 01-.133 4.041c-.677 14.409-3.495 31.528 2.067 44.405 1.575 3.646 6.392 5.72 8.447 1.214 7.208-15.812 4.776-36.979 4.94-54.108zm-60.204-174.68c-2.351-7.005-14.869-5.422-12.725 2.584 7.061 26.369 10.156 54.88 21.439 79.806 1.67 3.688 6.572 2.87 7.383-.993 2.672-12.727-.705-25.507-3.556-37.953-3.377-14.741-7.733-29.113-12.541-43.444zm-39.003 99.389c-4.073-19.673-14.11-36.421-25.341-52.766-.15-.219-.294-.439-.445-.658-.214-.311-.442-.611-.657-.922.283-.449.519-.976.654-1.647.032-.159.059-.318.091-.476 9.102-45.283 10.247-91.763-14.331-132.547-5.936-9.85-12.689-19.175-18.695-28.976-1.648-2.689-3.071-5.425-4.398-8.184l-.029.001c-5.138-.01-12.738-1.818-20.579-4.392 1.857 4.846 3.895 9.612 6.432 14.254 10.525 19.261 25.967 35.685 34.197 56.193 8.888 22.148 9.131 46.189 8.155 70.054-5.072-14.914-10.732-29.642-18.254-43.487-11.275-20.752-27.683-37.07-42.528-55.166-15.463-18.849-28.224-39.541-40.854-60.332-.929.362-1.831.675-2.689.877-4.804 1.131-9.631 2.202-14.484 3.089 7.937 12.914 15.736 25.957 24.039 38.714 15.168 23.302 34.523 42.581 50.867 64.883 11.41 15.569 19.033 33.261 25.423 51.393-16.296-20.058-33.627-39.284-50.968-58.459-27.353-30.246-54.913-60.568-77.761-94.448a81.262 81.262 0 01-10.984-1.474c-5.996-1.241-11.874-3.272-16.9-6.345 42.675 69.742 105.413 124.057 154.774 188.695 3.42 4.478 6.926 9.045 10.362 13.716 10.77 14.639 20.844 30.326 25.326 47.7 3.651 14.152 4.544 28.368 6.231 42.459.685 5.722 1.504 11.423 2.692 17.09 3.529-.982 7.129-1.43 10.448.488 4.774 2.76 6.505 9.276 3.281 13.849-1.729 2.453-4.605 4.013-7.627 5.249 1.39 2.486 3.64 3.319 5.979 3.009 4.738-.629 9.75-5.845 8.27-11.174-6.356-22.893-4.9-47.089-9.697-70.26zm103.827-325.368c.076-.847.034-1.635-.059-2.394 25.384.447 54.906-10.08 68.318-28.791 1.036-1.445 1.641-2.93 1.927-4.397-8.125 9.845-27.559 12.545-38.602 14.181-9.825 1.456-20.14 1.972-30.064 1.481-7.881-.39-16.69-1.505-23.603-5.609-7.448-4.422-9.824-11.53-5.825-19.379 1.832-3.597 4.888-6.554 8.387-9.004a50.89 50.89 0 01-2.909-2.525c-15.965-15.012-20.728-39.16-11.764-59.132 8.869-19.762 29.737-32.231 51.361-30.569 13.122 1.008 25.181 7.107 33.942 16.404 1.157.378 2.305.747 3.437 1.099 4.315 1.341 8.979-1.843 10.518-5.688 7.156-.071 12.84-7.735 7.631-15.301-1.593-2.314-3.508-4.53-5.679-6.637a4.35 4.35 0 01-.828.577c-3.275 1.716-5.496-.963-7.68-2.942-5.45-4.94-13.613-6.615-20.643-7.933-7.277-1.364-14.693-2.042-22.082-2.474-3.648-.214-7.267-.499-10.875.221-3.412.681-6.385 2.281-9.673 3.19-5.218 1.442-10.532-1.953-11.56-7.072a36.467 36.467 0 00-2.802 1.621c-6.504 4.203-5.04 13.937 3.149 14.332 4.656.224 9.213.014 13.741-.209-12.982 2.964-24.786 10.464-33.546 24.09-11.156 17.352-10.66 38.403-3.679 57.278 2.534 6.852 5.904 14.113 10.628 19.928-7.479 4.997-13.493 11.671-14.008 21.144-.581 10.684 5.612 19.684 14.216 25.119l.036-.103c.872-2.602 1.011-5.602 3.134-7.547 1.951-1.787 4.775-2.398 7.284-1.516 7.916 2.812 3.772 13.051 1.5 18.361-2.942 6.878-6.885 13.181-12.938 17.744-13.617 10.264-31.13 8.572-43.114-3.192.328.341.647.682.997 1.021-.442-.439-.882-.879-1.321-1.321.105.106.218.196.324.3-3.912-4.063-6.387-8.295-9.025-13.407-1.199-2.323-2.486-5.619-2.91-8.793-3.946-3.276-12.444.065-12.712 5.84-.194 4.181.721 8.054 2.438 11.61 1.248 2.585 2.927 4.997 4.941 7.228 11.099 12.289 32.252 19.067 46.321 18.678 19.616-.541 41.788-14.644 43.671-35.512z"/><path fill="#FFB3B3" d="M540.825 470.756c.213-.124.428-.246.639-.375-.213.127-.425.253-.639.375zm116.747 3.575c3.872.269 7.809-.079 11.645-1.151 2.336-.653 4.547-1.572 6.644-2.673a35.573 35.573 0 01-18.289 3.824z"/><path fill="#FFB3B3" d="M682.791 484.979c-18.185 9.102-40.394 6.525-56.074-6.125-3.498 2.45-6.554 5.407-8.387 9.004-3.998 7.849-1.623 14.957 5.825 19.379 6.912 4.104 15.721 5.219 23.603 5.609 9.923.491 20.239-.025 30.064-1.481 11.044-1.636 30.477-4.336 38.602-14.181 2.952-3.578 4.425-8.09 3.44-13.85-.235-1.377-.853-2.642-1.331-3.942l.137.471c-2.426-7.029-8.618-11.617-15.669-13.186-4.9 7.644-11.764 14.075-20.21 18.302zm-4.968-15.564c-.21.125-.42.25-.632.371.211-.124.423-.244.632-.371zM502.639 485.56c-5.421-2.433-10.267-5.794-14.449-9.801-.581.227-1.164.442-1.741.699-7.366 3.278-15.89 8.003-19.278 15.678-3.626 8.216-.196 14.986 7.472 18.988 7.794 4.067 17.288 4.926 25.923 5.088 10.004.189 20.204-.492 30.066-2.157 14.289-2.413 44.605-8.208 38.197-28.731a24.131 24.131 0 00-.583-1.683l-.39-.998.137.467c-1.279-3.706-3.625-6.709-6.567-8.978-15.035 15.686-38.962 20.328-58.787 11.428z"/><path fill="#FFB3B3" d="M521.217 475.299c3.87.268 7.805-.081 11.638-1.153 2.336-.653 4.548-1.572 6.645-2.674a35.549 35.549 0 01-18.283 3.827z"/><path fill="#FFF" d="M516.664 415.937c-.747.141-1.514.362-2.3.682-6.431 2.627-7.613 8.928-5.58 13.915 1.526 3.741 4.861 6.743 9.146 6.903 1.428.053 2.963-.21 4.571-.866 6.429-2.626 7.611-8.924 5.578-13.911-1.786-4.376-6.05-7.737-11.415-6.723zm137.236 12.93c2.262 5.772 8.281 10.083 15.677 7.065.458-.187.892-.39 1.304-.608 6.055-3.209 7.168-9.661 5.154-14.933-2.091-5.467-7.545-9.666-14.362-7.653-.446.132-.899.29-1.356.477-.915.373-1.737.812-2.47 1.305-5.065 3.408-5.879 9.411-3.947 14.347z"/><path fill="#FFF" d="M509.929 388.046c-20.845 5.824-36.202 24.578-37.859 46.15-1.206 15.693 5.056 30.963 16.12 41.564 4.182 4.007 9.028 7.367 14.449 9.801 19.826 8.899 43.752 4.258 58.787-11.427.112-.116.234-.22.344-.338 14.807-15.748 18.33-39.641 8.65-58.981-5.598-11.185-15.048-19.61-26.089-24.336A53.104 53.104 0 00532 386.872c-7.231-1.183-14.755-.871-22.071 1.174zm28.179 20.781a34.932 34.932 0 016.85 4.237c.281.217.55.449.825.675.323.272.646.542.959.825 3.227 2.859 5.968 6.315 7.962 10.31 1.004 2.012 1.769 4.101 2.353 6.227.605 2.123 1.035 4.309 1.22 6.553.367 4.452-.185 8.829-1.464 12.949-.119.398-.254.791-.387 1.185-.119.341-.232.684-.361 1.021-1.642 4.404-4.151 8.511-7.516 11.995-2.122 2.197-4.518 4.047-7.085 5.577-.211.129-.425.25-.639.375-.437.248-.878.489-1.324.718-2.097 1.101-4.308 2.02-6.645 2.674-3.834 1.072-7.768 1.42-11.638 1.153-3.951-.236-7.884-1.116-11.607-2.726a34.353 34.353 0 01-7.156-4.194 34.333 34.333 0 01-7.473-7.617c-2.38-3.341-4.069-7.037-5.121-10.883-1.091-3.829-1.561-7.86-1.259-11.944a34.336 34.336 0 012.441-10.389 34.354 34.354 0 013.944-7.298c2.35-3.309 5.258-6.102 8.516-8.353 3.169-2.234 6.712-3.975 10.544-5.046 2.337-.653 4.705-1.015 7.069-1.16.5-.036 1.001-.059 1.503-.073.248-.004.495-.012.742-.011 2.988-.022 5.995.317 8.948 1.095a34.179 34.179 0 015.799 2.125zm125.297-22.198c-21.623-1.662-42.491 10.807-51.361 30.569-8.964 19.972-4.201 44.12 11.764 59.132a50.55 50.55 0 002.909 2.525c15.68 12.65 37.889 15.227 56.074 6.125 8.446-4.227 15.31-10.659 20.21-18.303 7.85-12.246 10.629-27.624 6.559-42.185-2.283-8.166-6.57-15.47-12.213-21.458-8.761-9.299-20.82-15.397-33.942-16.405zm-5.833 87.702c-3.948-.237-7.878-1.116-11.6-2.726a34.372 34.372 0 01-7.16-4.198 34.361 34.361 0 01-7.469-7.613c-2.378-3.338-4.067-7.032-5.119-10.875-1.093-3.831-1.563-7.864-1.261-11.951a34.352 34.352 0 012.44-10.387 34.316 34.316 0 013.944-7.299c2.349-3.307 5.254-6.098 8.509-8.348 3.17-2.236 6.715-3.979 10.55-5.05 2.335-.653 4.702-1.014 7.064-1.16.505-.037 1.01-.059 1.518-.074.243-.004.485-.012.728-.011 2.99-.023 6 .316 8.956 1.095 4.685 1.234 8.962 3.446 12.65 6.361.281.217.55.448.824.674.324.273.649.544.963.827 3.226 2.858 5.967 6.313 7.96 10.308 1.005 2.014 1.771 4.106 2.354 6.234.603 2.121 1.032 4.306 1.217 6.547.367 4.45-.186 8.826-1.463 12.944-.121.404-.258.803-.393 1.203-.117.336-.228.673-.356 1.005-1.643 4.406-4.152 8.516-7.519 12-2.123 2.197-4.52 4.048-7.087 5.579-.208.127-.421.248-.632.371a35.54 35.54 0 01-1.33.721c-2.096 1.101-4.307 2.02-6.644 2.673-3.835 1.071-7.772 1.419-11.644 1.15z"/><path d="M542.204 917.462c-3.318-1.919-6.919-1.471-10.448-.488-2.125.591-4.224 1.376-6.218 1.956-6.533 1.898-12.987 4.068-19.431 6.249-.609.206-1.21.43-1.818.641l-.063.023c-1.68.585-3.353 1.191-5.016 1.822-1.291.49-2.585.977-3.862 1.502-1.368.562-2.729 1.139-4.098 1.7-.612.251-4.581 1.916-2.382.97-18.327 7.799-37.165 14.285-56.01 20.664-7.305 2.473-14.708 4.591-21.965 7.237-4.066 1.483-8.053 3.165-12.186 4.438-3.931 1.21-9.224 2.373-12.07 5.608-3.021 3.435-3.027 7.073-.435 10.73 2.045 2.884 3.959 5.712 6.141 8.496 5.345 6.914 10.672 13.665 17.046 19.7 6.645 6.29 13.32 12.548 19.906 18.899a367.725 367.725 0 0118.879 19.589c6.019 6.731 12.96 13.02 18.282 20.321-8.493 4.839-16.489 10.765-24.048 16.928-3.792 3.091-7.289 6.554-11.014 9.729-3.993 3.403-8.743 6.871-11.823 11.177-5.253 7.345.653 14.427 8.487 15.278 8.69.944 19.053-4.717 26.322-8.858 8.971-5.11 16.941-11.747 25.088-18.031 6.309-4.866 13.576-10.599 14.38-18.892.945-9.749-5.986-18.415-11.601-25.732-6.179-8.052-12.169-16.354-18.794-24.047-6.471-7.515-13.705-14.049-20.607-21.124-6.888-7.06-13.357-14.332-20.973-20.656 5.006-2.287 9.991-4.649 15.058-6.797-.636.269-1.275.535-1.914.797 12.166-5.103 25.734-11.201 38.922-16.436 11.226-4.456 22.702-8.311 33.957-12.676 1.256-.487 2.521-.952 3.77-1.454.5-.201 1.002-.393 1.502-.592.257-.103.516-.203.774-.305 5.656-2.255 11.323-4.468 16.99-6.699 1.569-.618 3.36-1.211 5.163-1.878a56.834 56.834 0 001.762-.691c3.022-1.236 5.897-2.796 7.627-5.249 3.225-4.573 1.494-11.089-3.28-13.849zm99.27-550.317c3.288-.909 6.261-2.509 9.673-3.19 3.607-.72 7.226-.435 10.875-.221 7.388.433 14.805 1.11 22.082 2.474 7.03 1.318 15.193 2.993 20.643 7.933 2.183 1.979 4.404 4.658 7.68 2.942.302-.158.575-.357.828-.577 1.911-1.663 2.395-4.901.528-6.804-9.434-9.646-19.729-19.066-32.765-23.492-12.857-4.366-27.974-5.507-40.726-.493-5.401 2.124-10.595 6.232-10.594 12.585 0 .614.101 1.196.216 1.77 1.028 5.12 6.342 8.515 11.56 7.073zm-191.055 43.461c.362-.162.71-.368 1.027-.643 1.184-1.026 1.822-2.845 2.691-4.146 1.32-1.977 2.82-3.79 4.35-5.605 6.245-7.406 12.742-14.662 20.793-20.153 8.021-5.471 16.998-10.173 26.114-13.53 4.001-1.302 8.196-2.703 12.416-3.06 3.996-.338 8.107-.043 12.118-.11 3.6-.06 7.164.142 10.148-2.242 2.209-1.764 3.492-4.515 3.366-7.296a8 8 0 00-.447-2.361c-3.085-8.564-13.629-5.787-20.456-4.967a66.158 66.158 0 00-7.81 1.437c-6.148 1.498-12.058 3.839-17.634 6.949-15.423 8.6-28.822 18.586-39.854 32.483-2.564 3.23-5.141 6.458-7.453 9.876-1.767 2.611-5.78 7.118-5.165 10.477.5 2.727 3.483 3.926 5.796 2.891zm-47.281 199.356c.858-.202 1.76-.515 2.689-.877 4.533-1.767 9.75-4.795 14.081-2.839 2.981 1.347 5.133 3.98 7.39 6.345 3.646 3.821 17.876 10.542 31.383 14.977 7.841 2.574 15.441 4.383 20.579 4.392l.029-.001c23.793.033 21.473-12.194 23.706-15.942 1.895-3.182-26.448-12.321-31.326-9.916l24.527-12.092c3.565-1.757 7.771-4.877 6.598-8.674-1.132-3.663-6.105-4.031-9.92-3.65a712.555 712.555 0 00-25.527 3.013l27.245-14.222c2.392-1.248 5.047-2.836 5.553-5.486.603-3.158-2.446-6.067-5.626-6.545-3.18-.478-6.339.762-9.316 1.978l-38.167 15.588c1.518-7.03 8.99-10.693 15.061-14.549s11.962-11.281 8.487-17.577c-2.767-5.012-9.873-5.672-15.338-3.965-11.186 3.494-18.611 13.301-27.008 21.743-1.788 1.797-3.617 3.537-5.539 5.136-.289.241-.572.491-.866.726-2.318 1.85-4.824 3.392-7.409 4.783-8.202 4.414-17.53 6.618-26.902 7.087-3.066.154-6.132.176-9.159-.02a71.416 71.416 0 01-13.086-2.11c-3.188-.821-6.317-1.834-9.225-3.171-8.011-3.685-7.96-9.526-5.091-15.408 1.529-3.135 3.845-6.282 6.197-9.118 1.522-1.835 3.12-3.606 4.729-5.365a147.625 147.625 0 0114.988-14.25c1.971-1.625 3.964-3.224 6.017-4.745 1.543-1.143 3.713-2.36 6.075-3.662-4.559-7.876-9.396-15.605-15.375-22.606a250.51 250.51 0 00-6.971 6.027c-4.533 4.052-8.926 8.278-13.087 12.797a420.774 420.774 0 00-8.192 9.125c-3.836 4.416-7.588 9.022-11.036 13.83-3.827 5.336-7.276 10.918-10.017 16.775a76.765 76.765 0 00-2.796 6.761c-1.249 3.501-2.25 7.085-2.886 10.776a55.348 55.348 0 00.092 7.602c.68 8.438 3.484 17.016 10.203 22.309 1.093.861 2.262 1.639 3.465 2.374 5.026 3.073 10.904 5.104 16.9 6.345a81.241 81.241 0 0010.984 1.474c1.064.071 2.119.127 3.154.158 8.51.252 16.917-.719 25.246-2.241 4.857-.888 9.683-1.959 14.487-3.09zm151.566-185.088c-1.993-3.996-4.734-7.451-7.962-10.31-.316-.28-.634-.557-.959-.825-.274-.226-.544-.457-.825-.675a35.647 35.647 0 00-6.864-4.158c-4.591-2.123-9.621-3.282-14.735-3.301-.247-.001-.495.006-.742.011-.501.009-1.002.042-1.503.073-2.364.146-4.732.507-7.069 1.16-3.832 1.071-7.375 2.812-10.544 5.046-5.541 3.907-9.907 9.361-12.46 15.65a34.366 34.366 0 00-2.441 10.389c-.302 4.084.168 8.115 1.259 11.944 2.085 7.318 6.507 13.871 12.594 18.5a34.258 34.258 0 007.156 4.194c3.724 1.61 7.657 2.49 11.607 2.726a35.568 35.568 0 0018.283-3.826 33.84 33.84 0 001.963-1.093c2.567-1.53 4.963-3.381 7.085-5.577 3.365-3.483 5.874-7.591 7.516-11.995.126-.339.246-.679.361-1.021.133-.394.268-.787.387-1.185a35.412 35.412 0 00.244-19.502c-.582-2.124-1.347-4.213-2.351-6.225zm-32.203 11.697c-1.608.657-3.142.919-4.571.866-4.285-.16-7.619-3.162-9.146-6.903-2.036-4.989-.854-11.292 5.58-13.915a11.977 11.977 0 012.3-.683c5.365-1.016 9.629 2.346 11.414 6.724 2.033 4.987.852 11.285-5.577 13.911zm294.687 527.605c-4.133-1.272-8.12-2.954-12.186-4.438-7.257-2.647-14.66-4.765-21.965-7.237-18.846-6.379-37.683-12.865-56.01-20.664 2.199.946-1.77-.72-2.382-.97-1.369-.561-2.73-1.137-4.098-1.7-1.277-.525-2.571-1.012-3.862-1.502a189.888 189.888 0 00-5.079-1.845c-.607-.211-1.209-.435-1.818-.641a662.93 662.93 0 00-13.119-4.295c-2.1-.663-4.197-1.34-6.311-1.954-5.308-1.542-11.349-4.541-16.666-1.468-4.774 2.76-6.505 9.276-3.281 13.849 3.09 4.383 9.819 5.955 14.552 7.818 2.687 1.058 5.37 2.12 8.056 3.176 2.978 1.171 5.959 2.337 8.934 3.522.258.103.517.202.774.305.5.2 1.003.391 1.502.592 12.447 5.002 25.249 9.177 37.727 14.13 13.187 5.235 26.756 11.333 38.922 16.436a227.16 227.16 0 01-1.914-.797c5.067 2.148 10.053 4.51 15.058 6.797-7.616 6.324-14.086 13.596-20.973 20.656-6.903 7.075-14.137 13.609-20.607 21.124-6.625 7.693-12.614 15.995-18.794 24.047-5.616 7.317-12.547 15.983-11.601 25.732.804 8.293 8.072 14.026 14.38 18.892 8.147 6.284 16.117 12.92 25.088 18.031 7.269 4.141 17.632 9.802 26.322 8.858 7.834-.851 13.74-7.934 8.487-15.278-3.079-4.306-7.83-7.774-11.823-11.177-3.725-3.175-7.222-6.637-11.014-9.729-7.56-6.163-15.555-12.09-24.049-16.928 5.322-7.301 12.262-13.589 18.282-20.321a367.725 367.725 0 0118.879-19.589c6.586-6.351 13.262-12.609 19.906-18.899 6.375-6.035 11.701-12.785 17.046-19.7 2.182-2.784 4.096-5.612 6.141-8.496 2.592-3.657 2.586-7.295-.435-10.73-2.846-3.234-8.138-4.397-12.069-5.607zm193.708-673.443c-2.125-4.805-9.242-3.41-14.021-1.229l-25.454 11.62a2895.609 2895.609 0 0013.577-22.316c2.738-4.546 5.391-10.653 1.998-14.734-4.034-4.852-12.243-1.379-15.925 3.745-3.682 5.124-5.733 11.774-11.084 15.119-1.319-3.943-.678-8.23-.323-12.373.161-1.88.228-3.828.044-5.717-.221-2.274-.811-4.46-2.118-6.318-2.374-3.377-7.875-4.737-10.646-1.706-.02.022-.047.033-.067.056-.04.045-.055.104-.093.15-1.624 1.967-1.68 4.782-1.622 7.349l.458 20.299c.001.059 0 .119.002.178.047 2.211.037 4.534-1.083 6.433-.966 1.636-2.455 2.509-4.15 2.802-3.951.682-9.04-1.843-11.362-5.612-.568-.922-1.034-1.896-1.466-2.887-2.088-4.795-2.941-10.205-5.882-14.544-13.201-19.476-24.248 11.786-16.823 25.138 4.058 7.296 8.035 11.908 11.35 15.635 7.878 8.86 11.984 12.689 4.334 35.439-6.789 20.189-14.585 40.117-24.419 59.01-3.392 6.516-7.019 12.913-10.94 19.149-18.147 28.86-42.817 54.381-73.258 69.527a144.793 144.793 0 01-5.938 2.794c-6.202 2.741-12.917 5.279-17.065 10.643-.857 1.108-1.524 2.199-2.02 3.264-4.591 9.871-.028 13.654 7.585 14.418 11.464 1.151 29.854-4.552 34.413-6.712 4.19-1.985 8.238-4.217 12.175-6.627 20.698-12.667 37.939-30.829 51.876-50.823 19.046-27.324 32.675-57.707 45.245-88.35 1.75-4.266 3.47-8.565 4.669-13.043.707-2.62 1.374-5.25 2.063-7.871 6.335-24.102 16.206-29.703 39.686-36.699 10.771-3.209 22.318-8.72 26.058-19.319.669-1.899 1.04-4.047.226-5.888zM677.19 469.785c.212-.12.422-.246.632-.371 2.567-1.531 4.964-3.381 7.087-5.579 3.366-3.484 5.876-7.594 7.519-12 .124-.333.242-.668.356-1.005.136-.4.272-.799.393-1.203 1.886-6.296 2.006-13.076.246-19.491-.584-2.128-1.35-4.22-2.354-6.234-1.993-3.995-4.734-7.45-7.96-10.308a32.798 32.798 0 00-.963-.827c-.274-.226-.544-.457-.824-.674-6.14-4.751-13.781-7.429-21.606-7.456-.243-.001-.485.006-.728.011-.505.009-1.012.043-1.518.074-2.363.146-4.729.507-7.064 1.16-3.835 1.071-7.38 2.814-10.55 5.05-5.538 3.907-9.901 9.359-12.453 15.647a34.33 34.33 0 00-2.44 10.387c-.302 4.087.168 8.12 1.261 11.951 2.086 7.313 6.506 13.861 12.588 18.489a34.285 34.285 0 007.16 4.198c3.721 1.609 7.652 2.489 11.6 2.726a35.561 35.561 0 0018.289-3.825c.448-.228.89-.47 1.329-.72zm-6.309-34.46c-.411.218-.846.421-1.304.608-7.399 3.02-13.417-1.293-15.677-7.065-1.932-4.936-1.119-10.94 3.946-14.347a13.636 13.636 0 012.47-1.305c.458-.187.91-.345 1.356-.477 6.817-2.013 12.271 2.185 14.362 7.653 2.017 5.271.908 11.722-5.153 14.933zm-42.814 78.885c-2.509-.882-5.332-.272-7.284 1.516-2.123 1.945-2.262 4.945-3.134 7.547l-.036.103c-1.827 5.428-4.287 11.058-9.126 14.37-8.854 6.059-22.343 3.849-29.011-4.609a48.525 48.525 0 01-4.979-7.728c-1.106-2.157-1.108-4.656-2.256-6.695-2.299-4.085-8.456-3.667-10.202.658-.655 1.623-.724 3.564-.458 5.552.424 3.174 1.711 6.469 2.91 8.793 2.639 5.112 5.114 9.344 9.025 13.407 11.984 11.764 29.497 13.456 43.114 3.192 6.053-4.563 9.996-10.866 12.938-17.744 2.27-5.311 6.414-15.55-1.501-18.362zm-53.555 33.934c-.35-.339-.669-.68-.997-1.021-.106-.104-.219-.194-.324-.3.439.442.879.883 1.321 1.321z"/></svg>