<svg xmlns="http://www.w3.org/2000/svg" width="2838.923" height="1610.175"><path fill="#BFCFE0" d="M-19.324-20.563h2896.328V986.16H-19.324z"/><path fill="#3E210E" d="M1994.891 858.113h3.961v23.017h-3.961z"/><path fill="#E3C950" d="M2006.073 863.998a24.344 24.344 0 001.941-1.194c0-.005.006-.005.012-.011.904-1.664 1.608-3.485 1.99-5.317.006-2.684-.66-5.329-1.354-7.925a2.133 2.133 0 01.158-1.555c.072-1.015.285-2.045.633-3.082.66-1.979-1.592-8.935-7.429-12.142-.158-.043-.316-.092-.479-.136-1.772.12-3.186.916-4.866 1.304-1.08.25-2.236.431-3.326.021-.125-.049-.311-.137-.459-.202h-1.346c-.066 0-.115-.032-.182-.038-.768.251-1.531.529-2.273.873-1.887 2.329-3.992 5.536-3.725 7.969.479 4.314-2.291 11.944-2.291 11.944l-.033.039c-.043 1.053-.131 2.115-.076 3.136.065.262.109.523.191.774 1.129 3.507 3.24 4.859 6.631 5.988.791.268 1.49.513 2.145.835 3.883.19 8.115.136 11.41.027.879-.456 1.822-.861 2.728-1.308z"/><path fill="#CCA846" d="M1993.354 833.962c-.125-.049-.311-.137-.459-.202h-1.346c-.066 0-.115-.032-.182-.038-.768.251-1.531.529-2.273.873-1.887 2.329-3.992 5.536-3.725 7.969.479 4.314-2.291 11.944-2.291 11.944l-.033.039c-.043 1.053-.131 2.115-.076 3.136.065.262.109.523.191.774 1.129 3.507 3.24 4.859 6.631 5.988.797.268 1.496.519 2.154.84 1.338.065 2.717.104 4.086.115v-31.329c-.888.163-1.804.218-2.677-.109z"/><path fill="#3E210E" d="M2025.61 862.302h3.959v23.018h-3.959z"/><path fill="#E3C950" d="M2036.791 868.188a24.167 24.167 0 001.941-1.194c0-.006.006-.006.012-.012.904-1.663 1.608-3.485 1.99-5.317.006-2.684-.66-5.328-1.353-7.925a2.123 2.123 0 01.158-1.555 12.39 12.39 0 01.632-3.081c.66-1.98-1.592-8.935-7.429-12.142-.158-.044-.316-.093-.479-.137-1.772.12-3.185.916-4.864 1.304-1.08.251-2.236.431-3.328.022-.125-.05-.311-.137-.457-.202h-1.348c-.066 0-.115-.033-.18-.038-.77.251-1.533.529-2.275.873-1.887 2.328-3.992 5.536-3.725 7.969.48 4.313-2.291 11.944-2.291 11.944l-.033.038c-.043 1.053-.131 2.116-.076 3.136.066.262.109.523.191.774 1.129 3.508 3.24 4.86 6.633 5.989.791.267 1.488.513 2.143.835 3.883.19 8.115.136 11.41.027.879-.458 1.823-.861 2.728-1.308z"/><path fill="#CCA846" d="M2024.071 838.151c-.125-.05-.311-.137-.457-.202h-1.348c-.066 0-.115-.033-.18-.038-.77.251-1.533.529-2.275.873-1.887 2.328-3.992 5.536-3.725 7.969.48 4.313-2.291 11.944-2.291 11.944l-.033.038c-.043 1.053-.131 2.116-.076 3.136.066.262.109.523.191.774 1.129 3.508 3.24 4.86 6.633 5.989.795.267 1.494.519 2.154.84 1.336.065 2.715.104 4.084.114V838.26c-.888.164-1.804.219-2.677-.109z"/><path fill="#3E210E" d="M2056.328 866.491h3.96v23.017h-3.96z"/><path fill="#E3C950" d="M2067.509 872.376a23.819 23.819 0 001.941-1.194c0-.005.006-.005.012-.011.906-1.664 1.609-3.485 1.99-5.318.006-2.684-.66-5.329-1.352-7.925a2.113 2.113 0 01.158-1.555c.07-1.014.283-2.045.633-3.081.66-1.979-1.594-8.934-7.43-12.141-.158-.044-.316-.093-.479-.137-1.772.12-3.186.916-4.865 1.304-1.08.251-2.236.431-3.328.021-.125-.049-.311-.136-.457-.202h-1.348c-.064 0-.115-.032-.18-.037-.77.25-1.533.528-2.275.872-1.887 2.329-3.992 5.536-3.725 7.969.48 4.314-2.291 11.944-2.291 11.944l-.031.038c-.045 1.053-.131 2.116-.078 3.136.066.263.109.524.191.775 1.129 3.507 3.24 4.859 6.633 5.989.791.267 1.488.513 2.143.834 3.885.191 8.116.137 11.411.027.878-.456 1.822-.86 2.727-1.308z"/><path fill="#CCA846" d="M2054.789 842.34c-.125-.049-.311-.136-.457-.202h-1.348c-.064 0-.115-.032-.18-.037-.77.25-1.533.528-2.275.872-1.887 2.329-3.992 5.536-3.725 7.969.48 4.314-2.291 11.944-2.291 11.944l-.031.038c-.045 1.053-.131 2.116-.078 3.136.066.263.109.524.191.775 1.129 3.507 3.24 4.859 6.633 5.989.797.267 1.494.518 2.154.84 1.336.065 2.717.104 4.085.114v-31.329c-.889.163-1.805.218-2.678-.109z"/><path fill="#3E210E" d="M2087.046 870.681h3.96v23.016h-3.96z"/><path fill="#E3C950" d="M2098.228 876.565a24.658 24.658 0 001.942-1.194c0-.006.004-.006.01-.011.906-1.664 1.609-3.485 1.991-5.318.005-2.684-.659-5.329-1.353-7.925a2.113 2.113 0 01.158-1.555c.07-1.015.283-2.046.633-3.082.66-1.979-1.594-8.934-7.429-12.141-.158-.043-.316-.093-.48-.137-1.772.121-3.186.917-4.865 1.304-1.08.251-2.236.431-3.326.022-.127-.049-.313-.137-.459-.202h-1.348c-.064 0-.113-.032-.18-.038-.77.251-1.533.529-2.273.873-1.889 2.328-3.992 5.535-3.727 7.968.48 4.314-2.289 11.944-2.289 11.944s-.027.033-.033.038c-.045 1.053-.131 2.117-.076 3.137.064.262.109.523.189.774 1.129 3.508 3.24 4.86 6.633 5.989.791.268 1.488.513 2.143.834 3.885.191 8.117.137 11.411.027.878-.456 1.822-.859 2.728-1.307z"/><path fill="#CCA846" d="M2085.509 846.529c-.127-.049-.313-.137-.459-.202h-1.348c-.064 0-.113-.032-.18-.038-.77.251-1.533.529-2.273.873-1.889 2.328-3.992 5.535-3.727 7.968.48 4.314-2.289 11.944-2.289 11.944s-.027.033-.033.038c-.045 1.053-.131 2.117-.076 3.137.064.262.109.523.189.774 1.129 3.508 3.24 4.86 6.633 5.989.797.268 1.494.518 2.154.84 1.336.065 2.717.104 4.086.114v-31.329c-.89.165-1.806.219-2.677-.108z"/><path fill="#FFF" d="M1922.901 786.494s16.755-17.558 67.022-17.558c50.266 0 53.059 14.045 53.059 14.045l100.53 3.512s24.954.011 27.927 9.365c5.585 17.558-55.852 16.384-55.852 16.384h-301.596s-13.964-4.68-13.964-12.872c0-8.191 19.548-10.532 30.719-10.532 11.171.001 92.155-2.344 92.155-2.344zM171.217 610.574s9.215-17.557 36.864-17.557c27.647 0 29.184 14.044 29.184 14.044l55.296 3.513s13.725.01 15.359 9.365c3.072 17.557-30.719 16.384-30.719 16.384H111.312s-7.68-4.68-7.68-12.872 10.752-10.532 16.896-10.532 50.689-2.345 50.689-2.345z"/><path fill="#6E4736" d="M952.818 917.199s142.414-96.338 280.639-50.267c138.224 46.077 146.602 37.7 188.489 20.944 41.887-16.755 67.016-46.071 188.488-8.377 121.465 37.699 146.599 71.21 146.599 71.21s-846.101 37.694-850.29 25.128c-4.188-12.566 46.075-58.638 46.075-58.638zm-972.93-222.254c14.787 0 137.659 11.17 162.792 13.962 25.133 2.793 2.792 27.926 27.925 30.719 25.133 2.792 41.888 0 64.229-2.793 22.34-2.792 67.021-33.51 75.399-30.718 8.378 2.792 55.852 2.792 72.607 2.792s30.718 16.756 33.511 61.437c2.792 44.682 19.548 64.229 27.926 64.229 8.377 0 5.585 30.718 5.585 39.096s-245.745 58.645-254.124 58.645c-8.377 0-209.442 11.911-209.442 11.911l-6.408-249.28zm2102.81 225.133s239.18-154.938 653.002-20.72c55.453 42.243-50.969 26.006-.801 31.285 50.168 5.28-47.535 5.28-47.535 5.28l-631.069 7.919 26.403-23.764z"/><path fill="#B77138" d="M405.181 907.18c8.377-5.585 78.192-16.756 97.74-78.192 19.548-61.436 61.741-184.309 64.534-203.856 2.793-19.548 61.437-25.133 61.437-33.511 0-8.378 39.096-44.68 47.474-44.68s49.96 2.792 195.174 2.792c145.213 0 98.026 22.34 98.026 22.34s75.113 41.888 86.283 248.537c2.793 22.341 9.774 53.059 29.322 64.229 26.78 15.305 128.458 60.04 128.458 60.04l-132.647 2.793-767.955-26.529 92.154-13.963z"/><path fill="#BC6A12" d="M1536.169 918.35s3.204-4.145 7.947-10.624c13.516-18.469 39.526-55.89 39.526-70.36 0-19.548 72.603-55.851 89.356-58.643 16.757-2.793 0-114.496 0-114.496l16.757-16.755s19.548-44.681 39.095-53.059c19.548-8.377 61.436-2.792 61.436-2.792l39.098 11.17 5.584 80.984s8.379 47.474 11.17 55.852c2.793 8.377 36.304 41.888 36.304 41.888s139.999 137.103 142.421 148.006c5.586 25.133-519.411 13.963-519.411 13.963l30.717-25.134z"/><path fill="#6E4736" d="M2838.923 923.537s42.481-13.303 40.087-16.575c-6.834-9.338 0-68.375 0-75.694 0-9.883-58.551-3.382-70.349-4.45-12.244-1.113-38.92-31.761-38.92-31.761l-8.472-8.47s-9.883-22.592-19.767-26.824c-9.881-4.238-31.061-1.412-31.061-1.412l-19.767 5.645-2.825 40.945s-4.232 24.004-5.645 28.237c-1.414 4.238-18.354 21.179-18.354 21.179s-70.779 69.317-72.007 74.827c-2.825 12.708 262.604 7.063 262.604 7.063l-15.524-12.71z"/><path fill="#D8A429" d="M-20.11 943.483h2899.12v666.691H-20.11z"/><path fill="#D6B431" d="M1060.892 945.436c-56.774-9.583-77.203-29.519-244.213-57.902-230.038-39.096-311.394-33.511-432.023-22.341C280.038 874.88 57.298 930.77 0 945.436h1060.892z"/><path fill="#FFF" d="M1323.463 965.289l-1.285 11.127h4.566l.493-11.127zm2.536-21.915l-.434 3.218h2.476l.17-3.218z"/><path fill="#D6B431" d="M2881.607 944.181c1.342-29.311 4.216-102.582-.578-102.582-5.989 0-282.96 92.154-442.862 94.947-159.907 2.792-168.322-30.719-418-58.645-249.674-27.926-274.921 41.888-412.382 61.437-12.907 1.833-26.081 3.437-39.481 4.843h1313.303z"/><path fill="#FFF" d="M1322.445 430.951c17.483-.672 554.084 0 554.084 0s61.24 2.917 58.322-23.329c-2.912-26.248-78.737-29.164-78.737-29.164s32.082-61.242-58.327-69.99c-90.404-8.748-142.896 29.163-142.896 29.163s-61.234-49.577-154.557-46.661c-93.319 2.917-104.983 58.326-104.983 58.326l-110.818 14.582s-67.075 11.666-61.243 37.912c5.834 26.245 23.331 32.077 99.155 29.161zm1245.283-131.144c-16.744-.644-433.727 0-433.727 0s-58.643 2.793-55.852-22.341c2.793-25.133 75.4-27.925 75.4-27.925s-68.424-61.174 18.146-69.551c86.569-8.377 77.681 30.455 77.681 30.455s58.643-47.473 148.005-44.681 100.532 55.851 100.532 55.851l106.117 13.963s64.229 11.17 58.645 36.303c-5.586 25.133-22.341 30.719-94.947 27.926zm-375.311 353.249h279.255s36.304 2.793 36.304-13.962c0-16.756-61.436-25.133-61.436-25.133s-30.719-36.304-69.814-41.888c-39.096-5.585-58.645 39.095-58.645 39.095s-53.33-8.012-92.153-5.585c-44.682 2.792-103.325 47.473-33.511 47.473zM569.942 290.024s30.718-41.888 80.984-41.888 72.607 33.511 72.607 33.511l80.984 8.377s24.951.024 27.926 22.341c5.585 41.889-55.852 39.097-55.852 39.097H433.107s-36.304-11.17-36.304-30.719 41.889-25.133 53.059-25.133c11.171 0 120.08-5.586 120.08-5.586zm720.482 353.378s16.754-29.441 67.022-29.441c50.266 0 53.058 23.551 53.058 23.551l100.533 5.89s24.949.017 27.925 15.703c5.586 29.437-55.852 27.473-55.852 27.473h-301.597s-13.962-7.849-13.962-21.588 19.547-17.661 30.718-17.661 92.155-3.927 92.155-3.927z"/><path fill="#E3C950" d="M-24.874 1267.916L1124.15 943.483h-93.504l-1055.52 131.534z"/><path fill="#BC803B" d="M-24.874 948.746v84.841l943.887-87.312z"/><path fill="#E3C950" d="M1452.42 943.483l1038.534 657.159 51.82.56 340.993 3.289v-1.783L1480.679 943.483zm157.589 0l1273.758 288.655v-122.164L1668.319 943.483z"/><path fill="#BC803B" d="M1728.599 943.483l1155.168 106.647V948.697l-839.732-5.214zM-24.874 1521.691L1153.26 943.483h-43.497L-24.874 1252.36z"/><path fill="#3E210E" d="M673.857 831.601H694.1v117.756h-20.243z"/><path fill="#E3C950" d="M658.467 695.433s-35.804 34.531-33.347 56.606c2.451 22.073-11.705 61.096-11.705 61.096s-26.988 31.898-2.452 46.608c24.536 14.729 134.929 7.366 134.929 7.366s37.893-5.918 4.907-61.322c-7.317-12.305-7.359-26.996-2.452-41.705 4.904-14.729-21.191-83.359-89.88-68.649z"/><path fill="#CCA846" d="M679.691 693.48c-6.575-.226-13.625.338-21.224 1.953 0 0-35.804 34.531-33.347 56.606 2.451 22.073-11.705 61.096-11.705 61.096s-26.988 31.898-2.452 46.608c11.217 6.725 40.374 8.85 68.728 9.149V693.48z"/><path fill="#3E210E" d="M471.862 831.601h20.241v117.756h-20.241z"/><path fill="#E3C950" d="M456.47 695.433s-35.803 34.531-33.347 56.606c2.452 22.073-11.704 61.096-11.704 61.096s-26.987 31.898-2.452 46.608c24.536 14.729 134.927 7.366 134.927 7.366s37.894-5.918 4.909-61.322c-7.319-12.305-7.361-26.996-2.452-41.705 4.904-14.729-21.192-83.359-89.881-68.649z"/><path fill="#CCA846" d="M477.695 693.48c-6.577-.226-13.626.338-21.225 1.953 0 0-35.803 34.531-33.347 56.606 2.452 22.073-11.704 61.096-11.704 61.096s-26.987 31.898-2.452 46.608c11.215 6.725 40.372 8.85 68.728 9.149V693.48z"/><path fill="#3E210E" d="M270.545 853.733h16.439v95.623h-16.439z"/><path fill="#E3C950" d="M316.986 878.175c2.771-1.561 5.515-3.155 8.08-4.958.009-.02.017-.038.037-.038 3.767-6.914 6.697-14.487 8.285-22.112.029-11.143-2.742-22.133-5.636-32.916-.676-2.536-.244-4.657.657-6.482.301-4.188 1.193-8.49 2.63-12.774 2.744-8.246-6.603-37.14-30.848-50.481-.676-.149-1.333-.374-2-.542-7.374.488-13.246 3.812-20.224 5.411-4.491 1.05-9.3 1.802-13.828.073-.526-.188-1.278-.562-1.897-.826h-5.589c-.283 0-.48-.131-.751-.15-3.213 1.053-6.379 2.198-9.46 3.608-7.843 9.692-16.597 23.014-15.48 33.14 1.992 17.922-9.505 49.614-9.505 49.614s-.113.152-.14.169c-.179 4.361-.546 8.776-.321 13.038.263 1.072.461 2.163.799 3.213 4.687 14.56 13.452 20.178 27.561 24.874 3.268 1.11 6.171 2.124 8.896 3.458 16.128.808 33.722.562 47.408.131 3.643-1.9 7.569-3.591 11.326-5.45z"/><path fill="#CCA846" d="M264.139 753.354c-.526-.188-1.278-.562-1.897-.826h-5.589c-.283 0-.48-.131-.751-.15-3.213 1.053-6.379 2.198-9.46 3.608-7.843 9.692-16.597 23.014-15.48 33.14 1.992 17.922-9.505 49.614-9.505 49.614s-.113.152-.14.169c-.179 4.361-.546 8.776-.321 13.038.263 1.072.461 2.163.799 3.213 4.687 14.56 13.452 20.178 27.561 24.874 3.297 1.11 6.2 2.144 8.942 3.496 5.553.262 11.282.431 16.983.488V753.823c-3.693.677-7.507.922-11.142-.469z"/><path fill="#3E210E" d="M106.423 949.356v-90.12s44.263-23.69 41.102-25.285c-3.162-1.579-26.876 12.644-26.876 12.644l22.132-63.237-37.941 61.658-4.744-45.841-28.452-37.95 17.387 34.795 1.583 23.707-34.778-3.174v-22.131l-7.905 22.131 34.779 11.085-3.161 25.286s-37.945-7.908-49.011-12.643c-11.065-4.754 56.915 28.443 56.915 28.443v79.056l18.97 1.576zm2451.355-68.967h12.469v72.552h-12.469z"/><path fill="#E3C950" d="M2593.019 898.931c2.105-1.182 4.189-2.393 6.125-3.764.018-.012.018-.027.027-.027 2.863-5.242 5.094-10.99 6.289-16.771.027-8.46-2.084-16.794-4.275-24.978-.514-1.923-.186-3.535.5-4.92.225-3.18.912-6.441 1.992-9.689 2.078-6.259-5.002-28.183-23.405-38.303-.513-.114-1.014-.286-1.511-.414-5.607.37-10.053 2.893-15.354 4.109-3.408.793-7.053 1.363-10.488.052-.398-.142-.965-.425-1.445-.627h-4.227c-.219 0-.371-.098-.572-.111-2.439.796-4.844 1.669-7.184 2.735-5.945 7.358-12.589 17.465-11.749 25.145 1.517 13.6-7.211 37.645-7.211 37.645s-.082.117-.098.131c-.143 3.306-.414 6.654-.24 9.892.197.815.338 1.64.596 2.44 3.566 11.045 10.204 15.308 20.911 18.872 2.48.84 4.689 1.609 6.758 2.621 12.227.616 25.585.425 35.959.101 2.771-1.442 5.749-2.724 8.602-4.139z"/><path fill="#CCA846" d="M2552.919 804.226c-.398-.142-.965-.425-1.445-.627h-4.227c-.219 0-.371-.098-.572-.111-2.439.796-4.844 1.669-7.184 2.735-5.945 7.358-12.589 17.465-11.749 25.145 1.517 13.6-7.211 37.645-7.211 37.645s-.082.117-.098.131c-.143 3.306-.414 6.654-.24 9.892.197.815.338 1.64.596 2.44 3.566 11.045 10.204 15.308 20.911 18.872 2.508.84 4.707 1.623 6.785 2.648 4.215.199 8.568.33 12.883.373v-98.784c-2.787.511-5.683.699-8.449-.359z"/><path fill="#3E210E" d="M2717.653 953.284l5.58-103.327s65.193-28.866 60.531-30.792c-4.648-1.938-39.572 15.396-39.572 15.396l-.453-93.051-22.846 91.14-6.971-55.834-20.203-66.523 3.894 62.688 2.324 28.864-34.497-22.847 8.693-49.975-19.57 56.203 33.729 26.243-4.646 30.804s-8.426-11.7-24.734-17.492c-16.292-5.771 36.379 36.736 36.379 36.736l6.687 89.828 15.675 1.939zm-415.869-105.533h8.318v48.392h-8.318z"/><path fill="#E3C950" d="M2325.286 860.12c1.396-.79 2.782-1.604 4.086-2.503 0 0 .006-.021.017-.021 1.897-3.488 3.387-7.32 4.188-11.194.017-5.627-1.386-11.19-2.847-16.65-.344-1.265-.126-2.334.332-3.274.153-2.119.601-4.281 1.331-6.466 1.392-4.173-3.338-18.769-15.609-25.534-.338-.087-.672-.191-1.01-.278-3.736.259-6.703 1.928-10.232 2.74-2.269.535-4.706.92-6.992.044a15.908 15.908 0 01-.96-.429h-2.83c-.148 0-.24-.062-.383-.062a43.73 43.73 0 00-4.789 1.818c-3.959 4.901-8.387 11.642-7.826 16.759 1.004 9.072-4.811 25.105-4.811 25.105s-.06.084-.07.084c-.094 2.207-.273 4.454-.158 6.592.131.557.229 1.091.398 1.631 2.377 7.357 6.807 10.207 13.945 12.58 1.658.559 3.125 1.074 4.5 1.756 8.16.409 17.056.278 23.981.065 1.85-.963 3.831-1.821 5.739-2.763z"/><path fill="#CCA846" d="M2298.55 796.982a15.908 15.908 0 01-.96-.429h-2.83c-.148 0-.24-.062-.383-.062a43.73 43.73 0 00-4.789 1.818c-3.959 4.901-8.387 11.642-7.826 16.759 1.004 9.072-4.811 25.105-4.811 25.105s-.06.084-.07.084c-.094 2.207-.273 4.454-.158 6.592.131.557.229 1.091.398 1.631 2.377 7.357 6.807 10.207 13.945 12.58 1.664.559 3.137 1.096 4.521 1.777 2.81.129 5.711.216 8.591.237V797.22c-1.865.341-3.789.468-5.628-.238z"/><path fill="#3E210E" d="M2413.967 892.826v-50.188s28.536-13.187 26.491-14.086c-2.035-.876-17.322 7.044-17.322 7.044l14.273-35.213-24.462 34.332-3.061-25.534-18.348-21.124 11.219 19.37 1.016 13.205-22.423-1.753v-12.33l-5.1 12.33 22.423 6.163-2.035 14.082s-24.468-4.409-31.602-7.038c-7.135-2.653 36.701 15.837 36.701 15.837v44.004l12.23.899z"/><path fill="#635242" d="M1463.65 769.417l24.058-8.553s7.734 5.804 11.604 5.804-28.048 7.734-28.048 7.734l-15.474 6.774-3.672 6.687-.768-7.685 7.687-5.765-26.136-7.686 12.645-3.104c.001.001 16.097 5.548 18.104 5.794zm-68.728 14.344l-16.358-5.819s-5.264 3.948-7.893 3.948c-2.63 0 19.072 5.264 19.072 5.264l10.522 4.604 2.498 4.549.521-5.23-5.228-3.917 17.776-5.23-8.104-4.702c.001-.001-11.443 6.364-12.806 6.533z"/><path fill="none" d="M-7.413 0h2871.604v1596.37H-7.413z"/><path fill="#293F4C" d="M-17.32 943.374h2881.51v686.063H-17.32z"/><path d="M-.419 1432.153h289.66v24.479H-.419zm425.04 0h289.626v24.479H424.621zm425.005 0h289.624v24.479H849.626zm425.04 0h289.626v24.479h-289.626zm424.956 0h289.734v24.479h-289.734zm425.043 0h289.674v24.479h-289.674zm425.053 0h289.625v24.479h-289.625z" fill="#FFF"/><path opacity=".2" fill="#211915" d="M515.433 1325.601l-130.097 120.168h1936.249l104.662-158.155z"/><path fill="#8BBDB7" d="M1978.167 416.996c6.797-1.263 13.195-3.939 19.909-5.531 2.081-.495 1.199-3.695-.883-3.203-6.713 1.593-13.115 4.269-19.912 5.531-2.101.392-1.206 3.59.886 3.203zm-.07 28.075c6.821.697 13.625 1.201 20.202 3.259 2.05.642 2.921-2.564.881-3.201-6.855-2.146-13.972-2.651-21.083-3.377-2.13-.217-2.11 3.104 0 3.319zm-3.322 33.18c8.539.454 15.363 8.02 22.757 11.57 1.92.922 3.607-1.941 1.677-2.867-8.093-3.885-15.04-11.525-24.434-12.023-2.141-.113-2.129 3.209 0 3.32z"/><path fill="#902B2C" d="M1863.124 523.905s3.568 3.247 9.174 3.243c6.961-.004 8.462-3.243 8.462-3.243v-53.513h-17.636v53.513zm-26.006-77.428c.868 4.089 6.235 7.311 10.461 5.781v-16.306c-5.383-1.312-11.635 5.241-10.461 10.525z"/><path fill="#CB6963" d="M1950.655 499.272c-.346-.396-.927-1.062-1.68-1.906.541.892 1.105 1.525 1.68 1.906z"/><path fill="#902B2C" d="M1951.876 397.151c-.29 0-.579.079-.862.21-4.514 2.091-8.135 20.458-8.756 43.916 2.643.083 4.772 4.052 4.772 8.942 0 4.816-2.067 8.733-4.653 8.931.731 18.151 3.283 32.749 6.599 38.215.753.844 1.334 1.51 1.68 1.906.118.08.24.15.358.206.283.131.572.21.862.21 5.363 0 9.713-22.954 9.713-51.269s-4.35-51.267-9.713-51.267z"/><path fill="#DB9836" d="M1951.014 499.689v-.21a2.736 2.736 0 01-.358-.206c.23.265.358.416.358.416z"/><path fill="#26572D" d="M1903.894 419.86c-19.784 1.485-56.314.607-56.314.607v49.923h56.8s18.835 2.393 33.182 15.248c4.126 3.698 8.808 8.797 11.415 11.727-3.315-5.466-5.867-20.064-6.599-38.215a265.898 265.898 0 01-.119-17.874c.621-23.458 4.242-41.825 8.756-43.916v-.21c-.001.001-23.203 20.915-47.121 22.71z"/><path fill="#3B2B16" d="M1942.545 466.139c4.611-.353 8.289-7.332 8.289-15.916 0-8.715-3.794-15.786-8.502-15.935a490.437 490.437 0 00-.171 12.729c0 6.56.132 12.954.384 19.122z"/><path fill="#2A4A27" d="M1444.839 520.169l46.641-74.859h12.581l-46.392 74.859zm154.225-77.316l46.636 74.859h12.586l-46.391-74.859z"/><path fill="#44753E" d="M1640.539 445.31l46.636 74.859h12.583l-46.393-74.859z"/><path fill="#9F572A" d="M1540.421 220.494l1.652 1.709s6.755-5.583 4.378-17.081c-2.378-11.497-36.078-12.687-55.9 0-19.825 12.687-73.36 60.273-85.253 117.766-11.896 57.49-2.376 119.098-2.376 119.098h35.688l101.811-221.492z"/><path fill="#BB9D54" d="M1754.648 441.987l-11.719 11.718-304.32-11.718s-9.864-97.269 24.604-152.251c28.441-45.367 52.111-57.713 77.207-69.242l214.228 221.493z"/><path fill="#44753E" d="M1420.129 527.279l46.64-74.859h12.58l-46.39 74.859z"/><path fill="#44753E" d="M1479.349 452.42l-46.39 74.859h-12.83"/><path fill="#CE6F33" d="M1524.544 227.916l5.811 6.006s6.756-5.583 4.378-17.08c-2.377-11.498-36.078-12.687-55.9 0-19.825 12.686-73.359 60.273-85.252 117.766-11.896 57.49-2.377 119.098-2.377 119.098h35.688l97.652-225.79z"/><path fill="#EBC467" d="M1742.93 453.705h-316.039s-9.863-97.27 24.604-152.251c28.441-45.367 47.954-62.01 73.049-73.539l218.386 225.79z"/><path fill="#C64F34" d="M1636.729 454.005c-2.325-16.713-3.482-33.003-22.811-38.429-22.516-6.435-36.3 8.34-40.978 29.252-.802 2.595-2.009 6.371-1.426 8.807.002 0 64.901.127 65.215.37zm-44.13-125.582c6.193-.59 11.791 5.306 14.148 10.614 4.719 10.612 1.771 24.47-3.534 34.197-14.444 26.531-60.729 22.992-65.443-8.256-2.357-13.856 2.944-28.299 14.739-35.965 10.605-7.076 20.634-6.19 32.425-4.421l7.665 3.831zm-98.717 49.092c6.191-.591 11.792 5.306 14.148 10.613 4.72 10.613 1.771 24.467-3.534 34.197-14.444 26.529-60.729 22.995-65.443-8.257-2.36-13.853 2.944-28.3 14.735-35.964 10.61-7.074 20.638-6.19 32.43-4.423l7.664 3.834zm19.492-103.315c6.193-.59 11.798 5.306 14.15 10.611 4.717 10.613 1.771 24.469-3.534 34.197-14.444 26.532-60.729 22.994-65.444-8.255-2.359-13.854 2.945-28.302 14.737-35.964 10.616-7.075 20.638-6.191 32.43-4.422l7.661 3.833zm132.424 97.841c3.766-2.509 8.77-5.025 12.488-5.849 1.591 1.422 3.17 3.496 4.756 4.915 5.109 4.565 9 9.431 14.053 14.063 5.33 4.881 10.558 9.888 15.431 15.226 2.419 2.66 4.632 5.478 7.002 8.168.077.088.161.171.23.253-.913 2.641-2.011 5.164-3.252 7.445-14.45 26.53-60.728 22.996-65.444-8.254-2.36-13.856 2.945-28.301 14.736-35.967z"/><path fill="#3C873A" d="M1514.43 333.34c2.356-.221 4.485 2.022 5.389 4.042 1.796 4.041.67 9.318-1.349 13.023-5.504 10.106-23.131 8.757-24.925-3.141-.896-5.279 1.122-10.78 5.614-13.701 4.04-2.694 7.857-2.357 12.35-1.685l2.921 1.462zm36.549 63.971c2.359-.221 4.485 2.023 5.396 4.044 1.794 4.042.668 9.319-1.356 13.019-5.496 10.111-23.123 8.762-24.918-3.138-.896-5.28 1.125-10.778 5.611-13.698 4.04-2.697 7.859-2.358 12.346-1.689l2.921 1.462zm82.248-29.774c2.366-.221 4.485 2.021 5.395 4.044 1.796 4.037.67 9.319-1.348 13.022-5.504 10.106-23.131 8.755-24.926-3.143-.895-5.277 1.123-10.777 5.612-13.697 4.043-2.694 7.859-2.361 12.353-1.686l2.914 1.46zm62.504 55.542c2.36-.223 4.486 2.027 5.389 4.046 1.795 4.04.67 9.318-1.348 13.02-5.504 10.104-23.131 8.762-24.926-3.139-.896-5.278 1.118-10.781 5.612-13.702 4.036-2.693 7.859-2.355 12.353-1.688l2.92 1.463zm-149.468-156.246c2.36-.22 4.485 2.023 5.396 4.044 1.794 4.039.668 9.32-1.357 13.022-5.496 10.106-23.123 8.758-24.924-3.142-.889-5.279 1.126-10.778 5.618-13.697 4.036-2.697 7.859-2.36 12.346-1.688l2.921 1.461z"/><path fill="#9E422C" d="M1658.286 366.191s15.717.167 25.243 7.485c6.569 5.049 13.666 20.57 14.632 24.575.966 4.003 1.597 10.565 1.597 10.565"/><path fill="#26572D" d="M988.599 517.438c0 17.367-14.082 31.447-31.45 31.447H768.45c-17.372 0-31.449-14.08-31.449-31.447 0-17.371 14.078-31.451 31.449-31.451h188.699c17.368 0 31.45 14.079 31.45 31.451zm431.683 0c0 17.367-14.081 31.447-31.445 31.447h-188.7c-17.372 0-31.449-14.08-31.449-31.447 0-17.371 14.078-31.451 31.449-31.451h188.7c17.364 0 31.445 14.079 31.445 31.451z"/><path fill="#396635" d="M917.215 517.438c0 17.367-14.082 31.447-31.45 31.447H697.067c-17.372 0-31.45-14.08-31.45-31.447 0-17.371 14.078-31.451 31.45-31.451h188.699c17.367 0 31.449 14.079 31.449 31.451zm431.684 0c0 17.367-14.081 31.447-31.446 31.447h-188.699c-17.372 0-31.45-14.08-31.45-31.447 0-17.371 14.078-31.451 31.45-31.451h188.699c17.365 0 31.446 14.079 31.446 31.451z"/><circle fill="#211915" cx="1236.408" cy="1300.423" r="106.277"/><path fill="#211915" d="M2267.412 1300.423c0 58.692-47.585 106.273-106.281 106.273-58.692 0-106.272-47.581-106.272-106.273 0-58.695 47.58-106.273 106.272-106.273 58.696-.001 106.281 47.578 106.281 106.273z"/><path fill="#393636" d="M425.667 1288.813l22.785 43.666s1951.973 3.27 1955.246 0c3.273-3.272 12.904-48.052 12.904-48.052l-445.863-99.691s-154.89-68.227-159.596-70.404c-4.709-2.182-1215.439 15.267-1215.439 15.267l-170.037 159.214z"/><path fill="#A7762C" d="M2379.998 1223.822h-.298c.154.965.298 0 .298 0z"/><path fill="#26572D" d="M2379.998 1126.97c1.571-88.176 19.135-179.014-23.465-221.124-26.888-26.582-127.699-18.221-127.699-18.221s-89.981-170.229-98.744-280.284c-6.519-81.896-53.538-91.329-53.538-91.329s-1143.646 1.573-1198.761 0c-55.11-1.572-50.387 50.388-50.387 50.388v617.255l48.814.095v103.83h230.804c5.73-66.288 61.32-118.323 129.107-118.323 67.776 0 123.373 52.035 129.106 118.323h951.775v-63.757h62.689c-.36-2.27-.81-34.986.299-96.853z"/><path fill="#E2E3E6" d="M2218.852 803.586H827.303V557.717h1291.316z"/><path fill="#712223" d="M2384.017 1068.877l-1556.714 1.296V803.586h1391.549l8.728 69.333s97.089 4.178 128.954 30.824c41.95 35.074 27.483 165.134 27.483 165.134z"/><path fill="#DB9836" d="M1980.585 1223.822h-.292c.153.965.292 0 .292 0z"/><path fill="#3C873A" d="M1980.585 1126.97c1.572-88.176 19.137-179.014-23.461-221.124-26.887-26.582-127.701-18.221-127.701-18.221s-89.979-170.229-98.742-280.284c-6.518-81.896-53.537-91.329-53.537-91.329s-1143.645 1.573-1198.761 0c-55.109-1.572-50.387 50.388-50.387 50.388v617.255l48.815.095v103.83h230.8c5.734-66.288 61.324-118.323 129.107-118.323 67.779 0 123.376 52.035 129.106 118.323h951.778v-63.757h62.691c-.366-2.27-.813-34.986.292-96.853z"/><path fill="#FFF" d="M1819.439 803.586H427.891V557.717H1719.21z"/><path fill="#C13238" d="M1984.607 1068.877l-1556.716 1.296V803.586h1391.548l8.731 69.333s97.089 4.178 128.953 30.824c41.953 35.074 27.484 165.134 27.484 165.134z"/><path fill="#211915" d="M938.292 1300.427c0 58.688-47.581 106.27-106.27 106.27-58.696 0-106.28-47.581-106.28-106.27 0-58.696 47.584-106.277 106.28-106.277 58.689-.001 106.27 47.58 106.27 106.277z"/><path fill="#717175" d="M913.151 1300.427c0 44.806-36.322 81.128-81.129 81.128-44.81 0-81.128-36.322-81.128-81.128 0-44.811 36.319-81.129 81.128-81.129 44.807 0 81.129 36.318 81.129 81.129z"/><path fill="#C2C3C8" d="M887.278 1300.427c0 30.519-24.74 55.256-55.256 55.256-30.519 0-55.259-24.737-55.259-55.256 0-30.521 24.74-55.26 55.259-55.26 30.516 0 55.256 24.739 55.256 55.26z"/><path fill="#211915" d="M1862.157 1300.427c0 58.688-47.579 106.27-106.275 106.27-58.689 0-106.271-47.581-106.271-106.27 0-58.696 47.581-106.277 106.271-106.277 58.696-.001 106.275 47.58 106.275 106.277z"/><path fill="#717175" d="M1837.017 1300.427c0 44.806-36.325 81.128-81.135 81.128-44.803 0-81.13-36.322-81.13-81.128 0-44.811 36.327-81.129 81.13-81.129 44.809 0 81.135 36.318 81.135 81.129z"/><path fill="#C2C3C8" d="M1811.144 1300.427c0 30.519-24.739 55.256-55.262 55.256-30.52 0-55.252-24.737-55.252-55.256 0-30.521 24.732-55.26 55.252-55.26 30.522 0 55.262 24.739 55.262 55.26z"/><path fill="#BFC0C6" d="M429.436 1183.686h-19.958s-11.474 0-11.705 11.517v81.436c1.147 10.977 8.969 10.977 11.475 10.977h69.003v-103.83l-48.815-.1z"/><path fill="#3C873A" d="M783.703 657.172h7.713v266.095h-7.713z"/><path fill="#3C873A" d="M616.788 678.199h375.731v348.912H616.788z"/><path fill="#2B0B0D" d="M626.963 690.95h355.386v323.409H626.963z"/><path fill="#B0D2D6" d="M626.963 690.95h156.74v323.409h-156.74z"/><path fill="#FFF" d="M627.583 936.881h355.386v77.479H627.583z"/><path fill="#4FA5B1" d="M744.881 843.984c-6.309-14.555-17.762-26.354-27.912-38.351-11.254-13.305-23.029-26.177-34.415-39.372-5.142-5.959 3.496-14.68 8.674-8.679 12.646 14.654 25.64 28.997 38.139 43.773 9.606 11.359 20.139 22.652 26.109 36.436 3.113 7.182-7.455 13.438-10.595 6.193z"/><path fill="#3C873A" d="M626.963 923.268h356.006v18.138H626.963z"/><path opacity=".2" fill="#211915" d="M626.963 941.113h356.006v18.139H626.963z"/><path fill="#4FA5B1" d="M727.464 870.11c-20.979-31.691-49.094-57.344-73.938-85.851-5.179-5.937 3.461-14.655 8.672-8.679 25.552 29.315 54.287 55.75 75.862 88.337 4.381 6.623-6.249 12.758-10.596 6.193z"/><path opacity=".2" fill="#211915" d="M1564.921 903.743V569.585h95.158l95.666 234.014 9.613 100.144z"/><path fill="#B0D2D6" d="M1581.281 887.382V585.947h67.812l90.597 221.615 7.665 79.82z"/><path opacity=".2" fill="#211915" d="M1581.281 757.352V585.947h67.812l19.759 48.327z"/><path fill="#4FA5B1" d="M1683.188 769.368c-5.176-11.955-14.583-21.64-22.917-31.492-9.24-10.925-18.905-21.496-28.261-32.329-4.218-4.896 2.868-12.057 7.125-7.13 10.386 12.034 21.052 23.811 31.316 35.943 7.889 9.331 16.539 18.602 21.443 29.921 2.555 5.896-6.123 11.034-8.706 5.087zm-14.301 21.452c-17.226-26.025-40.31-47.087-60.711-70.498-4.256-4.872 2.845-12.03 7.121-7.125 20.983 24.072 44.576 45.779 62.293 72.539 3.597 5.435-5.13 10.475-8.703 5.084z"/><path opacity=".2" fill="#211915" d="M1296.564 569.585h227.207v717.994h-227.207z"/><path fill="#FFF" d="M1312.925 585.947h194.481v685.271h-194.481z"/><path fill="#396635" d="M1312.925 863.954h194.481v407.264h-194.481z"/><path fill="#B0D2D6" d="M1312.925 585.947h194.481v265.356h-194.481z"/><path opacity=".2" fill="#211915" d="M1507.406 649.818v-63.871h-194.481v239.495z"/><path fill="#3C873A" d="M1312.925 851.303h194.481v17.223h-194.481z"/><path fill="#4FA5B1" d="M1451.39 743.05c-5.175-11.956-14.587-21.64-22.92-31.493-9.239-10.926-18.901-21.496-28.26-32.33-4.219-4.895 2.868-12.057 7.128-7.129 10.383 12.034 21.052 23.809 31.313 35.944 7.887 9.331 16.542 18.602 21.442 29.92 2.559 5.896-6.119 11.035-8.703 5.088zm-14.303 21.452c-17.223-26.025-40.312-47.087-60.708-70.498-4.26-4.874 2.845-12.031 7.117-7.126 20.982 24.072 44.581 45.78 62.296 72.539 3.598 5.436-5.134 10.475-8.705 5.085z"/><path fill="#3C873A" d="M1402.234 580.642h14.995v270.661h-14.995z"/><path fill="#FFF" d="M1256.467 894.648l-65.873-63.826c-9.394-9.102-21.889-14.121-35.182-14.121-13.295 0-25.791 5.02-35.19 14.121l-65.863 63.826c-19.4 18.797-19.4 49.397 0 68.199l65.87 63.822c9.393 9.102 21.889 14.117 35.184 14.117 13.293 0 25.788-5.016 35.182-14.117l65.873-63.822c19.396-18.801 19.396-49.402-.001-68.199z"/><path fill="#BE0411" d="M1184.543 1022.349c-16.089 15.587-42.175 15.587-58.264 0l-67.462-65.374c-16.092-15.588-16.092-40.871 0-56.46l67.462-65.365c16.089-15.592 42.175-15.592 58.264 0l67.466 65.365c16.078 15.589 16.078 40.872 0 56.46l-67.466 65.374z"/><path fill="#FFF" d="M1260.346 881.996l-2.188-9.684c-.45-1.99-2.042-3.575-4.047-4.029-2.001-.443-4.041.336-5.166 1.972a73.833 73.833 0 01-4.21 5.627c-.258.298-.527.607-.795.902.278-1.701.589-3.438.917-5.151.373-1.925.711-3.784 1.027-5.603.346-2.045.516-3.942.516-5.656 0-1.453-.163-2.674-.498-3.723-.46-1.456-1.245-2.652-2.294-3.569-1.129-.975-2.485-1.582-3.949-1.732a10.072 10.072 0 00-2.409.016c-.4.036-.815.097-1.233.171-.137.016-.251.029-.366.05a8.615 8.615 0 00-2.186-1.711c-1.362-.784-2.974-1.085-4.8-.87-2.722.33-5.396 1.205-7.964 2.623-2.346 1.301-4.594 2.953-6.692 4.928a36.546 36.546 0 00-2.544 2.621 8.908 8.908 0 00-1.185-2.467c-1.326-1.908-3.455-3.059-5.836-3.155-.459-.016-.927.003-1.366.046-.53.063-1.056.2-1.632.432-.077.021-.177.047-.303.086-.107.024-.425.111-1.22.249-.617.105-1.488.227-2.585.36l-1.388.157a23.97 23.97 0 01-1.408.134l-.143.004-.119-.026a17.87 17.87 0 01-1.642-.667 30.757 30.757 0 00-2.628-1.091 10.064 10.064 0 00-4.523-.53c-1.388.16-2.862.557-4.392 1.144-1.718.685-3.346 1.752-4.838 3.185-.133.133-.272.265-.412.408-1.031-.313-2.182-.403-3.293-.275a6.417 6.417 0 00-1.622.422c-.08.029-.181.055-.313.093-.097.028-.418.099-1.209.247-.624.11-1.502.231-2.604.358l-1.387.165a40.03 40.03 0 01-1.398.124c-.025 0-.115 0-.146.01-.038-.01-.073-.01-.112-.025a16.184 16.184 0 01-1.648-.675 28.72 28.72 0 00-2.639-1.089 10.058 10.058 0 00-4.507-.521c-1.391.162-2.873.549-4.389 1.144a12.03 12.03 0 00-1.738.851 12.957 12.957 0 001.92-3.603c.502-1.501.749-3.035.749-4.582 0-1.951-.412-3.726-1.237-5.243-.875-1.63-2.104-2.925-3.663-3.838-1.304-.773-2.795-1.275-4.416-1.502a16.94 16.94 0 00-4.285-.022c-2.363.277-4.419.913-6.134 1.904a15.26 15.26 0 00-2.746 2.013 27.34 27.34 0 00-.976-2.428c-1.649-3.547-4.113-6.594-7.334-9.075-3.137-2.407-7.031-4.181-11.575-5.271-4.403-1.04-9.485-1.236-15.146-.574-4.391.515-8.608 1.717-12.509 3.576a45.767 45.767 0 00-10.651 7.13c-3.197 2.847-6.101 6.192-8.641 9.934-2.5 3.692-4.66 7.75-6.417 12.074-1.736 4.297-3.088 8.889-4.026 13.653-.935 4.778-1.401 9.733-1.401 14.753 0 2.883.153 5.977.456 9.178.303 3.26.802 6.512 1.475 9.67.69 3.227 1.596 6.353 2.698 9.26 1.178 3.126 2.669 5.912 4.419 8.277 1.945 2.614 4.27 4.646 6.929 6.072a15.857 15.857 0 006.814 1.82c.941.032 1.91 0 2.883-.122 2.959-.338 5.726-1.214 8.242-2.595a27.362 27.362 0 006.463-4.927 33.411 33.411 0 004.873-6.475 46.281 46.281 0 003.391-7.196 46.518 46.518 0 002.116-7.604c.491-2.538.767-5.024.836-7.376.004-.051.004-.103.004-.147 0-.152.003-.435.015-.837.021-.485.037-1.048.052-1.726.007-.613.031-1.298.059-2.045l.094-2.358c.024-.812.053-1.662.087-2.531 3.799-1.259 7.243-2.831 10.258-4.686 3.266-2.017 6.1-4.272 8.477-6.721-.186.723-.37 1.461-.576 2.228a335.877 335.877 0 00-2.042 8.342 152.995 152.995 0 00-1.666 8.2c-.484 2.844-.729 5.291-.729 7.478 0 1.776.206 3.438.609 4.953.517 1.942 1.437 3.617 2.724 4.973 1.334 1.398 3.028 2.402 5.008 2.959a12.54 12.54 0 003.085.479c.902.032 1.889 0 2.91-.121 2.228-.263 4.57-.921 6.964-1.969a51.762 51.762 0 006.239-3.272c.066.025.129.046.199.07 1.411.505 2.987.665 4.698.467.75-.089 1.534-.262 2.363-.512.795.275 1.569.525 2.297.729 1.243.358 2.317.626 3.262.83 1.018.219 1.854.371 2.551.454.512.051.892.09 1.144.103.366.007.683 0 .986-.046 1.82-.21 3.744-.646 5.723-1.303a43.214 43.214 0 005.57-2.288 47.471 47.471 0 003.095-1.668c1.098.236 2.287.274 3.521.135.752-.09 1.544-.257 2.37-.513.799.281 1.573.523 2.301.735 1.208.339 2.313.62 3.25.831.987.218 1.841.364 2.552.441.52.07.9.095 1.158.103.359.02.676.006.976-.026 1.805-.211 3.733-.658 5.727-1.31a45.375 45.375 0 005.587-2.288 50.732 50.732 0 004.019-2.244 14.685 14.685 0 003.995 1.918 15.68 15.68 0 006.342.569 18.848 18.848 0 005.525-1.547 29.767 29.767 0 004.66-2.589 33.257 33.257 0 002.453-1.81c.313.32.645.627.986.915 2.44 2.025 5.563 2.921 8.979 2.519 2.353-.27 4.685-1.093 6.94-2.442a34.188 34.188 0 005.44-4.083 47.384 47.384 0 004.395-4.609c1.258-1.553 2.269-2.875 3.05-4.052.762-1.116 1.013-2.509.713-3.849zm-182.177 25.166c-.509 1.234-1.125 2.244-1.819 3.003a1.621 1.621 0 01-.429.358c-.313-.46-.673-1.169-1.032-2.204-.537-1.553-.958-3.369-1.241-5.407a89.342 89.342 0 01-.69-6.685 105.142 105.142 0 01-.234-6.321 486.672 486.672 0 01-.028-4.901c0-.755.014-1.521.042-2.282.306.326.641.639.993.934 1.167.971 2.697 1.828 4.667 2.614.746.307 1.593.606 2.548.926-.003.914-.032 1.924-.066 3.029a84.744 84.744 0 01-.387 5.867 67.905 67.905 0 01-.882 6.065c-.362 1.861-.849 3.54-1.442 5.004zm28.606-46.749a16.655 16.655 0 01-2.325 2.017l1.266-5.389c.063-.28.1-.574.118-.865a7.42 7.42 0 00.056-.988c-.01-1.846-.502-3.479-1.478-4.827a8.472 8.472 0 00-3.19-2.688 9.49 9.49 0 00-3.526-.927l-.366-.017a12.822 12.822 0 00-2.225.08c-2.76.32-5.144 1.316-7.089 2.952a17.394 17.394 0 00-4.091 5.1 24.602 24.602 0 00-2.144 5.775 43.343 43.343 0 00-.945 5.324c-.014.156-.035.306-.053.456-.006 0-.006-.003-.021-.006a20.15 20.15 0 00-1.264-.488 6.676 6.676 0 00-1.998-.374 7.419 7.419 0 00-1.139.031 4.89 4.89 0 00-.499.09 46.9 46.9 0 012.51-5.899c1.233-2.429 2.697-4.607 4.356-6.486a21.764 21.764 0 015.431-4.471c1.906-1.106 4.004-1.777 6.403-2.064 3.451-.399 6.347-.364 8.417.105 1.894.432 3.396 1.048 4.357 1.793.82.642 1.37 1.322 1.663 2.089.422 1.064.627 2.094.627 3.129 0 1.073-.215 2.125-.668 3.241-.451 1.131-1.19 2.247-2.183 3.307z"/><path d="M1125.353 851.37c0-3.129-.642-6.084-1.928-8.852-1.296-2.764-3.21-5.129-5.755-7.092-2.544-1.949-5.737-3.373-9.578-4.285-3.833-.917-8.295-1.066-13.391-.476a34.657 34.657 0 00-10.983 3.132c-3.44 1.646-6.619 3.771-9.543 6.375-2.928 2.61-5.561 5.63-7.881 9.063-2.339 3.432-4.329 7.16-5.964 11.178-1.635 4.029-2.89 8.273-3.767 12.756a71.889 71.889 0 00-1.314 13.797c0 2.743.149 5.65.438 8.718a77.725 77.725 0 001.383 9.075 58.433 58.433 0 002.475 8.488c1.021 2.689 2.263 5.017 3.736 6.991 1.471 1.981 3.19 3.483 5.141 4.524 1.956 1.037 4.179 1.42 6.657 1.126 2.342-.275 4.494-.96 6.462-2.032a22.836 22.836 0 005.336-4.065 28.1 28.1 0 004.187-5.553 42.178 42.178 0 003.05-6.449 42.992 42.992 0 001.903-6.82c.439-2.307.697-4.498.742-6.602 0-.173.011-.505.032-.979.014-.479.028-1.034.039-1.674.021-.651.045-1.361.073-2.147.028-.773.059-1.547.087-2.326a868 868 0 01.223-6.022c4.762-1.269 8.902-2.994 12.444-5.164 3.527-2.173 6.451-4.599 8.769-7.286 2.318-2.687 4.058-5.521 5.208-8.521 1.15-2.996 1.719-5.957 1.719-8.878zm-11.705 7.365c-.68 1.685-1.729 3.281-3.133 4.787-1.412 1.508-3.197 2.879-5.344 4.112-2.157 1.237-4.715 2.249-7.681 3.043l.408-3.583 2.774-11.813c0-.118 0-.221.014-.298.017-.076.024-.217.024-.419 0-.754-.153-1.338-.477-1.782a3.096 3.096 0 00-1.182-1.001c-.474-.229-1-.36-1.568-.402a10.39 10.39 0 00-1.68.042c-1.791.207-3.293.824-4.507 1.847-1.212 1.019-2.191 2.253-2.955 3.675a19.788 19.788 0 00-1.722 4.627 37.8 37.8 0 00-.84 4.727c-.164 1.499-.262 2.818-.265 3.966a175.42 175.42 0 00-.035 2.31c-.543-.05-1.15-.166-1.813-.325a35.603 35.603 0 01-2.091-.585c-.818-.242-1.732-.581-2.736-.997-.39-.16-.718-.29-.969-.384a1.924 1.924 0 00-.843-.07c-.457.045-.813.215-1.063.502-.262.28-.46.633-.6 1.052-.136.415-.22.892-.25 1.41a26.488 26.488 0 00-.042 1.591c0 1.021.094 1.892.293 2.633.198.74.666 1.406 1.391 2.007.728.597 1.81 1.195 3.256 1.765 1.435.578 3.416 1.21 5.929 1.904v2.098c0 1.374-.028 3.042-.084 4.991a94.963 94.963 0 01-.415 6.199 69.727 69.727 0 01-.951 6.538c-.422 2.18-1.004 4.154-1.726 5.924-.729 1.766-1.627 3.253-2.729 4.424-1.084 1.194-2.409 1.879-3.953 2.058-1.485.172-2.719-.3-3.705-1.425-.99-1.126-1.806-2.621-2.458-4.5-.652-1.873-1.146-4.001-1.478-6.371a93.894 93.894 0 01-.729-7.075 106.49 106.49 0 01-.254-6.608c-.018-2.078-.028-3.72-.028-4.947 0-2.974.224-6.06.659-9.263a61.174 61.174 0 012.045-9.4 52.446 52.446 0 013.521-8.808c1.422-2.783 3.105-5.272 5.043-7.468a26.569 26.569 0 016.637-5.449c2.488-1.437 5.263-2.335 8.323-2.69 4.092-.484 7.491-.414 10.188.191 2.697.607 4.852 1.538 6.458 2.78 1.607 1.253 2.737 2.701 3.384 4.372.656 1.661.98 3.334.983 5.005 0 1.696-.337 3.389-1.024 5.083zm18.076-1.418c1.272 1.076 3.242 1.469 5.914 1.163 1.548-.181 2.876-.566 3.981-1.152 1.101-.594 2.018-1.309 2.746-2.141a7.818 7.818 0 001.593-2.737 9.41 9.41 0 00.505-3.005c0-1.106-.213-2.035-.627-2.793a4.364 4.364 0 00-1.663-1.754c-.694-.412-1.513-.674-2.454-.809a12.193 12.193 0 00-2.99-.003c-1.701.198-3.12.623-4.256 1.277-1.136.65-2.046 1.403-2.729 2.244-.683.836-1.171 1.713-1.474 2.61-.311.898-.457 1.691-.457 2.372.001 2.061.638 3.635 1.911 4.728zm121.78 15.443a78.373 78.373 0 01-4.503 5.991 32.7 32.7 0 01-2.018 2.219 27.003 27.003 0 01-2.133 1.978 14.879 14.879 0 01-2.116 1.476c-.697.396-1.355.627-2 .703-.844.096-1.401-.23-1.655-.997-.265-.755-.384-1.833-.391-3.235 0-1.641.147-3.391.447-5.267.314-1.869.641-3.739.997-5.617.38-1.867.701-3.698 1.011-5.472.3-1.789.446-3.396.446-4.821 0-.931-.08-1.649-.248-2.164-.167-.517-.404-.904-.705-1.169a1.92 1.92 0 00-1.045-.464 5.47 5.47 0 00-1.266.022c-.338.031-.687.082-1.039.131-.346.064-.677.103-1.014.138a8.002 8.002 0 01-1.165.073c-.383 0-.745-.044-1.111-.16a1.732 1.732 0 01-.902-.602c-.249-.303-.509-.615-.764-.926a3.315 3.315 0 00-.973-.803c-.397-.22-.941-.29-1.632-.21-2.097.249-4.154.927-6.166 2.042-2.022 1.116-3.938 2.525-5.75 4.225a37.493 37.493 0 00-5.027 5.819 46.585 46.585 0 00-3.98 6.842 42.146 42.146 0 00-2.631 7.216 29.342 29.342 0 00-.878 5.123c-.153.135-.308.262-.46.396a169.17 169.17 0 00-2.224 2.071 28.609 28.609 0 01-2.506 2.103 17.105 17.105 0 01-2.907 1.744c-1.043.498-2.204.819-3.482.972-.575.07-1.248.032-2.022-.076a26.68 26.68 0 01-2.203-.435c-.696-.179-1.3-.332-1.822-.486-.509-.146-.784-.217-.824-.21l.231-.928c.278-.39.812-1.132 1.617-2.224.805-1.08 1.742-2.378 2.823-3.86 1.066-1.485 2.214-3.069 3.406-4.754a548.277 548.277 0 003.447-4.925 178.722 178.722 0 002.938-4.32c.851-1.29 1.45-2.284 1.82-2.987 1.275-.477 2.181-.939 2.726-1.367.55-.438.851-.774.909-1.023.181-.952.268-1.821.268-2.626 0-1.253-.229-2.222-.704-2.886-.468-.681-1.233-.962-2.29-.837a1.673 1.673 0 00-.37.111c-.153.062-.412.15-.794.256-.384.1-.931.208-1.652.342-.736.131-1.704.271-2.921.409-.422.051-.886.104-1.384.159-.501.062-1.052.109-1.656.156a5.834 5.834 0 01-2.3-.293 24.677 24.677 0 01-2.186-.885 23.035 23.035 0 00-2.157-.889c-.729-.259-1.457-.353-2.182-.259-.976.118-2.032.39-3.168.84-1.13.438-2.224 1.17-3.273 2.174-1.039.989-1.994 2.345-2.831 4.058-.286.569-.53 1.202-.774 1.873.015-.26.046-.521.046-.762 0-1.245-.24-2.208-.711-2.892-.467-.667-1.234-.945-2.3-.824-.088.01-.209.052-.363.105-.15.067-.415.154-.795.253-.384.104-.934.224-1.663.349a48.9 48.9 0 01-2.906.408c-.422.052-.889.105-1.388.17a56.32 56.32 0 01-1.66.144 5.655 5.655 0 01-2.29-.291 20.417 20.417 0 01-2.186-.889 24.568 24.568 0 00-2.161-.888 4.79 4.79 0 00-2.188-.256c-.965.104-2.019.387-3.161.837-1.133.441-2.228 1.16-3.266 2.17-1.046 1.004-1.994 2.352-2.84 4.065-.851 1.712-1.5 3.893-1.959 6.527-.063.372-.108.733-.133 1.074a11.01 11.01 0 00-.048.966c0 .715.101 1.274.297 1.693.199.405.543.575 1.024.521.522-.064 1.098-.463 1.732-1.201.635-.751 1.418-1.896 2.357-3.436.428-.703.811-1.254 1.164-1.648a3.75 3.75 0 011.182-.943c.436-.236.979-.399 1.613-.506a53.38 53.38 0 012.413-.328c.39-.038.755-.038 1.086.004.338.05.667.144.98.271.317.132.669.272 1.074.432.386.166.861.339 1.412.502l-10.596 15.248v-.007c-1.004.927-2.15 2.026-3.451 3.304a102.546 102.546 0 01-4.008 3.759 37.367 37.367 0 01-4.047 3.176c-1.324.901-2.547 1.419-3.628 1.547-.945.121-1.564-.211-1.872-.965-.303-.748-.456-1.797-.456-3.145 0-1.374.153-2.939.456-4.678a76.26 76.26 0 011.133-5.407 200.33 200.33 0 011.454-5.591c.52-1.863 1-3.602 1.45-5.225.46-1.617.84-3.062 1.14-4.337.311-1.269.453-2.23.453-2.889 0-.779-.231-1.367-.684-1.779-.453-.41-1.314-.544-2.593-.383-.693.078-1.478.248-2.342.518-.861.258-1.694.613-2.499 1.048a9.95 9.95 0 00-2.157 1.587c-.634.63-1.063 1.35-1.269 2.146-.555 2.3-1.182 4.818-1.896 7.551a375.702 375.702 0 00-2.018 8.224 146.417 146.417 0 00-1.607 7.925c-.443 2.544-.662 4.749-.662 6.628 0 1.336.146 2.557.436 3.63.292 1.094.77 1.981 1.435 2.678.667.703 1.534 1.202 2.618 1.508 1.074.302 2.396.371 3.978.18 1.757-.198 3.618-.729 5.566-1.585a45.674 45.674 0 005.75-3.017 49.162 49.162 0 002.569-1.693c.08.108.136.211.227.313.443.486.993.851 1.66 1.081.672.235 1.46.306 2.366.197.854-.096 1.857-.402 2.998-.888 1.342.53 2.569.952 3.688 1.265 1.126.326 2.109.563 2.952.754.857.186 1.534.307 2.054.364.511.064.832.084.958.07 1.482-.179 3.067-.543 4.75-1.093a37.794 37.794 0 004.95-2.039 44.701 44.701 0 004.66-2.658c.059-.044.115-.076.164-.114.324.223.666.428 1.07.568.659.243 1.458.301 2.36.198.846-.103 1.851-.396 3-.896a34.85 34.85 0 003.688 1.278c1.123.319 2.103.563 2.953.748.847.18 1.534.306 2.046.357.52.07.837.09.952.07 1.488-.172 3.074-.535 4.761-1.08a41.122 41.122 0 009.606-4.703 32.142 32.142 0 002.148-1.527c.39.556.826 1.061 1.314 1.502a9.718 9.718 0 003.667 2.083c1.38.415 2.788.537 4.244.364 1.37-.153 2.734-.537 4.097-1.144a25.853 25.853 0 003.932-2.18 28.424 28.424 0 003.481-2.761 26.69 26.69 0 002.684-2.856c.965 2.308 2.119 4.007 3.458 5.112 1.334 1.118 2.99 1.553 4.987 1.316 1.673-.191 3.346-.792 5.02-1.789a29.421 29.421 0 004.67-3.495 41.11 41.11 0 003.942-4.124c1.158-1.418 2.091-2.651 2.803-3.683l-2.207-9.678zm-74.694 13.594c-.105 0-.182-.02-.282 0-.761.089-1.485.357-2.187.811a16.524 16.524 0 00-2.115 1.656c-.712.651-1.457 1.335-2.22 2.071a34.202 34.202 0 01-2.503 2.103 16.266 16.266 0 01-2.914 1.744c-1.036.498-2.2.817-3.479.966-.575.063-1.25.044-2.019-.078a23.414 23.414 0 01-2.209-.435 50.823 50.823 0 01-1.816-.479 13.2 13.2 0 00-.819-.217l.224-.915c.275-.395.811-1.137 1.617-2.229.797-1.094 1.739-2.384 2.819-3.86a370.394 370.394 0 003.405-4.762 419.304 419.304 0 003.451-4.919 173.287 173.287 0 002.934-4.327c.851-1.288 1.458-2.274 1.817-2.976 1.276-.479 2.185-.936 2.729-1.374.153-.114.278-.222.39-.325a41.212 41.212 0 00-.436 2.106c-.06.357-.109.719-.137 1.061-.023.342-.045.67-.045.965 0 .723.102 1.284.304 1.687.191.413.533.589 1.02.528.517-.051 1.095-.463 1.719-1.205.642-.748 1.433-1.889 2.374-3.429.419-.703.806-1.262 1.161-1.652a3.73 3.73 0 011.178-.942c.433-.234.983-.405 1.614-.502a58.865 58.865 0 012.415-.332 4.719 4.719 0 011.084.003c.337.062.663.144.983.271.321.125.668.271 1.066.431.394.167.865.34 1.408.516l-12.531 18.039zm49.42-10.951c-.118.968-.39 2.195-.798 3.668a26.923 26.923 0 01-1.614 4.354c-.669 1.419-1.454 2.646-2.363 3.72-.914 1.055-1.928 1.648-3.046 1.783-.704.09-1.272-.02-1.722-.308a3.164 3.164 0 01-1.105-1.22 6.005 6.005 0 01-.558-1.81 13.406 13.406 0 01-.164-2.153c0-1.312.177-2.73.526-4.262.346-1.53.83-3.077 1.467-4.623a32.152 32.152 0 012.28-4.49 26.606 26.606 0 012.883-3.914c1.045-1.17 2.165-2.126 3.346-2.874 1.178-.751 2.395-1.194 3.635-1.338l-2.767 13.467z" fill="#3C873A"/><path fill="#D1CCC6" d="M1244.592 973.285s-.045-.545-.14-1.433c.077.888.14 1.433.14 1.433zm-13.402-16.023s7.818-2.122 9.766-2.64c1.614-.446 3.053 12.803 3.496 17.23-.376-4.141-1.289-16.029.248-17.274 1.84-1.521 7.414 8.244 7.414 8.244s-4.412-7.874-6.326-12.692a34.013 34.013 0 01-1.387-4.448c-1.032 1.822-1.593 2.907-1.593 2.907l-1.719-1.355c-.492 5.477-9.899 10.028-9.899 10.028z"/><path fill="#F8ECCA" d="M1077.939 936.05c9.021-4.027 7.518-2.773 18.483-7.413 10.895-4.608 5.514-6.213 17.006-8.265 11.419-2.024 19.396-1.688 20.975-1.827 1.573-.134 31.028-4.741 32.914-5.421 1.89-.676 33.699 1.662 40.55 1.567 6.832-.103 9.683 2.179 15.814 3.137 6.114.967 4.179 4.66 9.024 4.226 4.837-.448 8.703-3.299 14.782 2.167 6.04 5.438 16.751 17.882 18.776 24.165 2.032 6.275-.69 13.031-8.888 20.866-8.236 7.874-23.488 17.556-34.688 23.32-11.272 5.791-40.488 10.669-52.088 11.453-11.679.799-23.073 1.22-37.754 1.823-14.793.599-30.851-.494-34.692-2.685-3.865-2.206-27.246-2.819-33.569-8.992-6.344-6.201-12.621-11.37-12.583-20.356.034-8.998-2.236-25.174 25.938-37.765z"/><path fill="#BE0411" d="M1063.704 952.583c7.588-13.945 23.803-18.642 32.021-21.211 8.188-2.558 33.353-14.456 44.803-15.454 11.373-.983 23.186-.811 28.809-1.291 5.604-.492-11.82-.767 17.029 1.49 28.393 2.23 39.125 5.509 39.125 5.509s14.866 5.751 16.407 5.604c1.544-.141 8.212 2.582 10.052 5.912 1.837 3.329 6.863 8.321 8.424 12.833 1.538 4.499-4.538 9.562-5.918 11.446-1.366 1.897-6.385 6.507-9.734 8.014-3.368 1.522-.6 10.776-30.864 18.708-30.809 8.098-69.874 12.796-81.178 10.999-11.37-1.804-35.455.786-45.581-3.637-10.181-4.461-39.697-8.922-23.395-38.922z"/><path fill="#EBC792" d="M1069.393 969.757c4.952 4.679.222 2.57 20.598 5.661 20.164 3.063 9.798 9.263 21.698 9.301 11.822.039 7.274-1.4 27.692-2.896 20.202-1.489 39.076.92 43.321.474 4.232-.448 11.625-2.48 18.516-4.462 6.856-1.969 7.322-2.013 13.119-5.105 5.783-3.088 12.688-3.804 17.564-6.162 4.865-2.347 10.844-12.808 12.046-14.775 1.202-1.97 12.192-6.724 2.104-12.509-10.142-5.809-22.338-13.313-32.994-12.954-10.725.345-2.167-3.527-30.372-3.489-28.654.045-32.371 1.63-41.381 3.694-9.048 2.083-1.495-.499-17.18 4.084-15.825 4.607-5.414-.147-15.825 4.607-10.477 4.793-16.667 7.944-21.833 11.625-5.18 3.714-10.935 6.826-10.935 6.826s-16.047 3.521-5.2 13.427c10.776 9.861-.938 2.653-.938 2.653z"/><path fill="#901718" d="M1130.441 973.528c-.31-3.395-5.297-5.683-11.174-5.088-5.898.588-10.439 3.847-10.139 7.266.306 3.42 5.335 5.702 11.229 5.081 5.877-.606 10.377-3.852 10.084-7.259zm109.902-20.477c-.245-2.858-4.294-4.768-9.044-4.309-4.769.468-8.436 3.158-8.188 6.021.258 2.851 4.329 4.774 9.1 4.289 4.741-.479 8.386-3.17 8.132-6.001zm-68.25 20.918c-.321-3.599-5.528-6.009-11.677-5.382-6.169.627-10.917 4.064-10.596 7.682.311 3.617 5.584 6.034 11.75 5.377 6.142-.64 10.841-4.08 10.523-7.677zm19.728-23.143c-.209-2.345-3.58-3.924-7.546-3.547-3.978.39-7.034 2.594-6.832 4.946.209 2.34 3.604 3.93 7.581 3.535 3.953-.39 7.003-2.602 6.797-4.934zm44.576-13.287c-.196-2.308-3.492-3.879-7.354-3.515-3.873.363-6.853 2.531-6.647 4.85.202 2.314 3.51 3.893 7.382 3.527 3.862-.382 6.831-2.548 6.619-4.862zm-102.181-2.026c-.362-4.025-6.26-6.786-13.207-6.154-6.978.62-12.362 4.416-12.003 8.468s6.315 6.807 13.29 6.149c6.947-.646 12.275-4.436 11.92-8.463zm40.286-1.68c-.29-3.273-5.044-5.528-10.642-5.019-5.611.506-9.944 3.6-9.652 6.891.297 3.311 5.096 5.555 10.708 5.023 5.591-.53 9.871-3.61 9.586-6.895zm-63.12 23.62c-.436-5.074-7.926-8.5-16.758-7.663-8.857.832-15.709 5.664-15.253 10.776.453 5.106 8.031 8.538 16.884 7.663 8.826-.876 15.58-5.707 15.127-10.776z"/><path fill="#DCA07B" d="M1116.133 937.38c.164-.563-.021-1.184-.404-1.393-.394-.199-.83.089-.993.646-.171.562.01 1.181.397 1.386.384.205.833-.082 1-.639zm7.776-2.576c.254-.856-.313-1.949-1.266-2.466-.943-.513-1.91-.225-2.17.632-.241.837.327 1.949 1.268 2.454.959.505 1.921.229 2.168-.62zm4.11 3.143c.222-.767-.08-1.648-.683-1.974-.603-.32-1.28.031-1.499.805-.227.761.083 1.643.687 1.969.602.332 1.272-.038 1.495-.8zm36.444 35.976c.617-.127 1.052-.734.955-1.348-.08-.626-.655-1.028-1.276-.914a1.22 1.22 0 00-.958 1.361c.08.627.659 1.024 1.279.901zm-46.803-.184a1.243 1.243 0 00.986-1.374 1.096 1.096 0 00-1.32-.909 1.23 1.23 0 00-.982 1.368 1.1 1.1 0 001.316.915zm43.524 4.282a1.24 1.24 0 00.965-1.354 1.077 1.077 0 00-1.29-.908 1.225 1.225 0 00-.962 1.361 1.075 1.075 0 001.287.901zm-5.912-.57a1.21 1.21 0 00.961-1.36c-.08-.621-.662-1.023-1.279-.902-.631.135-1.06.736-.976 1.355a1.079 1.079 0 001.294.907zm-33.388-1.707a1.232 1.232 0 00.98-1.366c-.091-.627-.68-1.035-1.314-.914a1.229 1.229 0 00-.983 1.368c.094.632.676 1.034 1.317.912zm42.488-42.269c.621-.108 1.046-.716.967-1.342a1.08 1.08 0 00-1.287-.909 1.182 1.182 0 00-.961 1.336c.094.621.661 1.03 1.281.915zm-3.38 3.566a1.217 1.217 0 00.955-1.349c-.087-.614-.663-1.022-1.29-.908a1.204 1.204 0 00-.959 1.336c.088.633.66 1.029 1.294.921zm21.394 15.933a1.215 1.215 0 00.955-1.342 1.071 1.071 0 00-1.28-.902 1.188 1.188 0 00-.94 1.336 1.068 1.068 0 001.265.908zM1104.973 959c.993-.191 1.688-1.145 1.541-2.135-.139-.978-1.067-1.622-2.06-1.425-.997.186-1.684 1.131-1.544 2.123.139.984 1.062 1.624 2.063 1.437z"/><path fill="#901718" d="M1161.744 953.089c-.463-5.234-8.083-8.794-17.075-7.938-9.034.843-16.012 5.835-15.548 11.114.464 5.285 8.201 8.819 17.232 7.925 8.982-.901 15.852-5.867 15.391-11.101z"/><path fill="#DCA07B" d="M1137.649 956.674c1.16-.23 1.969-1.342 1.798-2.517-.16-1.164-1.245-1.925-2.412-1.695-1.161.217-1.97 1.342-1.803 2.5a2.027 2.027 0 002.417 1.712zm9.25 1.867c1.154-.237 1.959-1.35 1.781-2.513a2.005 2.005 0 00-2.394-1.7c-1.154.224-1.962 1.343-1.801 2.507a2.04 2.04 0 002.414 1.706zm3.228-6.538a1.717 1.717 0 001.374-1.899 1.535 1.535 0 00-1.831-1.291c-.874.159-1.488 1.022-1.366 1.898a1.535 1.535 0 001.823 1.292z"/><path fill="#901718" d="M1217.502 961.026c-.456-5.196-7.908-8.711-16.684-7.841-8.819.861-15.62 5.814-15.159 11.063.46 5.228 8.017 8.735 16.825 7.822 8.773-.907 15.478-5.854 15.018-11.044z"/><path fill="#DCA07B" d="M1195.048 965.673c.813-.154 1.38-.959 1.266-1.789a1.42 1.42 0 00-1.694-1.215 1.633 1.633 0 00-1.276 1.802 1.424 1.424 0 001.704 1.202zm6.285-3.79c.823-.159 1.38-.972 1.262-1.796-.119-.83-.875-1.375-1.69-1.214a1.622 1.622 0 00-1.262 1.795 1.425 1.425 0 001.69 1.215zm6.288 2.275c.613-.121 1.039-.735.952-1.36a1.089 1.089 0 00-1.286-.928c-.614.121-1.039.734-.952 1.361a1.087 1.087 0 001.286.927zm-38.888-28.122c.467-.095.802-.548.731-1.021a.821.821 0 00-.973-.704.935.935 0 00-.731 1.023c.074.473.506.78.973.702zm17.871 15.238a.908.908 0 00.718-1.01.81.81 0 00-.958-.697.911.911 0 00-.729 1.017.81.81 0 00.969.69z"/><path fill="#901718" d="M1208.555 935.743c-.303-3.483-5.305-5.886-11.199-5.344-5.911.537-10.467 3.829-10.161 7.351.307 3.496 5.365 5.873 11.273 5.317 5.887-.562 10.393-3.84 10.087-7.324z"/><path fill="#DCA07B" d="M1192.613 940.531a1.36 1.36 0 001.08-1.522c-.094-.702-.739-1.156-1.436-1.034-.687.134-1.171.817-1.074 1.52a1.214 1.214 0 001.43 1.036zm6.607-4.749a1.35 1.35 0 001.074-1.503c-.108-.702-.739-1.163-1.436-1.028-.683.121-1.175.799-1.073 1.502a1.2 1.2 0 001.435 1.029zm5.592 1.215a1.346 1.346 0 001.07-1.503 1.202 1.202 0 00-1.426-1.029c-.696.128-1.171.805-1.073 1.509.1.697.746 1.15 1.429 1.023zm26.5 3.726a.892.892 0 00.697-1.004.8.8 0 00-.941-.678.91.91 0 00-.708 1.004c.07.467.485.773.952.678zm.262 14.04a.895.895 0 00.696-1.003.786.786 0 00-.933-.685.896.896 0 00-.708.998.798.798 0 00.945.69z"/><path fill="#FFF" d="M1384.354 894.579a7.199 7.199 0 01-7.197 7.201h-41.227a7.2 7.2 0 110-14.398h41.227a7.195 7.195 0 017.197 7.197z"/><path fill="#EAEBED" d="M463.952 1138.694c0 8.6-5.058 15.574-11.296 15.574s-11.3-6.975-11.3-15.574c0-8.598 5.062-15.569 11.3-15.569s11.296 6.972 11.296 15.569z"/><path fill="#C85A2B" d="M460.791 1138.287c0 6.86-4.033 12.423-9.01 12.423-4.974 0-9.013-5.563-9.013-12.423s4.04-12.423 9.013-12.423c4.977 0 9.01 5.563 9.01 12.423z"/><path fill="#DB9836" d="M453.12 1143.289c-.746-1.764-1.15-3.67-1.401-5.56-.22-1.669-.307-3.339-.182-5.02.115-1.53.286-3.392 1.199-4.719a5.1 5.1 0 00-.571-.038c-3.883 0-7.027 4.332-7.027 9.679 0 5.344 3.145 9.68 7.027 9.68 1.188 0 2.308-.412 3.293-1.133-1.146-.536-1.864-1.763-2.338-2.889z" opacity=".4"/><path fill="#DB9836" d="M1978.417 1195.237h-.342c.182 1.098.342 0 .342 0z"/><path fill="#A3A2A7" d="M2396.62 1303.671h28.076s16.133 0 16.454-8.92v-63.098c-1.603-8.504-12.604-8.504-16.131-8.504h-97.033v80.448l68.634.074z"/><path fill="#A3A2A7" d="M1977.828 1223.323h406.738v80.334h-406.738z"/><path fill="#EAEBED" d="M2376.354 1036.287c0 11.788-9.683 21.342-21.628 21.342h-36.183c-11.944 0-21.628-9.554-21.628-21.342V958.22c0-11.787 9.684-21.339 21.628-21.339h36.183c11.945 0 21.628 9.552 21.628 21.339v78.067z"/><path fill="#5B1919" d="M2318.544 1054.061c-9.958 0-18.059-7.972-18.059-17.773V958.22c0-9.798 8.101-17.771 18.059-17.771h36.183c9.959 0 18.06 7.973 18.06 17.771v78.067c0 9.802-8.101 17.773-18.06 17.773h-36.183z"/><path fill="#EAEBED" d="M2338.561 1021.658c-15.241 0-27.643-15.434-27.643-34.402 0-.139.003-.276.014-.415a3.615 3.615 0 01-.014-.372c0-4.171.673-8.234 2-12.077 4.187-13.053 14.259-21.536 25.643-21.536 15.243 0 27.647 15.432 27.647 34.4s-12.404 34.402-27.647 34.402z"/><path fill="#A3A2A7" d="M2362.639 987.256c0 17.031-10.776 30.834-24.078 30.834-13.296 0-24.073-13.803-24.073-30.834 0-17.027 10.777-30.831 24.073-30.831 13.301 0 24.078 13.804 24.078 30.831z"/><ellipse fill="#EAEBED" cx="2335.595" cy="986.469" rx="21.108" ry="27.034"/><path fill="#EAEBED" d="M2327.696 1038.121c0 6.451-3.792 11.683-8.473 11.683s-8.477-5.231-8.477-11.683c0-6.448 3.796-11.681 8.477-11.681s8.473 5.233 8.473 11.681z"/><path fill="#C85A2B" d="M2325.327 1037.817c0 5.145-3.025 9.316-6.759 9.316-3.732 0-6.763-4.172-6.763-9.316 0-5.148 3.03-9.32 6.763-9.32 3.734 0 6.759 4.172 6.759 9.32z"/><path fill="#DB9836" d="M2319.572 1041.567c-.561-1.324-.865-2.753-1.054-4.172-.163-1.251-.229-2.503-.135-3.761.087-1.149.216-2.548.898-3.542a3.504 3.504 0 00-.428-.031c-2.911 0-5.271 3.252-5.271 7.261 0 4.013 2.359 7.265 5.271 7.265.892 0 1.732-.311 2.471-.851-.86-.405-1.395-1.321-1.752-2.169z" opacity=".4"/><ellipse fill="#EAEBED" cx="2360.497" cy="1038.124" rx="8.475" ry="11.68"/><ellipse fill="#C85A2B" cx="2359.842" cy="1037.817" rx="6.761" ry="9.316"/><path fill="#DB9836" d="M2360.848 1041.571c-.561-1.324-.865-2.754-1.054-4.173-.163-1.251-.229-2.506-.135-3.764.087-1.146.216-2.544.898-3.542a4.237 4.237 0 00-.428-.027c-2.911 0-5.271 3.248-5.271 7.261 0 4.012 2.359 7.261 5.271 7.261.892 0 1.732-.311 2.471-.851-.861-.401-1.396-1.321-1.752-2.165z" opacity=".4"/><path fill="#15431D" d="M2372.786 1174.958c0 11.903-18.383 21.552-41.057 21.552h-283.253c-22.678 0-41.06-9.648-41.06-21.552v-78.329c0-11.899 18.382-21.548 41.06-21.548h283.253c22.674 0 41.057 9.648 41.057 21.548v78.329z"/><path fill="#3B2B16" d="M2048.477 1185.952c-13.204 0-23.949-5.664-23.949-12.629v-78.329c0-6.965 10.745-12.628 23.949-12.628h283.253c13.199 0 23.949 5.663 23.949 12.628v78.329c0 6.965-10.75 12.629-23.949 12.629h-283.253z"/><path fill="#FFF" d="M2024.527 1092.968h330.28v5.353h-330.28zm0 15.292h330.28v5.352h-330.28zm0 15.29h330.28v5.351h-330.28zm0 15.292h330.28v5.351h-330.28zm0 15.29h330.28v5.351h-330.28zm0 15.291h330.28v5.354h-330.28z"/><path fill="#BFC0C6" d="M1961.771 1303.671h22.705s13.049 0 13.308-8.92v-63.098c-1.293-8.504-10.191-8.504-13.046-8.504h-78.474v80.448l55.507.074z"/><path opacity=".2" fill="#211915" d="M2187.9 779.5c4.562 8.785-.624 15.908-11.582 15.908h-310.66c-10.956 0-21.366-7.123-23.245-15.908l-85.64-197.696c-1.676-8.785 4.074-15.908 12.837-15.908h300.364c8.766 0 19.421 7.123 23.803 15.908L2187.9 779.5z"/><path fill="#B0D2D6" d="M1862.59 782.151c-1.513 0-3.071-1.214-3.397-2.651l-.157-.694-88.47-197.424c-.079-1.257.68-2.229 1.806-2.229h303.982c1.244 0 2.879 1.215 3.573 2.651l.299.622 91.059 197.453c.447 1.275-.233 2.272-1.62 2.272H1862.59z"/><path fill="#81A9CA" d="M2090.483 647.241l20.914 34.92-113.878 99.99h-57.706zm-227.893 134.91c-1.513 0-3.071-1.214-3.397-2.651l-.157-.694-88.47-197.424c-.079-1.257.68-2.229 1.806-2.229h303.982c1.244 0 2.879 1.215 3.573 2.651l.299.622-217.636 199.725z"/><path opacity=".2" fill="#211915" d="M1830.308 714.696l-59.742-133.314c-.079-1.257.68-2.229 1.806-2.229h205.07l-147.134 135.543z"/><path fill="#9BC8EB" d="M1973.419 735.082c15.622-17.375 22.496-40.948 43.266-53.671 5.608-3.513-4.803-12.728-10.359-9.23-21.509 13.259-28.825 37.371-45.077 55.445-4.532 4.891 7.674 12.309 12.17 7.456zm-33.889-41.854c29.909-22.412 48.416-56.826 84.7-70.625 9.826-3.846-3.136-20.964-12.875-17.13-37.602 14.42-56.967 49.54-88.086 72.854-8.623 6.271 7.707 21.123 16.261 14.901z"/><path opacity=".2" fill="#211915" d="M2054.674 789.458s-29.944-57.078-56.03-108.197c-12.781-25.562-25.392-51.133-34.723-70.333a4681.434 4681.434 0 01-11.14-23.237c-4.96-10.485-7.641-16.231-7.641-16.231l6.403.354 3.019 6.331c1.798 4.183 72.164 142.865 108.737 211.702l-8.625-.389z"/><path fill="#EAEBED" d="M2096.545 1036.287c0 11.788-10.864 21.342-24.266 21.342h-40.596c-13.402 0-24.267-9.554-24.267-21.342V958.22c0-11.787 10.864-21.339 24.267-21.339h40.596c13.401 0 24.266 9.552 24.266 21.339v78.067z"/><path fill="#5B1919" d="M2031.684 1054.061c-11.413 0-20.698-7.972-20.698-17.773V958.22c0-9.798 9.285-17.771 20.698-17.771h40.596c11.411 0 20.696 7.973 20.696 17.771v78.067c0 9.802-9.285 17.773-20.696 17.773h-40.596z"/><path fill="#EAEBED" d="M2051.979 1021.658c-15.242 0-27.645-15.434-27.645-34.402 0-.139.004-.276.015-.415a3.582 3.582 0 01-.015-.372c0-4.171.673-8.234 2.001-12.077 4.187-13.053 14.259-21.536 25.644-21.536 15.242 0 27.646 15.432 27.646 34.4s-12.403 34.402-27.646 34.402z"/><path fill="#A3A2A7" d="M2076.03 987.256c0 17.031-10.777 30.834-24.08 30.834-13.296 0-24.073-13.803-24.073-30.834 0-17.027 10.777-30.831 24.073-30.831 13.303 0 24.08 13.804 24.08 30.831z"/><ellipse fill="#EAEBED" cx="2048.985" cy="986.469" rx="21.108" ry="27.034"/><path fill="#EAEBED" d="M2041.087 1038.121c0 6.451-3.793 11.683-8.474 11.683s-8.477-5.231-8.477-11.683c0-6.448 3.796-11.681 8.477-11.681s8.474 5.233 8.474 11.681z"/><path fill="#C85A2B" d="M2038.717 1037.817c0 5.145-3.025 9.316-6.758 9.316s-6.763-4.172-6.763-9.316c0-5.148 3.029-9.32 6.763-9.32 3.732 0 6.758 4.172 6.758 9.32z"/><path fill="#DB9836" d="M2032.962 1041.567c-.561-1.324-.864-2.753-1.053-4.172-.164-1.251-.229-2.503-.136-3.761.087-1.149.216-2.548.899-3.542a3.506 3.506 0 00-.429-.031c-2.91 0-5.271 3.252-5.271 7.261 0 4.013 2.36 7.265 5.271 7.265.892 0 1.732-.311 2.471-.851-.86-.405-1.396-1.321-1.752-2.169z" opacity=".4"/><path fill="#EAEBED" d="M2082.362 1038.124c0 6.448-3.793 11.68-8.471 11.68-4.684 0-8.476-5.231-8.476-11.68 0-6.451 3.792-11.68 8.476-11.68 4.678 0 8.471 5.229 8.471 11.68z"/><path fill="#C85A2B" d="M2079.992 1037.817c0 5.145-3.025 9.316-6.758 9.316-3.73 0-6.763-4.172-6.763-9.316s3.032-9.316 6.763-9.316c3.733 0 6.758 4.172 6.758 9.316z"/><path fill="#DB9836" d="M2074.237 1041.571c-.561-1.324-.864-2.754-1.053-4.173-.164-1.251-.229-2.506-.136-3.764.088-1.146.216-2.544.899-3.542a4.238 4.238 0 00-.429-.027c-2.91 0-5.271 3.248-5.271 7.261 0 4.012 2.36 7.261 5.271 7.261.892 0 1.732-.311 2.471-.851-.859-.401-1.395-1.321-1.752-2.165z" opacity=".4"/><path fill="#EAEBED" d="M1917.561 1138.694c0 8.6-5.055 15.574-11.297 15.574-6.239 0-11.3-6.975-11.3-15.574 0-8.598 5.061-15.569 11.3-15.569 6.242 0 11.297 6.972 11.297 15.569z"/><path fill="#C85A2B" d="M1914.398 1138.287c0 6.86-4.032 12.423-9.006 12.423-4.978 0-9.018-5.563-9.018-12.423s4.04-12.423 9.018-12.423c4.974 0 9.006 5.563 9.006 12.423z"/><path fill="#DB9836" d="M1906.728 1143.289c-.746-1.764-1.15-3.67-1.401-5.56-.219-1.669-.306-3.339-.181-5.02.114-1.53.288-3.392 1.199-4.719a5.087 5.087 0 00-.572-.038c-3.879 0-7.026 4.332-7.026 9.679 0 5.344 3.147 9.68 7.026 9.68 1.188 0 2.308-.412 3.293-1.133-1.147-.536-1.865-1.763-2.338-2.889z" opacity=".4"/><ellipse fill="#EAEBED" cx="1906.262" cy="1055.527" rx="11.298" ry="15.573"/><path fill="#C85A2B" d="M1914.398 1055.12c0 6.858-4.032 12.422-9.006 12.422-4.978 0-9.018-5.563-9.018-12.422 0-6.86 4.04-12.423 9.018-12.423 4.974 0 9.006 5.563 9.006 12.423z"/><path fill="#DB9836" d="M1906.728 1060.121c-.746-1.764-1.15-3.67-1.401-5.56-.219-1.67-.306-3.339-.181-5.019.114-1.53.288-3.392 1.199-4.72a5.087 5.087 0 00-.572-.038c-3.879 0-7.026 4.332-7.026 9.679 0 5.344 3.147 9.68 7.026 9.68 1.188 0 2.308-.411 3.293-1.134-1.147-.535-1.865-1.762-2.338-2.888z" opacity=".4"/><ellipse fill="#EAEBED" cx="452.652" cy="1055.527" rx="11.297" ry="15.573"/><path fill="#C85A2B" d="M460.791 1055.12c0 6.858-4.033 12.422-9.01 12.422-4.974 0-9.013-5.563-9.013-12.422 0-6.86 4.04-12.423 9.013-12.423 4.977 0 9.01 5.563 9.01 12.423z"/><path fill="#DB9836" d="M453.12 1060.121c-.746-1.764-1.15-3.67-1.401-5.56-.22-1.67-.307-3.339-.182-5.019.115-1.53.286-3.392 1.199-4.72a5.1 5.1 0 00-.571-.038c-3.883 0-7.027 4.332-7.027 9.679 0 5.344 3.145 9.68 7.027 9.68 1.188 0 2.308-.411 3.293-1.134-1.146-.535-1.864-1.762-2.338-2.888z" opacity=".4"/><path fill="#902B2C" d="M1819.439 803.586h399.413l8.727 69.333h-399.408z"/><path fill="#C13238" d="M573.523 651.549v96.123c1.68-14.917 14.841-26.575 30.83-26.575 15.514 0 28.365 10.967 30.634 25.274v-94.822h63.81v95.944c1.756-14.84 14.865-26.396 30.804-26.396 15.581 0 28.466 11.069 30.659 25.45v-94.998h63.834v95.561c1.937-14.663 14.942-26.013 30.752-26.013 15.709 0 28.689 11.273 30.711 25.833v-95.381h63.81v95.381c2.01-14.559 14.99-25.833 30.728-25.833 17.114 0 30.982 13.365 30.982 29.815h-500.98v-99.363h63.426z"/><path fill="#3C873A" d="M949.366 747.026v-95.381h62.352v99.36h-.642c0 16.474-13.869 29.812-30.982 29.812-16.904 0-30.627-12.981-30.986-29.151-.025-.229-.025-.432-.025-.661 0-1.352.101-2.678.283-3.979z"/><path fill="#C13238" d="M886.463 750.913c0 16.463 13.882 29.808 31.003 29.808 17.121 0 30.997-13.345 30.997-29.808 0-16.458-13.876-29.802-30.997-29.802-17.121 0-31.003 13.344-31.003 29.802z"/><path fill="#3C873A" d="M824.093 747.206v-95.561h61.463v95.381a29.31 29.31 0 01.282 3.979c0 .229 0 .432-.028.661-.356 16.17-14.078 29.151-30.966 29.151-16.905 0-30.624-12.981-30.982-29.151-.024-.229-.024-.432-.024-.661.001-1.275.078-2.55.255-3.799z"/><path fill="#C13238" d="M761.217 750.913c0 16.463 13.88 29.808 31.004 29.808 17.121 0 31.003-13.345 31.003-29.808 0-16.458-13.882-29.802-31.003-29.802-17.124 0-31.004 13.344-31.004 29.802z"/><path fill="#3C873A" d="M698.796 747.589v-95.944h61.463v94.998c.23 1.432.331 2.883.331 4.362 0 .229 0 .432-.023.661-.359 16.17-14.082 29.151-30.966 29.151-16.912 0-30.627-12.981-30.986-29.151-.024-.229-.024-.432-.024-.661a29.75 29.75 0 01.205-3.416z"/><path fill="#C13238" d="M635.969 750.913c0 16.463 13.883 29.808 31.003 29.808 17.121 0 30.997-13.345 30.997-29.808 0-16.458-13.875-29.802-30.997-29.802-17.12 0-31.003 13.344-31.003 29.802z"/><path fill="#3C873A" d="M573.523 747.769v-96.124h61.463v94.82a29.44 29.44 0 01.352 4.54c0 .229 0 .432-.021.661-.355 16.17-14.078 29.151-30.965 29.151-16.905 0-30.624-12.981-30.983-29.151-.024-.229-.024-.432-.024-.661 0-1.096.049-2.17.178-3.236z"/><path fill="#C13238" d="M510.725 750.913c0 16.463 13.879 29.808 31.003 29.808 17.121 0 31.003-13.345 31.003-29.808 0-16.458-13.883-29.802-31.003-29.802-17.124 0-31.003 13.344-31.003 29.802z"/><path fill="#E2E3E6" d="M510.097 651.549h501.621l28.094-43.704H562.714z"/><path opacity=".1" fill="#211915" d="M993.872 669.396l28.094-43.705H544.869l-52.617 43.705v99.363h.627c0 16.463 13.879 29.808 31.004 29.808 17.121 0 31.003-13.345 31.003-29.808h.613v.092c0 .229 0 .431.025.661.359 16.169 14.078 29.15 30.982 29.15 16.887 0 30.61-12.981 30.965-29.15.021-.23.021-.432.021-.661 0-.031-.004-.061-.004-.092h.635c0 16.463 13.883 29.808 31.003 29.808 17.121 0 30.997-13.345 30.997-29.808h.624c0 .03-.004.061-.004.092 0 .229 0 .431.025.661.359 16.169 14.075 29.15 30.986 29.15 16.884 0 30.606-12.981 30.965-29.15.024-.23.024-.432.024-.661 0-.031-.003-.061-.003-.092h.631c0 16.463 13.879 29.808 31.003 29.808 17.121 0 31.003-13.345 31.003-29.808h.617c0 .03-.003.061-.003.092 0 .229 0 .431.024.661.359 16.169 14.079 29.15 30.983 29.15 16.887 0 30.61-12.981 30.965-29.15.028-.23.028-.432.028-.661 0-.031-.003-.061-.003-.092h.627c0 16.463 13.882 29.808 31.004 29.808 17.12 0 30.996-13.345 30.996-29.808h.624c0 .031-.003.061-.003.092 0 .229 0 .431.024.661.36 16.169 14.082 29.15 30.987 29.15 17.113 0 30.982-13.338 30.982-29.811h.641v-99.36h-62.35v-.095h62.352zm-251.459 0v.095H680.95v-.095h61.463zm-125.272 0v.095h-61.463v-.095h61.463zm250.569.095h-61.463v-.095h61.463v.095z"/><path d="M1348.823 1592.97c-2.365-.088-4.596-.596-6.684-1.53-2.082-.929-3.906-2.172-5.441-3.754-1.537-1.567-2.748-3.4-3.639-5.486-.9-2.075-1.338-4.32-1.338-6.701v-15.849c0-.707.252-1.312.775-1.82.506-.512 1.115-.773 1.826-.773.756 0 1.385.262 1.873.773.494.509.73 1.113.73 1.82v15.849c0 1.49.266 2.918.775 4.268a12.181 12.181 0 002.131 3.639 12.818 12.818 0 003.211 2.686 11.837 11.837 0 003.982 1.498v-27.938c0-.707.246-1.312.758-1.82.506-.512 1.146-.773 1.902-.773.719 0 1.311.262 1.803.773.498.509.736 1.113.736 1.82v30.726c0 .723-.238 1.332-.736 1.835-.492.513-1.113.76-1.877.76h-.787zm17.891-35.71c1.426 0 2.775.289 4.043.837a10.759 10.759 0 013.309 2.215c.932.943 1.67 2.042 2.244 3.31a9.876 9.876 0 01.826 4.017v1.262a9.929 9.929 0 01-.826 4.021 11.168 11.168 0 01-2.244 3.3 10.884 10.884 0 01-3.309 2.226 10.023 10.023 0 01-4.043.827h-5.268v3.314c0 1.427.504 2.65 1.529 3.673 1.025 1.02 2.248 1.532 3.676 1.532a5.119 5.119 0 003.092-.997c.926-.677 1.555-1.558 1.918-2.675.223-.697.637-1.22 1.277-1.559.617-.328 1.287-.377 1.99-.158.67.223 1.184.643 1.535 1.267.361.615.43 1.254.207 1.916-.719 2.211-1.986 4.011-3.811 5.361-1.83 1.355-3.895 2.022-6.209 2.022-1.428 0-2.766-.271-4.039-.823-1.271-.565-2.371-1.301-3.314-2.24a10.683 10.683 0 01-2.238-3.28 9.981 9.981 0 01-.828-4.039v-14.949c0-1.424.275-2.753.828-4.017a11.069 11.069 0 012.238-3.31 10.758 10.758 0 013.314-2.215 10.256 10.256 0 014.103-.838zm-5.268 16.897h5.268c1.426 0 2.65-.522 3.684-1.57 1.025-1.036 1.523-2.27 1.523-3.688v-1.262c0-1.424-.498-2.638-1.523-3.658-1.033-1.016-2.258-1.529-3.684-1.529-1.465 0-2.713.514-3.738 1.529-1.025 1.021-1.529 2.234-1.529 3.658v6.52zm35.131-6.849c0-.358-.035-.619-.068-.803a1.45 1.45 0 01-.082-.396c-.172-.844-.623-1.646-1.336-2.391-.973-.974-2.168-1.478-3.604-1.478-1.461 0-2.666.504-3.605 1.478-.979.967-1.459 2.187-1.459 3.647v15.371c0 1.418.48 2.622 1.459 3.575.977.986 2.186 1.479 3.605 1.479 1.344 0 2.541-.493 3.604-1.479.992-1.061 1.486-2.255 1.486-3.575 0-.717.246-1.32.729-1.819.48-.523 1.105-.774 1.871-.774.711 0 1.324.251 1.828.774.51.499.779 1.103.779 1.819 0 2.791-1.029 5.21-3.074 7.242-2.006 2.003-4.418 2.99-7.223 2.99-2.844 0-5.27-.987-7.283-2.99-2.033-2.032-3.064-4.451-3.064-7.242v-15.371c0-2.831 1.031-5.279 3.064-7.312 2.014-2.042 4.439-3.067 7.283-3.067 2.805 0 5.217 1.025 7.223 3.067 2 2.032 3.023 4.438 3.074 7.181v.072c-.051.711-.311 1.297-.811 1.785-.49.5-1.086.736-1.797.736-.727 0-1.336-.236-1.844-.736a2.388 2.388 0 01-.755-1.783zm19.485 20.484c.582.044 1.201.281 1.838.735.654.432.963 1.055.963 1.848 0 .761-.246 1.381-.746 1.874a2.609 2.609 0 01-1.85.721c-2.893 0-5.369-1.025-7.412-3.063-2.053-2.032-3.063-4.466-3.063-7.319v-23.001c0-.749.256-1.374.766-1.857.502-.488 1.148-.741 1.898-.741.713 0 1.322.253 1.832.741.514.483.758 1.108.758 1.857v1.003h2.951c.715 0 1.338.26 1.838.768.5.504.777 1.114.777 1.824 0 .755-.277 1.374-.777 1.863-.5.498-1.123.726-1.838.726h-2.951v16.817c0 1.34.527 2.564 1.543 3.673.945.927 2.099 1.434 3.473 1.531zm24.845-27.737c2.051 2.032 3.078 4.457 3.078 7.253v15.43c0 2.742-1.027 5.137-3.078 7.169-1.996 2.038-4.424 3.063-7.277 3.063h-1.133c-2.809 0-5.211-1.025-7.215-3.063-2.051-1.979-3.068-4.378-3.068-7.169v-15.43c0-2.845 1.018-5.254 3.068-7.253 2.045-2.042 4.451-3.067 7.215-3.067h1.133c2.808-.001 5.236 1.025 7.277 3.067zm-2.201 7.253c0-1.427-.49-2.622-1.463-3.589-.986-.935-2.186-1.394-3.613-1.394h-1.074c-1.369 0-2.6.459-3.658 1.394-.979 1.059-1.469 2.259-1.469 3.589v15.43c0 1.32.49 2.515 1.469 3.575 1.059.937 2.289 1.417 3.658 1.417h1.074c1.428 0 2.627-.48 3.613-1.417.973-.953 1.463-2.157 1.463-3.575v-15.43zm9.488 0c0-2.884 1.004-5.321 3.008-7.314 1.992-2.042 4.443-3.063 7.338-3.063.721 0 1.328.251 1.842.765.51.507.766 1.117.766 1.819 0 .855-.33 1.49-.965 1.906-.65.42-1.26.651-1.838.696-1.385.081-2.545.604-3.467 1.538-.986.963-1.484 2.182-1.484 3.652v20.746c0 1.384-.508 2.545-1.535 3.488-1.018.949-2.246 1.428-3.664 1.428v-25.661zm36.356-10.326h-1.141c-2.746 0-5.154 1.017-7.188 3.054-2.051 1.993-3.068 4.394-3.068 7.232v15.424c0 2.777 1.018 5.173 3.068 7.147 1.996 2.051 4.393 3.071 7.188 3.071h1.141c2.846 0 5.27-1.021 7.273-3.071 2.041-2.019 3.064-4.399 3.064-7.147v-15.424c0-2.776-1.023-5.196-3.064-7.232-2.047-2.037-4.463-3.054-7.273-3.054zm5.064 25.71c0 1.408-.486 2.608-1.459 3.57-.98.944-2.188 1.394-3.605 1.394h-1.063c-1.375 0-2.602-.449-3.67-1.394-.973-1.053-1.469-2.254-1.469-3.57v-15.424c0-1.325.496-2.521 1.469-3.58 1.068-.928 2.295-1.408 3.67-1.408h1.063c1.418 0 2.625.48 3.605 1.408.973.974 1.459 2.173 1.459 3.58v15.424zm19.817-25.71c-2.801 0-5.229 1.017-7.273 3.054-2.051 2.036-3.061 4.456-3.061 7.232v33.223c1.475 0 2.697-.506 3.729-1.465 1.021-.934 1.521-2.104 1.521-3.532v-2.583h5.084c2.842 0 5.27-1.021 7.266-3.071 2.051-2.019 3.068-4.399 3.068-7.147v-15.424c0-2.776-1.018-5.196-3.068-7.232-2.034-2.038-4.466-3.055-7.266-3.055zm5.06 25.71c0 1.35-.455 2.56-1.393 3.57-1.076.944-2.287 1.394-3.668 1.394h-5.084v-20.388c0-1.407.502-2.606 1.484-3.58 1.063-.928 2.262-1.408 3.6-1.408 1.381 0 2.592.48 3.668 1.408.938.974 1.393 2.173 1.393 3.58v15.424zm26.754-22.39c-.924-.938-2.027-1.668-3.301-2.225a9.985 9.985 0 00-4.031-.837c-1.475 0-2.838.284-4.109.837-1.27.557-2.365 1.287-3.301 2.225-.93.93-1.678 2.023-2.229 3.285a9.747 9.747 0 00-.842 4.017v14.954c0 1.413.277 2.752.842 4.007a10.235 10.235 0 002.229 3.275 10.52 10.52 0 003.301 2.245c1.271.546 2.607.826 4.045.826 2.301 0 4.377-.662 6.188-2.021 1.832-1.351 3.105-3.137 3.809-5.356.229-.673.16-1.291-.203-1.917a2.622 2.622 0 00-1.527-1.262c-.715-.229-1.375-.17-1.992.164-.627.335-1.055.852-1.273 1.563a5.14 5.14 0 01-1.908 2.651c-.914.669-1.938.997-3.092.997-1.438 0-2.65-.513-3.67-1.533-1.031-1.011-1.539-2.226-1.539-3.639v-3.334h5.273c1.418 0 2.764-.261 4.031-.827 1.273-.547 2.377-1.291 3.301-2.234.932-.915 1.676-2.019 2.232-3.271a9.918 9.918 0 00.836-4.024v-1.263a9.889 9.889 0 00-.836-4.017 10.68 10.68 0 00-2.234-3.286zm-2.133 8.564c0 1.423-.508 2.65-1.535 3.691-1.02 1.035-2.246 1.563-3.664 1.563h-5.273v-6.517c0-1.413.508-2.633 1.539-3.653 1.02-1.021 2.26-1.533 3.734-1.533 1.418 0 2.645.513 3.664 1.533 1.027 1.021 1.535 2.24 1.535 3.653v1.263zm19.463-11.884c-1.77 0-3.523.484-5.262 1.472-.49-.987-1.285-1.472-2.398-1.472-.715 0-1.309.258-1.816.789-.521.532-.789 1.123-.789 1.795v33.345c1.477 0 2.697-.484 3.668-1.456 1.064-1.026 1.605-2.191 1.605-3.517v-20.67c0-1.374.467-2.545 1.395-3.507.982-.982 2.18-1.481 3.598-1.481 1.346 0 2.553.48 3.613 1.408.98.974 1.479 2.173 1.479 3.58v25.643c1.453 0 2.682-.484 3.654-1.456 1.023-.982 1.547-2.157 1.547-3.517v-20.67c0-2.839-1.02-5.239-3.02-7.232-2.043-2.037-4.459-3.054-7.274-3.054zm42.397 17.234a10.956 10.956 0 00-3.504-2.355 10.65 10.65 0 00-4.266-.871h-.736c-1.25 0-2.309-.426-3.164-1.291-.877-.855-1.305-1.906-1.305-3.154 0-1.196.42-2.235 1.27-3.087.854-.876 1.895-1.298 3.121-1.298 1.205 0 2.238.417 3.088 1.259.479.484 1.092.741 1.832.741.729 0 1.336-.257 1.842-.741.477-.488.723-1.093.723-1.823 0-.736-.246-1.336-.723-1.83a9.224 9.224 0 00-3.078-2.017 9.774 9.774 0 00-3.684-.697 9.719 9.719 0 00-3.717.721c-1.168.499-2.174 1.166-3.029 2.028a9.87 9.87 0 00-2.076 3.029c-.518 1.15-.77 2.388-.77 3.715 0 1.33.252 2.568.77 3.72a9.559 9.559 0 002.076 3.014 9.587 9.587 0 003.029 2.063c1.154.518 2.395.769 3.717.769l.746.054c1.643 0 3.037.575 4.174 1.707 1.113 1.128 1.699 2.487 1.699 4.079 0 1.598-.586 2.971-1.699 4.112-1.137 1.156-2.51 1.736-4.105 1.736-1.336 0-2.527-.396-3.568-1.198a5.64 5.64 0 01-2.1-3.132 2.522 2.522 0 00-1.191-1.591c-.635-.339-1.299-.407-2.018-.193a2.768 2.768 0 00-1.529 1.236c-.354.606-.441 1.244-.268 1.941.668 2.404 2 4.34 3.969 5.83 1.973 1.481 4.209 2.221 6.705 2.221 1.514 0 2.938-.285 4.266-.871a10.908 10.908 0 003.504-2.355c1-.982 1.799-2.144 2.367-3.488.584-1.336.865-2.734.865-4.248 0-1.504-.281-2.918-.865-4.243a10.874 10.874 0 00-2.368-3.492zm18.672 14.238c-.643-.443-1.25-.681-1.818-.725-1.393-.087-2.547-.591-3.482-1.533-1.023-1.104-1.533-2.322-1.533-3.639v-16.813h2.941c.709 0 1.314-.241 1.828-.735.518-.474.773-1.106.773-1.848 0-.716-.256-1.32-.773-1.838a2.533 2.533 0 00-1.828-.749h-2.941v-1.008c0-.754-.25-1.367-.764-1.853a2.559 2.559 0 00-1.832-.731c-.768 0-1.391.238-1.896.731-.518.485-.773 1.099-.773 1.853v22.991c0 2.825 1.02 5.264 3.068 7.282 2.043 2.051 4.508 3.071 7.408 3.071.709 0 1.314-.242 1.832-.721.5-.503.76-1.118.76-1.872-.002-.793-.312-1.407-.97-1.863zm15.703-31.472h-1.123c-2.746 0-5.156 1.017-7.205 3.054-2.043 1.993-3.064 4.394-3.064 7.232v15.424c0 2.777 1.021 5.173 3.064 7.147 2.004 2.051 4.404 3.071 7.205 3.071h1.123c2.859 0 5.281-1.021 7.277-3.071 2.035-2.019 3.068-4.399 3.068-7.147v-15.424c0-2.776-1.033-5.196-3.068-7.232-2.043-2.037-4.465-3.054-7.277-3.054zm5.09 25.71c0 1.408-.504 2.608-1.48 3.57-.986.944-2.168 1.394-3.609 1.394h-1.061c-1.363 0-2.602-.449-3.672-1.394-.969-1.053-1.465-2.254-1.465-3.57v-15.424c0-1.325.496-2.521 1.465-3.58 1.07-.928 2.309-1.408 3.672-1.408h1.061c1.441 0 2.623.48 3.609 1.408.977.974 1.48 2.173 1.48 3.58v15.424zm19.798-25.71c-2.852 0-5.264 1.017-7.275 3.054-2.043 2.036-3.08 4.46-3.08 7.296v15.36c0 2.777 1.037 5.192 3.08 7.229 2.012 1.979 4.424 2.99 7.275 2.99 2.805 0 5.205-1.012 7.193-2.99 2.059-2.036 3.076-4.451 3.076-7.229 0-.716-.254-1.33-.764-1.838-.51-.503-1.117-.765-1.84-.765-.746 0-1.373.262-1.859.765-.502.508-.742 1.122-.742 1.838 0 1.316-.482 2.518-1.449 3.57-1.084.983-2.287 1.467-3.615 1.467-1.432 0-2.629-.483-3.609-1.467-.975-.962-1.451-2.162-1.451-3.57v-15.36c0-1.457.477-2.67 1.451-3.644.939-.973 2.127-1.466 3.609-1.466 1.418 0 2.609.493 3.615 1.466.695.741 1.141 1.544 1.303 2.382 0 .096.037.227.092.4.033.179.055.45.055.798 0 .708.26 1.302.768 1.8.52.485 1.119.731 1.834.731.723 0 1.313-.246 1.799-.731.492-.498.76-1.092.805-1.8v-.063c-.045-2.743-1.068-5.134-3.076-7.17-1.99-2.036-4.39-3.053-7.195-3.053zm30.6 18.527a9.35 9.35 0 00-2.063-1.665c1.607-1.853 2.412-4.044 2.412-6.575v-4.107c0-.716-.268-1.32-.781-1.838a2.51 2.51 0 00-1.818-.749c-.707 0-1.336.251-1.842.749a2.5 2.5 0 00-.754 1.838v4.107c0 1.408-.514 2.637-1.541 3.668-.928.924-2.09 1.432-3.482 1.524h-1.24v-12.826c0-.702-.264-1.325-.76-1.824-.486-.507-1.096-.76-1.877-.76-.691 0-1.314.253-1.818.76a2.47 2.47 0 00-.756 1.824v33.276c1.424 0 2.643-.484 3.664-1.456 1.02-.982 1.547-2.139 1.547-3.463v-10.423h3.918c1.414.092 2.609.596 3.533 1.524.977 1.03 1.467 2.235 1.467 3.657v10.16c1.434 0 2.656-.484 3.67-1.456 1.021-.982 1.537-2.139 1.537-3.463v-5.241c0-2.795-1.01-5.205-3.016-7.241zm-545.762 13.744V1570.4c0-1.264.9-2.12 2.123-2.12h5.051c2.814 0 5.386 2.53 5.386 5.481v12.192c0 3.13-2.571 5.443-5.386 5.443h-5.051c-1.321.001-2.123-1.021-2.123-2.143zm2.718-18.234c0 5.941.032 11.664.032 17.635h4.423c1.423 0 2.642-1.215 2.642-2.699v-12.169c0-1.471-1.218-2.767-2.642-2.767h-4.455zm25.995 0l-7.769.059v7.116h7.435v2.734h-7.435v4.954c0 1.49 1.227 2.771 2.746 2.771h5.023v2.744h-5.023c-2.978 0-5.48-2.565-5.48-5.516v-15.457c0-1.26 1.084-2.145 2.216-2.145h8.288v2.74zm10.595-3.004c3 0 6.075 2.217 6.075 6.474h-2.709c0-2.444-1.678-3.729-3.366-3.729-1.726 0-3.408.981-3.408 2.81v1.911c0 1.815 2.082 2.447 3.708 2.772 2.676.566 5.776 1.389 5.776 5.424v2.376c0 3.695-3.1 5.578-6.105 5.578-3.144 0-6.08-2.207-6.046-6.503h2.668c0 2.472 1.655 3.725 3.378 3.725 1.68 0 3.396-.981 3.396-2.8v-2.376c0-1.984-1.85-2.421-3.632-2.715-2.874-.562-5.783-1.225-5.811-5.481v-1.911c0-3.67 2.964-5.555 6.076-5.555zm11.722 23.382v-23.117h2.739v23.117h-2.739zm13.809-13.043h4.358c1.255 0 2.146.865 2.146 2.08v5.618c0 3.666-3.1 5.554-6.242 5.554-3.173 0-6.285-1.921-6.285-5.687v-12.316c0-3.739 3.048-5.626 6.217-5.626 3.109 0 6.212 2.216 6.246 6.54h-2.777c0-2.506-1.712-3.787-3.469-3.787-1.787 0-3.498.981-3.498 2.873v12.316c0 1.917 1.784 2.933 3.566 2.933 1.787 0 3.474-.981 3.507-2.8v-4.993h-3.769v-2.705zm23.906-10.074v21.239c0 1.253-.857 1.878-1.752 1.878-.657 0-1.553-.465-1.875-1.186-1.655-4.064-3.237-8.752-4.96-13.252-.591-1.582-1.255-4.784-1.55-5.646l-.4.106.793 4.06.134 15.918h-2.804v-21.27c-.035-1.229.886-1.944 1.852-1.944.78 0 1.775.493 1.935 1.316l-.018-.077 6.808 19.23h.18l-.946-4.359-.139-16.014h2.742zm15.743 2.739l-7.755.059v7.116h7.435v2.734h-7.435v4.954c0 1.49 1.214 2.771 2.741 2.771h5.014v2.744h-5.014c-2.973 0-5.484-2.565-5.484-5.516v-15.457c0-1.26 1.093-2.145 2.216-2.145h8.282v2.74zm5.321 18.234V1570.4c0-1.264.893-2.12 2.118-2.12h5.053c2.8 0 5.382 2.53 5.382 5.481v12.192c0 3.13-2.582 5.443-5.382 5.443H1257c-1.325.001-2.118-1.021-2.118-2.143zm2.703-18.234c0 5.941.041 11.664.041 17.635h4.428c1.417 0 2.637-1.215 2.637-2.699v-12.169c0-1.471-1.22-2.767-2.637-2.767h-4.469zm35.178 7.959c2.183.334 3.232 2.68 3.232 4.263v2.747c0 2.864-2.641 5.41-5.378 5.449h-5.023c-1.313 0-2.119-.828-2.119-2.184v-18.828c0-1.288.805-2.145 2.119-2.145h4.592c2.91.034 5.457 2.342 5.457 5.481v1.156c0 1.254-.9 3.605-2.88 4.061zm-6.574-7.959v6.639h4.364c1.385 0 2.371-1.254 2.371-2.739v-1.156c0-1.486-1.217-2.743-2.739-2.743h-3.996zm7.065 14.968v-2.747c0-1.549-1.209-2.807-2.701-2.807h-4.364v8.254h4.428c1.346-.063 2.637-1.249 2.637-2.7zm13.216-4.557v9.968h-2.742v-10.035a345.24 345.24 0 00-2.154-5.061 310.798 310.798 0 01-3.396-8.021h2.906c.961 2.177 2.877 7.271 3.732 9.41l.299 1.785c.037-.257.201-1.523.264-1.818.766-1.849 2.979-7.664 3.701-9.377h2.969l-5.579 13.149z" fill="#FFF"/></svg>