<svg version="1.0" xmlns="http://www.w3.org/2000/svg" viewBox="0 0 2838.9 1610.2"><style>.st1{fill:#3e210e}.st2{fill:#e3c950}.st3{fill:#cca846}.st4{fill:#fff}.st5{fill:#6e4736}.st9{fill:#d6b431}.st10{fill:#bc803b}.st12{fill:none}.st14{opacity:.2;fill:#211915}.st16{fill:#902b2c}.st18{fill:#db9836}.st19{fill:#26572d}.st20{fill:#3b2b16}.st22{fill:#44753e}.st28{fill:#3c873a}.st30{fill:#396635}.st31{fill:#211915}.st34{fill:#e2e3e6}.st36{fill:#c13238}.st37{fill:#717175}.st38{fill:#c2c3c8}.st39{fill:#bfc0c6}.st41{fill:#b0d2d6}.st42{fill:#4fa5b1}.st43{fill:#be0411}.st47{fill:#901718}.st48{fill:#dca07b}.st49{fill:#eaebed}.st50{fill:#c85a2b}.st51{opacity:.4}.st52{fill:#a3a2a7}.st53{fill:#5b1919}</style><switch><g><g id="Capa_1"><path fill="#bfcfe0" d="M-19.3-20.6H2877V986.1H-19.3z"/><path class="st1" d="M1994.9 858.1h4v23h-4z"/><path class="st2" d="M2006.1 864c.7-.4 1.3-.8 1.9-1.2.9-1.7 1.6-3.5 2-5.3 0-2.7-.7-5.3-1.4-7.9-.2-.6-.1-1.1.2-1.6.1-1 .3-2 .6-3.1.7-2-1.6-8.9-7.4-12.1-.2 0-.3-.1-.5-.1-1.8.1-3.2.9-4.9 1.3-1.1.3-2.2.4-3.3 0-.1 0-.3-.1-.5-.2h-1.5c-.8.3-1.5.5-2.3.9-1.9 2.3-4 5.5-3.7 8 .5 4.3-2.3 11.9-2.3 11.9 0 1.1-.1 2.1-.1 3.1.1.3.1.5.2.8 1.1 3.5 3.2 4.9 6.6 6 .8.3 1.5.5 2.1.8 3.9.2 8.1.1 11.4 0 1-.5 2-.9 2.9-1.3z"/><path class="st3" d="M1993.4 834c-.1 0-.3-.1-.5-.2h-1.5c-.8.3-1.5.5-2.3.9-1.9 2.3-4 5.5-3.7 8 .5 4.3-2.3 11.9-2.3 11.9 0 1.1-.1 2.1-.1 3.1.1.3.1.5.2.8 1.1 3.5 3.2 4.9 6.6 6 .8.3 1.5.5 2.2.8 1.3.1 2.7.1 4.1.1v-31.3c-1 .1-1.9.2-2.7-.1z"/><path class="st1" d="M2025.6 862.3h4v23h-4z"/><path class="st2" d="M2036.8 868.2c.7-.4 1.3-.8 1.9-1.2.9-1.7 1.6-3.5 2-5.3 0-2.7-.7-5.3-1.4-7.9-.2-.6-.1-1.1.2-1.6.1-1 .3-2 .6-3.1.7-2-1.6-8.9-7.4-12.1-.2 0-.3-.1-.5-.1-1.8.1-3.2.9-4.9 1.3-1.1.3-2.2.4-3.3 0-.1 0-.3-.1-.5-.2h-1.5c-.8.3-1.5.5-2.3.9-1.9 2.3-4 5.5-3.7 8 .5 4.3-2.3 11.9-2.3 11.9 0 1.1-.1 2.1-.1 3.1.1.3.1.5.2.8 1.1 3.5 3.2 4.9 6.6 6 .8.3 1.5.5 2.1.8 3.9.2 8.1.1 11.4 0 1-.5 2-.9 2.9-1.3z"/><path class="st3" d="M2024.1 838.2c-.1 0-.3-.1-.5-.2h-1.5c-.8.3-1.5.5-2.3.9-1.9 2.3-4 5.5-3.7 8 .5 4.3-2.3 11.9-2.3 11.9 0 1.1-.1 2.1-.1 3.1.1.3.1.5.2.8 1.1 3.5 3.2 4.9 6.6 6 .8.3 1.5.5 2.2.8 1.3.1 2.7.1 4.1.1v-31.3c-.9.1-1.9.2-2.7-.1z"/><path class="st1" d="M2056.3 866.5h4v23h-4z"/><path class="st2" d="M2067.5 872.4c.7-.4 1.3-.8 1.9-1.2.9-1.7 1.6-3.5 2-5.3 0-2.7-.7-5.3-1.4-7.9-.2-.6-.1-1.1.2-1.6.1-1 .3-2 .6-3.1.7-2-1.6-8.9-7.4-12.1-.2 0-.3-.1-.5-.1-1.8.1-3.2.9-4.9 1.3-1.1.3-2.2.4-3.3 0-.1 0-.3-.1-.5-.2h-1.5c-.8.3-1.5.5-2.3.9-1.9 2.3-4 5.5-3.7 8 .5 4.3-2.3 11.9-2.3 11.9 0 1.1-.1 2.1-.1 3.1.1.3.1.5.2.8 1.1 3.5 3.2 4.9 6.6 6 .8.3 1.5.5 2.1.8 3.9.2 8.1.1 11.4 0 1.1-.5 2-.9 2.9-1.3z"/><path class="st3" d="M2054.8 842.3c-.1 0-.3-.1-.5-.2h-1.5c-.8.3-1.5.5-2.3.9-1.9 2.3-4 5.5-3.7 8 .5 4.3-2.3 11.9-2.3 11.9 0 1.1-.1 2.1-.1 3.1.1.3.1.5.2.8 1.1 3.5 3.2 4.9 6.6 6 .8.3 1.5.5 2.2.8 1.3.1 2.7.1 4.1.1v-31.3c-.9.2-1.8.3-2.7-.1z"/><path class="st1" d="M2087 870.7h4v23h-4z"/><path class="st2" d="M2098.2 876.6c.7-.4 1.3-.8 1.9-1.2.9-1.7 1.6-3.5 2-5.3 0-2.7-.7-5.3-1.4-7.9-.2-.6-.1-1.1.2-1.6.1-1 .3-2 .6-3.1.7-2-1.6-8.9-7.4-12.1-.2 0-.3-.1-.5-.1-1.8.1-3.2.9-4.9 1.3-1.1.3-2.2.4-3.3 0-.1 0-.3-.1-.5-.2h-1.5c-.8.3-1.5.5-2.3.9-1.9 2.3-4 5.5-3.7 8 .5 4.3-2.3 11.9-2.3 11.9 0 1.1-.1 2.1-.1 3.1.1.3.1.5.2.8 1.1 3.5 3.2 4.9 6.6 6 .8.3 1.5.5 2.1.8 3.9.2 8.1.1 11.4 0 1.1-.5 2-.9 2.9-1.3z"/><path class="st3" d="M2085.5 846.5c-.1 0-.3-.1-.5-.2h-1.5c-.8.3-1.5.5-2.3.9-1.9 2.3-4 5.5-3.7 8 .5 4.3-2.3 11.9-2.3 11.9 0 1.1-.1 2.1-.1 3.1.1.3.1.5.2.8 1.1 3.5 3.2 4.9 6.6 6 .8.3 1.5.5 2.2.8 1.3.1 2.7.1 4.1.1v-31.3c-.9.2-1.8.3-2.7-.1z"/><path class="st4" d="M1922.9 786.5s16.8-17.6 67-17.6c50.3 0 53.1 14 53.1 14l100.5 3.5s25 0 27.9 9.4c5.6 17.6-55.9 16.4-55.9 16.4H1814s-14-4.7-14-12.9 19.5-10.5 30.7-10.5 92.2-2.3 92.2-2.3zM171.2 610.6s9.2-17.6 36.9-17.6c27.6 0 29.2 14 29.2 14l55.3 3.5s13.7 0 15.4 9.4c3.1 17.6-30.7 16.4-30.7 16.4h-166s-7.7-4.7-7.7-12.9 10.8-10.5 16.9-10.5c6.2 0 50.7-2.3 50.7-2.3z"/><path class="st5" d="M952.8 917.2s142.4-96.3 280.6-50.3c138.2 46.1 146.6 37.7 188.5 20.9 41.9-16.8 67-46.1 188.5-8.4s146.6 71.2 146.6 71.2-846.1 37.7-850.3 25.1c-4.1-12.4 46.1-58.5 46.1-58.5zM-20.1 694.9c14.8 0 137.7 11.2 162.8 14 25.1 2.8 2.8 27.9 27.9 30.7 25.1 2.8 41.9 0 64.2-2.8 22.3-2.8 67-33.5 75.4-30.7 8.4 2.8 55.9 2.8 72.6 2.8 16.8 0 30.7 16.8 33.5 61.4 2.8 44.7 19.5 64.2 27.9 64.2 8.4 0 5.6 30.7 5.6 39.1 0 8.4-245.7 58.6-254.1 58.6-8.4 0-209.4 11.9-209.4 11.9l-6.4-249.2zm2102.8 225.2s239.2-154.9 653-20.7c55.5 42.2-51 26-.8 31.3 50.2 5.3-47.5 5.3-47.5 5.3l-631.1 7.9 26.4-23.8z"/><path d="M405.2 907.2c8.4-5.6 78.2-16.8 97.7-78.2 19.5-61.4 61.7-184.3 64.5-203.9 2.8-19.5 61.4-25.1 61.4-33.5 0-8.4 39.1-44.7 47.5-44.7 8.4 0 50 2.8 195.2 2.8s98 22.3 98 22.3 75.1 41.9 86.3 248.5c2.8 22.3 9.8 53.1 29.3 64.2 26.8 15.3 128.5 60 128.5 60l-132.6 2.8L313 921l92.2-13.8z" fill="#b77138"/><path d="M1536.2 918.3s3.2-4.1 7.9-10.6c13.5-18.5 39.5-55.9 39.5-70.4 0-19.5 72.6-55.9 89.4-58.6 16.8-2.8 0-114.5 0-114.5l16.8-16.8s19.5-44.7 39.1-53.1c19.5-8.4 61.4-2.8 61.4-2.8l39.1 11.2 5.6 81s8.4 47.5 11.2 55.9c2.8 8.4 36.3 41.9 36.3 41.9s140 137.1 142.4 148c5.6 25.1-519.4 14-519.4 14l30.7-25.2z" fill="#bc6a12"/><path class="st5" d="M2838.9 923.5s42.5-13.3 40.1-16.6c-6.8-9.3 0-68.4 0-75.7 0-9.9-58.6-3.4-70.3-4.5-12.2-1.1-38.9-31.8-38.9-31.8l-8.5-8.5s-9.9-22.6-19.8-26.8c-9.9-4.2-31.1-1.4-31.1-1.4l-19.8 5.6-2.8 40.9s-4.2 24-5.6 28.2c-1.4 4.2-18.4 21.2-18.4 21.2s-70.8 69.3-72 74.8c-2.8 12.7 262.6 7.1 262.6 7.1l-15.5-12.5z"/><path fill="#d8a429" d="M-20.1 943.5H2879v666.7H-20.1z"/><path class="st9" d="M1060.9 945.4c-56.8-9.6-77.2-29.5-244.2-57.9-230-39.1-311.4-33.5-432-22.3C280 874.9 57.3 930.8 0 945.4h1060.9z"/><path class="st4" d="M1323.5 965.3l-1.3 11.1h4.5l.5-11.1zm2.5-21.9l-.4 3.2h2.4l.2-3.2z"/><path class="st9" d="M2881.6 944.2c1.3-29.3 4.2-102.6-.6-102.6-6 0-283 92.2-442.9 94.9-159.9 2.8-168.3-30.7-418-58.6-249.7-27.9-274.9 41.9-412.4 61.4-12.9 1.8-26.1 3.4-39.5 4.8h1313.4z"/><path class="st4" d="M1322.4 431c17.5-.7 554.1 0 554.1 0s61.2 2.9 58.3-23.3c-2.9-26.2-78.7-29.2-78.7-29.2s32.1-61.2-58.3-70c-90.4-8.7-142.9 29.2-142.9 29.2s-61.2-49.6-154.6-46.7c-93.3 2.9-105 58.3-105 58.3l-110.8 14.6s-67.1 11.7-61.2 37.9c5.8 26.2 23.3 32.1 99.1 29.2zm1245.3-131.2c-16.7-.6-433.7 0-433.7 0s-58.6 2.8-55.9-22.3c2.8-25.1 75.4-27.9 75.4-27.9s-68.4-61.2 18.1-69.6c86.6-8.4 77.7 30.5 77.7 30.5s58.6-47.5 148-44.7c89.4 2.8 100.5 55.9 100.5 55.9l106.1 14s64.2 11.2 58.6 36.3c-5.4 25-22.2 30.6-94.8 27.8zm-375.3 353.3h279.3s36.3 2.8 36.3-14-61.4-25.1-61.4-25.1-30.7-36.3-69.8-41.9c-39.1-5.6-58.6 39.1-58.6 39.1s-53.3-8-92.2-5.6c-44.8 2.8-103.4 47.5-33.6 47.5zM569.9 290s30.7-41.9 81-41.9 72.6 33.5 72.6 33.5l81 8.4s25 0 27.9 22.3c5.6 41.9-55.9 39.1-55.9 39.1H433.1s-36.3-11.2-36.3-30.7 41.9-25.1 53.1-25.1c11.1 0 120-5.6 120-5.6zm720.5 353.4s16.8-29.4 67-29.4c50.3 0 53.1 23.6 53.1 23.6l100.5 5.9s24.9 0 27.9 15.7c5.6 29.4-55.9 27.5-55.9 27.5h-301.6s-14-7.8-14-21.6c0-13.7 19.5-17.7 30.7-17.7s92.3-4 92.3-4z"/><path class="st2" d="M-24.9 1267.9l1149.1-324.4h-93.6L-24.9 1075z"/><path class="st10" d="M-24.9 948.7v84.9L919 946.3z"/><path class="st2" d="M1452.4 943.5L2491 1600.6l51.8.6 341 3.3v-1.8L1480.7 943.5zm157.6 0l1273.8 288.6V1110L1668.3 943.5z"/><path class="st10" d="M1728.6 943.5l1155.2 106.6V948.7l-839.8-5.2zM-24.9 1521.7l1178.2-578.2h-43.5L-24.9 1252.4z"/><path class="st1" d="M673.9 831.6h20.2v117.8h-20.2z"/><path class="st2" d="M658.5 695.4s-35.8 34.5-33.3 56.6-11.7 61.1-11.7 61.1-27 31.9-2.5 46.6c24.5 14.7 134.9 7.4 134.9 7.4s37.9-5.9 4.9-61.3c-7.3-12.3-7.4-27-2.5-41.7 5-14.7-21.1-83.4-89.8-68.7z"/><path class="st3" d="M679.7 693.5c-6.6-.2-13.6.3-21.2 2 0 0-35.8 34.5-33.3 56.6s-11.7 61.1-11.7 61.1-27 31.9-2.5 46.6c11.2 6.7 40.4 8.8 68.7 9.1V693.5z"/><path class="st1" d="M471.9 831.6h20.2v117.8h-20.2z"/><path class="st2" d="M456.5 695.4s-35.8 34.5-33.3 56.6-11.7 61.1-11.7 61.1-27 31.9-2.5 46.6c24.5 14.7 134.9 7.4 134.9 7.4s37.9-5.9 4.9-61.3c-7.3-12.3-7.4-27-2.5-41.7 5-14.7-21.1-83.4-89.8-68.7z"/><path class="st3" d="M477.7 693.5c-6.6-.2-13.6.3-21.2 2 0 0-35.8 34.5-33.3 56.6s-11.7 61.1-11.7 61.1-27 31.9-2.5 46.6c11.2 6.7 40.4 8.8 68.7 9.1V693.5z"/><path class="st1" d="M270.5 853.7h16.4v95.6h-16.4z"/><path class="st2" d="M317 878.2c2.8-1.6 5.5-3.2 8.1-5 3.8-6.9 6.7-14.5 8.3-22.1 0-11.1-2.7-22.1-5.6-32.9-.7-2.5-.2-4.7.7-6.5.3-4.2 1.2-8.5 2.6-12.8 2.7-8.2-6.6-37.1-30.8-50.5-.7-.1-1.3-.4-2-.5-7.4.5-13.2 3.8-20.2 5.4-4.5 1-9.3 1.8-13.8.1-.5-.2-1.3-.6-1.9-.8h-5.6c-.3 0-.5-.1-.8-.2-3.2 1.1-6.4 2.2-9.5 3.6-7.8 9.7-16.6 23-15.5 33.1 2 17.9-9.5 49.6-9.5 49.6l-.1.2c-.2 4.4-.5 8.8-.3 13 .3 1.1.5 2.2.8 3.2 4.7 14.6 13.5 20.2 27.6 24.9 3.3 1.1 6.2 2.1 8.9 3.5 16.1.8 33.7.6 47.4.1 3.5-1.9 7.4-3.6 11.2-5.4z"/><path class="st3" d="M264.1 753.4c-.5-.2-1.3-.6-1.9-.8h-5.6c-.3 0-.5-.1-.8-.2-3.2 1.1-6.4 2.2-9.5 3.6-7.8 9.7-16.6 23-15.5 33.1 2 17.9-9.5 49.6-9.5 49.6l-.1.2c-.2 4.4-.5 8.8-.3 13 .3 1.1.5 2.2.8 3.2 4.7 14.6 13.5 20.2 27.6 24.9 3.3 1.1 6.2 2.1 8.9 3.5 5.6.3 11.3.4 17 .5V753.8c-3.6.7-7.4.9-11.1-.4z"/><path class="st1" d="M106.4 949.4v-90.1s44.3-23.7 41.1-25.3c-3.2-1.6-26.9 12.6-26.9 12.6l22.1-63.2-37.9 61.6-4.7-45.8-28.5-38L89 796l1.6 23.7-34.8-3.2v-22.1l-7.9 22.1 34.8 11.1-3.2 25.3s-37.9-7.9-49-12.6c-11.1-4.8 56.9 28.4 56.9 28.4v79.1l19 1.6zm2451.4-69h12.5V953h-12.5z"/><path class="st2" d="M2593 898.9c2.1-1.2 4.2-2.4 6.1-3.8 2.9-5.2 5.1-11 6.3-16.8 0-8.5-2.1-16.8-4.3-25-.5-1.9-.2-3.5.5-4.9.2-3.2.9-6.4 2-9.7 2.1-6.3-5-28.2-23.4-38.3-.5-.1-1-.3-1.5-.4-5.6.4-10.1 2.9-15.4 4.1-3.4.8-7.1 1.4-10.5.1-.4-.1-1-.4-1.4-.6h-4.2c-.2 0-.4-.1-.6-.1-2.4.8-4.8 1.7-7.2 2.7-5.9 7.4-12.6 17.5-11.7 25.1 1.5 13.6-7.2 37.6-7.2 37.6l-.1.1c-.1 3.3-.4 6.7-.2 9.9.2.8.3 1.6.6 2.4 3.6 11 10.2 15.3 20.9 18.9 2.5.8 4.7 1.6 6.8 2.6 12.2.6 25.6.4 36 .1 2.7-1.3 5.7-2.6 8.5-4z"/><path class="st3" d="M2552.9 804.2c-.4-.1-1-.4-1.4-.6h-4.2c-.2 0-.4-.1-.6-.1-2.4.8-4.8 1.7-7.2 2.7-5.9 7.4-12.6 17.5-11.7 25.1 1.5 13.6-7.2 37.6-7.2 37.6l-.1.1c-.1 3.3-.4 6.7-.2 9.9.2.8.3 1.6.6 2.4 3.6 11 10.2 15.3 20.9 18.9 2.5.8 4.7 1.6 6.8 2.6 4.2.2 8.6.3 12.9.4v-98.8c-2.9.7-5.8.9-8.6-.2z"/><path class="st1" d="M2717.7 953.3l5.6-103.3s65.2-28.9 60.5-30.8c-4.6-1.9-39.6 15.4-39.6 15.4l-.5-93.1-22.8 91.1-7-55.8-20.2-66.5 3.9 62.7 2.3 28.9-34.5-22.8 8.7-50-19.6 56.2 33.7 26.2-4.6 30.8s-8.4-11.7-24.7-17.5c-16.3-5.8 36.4 36.7 36.4 36.7l6.7 89.8 15.7 2zm-415.9-105.5h8.3v48.4h-8.3z"/><path class="st2" d="M2325.3 860.1c1.4-.8 2.8-1.6 4.1-2.5 1.9-3.5 3.4-7.3 4.2-11.2 0-5.6-1.4-11.2-2.8-16.7-.3-1.3-.1-2.3.3-3.3.2-2.1.6-4.3 1.3-6.5 1.4-4.2-3.3-18.8-15.6-25.5-.3-.1-.7-.2-1-.3-3.7.3-6.7 1.9-10.2 2.7-2.3.5-4.7.9-7 0-.3-.1-.6-.3-1-.4h-2.8c-.1 0-.2-.1-.4-.1-1.6.5-3.2 1.1-4.8 1.8-4 4.9-8.4 11.6-7.8 16.8 1 9.1-4.8 25.1-4.8 25.1l-.1.1c-.1 2.2-.3 4.5-.2 6.6.1.6.2 1.1.4 1.6 2.4 7.4 6.8 10.2 13.9 12.6 1.7.6 3.1 1.1 4.5 1.8 8.2.4 17.1.3 24 .1 1.9-.9 3.9-1.7 5.8-2.7z"/><path class="st3" d="M2298.5 797c-.3-.1-.6-.3-1-.4h-2.8c-.1 0-.2-.1-.4-.1-1.6.5-3.2 1.1-4.8 1.8-4 4.9-8.4 11.6-7.8 16.8 1 9.1-4.8 25.1-4.8 25.1l-.1.1c-.1 2.2-.3 4.5-.2 6.6.1.6.2 1.1.4 1.6 2.4 7.4 6.8 10.2 13.9 12.6 1.7.6 3.1 1.1 4.5 1.8 2.8.1 5.7.2 8.6.2v-65.9c-1.7.4-3.6.5-5.5-.2z"/><path class="st1" d="M2414 892.8v-50.2s28.5-13.2 26.5-14.1c-2-.9-17.3 7-17.3 7l14.3-35.2-24.5 34.3-3.1-25.5-18.3-21.1 11.2 19.4 1 13.2-22.4-1.8v-12.3l-5.1 12.3 22.4 6.2-2 14.1s-24.5-4.4-31.6-7c-7.1-2.7 36.7 15.8 36.7 15.8v44l12.2.9z"/><path d="M1463.7 769.4l24.1-8.6s7.7 5.8 11.6 5.8c3.9 0-28 7.7-28 7.7l-15.5 6.8-3.7 6.7-.8-7.7 7.7-5.8-26.1-7.7 12.6-3.1c-.1.1 16 5.7 18.1 5.9zm-68.8 14.4l-16.4-5.8s-5.3 3.9-7.9 3.9c-2.6 0 19.1 5.3 19.1 5.3l10.5 4.6 2.5 4.5.5-5.2-5.2-3.9 17.8-5.2-8.1-4.7c0-.1-11.4 6.3-12.8 6.5z" fill="#635242"/><path class="st12" d="M-7.4 0h2871.6v1596.4H-7.4z"/><path fill="#293f4c" d="M-17.3 943.4h2881.5v686.1H-17.3z"/><path class="st4" d="M-.4 1432.2h289.7v24.5H-.4zm425 0h289.6v24.5H424.6zm425 0h289.6v24.5H849.6zm425.1 0h289.6v24.5h-289.6zm424.9 0h289.7v24.5h-289.7zm425.1 0h289.7v24.5h-289.7zm425 0h289.6v24.5h-289.6z"/></g><g id="Capa_2"><path class="st14" d="M515.4 1325.6l-130.1 120.2h1936.3l104.6-158.2z"/><path d="M1978.2 417c6.8-1.3 13.2-3.9 19.9-5.5 2.1-.5 1.2-3.7-.9-3.2-6.7 1.6-13.1 4.3-19.9 5.5-2.1.4-1.2 3.6.9 3.2zm-.1 28.1c6.8.7 13.6 1.2 20.2 3.3 2 .6 2.9-2.6.9-3.2-6.9-2.1-14-2.7-21.1-3.4-2.1-.3-2.1 3.1 0 3.3zm-3.3 33.2c8.5.5 15.4 8 22.8 11.6 1.9.9 3.6-1.9 1.7-2.9-8.1-3.9-15-11.5-24.4-12-2.3-.2-2.3 3.1-.1 3.3z" fill="#8bbdb7"/><path class="st16" d="M1863.1 523.9s3.6 3.2 9.2 3.2c7 0 8.5-3.2 8.5-3.2v-53.5h-17.6v53.5zm-26-77.4c.9 4.1 6.2 7.3 10.5 5.8V436c-5.4-1.4-11.7 5.2-10.5 10.5z"/><path d="M1950.7 499.3c-.3-.4-.9-1.1-1.7-1.9.5.9 1.1 1.5 1.7 1.9z" fill="#cb6963"/><path class="st16" d="M1951.9 397.2c-.3 0-.6.1-.9.2-4.5 2.1-8.1 20.5-8.8 43.9 2.6.1 4.8 4.1 4.8 8.9 0 4.8-2.1 8.7-4.7 8.9.7 18.2 3.3 32.7 6.6 38.2.8.8 1.3 1.5 1.7 1.9.1.1.2.2.4.2.3.1.6.2.9.2 5.4 0 9.7-23 9.7-51.3s-4.4-51.1-9.7-51.1z"/><path class="st18" d="M1951 499.7v-.2c-.1-.1-.2-.1-.4-.2.3.2.4.4.4.4z"/><path class="st19" d="M1903.9 419.9c-19.8 1.5-56.3.6-56.3.6v49.9h56.7s18.8 2.4 33.2 15.2c4.1 3.7 8.8 8.8 11.4 11.7-3.3-5.5-5.9-20.1-6.6-38.2-.1-3.5-.2-7-.2-10.7 0-2.4 0-4.8.1-7.1.6-23.5 4.2-41.8 8.8-43.9v-.2s-23.2 20.9-47.1 22.7z"/><path class="st20" d="M1942.5 466.1c4.6-.4 8.3-7.3 8.3-15.9 0-8.7-3.8-15.8-8.5-15.9-.1 4.2-.2 8.4-.2 12.7.1 6.6.2 13 .4 19.1z"/><path d="M1444.8 520.2l46.7-74.9h12.6l-46.4 74.9zm154.3-77.3l46.6 74.8h12.6l-46.4-74.8z" fill="#2a4a27"/><path class="st22" d="M1640.5 445.3l46.7 74.9h12.6l-46.4-74.9z"/><path d="M1540.4 220.5l1.7 1.7s6.8-5.6 4.4-17.1c-2.4-11.5-36.1-12.7-55.9 0-19.8 12.7-73.4 60.3-85.3 117.8-11.9 57.5-2.4 119.1-2.4 119.1h35.7l101.8-221.5z" fill="#9f572a"/><path d="M1754.6 442l-11.7 11.7-304.3-11.7s-9.9-97.3 24.6-152.3c28.4-45.4 52.1-57.7 77.2-69.2L1754.6 442z" fill="#bb9d54"/><path class="st22" d="M1420.1 527.3l46.7-74.9h12.5l-46.3 74.9z"/><path class="st22" d="M1479.3 452.4l-46.3 74.9h-12.9"/><path d="M1524.5 227.9l5.8 6s6.8-5.6 4.4-17.1c-2.4-11.5-36.1-12.7-55.9 0-19.8 12.7-73.4 60.3-85.3 117.8-11.9 57.5-2.4 119.1-2.4 119.1h35.7l97.7-225.8z" fill="#ce6f33"/><path d="M1742.9 453.7h-316s-9.9-97.3 24.6-152.3c28.4-45.4 48-62 73-73.5l218.4 225.8z" fill="#ebc467"/><path d="M1636.7 454c-2.3-16.7-3.5-33-22.8-38.4-22.5-6.4-36.3 8.3-41 29.3-.8 2.6-2 6.4-1.4 8.8 0-.1 64.9.1 65.2.3zm-44.1-125.6c6.2-.6 11.8 5.3 14.1 10.6 4.7 10.6 1.8 24.5-3.5 34.2-14.4 26.5-60.7 23-65.4-8.3-2.4-13.9 2.9-28.3 14.7-36 10.6-7.1 20.6-6.2 32.4-4.4l7.7 3.9zm-98.7 49.1c6.2-.6 11.8 5.3 14.1 10.6 4.7 10.6 1.8 24.5-3.5 34.2-14.4 26.5-60.7 23-65.4-8.3-2.4-13.9 2.9-28.3 14.7-36 10.6-7.1 20.6-6.2 32.4-4.4l7.7 3.9zm19.5-103.3c6.2-.6 11.8 5.3 14.2 10.6 4.7 10.6 1.8 24.5-3.5 34.2-14.4 26.5-60.7 23-65.4-8.3-2.4-13.9 2.9-28.3 14.7-36 10.6-7.1 20.6-6.2 32.4-4.4l7.6 3.9zm132.4 97.8c3.8-2.5 8.8-5 12.5-5.8 1.6 1.4 3.2 3.5 4.8 4.9 5.1 4.6 9 9.4 14.1 14.1 5.3 4.9 10.6 9.9 15.4 15.2 2.4 2.7 4.6 5.5 7 8.2.1.1.2.2.2.3-.9 2.6-2 5.2-3.3 7.4-14.5 26.5-60.7 23-65.4-8.3-2.4-13.8 2.9-28.3 14.7-36z" fill="#c64f34"/><path class="st28" d="M1514.4 333.3c2.4-.2 4.5 2 5.4 4 1.8 4 .7 9.3-1.3 13-5.5 10.1-23.1 8.8-24.9-3.1-.9-5.3 1.1-10.8 5.6-13.7 4-2.7 7.9-2.4 12.3-1.7l2.9 1.5zm36.6 64c2.4-.2 4.5 2 5.4 4 1.8 4 .7 9.3-1.4 13-5.5 10.1-23.1 8.8-24.9-3.1-.9-5.3 1.1-10.8 5.6-13.7 4-2.7 7.9-2.4 12.3-1.7l3 1.5zm82.2-29.8c2.4-.2 4.5 2 5.4 4 1.8 4 .7 9.3-1.3 13-5.5 10.1-23.1 8.8-24.9-3.1-.9-5.3 1.1-10.8 5.6-13.7 4-2.7 7.9-2.4 12.4-1.7l2.8 1.5zm62.5 55.6c2.4-.2 4.5 2 5.4 4 1.8 4 .7 9.3-1.3 13-5.5 10.1-23.1 8.8-24.9-3.1-.9-5.3 1.1-10.8 5.6-13.7 4-2.7 7.9-2.4 12.4-1.7l2.8 1.5zm-149.4-156.3c2.4-.2 4.5 2 5.4 4 1.8 4 .7 9.3-1.4 13-5.5 10.1-23.1 8.8-24.9-3.1-.9-5.3 1.1-10.8 5.6-13.7 4-2.7 7.9-2.4 12.3-1.7l3 1.5z"/><path d="M1658.3 366.2s15.7.2 25.2 7.5c6.6 5 13.7 20.6 14.6 24.6 1 4 1.6 10.6 1.6 10.6" fill="#9e422c"/><path class="st19" d="M988.6 517.4c0 17.4-14.1 31.4-31.5 31.4H768.4c-17.4 0-31.4-14.1-31.4-31.4 0-17.4 14.1-31.5 31.4-31.5h188.7c17.4.1 31.5 14.2 31.5 31.5zm431.7 0c0 17.4-14.1 31.4-31.4 31.4h-188.7c-17.4 0-31.4-14.1-31.4-31.4 0-17.4 14.1-31.5 31.4-31.5h188.7c17.3.1 31.4 14.2 31.4 31.5z"/><path class="st30" d="M917.2 517.4c0 17.4-14.1 31.4-31.4 31.4H697.1c-17.4 0-31.5-14.1-31.5-31.4 0-17.4 14.1-31.5 31.5-31.5h188.7c17.3.1 31.4 14.2 31.4 31.5zm431.7 0c0 17.4-14.1 31.4-31.4 31.4h-188.7c-17.4 0-31.4-14.1-31.4-31.4 0-17.4 14.1-31.5 31.4-31.5h188.7c17.3.1 31.4 14.2 31.4 31.5z"/><circle class="st31" cx="1236.4" cy="1300.4" r="106.3"/><path class="st31" d="M2267.4 1300.4c0 58.7-47.6 106.3-106.3 106.3-58.7 0-106.3-47.6-106.3-106.3 0-58.7 47.6-106.3 106.3-106.3 58.7 0 106.3 47.6 106.3 106.3z"/><path d="M425.7 1288.8l22.8 43.7s1952 3.3 1955.2 0c3.3-3.3 12.9-48.1 12.9-48.1l-445.9-99.7s-154.9-68.2-159.6-70.4c-4.7-2.2-1215.4 15.3-1215.4 15.3l-170 159.2z" fill="#393636"/><path d="M2380 1223.8h-.3c.2 1 .3 0 .3 0z" fill="#a7762c"/><path class="st19" d="M2380 1127c1.6-88.2 19.1-179-23.5-221.1-26.9-26.6-127.7-18.2-127.7-18.2s-90-170.2-98.7-280.3c-6.5-81.9-53.5-91.3-53.5-91.3s-1143.6 1.6-1198.8 0c-55.1-1.6-50.4 50.4-50.4 50.4v617.3l48.8.1v103.8H1107c5.7-66.3 61.3-118.3 129.1-118.3s123.4 52 129.1 118.3H2317v-63.8h62.7c-.4-2.3-.8-35.1.3-96.9z"/><path class="st34" d="M2218.9 803.6H827.3V557.7h1291.3z"/><path d="M2384 1068.9l-1556.7 1.3V803.6h1391.5l8.7 69.3s97.1 4.2 129 30.8c42 35.1 27.5 165.2 27.5 165.2z" fill="#712223"/><path class="st18" d="M1980.6 1223.8h-.3c.1 1 .3 0 .3 0z"/><path class="st28" d="M1980.6 1127c1.6-88.2 19.1-179-23.5-221.1-26.9-26.6-127.7-18.2-127.7-18.2s-90-170.2-98.7-280.3c-6.5-81.9-53.5-91.3-53.5-91.3s-1143.6 1.6-1198.8 0c-55.1-1.6-50.4 50.4-50.4 50.4v617.3l48.8.1v103.8h230.8c5.7-66.3 61.3-118.3 129.1-118.3s123.4 52 129.1 118.3h951.8v-63.8h62.7c-.4-2.3-.8-35.1.3-96.9z"/><path class="st4" d="M1819.4 803.6H427.9V557.7h1291.3z"/><path class="st36" d="M1984.6 1068.9l-1556.7 1.3V803.6h1391.5l8.7 69.3s97.1 4.2 129 30.8c42 35.1 27.5 165.2 27.5 165.2z"/><path class="st31" d="M938.3 1300.4c0 58.7-47.6 106.3-106.3 106.3-58.7 0-106.3-47.6-106.3-106.3 0-58.7 47.6-106.3 106.3-106.3 58.7 0 106.3 47.6 106.3 106.3z"/><path class="st37" d="M913.2 1300.4c0 44.8-36.3 81.1-81.1 81.1s-81.1-36.3-81.1-81.1 36.3-81.1 81.1-81.1c44.7 0 81.1 36.3 81.1 81.1z"/><path class="st38" d="M887.3 1300.4c0 30.5-24.7 55.3-55.3 55.3-30.5 0-55.3-24.7-55.3-55.3 0-30.5 24.7-55.3 55.3-55.3 30.5.1 55.3 24.8 55.3 55.3z"/><path class="st31" d="M1862.2 1300.4c0 58.7-47.6 106.3-106.3 106.3-58.7 0-106.3-47.6-106.3-106.3 0-58.7 47.6-106.3 106.3-106.3 58.7 0 106.3 47.6 106.3 106.3z"/><path class="st37" d="M1837 1300.4c0 44.8-36.3 81.1-81.1 81.1s-81.1-36.3-81.1-81.1 36.3-81.1 81.1-81.1 81.1 36.3 81.1 81.1z"/><path class="st38" d="M1811.1 1300.4c0 30.5-24.7 55.3-55.3 55.3-30.5 0-55.3-24.7-55.3-55.3 0-30.5 24.7-55.3 55.3-55.3 30.6.1 55.3 24.8 55.3 55.3z"/><path class="st39" d="M429.4 1183.7h-20s-11.5 0-11.7 11.5v81.4c1.1 11 9 11 11.5 11h69v-103.8l-48.8-.1z"/><path class="st28" d="M783.7 657.2h7.7v266.1h-7.7z"/><path class="st28" d="M616.8 678.2h375.7v348.9H616.8z"/><path fill="#2b0b0d" d="M627 691h355.4v323.4H627z"/><path class="st41" d="M627 691h156.7v323.4H627z"/><path class="st4" d="M627.6 936.9H983v77.5H627.6z"/><path class="st42" d="M744.9 844c-6.3-14.6-17.8-26.4-27.9-38.4-11.3-13.3-23-26.2-34.4-39.4-5.1-6 3.5-14.7 8.7-8.7 12.6 14.7 25.6 29 38.1 43.8 9.6 11.4 20.1 22.7 26.1 36.4 3.1 7.3-7.5 13.5-10.6 6.3z"/><path class="st28" d="M627 923.3h356v18.1H627z"/><path class="st14" d="M627 941.1h356v18.1H627z"/><path class="st42" d="M727.5 870.1c-21-31.7-49.1-57.3-73.9-85.9-5.2-5.9 3.5-14.7 8.7-8.7 25.6 29.3 54.3 55.7 75.9 88.3 4.2 6.7-6.4 12.9-10.7 6.3z"/><path class="st14" d="M1564.9 903.7V569.6h95.2l95.6 234 9.7 100.1z"/><path class="st41" d="M1581.3 887.4V585.9h67.8l90.6 221.7 7.7 79.8z"/><path class="st14" d="M1581.3 757.4V585.9h67.8l19.8 48.4z"/><path class="st42" d="M1683.2 769.4c-5.2-12-14.6-21.6-22.9-31.5-9.2-10.9-18.9-21.5-28.3-32.3-4.2-4.9 2.9-12.1 7.1-7.1 10.4 12 21.1 23.8 31.3 35.9 7.9 9.3 16.5 18.6 21.4 29.9 2.6 5.9-6 11-8.6 5.1zm-14.3 21.4c-17.2-26-40.3-47.1-60.7-70.5-4.3-4.9 2.8-12 7.1-7.1 21 24.1 44.6 45.8 62.3 72.5 3.6 5.5-5.1 10.5-8.7 5.1z"/><path class="st14" d="M1296.6 569.6h227.2v718h-227.2z"/><path class="st4" d="M1312.9 585.9h194.5v685.3h-194.5z"/><path class="st30" d="M1312.9 864h194.5v407.3h-194.5z"/><path class="st41" d="M1312.9 585.9h194.5v265.4h-194.5z"/><path class="st14" d="M1507.4 649.8v-63.9h-194.5v239.5z"/><path class="st28" d="M1312.9 851.3h194.5v17.2h-194.5z"/><path class="st42" d="M1451.4 743.1c-5.2-12-14.6-21.6-22.9-31.5-9.2-10.9-18.9-21.5-28.3-32.3-4.2-4.9 2.9-12.1 7.1-7.1 10.4 12 21.1 23.8 31.3 35.9 7.9 9.3 16.5 18.6 21.4 29.9 2.7 5.9-6 11-8.6 5.1zm-14.3 21.4c-17.2-26-40.3-47.1-60.7-70.5-4.3-4.9 2.8-12 7.1-7.1 21 24.1 44.6 45.8 62.3 72.5 3.6 5.5-5.1 10.5-8.7 5.1z"/><path class="st28" d="M1402.2 580.6h15v270.7h-15z"/><path class="st4" d="M1256.5 894.6l-65.9-63.8c-9.4-9.1-21.9-14.1-35.2-14.1-13.3 0-25.8 5-35.2 14.1l-65.9 63.8c-19.4 18.8-19.4 49.4 0 68.2l65.9 63.8c9.4 9.1 21.9 14.1 35.2 14.1 13.3 0 25.8-5 35.2-14.1l65.9-63.8c19.4-18.8 19.4-49.4 0-68.2z"/><path class="st43" d="M1184.5 1022.3c-16.1 15.6-42.2 15.6-58.3 0l-67.5-65.4c-16.1-15.6-16.1-40.9 0-56.5l67.5-65.4c16.1-15.6 42.2-15.6 58.3 0l67.5 65.4c16.1 15.6 16.1 40.9 0 56.5l-67.5 65.4z"/><path class="st4" d="M1260.3 882l-2.2-9.7c-.5-2-2-3.6-4-4-2-.4-4 .3-5.2 2-1.4 2.1-2.8 4-4.2 5.6-.3.3-.5.6-.8.9.3-1.7.6-3.4.9-5.2.4-1.9.7-3.8 1-5.6.3-2 .5-3.9.5-5.7 0-1.5-.2-2.7-.5-3.7-.5-1.5-1.2-2.7-2.3-3.6-1.1-1-2.5-1.6-3.9-1.7-.8-.1-1.6-.1-2.4 0-.4 0-.8.1-1.2.2h-.4c-.6-.7-1.3-1.2-2.2-1.7-1.4-.8-3-1.1-4.8-.9-2.7.3-5.4 1.2-8 2.6-2.3 1.3-4.6 3-6.7 4.9-.9.8-1.7 1.7-2.5 2.6-.3-.9-.7-1.7-1.2-2.5-1.3-1.9-3.5-3.1-5.8-3.2h-1.4c-.5.1-1.1.2-1.6.4-.1 0-.2 0-.3.1-.1 0-.4.1-1.2.2-.6.1-1.5.2-2.6.4l-1.4.2c-.4.1-.9.1-1.4.1h-.2c-.6-.2-1.1-.4-1.6-.7-.9-.4-1.8-.8-2.6-1.1-1.5-.5-3-.7-4.5-.5-1.4.2-2.9.6-4.4 1.1-1.7.7-3.3 1.8-4.8 3.2l-.4.4c-1-.3-2.2-.4-3.3-.3-.5.1-1.1.2-1.6.4-.1 0-.2.1-.3.1-.1 0-.4.1-1.2.2-.6.1-1.5.2-2.6.4l-1.4.2c-.4 0-.9.1-1.4.1h-.2c-.5-.2-1.1-.4-1.6-.7-.9-.4-1.7-.8-2.6-1.1-1.5-.5-3-.7-4.5-.5-1.4.2-2.9.5-4.4 1.1-.6.2-1.2.5-1.7.9.8-1.1 1.5-2.3 1.9-3.6.5-1.5.7-3 .7-4.6 0-2-.4-3.7-1.2-5.2-.9-1.6-2.1-2.9-3.7-3.8-1.3-.8-2.8-1.3-4.4-1.5-1.4-.2-2.8-.2-4.3 0-2.4.3-4.4.9-6.1 1.9-1 .6-1.9 1.3-2.7 2-.3-.8-.6-1.6-1-2.4-1.6-3.5-4.1-6.6-7.3-9.1-3.1-2.4-7-4.2-11.6-5.3-4.4-1-9.5-1.2-15.1-.6-4.4.5-8.6 1.7-12.5 3.6-3.8 1.8-7.4 4.2-10.7 7.1-3.2 2.8-6.1 6.2-8.6 9.9s-4.7 7.8-6.4 12.1c-1.7 4.3-3.1 8.9-4 13.7-.9 4.8-1.4 9.7-1.4 14.8 0 2.9.2 6 .5 9.2.3 3.3.8 6.5 1.5 9.7.7 3.2 1.6 6.4 2.7 9.3 1.2 3.1 2.7 5.9 4.4 8.3 1.9 2.6 4.3 4.6 6.9 6.1 2.1 1.1 4.4 1.7 6.8 1.8.9 0 1.9 0 2.9-.1 3-.3 5.7-1.2 8.2-2.6 2.4-1.3 4.5-3 6.5-4.9 1.9-1.9 3.5-4.1 4.9-6.5 1.3-2.3 2.5-4.7 3.4-7.2.9-2.5 1.6-5.1 2.1-7.6s.8-5 .8-7.4v-.9c0-.5 0-1 .1-1.7 0-.6 0-1.3.1-2l.1-2.4c0-.8.1-1.7.1-2.5 3.8-1.3 7.2-2.8 10.3-4.7 3.3-2 6.1-4.3 8.5-6.7-.2.7-.4 1.5-.6 2.2-.7 2.8-1.4 5.6-2 8.3-.6 2.8-1.2 5.6-1.7 8.2-.5 2.8-.7 5.3-.7 7.5 0 1.8.2 3.4.6 5 .5 1.9 1.4 3.6 2.7 5 1.3 1.4 3 2.4 5 3 1 .3 2 .4 3.1.5.9 0 1.9 0 2.9-.1 2.2-.3 4.6-.9 7-2 2.1-.9 4.2-2 6.2-3.3.1 0 .1 0 .2.1 1.4.5 3 .7 4.7.5.7-.1 1.5-.3 2.4-.5.8.3 1.6.5 2.3.7 1.2.4 2.3.6 3.3.8 1 .2 1.9.4 2.6.5.5.1.9.1 1.1.1h1c1.8-.2 3.7-.6 5.7-1.3 1.9-.6 3.8-1.4 5.6-2.3 1-.5 2.1-1.1 3.1-1.7 1.1.2 2.3.3 3.5.1.8-.1 1.5-.3 2.4-.5.8.3 1.6.5 2.3.7 1.2.3 2.3.6 3.3.8 1 .2 1.8.4 2.6.4.5.1.9.1 1.2.1h1c1.8-.2 3.7-.7 5.7-1.3 1.9-.6 3.8-1.4 5.6-2.3 1.4-.7 2.7-1.4 4-2.2 1.2.8 2.6 1.5 4 1.9 2.1.6 4.2.8 6.3.6 1.9-.2 3.7-.7 5.5-1.5 1.6-.7 3.2-1.6 4.7-2.6.9-.6 1.7-1.2 2.5-1.8.3.3.6.6 1 .9 2.4 2 5.6 2.9 9 2.5 2.4-.3 4.7-1.1 6.9-2.4 1.9-1.2 3.8-2.5 5.4-4.1 1.6-1.5 3.1-3 4.4-4.6 1.3-1.6 2.3-2.9 3.1-4.1-.1-1.2.1-2.6-.2-3.9zm-182.1 25.2c-.5 1.2-1.1 2.2-1.8 3l-.4.4c-.3-.5-.7-1.2-1-2.2-.5-1.6-1-3.4-1.2-5.4-.3-2.2-.5-4.5-.7-6.7-.1-2.2-.2-4.4-.2-6.3v-7.2c.3.3.6.6 1 .9 1.2 1 2.7 1.8 4.7 2.6.7.3 1.6.6 2.5.9 0 .9 0 1.9-.1 3-.1 1.8-.2 3.8-.4 5.9-.2 2-.5 4-.9 6.1-.5 1.8-.9 3.5-1.5 5zm28.6-46.8c-.7.7-1.4 1.4-2.3 2l1.3-5.4c.1-.3.1-.6.1-.9 0-.3.1-.6.1-1 0-1.8-.5-3.5-1.5-4.8-.8-1.2-1.9-2.1-3.2-2.7-1.1-.5-2.3-.8-3.5-.9h-.4c-.7 0-1.5 0-2.2.1-2.8.3-5.1 1.3-7.1 3-1.7 1.4-3 3.1-4.1 5.1-.9 1.8-1.7 3.7-2.1 5.8-.4 1.8-.8 3.6-.9 5.3 0 .2 0 .3-.1.5-.5-.2-.9-.4-1.3-.5-.6-.2-1.3-.3-2-.4h-1.1c-.2 0-.3.1-.5.1.7-2 1.6-4 2.5-5.9 1.2-2.4 2.7-4.6 4.4-6.5 1.6-1.8 3.4-3.3 5.4-4.5 1.9-1.1 4-1.8 6.4-2.1 3.5-.4 6.3-.4 8.4.1 1.9.4 3.4 1 4.4 1.8.8.6 1.4 1.3 1.7 2.1.4 1.1.6 2.1.6 3.1 0 1.1-.2 2.1-.7 3.2-.6 1.2-1.3 2.4-2.3 3.4z"/><path class="st28" d="M1125.4 851.4c0-3.1-.6-6.1-1.9-8.9-1.3-2.8-3.2-5.1-5.8-7.1-2.5-1.9-5.7-3.4-9.6-4.3-3.8-.9-8.3-1.1-13.4-.5-3.9.4-7.5 1.5-11 3.1-3.4 1.6-6.6 3.8-9.5 6.4-2.9 2.6-5.6 5.6-7.9 9.1-2.3 3.4-4.3 7.2-6 11.2-1.6 4-2.9 8.3-3.8 12.8-.9 4.5-1.3 9.1-1.3 13.8 0 2.7.1 5.7.4 8.7.3 3.1.7 6.1 1.4 9.1.6 3 1.5 5.8 2.5 8.5s2.3 5 3.7 7c1.5 2 3.2 3.5 5.1 4.5 2 1 4.2 1.4 6.7 1.1 2.3-.3 4.5-1 6.5-2 2-1.1 3.7-2.4 5.3-4.1 1.6-1.6 3-3.5 4.2-5.6 1.2-2.1 2.2-4.2 3.1-6.4.8-2.2 1.5-4.5 1.9-6.8.4-2.3.7-4.5.7-6.6v-2.7c0-.7 0-1.4.1-2.1 0-.8.1-1.5.1-2.3.1-1.8.1-3.8.2-6 4.8-1.3 8.9-3 12.4-5.2s6.5-4.6 8.8-7.3c2.3-2.7 4.1-5.5 5.2-8.5 1.3-3 1.9-6 1.9-8.9zm-11.8 7.3c-.7 1.7-1.7 3.3-3.1 4.8-1.4 1.5-3.2 2.9-5.3 4.1-2.2 1.2-4.7 2.2-7.7 3l.4-3.6 2.8-11.8v-.7c0-.8-.2-1.3-.5-1.8-.3-.4-.7-.8-1.2-1-.5-.2-1-.4-1.6-.4h-1.7c-1.8.2-3.3.8-4.5 1.8-1.2 1-2.2 2.3-3 3.7-.7 1.4-1.3 3-1.7 4.6-.4 1.7-.7 3.2-.8 4.7-.2 1.5-.3 2.8-.3 4v2.3c-.5 0-1.2-.2-1.8-.3-.6-.1-1.3-.3-2.1-.6-.8-.2-1.7-.6-2.7-1-.4-.2-.7-.3-1-.4-.3-.1-.5-.1-.8-.1-.5 0-.8.2-1.1.5-.3.3-.5.6-.6 1.1-.1.4-.2.9-.3 1.4v1.6c0 1 .1 1.9.3 2.6.2.7.7 1.4 1.4 2 .7.6 1.8 1.2 3.3 1.8 1.4.6 3.4 1.2 5.9 1.9v2.1c0 1.4 0 3-.1 5s-.2 4-.4 6.2-.5 4.4-1 6.5c-.4 2.2-1 4.2-1.7 5.9-.7 1.8-1.6 3.3-2.7 4.4-1.1 1.2-2.4 1.9-4 2.1-1.5.2-2.7-.3-3.7-1.4-1-1.1-1.8-2.6-2.5-4.5s-1.1-4-1.5-6.4c-.3-2.4-.6-4.7-.7-7.1-.2-2.3-.2-4.5-.3-6.6v-4.9c0-3 .2-6.1.7-9.3.4-3.2 1.1-6.3 2-9.4.9-3.1 2.1-6 3.5-8.8 1.4-2.8 3.1-5.3 5-7.5s4.1-4 6.6-5.4c2.5-1.4 5.3-2.3 8.3-2.7 4.1-.5 7.5-.4 10.2.2 2.7.6 4.9 1.5 6.5 2.8 1.6 1.3 2.7 2.7 3.4 4.4.7 1.7 1 3.3 1 5 .2 1.8-.2 3.5-.9 5.2zm18.1-1.4c1.3 1.1 3.2 1.5 5.9 1.2 1.5-.2 2.9-.6 4-1.2s2-1.3 2.7-2.1c.7-.8 1.3-1.7 1.6-2.7.3-1 .5-2 .5-3 0-1.1-.2-2-.6-2.8-.4-.8-1-1.3-1.7-1.8-.7-.4-1.5-.7-2.5-.8-.9-.1-1.9-.1-3 0-1.7.2-3.1.6-4.3 1.3-1.1.7-2 1.4-2.7 2.2-.7.8-1.2 1.7-1.5 2.6-.3.9-.5 1.7-.5 2.4.2 2.1.9 3.6 2.1 4.7zm121.8 15.5c-1.5 2.2-3 4.2-4.5 6-.6.8-1.3 1.5-2 2.2-.7.7-1.4 1.4-2.1 2-.7.6-1.4 1.1-2.1 1.5-.7.4-1.4.6-2 .7-.8.1-1.4-.2-1.7-1-.3-.8-.4-1.8-.4-3.2 0-1.6.1-3.4.4-5.3.3-1.9.6-3.7 1-5.6.4-1.9.7-3.7 1-5.5.3-1.8.4-3.4.4-4.8 0-.9-.1-1.6-.2-2.2-.2-.5-.4-.9-.7-1.2-.3-.3-.7-.4-1-.5h-1.3c-.3 0-.7.1-1 .1-.3.1-.7.1-1 .1-.4.1-.8.1-1.2.1-.4 0-.7 0-1.1-.2-.4-.1-.7-.3-.9-.6-.2-.3-.5-.6-.8-.9-.3-.3-.6-.6-1-.8-.4-.2-.9-.3-1.6-.2-2.1.2-4.2.9-6.2 2s-3.9 2.5-5.8 4.2c-1.8 1.7-3.5 3.6-5 5.8-1.5 2.2-2.9 4.5-4 6.8-1.1 2.4-2 4.8-2.6 7.2-.5 1.8-.7 3.5-.9 5.1-.2.1-.3.3-.5.4-.7.7-1.5 1.3-2.2 2.1-.8.7-1.6 1.4-2.5 2.1-.9.7-1.9 1.2-2.9 1.7s-2.2.8-3.5 1c-.6.1-1.2 0-2-.1s-1.5-.3-2.2-.4c-.7-.2-1.3-.3-1.8-.5-.5-.1-.8-.2-.8-.2l.2-.9c.3-.4.8-1.1 1.6-2.2s1.7-2.4 2.8-3.9c1.1-1.5 2.2-3.1 3.4-4.8 1.2-1.7 2.3-3.3 3.4-4.9 1.1-1.6 2.1-3 2.9-4.3.9-1.3 1.4-2.3 1.8-3 1.3-.5 2.2-.9 2.7-1.4.6-.4.9-.8.9-1 .2-1 .3-1.8.3-2.6 0-1.3-.2-2.2-.7-2.9-.5-.7-1.2-1-2.3-.8-.1 0-.2.1-.4.1-.2.1-.4.2-.8.3-.4.1-.9.2-1.7.3-.7.1-1.7.3-2.9.4-.4.1-.9.1-1.4.2-.5.1-1.1.1-1.7.2-.8.1-1.6 0-2.3-.3-.7-.3-1.5-.6-2.2-.9-.7-.3-1.4-.6-2.2-.9-.7-.3-1.5-.4-2.2-.3-1 .1-2 .4-3.2.8-1.1.4-2.2 1.2-3.3 2.2-1 1-2 2.3-2.8 4.1-.3.6-.5 1.2-.8 1.9v-.8c0-1.2-.2-2.2-.7-2.9-.5-.7-1.2-.9-2.3-.8-.1 0-.2.1-.4.1-.2.1-.4.2-.8.3-.4.1-.9.2-1.7.3-.7.1-1.7.3-2.9.4-.4.1-.9.1-1.4.2-.5.1-1.1.1-1.7.1-.8.1-1.5 0-2.3-.3-.7-.3-1.5-.6-2.2-.9-.7-.3-1.4-.6-2.2-.9-.7-.3-1.5-.3-2.2-.3-1 .1-2 .4-3.2.8-1.1.4-2.2 1.2-3.3 2.2-1 1-2 2.4-2.8 4.1-.9 1.7-1.5 3.9-2 6.5-.1.4-.1.7-.1 1.1v1c0 .7.1 1.3.3 1.7.2.4.5.6 1 .5.5-.1 1.1-.5 1.7-1.2.6-.8 1.4-1.9 2.4-3.4.4-.7.8-1.3 1.2-1.6.3-.4.7-.7 1.2-.9.4-.2 1-.4 1.6-.5.6-.1 1.4-.2 2.4-.3h1.1c.3 0 .7.1 1 .3.3.1.7.3 1.1.4.4.2.9.3 1.4.5l-10.6 15.2c-1 .9-2.2 2-3.5 3.3-1.3 1.3-2.6 2.5-4 3.8-1.4 1.2-2.7 2.3-4 3.2-1.3.9-2.5 1.4-3.6 1.5-.9.1-1.6-.2-1.9-1-.3-.7-.5-1.8-.5-3.1 0-1.4.2-2.9.5-4.7.3-1.8.7-3.6 1.1-5.4.5-1.9.9-3.7 1.5-5.6.5-1.9 1-3.6 1.4-5.2.5-1.6.8-3.1 1.1-4.3.3-1.3.5-2.2.5-2.9 0-.8-.2-1.4-.7-1.8-.5-.4-1.3-.5-2.6-.4-.7.1-1.5.2-2.3.5-.9.3-1.7.6-2.5 1s-1.5 1-2.2 1.6c-.6.6-1.1 1.3-1.3 2.1-.6 2.3-1.2 4.8-1.9 7.6-.7 2.7-1.4 5.5-2 8.2-.6 2.7-1.2 5.4-1.6 7.9-.4 2.5-.7 4.7-.7 6.6 0 1.3.1 2.6.4 3.6.3 1.1.8 2 1.4 2.7.7.7 1.5 1.2 2.6 1.5 1.1.3 2.4.4 4 .2 1.8-.2 3.6-.7 5.6-1.6 2-.9 3.9-1.9 5.8-3 .9-.5 1.7-1.1 2.6-1.7.1.1.1.2.2.3.4.5 1 .9 1.7 1.1.7.2 1.5.3 2.4.2.9-.1 1.9-.4 3-.9 1.3.5 2.6 1 3.7 1.3 1.1.3 2.1.6 3 .8.9.2 1.5.3 2.1.4.5.1.8.1 1 .1 1.5-.2 3.1-.5 4.8-1.1 1.7-.6 3.3-1.2 4.9-2 1.6-.8 3.2-1.7 4.7-2.7.1 0 .1-.1.2-.1.3.2.7.4 1.1.6.7.2 1.5.3 2.4.2.8-.1 1.9-.4 3-.9 1.3.5 2.6 1 3.7 1.3 1.1.3 2.1.6 3 .7.8.2 1.5.3 2 .4.5.1.8.1 1 .1 1.5-.2 3.1-.5 4.8-1.1 1.7-.6 3.3-1.2 4.9-2 1.6-.8 3.2-1.7 4.7-2.7.8-.5 1.5-1 2.1-1.5.4.6.8 1.1 1.3 1.5 1.1 1 2.3 1.6 3.7 2.1 1.4.4 2.8.5 4.2.4 1.4-.2 2.7-.5 4.1-1.1 1.4-.6 2.7-1.3 3.9-2.2 1.3-.9 2.4-1.8 3.5-2.8 1.1-1 1.9-1.9 2.7-2.9 1 2.3 2.1 4 3.5 5.1 1.3 1.1 3 1.6 5 1.3 1.7-.2 3.3-.8 5-1.8 1.7-1 3.2-2.2 4.7-3.5 1.5-1.3 2.8-2.7 3.9-4.1 1.2-1.4 2.1-2.7 2.8-3.7l-1.9-9.6zm-74.7 13.6h-.3c-.8.1-1.5.4-2.2.8-.7.5-1.4 1-2.1 1.7-.7.7-1.5 1.3-2.2 2.1-.8.7-1.6 1.4-2.5 2.1-.9.7-1.9 1.3-2.9 1.7-1 .5-2.2.8-3.5 1-.6.1-1.3 0-2-.1-.8-.1-1.5-.3-2.2-.4-.7-.2-1.3-.3-1.8-.5-.5-.1-.8-.2-.8-.2l.2-.9c.3-.4.8-1.1 1.6-2.2s1.7-2.4 2.8-3.9c1.1-1.5 2.2-3.1 3.4-4.8 1.2-1.7 2.3-3.3 3.5-4.9 1.1-1.6 2.1-3 2.9-4.3.9-1.3 1.5-2.3 1.8-3 1.3-.5 2.2-.9 2.7-1.4.2-.1.3-.2.4-.3-.2.7-.3 1.4-.4 2.1-.1.4-.1.7-.1 1.1v1c0 .7.1 1.3.3 1.7.2.4.5.6 1 .5.5-.1 1.1-.5 1.7-1.2.6-.7 1.4-1.9 2.4-3.4.4-.7.8-1.3 1.2-1.7.3-.4.7-.7 1.2-.9.4-.2 1-.4 1.6-.5.6-.1 1.4-.2 2.4-.3h1.1c.3.1.7.1 1 .3.3.1.7.3 1.1.4.4.2.9.3 1.4.5l-12.7 17.9zm49.4-11c-.1 1-.4 2.2-.8 3.7s-.9 2.9-1.6 4.4c-.7 1.4-1.5 2.6-2.4 3.7-.9 1.1-1.9 1.6-3 1.8-.7.1-1.3 0-1.7-.3-.5-.3-.8-.7-1.1-1.2-.3-.5-.5-1.1-.6-1.8-.1-.7-.2-1.4-.2-2.2 0-1.3.2-2.7.5-4.3.3-1.5.8-3.1 1.5-4.6.6-1.6 1.4-3 2.3-4.5.9-1.4 1.8-2.7 2.9-3.9 1-1.2 2.2-2.1 3.3-2.9 1.2-.8 2.4-1.2 3.6-1.3l-2.7 13.4z"/><path d="M1244.6 973.3s0-.5-.1-1.4c0 .8.1 1.4.1 1.4zm-13.4-16s7.8-2.1 9.8-2.6c1.6-.4 3.1 12.8 3.5 17.2-.4-4.1-1.3-16 .2-17.3 1.8-1.5 7.4 8.2 7.4 8.2s-4.4-7.9-6.3-12.7c-.6-1.5-1-3-1.4-4.4-1 1.8-1.6 2.9-1.6 2.9l-1.7-1.4c-.5 5.5-9.9 10.1-9.9 10.1z" fill="#d1ccc6"/><path d="M1077.9 936c9-4 7.5-2.8 18.5-7.4 10.9-4.6 5.5-6.2 17-8.3 11.4-2 19.4-1.7 21-1.8 1.6-.1 31-4.7 32.9-5.4 1.9-.7 33.7 1.7 40.6 1.6 6.8-.1 9.7 2.2 15.8 3.1 6.1 1 4.2 4.7 9 4.2 4.8-.4 8.7-3.3 14.8 2.2 6 5.4 16.8 17.9 18.8 24.2 2 6.3-.7 13-8.9 20.9-8.2 7.9-23.5 17.6-34.7 23.3-11.3 5.8-40.5 10.7-52.1 11.5-11.7.8-23.1 1.2-37.8 1.8-14.8.6-30.9-.5-34.7-2.7-3.9-2.2-27.2-2.8-33.6-9-6.3-6.2-12.6-11.4-12.6-20.4.1-9-2.1-25.2 26-37.8z" fill="#f8ecca"/><path class="st43" d="M1063.7 952.6c7.6-13.9 23.8-18.6 32-21.2 8.2-2.6 33.4-14.5 44.8-15.5 11.4-1 23.2-.8 28.8-1.3 5.6-.5-11.8-.8 17 1.5 28.4 2.2 39.1 5.5 39.1 5.5s14.9 5.8 16.4 5.6c1.5-.1 8.2 2.6 10.1 5.9 1.8 3.3 6.9 8.3 8.4 12.8s-4.5 9.6-5.9 11.4c-1.4 1.9-6.4 6.5-9.7 8-3.4 1.5-.6 10.8-30.9 18.7-30.8 8.1-69.9 12.8-81.2 11-11.4-1.8-35.5.8-45.6-3.6-10.1-4.4-39.6-8.8-23.3-38.8z"/><path d="M1069.4 969.8c5 4.7.2 2.6 20.6 5.7 20.2 3.1 9.8 9.3 21.7 9.3 11.8 0 7.3-1.4 27.7-2.9 20.2-1.5 39.1.9 43.3.5 4.2-.4 11.6-2.5 18.5-4.5s7.3-2 13.1-5.1c5.8-3.1 12.7-3.8 17.6-6.2 4.9-2.3 10.8-12.8 12-14.8 1.2-2 12.2-6.7 2.1-12.5s-22.3-13.3-33-13c-10.7.3-2.2-3.5-30.4-3.5-28.7 0-32.4 1.6-41.4 3.7s-1.5-.5-17.2 4.1c-15.8 4.6-5.4-.1-15.8 4.6-10.5 4.8-16.7 7.9-21.8 11.6-5.2 3.7-10.9 6.8-10.9 6.8s-16 3.5-5.2 13.4c10.8 10-.9 2.8-.9 2.8z" fill="#ebc792"/><path class="st47" d="M1130.4 973.5c-.3-3.4-5.3-5.7-11.2-5.1-5.9.6-10.4 3.8-10.1 7.3.3 3.4 5.3 5.7 11.2 5.1 5.9-.6 10.4-3.9 10.1-7.3zm109.9-20.4c-.2-2.9-4.3-4.8-9-4.3-4.8.5-8.4 3.2-8.2 6 .3 2.9 4.3 4.8 9.1 4.3s8.4-3.2 8.1-6zm-68.2 20.9c-.3-3.6-5.5-6-11.7-5.4-6.2.6-10.9 4.1-10.6 7.7.3 3.6 5.6 6 11.8 5.4 6.1-.7 10.8-4.1 10.5-7.7zm19.7-23.2c-.2-2.3-3.6-3.9-7.5-3.5-4 .4-7 2.6-6.8 4.9.2 2.3 3.6 3.9 7.6 3.5 3.9-.3 6.9-2.5 6.7-4.9zm44.6-13.3c-.2-2.3-3.5-3.9-7.4-3.5-3.9.4-6.9 2.5-6.6 4.8.2 2.3 3.5 3.9 7.4 3.5 3.8-.3 6.8-2.4 6.6-4.8zm-102.2-2c-.4-4-6.3-6.8-13.2-6.2-7 .6-12.4 4.4-12 8.5.4 4.1 6.3 6.8 13.3 6.1 6.9-.6 12.3-4.4 11.9-8.4zm40.3-1.7c-.3-3.3-5-5.5-10.6-5s-9.9 3.6-9.7 6.9c.3 3.3 5.1 5.6 10.7 5 5.6-.5 9.9-3.6 9.6-6.9zm-63.1 23.7c-.4-5.1-7.9-8.5-16.8-7.7-8.9.8-15.7 5.7-15.3 10.8.5 5.1 8 8.5 16.9 7.7 8.9-.9 15.6-5.8 15.2-10.8z"/><path class="st48" d="M1116.1 937.4c.2-.6 0-1.2-.4-1.4-.4-.2-.8.1-1 .6-.2.6 0 1.2.4 1.4.4.2.9-.1 1-.6zm7.8-2.6c.3-.9-.3-1.9-1.3-2.5-.9-.5-1.9-.2-2.2.6-.2.8.3 1.9 1.3 2.5 1 .5 2 .3 2.2-.6zm4.1 3.1c.2-.8-.1-1.6-.7-2-.6-.3-1.3 0-1.5.8-.2.8.1 1.6.7 2 .6.4 1.3 0 1.5-.8zm36.5 36c.6-.1 1.1-.7 1-1.3-.1-.6-.7-1-1.3-.9-.6.1-1.1.7-1 1.4.1.5.6.9 1.3.8zm-46.8-.2c.6-.1 1.1-.7 1-1.4-.1-.6-.7-1-1.3-.9-.6.1-1.1.7-1 1.4 0 .7.6 1.1 1.3.9zm43.5 4.3c.6-.1 1-.7 1-1.4-.1-.6-.7-1-1.3-.9-.6.1-1.1.7-1 1.4.1.6.7 1 1.3.9zm-5.9-.5c.6-.1 1.1-.7 1-1.4-.1-.6-.7-1-1.3-.9-.6.1-1.1.7-1 1.4.1.6.7 1 1.3.9zm-33.4-1.8c.6-.1 1.1-.7 1-1.4-.1-.6-.7-1-1.3-.9-.6.1-1.1.7-1 1.4.1.7.6 1.1 1.3.9zm42.5-42.2c.6-.1 1-.7 1-1.3-.1-.6-.7-1-1.3-.9-.6.1-1.1.7-1 1.3.1.6.7 1 1.3.9zm-3.4 3.5c.6-.1 1-.7 1-1.3-.1-.6-.7-1-1.3-.9-.6.1-1 .7-1 1.3.1.7.7 1 1.3.9zm21.4 16c.6-.1 1-.7 1-1.3-.1-.6-.7-1-1.3-.9-.6.1-1 .7-.9 1.3 0 .6.6 1 1.2.9zm-77.4 6c1-.2 1.7-1.1 1.5-2.1-.1-1-1.1-1.6-2.1-1.4-1 .2-1.7 1.1-1.5 2.1.1.9 1.1 1.6 2.1 1.4z"/><path class="st47" d="M1161.7 953.1c-.5-5.2-8.1-8.8-17.1-7.9-9 .8-16 5.8-15.5 11.1s8.2 8.8 17.2 7.9c9-.9 15.9-5.9 15.4-11.1z"/><path class="st48" d="M1137.6 956.7c1.2-.2 2-1.3 1.8-2.5-.2-1.2-1.2-1.9-2.4-1.7-1.2.2-2 1.3-1.8 2.5.2 1.1 1.3 1.9 2.4 1.7zm9.3 1.8c1.2-.2 2-1.3 1.8-2.5-.2-1.2-1.2-1.9-2.4-1.7-1.2.2-2 1.3-1.8 2.5.2 1.2 1.2 2 2.4 1.7zm3.2-6.5c.9-.2 1.5-1 1.4-1.9-.1-.9-.9-1.5-1.8-1.3-.9.2-1.5 1-1.4 1.9.1.9.9 1.5 1.8 1.3z"/><path class="st47" d="M1217.5 961c-.5-5.2-7.9-8.7-16.7-7.8-8.8.9-15.6 5.8-15.2 11.1.5 5.2 8 8.7 16.8 7.8 8.9-.9 15.6-5.9 15.1-11.1z"/><path class="st48" d="M1195 965.7c.8-.2 1.4-1 1.3-1.8-.1-.8-.9-1.4-1.7-1.2-.8.2-1.4 1-1.3 1.8.2.8.9 1.3 1.7 1.2zm6.3-3.8c.8-.2 1.4-1 1.3-1.8-.1-.8-.9-1.4-1.7-1.2-.8.2-1.4 1-1.3 1.8.2.8.9 1.3 1.7 1.2zm6.3 2.3c.6-.1 1-.7 1-1.4-.1-.6-.7-1-1.3-.9-.6.1-1 .7-1 1.4.1.6.7 1 1.3.9zm-38.9-28.2c.5-.1.8-.5.7-1-.1-.5-.5-.8-1-.7-.5.1-.8.6-.7 1 .1.5.6.8 1 .7zm17.9 15.3c.5-.1.8-.5.7-1-.1-.5-.5-.8-1-.7-.5.1-.8.5-.7 1 .1.5.5.8 1 .7z"/><path class="st47" d="M1208.6 935.7c-.3-3.5-5.3-5.9-11.2-5.3-5.9.5-10.5 3.8-10.2 7.4.3 3.5 5.4 5.9 11.3 5.3 5.9-.6 10.4-3.9 10.1-7.4z"/><path class="st48" d="M1192.6 940.5c.7-.1 1.2-.8 1.1-1.5-.1-.7-.7-1.2-1.4-1-.7.1-1.2.8-1.1 1.5.1.7.7 1.2 1.4 1zm6.6-4.7c.7-.1 1.2-.8 1.1-1.5-.1-.7-.7-1.2-1.4-1-.7.1-1.2.8-1.1 1.5.1.7.7 1.1 1.4 1zm5.6 1.2c.7-.1 1.2-.8 1.1-1.5-.1-.7-.7-1.2-1.4-1-.7.1-1.2.8-1.1 1.5.1.7.7 1.1 1.4 1zm26.5 3.7c.4-.1.8-.5.7-1-.1-.5-.5-.8-.9-.7-.5.1-.8.5-.7 1 0 .5.4.8.9.7zm.3 14.1c.5-.1.8-.5.7-1-.1-.5-.5-.8-.9-.7-.5.1-.8.5-.7 1 0 .4.4.7.9.7z"/><path class="st4" d="M1384.4 894.6c0 4-3.2 7.2-7.2 7.2H1336c-4 0-7.2-3.2-7.2-7.2s3.2-7.2 7.2-7.2h41.2c3.9 0 7.2 3.2 7.2 7.2z"/><path class="st49" d="M464 1138.7c0 8.6-5.1 15.6-11.3 15.6s-11.3-7-11.3-15.6 5.1-15.6 11.3-15.6 11.3 7 11.3 15.6z"/><path class="st50" d="M460.8 1138.3c0 6.9-4 12.4-9 12.4s-9-5.6-9-12.4 4-12.4 9-12.4 9 5.5 9 12.4z"/><g class="st51"><path class="st18" d="M453.1 1143.3c-.7-1.8-1.2-3.7-1.4-5.6-.2-1.7-.3-3.3-.2-5 .1-1.5.3-3.4 1.2-4.7h-.6c-3.9 0-7 4.3-7 9.7 0 5.3 3.1 9.7 7 9.7 1.2 0 2.3-.4 3.3-1.1-1.1-.7-1.8-1.9-2.3-3z"/></g><path class="st18" d="M1978.4 1195.2h-.3c.2 1.1.3 0 .3 0z"/><path class="st52" d="M2396.6 1303.7h28.1s16.1 0 16.5-8.9v-63.1c-1.6-8.5-12.6-8.5-16.1-8.5h-97v80.4l68.5.1z"/><path class="st52" d="M1977.8 1223.3h406.7v80.3h-406.7z"/><path class="st49" d="M2376.4 1036.3c0 11.8-9.7 21.3-21.6 21.3h-36.2c-11.9 0-21.6-9.6-21.6-21.3v-78.1c0-11.8 9.7-21.3 21.6-21.3h36.2c11.9 0 21.6 9.6 21.6 21.3v78.1z"/><path class="st53" d="M2318.5 1054.1c-10 0-18.1-8-18.1-17.8v-78.1c0-9.8 8.1-17.8 18.1-17.8h36.2c10 0 18.1 8 18.1 17.8v78.1c0 9.8-8.1 17.8-18.1 17.8h-36.2z"/><path class="st49" d="M2338.6 1021.7c-15.2 0-27.6-15.4-27.6-34.4v-.8c0-4.2.7-8.2 2-12.1 4.2-13.1 14.3-21.5 25.6-21.5 15.2 0 27.6 15.4 27.6 34.4 0 18.9-12.4 34.4-27.6 34.4z"/><path class="st52" d="M2362.6 987.3c0 17-10.8 30.8-24.1 30.8s-24.1-13.8-24.1-30.8 10.8-30.8 24.1-30.8c13.4-.1 24.1 13.7 24.1 30.8z"/><ellipse class="st49" cx="2335.6" cy="986.5" rx="21.1" ry="27"/><path class="st49" d="M2327.7 1038.1c0 6.5-3.8 11.7-8.5 11.7s-8.5-5.2-8.5-11.7c0-6.4 3.8-11.7 8.5-11.7s8.5 5.3 8.5 11.7z"/><path class="st50" d="M2325.3 1037.8c0 5.1-3 9.3-6.8 9.3-3.7 0-6.8-4.2-6.8-9.3 0-5.1 3-9.3 6.8-9.3s6.8 4.2 6.8 9.3z"/><g class="st51"><path class="st18" d="M2319.6 1041.6c-.6-1.3-.9-2.8-1.1-4.2-.2-1.3-.2-2.5-.1-3.8.1-1.1.2-2.5.9-3.5h-.4c-2.9 0-5.3 3.3-5.3 7.3s2.4 7.3 5.3 7.3c.9 0 1.7-.3 2.5-.9-.9-.5-1.5-1.4-1.8-2.2z"/></g><ellipse class="st49" cx="2360.5" cy="1038.1" rx="8.5" ry="11.7"/><ellipse class="st50" cx="2359.8" cy="1037.8" rx="6.8" ry="9.3"/><g class="st51"><path class="st18" d="M2360.8 1041.6c-.6-1.3-.9-2.8-1.1-4.2-.2-1.3-.2-2.5-.1-3.8.1-1.1.2-2.5.9-3.5h-.4c-2.9 0-5.3 3.2-5.3 7.3 0 4 2.4 7.3 5.3 7.3.9 0 1.7-.3 2.5-.9-.9-.5-1.4-1.4-1.8-2.2z"/></g><path d="M2372.8 1175c0 11.9-18.4 21.6-41.1 21.6h-283.3c-22.7 0-41.1-9.6-41.1-21.6v-78.3c0-11.9 18.4-21.5 41.1-21.5h283.3c22.7 0 41.1 9.6 41.1 21.5v78.3z" fill="#15431d"/><path class="st20" d="M2048.5 1186c-13.2 0-23.9-5.7-23.9-12.6V1095c0-7 10.7-12.6 23.9-12.6h283.3c13.2 0 23.9 5.7 23.9 12.6v78.3c0 7-10.8 12.6-23.9 12.6h-283.3z"/><path class="st4" d="M2024.5 1093h330.3v5.4h-330.3zm0 15.3h330.3v5.4h-330.3zm0 15.2h330.3v5.4h-330.3zm0 15.3h330.3v5.4h-330.3zm0 15.3h330.3v5.4h-330.3zm0 15.3h330.3v5.4h-330.3z"/><path class="st39" d="M1961.8 1303.7h22.7s13 0 13.3-8.9v-63.1c-1.3-8.5-10.2-8.5-13-8.5h-78.5v80.4l55.5.1z"/><path class="st14" d="M2187.9 779.5c4.6 8.8-.6 15.9-11.6 15.9h-310.7c-11 0-21.4-7.1-23.2-15.9l-85.6-197.7c-1.7-8.8 4.1-15.9 12.8-15.9H2070c8.8 0 19.4 7.1 23.8 15.9l94.1 197.7z"/><path class="st41" d="M1862.6 782.2c-1.5 0-3.1-1.2-3.4-2.7l-.2-.7-88.5-197.4c-.1-1.3.7-2.2 1.8-2.2h304c1.2 0 2.9 1.2 3.6 2.7l.3.6 91.1 197.5c.4 1.3-.2 2.3-1.6 2.3h-307.1z"/><path d="M2090.5 647.2l20.9 35-113.9 100h-57.7zm-227.9 135c-1.5 0-3.1-1.2-3.4-2.7l-.2-.7-88.5-197.4c-.1-1.3.7-2.2 1.8-2.2h304c1.2 0 2.9 1.2 3.6 2.7l.3.6-217.6 199.7z" fill="#81a9ca"/><path class="st14" d="M1830.3 714.7l-59.7-133.3c-.1-1.3.7-2.2 1.8-2.2h205.1l-147.2 135.5z"/><path d="M1973.4 735.1c15.6-17.4 22.5-40.9 43.3-53.7 5.6-3.5-4.8-12.7-10.4-9.2-21.5 13.3-28.8 37.4-45.1 55.4-4.5 4.9 7.7 12.3 12.2 7.5zm-33.9-41.9c29.9-22.4 48.4-56.8 84.7-70.6 9.8-3.8-3.1-21-12.9-17.1-37.6 14.4-57 49.5-88.1 72.9-8.6 6.2 7.8 21.1 16.3 14.8z" fill="#9bc8eb"/><path class="st14" d="M2054.7 789.5s-29.9-57.1-56-108.2c-12.8-25.6-25.4-51.1-34.7-70.3-4.6-9.6-8.5-17.6-11.1-23.2-5-10.5-7.6-16.2-7.6-16.2l6.4.4 3 6.3c1.8 4.2 72.2 142.9 108.7 211.7l-8.7-.5z"/><path class="st49" d="M2096.5 1036.3c0 11.8-10.9 21.3-24.3 21.3h-40.6c-13.4 0-24.3-9.6-24.3-21.3v-78.1c0-11.8 10.9-21.3 24.3-21.3h40.6c13.4 0 24.3 9.6 24.3 21.3v78.1z"/><path class="st53" d="M2031.7 1054.1c-11.4 0-20.7-8-20.7-17.8v-78.1c0-9.8 9.3-17.8 20.7-17.8h40.6c11.4 0 20.7 8 20.7 17.8v78.1c0 9.8-9.3 17.8-20.7 17.8h-40.6z"/><path class="st49" d="M2052 1021.7c-15.2 0-27.6-15.4-27.6-34.4v-.8c0-4.2.7-8.2 2-12.1 4.2-13.1 14.3-21.5 25.6-21.5 15.2 0 27.6 15.4 27.6 34.4 0 18.9-12.4 34.4-27.6 34.4z"/><path class="st52" d="M2076 987.3c0 17-10.8 30.8-24.1 30.8s-24.1-13.8-24.1-30.8 10.8-30.8 24.1-30.8c13.4-.1 24.1 13.7 24.1 30.8z"/><ellipse class="st49" cx="2049" cy="986.5" rx="21.1" ry="27"/><path class="st49" d="M2041.1 1038.1c0 6.5-3.8 11.7-8.5 11.7s-8.5-5.2-8.5-11.7c0-6.4 3.8-11.7 8.5-11.7s8.5 5.3 8.5 11.7z"/><path class="st50" d="M2038.7 1037.8c0 5.1-3 9.3-6.8 9.3-3.7 0-6.8-4.2-6.8-9.3 0-5.1 3-9.3 6.8-9.3s6.8 4.2 6.8 9.3z"/><g class="st51"><path class="st18" d="M2033 1041.6c-.6-1.3-.9-2.8-1.1-4.2-.2-1.3-.2-2.5-.1-3.8.1-1.1.2-2.5.9-3.5h-.4c-2.9 0-5.3 3.3-5.3 7.3s2.4 7.3 5.3 7.3c.9 0 1.7-.3 2.5-.9-.9-.5-1.5-1.4-1.8-2.2z"/></g><path class="st49" d="M2082.4 1038.1c0 6.4-3.8 11.7-8.5 11.7s-8.5-5.2-8.5-11.7c0-6.5 3.8-11.7 8.5-11.7s8.5 5.3 8.5 11.7z"/><path class="st50" d="M2080 1037.8c0 5.1-3 9.3-6.8 9.3-3.7 0-6.8-4.2-6.8-9.3s3-9.3 6.8-9.3 6.8 4.2 6.8 9.3z"/><g class="st51"><path class="st18" d="M2074.2 1041.6c-.6-1.3-.9-2.8-1.1-4.2-.2-1.3-.2-2.5-.1-3.8.1-1.1.2-2.5.9-3.5h-.4c-2.9 0-5.3 3.2-5.3 7.3 0 4 2.4 7.3 5.3 7.3.9 0 1.7-.3 2.5-.9-.9-.5-1.4-1.4-1.8-2.2z"/></g><path class="st49" d="M1917.6 1138.7c0 8.6-5.1 15.6-11.3 15.6-6.2 0-11.3-7-11.3-15.6s5.1-15.6 11.3-15.6c6.2 0 11.3 7 11.3 15.6z"/><path class="st50" d="M1914.4 1138.3c0 6.9-4 12.4-9 12.4s-9-5.6-9-12.4 4-12.4 9-12.4 9 5.5 9 12.4z"/><g class="st51"><path class="st18" d="M1906.7 1143.3c-.7-1.8-1.2-3.7-1.4-5.6-.2-1.7-.3-3.3-.2-5 .1-1.5.3-3.4 1.2-4.7h-.6c-3.9 0-7 4.3-7 9.7 0 5.3 3.1 9.7 7 9.7 1.2 0 2.3-.4 3.3-1.1-1.1-.7-1.8-1.9-2.3-3z"/></g><ellipse class="st49" cx="1906.3" cy="1055.5" rx="11.3" ry="15.6"/><path class="st50" d="M1914.4 1055.1c0 6.9-4 12.4-9 12.4s-9-5.6-9-12.4c0-6.9 4-12.4 9-12.4s9 5.6 9 12.4z"/><g class="st51"><path class="st18" d="M1906.7 1060.1c-.7-1.8-1.2-3.7-1.4-5.6-.2-1.7-.3-3.3-.2-5 .1-1.5.3-3.4 1.2-4.7h-.6c-3.9 0-7 4.3-7 9.7 0 5.3 3.1 9.7 7 9.7 1.2 0 2.3-.4 3.3-1.1-1.1-.6-1.8-1.9-2.3-3z"/></g><ellipse class="st49" cx="452.7" cy="1055.5" rx="11.3" ry="15.6"/><path class="st50" d="M460.8 1055.1c0 6.9-4 12.4-9 12.4s-9-5.6-9-12.4c0-6.9 4-12.4 9-12.4s9 5.6 9 12.4z"/><g class="st51"><path class="st18" d="M453.1 1060.1c-.7-1.8-1.2-3.7-1.4-5.6-.2-1.7-.3-3.3-.2-5 .1-1.5.3-3.4 1.2-4.7h-.6c-3.9 0-7 4.3-7 9.7 0 5.3 3.1 9.7 7 9.7 1.2 0 2.3-.4 3.3-1.1-1.1-.6-1.8-1.9-2.3-3z"/></g><path class="st16" d="M1819.4 803.6h399.5l8.7 69.3h-399.4z"/><path class="st36" d="M573.5 651.5v96.1c1.7-14.9 14.8-26.6 30.8-26.6 15.5 0 28.4 11 30.6 25.3v-94.8h63.8v95.9c1.8-14.8 14.9-26.4 30.8-26.4 15.6 0 28.5 11.1 30.7 25.4v-95H824V747c1.9-14.7 14.9-26 30.8-26 15.7 0 28.7 11.3 30.7 25.8v-95.4h63.8v95.4c2-14.6 15-25.8 30.7-25.8 17.1 0 31 13.4 31 29.8H510v-99.4h63.5z"/><path class="st28" d="M949.4 747v-95.4h62.4V751h-.6c0 16.5-13.9 29.8-31 29.8-16.9 0-30.6-13-31-29.2v-.7c-.1-1.2 0-2.6.2-3.9z"/><path class="st36" d="M886.5 750.9c0 16.5 13.9 29.8 31 29.8s31-13.3 31-29.8-13.9-29.8-31-29.8c-17.2 0-31 13.4-31 29.8z"/><path class="st28" d="M824.1 747.2v-95.6h61.5V747c.2 1.3.3 2.6.3 4v.7c-.4 16.2-14.1 29.2-31 29.2s-30.6-13-31-29.2v-.7c-.1-1.3 0-2.5.2-3.8z"/><path class="st36" d="M761.2 750.9c0 16.5 13.9 29.8 31 29.8s31-13.3 31-29.8-13.9-29.8-31-29.8-31 13.4-31 29.8z"/><path class="st28" d="M698.8 747.6v-95.9h61.5v95c.2 1.4.3 2.9.3 4.4v.7c-.4 16.2-14.1 29.2-31 29.2s-30.6-13-31-29.2v-.7c0-1.2.1-2.4.2-3.5z"/><path class="st36" d="M636 750.9c0 16.5 13.9 29.8 31 29.8s31-13.3 31-29.8-13.9-29.8-31-29.8-31 13.4-31 29.8z"/><path class="st28" d="M573.5 747.8v-96.1H635v94.8c.2 1.5.4 3 .4 4.5v.7c-.4 16.2-14.1 29.2-31 29.2s-30.6-13-31-29.2v-.7c-.1-1.1 0-2.2.1-3.2z"/><path class="st36" d="M510.7 750.9c0 16.5 13.9 29.8 31 29.8s31-13.3 31-29.8-13.9-29.8-31-29.8-31 13.4-31 29.8z"/><path class="st34" d="M510.1 651.5h501.6l28.1-43.7H562.7z"/><path d="M993.9 669.4l28.1-43.7H544.9l-52.6 43.7v99.4h.6c0 16.5 13.9 29.8 31 29.8s31-13.3 31-29.8h.6v.8c.4 16.2 14.1 29.1 31 29.1s30.6-13 31-29.1v-.8h.6c0 16.5 13.9 29.8 31 29.8s31-13.3 31-29.8h.6v.8c.4 16.2 14.1 29.1 31 29.1s30.6-13 31-29.1v-.8h.6c0 16.5 13.9 29.8 31 29.8s31-13.3 31-29.8h.6v.8c.4 16.2 14.1 29.1 31 29.1s30.6-13 31-29.1v-.8h.6c0 16.5 13.9 29.8 31 29.8s31-13.3 31-29.8h.6v.8c.4 16.2 14.1 29.1 31 29.1 17.1 0 31-13.3 31-29.8h.6v-99.5l-62.4.1v-.1h62.6zm-251.5 0l-61.5.1v-.1h61.5zm-125.3 0l-61.5.1v-.1h61.5zm250.6.1h-61.5v-.1l61.5.1z" opacity=".1" fill="#211915"/></g><g id="Capa_3"><path class="st4" d="M1427.3 1565.4l-1.5-3.2c-.7-1.5-2.7-2.3-4.3-1.6-1.8.6-2.6 2.4-1.8 3.9l1.7 3.6 13.2 28.6c.1.1.2.3.3.4 0 .1.1.1.1.1l.3.3c0 .1.1.1.1.2.2.1.3.2.4.3h.1c.2.1.4.3.5.3h.1s.1 0 .1.1c.1 0 .4.1.5.1h.1c.2.1.4.1.6.1.2 0 .4 0 .6-.1h.1c.2-.1.3-.1.5-.1l.1-.1c.2-.1.4-.2.5-.3h.1c.1-.1.2-.2.4-.3.1-.1.1-.1.1-.2l.3-.3c.1 0 .1 0 .1-.1.1-.1.2-.3.2-.4l.6-1.2-3.6-7.8-10.5-22.3zm128.5-.2c1-1.4.8-3.3-.7-4.2-1.5-1-3.5-.8-4.7.7l-6.9 8.6 4.1 5 8.2-10.1zm-102-4.6c-1.6-.7-3.6.1-4.4 1.6l-8.8 19 3.6 7.8 11.4-24.4c.7-1.6-.1-3.4-1.8-4zm-78.2-11.6c-1.4-1.4-3.3-2.2-5.3-2.2s-3.9.8-5.3 2.2l-24.4 24.4c-2.9 2.9-2.9 7.7 0 10.7l24.4 24.4c1.4 1.4 3.3 2.2 5.3 2.2s3.9-.8 5.3-2.2l24.4-24.4c1.4-1.4 2.2-3.3 2.2-5.3s-.8-3.9-2.2-5.3l-24.4-24.5zm20.6 31.9l-23.8 23.8c-1.2 1.2-3.2 1.2-4.4 0l-23.8-23.8c-1.2-1.2-1.2-3.2 0-4.4l23.8-23.8.1-.1v19.7c-1 .3-1.9.8-2.6 1.6-1.3 1.3-2 2.9-2 4.7 0 1.8.7 3.5 2 4.7 1.3 1.3 2.9 2 4.7 2 1.8 0 3.5-.7 4.7-2 2.6-2.6 2.6-6.8 0-9.5-.7-.7-1.6-1.3-2.6-1.6v-19.7l.1.1 23.8 23.8c.6.6.9 1.4.9 2.2 0 .9-.3 1.7-.9 2.3zm148.1-1.5l-4.1-5.1-10.2-12.7c-1-1.4-3.2-1.7-4.6-.7-1.5.9-1.8 2.8-.8 4.2l11.5 14.2-11.5 14.3c-1 1.3-.7 3.3.8 4.2.5.4 1.2.6 1.9.6 1 0 2-.5 2.7-1.3l10.2-12.7 10.9 13.7c.6.8 1.6 1.2 2.6 1.2.7 0 1.5-.3 2.1-.8 1.4-1.1 1.5-3.1.4-4.4l-11.9-14.7zm-53.6-19.4c-9.8 0-17.8 8.7-17.8 19.3 0 10.6 8 19.2 17.8 19.2 6 0 11.6-3.3 14.8-8.8.8-1.4.4-3.2-1-4.2-.4-.3-1-.4-1.5-.4-1 0-2 .6-2.5 1.5-2.1 3.6-5.8 5.9-9.8 5.9-5.9 0-10.9-4.7-11.8-11.1h26.4c1.7 0 2.9-1.3 2.9-2.9v-.4c-.6-10.4-8.2-18.1-17.5-18.1zm-11.3 15.2c1.6-5.4 6.1-9 11.3-9 5.2 0 9.6 3.7 11.1 9h-22.4zm162.9 17.1h-4.6c-1.7 0-3.7-1-3.7-3.8v-30.7c0-1.8-1.5-3.3-3.3-3.3-1.7 0-3.3 1.5-3.3 3.3v30.7c0 6.1 4 10 10.3 10h4.7c1.6-.1 2.9-1.5 2.9-3.1-.1-1.7-1.4-3-3-3.1zm50.1-10.2c-1.4-2-3.6-3.5-6.1-4.6-2.4-1.1-5.3-1.8-8.4-2.3h-.1c-3.3-.6-6-1.4-7.6-2.4-.8-.5-1.3-1-1.6-1.4-.3-.4-.4-.9-.4-1.5 0-1.2.7-2.4 2.3-3.5 1.6-1.1 4.1-1.9 6.8-1.9 3.7 0 6.7 1.7 9.8 3.5 1.5.9 3.4.5 4.3-.8 1-1.3.5-3-.8-3.9-3.1-1.8-7.4-4.4-13.2-4.4-3.9 0-7.6 1.1-10.5 2.9-2.8 1.9-4.9 4.7-4.9 8.1 0 1.6.5 3.2 1.4 4.5 1.3 1.9 3.3 3.3 5.6 4.3s5 1.7 7.8 2.2h.1c3.6.6 6.5 1.5 8.3 2.6.9.6 1.4 1.1 1.8 1.7.4.6.5 1 .5 1.8 0 1.4-.8 2.8-2.6 4-1.8 1.2-4.5 2-7.6 2-4.3.1-8.9-2.3-11.6-4.2-1.3-1-3.3-.8-4.4.4-1 1.2-.9 3 .5 4 3.5 2.5 9 5.5 15.5 5.5 4.3 0 8.2-1.2 11.2-3.1 3-2 5.2-5 5.2-8.6.2-1.9-.4-3.5-1.3-4.9zm-100.5-22.1c-9.8 0-17.8 8.7-17.8 19.3 0 10.6 8 19.2 17.8 19.2 6 0 11.6-3.3 14.8-8.8.8-1.4.4-3.2-1-4.2-.5-.3-1-.4-1.5-.4-1 0-2 .6-2.5 1.5-2 3.6-5.8 5.9-9.8 5.9-5.9 0-10.9-4.7-11.8-11.1h26.5c1.6 0 2.9-1.3 2.9-2.9v-.4c-.7-10.4-8.3-18.1-17.6-18.1zm-11.3 15.2c1.6-5.4 6.1-9 11.3-9 5.2 0 9.6 3.7 11.1 9h-22.4zm-421.6 6.1v3.1c0 .9.1 1.8.3 2.7h-1.8l-.7-2.4h-.1c-.4.8-1.1 1.4-2 2-.9.5-1.9.8-3 .8-2.2 0-3.9-.7-5-2.1-1.1-1.4-1.6-3.6-1.6-6.6 0-2.9.7-5.1 2-6.6 1.4-1.5 3.2-2.2 5.6-2.2.8 0 1.5 0 2 .1s1 .2 1.6.4v-7h2.7v17.8zm-6.8 3.8c1.1 0 2.1-.3 2.7-.9.7-.6 1.1-1.5 1.4-2.7v-8.4c-.4-.3-.9-.5-1.4-.7-.5-.1-1.2-.2-2.1-.2-1.6 0-2.8.5-3.6 1.5-.9 1-1.3 2.7-1.3 4.9 0 .9.1 1.8.2 2.6s.4 1.5.7 2c.3.6.8 1 1.3 1.3.6.5 1.3.6 2.1.6zm24.3.6c-.7.5-1.5 1-2.5 1.3-1 .3-2.1.5-3.3.5-1.3 0-2.4-.2-3.3-.6-.9-.4-1.7-1-2.3-1.8-.6-.8-1.1-1.7-1.3-2.8-.3-1.1-.4-2.3-.4-3.6 0-2.9.6-5.1 1.9-6.6 1.3-1.5 3.1-2.3 5.5-2.3.8 0 1.5.1 2.3.3.8.2 1.4.5 2.1 1 .6.5 1.1 1.1 1.5 2 .4.9.6 2 .6 3.4 0 .7-.1 1.6-.2 2.5H1166c0 1 .1 1.9.3 2.6.2.8.5 1.4.9 1.9s1 .9 1.7 1.2c.7.3 1.5.4 2.5.4.8 0 1.5-.1 2.3-.4.8-.3 1.3-.6 1.7-.9l1.1 1.9zm-5.8-13.5c-1.3 0-2.4.3-3.2 1-.8.7-1.3 1.9-1.4 3.6h8.4c0-1.7-.3-2.9-1-3.6-.7-.7-1.7-1-2.8-1zm18 10.3c0-.7-.2-1.2-.6-1.6-.4-.4-.9-.7-1.5-1-.6-.3-1.2-.5-2-.7-.7-.2-1.4-.5-2-.9-.6-.4-1.1-.8-1.5-1.4-.4-.6-.6-1.4-.6-2.4 0-1.6.5-2.8 1.4-3.6.9-.8 2.2-1.1 3.8-1.1 1.2 0 2.2.1 3 .3.8.2 1.5.5 2.1.8l-.6 2.2c-.5-.2-1.1-.5-1.9-.7-.7-.2-1.5-.3-2.3-.3-1 0-1.7.2-2.2.5-.5.3-.7.9-.7 1.8 0 .6.2 1 .6 1.4.4.3.9.6 1.5.9.6.3 1.2.5 2 .8.7.2 1.4.6 2 1 .6.4 1.1.9 1.5 1.5.4.6.6 1.4.6 2.4 0 .7-.1 1.4-.4 2-.2.6-.6 1.2-1.1 1.6-.5.5-1.1.8-1.8 1.1s-1.6.4-2.6.4c-1.3 0-2.4-.1-3.3-.4-.9-.2-1.7-.5-2.3-.9l.8-2.3c.5.3 1.2.6 2 .8.8.2 1.7.4 2.5.4 1 0 1.8-.2 2.4-.6.9-.3 1.2-1 1.2-2zm6.8-17.4c0-.5.2-1 .5-1.3.3-.4.8-.6 1.3-.6s1 .2 1.4.6c.4.4.6.8.6 1.3s-.2.9-.6 1.3c-.4.3-.8.5-1.4.5-.5 0-1-.2-1.3-.5-.4-.4-.5-.8-.5-1.3zm.5 5.1h2.7v16.8h-2.7v-16.8zm21.4 17.6c0 2.2-.6 3.8-1.7 4.8-1.2 1-2.9 1.5-5.1 1.5-1.3 0-2.4-.1-3.3-.3-.8-.2-1.5-.4-2.1-.7l.7-2.3c.5.2 1.1.4 1.7.6.6.2 1.4.3 2.5.3.9 0 1.7-.1 2.3-.3.6-.2 1.1-.5 1.4-.8.4-.4.6-.9.7-1.5.1-.6.2-1.4.2-2.2v-1.6h-.1c-.4.7-1 1.2-1.7 1.5-.7.3-1.6.5-2.7.5-2.3 0-3.9-.7-5-2.1-1.1-1.4-1.6-3.6-1.6-6.6 0-2.9.7-5.1 2.1-6.6 1.4-1.5 3.4-2.2 6.1-2.2 1.3 0 2.4.1 3.3.3.9.2 1.7.4 2.4.7v17zm-6.8-2.7c1.1 0 2-.3 2.7-.9.7-.6 1.1-1.5 1.4-2.7v-8.6c-.9-.4-2-.6-3.4-.6-1.5 0-2.7.5-3.6 1.6-.9 1-1.3 2.7-1.3 4.9 0 .9.1 1.8.2 2.6.2.8.4 1.5.7 2 .3.6.8 1 1.3 1.3.6.2 1.2.4 2 .4zm22.8 2v-9.6c0-1.8-.3-3.1-.8-4-.5-.9-1.4-1.3-2.8-1.3-1.2 0-2.2.3-3 1-.8.6-1.3 1.4-1.6 2.4v11.5h-2.7v-16.8h1.9l.5 2.1h.1c.5-.7 1.3-1.3 2.2-1.8.9-.5 2-.7 3.3-.7.9 0 1.7.1 2.4.3.7.2 1.3.6 1.7 1.1.5.5.8 1.3 1 2.2.2.9.4 2.1.4 3.5v10.2h-2.6zm19.9-1.4c-.7.5-1.5 1-2.5 1.3-1 .3-2.1.5-3.3.5-1.3 0-2.4-.2-3.3-.6-.9-.4-1.7-1-2.3-1.8-.6-.8-1.1-1.7-1.3-2.8-.3-1.1-.4-2.3-.4-3.6 0-2.9.6-5.1 1.9-6.6 1.3-1.5 3.1-2.3 5.5-2.3.8 0 1.5.1 2.3.3.8.2 1.4.5 2.1 1 .6.5 1.1 1.1 1.5 2 .4.9.6 2 .6 3.4 0 .7-.1 1.6-.2 2.5h-10.8c0 1 .1 1.9.3 2.6.2.8.5 1.4.9 1.9s1 .9 1.7 1.2c.7.3 1.5.4 2.5.4.8 0 1.5-.1 2.3-.4.8-.3 1.3-.6 1.7-.9l.8 1.9zm-5.8-13.5c-1.3 0-2.4.3-3.2 1-.8.7-1.3 1.9-1.4 3.6h8.4c0-1.7-.3-2.9-1-3.6-.7-.7-1.6-1-2.8-1zm23.6 9.1v3.1c0 .9.1 1.8.3 2.7h-1.8l-.7-2.4h-.1c-.4.8-1.1 1.4-2 2-.9.5-1.9.8-3 .8-2.2 0-3.9-.7-5-2.1-1.1-1.4-1.6-3.6-1.6-6.6 0-2.9.7-5.1 2-6.6 1.4-1.5 3.2-2.2 5.6-2.2.8 0 1.5 0 2 .1s1 .2 1.6.4v-7h2.7v17.8zm-6.8 3.8c1.1 0 2.1-.3 2.7-.9.7-.6 1.1-1.5 1.4-2.7v-8.4c-.4-.3-.9-.5-1.4-.7-.5-.1-1.2-.2-2.1-.2-1.6 0-2.8.5-3.6 1.5-.9 1-1.3 2.7-1.3 4.9 0 .9.1 1.8.2 2.6s.4 1.5.7 2c.3.6.8 1 1.3 1.3.6.5 1.3.6 2.1.6zm21-21.6h2.7v8.4h.1c.5-.7 1.2-1.2 2-1.5.8-.4 1.7-.5 2.6-.5 2.2 0 3.8.7 4.9 2.1 1.1 1.4 1.6 3.6 1.6 6.5s-.7 5.2-2.2 6.7c-1.4 1.5-3.5 2.3-6.1 2.3-1.3 0-2.4-.1-3.4-.4-1-.3-1.8-.6-2.3-.9v-22.7zm6.9 8.7c-1.1 0-2 .3-2.7.9-.7.6-1.2 1.5-1.5 2.7v8.5c.4.3.9.4 1.6.6.6.1 1.2.2 1.9.2 1.5 0 2.7-.5 3.7-1.6.9-1.1 1.4-2.8 1.4-5.1 0-.9-.1-1.7-.2-2.5-.2-.8-.4-1.4-.7-2-.3-.5-.8-1-1.3-1.3-.8-.3-1.4-.4-2.2-.4zm15.9 8.9l.9 3.2h.2l.7-3.3 3.3-10.9h2.7l-5 15.1c-.4 1.1-.8 2.2-1.1 3.2-.4 1-.8 2-1.2 2.8-.5.8-1 1.5-1.5 1.9-.6.5-1.2.7-2 .7s-1.5-.1-2-.3l.5-2.3c.3.1.6.2.8.2.6 0 1.2-.3 1.8-1 .6-.7 1.1-1.8 1.4-3.4l-6.8-16.8h3.1l4.2 10.9z" id="signature"/><g id="instructions"><path class="st4" d="M3754.5 193.6h-644.7c-10.9 0-19.8 8.9-19.8 19.8v268.1l-62 19.9 62 18v186.8c0 10.9 8.9 19.8 19.8 19.8h644.7c10.9 0 19.8-8.9 19.8-19.8V213.4c0-10.9-8.9-19.8-19.8-19.8z"/><path class="st12" d="M3144.6 231.6h583v473h-583z"/><text transform="translate(3144.582 248.628)"><tspan x="0" y="0" fill="#333" font-family="MyriadPro-Regular" font-size="24">This design was made by vexels.com. This means that for </tspan><tspan x="0" y="28.8" fill="#333" font-family="MyriadPro-Regular" font-size="24">free use you must give credit (link us/print designed by </tspan><tspan x="0" y="57.6" fill="#333" font-family="MyriadPro-Regular" font-size="24">vexels) and cant do merchandise items. You can only do </tspan><tspan x="0" y="86.4" fill="#333" font-family="MyriadPro-Regular" font-size="24">commercial and merchandise items without credit if you </tspan><tspan x="0" y="115.2" fill="#333" font-family="MyriadPro-Regular" font-size="24">get a license. </tspan><tspan x="0" y="144" fill="#333" font-family="MyriadPro-Regular" font-size="24">Learn more on </tspan><tspan x="150.9" y="144" fill="#c64b09" font-family="MyriadPro-Regular" font-size="24">www.vexels.com/plans</tspan><tspan x="0" y="201.6" fill="#333" font-family="MyriadPro-Regular" font-size="24">You cant sublicense, redistribute or resell an image or </tspan><tspan x="0" y="230.4" fill="#333" font-family="MyriadPro-Regular" font-size="24">part of it. You can only use our contents for products </tspan><tspan x="0" y="259.2" fill="#333" font-family="MyriadPro-Regular" font-size="24">where the design is the main reason its being purchased </tspan><tspan x="0" y="288" fill="#333" font-family="MyriadPro-Regular" font-size="24">if you get a license. Learn more on </tspan><tspan x="0" y="316.8" fill="#c64b09" font-family="MyriadPro-Regular" font-size="24">www.vexels.com/terms-and-conditions</tspan><tspan x="0" y="374.4" fill="#333" font-family="MyriadPro-Regular" font-size="24">Thanks!</tspan><tspan x="0" y="403.2" fill="#333" font-family="MyriadPro-Regular" font-size="24">Vexels Team</tspan></text></g></g></g></switch></svg>