<svg xmlns="http://www.w3.org/2000/svg" viewBox="0 0 1200 1200"><path fill="none" d="M830.211 210.075h.008m-206.993 152.77c.564-.849 1.124-1.701 1.691-2.547l-1.691 2.547zm-175.29-143.388c-.352-1.825-.676-3.652-.91-5.496.234 1.844.556 3.671.91 5.496zm8.704 24.54c-.527-1.2-1.043-2.406-1.563-3.609.519 1.204 1.033 2.41 1.563 3.609zm-9.996-34.406zm.058 1.017z"/><path fill="none" d="M825.522 211.058c-.026.005-.05.013-.075.018 3.65-.007 6.535-2.126 10.107-2.201-1.286-.624-8.707 1.911-10.032 2.183zM798.81 219.2c-.601.193-1.195.41-1.794.607 2.313-.772 4.629-1.536 6.938-2.321-1.707.578-3.414 1.159-5.144 1.714zM636.047 387.009c.158-.287.308-.578.468-.864-.01.017-.021.033-.03.05-.153.268-.287.545-.438.814zm-18.181 39.678c4.352-11.325 9.211-22.541 14.792-33.372-6.259 11.954-11.541 24.365-16.135 37.042.451-1.223.874-2.45 1.343-3.67zm92.607-161.76c-7.234 5.544-13.969 11.554-20.407 17.857 9.427-8.834 19.329-17.15 29.769-24.715a296.864 296.864 0 00-9.362 6.858zm-85.555 95.371l-.994 1.502c.03-.046.063-.091.093-.137.3-.455.6-.911.901-1.365zm25.133-63.146c-.373.362-.751.72-1.127 1.078.378-.358.754-.717 1.127-1.078zm-190.86 56.113c.417-4.365 1.545-9.009 4.628-12.311-3.087 3.306-4.21 7.941-4.628 12.311zm334.348-132.283c-8.786 3.021-17.437 6.456-25.966 10.127a249.738 249.738 0 00-15.907 7.537c12.174-6.1 24.664-11.351 37.436-16.089a199.727 199.727 0 014.437-1.575zm-412.957-45.198c.116.128.21.312.303.499a1.713 1.713 0 00-.303-.499zm111.467 270.571a291.316 291.316 0 00-1.655-3.247c.552 1.082 1.112 2.161 1.655 3.247zM389.244 212.272c1.545 6.118 3.344 12.18 5.355 18.302-1.984-6.164-3.794-12.298-5.355-18.302zm106.543 241.906c-.483-1.06-.973-2.116-1.473-3.168.497 1.054 1 2.106 1.473 3.168zm325.377-238.403c-11.322 5.208-22.234 12.188-32.685 19.062 3.414-2.211 6.827-4.425 10.284-6.547 8.521-5.231 17.53-10.568 26.763-14.398 2.869-1.19 5.734-2.252 8.662-3.268-1.455.503-2.922.919-4.355 1.495-2.906 1.168-5.823 2.347-8.669 3.656zM614.815 376.326c-11.862 19.899-21.628 40.976-29.071 62.945.879-2.526 1.76-5.052 2.702-7.548 7.289-19.338 15.968-37.789 26.369-55.397zm219.374-165.702c.692-.24 2.433-.57 2.012-1.241-.495.504-1.88 1.196-2.012 1.241zM653.903 293.25zm-36.872 79.32c.143-.233.295-.461.438-.694-.144.232-.295.461-.438.694zm70.136-142.635zm-3.492 2.585zm-11.614 10.171a3.718 3.718 0 00-.098-.348c.322 1.438.577 2.892.791 4.35a56.028 56.028 0 00-.693-4.002zm18.301-15.657zm-33.013 62.396zm35.038-64.516c.174-.203.312-.424.482-.63-.382.454-.765.906-1.163 1.343.222-.245.464-.462.681-.713zm2.792-3.711c-.136.199-.268.4-.409.597.138-.198.275-.396.409-.597zm-15.703 13.856c.347-.186.671-.401 1.013-.594-.941.494-1.912.95-2.902 1.382.865-.336 1.571-.618 1.889-.788zm-17.283 48.263c.044-.061.082-.127.126-.188-.154.217-.314.427-.47.642.111-.154.234-.3.344-.454zm10.768-35.158c-.051-.415-.118-.83-.176-1.245.093.654.159 1.306.219 1.959-.025-.238-.012-.476-.043-.714zm-12.644 37.627zm4.659-6.692c-.163.266-.33.529-.496.793.166-.265.332-.526.496-.793zm6.431-14.402zm-3.985 10.027zm2.18-4.79c-.239.595-.481 1.19-.74 1.778.262-.588.499-1.183.74-1.778zm-217.146 58.915zm12.873 69.062a573.727 573.727 0 003.031 5.207 803.226 803.226 0 019.409 16.384c-2.088-3.796-4.201-7.577-6.398-11.304-2.022-3.43-4.023-6.864-6.042-10.287zm33.44 19.007c5.126 10.618 10.006 21.312 14.448 32.204.091-.024.182-.05.273-.073-1.482-3.718-3.026-7.419-4.72-11.086-3.249-7.037-6.603-14.052-10.001-21.045zm-57.943-54.924c.507.714.998 1.447 1.508 2.156 4.192 5.82 8.525 11.516 12.687 17.35-.145-.211-.278-.43-.425-.64-4.44-6.397-9.21-12.55-13.77-18.866zm81.207 62.861c-.25-1.983.139-5.582-.741-7.316-.594-1.172-3.808-2.225-5.359-2.765a71.55 71.55 0 01-5.801-2.339c.122.061.246.128.368.189 2.109 1.05 2.014.863 2.729 2.877.21.592.383 1.783.463 2.173.721 3.505 1.217 7.079 2.324 10.491 1.8 5.55 3.587 11.127 5.532 16.622.253.714.492 1.419.706 2.123.329-.076.659-.157.988-.232.817-.187 1.63-.36 2.445-.541-.49-2.228-.924-4.47-1.323-6.704-.864-4.833-1.714-9.707-2.331-14.578zM378.229 182.936c.055.883.131 1.765.169 2.648-.014-.522-.017-1.044-.037-1.567-.012-.318-.079-.708-.132-1.081zm3.805 47.203c.116.739.21 1.48.338 2.218 2.813 16.395 7.4 33.254 13.855 48.58a2550.75 2550.75 0 003.68 8.697c-7.183-16.901-12.914-34.448-16.677-52.779-.457-2.227-.828-4.472-1.196-6.716zm18.916 61.944c5.175 12.062 10.621 23.954 17.415 35.277 6.112 10.188 12.715 20.595 19.66 30.629-.622-.896-1.263-1.776-1.871-2.683-13.5-20.141-25.592-41.126-35.204-63.223zm179.371 103.466c1.497-.511 2.974-1.133 4.417-1.949 4.531-2.561 7.866-6.258 10.097-10.534-3.268 5.556-8.456 9.863-14.514 12.483zm122.833-204.917c.084-5.563-.383-11.312-1.524-16.92.805 4.569 1.213 9.134 1.435 13.248.064 1.207.079 2.439.089 3.672zm-31.666 73.779c1.219-4.31 1.832-8.743 1.655-13.201.141 4.476-.46 8.907-1.655 13.201zM556.423 412.213c-1.239 4.178-2.233 8.706-2.698 13.269a862.98 862.98 0 003.475 15.28c3.991-.427 8.011-.752 12.081-.947 4.604-.221 9.12-.173 13.622-.018.243-2.571 1.55-7.606.488-9.508-1.348-2.413-4.713-4.219-6.7-6.085-2.371-2.225-4.174-5.027-5.553-7.96-1.296-2.758-2.429-5.592-3.674-8.379a66.578 66.578 0 01-2.138-5.397c-.479-1.382-.661-1.979-.164-2.441-.812.391-1.604.841-2.354 1.422-3.444 2.668-5.182 6.703-6.385 10.764zM380.582 175.784c-1.114-1.195-1.76-.964-2.131-.195.537-.579 1.285-.735 2.131.195zm226.117 160.987c1.591-1.379 3.168-2.774 4.675-4.246 1.379-1.345 2.65-2.784 3.901-4.24-2.707 2.969-5.527 5.802-8.576 8.486zm-146.975.459c-.632-.623-1.24-1.288-1.854-1.943.616.652 1.218 1.319 1.854 1.943zm134.914 12.616c.163 3.734 1.957 7.663 2.77 11.296-.742-3.314-1.859-6.552-2.489-9.891-.686-3.638 1.174-5.147 3.715-7.472 2.468-2.259 5.043-4.4 7.578-6.585-3.596 3.029-11.776 8.017-11.574 12.652zM448.195 220.758c1.439 6.894 4.185 13.416 6.981 19.863-3.167-7.366-6.042-14.784-7.512-22.714.171.951.333 1.904.531 2.851zm7.879 21.948c.012.026.028.055.039.082l-.33-.756c.098.223.194.449.291.674zm-17.772 56.066c.122.536.304 1.074.439 1.611-.785-3.349-1.32-6.829-1.518-10.327.096 2.947.436 5.877 1.079 8.716zm19.686-51.707c.035.144.178.381.32.625-.064-.512-.357-1.135-.692-1.746.153.377.284.752.372 1.121zm-9.01 76.757c-.53-.826-1.067-1.647-1.567-2.488.498.846 1.039 1.66 1.567 2.488zm6.99 9.389zm-9.166-121.381c.027.303.082.601.114.903-.068-.703-.091-1.404-.132-2.106-.012.443-.013.856.018 1.203zm-62.626-18.536a144.206 144.206 0 01-1.237-5.353c-.141-.678-.297-1.355-.45-2.031.417 2.06.826 4.125 1.345 6.157.106.413.23.817.342 1.227zm40.81 107.854c-5.328-10.181-10.61-20.453-15.354-30.937 4.054 9.33 8.46 18.5 13.36 27.355.663 1.201 1.329 2.388 1.994 3.582zm32.619-51.762c-.475.353-.975.708-1.149.864-1.153 1.038-2.226 2.19-3.245 3.371 1.121-1.184 3.257-2.825 4.394-4.235zm-2.989 2.675zm-7.188-35.417a58.917 58.917 0 01-.374-2.814c.116.939.221 1.88.374 2.814zm7.188 35.417l-.365.385"/><path fill="#449247" d="M594.835 383.066c3.431-6.574 4.231-14.528 2.573-21.923-.813-3.633-2.608-7.563-2.77-11.296-.202-4.636 7.978-9.624 11.575-12.652l.487-.423c3.048-2.684 5.869-5.517 8.576-8.485 2.126-2.472 4.175-5.01 6.456-7.34 3.966-4.051 9.006-7.208 13.403-10.778 4.661-3.784 9.351-7.733 13.789-11.938.376-.358.754-.716 1.127-1.078.617-.597 1.222-1.206 1.827-1.815a120.54 120.54 0 002.025-2.087c.368-.388.729-.78 1.091-1.172a107.028 107.028 0 003.213-3.66 94.265 94.265 0 002.11-2.626c.517-.668 1.036-1.334 1.531-2.016.156-.215.316-.425.47-.642a72.701 72.701 0 002.161-3.242c.166-.264.333-.526.496-.793a62.885 62.885 0 002.446-4.376c.507-.99.988-1.995 1.441-3.012.259-.588.501-1.183.74-1.778.197-.485.377-.975.56-1.466a51.79 51.79 0 001.244-3.771c.028-.095.054-.191.081-.286 1.195-4.293 1.796-8.724 1.655-13.201-.03-.777-.057-1.554-.138-2.332a39.634 39.634 0 00-.219-1.959l-.032-.225a59.882 59.882 0 00-.791-4.35c-.311-.965-1.114-2.893-.886-3.457.276-.681 4.058-2.087 6.51-3.04a44.22 44.22 0 002.902-1.382 51.048 51.048 0 001.827-1.072 46.7 46.7 0 003.408-2.323 43.9 43.9 0 001.443-1.136 41.604 41.604 0 001.565-1.342 43.57 43.57 0 001.631-1.558 39.81 39.81 0 001.344-1.408c.398-.436.781-.889 1.163-1.343a37.746 37.746 0 001.901-2.484c.14-.196.273-.398.409-.597 5.429-8.16 7.437-17.946 7.919-27.786.045-.917.042-1.854.057-2.785a82.353 82.353 0 00-.089-3.672c-.221-4.115-.629-8.679-1.435-13.248-1.24-6.096-3.244-12.01-6.177-17.265.067-.008.133-.01.2-.019-1.413-2.319-3.08-4.431-5.084-6.208-1.363-1.209-2.892-2.18-4.529-2.973-1.085-.526-3.395-.79-4.245-1.461-1.455-1.149-1.493-7.558-1.977-9.747-1.56-7.067-4.534-13.85-9.395-19.254-9.05-10.062-24.402-17.538-38.035-16.92.733-10.793-1.156-24.624-8.653-33.041-7.796-8.752-19.013-12.338-29.868-15.49-10.769-3.127-23.183-.404-33.043 4.525-9.756 4.877-16.935 14.491-18.992 25.201-8.978-4.753-20.519-8.717-30.767-6.551-10.944 2.313-19.454 10.624-25.147 19.901-3.079 5.016-4.62 10.628-7.183 15.854-2.395 4.881-3.498 10.226-3.589 15.647-.103 6.159.732 12.354 1.237 18.482.136 1.648.291 3.298.397 4.948.156 2.439.304 2.792-1.596 4.195a58.036 58.036 0 00-3.436 2.762c-8.853 7.623-15.867 18.498-20.529 29.146-3.07 7.013-4.541 14.423-4.533 21.932.186.913.128 2.152.1 3.252.042.702.064 1.403.132 2.106.038.366.093.731.138 1.096.108.938.22 1.876.374 2.814.069.422.159.841.235 1.263 1.47 7.93 4.345 15.348 7.512 22.714l.608 1.411.33.756c.442 1 1.067 2.086 1.503 3.157.335.61.628 1.233.692 1.746.181.311.361.634.318.808-.035.137-.515.512-1.022.889-1.137 1.41-3.273 3.052-4.394 4.235-.208.241-.43.472-.631.716-4.849 5.858-10.812 11.502-13.111 18.94a51.607 51.607 0 00-2.246 16.778c.198 3.499.733 6.979 1.518 10.327 1.796 7.129 4.753 14.304 8.669 20.952.5.841 1.038 1.662 1.567 2.488.472.74.944 1.479 1.438 2.202a84.076 84.076 0 002.04 2.825 77.83 77.83 0 001.375 1.779 77.88 77.88 0 002.137 2.583c.62.711 1.26 1.394 1.902 2.075.614.655 1.222 1.32 1.854 1.943 1.328 1.303 2.685 2.563 4.094 3.725-3.083 3.302-4.21 7.946-4.628 12.311-11.123-14.8-22.532-29.856-31.153-46.296a6201.987 6201.987 0 01-3.052-5.821c-.664-1.194-1.33-2.381-1.994-3.582-4.899-8.856-9.306-18.025-13.36-27.355-2.042-4.513-3.991-9.064-5.79-13.667a451.27 451.27 0 01-9.243-25.97c-2.01-6.122-3.81-12.183-5.355-18.302-.167-.641-.371-1.301-.531-1.938-1.434-5.677-3.119-11.343-4.536-17.04-.112-.41-.237-.814-.342-1.227-.519-2.032-.928-4.097-1.345-6.157-.385-1.708-.775-3.416-1.082-5.136-.192-1.074-.006-3.285-.522-4.491-.093-.186-.187-.371-.303-.499-.847-.93-1.594-.774-2.131-.195-.549 1.135-.495 3.455-.425 4.184.1 1.053.136 2.109.203 3.163.053.373.12.763.132 1.082.02.522.024 1.044.037 1.567.289 6.66.176 13.342.816 19.997.789 8.214 1.532 16.407 2.82 24.557.368 2.245.739 4.489 1.195 6.716 3.763 18.331 9.494 35.878 16.677 52.779.347.817.694 1.634 1.043 2.449 9.612 22.097 21.705 43.081 35.203 63.223.608.907 1.249 1.787 1.871 2.683a437.685 437.685 0 002.801 4.004c4.56 6.316 9.331 12.469 13.771 18.865.147.211.279.429.425.64.374.524.764 1.034 1.134 1.561 3.355 4.767 6.263 9.808 9.174 14.851 2.019 3.422 4.02 6.857 6.041 10.287 2.197 3.727 4.311 7.508 6.398 11.304a672.417 672.417 0 0112.626 23.605c.558 1.08 1.11 2.161 1.655 3.247.374.747.768 1.486 1.139 2.234.398.8.745 1.616 1.125 2.421.5 1.052.991 2.108 1.473 3.168.037.085.08.168.118.253 5.66-2.052 11.468-3.784 17.313-5.308-4.441-10.892-9.322-21.586-14.448-32.204a1460.52 1460.52 0 00-7.484-15.218c5.908 3.931 12.486 7.555 18.847 10.735a71.55 71.55 0 005.801 2.339c1.551.54 4.765 1.593 5.359 2.765.88 1.734.49 5.333.741 7.316.617 4.871 1.466 9.745 2.331 14.579.399 2.234.833 4.475 1.323 6.704a355.822 355.822 0 0111.991-2.461c-2.516-10.388-4.715-20.629-6.259-31.293-1.864-12.869-2.588-25.582-3.288-38.544-.693-12.821-2.097-25.64-3.017-38.45-.918-12.778-1.536-25.432-1.464-38.246.073-12.876 1.588-25.499 3.602-38.206 1.871-11.8 4.053-23.768 7.338-35.26 3.519-12.312 8.142-24.521 12.837-36.43 8.951-22.71 23.482-42.34 37.134-62.336 1.778-2.605 3.396-5.731 5.462-8.098 1.32-1.513 3.756-1.697 3.295.975-.281 1.629-2.016 3.316-2.787 4.803-.582 1.125-1.042 2.31-1.596 3.448-1.311 2.691-2.855 5.271-4.297 7.894-2.906 5.281-5.202 10.785-7.688 16.267-2.597 5.729-5.613 11.323-7.905 17.184-2.16 5.549-3.275 11.438-5.05 17.115-7.483 23.948-9.741 49.281-13.225 73.998-1.728 12.258-3.93 24.369-4.975 36.717-1.092 12.891-1.632 25.604-1.403 38.545.449 25.295 2.343 50.82 6.288 75.803.85 5.385 1.908 10.663 3.044 15.918.465-4.563 1.459-9.092 2.698-13.269 1.204-4.061 2.942-8.096 6.386-10.764.75-.581 1.542-1.031 2.354-1.422.285-.265.79-.487 1.602-.785 4.491-1.649 9.113-2.178 13.556-3.694 6.059-2.618 11.247-6.925 14.515-12.481zm29.089-21.266c-.511.773-.915 1.385-.318.486l.412-.623c-.031.046-.064.091-.094.137zM835.58 208.879c-.006-.003-.021-.001-.026-.004-3.572.075-6.457 2.194-10.107 2.201-7.414 1.53-14.394 4.004-21.492 6.409-2.309.784-4.625 1.549-6.938 2.321-1.163.382-2.321.778-3.478 1.176-1.484.51-2.965 1.029-4.437 1.575-12.771 4.738-25.262 9.989-37.436 16.089-11.062 5.713-21.641 12.222-31.831 19.423-10.44 7.565-20.341 15.881-29.769 24.715-9.071 8.881-17.534 18.363-25.807 28.102-6.779 7.979-14.188 15.227-20.368 23.735-6.731 9.268-13.937 18.116-20.287 27.666a331.262 331.262 0 00-6.137 9.59c-.143.233-.295.461-.438.694-.761 1.24-1.471 2.508-2.216 3.757-10.401 17.608-19.08 36.059-26.37 55.396-.941 2.496-1.823 5.022-2.702 7.548-.068.2-.128.402-.196.602 5.768.27 11.523.747 17.392 1.288 3.178.293 6.315.675 9.432 1.121a337.397 337.397 0 014.152-11.926c4.594-12.677 9.876-25.088 16.135-37.042a263.374 263.374 0 013.389-6.307c.151-.269.285-.545.437-.813.01-.017.021-.033.03-.05 4.798-8.629 10.088-16.973 16.036-24.856 6.86-9.09 13.88-18.38 21.651-26.713 7.219-7.741 13.802-15.923 20.82-23.839 14.773-16.664 31.438-31.918 49.369-45.109 14.386-10.582 29.05-21.055 44.088-30.791 10.45-6.874 21.363-13.854 32.685-19.062 2.846-1.309 5.763-2.488 8.669-3.656 1.433-.576 2.9-.992 4.355-1.495.132-.045 1.518-.738 2.012-1.241-.091-.151-.26-.314-.617-.504z"/><path fill="#6C6" d="M494.313 451.01c-.38-.805-.728-1.621-1.125-2.421-.371-.748-.764-1.488-1.139-2.234-.544-1.085-1.103-2.165-1.655-3.247a672.417 672.417 0 00-12.626-23.605 801.23 801.23 0 00-9.409-16.384 587.747 587.747 0 01-3.031-5.207c-2.911-5.043-5.819-10.085-9.174-14.851-.371-.526-.761-1.037-1.134-1.561-4.163-5.834-8.495-11.53-12.687-17.35-.51-.708-1.001-1.442-1.508-2.156a431.84 431.84 0 01-2.801-4.004c-6.945-10.033-13.548-20.441-19.66-30.629-6.793-11.323-12.239-23.215-17.415-35.277-.349-.815-.696-1.633-1.043-2.449a2468.22 2468.22 0 01-3.68-8.697c-6.455-15.326-11.042-32.185-13.855-48.58-.127-.738-.221-1.479-.338-2.218-1.288-8.15-2.031-16.342-2.82-24.557-.64-6.655-.526-13.338-.816-19.997-.038-.884-.114-1.765-.169-2.648-.067-1.054-.103-2.111-.203-3.163-.069-.73-.123-3.049.425-4.184.371-.769 1.017-1 2.131.195a1.7 1.7 0 01.303.499c.517 1.206.331 3.417.522 4.491.306 1.72.697 3.428 1.082 5.136.152.677.309 1.354.45 2.031.374 1.788.795 3.572 1.237 5.353 1.417 5.696 3.102 11.363 4.536 17.04.16.637.365 1.297.531 1.938 1.561 6.004 3.371 12.138 5.355 18.302a450.245 450.245 0 009.243 25.97c1.8 4.603 3.748 9.153 5.79 13.667 4.744 10.484 10.026 20.756 15.354 30.937 1.017 1.943 2.035 3.884 3.052 5.821 8.622 16.44 20.03 31.496 31.153 46.296.418-4.37 1.541-9.005 4.628-12.311-1.409-1.162-2.766-2.422-4.094-3.725-.636-.624-1.238-1.29-1.854-1.943a72.265 72.265 0 01-1.902-2.075 74.31 74.31 0 01-2.137-2.583 80.092 80.092 0 01-1.375-1.779 79.82 79.82 0 01-2.04-2.825 83.192 83.192 0 01-1.438-2.202c-.528-.828-1.069-1.642-1.567-2.488-3.916-6.648-6.874-13.823-8.669-20.952-.135-.537-.317-1.075-.439-1.611-.643-2.839-.984-5.768-1.079-8.717a51.6 51.6 0 012.246-16.778c2.299-7.438 8.262-13.082 13.111-18.94.201-.243.423-.475.631-.716 1.019-1.18 2.092-2.332 3.245-3.371.174-.156.674-.511 1.149-.864.507-.376.987-.751 1.022-.889.043-.173-.137-.496-.318-.808-.142-.243-.286-.481-.32-.625a8.074 8.074 0 00-.371-1.121c-.436-1.071-1.061-2.157-1.503-3.157-.012-.027-.028-.055-.039-.082-.097-.224-.193-.45-.291-.674l-.608-1.411c-2.796-6.447-5.541-12.968-6.981-19.863-.197-.946-.36-1.9-.531-2.851-.076-.421-.166-.84-.235-1.263-.154-.934-.259-1.875-.374-2.814-.046-.366-.1-.73-.138-1.096-.032-.302-.087-.601-.114-.903-.03-.347-.029-.761-.018-1.203.028-1.1.086-2.339-.1-3.252-.035-.169-.046-.368-.102-.508-.434-1.098.37-.577-.689-1.225-.911-.558-3.138-.291-4.191-.338-1.503-.067-3.01-.095-4.513-.017-2.734.141-2.759.586-3.214-2.128-.622-3.716-1.504-7.366-2.445-11.011-10.513-40.735-65.189-75.957-81.958-18.649-.314 1.073.039 1.315-.766 1.759-.484.267-2.226-.243-2.777-.273-21.516-1.191-38.859 19.486-40.114 40.22-1.188 19.645 8.54 35.755 20.05 50.636 5.688 7.353 12.116 14.417 20.264 19.081-27.525 17.513 9.61 60.414 25.575 72.916 1.211.948 2.453 1.842 3.778 2.624 1.957 1.155 2.443.889 1.641 3.093-1.176 3.238-1.778 6.537-1.711 9.98.224 11.542 6.323 19.937 15.548 26.78 2.236 1.659 36.749 21.502 38.667 16.968-4.04 9.549 4.913 17.954 13.162 20.664 9.02 2.963 19.177 4.556 28.66 4.772 2.481.057 5.021-.037 7.471-.457 1.883-.323 2.999-1.185 4.216-.269 1.005.756 1.978 3.613 2.471 4.703 1.108 2.448 1.915 5.047 3.005 7.511.378.854.782 1.702 1.195 2.549a139.857 139.857 0 015.994-2.325c-.038-.085-.08-.168-.118-.253-.471-1.062-.974-2.114-1.472-3.168zm21.704-22.844c-1.107-3.412-1.603-6.986-2.324-10.491-.08-.39-.253-1.582-.463-2.173-.715-2.015-.62-1.828-2.729-2.877-.122-.061-.246-.128-.368-.189-6.361-3.179-12.939-6.804-18.847-10.735a1481.1 1481.1 0 017.484 15.218 1189.518 1189.518 0 0110.001 21.044c1.694 3.667 3.238 7.368 4.72 11.086a334.455 334.455 0 018.764-2.138 49.293 49.293 0 00-.706-2.123c-1.945-5.495-3.732-11.072-5.532-16.622zm34.753-169.667c3.484-24.718 5.742-50.051 13.225-73.998 1.774-5.677 2.889-11.565 5.05-17.115 2.292-5.86 5.307-11.455 7.905-17.184 2.485-5.482 4.782-10.986 7.688-16.267 1.442-2.622 2.986-5.202 4.297-7.894.554-1.138 1.013-2.324 1.596-3.448.771-1.487 2.506-3.174 2.787-4.803.461-2.672-1.975-2.488-3.295-.975-2.065 2.367-3.683 5.493-5.462 8.098-13.652 19.996-28.183 39.626-37.134 62.336-4.695 11.909-9.318 24.118-12.837 36.43-3.284 11.492-5.467 23.46-7.338 35.26-2.014 12.706-3.53 25.33-3.602 38.206-.072 12.814.546 25.468 1.464 38.246.921 12.811 2.324 25.63 3.017 38.45.701 12.961 1.424 25.674 3.288 38.544 1.545 10.664 3.743 20.905 6.259 31.293 6.479-1.21 12.96-2.212 19.522-2.915-1.201-5.105-2.375-10.187-3.475-15.28-1.136-5.255-2.194-10.533-3.044-15.918-3.945-24.983-5.839-50.508-6.288-75.803-.23-12.941.311-25.654 1.403-38.545 1.044-12.349 3.246-24.46 4.974-36.718zm343.126-33.059c-.91-9.73-7.893-20.029-16.634-24.634-1.308-.689-5.222-1.294-6.047-2.583-.825-1.291-.306-4.75-.504-6.338-.64-5.167-1.868-10.03-4.036-14.777-3.999-8.759-14.601-15.479-23.847-17.293-10.27-2.016-23.176.487-32.209 5.731-4.45-9.646-14.672-17.475-24.526-20.921-11.184-3.911-21.515-2.1-32.329 1.991-5.185 1.962-9.856 4.49-14.129 8.05a48.391 48.391 0 00-5.534 5.435c-.422.485-1.758 2.824-2.422 2.98-.526.125-2.93-1.485-3.673-1.812-10.344-4.56-21.117-6.233-32.352-4.841-.067.008-.133.01-.2.019 2.933 5.255 4.937 11.169 6.177 17.265 1.141 5.608 1.608 11.357 1.524 16.92-.015.93-.012 1.867-.057 2.785-.482 9.84-2.489 19.626-7.919 27.786-.133.2-.271.398-.409.597a37.746 37.746 0 01-1.901 2.484c-.17.206-.308.427-.482.63-.216.251-.459.468-.681.713-.437.483-.887.949-1.344 1.408a40.589 40.589 0 01-3.196 2.9 43.9 43.9 0 01-1.443 1.136 46.7 46.7 0 01-3.408 2.323c-.598.371-1.211.725-1.827 1.072-.342.192-.665.408-1.013.594-.318.17-1.024.452-1.89.788-2.451.952-6.234 2.359-6.51 3.04-.228.563.575 2.492.886 3.457.044.138.079.256.098.348.287 1.32.502 2.66.693 4.002l.032.225c.057.415.125.83.176 1.245.03.238.018.476.043.714.081.777.108 1.555.138 2.332.178 4.458-.436 8.891-1.655 13.201-.027.095-.053.191-.081.286a52.278 52.278 0 01-1.244 3.771c-.183.49-.363.98-.56 1.466-.241.596-.479 1.19-.74 1.778a69.808 69.808 0 01-2.041 4.164 67.202 67.202 0 01-1.846 3.224c-.163.267-.33.528-.496.793a72.701 72.701 0 01-2.161 3.242c-.044.061-.082.127-.126.188-.11.154-.233.3-.344.453-.495.682-1.014 1.348-1.531 2.016a87.781 87.781 0 01-2.968 3.638 103.3 103.3 0 01-2.355 2.648c-.362.393-.723.785-1.091 1.172-.667.703-1.341 1.399-2.025 2.087-.605.609-1.21 1.217-1.827 1.815-.374.362-.749.72-1.127 1.078-4.438 4.205-9.128 8.154-13.789 11.938-4.397 3.57-9.438 6.727-13.403 10.778-2.281 2.33-4.33 4.868-6.456 7.34-1.251 1.456-2.522 2.894-3.901 4.24-1.507 1.472-3.084 2.867-4.675 4.246-.163.141-.324.283-.487.423-2.536 2.184-5.11 4.325-7.578 6.585-2.541 2.326-4.401 3.835-3.715 7.472.629 3.339 1.747 6.577 2.489 9.891 1.657 7.395.858 15.349-2.573 21.923-2.231 4.275-5.566 7.972-10.097 10.534-1.444.816-2.92 1.438-4.417 1.949-4.443 1.516-9.065 2.045-13.556 3.694-.812.298-1.317.519-1.602.785-.497.462-.315 1.059.164 2.441a66.578 66.578 0 002.138 5.397c1.245 2.788 2.378 5.622 3.674 8.379 1.379 2.933 3.183 5.735 5.553 7.96 1.987 1.866 5.352 3.671 6.7 6.085 1.063 1.902-.245 6.937-.488 9.508.881.03 1.765.036 2.644.077.068-.2.128-.403.196-.602 7.444-21.969 17.21-43.046 29.071-62.945.744-1.249 1.455-2.517 2.216-3.757.143-.233.295-.461.438-.694a332.636 332.636 0 016.137-9.59c-.597.898-.193.287.318-.486l.994-1.502-.901 1.365-.412.623c6.349-9.55 13.556-18.398 20.287-27.666 6.179-8.508 13.589-15.756 20.368-23.735 8.273-9.738 16.735-19.22 25.807-28.102 6.438-6.303 13.173-12.313 20.407-17.857 3.08-2.36 6.209-4.631 9.362-6.858 10.19-7.2 20.769-13.709 31.831-19.423a249.48 249.48 0 0115.907-7.537c8.529-3.67 17.179-7.105 25.966-10.127 1.157-.398 2.315-.794 3.478-1.176.599-.197 1.193-.414 1.794-.607 1.73-.555 3.437-1.136 5.144-1.714 7.098-2.405 14.078-4.879 21.492-6.409.026-.005.05-.013.075-.018 1.325-.272 8.746-2.807 10.031-2.183.006.003.021.001.026.004.358.19.526.353.621.504.421.67-1.32 1.001-2.012 1.241-2.929 1.016-5.793 2.077-8.662 3.268-9.233 3.83-18.242 9.167-26.763 14.398-3.457 2.122-6.869 4.337-10.284 6.547-15.038 9.737-29.702 20.21-44.088 30.791-17.931 13.19-34.596 28.444-49.369 45.109-7.017 7.915-13.601 16.098-20.82 23.839-7.771 8.333-14.792 17.624-21.651 26.713-5.948 7.882-11.238 16.227-16.036 24.856-.159.286-.309.577-.468.864a259.586 259.586 0 00-3.389 6.307c-5.581 10.831-10.441 22.047-14.792 33.372-.468 1.22-.892 2.447-1.343 3.67a337.397 337.397 0 00-4.152 11.926c2.118.303 4.226.632 6.322 1.008.688-2.187 1.354-4.381 2.101-6.549 1.104-3.21 1.84-7.254 3.485-10.209.993-1.784.718-1.264 2.834-1.381 1.628-.09 3.252-.314 4.855-.598 3.128-.555 6.169-1.431 9.2-2.37 5.689-1.762 11.738-2.907 17.289-5.069 3.095-1.206 6.055-2.874 8.65-4.948 2.218-1.772 4.103-5.012 6.567-6.352 2.353-1.279 6.053-.196 8.545.092 2.456.284 4.908.493 7.381.567 6.512.194 12.918-.453 19.244-2.052 12.292-3.107 18.591-11.845 23.243-22.994.88-2.109 1.637-4.261 2.489-6.379.623-1.55.915-2.433 2.362-3.225 1.465-.802 3.575-.877 5.211-1.185 4.87-.916 9.862-1.552 14.617-2.97 12.369-3.688 21.402-12.237 25.321-24.522.761-2.383 1.36-4.809 2.078-7.203.221-.735.974-4.128 1.742-4.589.629-.378 1.691.11 2.478.228 6.965 1.04 15.93.826 22.553-1.861 14.541-5.9 24.337-19.457 26.261-34.807 8.126 2.899 16.519.272 23.226-4.617 3.44-2.507 6.401-5.357 8.865-8.835 2.66-3.756 3.555-7.328 5.188-11.456 1.099-2.779 5.776-5.166 8.205-7.354 3.211-2.892 5.71-6.192 7.483-10.147 3.648-8.143 4.561-18.285 3.729-27.068z"/><path fill="#FFA11C" d="M727.039 530.511c-2.658-13.557-7.757-26.91-15.963-38.131-8.097-11.07-19.246-17.766-30.74-24.725-11.395-6.898-22.379-12.994-35.006-17.39a173.944 173.944 0 00-26.637-6.975 180.454 180.454 0 00-6.322-1.008 191.256 191.256 0 00-9.432-1.121c-5.869-.541-11.624-1.019-17.392-1.288-.879-.041-1.764-.047-2.644-.077-4.502-.155-9.018-.203-13.622.018-4.071.196-8.09.52-12.082.947-6.562.702-13.043 1.705-19.522 2.915-3.99.745-7.982 1.569-11.991 2.461-.815.181-1.628.355-2.445.541-.329.075-.659.156-.988.232-2.92.674-5.846 1.38-8.764 2.138-.091.024-.182.05-.273.073-5.845 1.524-11.653 3.256-17.313 5.308-2.02.732-4.019 1.504-5.994 2.325-13.282 5.52-25.45 13.167-34.851 24.692-2.086 2.558-4.063 5.269-5.337 8.336-.717 1.727-.997 3.373-1.294 5.195-.324 1.979-1.172 3.379-2.098 5.232-3.193 6.392-5.913 13.189-7.532 20.156-2.328 10.016-3.55 20.202-4.99 30.367-3.947 27.864-2.394 56.622-2.383 84.685.008 22.153 1.119 44.249 3.192 66.311.017.183.028.366.046.549 1.176 12.428 2.283 24.857 3.443 37.282 1.139 12.218 2.329 24.431 3.688 36.632.85 7.633 1.696 15.267 2.712 22.88-.04-.368-.077-.737-.119-1.105.957 8.246 2.119 16.473 3.397 24.688 2.002 12.869 4.311 25.703 6.703 38.509 1.536 8.226 3.099 16.442 4.632 24.648 2.615 14.004 5.493 28.2 9.176 41.968 3.913 14.629 9.335 28.669 14.971 42.703 9.623 23.96 19.935 47.301 29.214 71.595 2.647 6.932 5.994 13.499 8.993 20.276 1.073 2.424 2.124 4.863 3.181 7.298 1.945 4.479 3.928 8.942 6.21 13.255 1.173 2.217 2.428 4.435 3.681 6.652 5.423 9.593 11.485 19.126 17.652 28.059 7.435 10.77 16.666 21.889 28.494 27.932 6.027 3.079 12.736 5.224 19.546 4.183 5.931-.907 11.011-4.67 15.22-8.84 9.245-9.162 17.33-21.12 23.576-32.499 2.181-3.973 4.249-8.017 6.252-12.095 3.268-6.653 6.295-13.43 9.008-20.325a249.344 249.344 0 003.742-10.091c4.87-14.151 9.038-28.482 13.016-42.903 4.08-14.79 9.462-29.288 14.503-43.776 5.056-14.528 10.5-29.166 13.58-44.286 3.024-14.84 6.014-29.563 8.073-44.589 1.066-7.782 1.33-15.664 2.386-23.438 1.015-7.478 2.802-14.897 4.121-22.328 2.498-14.076 4.635-28.25 6.47-42.427 3.397-26.241 5.938-53.903 8.307-80.769.452-5.12.935-10.237 1.417-15.354l1.749-23.257c.963-16.08 1.292-32.084 1.404-48.133.044-6.38.064-12.766.062-19.169-.013-28.549-.572-56.828-6.083-84.942z"/><path fill="none" d="M606.149 705.159c6.385 3.723 13.62 5.61 20.87 5.659-7.367-.088-14.609-2.144-20.955-5.831-.032.017-.062.036-.094.054.06.036.119.083.179.118zm43.03-.561a41.301 41.301 0 002.32-1.521c-.746.541-1.535 1.029-2.32 1.521zm-1.615.969a40.45 40.45 0 01-2.653 1.39c.577-.268 1.154-.534 1.721-.83.322-.169.616-.383.932-.56zm-12.195-38.676c-11.738 4.787-19.355-13.474-7.471-18.317 11.898-4.855 19.2 13.534 7.471 18.317zM507.15 709.105zm120.248 1.711zm3.675-.159zm4.228-.602c.547-.105 1.094-.208 1.636-.335-.544.127-1.09.23-1.636.335zm6.027-1.629zm-102.802-3.256a41.646 41.646 0 005.106-3.423c.14-.11.288-.261.433-.393-8.982 7.148-20.598 10.282-31.848 8.785 2.075.291 4.164.481 6.264.454a41.84 41.84 0 0020.045-5.423zm99.935 4.15zm65.415 211.497l-.199 1.088m-12.016-25.583l-.239 1.308m-8.028 44.989l.676-.092"/><path fill="#FFB3B3" d="M544.064 701.354c-.145.132-.293.283-.433.393a41.798 41.798 0 01-5.106 3.423 41.862 41.862 0 01-20.045 5.423c-2.1.027-4.189-.163-6.264-.454-.094-.012-.187-.035-.281-.048a41.733 41.733 0 01-4.785-.987 41.86 41.86 0 01-2.738-.818c-.47-.162-.938-.322-1.403-.5-1.37-.52-2.727-1.09-4.051-1.765-1.264-.644-2.469-1.37-3.647-2.131a40.84 40.84 0 01-3.421-2.475c-.334-.265-.697-.492-1.023-.767-1.702-1.438-1.824-1.721-3.914-.737-1.859.876-3.637 1.941-5.402 2.988-5.432 3.221-10.44 7.737-10.651 14.529-.197 6.34 5.9 9.923 11.206 11.761 12.927 4.476 29.042 2.827 42.24.529 5.732-.998 14.471-2.712 21.128-6.211 6.979-3.668 11.669-9.297 8.178-18.141l-.312-.807.108.38c-.546-1.582-1.265-3.117-2.317-4.432-.436-.545-1.283-1.589-1.96-1.979-2.126-1.225-.389-.716-1.887.007-.033.016-.067.05-.1.068-1 .974-2.04 1.892-3.12 2.751zm105.115 3.244c-.532.333-1.065.66-1.615.969-.317.177-.611.392-.932.56-.566.296-1.144.562-1.721.83-.111.052-.22.108-.331.16a40.886 40.886 0 01-3.252 1.31c-.136.048-.261.113-.396.159-.279.096-.564.161-.844.251a42.62 42.62 0 01-1.626.484c-.508.14-1.014.279-1.525.399-.542.127-1.089.23-1.636.335-.749.143-1.498.27-2.249.371-.659.09-1.318.173-1.979.232-.365.031-.729.053-1.094.075-.86.054-1.72.082-2.581.084-.127 0-.253.004-.379.002-7.25-.049-14.485-1.936-20.87-5.659-.06-.035-.119-.082-.179-.119a16.272 16.272 0 01-1.18-.807 42.317 42.317 0 01-2.309-1.575c-.177-.1-.353-.216-.533-.297-1.812-.814-.594-.713-2.178.002-.721.327-1.619 1.213-2.224 1.782-2.556 2.4-4.417 5.565-4.963 9.049-1.004 6.404 3.748 10.414 9.25 12.682 12.554 5.176 28.808 3.691 41.877 1.581 4.758-.768 11.316-1.807 17.301-3.836 8.99-3.048 16.672-8.351 14.908-18.504-.188-1.105-.686-2.135-1.071-3.179l.108.38c-1.07-3.121-2.972-5.526-5.59-7.508a15.784 15.784 0 00-3.608-2.08c-.475-.193-1.595-.708-2.183-.723-1.831-.047-1.382.078-2.538 1.664-2.581 3.543-5.747 6.633-9.288 9.211-.085.063-.165.132-.252.194a40.536 40.536 0 01-2.318 1.521z"/><path fill="#FFF" d="M635.369 666.891c11.728-4.783 4.426-23.172-7.471-18.317-11.883 4.843-4.267 23.104 7.471 18.317zm-127.399-1.05c2.132 2.044 5.225 3.021 8.79 1.566 10.36-4.228 3.82-20.323-6.562-16.087-.894.365-1.619.842-2.27 1.362-4.301 3.439-3.489 9.774.042 13.159z"/><path fill="#FFF" d="M506.624 628.274c-15.792 4.412-27.804 18.06-30.207 34.277-2.196 14.824 4.024 29.685 15.472 38.863a41.225 41.225 0 003.421 2.475 41.068 41.068 0 003.647 2.131c1.325.675 2.682 1.245 4.051 1.765a41.17 41.17 0 004.141 1.318c1.583.416 3.178.762 4.785.987.094.013.187.036.281.048 11.25 1.497 22.866-1.637 31.848-8.785a41.258 41.258 0 003.118-2.752 41.323 41.323 0 002.191-2.291c12.12-13.818 13.835-34.469 4.01-50.036a41.127 41.127 0 00-8.84-9.944c-10.402-8.464-24.643-11.766-37.918-8.056zm18.486 69.436c-5.666 1.584-11.101 1.29-15.954-.337-16.444-5.512-26.123-26.479-14.776-42.858 3.593-5.186 8.352-8.541 13.52-10.3 16.114-5.483 36.246 4.675 37.726 24.258.999 13.219-7.76 25.67-20.516 29.237zm67.53-52.469c-9.444 13.794-9.759 32.403-.641 46.455 2.822 4.348 6.413 8.015 10.482 10.962.756.547 1.52 1.08 2.309 1.575.418.263.847.505 1.274.753 6.346 3.688 13.587 5.743 20.955 5.831.126.001.252-.003.379-.002.859.003 1.72-.033 2.581-.084.365-.022.729-.044 1.094-.075.661-.057 1.32-.143 1.979-.232.752-.101 1.5-.227 2.249-.371.546-.105 1.092-.208 1.636-.335a41.72 41.72 0 001.525-.399 39.74 39.74 0 001.626-.484c.28-.09.565-.154.844-.251.136-.047.261-.111.396-.159a40.713 40.713 0 003.252-1.31c.111-.051.22-.107.331-.16a40.198 40.198 0 002.653-1.39 40.324 40.324 0 001.615-.969c.785-.492 1.574-.98 2.32-1.521.086-.062.167-.131.252-.194 13.71-10.091 20.61-28.224 15.86-45.217-3.89-13.92-14.969-24.906-28.685-28.948a41.161 41.161 0 00-4.54-1.089c-15.993-2.788-32.581 4.228-41.746 17.614zm62.955 22.45c.999 13.219-7.76 25.671-20.516 29.238-8.156 2.281-15.839.684-21.977-3.219-4.904-3.119-8.819-7.707-11.18-13.006-3.692-8.286-3.598-18.276 2.426-26.97 14.794-21.352 49.292-11.909 51.247 13.957z"/><path fill="none" d="M510.198 651.32c-10.366 4.228-3.81 20.317 6.562 16.087 10.378-4.239 3.8-20.313-6.562-16.087zm-55.661 209.104l.133.721c.252-.033.486-.087.735-.123-.305-.032-.56-.176-.868-.598zm180.832-193.533c11.9-4.849 4.257-23.1-7.471-18.317-11.74 4.787-4.409 23.165 7.471 18.317z"/><path fill="#FF7E1D" d="M682.991 755.061c-1.341 3.842-3.197 10.473-2.175 14.521 1.017 4.026 7.477 4.099 7.582-.434.064-2.706.312-5.413.879-8.061.401-1.874 1.556-4.225 1.202-6.17-.844-4.631-6.264-3.362-7.488.144zm-21.69-7.054c-7.456-.657-6.248 8.469-6.26 13.111-.012 5.112-2.581 17.148 4.74 18.384 7.587 1.28 6.919-8.934 6.967-13.628.052-5.118 2.298-17.282-5.447-17.867z"/><path fill="#FF7E1D" d="M718.362 760.418c-2.871-1.479-16.117-.496-19.209-.235-3.398.287-6.775.627-7.783 4.477-2.449 9.361 11.592 6.537 16.337 6.247a331.035 331.035 0 00-1.075 7.742c-.21 1.636-.003 7.381-1.14 8.412-.185.168-3.533.12-3.748.141a37.048 37.048 0 00-4.23.648c-2.738.588-5.414 1.172-8.21 1.44-5.725.549-11.431.79-17.138 1.571-5.263.72-10.983 1.876-16.116 1.876-15.611.815-31.265 1.586-46.905 1.479-4.098-.028-16.24-2.491-15.08 4.944.48 3.076 3.021 3.754 5.635 3.905 3.986.23 7.992.306 11.982.411 14.976.395 29.94.63 44.92.642 7.71.006 15.339-1.008 23.033-1.277 7.749-.271 16.068-.716 23.787-.079-2.559 21.072-4.667 42.196-7.185 63.269-1.212 10.149-2.768 20.235-4.58 30.291l-.014.083c-1.864 10.332-2.578 20.661-2.823 31.152-4.881-1.133-10.32.98-14.955 2.253-5.595 1.537-11.164 3.264-16.778 4.717-5.924 1.533-12.007 2.645-18.014 3.8-3.01.578-5.937.931-8.994 1.105-2.252.128-4.489.195-5.889 2.236-1.163 1.695-.998 4.01.277 5.602 1.904 2.378 4.857 1.729 7.536 1.55 6.171-.413 12.217-1.639 18.36-2.26 6.176-.624 12.263-1.855 18.427-2.442 4.848-.461 9.766-.814 14.601-1.5.788-.112 1.579-.21 2.362-.343-2.875 12.175-5.714 24.368-9.041 36.427-1.783 6.462-3.055 13.06-4.928 19.493-.83 2.85-1.765 5.67-2.656 8.502-.723 2.298-1.501 7.344-3.211 8.518-1.633 1.121-6.185.648-8.054.722a171.39 171.39 0 00-8.007.531c-2.65.231-5.295.551-7.958.587-2.396.032-5.429-.783-7.096 1.433-4.455 5.926 5.946 6.204 8.983 6.127 6.721-.17 13.159-.736 19.873.062-5.026 16.32-13.681 31.273-21.28 46.519-.028.056-.058.109-.086.165-.609-.211-1.212-.436-1.822-.643-6.459-2.186-12.927-4.361-19.475-6.263-5.32-1.545-11.375-4.552-16.704-1.471-4.785 2.766-6.52 9.297-3.288 13.881 3.097 4.393 9.842 5.969 14.586 7.836 5.68 2.236 11.359 4.454 17.029 6.714.169.122.369.225.626.292.05.013.1.007.15.014.502.2 1.005.392 1.506.594a411.059 411.059 0 0010.379 3.983c3.268-6.653 6.295-13.43 9.008-20.325-1.011-.419-2.02-.841-3.032-1.257-1.28-.526-2.577-1.014-3.871-1.505 8.81-12.817 18.272-26.051 22.941-40.796 5.249-16.573 10.877-33.076 15.961-49.703 3.083-10.084 6.486-20.017 9.749-30.038 1.46-4.485 2.728-9.03 3.882-13.598a321.616 321.616 0 001.713-7.051c.27-1.178.531-2.359.778-3.542.125-.598 1.047-5.51.497-2.413.825-4.277 1.529-8.576 2.247-12.872-.125.692-.252 1.383-.379 2.074.367-1.981.719-3.965 1.051-5.953-.129.709-.258 1.418-.385 2.128.225-1.258.448-2.516.667-3.775.108-.621.773-4.318.225-1.376.414-2.267.793-4.54 1.17-6.814l-.385 2.153c5.411-29.951 8.409-60.175 11.961-90.393 1.792-15.247 3.334-30.512 5.065-45.761 1.593-14.042 4.565-45.404 5.762-59.47.002.001-9.538 41.886-11.542 54.407zm-142.989-16.106c-2.1 2.681-5.587 3.791-8.976 4.219 5.48 3.724 13.092 4.627 18.799 1.075 4.356-2.711 6.528-7.156 8.17-11.895 1.385-3.995 2.798-9.698 8.528-7.693 2.263.804 3.29 2.359 3.612 4.217.24.002.51 0 .847-.012 2.387-.089 4.772-.133 7.161-.175 8.839-.152 17.345-1.062 25.989-2.924 7.09-1.527 15.257-3.512 21.51-7.503-5.985 2.029-12.543 3.068-17.301 3.836-13.069 2.11-29.323 3.595-41.877-1.581-5.503-2.268-10.255-6.278-9.25-12.682.546-3.484 2.407-6.649 4.963-9.049.605-.569 1.502-1.455 2.224-1.782 1.583-.716.365-.816 2.177-.002.18.081.356.197.533.297-4.069-2.948-7.66-6.614-10.482-10.963-9.119-14.052-8.803-32.661.641-46.455 9.165-13.386 25.753-20.402 41.746-17.612 1.544.269 3.053.65 4.54 1.089 2.571-1.385 3.86-4.426 2.816-7.235 4.074.639 7.751 3.019 10.876 5.628 2.609 2.178 4.48 4.22 7.524 5.228V614.58c-5.505-3.041-12.849-4.175-18.855-4.856-6.794-.77-14.468-2.218-21.225-.784-5.137 1.09-12.157 5.305-15.629-.465a25.93 25.93 0 00-2.869 1.845c-2.533 1.891-3.979 5.021-3.369 8.182.108.557 1.318 2.563 1.255 2.916-.035.192-2.16 1.581-2.13 1.559-1.741 1.349-3.392 2.816-5.01 4.309-13.355 12.323-20.867 29.096-18.494 47.399.55 4.242 1.762 8.41 3.808 12.181.943 1.739 2.09 3.398 3.312 4.955.52.664 1.036 1.305 1.617 1.915 1.567 1.644 1.769 1.211.38 3.076-5.048 6.778-6.222 17.089-2.804 24.858.669 1.52 2.827 3.379 3.133 4.794.27 1.247-1.07 3.652-1.559 5.293-1.379 4.623-3.335 8.731-6.331 12.555z"/><path fill="#FF7E1D" d="M565.142 1077.569c4.392-1.831 9.072-3.725 9.834-9.132.666-4.726-2.584-9.891-7.327-10.962-3.147-.713-6.136-.008-9.104.904-.478-1.574-1.014-3.12-1.464-4.709 10.54-1.932 21.081-3.324 31.548-5.699a564.233 564.233 0 0115.588-3.309c1.819-.359 3.908-.63 4.456-2.76.523-2.031-1.305-4.47-3.499-4.112-7.341 1.218-15.357 1.61-22.786.933-7.236-.66-14.426-2.52-21.584-3.72-1.404-.235-2.811-.472-4.223-.654-1.136-.147-4.714.153-5.563-.506-.85-.66-1.475-4.469-1.837-5.54-.49-1.449-.975-2.899-1.445-4.354-2.353-7.277-4.426-14.64-6.656-21.954-4.2-13.771-9.332-27.191-12.761-41.201-3.637-14.859-6.975-29.747-9.841-44.772 12.601-.67 25.147-2.218 37.671-3.726 5.819-.701 11.75-1.654 17.531-2.613 2.367-.393 5.129-2.544 1.617-4.082-1.852-.811-6.616.468-8.72.648-12.146 1.035-24.476-1.041-36.611-1.811a462.75 462.75 0 01-12.289-.945c-1.345.374-1.931-.083-1.762-1.368-.534-1.03-.522-2.905-.695-4.001-1.057-6.691-1.714-13.438-2.734-20.135 19.776-2.027 39.534-4.132 59.294-6.253 10.154-1.09 20.271-1.773 30.34-3.603 8.655-1.573 18.028-3.684 27.772-5.177 2.949-.452 8.636-.042 10.543-2.88 2.355-3.504-1.057-6.566-4.481-6.378-9.215.506-18.443 1.73-27.665 2.345-19.749 1.318-39.687 2.05-59.486 1.76-11.019-.161-22.061-.051-33.074-.336-1.217-.032-3.376.274-4.513-.151l-1.473-.096c-.097-1.005-.19-2.011-.281-3.017a1062.17 1062.17 0 01-.646-7.55c-.501-6.037-6.742-52.651-6.966-69.926-.176-4.511-.186-9.012-.202-13.535-.01-3.094-.065-6.188-.045-9.282.019-2.982-.465-6.554.191-9.461.501-2.22.551-1.545 2.959-1.56 1.45-.009 2.9-.049 4.348-.1 2.98-.105 5.938-.312 8.884-.783 5.523-.883 10.89-2.476 15.904-4.965.982 3.257 2.952 7.019 4.414 10.107 1.894 3.999 4.884 7.156 7.937 10.28 5.182 5.302 12.741 8.667 19.695 11.156 7.766 2.78 16.837 1.3 23.749-3.101 3.401-2.165 5.998-4.81 8.289-8.105 1.153-1.658 3.101-3.84 3.713-5.786.37-1.178.178-2.422-.068-3.635-2.447 4.774-5.65 8.953-10.206 12.067-10.925 7.469-24.577 5.538-33.774-3.704 2.488 2.529-.028.036-.593-.529-.82-.82-1.632-1.631-2.314-2.573-1.374-1.897-2.27-4.135-3.352-6.193-1.704-3.242-3.164-6.788-3.037-10.482.003-.096.035-.185.043-.28-.794-1.201-1.602-2.398-2.316-3.632-.286-.494-1.263-1.857-1.271-2.302-.003-.171 1.076-1.669 1.21-2.081.513-1.58.256-3.308-.537-4.74-6.657 3.498-15.396 5.213-21.128 6.211-13.198 2.298-29.313 3.947-42.24-.529-5.305-1.837-11.403-5.421-11.206-11.761.211-6.792 5.219-11.308 10.651-14.529 1.765-1.047 3.544-2.113 5.402-2.988 2.09-.985 2.212-.701 3.914.737.326.275.689.502 1.023.767-11.448-9.178-17.669-24.038-15.472-38.863 2.403-16.217 14.415-29.866 30.207-34.277 13.275-3.711 27.516-.408 37.918 8.056a6.774 6.774 0 002.227-4.304c.652-5.682-4.631-7.584-8.964-9.098-4.78-1.669-9.669-3.121-14.746-3.388 2.427-.585 5.305-1.517 7.812-1.399 1.944.092 3.618 1.139 5.625.788 4.284-.751 6.717-5.551 4.701-9.422-1.536-2.949-5.242-4.157-8.789-4.556a7.237 7.237 0 01-1.584 1.706c-2.245 1.728-4.913 1.656-7.594 1.697-7.152.111-13.385.327-20.267 2.567-15.587 5.74-27.903 15.199-38.428 27.879-1.675 2.018-3.359 6.134-5.531 7.462-2.121 1.297-4.997-.048-5.097-2.626-.101-2.634 2.871-5.969 4.274-8.037 1.742-2.566 3.669-4.995 5.593-7.426 9.14-11.553 20.229-19.979 33.131-26.998a55.895 55.895 0 0115.842-5.72c.03-.16.054-.321.084-.481.376-2.009.777-4.013 1.186-6.015.204-1.002.413-2.002.621-3.003.463-2.228.392-2.425 2.018-3.547 3.341-2.306 8.767-3.352 12.577-4.748 4.269-1.565 8.549-3.078 12.88-4.461 16.921-5.401 33.817-9.686 51.381-12.322 8.241-1.237 16.564-2.925 24.862-3.673 4.2-.378 18.391 2.212 14.402-6.985-1.627-3.75-6.017-3.195-9.411-3.653-4.297-.58-8.595-1.262-12.884-1.901-8.586-1.28-16.966-1.864-25.648-2-20.459-.322-40.468 3.294-60.072 9.068 1.305-3.083 2.754-6.101 4.237-9.101.696-1.408 1.448-4.041 2.567-5.124.818-.792 3.041-1.594 4.062-2.111 6.185-3.131 12.62-5.714 19.149-8.029 12.967-4.596 25.761-8.41 39.689-8.415 3.454-.001 12.802 2.084 10.878-4.738-1.43-5.073-12.459-3.813-16.455-3.874-13.891-.213-27.672.23-41.46 1.779 6.856-8.029 13.583-15.984 22.163-22.251 8.437-6.162 17.529-11.553 27.29-15.305 9.909-3.81 19.38-8.595 29.412-12.13 10.28-3.621 20.884-6.375 31.704-7.767-32.084-13.913-68.126-17.614-102.709-14.299-10.784 1.034-21.384 3.517-31.927 5.93-7.626 1.746-15.191 3.598-22.591 6.152-18.64 6.433-35.86 14.79-47.698 31.19-1.311 1.816-2.499 3.735-3.36 5.809-.94 2.264-.701 4.328-1.33 6.559-.605 2.141-2.338 4.356-3.288 6.426a134.588 134.588 0 00-3.14 7.446c-3.584 9.237-5.193 19.156-6.589 28.927-2.228 15.585-3.667 31.164-3.885 46.926-.454 32.659-.383 65.269 1.708 97.859.966 15.063 2.664 30.054 4.042 45.077.046.466.089.933.135 1.399.021.22.036.441.057.661.065.723.139 1.444.202 2.167 1.913 21.999 3.932 43.964 6.86 65.863-.017-.372-.022-.744-.043-1.116.433 5.382 1.28 10.748 2.124 16.079.301 1.903.621 3.804.926 5.706.332 2.081.098 2.951 1.777 3.587-.417-.08-.84-.122-1.253-.217-.055-.053-.14-.097-.214-.144 2.002 12.869 4.311 25.703 6.703 38.509.062-.008.123-.01.185-.018l-.133-.721c.308.422.563.565.867.598-.249.036-.483.09-.735.123 3.332 18.333 6.744 36.656 10.765 54.85 5.091 23.033 13.941 44.746 22.764 66.536 4.923 12.158 10.049 24.198 15.28 36.222 3.979 9.143 7.068 18.649 10.87 27.862 3.198 7.748 6.782 15.401 10.317 23.031l-.015.006c1.945 4.479 3.928 8.942 6.21 13.255 1.173 2.217 2.428 4.435 3.681 6.652l.341-.121c2.936 4.926 6.006 9.777 8.929 14.733 6.122 10.384 12.963 20.483 21.411 29.132 9.039 9.255 21.932 18.315 35.581 16.061-9.347-14.593-16.211-30.818-24.131-46.207a272.451 272.451 0 01-11.529-25.591z"/><path fill="#FF7E1D" d="M606.064 704.987c-.427-.248-.856-.49-1.274-.753.391.29.785.564 1.18.807.032-.018.062-.037.094-.054z"/><path d="M509.941 643.438c-24.865 6.948-27.445 42.352-3.88 52.869 23.722 10.587 48.321-15.378 36.582-38.507-5.999-11.821-19.945-17.926-32.702-14.362zm6.819 23.969c-10.372 4.23-16.928-11.86-6.562-16.087 10.362-4.226 16.94 11.848 6.562 16.087zm87.673-58.932c3.472 5.77 10.492 1.555 15.629.465 6.757-1.434 14.431.014 21.225.784 6.57.745 14.767 2.003 20.377 5.74 2.207 1.471 4.159 4.884 7.187 4.338 2.512-.452 3.908-3.554 2.618-5.691-.131-.217-.261-.436-.45-.629-10.044-10.268-20.486-18.401-34.953-20.926-7.421-1.295-14.908-1.672-22.131.78-5.587 1.896-13.054 6.537-10.224 13.682.217.55.462 1.024.722 1.457zm-145.428 37.789c2.172-1.328 3.856-5.444 5.531-7.462 10.525-12.68 22.841-22.14 38.428-27.879 6.881-2.24 13.114-2.456 20.267-2.567 2.681-.042 5.348.031 7.594-1.697a7.199 7.199 0 001.584-1.706c1.374-2.05 1.677-4.739.52-7.041-2.996-5.961-10.839-3.793-16.029-3.161-1.401.17-2.777.433-4.151.707a55.873 55.873 0 00-15.842 5.72c-12.902 7.019-23.991 15.445-33.131 26.998-1.924 2.431-3.851 4.86-5.593 7.426-1.403 2.067-4.375 5.403-4.274 8.037.1 2.577 2.976 3.922 5.096 2.625zm157.024 49.263c23.722 10.588 48.323-15.379 36.583-38.508-5.999-11.821-19.946-17.927-32.702-14.36-24.868 6.948-27.446 42.349-3.881 52.868zm11.869-46.953c11.728-4.783 19.371 13.468 7.471 18.317-11.88 4.848-19.211-13.53-7.471-18.317zm-24.797 96.251c1.19-2.785 2.992-7.198 2.405-10.59-.322-1.857-1.35-3.413-3.612-4.217-5.73-2.005-7.143 3.698-8.528 7.693-1.642 4.739-3.813 9.184-8.17 11.895-5.707 3.552-13.318 2.648-18.799-1.075-1.692-1.149-3.187-2.559-4.352-4.2-1.168-1.644-2.341-3.33-3.274-5.119-1.103-2.115-1.045-5.198-2.934-6.8-3.461-2.937-7.145.166-7.451 3.851-.008.095-.039.185-.043.281-.127 3.693 1.333 7.239 3.037 10.482 1.082 2.058 1.978 4.296 3.352 6.193.682.942 1.495 1.753 2.315 2.573.565.565 3.081 3.057.593.529 9.197 9.242 22.849 11.174 33.774 3.704 4.556-3.114 7.759-7.293 10.206-12.067a50.813 50.813 0 001.481-3.133z"/></svg>