<?xml version="1.0" encoding="utf-8"?>
<!-- Generator: Adobe Illustrator 16.0.0, SVG Export Plug-In . SVG Version: 6.00 Build 0)  -->
<!DOCTYPE svg PUBLIC "-//W3C//DTD SVG 1.1//EN" "http://www.w3.org/Graphics/SVG/1.1/DTD/svg11.dtd">
<svg version="1.1" xmlns="http://www.w3.org/2000/svg" xmlns:xlink="http://www.w3.org/1999/xlink" x="0px" y="0px"
	 width="2838.923px" height="1610.175px" viewBox="0 0 2838.923 1610.175" enable-background="new 0 0 2838.923 1610.175"
	 xml:space="preserve">
<g id="Capa_1">
	<g>
		<rect x="-19.324" y="-20.563" fill="#BFCFE0" width="2896.328" height="1006.723"/>
		<rect x="1994.891" y="858.113" fill="#3E210E" width="3.961" height="23.017"/>
		<path fill="#E3C950" d="M2006.073,863.998c0.665-0.376,1.324-0.764,1.941-1.194c0-0.005,0.006-0.005,0.012-0.011
			c0.904-1.664,1.608-3.485,1.99-5.317c0.006-2.684-0.66-5.329-1.354-7.925c-0.162-0.605-0.059-1.118,0.158-1.555
			c0.072-1.015,0.285-2.045,0.633-3.082c0.66-1.979-1.592-8.935-7.429-12.142c-0.158-0.043-0.316-0.092-0.479-0.136
			c-1.772,0.12-3.186,0.916-4.866,1.304c-1.08,0.25-2.236,0.431-3.326,0.021c-0.125-0.049-0.311-0.137-0.459-0.202h-1.346
			c-0.066,0-0.115-0.032-0.182-0.038c-0.768,0.251-1.531,0.529-2.273,0.873c-1.887,2.329-3.992,5.536-3.725,7.969
			c0.479,4.314-2.291,11.944-2.291,11.944s-0.027,0.033-0.033,0.039c-0.043,1.053-0.131,2.115-0.076,3.136
			c0.065,0.262,0.109,0.523,0.191,0.774c1.129,3.507,3.24,4.859,6.631,5.988c0.791,0.268,1.49,0.513,2.145,0.835
			c3.883,0.19,8.115,0.136,11.41,0.027C2004.224,864.85,2005.167,864.445,2006.073,863.998z"/>
		<path fill="#CCA846" d="M1993.354,833.962c-0.125-0.049-0.311-0.137-0.459-0.202h-1.346c-0.066,0-0.115-0.032-0.182-0.038
			c-0.768,0.251-1.531,0.529-2.273,0.873c-1.887,2.329-3.992,5.536-3.725,7.969c0.479,4.314-2.291,11.944-2.291,11.944
			s-0.027,0.033-0.033,0.039c-0.043,1.053-0.131,2.115-0.076,3.136c0.065,0.262,0.109,0.523,0.191,0.774
			c1.129,3.507,3.24,4.859,6.631,5.988c0.797,0.268,1.496,0.519,2.154,0.84c1.338,0.065,2.717,0.104,4.086,0.115v-31.329
			C1995.143,834.234,1994.227,834.289,1993.354,833.962z"/>
		<rect x="2025.61" y="862.302" fill="#3E210E" width="3.959" height="23.018"/>
		<path fill="#E3C950" d="M2036.791,868.188c0.665-0.376,1.325-0.764,1.941-1.194c0-0.006,0.006-0.006,0.012-0.012
			c0.904-1.663,1.608-3.485,1.99-5.317c0.006-2.684-0.66-5.328-1.353-7.925c-0.163-0.605-0.06-1.118,0.158-1.555
			c0.071-1.015,0.284-2.045,0.632-3.081c0.66-1.98-1.592-8.935-7.429-12.142c-0.158-0.044-0.316-0.093-0.479-0.137
			c-1.772,0.12-3.185,0.916-4.864,1.304c-1.08,0.251-2.236,0.431-3.328,0.022c-0.125-0.05-0.311-0.137-0.457-0.202h-1.348
			c-0.066,0-0.115-0.033-0.18-0.038c-0.77,0.251-1.533,0.529-2.275,0.873c-1.887,2.328-3.992,5.536-3.725,7.969
			c0.48,4.313-2.291,11.944-2.291,11.944s-0.027,0.032-0.033,0.038c-0.043,1.053-0.131,2.116-0.076,3.136
			c0.066,0.262,0.109,0.523,0.191,0.774c1.129,3.508,3.24,4.86,6.633,5.989c0.791,0.267,1.488,0.513,2.143,0.835
			c3.883,0.19,8.115,0.136,11.41,0.027C2034.942,869.038,2035.886,868.635,2036.791,868.188z"/>
		<path fill="#CCA846" d="M2024.071,838.151c-0.125-0.05-0.311-0.137-0.457-0.202h-1.348c-0.066,0-0.115-0.033-0.18-0.038
			c-0.77,0.251-1.533,0.529-2.275,0.873c-1.887,2.328-3.992,5.536-3.725,7.969c0.48,4.313-2.291,11.944-2.291,11.944
			s-0.027,0.032-0.033,0.038c-0.043,1.053-0.131,2.116-0.076,3.136c0.066,0.262,0.109,0.523,0.191,0.774
			c1.129,3.508,3.24,4.86,6.633,5.989c0.795,0.267,1.494,0.519,2.154,0.84c1.336,0.065,2.715,0.104,4.084,0.114V838.26
			C2025.86,838.424,2024.944,838.479,2024.071,838.151z"/>
		<rect x="2056.328" y="866.491" fill="#3E210E" width="3.96" height="23.017"/>
		<path fill="#E3C950" d="M2067.509,872.376c0.666-0.376,1.326-0.764,1.941-1.194c0-0.005,0.006-0.005,0.012-0.011
			c0.906-1.664,1.609-3.485,1.99-5.318c0.006-2.684-0.66-5.329-1.352-7.925c-0.164-0.605-0.061-1.118,0.158-1.555
			c0.07-1.014,0.283-2.045,0.633-3.081c0.66-1.979-1.594-8.934-7.43-12.141c-0.158-0.044-0.316-0.093-0.479-0.137
			c-1.772,0.12-3.186,0.916-4.865,1.304c-1.08,0.251-2.236,0.431-3.328,0.021c-0.125-0.049-0.311-0.136-0.457-0.202h-1.348
			c-0.064,0-0.115-0.032-0.18-0.037c-0.77,0.25-1.533,0.528-2.275,0.872c-1.887,2.329-3.992,5.536-3.725,7.969
			c0.48,4.314-2.291,11.944-2.291,11.944s-0.027,0.032-0.031,0.038c-0.045,1.053-0.131,2.116-0.078,3.136
			c0.066,0.263,0.109,0.524,0.191,0.775c1.129,3.507,3.24,4.859,6.633,5.989c0.791,0.267,1.488,0.513,2.143,0.834
			c3.885,0.191,8.116,0.137,11.411,0.027C2065.66,873.228,2066.604,872.824,2067.509,872.376z"/>
		<path fill="#CCA846" d="M2054.789,842.34c-0.125-0.049-0.311-0.136-0.457-0.202h-1.348c-0.064,0-0.115-0.032-0.18-0.037
			c-0.77,0.25-1.533,0.528-2.275,0.872c-1.887,2.329-3.992,5.536-3.725,7.969c0.48,4.314-2.291,11.944-2.291,11.944
			s-0.027,0.032-0.031,0.038c-0.045,1.053-0.131,2.116-0.078,3.136c0.066,0.263,0.109,0.524,0.191,0.775
			c1.129,3.507,3.24,4.859,6.633,5.989c0.797,0.267,1.494,0.518,2.154,0.84c1.336,0.065,2.717,0.104,4.085,0.114v-31.329
			C2056.578,842.612,2055.662,842.667,2054.789,842.34z"/>
		<rect x="2087.046" y="870.681" fill="#3E210E" width="3.96" height="23.016"/>
		<path fill="#E3C950" d="M2098.228,876.565c0.665-0.377,1.325-0.764,1.942-1.194c0-0.006,0.004-0.006,0.01-0.011
			c0.906-1.664,1.609-3.485,1.991-5.318c0.005-2.684-0.659-5.329-1.353-7.925c-0.164-0.605-0.061-1.119,0.158-1.555
			c0.07-1.015,0.283-2.046,0.633-3.082c0.66-1.979-1.594-8.934-7.429-12.141c-0.158-0.043-0.316-0.093-0.48-0.137
			c-1.772,0.121-3.186,0.917-4.865,1.304c-1.08,0.251-2.236,0.431-3.326,0.022c-0.127-0.049-0.313-0.137-0.459-0.202h-1.348
			c-0.064,0-0.113-0.032-0.18-0.038c-0.77,0.251-1.533,0.529-2.273,0.873c-1.889,2.328-3.992,5.535-3.727,7.968
			c0.48,4.314-2.289,11.944-2.289,11.944s-0.027,0.033-0.033,0.038c-0.045,1.053-0.131,2.117-0.076,3.137
			c0.064,0.262,0.109,0.523,0.189,0.774c1.129,3.508,3.24,4.86,6.633,5.989c0.791,0.268,1.488,0.513,2.143,0.834
			c3.885,0.191,8.117,0.137,11.411,0.027C2096.378,877.416,2097.322,877.013,2098.228,876.565z"/>
		<path fill="#CCA846" d="M2085.509,846.529c-0.127-0.049-0.313-0.137-0.459-0.202h-1.348c-0.064,0-0.113-0.032-0.18-0.038
			c-0.77,0.251-1.533,0.529-2.273,0.873c-1.889,2.328-3.992,5.535-3.727,7.968c0.48,4.314-2.289,11.944-2.289,11.944
			s-0.027,0.033-0.033,0.038c-0.045,1.053-0.131,2.117-0.076,3.137c0.064,0.262,0.109,0.523,0.189,0.774
			c1.129,3.508,3.24,4.86,6.633,5.989c0.797,0.268,1.494,0.518,2.154,0.84c1.336,0.065,2.717,0.104,4.086,0.114v-31.329
			C2087.296,846.802,2086.38,846.856,2085.509,846.529z"/>
		<path fill="#FFFFFF" d="M1922.901,786.494c0,0,16.755-17.558,67.022-17.558c50.266,0,53.059,14.045,53.059,14.045l100.53,3.512
			c0,0,24.954,0.011,27.927,9.365c5.585,17.558-55.852,16.384-55.852,16.384h-301.596c0,0-13.964-4.68-13.964-12.872
			c0-8.191,19.548-10.532,30.719-10.532C1841.917,788.839,1922.901,786.494,1922.901,786.494z"/>
		<path fill="#FFFFFF" d="M171.217,610.574c0,0,9.215-17.557,36.864-17.557c27.647,0,29.184,14.044,29.184,14.044l55.296,3.513
			c0,0,13.725,0.01,15.359,9.365c3.072,17.557-30.719,16.384-30.719,16.384H111.312c0,0-7.68-4.68-7.68-12.872
			c0-8.192,10.752-10.532,16.896-10.532C126.672,612.919,171.217,610.574,171.217,610.574z"/>
		<path fill="#6E4736" d="M952.818,917.199c0,0,142.414-96.338,280.639-50.267c138.224,46.077,146.602,37.7,188.489,20.944
			c41.887-16.755,67.016-46.071,188.488-8.377c121.465,37.699,146.599,71.21,146.599,71.21s-846.101,37.694-850.29,25.128
			C902.555,963.271,952.818,917.199,952.818,917.199z"/>
		<path fill="#6E4736" d="M-20.112,694.945c14.787,0,137.659,11.17,162.792,13.962c25.133,2.793,2.792,27.926,27.925,30.719
			c25.133,2.792,41.888,0,64.229-2.793c22.34-2.792,67.021-33.51,75.399-30.718c8.378,2.792,55.852,2.792,72.607,2.792
			s30.718,16.756,33.511,61.437c2.792,44.682,19.548,64.229,27.926,64.229c8.377,0,5.585,30.718,5.585,39.096
			s-245.745,58.645-254.124,58.645c-8.377,0-209.442,11.911-209.442,11.911L-20.112,694.945z"/>
		<path fill="#6E4736" d="M2082.698,920.078c0,0,239.18-154.938,653.002-20.72c55.453,42.243-50.969,26.006-0.801,31.285
			c50.168,5.28-47.535,5.28-47.535,5.28l-631.069,7.919L2082.698,920.078z"/>
		<path fill="#B77138" d="M405.181,907.18c8.377-5.585,78.192-16.756,97.74-78.192c19.548-61.436,61.741-184.309,64.534-203.856
			c2.793-19.548,61.437-25.133,61.437-33.511c0-8.378,39.096-44.68,47.474-44.68c8.378,0,49.96,2.792,195.174,2.792
			c145.213,0,98.026,22.34,98.026,22.34s75.113,41.888,86.283,248.537c2.793,22.341,9.774,53.059,29.322,64.229
			c26.78,15.305,128.458,60.04,128.458,60.04l-132.647,2.793l-767.955-26.529L405.181,907.18z"/>
		<path fill="#BC6A12" d="M1536.169,918.35c0,0,3.204-4.145,7.947-10.624c13.516-18.469,39.526-55.89,39.526-70.36
			c0-19.548,72.603-55.851,89.356-58.643c16.757-2.793,0-114.496,0-114.496l16.757-16.755c0,0,19.548-44.681,39.095-53.059
			c19.548-8.377,61.436-2.792,61.436-2.792l39.098,11.17l5.584,80.984c0,0,8.379,47.474,11.17,55.852
			c2.793,8.377,36.304,41.888,36.304,41.888s139.999,137.103,142.421,148.006c5.586,25.133-519.411,13.963-519.411,13.963
			L1536.169,918.35z"/>
		<path fill="#6E4736" d="M2838.923,923.537c0,0,42.481-13.303,40.087-16.575c-6.834-9.338,0-68.375,0-75.694
			c0-9.883-58.551-3.382-70.349-4.45c-12.244-1.113-38.92-31.761-38.92-31.761l-8.472-8.47c0,0-9.883-22.592-19.767-26.824
			c-9.881-4.238-31.061-1.412-31.061-1.412l-19.767,5.645l-2.825,40.945c0,0-4.232,24.004-5.645,28.237
			c-1.414,4.238-18.354,21.179-18.354,21.179s-70.779,69.317-72.007,74.827c-2.825,12.708,262.604,7.063,262.604,7.063
			L2838.923,923.537z"/>
		<rect x="-20.11" y="943.483" fill="#D8A429" width="2899.12" height="666.691"/>
		<path fill="#D6B431" d="M1060.892,945.436c-56.774-9.583-77.203-29.519-244.213-57.902
			c-230.038-39.096-311.394-33.511-432.023-22.341C280.038,874.88,57.298,930.77,0,945.436H1060.892z"/>
		<polygon fill="#FFFFFF" points="1323.463,965.289 1322.178,976.416 1326.744,976.416 1327.237,965.289 		"/>
		<polygon fill="#FFFFFF" points="1325.999,943.374 1325.565,946.592 1328.041,946.592 1328.211,943.374 		"/>
		<path fill="#D6B431" d="M2881.607,944.181c1.342-29.311,4.216-102.582-0.578-102.582c-5.989,0-282.96,92.154-442.862,94.947
			c-159.907,2.792-168.322-30.719-418-58.645c-249.674-27.926-274.921,41.888-412.382,61.437
			c-12.907,1.833-26.081,3.437-39.481,4.843H2881.607z"/>
		<path fill="#FFFFFF" d="M1322.445,430.951c17.483-0.672,554.084,0,554.084,0s61.24,2.917,58.322-23.329
			c-2.912-26.248-78.737-29.164-78.737-29.164s32.082-61.242-58.327-69.99c-90.404-8.748-142.896,29.163-142.896,29.163
			s-61.234-49.577-154.557-46.661c-93.319,2.917-104.983,58.326-104.983,58.326l-110.818,14.582c0,0-67.075,11.666-61.243,37.912
			C1229.124,428.035,1246.621,433.867,1322.445,430.951z"/>
		<path fill="#FFFFFF" d="M2567.728,299.807c-16.744-0.644-433.727,0-433.727,0s-58.643,2.793-55.852-22.341
			c2.793-25.133,75.4-27.925,75.4-27.925s-68.424-61.174,18.146-69.551c86.569-8.377,77.681,30.455,77.681,30.455
			s58.643-47.473,148.005-44.681s100.532,55.851,100.532,55.851l106.117,13.963c0,0,64.229,11.17,58.645,36.303
			C2657.089,297.014,2640.334,302.6,2567.728,299.807z"/>
		<path fill="#FFFFFF" d="M2192.417,653.056h279.255c0,0,36.304,2.793,36.304-13.962c0-16.756-61.436-25.133-61.436-25.133
			s-30.719-36.304-69.814-41.888c-39.096-5.585-58.645,39.095-58.645,39.095s-53.33-8.012-92.153-5.585
			C2181.246,608.375,2122.603,653.056,2192.417,653.056z"/>
		<path fill="#FFFFFF" d="M569.942,290.024c0,0,30.718-41.888,80.984-41.888s72.607,33.511,72.607,33.511l80.984,8.377
			c0,0,24.951,0.024,27.926,22.341c5.585,41.889-55.852,39.097-55.852,39.097H433.107c0,0-36.304-11.17-36.304-30.719
			s41.889-25.133,53.059-25.133C461.033,295.61,569.942,290.024,569.942,290.024z"/>
		<path fill="#FFFFFF" d="M1290.424,643.402c0,0,16.754-29.441,67.022-29.441c50.266,0,53.058,23.551,53.058,23.551l100.533,5.89
			c0,0,24.949,0.017,27.925,15.703c5.586,29.437-55.852,27.473-55.852,27.473h-301.597c0,0-13.962-7.849-13.962-21.588
			s19.547-17.661,30.718-17.661S1290.424,643.402,1290.424,643.402z"/>
		<polygon fill="#E3C950" points="-24.874,1267.916 1124.15,943.483 1030.646,943.483 -24.874,1075.017 		"/>
		<polygon fill="#BC803B" points="-24.874,948.746 -24.874,1033.587 919.013,946.275 		"/>
		<polygon fill="#E3C950" points="1452.42,943.483 2490.954,1600.642 2542.774,1601.202 2883.767,1604.491 2883.767,1602.708 
			1480.679,943.483 		"/>
		<polygon fill="#E3C950" points="1610.009,943.483 2883.767,1232.138 2883.767,1109.974 1668.319,943.483 		"/>
		<polygon fill="#BC803B" points="1728.599,943.483 2883.767,1050.13 2883.767,948.697 2044.035,943.483 		"/>
		<polygon fill="#BC803B" points="-24.874,1521.691 1153.26,943.483 1109.763,943.483 -24.874,1252.36 		"/>
		<g>
			<g>
				<rect x="673.857" y="831.601" fill="#3E210E" width="20.243" height="117.756"/>
				<path fill="#E3C950" d="M658.467,695.433c0,0-35.804,34.531-33.347,56.606c2.451,22.073-11.705,61.096-11.705,61.096
					s-26.988,31.898-2.452,46.608c24.536,14.729,134.929,7.366,134.929,7.366s37.893-5.918,4.907-61.322
					c-7.317-12.305-7.359-26.996-2.452-41.705C753.251,749.353,727.156,680.723,658.467,695.433z"/>
				<path fill="#CCA846" d="M679.691,693.48c-6.575-0.226-13.625,0.338-21.224,1.953c0,0-35.804,34.531-33.347,56.606
					c2.451,22.073-11.705,61.096-11.705,61.096s-26.988,31.898-2.452,46.608c11.217,6.725,40.374,8.85,68.728,9.149V693.48z"/>
			</g>
			<g>
				<rect x="471.862" y="831.601" fill="#3E210E" width="20.241" height="117.756"/>
				<path fill="#E3C950" d="M456.47,695.433c0,0-35.803,34.531-33.347,56.606c2.452,22.073-11.704,61.096-11.704,61.096
					s-26.987,31.898-2.452,46.608c24.536,14.729,134.927,7.366,134.927,7.366s37.894-5.918,4.909-61.322
					c-7.319-12.305-7.361-26.996-2.452-41.705C551.255,749.353,525.159,680.723,456.47,695.433z"/>
				<path fill="#CCA846" d="M477.695,693.48c-6.577-0.226-13.626,0.338-21.225,1.953c0,0-35.803,34.531-33.347,56.606
					c2.452,22.073-11.704,61.096-11.704,61.096s-26.987,31.898-2.452,46.608c11.215,6.725,40.372,8.85,68.728,9.149V693.48z"/>
			</g>
			<g>
				<rect x="270.545" y="853.733" fill="#3E210E" width="16.439" height="95.623"/>
				<path fill="#E3C950" d="M316.986,878.175c2.771-1.561,5.515-3.155,8.08-4.958c0.009-0.02,0.017-0.038,0.037-0.038
					c3.767-6.914,6.697-14.487,8.285-22.112c0.029-11.143-2.742-22.133-5.636-32.916c-0.676-2.536-0.244-4.657,0.657-6.482
					c0.301-4.188,1.193-8.49,2.63-12.774c2.744-8.246-6.603-37.14-30.848-50.481c-0.676-0.149-1.333-0.374-2-0.542
					c-7.374,0.488-13.246,3.812-20.224,5.411c-4.491,1.05-9.3,1.802-13.828,0.073c-0.526-0.188-1.278-0.562-1.897-0.826h-5.589
					c-0.283,0-0.48-0.131-0.751-0.15c-3.213,1.053-6.379,2.198-9.46,3.608c-7.843,9.692-16.597,23.014-15.48,33.14
					c1.992,17.922-9.505,49.614-9.505,49.614s-0.113,0.152-0.14,0.169c-0.179,4.361-0.546,8.776-0.321,13.038
					c0.263,1.072,0.461,2.163,0.799,3.213c4.687,14.56,13.452,20.178,27.561,24.874c3.268,1.11,6.171,2.124,8.896,3.458
					c16.128,0.808,33.722,0.562,47.408,0.131C309.303,881.725,313.229,880.034,316.986,878.175z"/>
				<path fill="#CCA846" d="M264.139,753.354c-0.526-0.188-1.278-0.562-1.897-0.826h-5.589c-0.283,0-0.48-0.131-0.751-0.15
					c-3.213,1.053-6.379,2.198-9.46,3.608c-7.843,9.692-16.597,23.014-15.48,33.14c1.992,17.922-9.505,49.614-9.505,49.614
					s-0.113,0.152-0.14,0.169c-0.179,4.361-0.546,8.776-0.321,13.038c0.263,1.072,0.461,2.163,0.799,3.213
					c4.687,14.56,13.452,20.178,27.561,24.874c3.297,1.11,6.2,2.144,8.942,3.496c5.553,0.262,11.282,0.431,16.983,0.488V753.823
					C271.588,754.5,267.774,754.745,264.139,753.354z"/>
			</g>
			<path fill="#3E210E" d="M106.423,949.356v-90.12c0,0,44.263-23.69,41.102-25.285c-3.162-1.579-26.876,12.644-26.876,12.644
				l22.132-63.237l-37.941,61.658l-4.744-45.841l-28.452-37.95l17.387,34.795l1.583,23.707l-34.778-3.174v-22.131l-7.905,22.131
				l34.779,11.085l-3.161,25.286c0,0-37.945-7.908-49.011-12.643c-11.065-4.754,56.915,28.443,56.915,28.443v79.056L106.423,949.356
				z"/>
		</g>
		<g>
			<rect x="2557.778" y="880.389" fill="#3E210E" width="12.469" height="72.552"/>
			<path fill="#E3C950" d="M2593.019,898.931c2.105-1.182,4.189-2.393,6.125-3.764c0.018-0.012,0.018-0.027,0.027-0.027
				c2.863-5.242,5.094-10.99,6.289-16.771c0.027-8.46-2.084-16.794-4.275-24.978c-0.514-1.923-0.186-3.535,0.5-4.92
				c0.225-3.18,0.912-6.441,1.992-9.689c2.078-6.259-5.002-28.183-23.405-38.303c-0.513-0.114-1.014-0.286-1.511-0.414
				c-5.607,0.37-10.053,2.893-15.354,4.109c-3.408,0.793-7.053,1.363-10.488,0.052c-0.398-0.142-0.965-0.425-1.445-0.627h-4.227
				c-0.219,0-0.371-0.098-0.572-0.111c-2.439,0.796-4.844,1.669-7.184,2.735c-5.945,7.358-12.589,17.465-11.749,25.145
				c1.517,13.6-7.211,37.645-7.211,37.645s-0.082,0.117-0.098,0.131c-0.143,3.306-0.414,6.654-0.24,9.892
				c0.197,0.815,0.338,1.64,0.596,2.44c3.566,11.045,10.204,15.308,20.911,18.872c2.48,0.84,4.689,1.609,6.758,2.621
				c12.227,0.616,25.585,0.425,35.959,0.101C2587.188,901.628,2590.166,900.346,2593.019,898.931z"/>
			<path fill="#CCA846" d="M2552.919,804.226c-0.398-0.142-0.965-0.425-1.445-0.627h-4.227c-0.219,0-0.371-0.098-0.572-0.111
				c-2.439,0.796-4.844,1.669-7.184,2.735c-5.945,7.358-12.589,17.465-11.749,25.145c1.517,13.6-7.211,37.645-7.211,37.645
				s-0.082,0.117-0.098,0.131c-0.143,3.306-0.414,6.654-0.24,9.892c0.197,0.815,0.338,1.64,0.596,2.44
				c3.566,11.045,10.204,15.308,20.911,18.872c2.508,0.84,4.707,1.623,6.785,2.648c4.215,0.199,8.568,0.33,12.883,0.373v-98.784
				C2558.581,805.096,2555.685,805.284,2552.919,804.226z"/>
			<path fill="#3E210E" d="M2717.653,953.284l5.58-103.327c0,0,65.193-28.866,60.531-30.792
				c-4.648-1.938-39.572,15.396-39.572,15.396l-0.453-93.051l-22.846,91.14l-6.971-55.834l-20.203-66.523l3.894,62.688l2.324,28.864
				l-34.497-22.847l8.693-49.975l-19.57,56.203l33.729,26.243l-4.646,30.804c0,0-8.426-11.7-24.734-17.492
				c-16.292-5.771,36.379,36.736,36.379,36.736l6.687,89.828L2717.653,953.284z"/>
		</g>
		<g>
			<rect x="2301.784" y="847.751" fill="#3E210E" width="8.318" height="48.392"/>
			<path fill="#E3C950" d="M2325.286,860.12c1.396-0.79,2.782-1.604,4.086-2.503c0,0,0.006-0.021,0.017-0.021
				c1.897-3.488,3.387-7.32,4.188-11.194c0.017-5.627-1.386-11.19-2.847-16.65c-0.344-1.265-0.126-2.334,0.332-3.274
				c0.153-2.119,0.601-4.281,1.331-6.466c1.392-4.173-3.338-18.769-15.609-25.534c-0.338-0.087-0.672-0.191-1.01-0.278
				c-3.736,0.259-6.703,1.928-10.232,2.74c-2.269,0.535-4.706,0.92-6.992,0.044c-0.267-0.106-0.649-0.278-0.96-0.429h-2.83
				c-0.148,0-0.24-0.062-0.383-0.062c-1.619,0.512-3.223,1.112-4.789,1.818c-3.959,4.901-8.387,11.642-7.826,16.759
				c1.004,9.072-4.811,25.105-4.811,25.105s-0.06,0.084-0.07,0.084c-0.094,2.207-0.273,4.454-0.158,6.592
				c0.131,0.557,0.229,1.091,0.398,1.631c2.377,7.357,6.807,10.207,13.945,12.58c1.658,0.559,3.125,1.074,4.5,1.756
				c8.16,0.409,17.056,0.278,23.981,0.065C2321.397,861.92,2323.378,861.062,2325.286,860.12z"/>
			<path fill="#CCA846" d="M2298.55,796.982c-0.267-0.106-0.649-0.278-0.96-0.429h-2.83c-0.148,0-0.24-0.062-0.383-0.062
				c-1.619,0.512-3.223,1.112-4.789,1.818c-3.959,4.901-8.387,11.642-7.826,16.759c1.004,9.072-4.811,25.105-4.811,25.105
				s-0.06,0.084-0.07,0.084c-0.094,2.207-0.273,4.454-0.158,6.592c0.131,0.557,0.229,1.091,0.398,1.631
				c2.377,7.357,6.807,10.207,13.945,12.58c1.664,0.559,3.137,1.096,4.521,1.777c2.81,0.129,5.711,0.216,8.591,0.237V797.22
				C2302.313,797.561,2300.389,797.688,2298.55,796.982z"/>
			<path fill="#3E210E" d="M2413.967,892.826v-50.188c0,0,28.536-13.187,26.491-14.086c-2.035-0.876-17.322,7.044-17.322,7.044
				l14.273-35.213l-24.462,34.332l-3.061-25.534l-18.348-21.124l11.219,19.37l1.016,13.205l-22.423-1.753v-12.33l-5.1,12.33
				l22.423,6.163l-2.035,14.082c0,0-24.468-4.409-31.602-7.038c-7.135-2.653,36.701,15.837,36.701,15.837v44.004L2413.967,892.826z"
				/>
		</g>
		<path fill="#635242" d="M1463.65,769.417l24.058-8.553c0,0,7.734,5.804,11.604,5.804s-28.048,7.734-28.048,7.734l-15.474,6.774
			l-3.672,6.687l-0.768-7.685l7.687-5.765l-26.136-7.686l12.645-3.104C1445.547,763.624,1461.643,769.171,1463.65,769.417z"/>
		<path fill="#635242" d="M1394.922,783.761l-16.358-5.819c0,0-5.264,3.948-7.893,3.948c-2.63,0,19.072,5.264,19.072,5.264
			l10.522,4.604l2.498,4.549l0.521-5.23l-5.228-3.917l17.776-5.23l-8.104-4.702C1407.729,777.227,1396.285,783.592,1394.922,783.761
			z"/>
		<rect x="-7.413" fill="none" width="2871.604" height="1596.37"/>
		<rect x="-17.32" y="943.374" fill="#293F4C" width="2881.51" height="686.063"/>
		<g>
			<rect x="-0.419" y="1432.153" fill="#FFFFFF" width="289.66" height="24.479"/>
			<rect x="424.621" y="1432.153" fill="#FFFFFF" width="289.626" height="24.479"/>
			<rect x="849.626" y="1432.153" fill="#FFFFFF" width="289.624" height="24.479"/>
			<rect x="1274.666" y="1432.153" fill="#FFFFFF" width="289.626" height="24.479"/>
			<rect x="1699.622" y="1432.153" fill="#FFFFFF" width="289.734" height="24.479"/>
			<rect x="2124.665" y="1432.153" fill="#FFFFFF" width="289.674" height="24.479"/>
			<rect x="2549.718" y="1432.153" fill="#FFFFFF" width="289.625" height="24.479"/>
		</g>
	</g>
</g>
<g id="Capa_2">
	<g>
		<g>
			<polygon opacity="0.2" fill="#211915" points="515.433,1325.601 385.336,1445.769 2321.585,1445.769 2426.247,1287.614 			"/>
		</g>
		<g>
			<g>
				<g>
					<g>
						<path fill="#8BBDB7" d="M1978.167,416.996c6.797-1.263,13.195-3.939,19.909-5.531c2.081-0.495,1.199-3.695-0.883-3.203
							c-6.713,1.593-13.115,4.269-19.912,5.531C1975.18,414.185,1976.075,417.383,1978.167,416.996L1978.167,416.996z"/>
					</g>
					<g>
						<path fill="#8BBDB7" d="M1978.097,445.071c6.821,0.697,13.625,1.201,20.202,3.259c2.05,0.642,2.921-2.564,0.881-3.201
							c-6.855-2.146-13.972-2.651-21.083-3.377C1975.967,441.535,1975.987,444.856,1978.097,445.071L1978.097,445.071z"/>
					</g>
					<g>
						<path fill="#8BBDB7" d="M1974.775,478.251c8.539,0.454,15.363,8.02,22.757,11.57c1.92,0.922,3.607-1.941,1.677-2.867
							c-8.093-3.885-15.04-11.525-24.434-12.023C1972.634,474.818,1972.646,478.14,1974.775,478.251L1974.775,478.251z"/>
					</g>
				</g>
				<g>
					<path fill="#902B2C" d="M1863.124,523.905c0,0,3.568,3.247,9.174,3.243c6.961-0.004,8.462-3.243,8.462-3.243v-53.513h-17.636
						V523.905z"/>
					<g>
						<path fill="#902B2C" d="M1837.118,446.477c0.868,4.089,6.235,7.311,10.461,5.781v-16.306
							C1842.196,434.64,1835.944,441.193,1837.118,446.477z"/>
					</g>
					<path fill="#CB6963" d="M1950.655,499.272c-0.346-0.396-0.927-1.062-1.68-1.906
						C1949.516,498.258,1950.08,498.891,1950.655,499.272z"/>
					<path fill="#902B2C" d="M1951.876,397.151c-0.29,0-0.579,0.079-0.862,0.21c-4.514,2.091-8.135,20.458-8.756,43.916
						c2.643,0.083,4.772,4.052,4.772,8.942c0,4.816-2.067,8.733-4.653,8.931c0.731,18.151,3.283,32.749,6.599,38.215
						c0.753,0.844,1.334,1.51,1.68,1.906c0.118,0.08,0.24,0.15,0.358,0.206c0.283,0.131,0.572,0.21,0.862,0.21
						c5.363,0,9.713-22.954,9.713-51.269S1957.239,397.151,1951.876,397.151z"/>
					<g>
						<path fill="#DB9836" d="M1951.014,499.689v-0.21c-0.118-0.056-0.24-0.126-0.358-0.206
							C1950.886,499.538,1951.014,499.689,1951.014,499.689z"/>
						<path fill="#26572D" d="M1903.894,419.86c-19.784,1.485-56.314,0.607-56.314,0.607v15.483v16.306v18.134h15.545h17.636h23.619
							c0,0,18.835,2.393,33.182,15.248c4.126,3.698,8.808,8.797,11.415,11.727c-3.315-5.466-5.867-20.064-6.599-38.215
							c-0.14-3.462-0.216-7.049-0.216-10.731c0-2.425,0.035-4.807,0.097-7.143c0.621-23.458,4.242-41.825,8.756-43.916v-0.21
							C1951.014,397.151,1927.812,418.065,1903.894,419.86z"/>
					</g>
					<path fill="#3B2B16" d="M1942.545,466.139c4.611-0.353,8.289-7.332,8.289-15.916c0-8.715-3.794-15.786-8.502-15.935
						c-0.108,4.162-0.171,8.407-0.171,12.729C1942.161,453.577,1942.293,459.971,1942.545,466.139z"/>
				</g>
			</g>
			<g>
				<g>
					<polygon fill="#2A4A27" points="1444.839,520.169 1491.48,445.31 1504.061,445.31 1457.669,520.169 					"/>
					<polygon fill="#2A4A27" points="1599.064,442.853 1645.7,517.712 1658.286,517.712 1611.895,442.853 					"/>
					<polygon fill="#44753E" points="1640.539,445.31 1687.175,520.169 1699.758,520.169 1653.365,445.31 					"/>
					<g>
						<g>
							<path fill="#9F572A" d="M1540.421,220.494l1.652,1.709c0,0,6.755-5.583,4.378-17.081c-2.378-11.497-36.078-12.687-55.9,0
								c-19.825,12.687-73.36,60.273-85.253,117.766c-11.896,57.49-2.376,119.098-2.376,119.098h35.688L1540.421,220.494z"/>
						</g>
						<path fill="#BB9D54" d="M1754.648,441.987l-11.719,11.718l-304.32-11.718c0,0-9.864-97.269,24.604-152.251
							c28.441-45.367,52.111-57.713,77.207-69.242L1754.648,441.987z"/>
					</g>
				</g>
				<g>
					<polygon fill="#44753E" points="1420.129,527.279 1466.769,452.42 1479.349,452.42 1432.959,527.279 					"/>
					<polyline fill="#44753E" points="1479.349,452.42 1432.959,527.279 1420.129,527.279 					"/>
					<g>
						<g>
							<path fill="#CE6F33" d="M1524.544,227.916l5.811,6.006c0,0,6.756-5.583,4.378-17.08c-2.377-11.498-36.078-12.687-55.9,0
								c-19.825,12.686-73.359,60.273-85.252,117.766c-11.896,57.49-2.377,119.098-2.377,119.098h35.688L1524.544,227.916z"/>
						</g>
						<path fill="#EBC467" d="M1742.93,453.705h-316.039c0,0-9.863-97.27,24.604-152.251c28.441-45.367,47.954-62.01,73.049-73.539
							L1742.93,453.705z"/>
						<g>
							<path fill="#C64F34" d="M1636.729,454.005c-2.325-16.713-3.482-33.003-22.811-38.429c-22.516-6.435-36.3,8.34-40.978,29.252
								c-0.802,2.595-2.009,6.371-1.426,8.807C1571.516,453.635,1636.415,453.762,1636.729,454.005z"/>
						</g>
						<g>
							<path fill="#C64F34" d="M1592.599,328.423c6.193-0.59,11.791,5.306,14.148,10.614c4.719,10.612,1.771,24.47-3.534,34.197
								c-14.444,26.531-60.729,22.992-65.443-8.256c-2.357-13.856,2.944-28.299,14.739-35.965
								c10.605-7.076,20.634-6.19,32.425-4.421L1592.599,328.423z"/>
						</g>
						<g>
							<path fill="#C64F34" d="M1493.882,377.515c6.191-0.591,11.792,5.306,14.148,10.613c4.72,10.613,1.771,24.467-3.534,34.197
								c-14.444,26.529-60.729,22.995-65.443-8.257c-2.36-13.853,2.944-28.3,14.735-35.964c10.61-7.074,20.638-6.19,32.43-4.423
								L1493.882,377.515z"/>
						</g>
						<g>
							<path fill="#C64F34" d="M1513.374,274.2c6.193-0.59,11.798,5.306,14.15,10.611c4.717,10.613,1.771,24.469-3.534,34.197
								c-14.444,26.532-60.729,22.994-65.444-8.255c-2.359-13.854,2.945-28.302,14.737-35.964
								c10.616-7.075,20.638-6.191,32.43-4.422L1513.374,274.2z"/>
						</g>
						<g>
							<path fill="#C64F34" d="M1645.798,372.041c3.766-2.509,8.77-5.025,12.488-5.849c1.591,1.422,3.17,3.496,4.756,4.915
								c5.109,4.565,9,9.431,14.053,14.063c5.33,4.881,10.558,9.888,15.431,15.226c2.419,2.66,4.632,5.478,7.002,8.168
								c0.077,0.088,0.161,0.171,0.23,0.253c-0.913,2.641-2.011,5.164-3.252,7.445c-14.45,26.53-60.728,22.996-65.444-8.254
								C1628.702,394.152,1634.007,379.707,1645.798,372.041z"/>
						</g>
						<g>
							<path fill="#3C873A" d="M1514.43,333.34c2.356-0.221,4.485,2.022,5.389,4.042c1.796,4.041,0.67,9.318-1.349,13.023
								c-5.504,10.106-23.131,8.757-24.925-3.141c-0.896-5.279,1.122-10.78,5.614-13.701c4.04-2.694,7.857-2.357,12.35-1.685
								L1514.43,333.34z"/>
						</g>
						<g>
							<path fill="#3C873A" d="M1550.979,397.311c2.359-0.221,4.485,2.023,5.396,4.044c1.794,4.042,0.668,9.319-1.356,13.019
								c-5.496,10.111-23.123,8.762-24.918-3.138c-0.896-5.28,1.125-10.778,5.611-13.698c4.04-2.697,7.859-2.358,12.346-1.689
								L1550.979,397.311z"/>
						</g>
						<g>
							<path fill="#3C873A" d="M1633.227,367.537c2.366-0.221,4.485,2.021,5.395,4.044c1.796,4.037,0.67,9.319-1.348,13.022
								c-5.504,10.106-23.131,8.755-24.926-3.143c-0.895-5.277,1.123-10.777,5.612-13.697c4.043-2.694,7.859-2.361,12.353-1.686
								L1633.227,367.537z"/>
						</g>
						<g>
							<path fill="#3C873A" d="M1695.731,423.079c2.36-0.223,4.486,2.027,5.389,4.046c1.795,4.04,0.67,9.318-1.348,13.02
								c-5.504,10.104-23.131,8.762-24.926-3.139c-0.896-5.278,1.118-10.781,5.612-13.702c4.036-2.693,7.859-2.355,12.353-1.688
								L1695.731,423.079z"/>
						</g>
						<g>
							<path fill="#3C873A" d="M1546.263,266.833c2.36-0.22,4.485,2.023,5.396,4.044c1.794,4.039,0.668,9.32-1.357,13.022
								c-5.496,10.106-23.123,8.758-24.924-3.142c-0.889-5.279,1.126-10.778,5.618-13.697c4.036-2.697,7.859-2.36,12.346-1.688
								L1546.263,266.833z"/>
						</g>
					</g>
				</g>
				<path fill="#9E422C" d="M1658.286,366.191c0,0,15.717,0.167,25.243,7.485c6.569,5.049,13.666,20.57,14.632,24.575
					c0.966,4.003,1.597,10.565,1.597,10.565"/>
			</g>
			<path fill="#26572D" d="M988.599,517.438c0,17.367-14.082,31.447-31.45,31.447H768.45c-17.372,0-31.449-14.08-31.449-31.447l0,0
				c0-17.371,14.078-31.451,31.449-31.451h188.699C974.517,485.987,988.599,500.066,988.599,517.438L988.599,517.438z"/>
			<path fill="#26572D" d="M1420.282,517.438c0,17.367-14.081,31.447-31.445,31.447h-188.7c-17.372,0-31.449-14.08-31.449-31.447
				l0,0c0-17.371,14.078-31.451,31.449-31.451h188.7C1406.201,485.987,1420.282,500.066,1420.282,517.438L1420.282,517.438z"/>
			<path fill="#396635" d="M917.215,517.438c0,17.367-14.082,31.447-31.45,31.447H697.067c-17.372,0-31.45-14.08-31.45-31.447l0,0
				c0-17.371,14.078-31.451,31.45-31.451h188.699C903.133,485.987,917.215,500.066,917.215,517.438L917.215,517.438z"/>
			<path fill="#396635" d="M1348.899,517.438c0,17.367-14.081,31.447-31.446,31.447h-188.699c-17.372,0-31.45-14.08-31.45-31.447
				l0,0c0-17.371,14.078-31.451,31.45-31.451h188.699C1334.818,485.987,1348.899,500.066,1348.899,517.438L1348.899,517.438z"/>
			<circle fill="#211915" cx="1236.408" cy="1300.423" r="106.277"/>
			<path fill="#211915" d="M2267.412,1300.423c0,58.692-47.585,106.273-106.281,106.273c-58.692,0-106.272-47.581-106.272-106.273
				c0-58.695,47.58-106.273,106.272-106.273C2219.827,1194.149,2267.412,1241.728,2267.412,1300.423z"/>
			<path fill="#393636" d="M425.667,1288.813l22.785,43.666c0,0,1951.973,3.27,1955.246,0c3.273-3.272,12.904-48.052,12.904-48.052
				l-445.863-99.691c0,0-154.89-68.227-159.596-70.404c-4.709-2.182-1215.439,15.267-1215.439,15.267L425.667,1288.813z"/>
			<g>
				<g>
					<path fill="#A7762C" d="M2379.998,1223.822h-0.298C2379.854,1224.787,2379.998,1223.822,2379.998,1223.822z"/>
					<path fill="#26572D" d="M2379.998,1126.97c1.571-88.176,19.135-179.014-23.465-221.124
						c-26.888-26.582-127.699-18.221-127.699-18.221s-89.981-170.229-98.744-280.284c-6.519-81.896-53.538-91.329-53.538-91.329
						s-1143.646,1.573-1198.761,0c-55.11-1.572-50.387,50.388-50.387,50.388v617.255l48.814,0.095v103.83h230.804
						c5.73-66.288,61.32-118.323,129.107-118.323c67.776,0,123.373,52.035,129.106,118.323h665.653h258.206h27.916v-63.757h62.689
						C2379.339,1221.553,2378.889,1188.837,2379.998,1126.97z"/>
				</g>
				<polygon fill="#E2E3E6" points="2218.852,803.586 827.303,803.586 827.303,557.717 2118.619,557.717 				"/>
				<path fill="#712223" d="M2384.017,1068.877l-1556.714,1.296V803.586h1391.549l8.728,69.333c0,0,97.089,4.178,128.954,30.824
					C2398.484,938.817,2384.017,1068.877,2384.017,1068.877z"/>
			</g>
			<g>
				<g>
					<path fill="#DB9836" d="M1980.585,1223.822h-0.292C1980.446,1224.787,1980.585,1223.822,1980.585,1223.822z"/>
					<path fill="#3C873A" d="M1980.585,1126.97c1.572-88.176,19.137-179.014-23.461-221.124
						c-26.887-26.582-127.701-18.221-127.701-18.221s-89.979-170.229-98.742-280.284c-6.518-81.896-53.537-91.329-53.537-91.329
						s-1143.645,1.573-1198.761,0c-55.109-1.572-50.387,50.388-50.387,50.388v617.255l48.815,0.095v103.83h230.8
						c5.734-66.288,61.324-118.323,129.107-118.323c67.779,0,123.376,52.035,129.106,118.323h665.657h258.206h27.915v-63.757h62.691
						C1979.927,1221.553,1979.48,1188.837,1980.585,1126.97z"/>
				</g>
				<polygon fill="#FFFFFF" points="1819.439,803.586 427.891,803.586 427.891,557.717 1719.21,557.717 				"/>
				<path fill="#C13238" d="M1984.607,1068.877l-1556.716,1.296V803.586h1391.548l8.731,69.333c0,0,97.089,4.178,128.953,30.824
					C1999.076,938.817,1984.607,1068.877,1984.607,1068.877z"/>
			</g>
			<path fill="#211915" d="M938.292,1300.427c0,58.688-47.581,106.27-106.27,106.27c-58.696,0-106.28-47.581-106.28-106.27
				c0-58.696,47.584-106.277,106.28-106.277C890.711,1194.149,938.292,1241.73,938.292,1300.427z"/>
			<path fill="#717175" d="M913.151,1300.427c0,44.806-36.322,81.128-81.129,81.128c-44.81,0-81.128-36.322-81.128-81.128
				c0-44.811,36.319-81.129,81.128-81.129C876.829,1219.298,913.151,1255.616,913.151,1300.427z"/>
			<path fill="#C2C3C8" d="M887.278,1300.427c0,30.519-24.74,55.256-55.256,55.256c-30.519,0-55.259-24.737-55.259-55.256
				c0-30.521,24.74-55.26,55.259-55.26C862.538,1245.167,887.278,1269.906,887.278,1300.427z"/>
			<path fill="#211915" d="M1862.157,1300.427c0,58.688-47.579,106.27-106.275,106.27c-58.689,0-106.271-47.581-106.271-106.27
				c0-58.696,47.581-106.277,106.271-106.277C1814.578,1194.149,1862.157,1241.73,1862.157,1300.427z"/>
			<path fill="#717175" d="M1837.017,1300.427c0,44.806-36.325,81.128-81.135,81.128c-44.803,0-81.13-36.322-81.13-81.128
				c0-44.811,36.327-81.129,81.13-81.129C1800.691,1219.298,1837.017,1255.616,1837.017,1300.427z"/>
			<path fill="#C2C3C8" d="M1811.144,1300.427c0,30.519-24.739,55.256-55.262,55.256c-30.52,0-55.252-24.737-55.252-55.256
				c0-30.521,24.732-55.26,55.252-55.26C1786.404,1245.167,1811.144,1269.906,1811.144,1300.427z"/>
			<path fill="#BFC0C6" d="M429.436,1183.686h-19.958c0,0-11.474,0-11.705,11.517v81.436c1.147,10.977,8.969,10.977,11.475,10.977
				c12.621,0,69.003,0,69.003,0v-103.83L429.436,1183.686z"/>
			<rect x="783.703" y="657.172" fill="#3C873A" width="7.713" height="266.095"/>
			<g>
				<rect x="616.788" y="678.199" fill="#3C873A" width="375.731" height="348.912"/>
				<rect x="626.963" y="690.95" fill="#2B0B0D" width="355.386" height="323.409"/>
				<rect x="626.963" y="690.95" fill="#B0D2D6" width="156.74" height="323.409"/>
				<rect x="627.583" y="936.881" fill="#FFFFFF" width="355.386" height="77.479"/>
				<g>
					<path fill="#4FA5B1" d="M744.881,843.984c-6.309-14.555-17.762-26.354-27.912-38.351
						c-11.254-13.305-23.029-26.177-34.415-39.372c-5.142-5.959,3.496-14.68,8.674-8.679c12.646,14.654,25.64,28.997,38.139,43.773
						c9.606,11.359,20.139,22.652,26.109,36.436C758.589,844.973,748.021,851.229,744.881,843.984L744.881,843.984z"/>
				</g>
				<rect x="626.963" y="923.268" fill="#3C873A" width="356.006" height="18.138"/>
				<rect x="626.963" y="941.113" opacity="0.2" fill="#211915" width="356.006" height="18.139"/>
			</g>
			<g>
				<path fill="#4FA5B1" d="M727.464,870.11c-20.979-31.691-49.094-57.344-73.938-85.851c-5.179-5.937,3.461-14.655,8.672-8.679
					c25.552,29.315,54.287,55.75,75.862,88.337C742.441,870.54,731.811,876.675,727.464,870.11L727.464,870.11z"/>
			</g>
			<polygon opacity="0.2" fill="#211915" points="1564.921,903.743 1564.921,569.585 1660.079,569.585 1755.745,803.599 
				1765.358,903.743 			"/>
			<polygon fill="#B0D2D6" points="1581.281,887.382 1581.281,585.947 1649.093,585.947 1739.69,807.562 1747.355,887.382 			"/>
			<polygon opacity="0.2" fill="#211915" points="1581.281,757.352 1581.281,585.947 1649.093,585.947 1668.852,634.274 			"/>
			<g>
				<g>
					<path fill="#4FA5B1" d="M1683.188,769.368c-5.176-11.955-14.583-21.64-22.917-31.492c-9.24-10.925-18.905-21.496-28.261-32.329
						c-4.218-4.896,2.868-12.057,7.125-7.13c10.386,12.034,21.052,23.811,31.316,35.943c7.889,9.331,16.539,18.602,21.443,29.921
						C1694.449,770.177,1685.771,775.315,1683.188,769.368L1683.188,769.368z"/>
				</g>
				<g>
					<path fill="#4FA5B1" d="M1668.887,790.82c-17.226-26.025-40.31-47.087-60.711-70.498c-4.256-4.872,2.845-12.03,7.121-7.125
						c20.983,24.072,44.576,45.779,62.293,72.539C1681.187,791.171,1672.46,796.211,1668.887,790.82L1668.887,790.82z"/>
				</g>
			</g>
			<rect x="1296.564" y="569.585" opacity="0.2" fill="#211915" width="227.207" height="717.994"/>
			<rect x="1312.925" y="585.947" fill="#FFFFFF" width="194.481" height="685.271"/>
			<rect x="1312.925" y="863.954" fill="#396635" width="194.481" height="407.264"/>
			<rect x="1312.925" y="585.947" fill="#B0D2D6" width="194.481" height="265.356"/>
			<polygon opacity="0.2" fill="#211915" points="1507.406,649.818 1507.406,585.947 1312.925,585.947 1312.925,825.442 			"/>
			<rect x="1312.925" y="851.303" fill="#3C873A" width="194.481" height="17.223"/>
			<g>
				<g>
					<path fill="#4FA5B1" d="M1451.39,743.05c-5.175-11.956-14.587-21.64-22.92-31.493c-9.239-10.926-18.901-21.496-28.26-32.33
						c-4.219-4.895,2.868-12.057,7.128-7.129c10.383,12.034,21.052,23.809,31.313,35.944c7.887,9.331,16.542,18.602,21.442,29.92
						C1462.652,743.858,1453.974,748.997,1451.39,743.05L1451.39,743.05z"/>
				</g>
				<g>
					<path fill="#4FA5B1" d="M1437.087,764.502c-17.223-26.025-40.312-47.087-60.708-70.498c-4.26-4.874,2.845-12.031,7.117-7.126
						c20.982,24.072,44.581,45.78,62.296,72.539C1449.39,764.853,1440.658,769.892,1437.087,764.502L1437.087,764.502z"/>
				</g>
			</g>
			<rect x="1402.234" y="580.642" fill="#3C873A" width="14.995" height="270.661"/>
			<g>
				<g>
					<path fill="#FFFFFF" d="M1256.467,894.648l-65.873-63.826c-9.394-9.102-21.889-14.121-35.182-14.121
						c-13.295,0-25.791,5.02-35.19,14.121l-65.863,63.826c-19.4,18.797-19.4,49.397,0,68.199l65.87,63.822
						c9.393,9.102,21.889,14.117,35.184,14.117c13.293,0,25.788-5.016,35.182-14.117l65.873-63.822
						C1275.864,944.046,1275.864,913.445,1256.467,894.648z"/>
					<path fill="#BE0411" d="M1184.543,1022.349c-16.089,15.587-42.175,15.587-58.264,0l-67.462-65.374
						c-16.092-15.588-16.092-40.871,0-56.46l67.462-65.365c16.089-15.592,42.175-15.592,58.264,0l67.466,65.365
						c16.078,15.589,16.078,40.872,0,56.46L1184.543,1022.349z"/>
				</g>
				<g>
					<path fill="#FFFFFF" d="M1260.346,881.996l-2.188-9.684c-0.45-1.99-2.042-3.575-4.047-4.029
						c-2.001-0.443-4.041,0.336-5.166,1.972c-1.404,2.071-2.83,3.96-4.21,5.627c-0.258,0.298-0.527,0.607-0.795,0.902
						c0.278-1.701,0.589-3.438,0.917-5.151c0.373-1.925,0.711-3.784,1.027-5.603c0.346-2.045,0.516-3.942,0.516-5.656
						c0-1.453-0.163-2.674-0.498-3.723c-0.46-1.456-1.245-2.652-2.294-3.569c-1.129-0.975-2.485-1.582-3.949-1.732
						c-0.764-0.092-1.604-0.085-2.409,0.016c-0.4,0.036-0.815,0.097-1.233,0.171c-0.137,0.016-0.251,0.029-0.366,0.05
						c-0.614-0.671-1.342-1.241-2.186-1.711c-1.362-0.784-2.974-1.085-4.8-0.87c-2.722,0.33-5.396,1.205-7.964,2.623
						c-2.346,1.301-4.594,2.953-6.692,4.928c-0.875,0.818-1.729,1.69-2.544,2.621c-0.283-0.904-0.669-1.729-1.185-2.467
						c-1.326-1.908-3.455-3.059-5.836-3.155c-0.459-0.016-0.927,0.003-1.366,0.046c-0.53,0.063-1.056,0.2-1.632,0.432
						c-0.077,0.021-0.177,0.047-0.303,0.086c-0.107,0.024-0.425,0.111-1.22,0.249c-0.617,0.105-1.488,0.227-2.585,0.36l-1.388,0.157
						c-0.429,0.058-0.896,0.096-1.408,0.134c-0.025,0-0.122,0.004-0.143,0.004l-0.119-0.026c-0.554-0.191-1.101-0.418-1.642-0.667
						c-0.881-0.413-1.771-0.783-2.628-1.091c-1.48-0.526-3.021-0.702-4.523-0.53c-1.388,0.16-2.862,0.557-4.392,1.144
						c-1.718,0.685-3.346,1.752-4.838,3.185c-0.133,0.133-0.272,0.265-0.412,0.408c-1.031-0.313-2.182-0.403-3.293-0.275
						c-0.537,0.064-1.067,0.202-1.622,0.422c-0.08,0.029-0.181,0.055-0.313,0.093c-0.097,0.028-0.418,0.099-1.209,0.247
						c-0.624,0.11-1.502,0.231-2.604,0.358l-1.387,0.165c-0.421,0.046-0.882,0.086-1.398,0.124c-0.025,0-0.115,0-0.146,0.01
						c-0.038-0.01-0.073-0.01-0.112-0.025c-0.547-0.195-1.105-0.411-1.648-0.675c-0.851-0.402-1.741-0.77-2.639-1.089
						c-1.471-0.519-3.022-0.696-4.507-0.521c-1.391,0.162-2.873,0.549-4.389,1.144c-0.596,0.228-1.17,0.521-1.738,0.851
						c0.833-1.112,1.48-2.311,1.92-3.603c0.502-1.501,0.749-3.035,0.749-4.582c0-1.951-0.412-3.726-1.237-5.243
						c-0.875-1.63-2.104-2.925-3.663-3.838c-1.304-0.773-2.795-1.275-4.416-1.502c-1.364-0.186-2.8-0.198-4.285-0.022
						c-2.363,0.277-4.419,0.913-6.134,1.904c-1.035,0.591-1.944,1.278-2.746,2.013c-0.286-0.817-0.606-1.626-0.976-2.428
						c-1.649-3.547-4.113-6.594-7.334-9.075c-3.137-2.407-7.031-4.181-11.575-5.271c-4.403-1.04-9.485-1.236-15.146-0.574
						c-4.391,0.515-8.608,1.717-12.509,3.576c-3.82,1.838-7.406,4.23-10.651,7.13c-3.197,2.847-6.101,6.192-8.641,9.934
						c-2.5,3.692-4.66,7.75-6.417,12.074c-1.736,4.297-3.088,8.889-4.026,13.653c-0.935,4.778-1.401,9.733-1.401,14.753
						c0,2.883,0.153,5.977,0.456,9.178c0.303,3.26,0.802,6.512,1.475,9.67c0.69,3.227,1.596,6.353,2.698,9.26
						c1.178,3.126,2.669,5.912,4.419,8.277c1.945,2.614,4.27,4.646,6.929,6.072c2.091,1.104,4.375,1.719,6.814,1.82l0,0
						c0.941,0.032,1.91,0,2.883-0.122c2.959-0.338,5.726-1.214,8.242-2.595c2.371-1.303,4.545-2.952,6.463-4.927
						c1.851-1.911,3.489-4.091,4.873-6.475c1.331-2.287,2.471-4.71,3.391-7.196c0.924-2.498,1.642-5.055,2.116-7.604
						c0.491-2.538,0.767-5.024,0.836-7.376c0.004-0.051,0.004-0.103,0.004-0.147c0-0.152,0.003-0.435,0.015-0.837
						c0.021-0.485,0.037-1.048,0.052-1.726c0.007-0.613,0.031-1.298,0.059-2.045l0.094-2.358c0.024-0.812,0.053-1.662,0.087-2.531
						c3.799-1.259,7.243-2.831,10.258-4.686c3.266-2.017,6.1-4.272,8.477-6.721c-0.186,0.723-0.37,1.461-0.576,2.228
						c-0.71,2.755-1.401,5.561-2.042,8.342c-0.648,2.813-1.21,5.566-1.666,8.2c-0.484,2.844-0.729,5.291-0.729,7.478
						c0,1.776,0.206,3.438,0.609,4.953c0.517,1.942,1.437,3.617,2.724,4.973c1.334,1.398,3.028,2.402,5.008,2.959
						c0.952,0.274,1.991,0.446,3.085,0.479c0.902,0.032,1.889,0,2.91-0.121c2.228-0.263,4.57-0.921,6.964-1.969
						c2.119-0.927,4.214-2.033,6.239-3.272c0.066,0.025,0.129,0.046,0.199,0.07c1.411,0.505,2.987,0.665,4.698,0.467
						c0.75-0.089,1.534-0.262,2.363-0.512c0.795,0.275,1.569,0.525,2.297,0.729c1.243,0.358,2.317,0.626,3.262,0.83
						c1.018,0.219,1.854,0.371,2.551,0.454c0.512,0.051,0.892,0.09,1.144,0.103c0.366,0.007,0.683,0,0.986-0.046
						c1.82-0.21,3.744-0.646,5.723-1.303c1.889-0.627,3.768-1.394,5.57-2.288c1.049-0.518,2.088-1.074,3.095-1.668
						c1.098,0.236,2.287,0.274,3.521,0.135c0.752-0.09,1.544-0.257,2.37-0.513c0.799,0.281,1.573,0.523,2.301,0.735
						c1.208,0.339,2.313,0.62,3.25,0.831c0.987,0.218,1.841,0.364,2.552,0.441c0.52,0.07,0.9,0.095,1.158,0.103
						c0.359,0.02,0.676,0.006,0.976-0.026c1.805-0.211,3.733-0.658,5.727-1.31c1.893-0.634,3.764-1.393,5.587-2.288
						c1.37-0.684,2.718-1.439,4.019-2.244c1.227,0.837,2.559,1.478,3.995,1.918c2.053,0.619,4.217,0.818,6.342,0.569
						c1.858-0.218,3.717-0.735,5.525-1.547c1.617-0.717,3.183-1.585,4.66-2.589c0.857-0.568,1.673-1.183,2.453-1.81
						c0.313,0.32,0.645,0.627,0.986,0.915c2.44,2.025,5.563,2.921,8.979,2.519c2.353-0.27,4.685-1.093,6.94-2.442
						c1.931-1.169,3.76-2.537,5.44-4.083c1.604-1.478,3.095-3.036,4.395-4.609c1.258-1.553,2.269-2.875,3.05-4.052
						C1260.395,884.729,1260.646,883.336,1260.346,881.996z M1078.169,907.162c-0.509,1.234-1.125,2.244-1.819,3.003
						c-0.157,0.181-0.297,0.281-0.429,0.358c-0.313-0.46-0.673-1.169-1.032-2.204c-0.537-1.553-0.958-3.369-1.241-5.407
						c-0.317-2.237-0.547-4.492-0.69-6.685c-0.147-2.231-0.224-4.365-0.234-6.321c-0.021-2.052-0.028-3.693-0.028-4.901
						c0-0.755,0.014-1.521,0.042-2.282c0.306,0.326,0.641,0.639,0.993,0.934c1.167,0.971,2.697,1.828,4.667,2.614
						c0.746,0.307,1.593,0.606,2.548,0.926c-0.003,0.914-0.032,1.924-0.066,3.029c-0.056,1.848-0.181,3.81-0.387,5.867
						c-0.199,2.014-0.496,4.047-0.882,6.065C1079.249,904.019,1078.762,905.698,1078.169,907.162z M1106.775,860.413
						c-0.659,0.693-1.426,1.367-2.325,2.017l1.266-5.389c0.063-0.28,0.1-0.574,0.118-0.865c0.039-0.291,0.056-0.61,0.056-0.988
						c-0.01-1.846-0.502-3.479-1.478-4.827c-0.84-1.16-1.907-2.064-3.19-2.688c-1.086-0.531-2.268-0.838-3.526-0.927l-0.366-0.017
						c-0.749-0.035-1.509-0.013-2.225,0.08c-2.76,0.32-5.144,1.316-7.089,2.952c-1.669,1.42-3.042,3.132-4.091,5.1
						c-0.941,1.79-1.66,3.733-2.144,5.775c-0.443,1.838-0.756,3.63-0.945,5.324c-0.014,0.156-0.035,0.306-0.053,0.456
						c-0.006,0-0.006-0.003-0.021-0.006c-0.505-0.215-0.919-0.367-1.264-0.488c-0.642-0.229-1.318-0.349-1.998-0.374
						c-0.369-0.017-0.749-0.011-1.139,0.031c-0.167,0.02-0.331,0.052-0.499,0.09c0.708-2.036,1.551-4.02,2.51-5.899
						c1.233-2.429,2.697-4.607,4.356-6.486c1.576-1.797,3.409-3.295,5.431-4.471c1.906-1.106,4.004-1.777,6.403-2.064
						c3.451-0.399,6.347-0.364,8.417,0.105c1.894,0.432,3.396,1.048,4.357,1.793c0.82,0.642,1.37,1.322,1.663,2.089
						c0.422,1.064,0.627,2.094,0.627,3.129c0,1.073-0.215,2.125-0.668,3.241C1108.507,858.237,1107.768,859.353,1106.775,860.413z"
						/>
					<g>
						<path fill="#3C873A" d="M1125.353,851.37c0-3.129-0.642-6.084-1.928-8.852c-1.296-2.764-3.21-5.129-5.755-7.092
							c-2.544-1.949-5.737-3.373-9.578-4.285c-3.833-0.917-8.295-1.066-13.391-0.476c-3.883,0.446-7.54,1.498-10.983,3.132
							c-3.44,1.646-6.619,3.771-9.543,6.375c-2.928,2.61-5.561,5.63-7.881,9.063c-2.339,3.432-4.329,7.16-5.964,11.178
							c-1.635,4.029-2.89,8.273-3.767,12.756c-0.875,4.483-1.314,9.086-1.314,13.797c0,2.743,0.149,5.65,0.438,8.718
							c0.286,3.062,0.743,6.091,1.383,9.075c0.634,2.979,1.464,5.811,2.475,8.488c1.021,2.689,2.263,5.017,3.736,6.991
							c1.471,1.981,3.19,3.483,5.141,4.524c1.956,1.037,4.179,1.42,6.657,1.126c2.342-0.275,4.494-0.96,6.462-2.032
							c1.969-1.08,3.744-2.442,5.336-4.065c1.594-1.642,2.987-3.477,4.187-5.553c1.202-2.059,2.21-4.213,3.05-6.449
							c0.83-2.244,1.463-4.525,1.903-6.82c0.439-2.307,0.697-4.498,0.742-6.602c0-0.173,0.011-0.505,0.032-0.979
							c0.014-0.479,0.028-1.034,0.039-1.674c0.021-0.651,0.045-1.361,0.073-2.147c0.028-0.773,0.059-1.547,0.087-2.326
							c0.063-1.834,0.133-3.835,0.223-6.022c4.762-1.269,8.902-2.994,12.444-5.164c3.527-2.173,6.451-4.599,8.769-7.286
							c2.318-2.687,4.058-5.521,5.208-8.521C1124.784,857.252,1125.353,854.291,1125.353,851.37z M1113.648,858.735
							c-0.68,1.685-1.729,3.281-3.133,4.787c-1.412,1.508-3.197,2.879-5.344,4.112c-2.157,1.237-4.715,2.249-7.681,3.043
							l0.408-3.583l2.774-11.813c0-0.118,0-0.221,0.014-0.298c0.017-0.076,0.024-0.217,0.024-0.419c0-0.754-0.153-1.338-0.477-1.782
							c-0.313-0.438-0.712-0.774-1.182-1.001c-0.474-0.229-1-0.36-1.568-0.402c-0.575-0.029-1.136-0.019-1.68,0.042
							c-1.791,0.207-3.293,0.824-4.507,1.847c-1.212,1.019-2.191,2.253-2.955,3.675c-0.749,1.431-1.332,2.979-1.722,4.627
							c-0.397,1.659-0.68,3.24-0.84,4.727c-0.164,1.499-0.262,2.818-0.265,3.966c-0.021,1.15-0.035,1.917-0.035,2.31
							c-0.543-0.05-1.15-0.166-1.813-0.325c-0.575-0.139-1.271-0.332-2.091-0.585c-0.818-0.242-1.732-0.581-2.736-0.997
							c-0.39-0.16-0.718-0.29-0.969-0.384c-0.265-0.082-0.543-0.111-0.843-0.07c-0.457,0.045-0.813,0.215-1.063,0.502
							c-0.262,0.28-0.46,0.633-0.6,1.052c-0.136,0.415-0.22,0.892-0.25,1.41c-0.032,0.532-0.042,1.063-0.042,1.591
							c0,1.021,0.094,1.892,0.293,2.633c0.198,0.74,0.666,1.406,1.391,2.007c0.728,0.597,1.81,1.195,3.256,1.765
							c1.435,0.578,3.416,1.21,5.929,1.904v2.098c0,1.374-0.028,3.042-0.084,4.991c-0.063,1.969-0.203,4.032-0.415,6.199
							c-0.209,2.173-0.53,4.358-0.951,6.538c-0.422,2.18-1.004,4.154-1.726,5.924c-0.729,1.766-1.627,3.253-2.729,4.424
							c-1.084,1.194-2.409,1.879-3.953,2.058c-1.485,0.172-2.719-0.3-3.705-1.425c-0.99-1.126-1.806-2.621-2.458-4.5
							c-0.652-1.873-1.146-4.001-1.478-6.371c-0.338-2.379-0.575-4.729-0.729-7.075c-0.157-2.333-0.244-4.538-0.254-6.608
							c-0.018-2.078-0.028-3.72-0.028-4.947c0-2.974,0.224-6.06,0.659-9.263c0.438-3.191,1.118-6.337,2.045-9.4
							c0.92-3.074,2.095-6.012,3.521-8.808c1.422-2.783,3.105-5.272,5.043-7.468c1.941-2.193,4.148-4.011,6.637-5.449
							c2.488-1.437,5.263-2.335,8.323-2.69c4.092-0.484,7.491-0.414,10.188,0.191c2.697,0.607,4.852,1.538,6.458,2.78
							c1.607,1.253,2.737,2.701,3.384,4.372c0.656,1.661,0.98,3.334,0.983,5.005
							C1114.672,855.348,1114.335,857.041,1113.648,858.735z"/>
						<path fill="#3C873A" d="M1131.724,857.317c1.272,1.076,3.242,1.469,5.914,1.163c1.548-0.181,2.876-0.566,3.981-1.152
							c1.101-0.594,2.018-1.309,2.746-2.141c0.729-0.824,1.262-1.738,1.593-2.737c0.331-0.988,0.505-1.989,0.505-3.005
							c0-1.106-0.213-2.035-0.627-2.793c-0.404-0.757-0.959-1.342-1.663-1.754c-0.694-0.412-1.513-0.674-2.454-0.809
							c-0.938-0.124-1.934-0.124-2.99-0.003c-1.701,0.198-3.12,0.623-4.256,1.277c-1.136,0.65-2.046,1.403-2.729,2.244
							c-0.683,0.836-1.171,1.713-1.474,2.61c-0.311,0.898-0.457,1.691-0.457,2.372
							C1129.814,854.65,1130.451,856.224,1131.724,857.317z"/>
						<path fill="#3C873A" d="M1253.504,872.76c-1.506,2.208-3.011,4.199-4.503,5.991c-0.624,0.759-1.3,1.493-2.018,2.219
							c-0.711,0.729-1.415,1.385-2.133,1.978c-0.711,0.588-1.418,1.079-2.116,1.476c-0.697,0.396-1.355,0.627-2,0.703
							c-0.844,0.096-1.401-0.23-1.655-0.997c-0.265-0.755-0.384-1.833-0.391-3.235c0-1.641,0.147-3.391,0.447-5.267
							c0.314-1.869,0.641-3.739,0.997-5.617c0.38-1.867,0.701-3.698,1.011-5.472c0.3-1.789,0.446-3.396,0.446-4.821
							c0-0.931-0.08-1.649-0.248-2.164c-0.167-0.517-0.404-0.904-0.705-1.169c-0.299-0.263-0.651-0.413-1.045-0.464
							c-0.39-0.042-0.812-0.035-1.266,0.022c-0.338,0.031-0.687,0.082-1.039,0.131c-0.346,0.064-0.677,0.103-1.014,0.138
							c-0.401,0.058-0.781,0.073-1.165,0.073c-0.383,0-0.745-0.044-1.111-0.16c-0.362-0.1-0.666-0.307-0.902-0.602
							c-0.249-0.303-0.509-0.615-0.764-0.926c-0.251-0.311-0.58-0.584-0.973-0.803c-0.397-0.22-0.941-0.29-1.632-0.21
							c-2.097,0.249-4.154,0.927-6.166,2.042c-2.022,1.116-3.938,2.525-5.75,4.225c-1.816,1.7-3.497,3.644-5.027,5.819
							c-1.526,2.179-2.852,4.454-3.98,6.842c-1.112,2.373-1.994,4.781-2.631,7.216c-0.458,1.761-0.75,3.468-0.878,5.123
							c-0.153,0.135-0.308,0.262-0.46,0.396c-0.711,0.652-1.457,1.342-2.224,2.071c-0.777,0.729-1.604,1.432-2.506,2.103
							c-0.893,0.671-1.866,1.246-2.907,1.744c-1.043,0.498-2.204,0.819-3.482,0.972c-0.575,0.07-1.248,0.032-2.022-0.076
							c-0.77-0.122-1.505-0.263-2.203-0.435c-0.696-0.179-1.3-0.332-1.822-0.486c-0.509-0.146-0.784-0.217-0.824-0.21l0.231-0.928
							c0.278-0.39,0.812-1.132,1.617-2.224c0.805-1.08,1.742-2.378,2.823-3.86c1.066-1.485,2.214-3.069,3.406-4.754
							c1.195-1.689,2.346-3.332,3.447-4.925c1.112-1.587,2.088-3.028,2.938-4.32c0.851-1.29,1.45-2.284,1.82-2.987
							c1.275-0.477,2.181-0.939,2.726-1.367c0.55-0.438,0.851-0.774,0.909-1.023c0.181-0.952,0.268-1.821,0.268-2.626
							c0-1.253-0.229-2.222-0.704-2.886c-0.468-0.681-1.233-0.962-2.29-0.837c-0.102,0.016-0.224,0.051-0.37,0.111
							c-0.153,0.062-0.412,0.15-0.794,0.256c-0.384,0.1-0.931,0.208-1.652,0.342c-0.736,0.131-1.704,0.271-2.921,0.409
							c-0.422,0.051-0.886,0.104-1.384,0.159c-0.501,0.062-1.052,0.109-1.656,0.156c-0.791,0.055-1.554-0.041-2.3-0.293
							c-0.739-0.256-1.467-0.556-2.186-0.885c-0.708-0.326-1.429-0.64-2.157-0.889c-0.729-0.259-1.457-0.353-2.182-0.259
							c-0.976,0.118-2.032,0.39-3.168,0.84c-1.13,0.438-2.224,1.17-3.273,2.174c-1.039,0.989-1.994,2.345-2.831,4.058
							c-0.286,0.569-0.53,1.202-0.774,1.873c0.015-0.26,0.046-0.521,0.046-0.762c0-1.245-0.24-2.208-0.711-2.892
							c-0.467-0.667-1.234-0.945-2.3-0.824c-0.088,0.01-0.209,0.052-0.363,0.105c-0.15,0.067-0.415,0.154-0.795,0.253
							c-0.384,0.104-0.934,0.224-1.663,0.349c-0.721,0.131-1.691,0.266-2.906,0.408c-0.422,0.052-0.889,0.105-1.388,0.17
							c-0.499,0.052-1.052,0.099-1.66,0.144c-0.787,0.061-1.55-0.038-2.29-0.291c-0.746-0.252-1.475-0.553-2.186-0.889
							c-0.715-0.332-1.436-0.632-2.161-0.888c-0.735-0.256-1.457-0.345-2.188-0.256c-0.965,0.104-2.019,0.387-3.161,0.837
							c-1.133,0.441-2.228,1.16-3.266,2.17c-1.046,1.004-1.994,2.352-2.84,4.065c-0.851,1.712-1.5,3.893-1.959,6.527
							c-0.063,0.372-0.108,0.733-0.133,1.074c-0.031,0.349-0.048,0.671-0.048,0.966c0,0.715,0.101,1.274,0.297,1.693
							c0.199,0.405,0.543,0.575,1.024,0.521c0.522-0.064,1.098-0.463,1.732-1.201c0.635-0.751,1.418-1.896,2.357-3.436
							c0.428-0.703,0.811-1.254,1.164-1.648c0.344-0.406,0.742-0.723,1.182-0.943c0.436-0.236,0.979-0.399,1.613-0.506
							c0.639-0.107,1.443-0.213,2.413-0.328c0.39-0.038,0.755-0.038,1.086,0.004c0.338,0.05,0.667,0.144,0.98,0.271
							c0.317,0.132,0.669,0.272,1.074,0.432c0.386,0.166,0.861,0.339,1.412,0.502l-10.596,15.248v-0.007
							c-1.004,0.927-2.15,2.026-3.451,3.304c-1.311,1.298-2.642,2.544-4.008,3.759c-1.363,1.221-2.708,2.274-4.047,3.176
							c-1.324,0.901-2.547,1.419-3.628,1.547c-0.945,0.121-1.564-0.211-1.872-0.965c-0.303-0.748-0.456-1.797-0.456-3.145
							c0-1.374,0.153-2.939,0.456-4.678c0.3-1.758,0.677-3.555,1.133-5.407c0.456-1.873,0.944-3.731,1.454-5.591
							c0.52-1.863,1-3.602,1.45-5.225c0.46-1.617,0.84-3.062,1.14-4.337c0.311-1.269,0.453-2.23,0.453-2.889
							c0-0.779-0.231-1.367-0.684-1.779c-0.453-0.41-1.314-0.544-2.593-0.383c-0.693,0.078-1.478,0.248-2.342,0.518
							c-0.861,0.258-1.694,0.613-2.499,1.048c-0.805,0.44-1.52,0.971-2.157,1.587c-0.634,0.63-1.063,1.35-1.269,2.146
							c-0.555,2.3-1.182,4.818-1.896,7.551c-0.704,2.745-1.38,5.481-2.018,8.224c-0.628,2.742-1.171,5.381-1.607,7.925
							c-0.443,2.544-0.662,4.749-0.662,6.628c0,1.336,0.146,2.557,0.436,3.63c0.292,1.094,0.77,1.981,1.435,2.678
							c0.667,0.703,1.534,1.202,2.618,1.508c1.074,0.302,2.396,0.371,3.978,0.18c1.757-0.198,3.618-0.729,5.566-1.585
							c1.956-0.856,3.872-1.854,5.75-3.017c0.889-0.543,1.739-1.112,2.569-1.693c0.08,0.108,0.136,0.211,0.227,0.313
							c0.443,0.486,0.993,0.851,1.66,1.081c0.672,0.235,1.46,0.306,2.366,0.197c0.854-0.096,1.857-0.402,2.998-0.888
							c1.342,0.53,2.569,0.952,3.688,1.265c1.126,0.326,2.109,0.563,2.952,0.754c0.857,0.186,1.534,0.307,2.054,0.364
							c0.511,0.064,0.832,0.084,0.958,0.07c1.482-0.179,3.067-0.543,4.75-1.093c1.677-0.556,3.333-1.234,4.95-2.039
							c1.617-0.799,3.175-1.687,4.66-2.658c0.059-0.044,0.115-0.076,0.164-0.114c0.324,0.223,0.666,0.428,1.07,0.568
							c0.659,0.243,1.458,0.301,2.36,0.198c0.846-0.103,1.851-0.396,3-0.896c1.334,0.538,2.562,0.966,3.688,1.278
							c1.123,0.319,2.103,0.563,2.953,0.748c0.847,0.18,1.534,0.306,2.046,0.357c0.52,0.07,0.837,0.09,0.952,0.07
							c1.488-0.172,3.074-0.535,4.761-1.08c1.685-0.562,3.33-1.239,4.946-2.032c1.628-0.799,3.18-1.687,4.66-2.671
							c0.768-0.499,1.479-1.01,2.148-1.527c0.39,0.556,0.826,1.061,1.314,1.502c1.063,0.965,2.287,1.648,3.667,2.083
							c1.38,0.415,2.788,0.537,4.244,0.364c1.37-0.153,2.734-0.537,4.097-1.144c1.358-0.601,2.676-1.337,3.932-2.18
							c1.255-0.851,2.415-1.764,3.481-2.761c1.06-0.984,1.948-1.937,2.684-2.856c0.965,2.308,2.119,4.007,3.458,5.112
							c1.334,1.118,2.99,1.553,4.987,1.316c1.673-0.191,3.346-0.792,5.02-1.789c1.655-1.004,3.227-2.167,4.67-3.495
							c1.461-1.331,2.768-2.711,3.942-4.124c1.158-1.418,2.091-2.651,2.803-3.683L1253.504,872.76z M1178.81,886.354
							c-0.105,0-0.182-0.02-0.282,0c-0.761,0.089-1.485,0.357-2.187,0.811c-0.696,0.453-1.401,1.004-2.115,1.656
							c-0.712,0.651-1.457,1.335-2.22,2.071c-0.777,0.721-1.614,1.424-2.503,2.103c-0.899,0.67-1.861,1.258-2.914,1.744
							c-1.036,0.498-2.2,0.817-3.479,0.966c-0.575,0.063-1.25,0.044-2.019-0.078c-0.78-0.115-1.508-0.262-2.209-0.435
							c-0.697-0.172-1.304-0.332-1.816-0.479c-0.52-0.146-0.794-0.217-0.819-0.217l0.224-0.915c0.275-0.395,0.811-1.137,1.617-2.229
							c0.797-1.094,1.739-2.384,2.819-3.86c1.077-1.482,2.21-3.062,3.405-4.762c1.202-1.686,2.35-3.327,3.451-4.919
							c1.112-1.585,2.084-3.035,2.934-4.327c0.851-1.288,1.458-2.274,1.817-2.976c1.276-0.479,2.185-0.936,2.729-1.374
							c0.153-0.114,0.278-0.222,0.39-0.325c-0.154,0.662-0.303,1.361-0.436,2.106c-0.06,0.357-0.109,0.719-0.137,1.061
							c-0.023,0.342-0.045,0.67-0.045,0.965c0,0.723,0.102,1.284,0.304,1.687c0.191,0.413,0.533,0.589,1.02,0.528
							c0.517-0.051,1.095-0.463,1.719-1.205c0.642-0.748,1.433-1.889,2.374-3.429c0.419-0.703,0.806-1.262,1.161-1.652
							c0.338-0.405,0.735-0.716,1.178-0.942c0.433-0.234,0.983-0.405,1.614-0.502c0.637-0.105,1.439-0.214,2.415-0.332
							c0.387-0.042,0.753-0.038,1.084,0.003c0.337,0.062,0.663,0.144,0.983,0.271c0.321,0.125,0.668,0.271,1.066,0.431
							c0.394,0.167,0.865,0.34,1.408,0.516L1178.81,886.354z M1228.23,875.403c-0.118,0.968-0.39,2.195-0.798,3.668
							c-0.407,1.479-0.944,2.935-1.614,4.354c-0.669,1.419-1.454,2.646-2.363,3.72c-0.914,1.055-1.928,1.648-3.046,1.783
							c-0.704,0.09-1.272-0.02-1.722-0.308c-0.463-0.293-0.83-0.702-1.105-1.22c-0.265-0.524-0.453-1.126-0.558-1.81
							c-0.112-0.69-0.164-1.405-0.164-2.153c0-1.312,0.177-2.73,0.526-4.262c0.346-1.53,0.83-3.077,1.467-4.623
							c0.642-1.551,1.395-3.042,2.28-4.49c0.871-1.441,1.844-2.745,2.883-3.914c1.045-1.17,2.165-2.126,3.346-2.874
							c1.178-0.751,2.395-1.194,3.635-1.338L1228.23,875.403z"/>
					</g>
				</g>
				<g>
					<path fill="#D1CCC6" d="M1244.592,973.285c0,0-0.045-0.545-0.14-1.433C1244.529,972.74,1244.592,973.285,1244.592,973.285z
						 M1231.19,957.262c0,0,7.818-2.122,9.766-2.64c1.614-0.446,3.053,12.803,3.496,17.23c-0.376-4.141-1.289-16.029,0.248-17.274
						c1.84-1.521,7.414,8.244,7.414,8.244s-4.412-7.874-6.326-12.692c-0.589-1.489-1.045-3.036-1.387-4.448
						c-1.032,1.822-1.593,2.907-1.593,2.907l-1.719-1.355C1240.597,952.711,1231.19,957.262,1231.19,957.262z"/>
					<path fill="#F8ECCA" d="M1077.939,936.05c9.021-4.027,7.518-2.773,18.483-7.413c10.895-4.608,5.514-6.213,17.006-8.265
						c11.419-2.024,19.396-1.688,20.975-1.827c1.573-0.134,31.028-4.741,32.914-5.421c1.89-0.676,33.699,1.662,40.55,1.567
						c6.832-0.103,9.683,2.179,15.814,3.137c6.114,0.967,4.179,4.66,9.024,4.226c4.837-0.448,8.703-3.299,14.782,2.167
						c6.04,5.438,16.751,17.882,18.776,24.165c2.032,6.275-0.69,13.031-8.888,20.866c-8.236,7.874-23.488,17.556-34.688,23.32
						c-11.272,5.791-40.488,10.669-52.088,11.453c-11.679,0.799-23.073,1.22-37.754,1.823c-14.793,0.599-30.851-0.494-34.692-2.685
						c-3.865-2.206-27.246-2.819-33.569-8.992c-6.344-6.201-12.621-11.37-12.583-20.356
						C1052.035,964.817,1049.765,948.641,1077.939,936.05z"/>
					<path fill="#BE0411" d="M1063.704,952.583c7.588-13.945,23.803-18.642,32.021-21.211c8.188-2.558,33.353-14.456,44.803-15.454
						c11.373-0.983,23.186-0.811,28.809-1.291c5.604-0.492-11.82-0.767,17.029,1.49c28.393,2.23,39.125,5.509,39.125,5.509
						s14.866,5.751,16.407,5.604c1.544-0.141,8.212,2.582,10.052,5.912c1.837,3.329,6.863,8.321,8.424,12.833
						c1.538,4.499-4.538,9.562-5.918,11.446c-1.366,1.897-6.385,6.507-9.734,8.014c-3.368,1.522-0.6,10.776-30.864,18.708
						c-30.809,8.098-69.874,12.796-81.178,10.999c-11.37-1.804-35.455,0.786-45.581-3.637
						C1076.918,987.044,1047.402,982.583,1063.704,952.583z"/>
					<path fill="#EBC792" d="M1069.393,969.757c4.952,4.679,0.222,2.57,20.598,5.661c20.164,3.063,9.798,9.263,21.698,9.301
						c11.822,0.039,7.274-1.4,27.692-2.896c20.202-1.489,39.076,0.92,43.321,0.474c4.232-0.448,11.625-2.48,18.516-4.462
						c6.856-1.969,7.322-2.013,13.119-5.105c5.783-3.088,12.688-3.804,17.564-6.162c4.865-2.347,10.844-12.808,12.046-14.775
						c1.202-1.97,12.192-6.724,2.104-12.509c-10.142-5.809-22.338-13.313-32.994-12.954c-10.725,0.345-2.167-3.527-30.372-3.489
						c-28.654,0.045-32.371,1.63-41.381,3.694c-9.048,2.083-1.495-0.499-17.18,4.084c-15.825,4.607-5.414-0.147-15.825,4.607
						c-10.477,4.793-16.667,7.944-21.833,11.625c-5.18,3.714-10.935,6.826-10.935,6.826s-16.047,3.521-5.2,13.427
						C1081.107,976.965,1069.393,969.757,1069.393,969.757z"/>
					<path fill="#901718" d="M1130.441,973.528c-0.31-3.395-5.297-5.683-11.174-5.088c-5.898,0.588-10.439,3.847-10.139,7.266
						c0.306,3.42,5.335,5.702,11.229,5.081C1126.234,980.181,1130.734,976.935,1130.441,973.528z"/>
					<path fill="#901718" d="M1240.343,953.051c-0.245-2.858-4.294-4.768-9.044-4.309c-4.769,0.468-8.436,3.158-8.188,6.021
						c0.258,2.851,4.329,4.774,9.1,4.289C1236.952,958.573,1240.597,955.882,1240.343,953.051z"/>
					<path fill="#901718" d="M1172.093,973.969c-0.321-3.599-5.528-6.009-11.677-5.382c-6.169,0.627-10.917,4.064-10.596,7.682
						c0.311,3.617,5.584,6.034,11.75,5.377C1167.712,981.006,1172.411,977.566,1172.093,973.969z"/>
					<path fill="#901718" d="M1191.821,950.826c-0.209-2.345-3.58-3.924-7.546-3.547c-3.978,0.39-7.034,2.594-6.832,4.946
						c0.209,2.34,3.604,3.93,7.581,3.535C1188.977,955.37,1192.027,953.158,1191.821,950.826z"/>
					<path fill="#901718" d="M1236.397,937.539c-0.196-2.308-3.492-3.879-7.354-3.515c-3.873,0.363-6.853,2.531-6.647,4.85
						c0.202,2.314,3.51,3.893,7.382,3.527C1233.64,942.019,1236.609,939.853,1236.397,937.539z"/>
					<path fill="#901718" d="M1134.216,935.513c-0.362-4.025-6.26-6.786-13.207-6.154c-6.978,0.62-12.362,4.416-12.003,8.468
						c0.359,4.052,6.315,6.807,13.29,6.149C1129.243,943.33,1134.571,939.54,1134.216,935.513z"/>
					<path fill="#901718" d="M1174.502,933.833c-0.29-3.273-5.044-5.528-10.642-5.019c-5.611,0.506-9.944,3.6-9.652,6.891
						c0.297,3.311,5.096,5.555,10.708,5.023C1170.507,940.198,1174.787,937.118,1174.502,933.833z"/>
					<path fill="#901718" d="M1111.382,957.453c-0.436-5.074-7.926-8.5-16.758-7.663c-8.857,0.832-15.709,5.664-15.253,10.776
						c0.453,5.106,8.031,8.538,16.884,7.663C1105.081,967.353,1111.835,962.522,1111.382,957.453z"/>
					<path fill="#DCA07B" d="M1116.133,937.38c0.164-0.563-0.021-1.184-0.404-1.393c-0.394-0.199-0.83,0.089-0.993,0.646
						c-0.171,0.562,0.01,1.181,0.397,1.386C1115.517,938.224,1115.966,937.937,1116.133,937.38z"/>
					<path fill="#DCA07B" d="M1123.909,934.804c0.254-0.856-0.313-1.949-1.266-2.466c-0.943-0.513-1.91-0.225-2.17,0.632
						c-0.241,0.837,0.327,1.949,1.268,2.454C1122.7,935.929,1123.662,935.653,1123.909,934.804z"/>
					<path fill="#DCA07B" d="M1128.019,937.947c0.222-0.767-0.08-1.648-0.683-1.974c-0.603-0.32-1.28,0.031-1.499,0.805
						c-0.227,0.761,0.083,1.643,0.687,1.969C1127.126,939.079,1127.796,938.709,1128.019,937.947z"/>
					<path fill="#DCA07B" d="M1164.463,973.923c0.617-0.127,1.052-0.734,0.955-1.348c-0.08-0.626-0.655-1.028-1.276-0.914
						c-0.621,0.128-1.052,0.729-0.958,1.361C1163.264,973.649,1163.843,974.046,1164.463,973.923z"/>
					<path fill="#DCA07B" d="M1117.66,973.739c0.631-0.122,1.074-0.736,0.986-1.374c-0.093-0.627-0.686-1.037-1.32-0.909
						c-0.631,0.121-1.074,0.729-0.982,1.368C1116.44,973.451,1117.022,973.86,1117.66,973.739z"/>
					<path fill="#DCA07B" d="M1161.184,978.021c0.621-0.134,1.046-0.735,0.965-1.354c-0.097-0.633-0.673-1.029-1.29-0.908
						c-0.618,0.122-1.052,0.729-0.962,1.361C1159.991,977.739,1160.56,978.142,1161.184,978.021z"/>
					<path fill="#DCA07B" d="M1155.272,977.451c0.624-0.121,1.06-0.728,0.961-1.36c-0.08-0.621-0.662-1.023-1.279-0.902
						c-0.631,0.135-1.06,0.736-0.976,1.355C1154.069,977.17,1154.659,977.58,1155.272,977.451z"/>
					<path fill="#DCA07B" d="M1121.884,975.744c0.637-0.127,1.067-0.733,0.98-1.366c-0.091-0.627-0.68-1.035-1.314-0.914
						c-0.631,0.121-1.077,0.729-0.983,1.368C1120.661,975.464,1121.243,975.866,1121.884,975.744z"/>
					<path fill="#DCA07B" d="M1164.372,933.475c0.621-0.108,1.046-0.716,0.967-1.342c-0.091-0.614-0.669-1.036-1.287-0.909
						c-0.62,0.103-1.056,0.704-0.961,1.336C1163.185,933.181,1163.752,933.59,1164.372,933.475z"/>
					<path fill="#DCA07B" d="M1160.992,937.041c0.613-0.121,1.042-0.724,0.955-1.349c-0.087-0.614-0.663-1.022-1.29-0.908
						c-0.615,0.116-1.043,0.71-0.959,1.336C1159.786,936.753,1160.358,937.149,1160.992,937.041z"/>
					<path fill="#DCA07B" d="M1182.386,952.974c0.609-0.121,1.039-0.716,0.955-1.342c-0.098-0.62-0.659-1.023-1.28-0.902
						c-0.612,0.115-1.035,0.718-0.94,1.336C1181.205,952.679,1181.775,953.089,1182.386,952.974z"/>
					<path fill="#DCA07B" d="M1104.973,959c0.993-0.191,1.688-1.145,1.541-2.135c-0.139-0.978-1.067-1.622-2.06-1.425
						c-0.997,0.186-1.684,1.131-1.544,2.123C1103.049,958.547,1103.972,959.187,1104.973,959z"/>
					<g>
						<path fill="#901718" d="M1161.744,953.089c-0.463-5.234-8.083-8.794-17.075-7.938c-9.034,0.843-16.012,5.835-15.548,11.114
							c0.464,5.285,8.201,8.819,17.232,7.925C1155.335,963.289,1162.205,958.323,1161.744,953.089z"/>
						<path fill="#DCA07B" d="M1137.649,956.674c1.16-0.23,1.969-1.342,1.798-2.517c-0.16-1.164-1.245-1.925-2.412-1.695
							c-1.161,0.217-1.97,1.342-1.803,2.5C1135.401,956.131,1136.479,956.897,1137.649,956.674z"/>
						<path fill="#DCA07B" d="M1146.899,958.541c1.154-0.237,1.959-1.35,1.781-2.513c-0.159-1.156-1.233-1.924-2.394-1.7
							c-1.154,0.224-1.962,1.343-1.801,2.507C1144.659,957.99,1145.736,958.758,1146.899,958.541z"/>
						<path fill="#DCA07B" d="M1150.127,952.003c0.882-0.167,1.496-1.017,1.374-1.899c-0.132-0.882-0.948-1.463-1.831-1.291
							c-0.874,0.159-1.488,1.022-1.366,1.898C1148.437,951.594,1149.25,952.169,1150.127,952.003z"/>
					</g>
					<g>
						<path fill="#901718" d="M1217.502,961.026c-0.456-5.196-7.908-8.711-16.684-7.841c-8.819,0.861-15.62,5.814-15.159,11.063
							c0.46,5.228,8.017,8.735,16.825,7.822C1211.257,971.163,1217.962,966.216,1217.502,961.026z"/>
						<path fill="#DCA07B" d="M1195.048,965.673c0.813-0.154,1.38-0.959,1.266-1.789c-0.115-0.832-0.875-1.374-1.694-1.215
							c-0.823,0.172-1.391,0.972-1.276,1.802C1193.47,965.296,1194.226,965.839,1195.048,965.673z"/>
						<path fill="#DCA07B" d="M1201.333,961.883c0.823-0.159,1.38-0.972,1.262-1.796c-0.119-0.83-0.875-1.375-1.69-1.214
							c-0.812,0.165-1.38,0.972-1.262,1.795C1199.765,961.5,1200.518,962.036,1201.333,961.883z"/>
						<path fill="#DCA07B" d="M1207.621,964.158c0.613-0.121,1.039-0.735,0.952-1.36c-0.094-0.634-0.659-1.036-1.286-0.928
							c-0.614,0.121-1.039,0.734-0.952,1.361C1206.426,963.864,1207.001,964.272,1207.621,964.158z"/>
					</g>
					<path fill="#DCA07B" d="M1168.733,936.036c0.467-0.095,0.802-0.548,0.731-1.021c-0.062-0.48-0.502-0.787-0.973-0.704
						c-0.466,0.097-0.797,0.556-0.731,1.023C1167.834,935.807,1168.266,936.114,1168.733,936.036z"/>
					<path fill="#DCA07B" d="M1186.604,951.274c0.467-0.09,0.784-0.545,0.718-1.01c-0.07-0.475-0.499-0.787-0.958-0.697
						c-0.475,0.096-0.799,0.543-0.729,1.017C1185.701,951.056,1186.133,951.364,1186.604,951.274z"/>
					<g>
						<path fill="#901718" d="M1208.555,935.743c-0.303-3.483-5.305-5.886-11.199-5.344c-5.911,0.537-10.467,3.829-10.161,7.351
							c0.307,3.496,5.365,5.873,11.273,5.317C1204.355,942.505,1208.861,939.227,1208.555,935.743z"/>
						<path fill="#DCA07B" d="M1192.613,940.531c0.704-0.142,1.185-0.813,1.08-1.522c-0.094-0.702-0.739-1.156-1.436-1.034
							c-0.687,0.134-1.171,0.817-1.074,1.52C1191.281,940.198,1191.929,940.657,1192.613,940.531z"/>
						<path fill="#DCA07B" d="M1199.22,935.782c0.691-0.129,1.175-0.806,1.074-1.503c-0.108-0.702-0.739-1.163-1.436-1.028
							c-0.683,0.121-1.175,0.799-1.073,1.502C1197.886,935.462,1198.531,935.922,1199.22,935.782z"/>
						<path fill="#DCA07B" d="M1204.812,936.997c0.693-0.135,1.171-0.801,1.07-1.503c-0.101-0.703-0.742-1.163-1.426-1.029
							c-0.696,0.128-1.171,0.805-1.073,1.509C1203.483,936.671,1204.129,937.124,1204.812,936.997z"/>
					</g>
					<path fill="#DCA07B" d="M1231.312,940.723c0.446-0.084,0.767-0.531,0.697-1.004c-0.07-0.454-0.484-0.762-0.941-0.678
						c-0.454,0.089-0.767,0.537-0.708,1.004C1230.43,940.512,1230.845,940.818,1231.312,940.723z"/>
					<path fill="#DCA07B" d="M1231.574,954.763c0.453-0.096,0.767-0.537,0.696-1.003c-0.059-0.467-0.477-0.767-0.933-0.685
						c-0.46,0.09-0.774,0.537-0.708,0.998C1230.698,954.546,1231.113,954.847,1231.574,954.763z"/>
				</g>
			</g>
			<path fill="#FFFFFF" d="M1384.354,894.579c0,3.975-3.22,7.201-7.197,7.201h-41.227c-3.98,0-7.205-3.227-7.205-7.201l0,0
				c0-3.977,3.225-7.197,7.205-7.197h41.227C1381.134,887.382,1384.354,890.603,1384.354,894.579L1384.354,894.579z"/>
			<g>
				<path fill="#EAEBED" d="M463.952,1138.694c0,8.6-5.058,15.574-11.296,15.574s-11.3-6.975-11.3-15.574
					c0-8.598,5.062-15.569,11.3-15.569S463.952,1130.097,463.952,1138.694z"/>
				<path fill="#C85A2B" d="M460.791,1138.287c0,6.86-4.033,12.423-9.01,12.423c-4.974,0-9.013-5.563-9.013-12.423
					s4.04-12.423,9.013-12.423C456.758,1125.864,460.791,1131.427,460.791,1138.287z"/>
				<g opacity="0.4">
					<path fill="#DB9836" d="M453.12,1143.289c-0.746-1.764-1.15-3.67-1.401-5.56c-0.22-1.669-0.307-3.339-0.182-5.02
						c0.115-1.53,0.286-3.392,1.199-4.719c-0.188-0.021-0.376-0.038-0.571-0.038c-3.883,0-7.027,4.332-7.027,9.679
						c0,5.344,3.145,9.68,7.027,9.68c1.188,0,2.308-0.412,3.293-1.133C454.312,1145.642,453.594,1144.415,453.12,1143.289z"/>
				</g>
			</g>
			<path fill="#DB9836" d="M1978.417,1195.237h-0.342C1978.257,1196.335,1978.417,1195.237,1978.417,1195.237z"/>
			<path fill="#A3A2A7" d="M2396.62,1303.671h28.076c0,0,16.133,0,16.454-8.92v-63.098c-1.603-8.504-12.604-8.504-16.131-8.504
				c-17.745,0-97.033,0-97.033,0v80.448L2396.62,1303.671z"/>
			<rect x="1977.828" y="1223.323" fill="#A3A2A7" width="406.738" height="80.334"/>
			<g>
				<path fill="#EAEBED" d="M2376.354,1036.287c0,11.788-9.683,21.342-21.628,21.342h-36.183c-11.944,0-21.628-9.554-21.628-21.342
					V958.22c0-11.787,9.684-21.339,21.628-21.339h36.183c11.945,0,21.628,9.552,21.628,21.339V1036.287z"/>
				<path fill="#5B1919" d="M2318.544,1054.061c-9.958,0-18.059-7.972-18.059-17.773V958.22c0-9.798,8.101-17.771,18.059-17.771
					h36.183c9.959,0,18.06,7.973,18.06,17.771v78.067c0,9.802-8.101,17.773-18.06,17.773H2318.544z"/>
				<g>
					<path fill="#EAEBED" d="M2338.561,1021.658c-15.241,0-27.643-15.434-27.643-34.402c0-0.139,0.003-0.276,0.014-0.415
						c-0.011-0.095-0.014-0.232-0.014-0.372c0-4.171,0.673-8.234,2-12.077c4.187-13.053,14.259-21.536,25.643-21.536
						c15.243,0,27.647,15.432,27.647,34.4S2353.804,1021.658,2338.561,1021.658z"/>
					<g>
						<path fill="#A3A2A7" d="M2362.639,987.256c0,17.031-10.776,30.834-24.078,30.834c-13.296,0-24.073-13.803-24.073-30.834
							c0-17.027,10.777-30.831,24.073-30.831C2351.862,956.425,2362.639,970.229,2362.639,987.256z"/>
						<ellipse fill="#EAEBED" cx="2335.595" cy="986.469" rx="21.108" ry="27.034"/>
					</g>
					<g>
						<g>
							<path fill="#EAEBED" d="M2327.696,1038.121c0,6.451-3.792,11.683-8.473,11.683s-8.477-5.231-8.477-11.683
								c0-6.448,3.796-11.681,8.477-11.681S2327.696,1031.673,2327.696,1038.121z"/>
							<path fill="#C85A2B" d="M2325.327,1037.817c0,5.145-3.025,9.316-6.759,9.316c-3.732,0-6.763-4.172-6.763-9.316
								c0-5.148,3.03-9.32,6.763-9.32C2322.302,1028.497,2325.327,1032.669,2325.327,1037.817z"/>
							<g opacity="0.4">
								<path fill="#DB9836" d="M2319.572,1041.567c-0.561-1.324-0.865-2.753-1.054-4.172c-0.163-1.251-0.229-2.503-0.135-3.761
									c0.087-1.149,0.216-2.548,0.898-3.542c-0.139-0.017-0.281-0.031-0.428-0.031c-2.911,0-5.271,3.252-5.271,7.261
									c0,4.013,2.359,7.265,5.271,7.265c0.892,0,1.732-0.311,2.471-0.851C2320.464,1043.331,2319.929,1042.415,2319.572,1041.567z
									"/>
							</g>
						</g>
						<g>
							<ellipse fill="#EAEBED" cx="2360.497" cy="1038.124" rx="8.475" ry="11.68"/>
							<ellipse fill="#C85A2B" cx="2359.842" cy="1037.817" rx="6.761" ry="9.316"/>
							<g opacity="0.4">
								<path fill="#DB9836" d="M2360.848,1041.571c-0.561-1.324-0.865-2.754-1.054-4.173c-0.163-1.251-0.229-2.506-0.135-3.764
									c0.087-1.146,0.216-2.544,0.898-3.542c-0.139-0.014-0.281-0.027-0.428-0.027c-2.911,0-5.271,3.248-5.271,7.261
									c0,4.012,2.359,7.261,5.271,7.261c0.892,0,1.732-0.311,2.471-0.851C2361.739,1043.335,2361.204,1042.415,2360.848,1041.571z
									"/>
							</g>
						</g>
					</g>
				</g>
			</g>
			<g>
				<path fill="#15431D" d="M2372.786,1174.958c0,11.903-18.383,21.552-41.057,21.552h-283.253c-22.678,0-41.06-9.648-41.06-21.552
					v-78.329c0-11.899,18.382-21.548,41.06-21.548h283.253c22.674,0,41.057,9.648,41.057,21.548V1174.958z"/>
				<path fill="#3B2B16" d="M2048.477,1185.952c-13.204,0-23.949-5.664-23.949-12.629v-78.329c0-6.965,10.745-12.628,23.949-12.628
					h283.253c13.199,0,23.949,5.663,23.949,12.628v78.329c0,6.965-10.75,12.629-23.949,12.629H2048.477z"/>
				<g>
					<g>
						<rect x="2024.527" y="1092.968" fill="#FFFFFF" width="330.28" height="5.353"/>
					</g>
					<g>
						<rect x="2024.527" y="1108.26" fill="#FFFFFF" width="330.28" height="5.352"/>
					</g>
					<g>
						<rect x="2024.527" y="1123.55" fill="#FFFFFF" width="330.28" height="5.351"/>
					</g>
					<g>
						<rect x="2024.527" y="1138.842" fill="#FFFFFF" width="330.28" height="5.351"/>
					</g>
					<g>
						<rect x="2024.527" y="1154.132" fill="#FFFFFF" width="330.28" height="5.351"/>
					</g>
					<g>
						<rect x="2024.527" y="1169.423" fill="#FFFFFF" width="330.28" height="5.354"/>
					</g>
				</g>
			</g>
			<path fill="#BFC0C6" d="M1961.771,1303.671h22.705c0,0,13.049,0,13.308-8.92v-63.098c-1.293-8.504-10.191-8.504-13.046-8.504
				c-14.351,0-78.474,0-78.474,0v80.448L1961.771,1303.671z"/>
			<g>
				<g>
					<path opacity="0.2" fill="#211915" d="M2187.9,779.5c4.562,8.785-0.624,15.908-11.582,15.908h-310.66
						c-10.956,0-21.366-7.123-23.245-15.908l-85.64-197.696c-1.676-8.785,4.074-15.908,12.837-15.908h300.364
						c8.766,0,19.421,7.123,23.803,15.908L2187.9,779.5z"/>
					<path fill="#B0D2D6" d="M1862.59,782.151c-1.513,0-3.071-1.214-3.397-2.651l-0.157-0.694l-88.47-197.424
						c-0.079-1.257,0.68-2.229,1.806-2.229h303.982c1.244,0,2.879,1.215,3.573,2.651l0.299,0.622l91.059,197.453
						c0.447,1.275-0.233,2.272-1.62,2.272H1862.59z"/>
					<polygon fill="#81A9CA" points="2090.483,647.241 2111.397,682.161 1997.519,782.151 1939.813,782.151 					"/>
					<path fill="#81A9CA" d="M1862.59,782.151c-1.513,0-3.071-1.214-3.397-2.651l-0.157-0.694l-88.47-197.424
						c-0.079-1.257,0.68-2.229,1.806-2.229h303.982c1.244,0,2.879,1.215,3.573,2.651l0.299,0.622L1862.59,782.151z"/>
					<path opacity="0.2" fill="#211915" d="M1830.308,714.696l-59.742-133.314c-0.079-1.257,0.68-2.229,1.806-2.229h205.07
						L1830.308,714.696z"/>
					<g>
						<g>
							<path fill="#9BC8EB" d="M1973.419,735.082c15.622-17.375,22.496-40.948,43.266-53.671c5.608-3.513-4.803-12.728-10.359-9.23
								c-21.509,13.259-28.825,37.371-45.077,55.445C1956.717,732.517,1968.923,739.935,1973.419,735.082L1973.419,735.082z"/>
						</g>
					</g>
					<g>
						<g>
							<path fill="#9BC8EB" d="M1939.53,693.228c29.909-22.412,48.416-56.826,84.7-70.625c9.826-3.846-3.136-20.964-12.875-17.13
								c-37.602,14.42-56.967,49.54-88.086,72.854C1914.646,684.598,1930.976,699.45,1939.53,693.228L1939.53,693.228z"/>
						</g>
					</g>
				</g>
				<g>
					<path opacity="0.2" fill="#211915" d="M2054.674,789.458c0,0-29.944-57.078-56.03-108.197
						c-12.781-25.562-25.392-51.133-34.723-70.333c-4.632-9.605-8.47-17.617-11.14-23.237c-4.96-10.485-7.641-16.231-7.641-16.231
						l6.403,0.354l3.019,6.331c1.798,4.183,72.164,142.865,108.737,211.702L2054.674,789.458z"/>
				</g>
			</g>
			<g>
				<path fill="#EAEBED" d="M2096.545,1036.287c0,11.788-10.864,21.342-24.266,21.342h-40.596c-13.402,0-24.267-9.554-24.267-21.342
					V958.22c0-11.787,10.864-21.339,24.267-21.339h40.596c13.401,0,24.266,9.552,24.266,21.339V1036.287z"/>
				<path fill="#5B1919" d="M2031.684,1054.061c-11.413,0-20.698-7.972-20.698-17.773V958.22c0-9.798,9.285-17.771,20.698-17.771
					h40.596c11.411,0,20.696,7.973,20.696,17.771v78.067c0,9.802-9.285,17.773-20.696,17.773H2031.684z"/>
				<g>
					<path fill="#EAEBED" d="M2051.979,1021.658c-15.242,0-27.645-15.434-27.645-34.402c0-0.139,0.004-0.276,0.015-0.415
						c-0.011-0.095-0.015-0.232-0.015-0.372c0-4.171,0.673-8.234,2.001-12.077c4.187-13.053,14.259-21.536,25.644-21.536
						c15.242,0,27.646,15.432,27.646,34.4S2067.222,1021.658,2051.979,1021.658z"/>
					<g>
						<g>
							<path fill="#A3A2A7" d="M2076.03,987.256c0,17.031-10.777,30.834-24.08,30.834c-13.296,0-24.073-13.803-24.073-30.834
								c0-17.027,10.777-30.831,24.073-30.831C2065.253,956.425,2076.03,970.229,2076.03,987.256z"/>
							<ellipse fill="#EAEBED" cx="2048.985" cy="986.469" rx="21.108" ry="27.034"/>
						</g>
						<g>
							<g>
								<path fill="#EAEBED" d="M2041.087,1038.121c0,6.451-3.793,11.683-8.474,11.683s-8.477-5.231-8.477-11.683
									c0-6.448,3.796-11.681,8.477-11.681S2041.087,1031.673,2041.087,1038.121z"/>
								<path fill="#C85A2B" d="M2038.717,1037.817c0,5.145-3.025,9.316-6.758,9.316c-3.733,0-6.763-4.172-6.763-9.316
									c0-5.148,3.029-9.32,6.763-9.32C2035.691,1028.497,2038.717,1032.669,2038.717,1037.817z"/>
								<g opacity="0.4">
									<path fill="#DB9836" d="M2032.962,1041.567c-0.561-1.324-0.864-2.753-1.053-4.172c-0.164-1.251-0.229-2.503-0.136-3.761
										c0.087-1.149,0.216-2.548,0.899-3.542c-0.139-0.017-0.281-0.031-0.429-0.031c-2.91,0-5.271,3.252-5.271,7.261
										c0,4.013,2.36,7.265,5.271,7.265c0.892,0,1.732-0.311,2.471-0.851C2033.854,1043.331,2033.318,1042.415,2032.962,1041.567z
										"/>
								</g>
							</g>
							<g>
								<path fill="#EAEBED" d="M2082.362,1038.124c0,6.448-3.793,11.68-8.471,11.68c-4.684,0-8.476-5.231-8.476-11.68
									c0-6.451,3.792-11.68,8.476-11.68C2078.569,1026.444,2082.362,1031.673,2082.362,1038.124z"/>
								<path fill="#C85A2B" d="M2079.992,1037.817c0,5.145-3.025,9.316-6.758,9.316c-3.73,0-6.763-4.172-6.763-9.316
									s3.032-9.316,6.763-9.316C2076.967,1028.501,2079.992,1032.673,2079.992,1037.817z"/>
								<g opacity="0.4">
									<path fill="#DB9836" d="M2074.237,1041.571c-0.561-1.324-0.864-2.754-1.053-4.173c-0.164-1.251-0.229-2.506-0.136-3.764
										c0.088-1.146,0.216-2.544,0.899-3.542c-0.139-0.014-0.281-0.027-0.429-0.027c-2.91,0-5.271,3.248-5.271,7.261
										c0,4.012,2.36,7.261,5.271,7.261c0.892,0,1.732-0.311,2.471-0.851C2075.13,1043.335,2074.594,1042.415,2074.237,1041.571z"
										/>
								</g>
							</g>
						</g>
					</g>
				</g>
			</g>
			<g>
				<path fill="#EAEBED" d="M1917.561,1138.694c0,8.6-5.055,15.574-11.297,15.574c-6.239,0-11.3-6.975-11.3-15.574
					c0-8.598,5.061-15.569,11.3-15.569C1912.506,1123.125,1917.561,1130.097,1917.561,1138.694z"/>
				<path fill="#C85A2B" d="M1914.398,1138.287c0,6.86-4.032,12.423-9.006,12.423c-4.978,0-9.018-5.563-9.018-12.423
					s4.04-12.423,9.018-12.423C1910.366,1125.864,1914.398,1131.427,1914.398,1138.287z"/>
				<g opacity="0.4">
					<path fill="#DB9836" d="M1906.728,1143.289c-0.746-1.764-1.15-3.67-1.401-5.56c-0.219-1.669-0.306-3.339-0.181-5.02
						c0.114-1.53,0.288-3.392,1.199-4.719c-0.186-0.021-0.377-0.038-0.572-0.038c-3.879,0-7.026,4.332-7.026,9.679
						c0,5.344,3.147,9.68,7.026,9.68c1.188,0,2.308-0.412,3.293-1.133C1907.919,1145.642,1907.201,1144.415,1906.728,1143.289z"/>
				</g>
			</g>
			<g>
				<ellipse fill="#EAEBED" cx="1906.262" cy="1055.527" rx="11.298" ry="15.573"/>
				<path fill="#C85A2B" d="M1914.398,1055.12c0,6.858-4.032,12.422-9.006,12.422c-4.978,0-9.018-5.563-9.018-12.422
					c0-6.86,4.04-12.423,9.018-12.423C1910.366,1042.697,1914.398,1048.26,1914.398,1055.12z"/>
				<g opacity="0.4">
					<path fill="#DB9836" d="M1906.728,1060.121c-0.746-1.764-1.15-3.67-1.401-5.56c-0.219-1.67-0.306-3.339-0.181-5.019
						c0.114-1.53,0.288-3.392,1.199-4.72c-0.186-0.021-0.377-0.038-0.572-0.038c-3.879,0-7.026,4.332-7.026,9.679
						c0,5.344,3.147,9.68,7.026,9.68c1.188,0,2.308-0.411,3.293-1.134C1907.919,1062.474,1907.201,1061.247,1906.728,1060.121z"/>
				</g>
			</g>
			<g>
				<ellipse fill="#EAEBED" cx="452.652" cy="1055.527" rx="11.297" ry="15.573"/>
				<path fill="#C85A2B" d="M460.791,1055.12c0,6.858-4.033,12.422-9.01,12.422c-4.974,0-9.013-5.563-9.013-12.422
					c0-6.86,4.04-12.423,9.013-12.423C456.758,1042.697,460.791,1048.26,460.791,1055.12z"/>
				<g opacity="0.4">
					<path fill="#DB9836" d="M453.12,1060.121c-0.746-1.764-1.15-3.67-1.401-5.56c-0.22-1.67-0.307-3.339-0.182-5.019
						c0.115-1.53,0.286-3.392,1.199-4.72c-0.188-0.021-0.376-0.038-0.571-0.038c-3.883,0-7.027,4.332-7.027,9.679
						c0,5.344,3.145,9.68,7.027,9.68c1.188,0,2.308-0.411,3.293-1.134C454.312,1062.474,453.594,1061.247,453.12,1060.121z"/>
				</g>
			</g>
			<polygon fill="#902B2C" points="1819.439,803.586 2218.852,803.586 2227.579,872.919 1828.171,872.919 			"/>
			<g>
				<path fill="#C13238" d="M573.523,651.549v96.123c1.68-14.917,14.841-26.575,30.83-26.575c15.514,0,28.365,10.967,30.634,25.274
					v-94.822h63.81v95.944c1.756-14.84,14.865-26.396,30.804-26.396c15.581,0,28.466,11.069,30.659,25.45v-94.998h63.834v95.561
					c1.937-14.663,14.942-26.013,30.752-26.013c15.709,0,28.689,11.273,30.711,25.833v-95.381h63.81v95.381
					c2.01-14.559,14.99-25.833,30.728-25.833c17.114,0,30.982,13.365,30.982,29.815H510.097v-99.363H573.523z"/>
				<g>
					<path fill="#3C873A" d="M949.366,747.026v-95.381h62.352v99.36h-0.642c0,16.474-13.869,29.812-30.982,29.812
						c-16.904,0-30.627-12.981-30.986-29.151c-0.025-0.229-0.025-0.432-0.025-0.661
						C949.083,749.653,949.184,748.327,949.366,747.026z"/>
					<g>
						<g>
							<path fill="#C13238" d="M886.463,750.913c0,16.463,13.882,29.808,31.003,29.808c17.121,0,30.997-13.345,30.997-29.808
								c0-16.458-13.876-29.802-30.997-29.802C900.345,721.111,886.463,734.455,886.463,750.913z"/>
						</g>
					</g>
					<path fill="#3C873A" d="M824.093,747.206v-95.561h61.463v95.381c0.178,1.301,0.282,2.627,0.282,3.979
						c0,0.229,0,0.432-0.028,0.661c-0.356,16.17-14.078,29.151-30.966,29.151c-16.905,0-30.624-12.981-30.982-29.151
						c-0.024-0.229-0.024-0.432-0.024-0.661C823.839,749.73,823.916,748.455,824.093,747.206z"/>
					<g>
						<g>
							<path fill="#C13238" d="M761.217,750.913c0,16.463,13.88,29.808,31.004,29.808c17.121,0,31.003-13.345,31.003-29.808
								c0-16.458-13.882-29.802-31.003-29.802C775.097,721.111,761.217,734.455,761.217,750.913z"/>
						</g>
					</g>
					<path fill="#3C873A" d="M698.796,747.589v-95.944h61.463v94.998c0.23,1.432,0.331,2.883,0.331,4.362
						c0,0.229,0,0.432-0.023,0.661c-0.359,16.17-14.082,29.151-30.966,29.151c-16.912,0-30.627-12.981-30.986-29.151
						c-0.024-0.229-0.024-0.432-0.024-0.661C698.59,749.857,698.667,748.711,698.796,747.589z"/>
					<g>
						<g>
							<path fill="#C13238" d="M635.969,750.913c0,16.463,13.883,29.808,31.003,29.808c17.121,0,30.997-13.345,30.997-29.808
								c0-16.458-13.875-29.802-30.997-29.802C649.852,721.111,635.969,734.455,635.969,750.913z"/>
						</g>
					</g>
					<path fill="#3C873A" d="M573.523,747.769v-96.124h61.463v94.82c0.23,1.481,0.352,2.984,0.352,4.54c0,0.229,0,0.432-0.021,0.661
						c-0.355,16.17-14.078,29.151-30.965,29.151c-16.905,0-30.624-12.981-30.983-29.151c-0.024-0.229-0.024-0.432-0.024-0.661
						C573.345,749.909,573.394,748.835,573.523,747.769z"/>
					<g>
						<g>
							<path fill="#C13238" d="M510.725,750.913c0,16.463,13.879,29.808,31.003,29.808c17.121,0,31.003-13.345,31.003-29.808
								c0-16.458-13.883-29.802-31.003-29.802C524.604,721.111,510.725,734.455,510.725,750.913z"/>
						</g>
					</g>
				</g>
			</g>
			<polygon fill="#E2E3E6" points="510.097,651.549 1011.718,651.549 1039.812,607.845 562.714,607.845 			"/>
			<path opacity="0.1" fill="#211915" d="M993.872,669.396l28.094-43.705H544.869l-52.617,43.705v99.363h0.627
				c0,16.463,13.879,29.808,31.004,29.808c17.121,0,31.003-13.345,31.003-29.808h0.613c0,0.031,0,0.061,0,0.092
				c0,0.229,0,0.431,0.025,0.661c0.359,16.169,14.078,29.15,30.982,29.15c16.887,0,30.61-12.981,30.965-29.15
				c0.021-0.23,0.021-0.432,0.021-0.661c0-0.031-0.004-0.061-0.004-0.092h0.635c0,16.463,13.883,29.808,31.003,29.808
				c17.121,0,30.997-13.345,30.997-29.808h0.624c0,0.03-0.004,0.061-0.004,0.092c0,0.229,0,0.431,0.025,0.661
				c0.359,16.169,14.075,29.15,30.986,29.15c16.884,0,30.606-12.981,30.965-29.15c0.024-0.23,0.024-0.432,0.024-0.661
				c0-0.031-0.003-0.061-0.003-0.092h0.631c0,16.463,13.879,29.808,31.003,29.808c17.121,0,31.003-13.345,31.003-29.808h0.617
				c0,0.03-0.003,0.061-0.003,0.092c0,0.229,0,0.431,0.024,0.661c0.359,16.169,14.079,29.15,30.983,29.15
				c16.887,0,30.61-12.981,30.965-29.15c0.028-0.23,0.028-0.432,0.028-0.661c0-0.031-0.003-0.061-0.003-0.092h0.627
				c0,16.463,13.882,29.808,31.004,29.808c17.12,0,30.996-13.345,30.996-29.808h0.624c0,0.031-0.003,0.061-0.003,0.092
				c0,0.229,0,0.431,0.024,0.661c0.36,16.169,14.082,29.15,30.987,29.15c17.113,0,30.982-13.338,30.982-29.811h0.641v-99.36H931.52
				v-0.095H993.872z M742.413,669.396v0.095H680.95v-0.095H742.413z M617.141,669.396v0.095h-61.463v-0.095H617.141z
				 M867.71,669.491h-61.463v-0.095h61.463V669.491z"/>
		</g>
	</g>
</g>
<g id="Capa_3">
	<g>
		<g>
			<path fill="#FFFFFF" d="M1348.823,1592.97c-2.365-0.088-4.596-0.596-6.684-1.53c-2.082-0.929-3.906-2.172-5.441-3.754
				c-1.537-1.567-2.748-3.4-3.639-5.486c-0.9-2.075-1.338-4.32-1.338-6.701v-15.849c0-0.707,0.252-1.312,0.775-1.82
				c0.506-0.512,1.115-0.773,1.826-0.773c0.756,0,1.385,0.262,1.873,0.773c0.494,0.509,0.73,1.113,0.73,1.82v15.849
				c0,1.49,0.266,2.918,0.775,4.268c0.508,1.364,1.227,2.569,2.131,3.639c0.914,1.064,1.98,1.955,3.211,2.686
				c1.219,0.725,2.537,1.237,3.982,1.498v-27.938c0-0.707,0.246-1.312,0.758-1.82c0.506-0.512,1.146-0.773,1.902-0.773
				c0.719,0,1.311,0.262,1.803,0.773c0.498,0.509,0.736,1.113,0.736,1.82v30.726c0,0.723-0.238,1.332-0.736,1.835
				c-0.492,0.513-1.113,0.76-1.877,0.76H1348.823z"/>
			<path fill="#FFFFFF" d="M1366.714,1557.26c1.426,0,2.775,0.289,4.043,0.837c1.266,0.546,2.369,1.291,3.309,2.215
				c0.932,0.943,1.67,2.042,2.244,3.31c0.553,1.264,0.826,2.593,0.826,4.017v1.262c0,1.418-0.273,2.753-0.826,4.021
				c-0.574,1.271-1.313,2.356-2.244,3.3c-0.939,0.924-2.043,1.674-3.309,2.226c-1.268,0.552-2.617,0.827-4.043,0.827h-5.268v3.314
				c0,1.427,0.504,2.65,1.529,3.673c1.025,1.02,2.248,1.532,3.676,1.532c1.156,0,2.191-0.338,3.092-0.997
				c0.926-0.677,1.555-1.558,1.918-2.675c0.223-0.697,0.637-1.22,1.277-1.559c0.617-0.328,1.287-0.377,1.99-0.158
				c0.67,0.223,1.184,0.643,1.535,1.267c0.361,0.615,0.43,1.254,0.207,1.916c-0.719,2.211-1.986,4.011-3.811,5.361
				c-1.83,1.355-3.895,2.022-6.209,2.022c-1.428,0-2.766-0.271-4.039-0.823c-1.271-0.565-2.371-1.301-3.314-2.24
				c-0.926-0.918-1.68-2.021-2.238-3.28c-0.553-1.267-0.828-2.612-0.828-4.039v-14.949c0-1.424,0.275-2.753,0.828-4.017
				c0.559-1.268,1.313-2.366,2.238-3.31c0.943-0.924,2.043-1.669,3.314-2.215C1363.886,1557.549,1365.249,1557.26,1366.714,1557.26z
				 M1361.446,1574.157h5.268c1.426,0,2.65-0.522,3.684-1.57c1.025-1.036,1.523-2.27,1.523-3.688v-1.262
				c0-1.424-0.498-2.638-1.523-3.658c-1.033-1.016-2.258-1.529-3.684-1.529c-1.465,0-2.713,0.514-3.738,1.529
				c-1.025,1.021-1.529,2.234-1.529,3.658V1574.157z"/>
			<path fill="#FFFFFF" d="M1396.577,1567.308c0-0.358-0.035-0.619-0.068-0.803c-0.053-0.17-0.082-0.3-0.082-0.396
				c-0.172-0.844-0.623-1.646-1.336-2.391c-0.973-0.974-2.168-1.478-3.604-1.478c-1.461,0-2.666,0.504-3.605,1.478
				c-0.979,0.967-1.459,2.187-1.459,3.647v15.371c0,1.418,0.48,2.622,1.459,3.575c0.977,0.986,2.186,1.479,3.605,1.479
				c1.344,0,2.541-0.493,3.604-1.479c0.992-1.061,1.486-2.255,1.486-3.575c0-0.717,0.246-1.32,0.729-1.819
				c0.48-0.523,1.105-0.774,1.871-0.774c0.711,0,1.324,0.251,1.828,0.774c0.51,0.499,0.779,1.103,0.779,1.819
				c0,2.791-1.029,5.21-3.074,7.242c-2.006,2.003-4.418,2.99-7.223,2.99c-2.844,0-5.27-0.987-7.283-2.99
				c-2.033-2.032-3.064-4.451-3.064-7.242v-15.371c0-2.831,1.031-5.279,3.064-7.312c2.014-2.042,4.439-3.067,7.283-3.067
				c2.805,0,5.217,1.025,7.223,3.067c2,2.032,3.023,4.438,3.074,7.181v0.072c-0.051,0.711-0.311,1.297-0.811,1.785
				c-0.49,0.5-1.086,0.736-1.797,0.736c-0.727,0-1.336-0.236-1.844-0.736C1396.833,1568.604,1396.577,1568.019,1396.577,1567.308z"
				/>
			<path fill="#FFFFFF" d="M1416.062,1587.792c0.582,0.044,1.201,0.281,1.838,0.735c0.654,0.432,0.963,1.055,0.963,1.848
				c0,0.761-0.246,1.381-0.746,1.874c-0.521,0.483-1.127,0.721-1.85,0.721c-2.893,0-5.369-1.025-7.412-3.063
				c-2.053-2.032-3.063-4.466-3.063-7.319v-23.001c0-0.749,0.256-1.374,0.766-1.857c0.502-0.488,1.148-0.741,1.898-0.741
				c0.713,0,1.322,0.253,1.832,0.741c0.514,0.483,0.758,1.108,0.758,1.857v1.003h2.951c0.715,0,1.338,0.26,1.838,0.768
				c0.5,0.504,0.777,1.114,0.777,1.824c0,0.755-0.277,1.374-0.777,1.863c-0.5,0.498-1.123,0.726-1.838,0.726h-2.951v16.817
				c0,1.34,0.527,2.564,1.543,3.673C1413.534,1587.188,1414.688,1587.695,1416.062,1587.792z"/>
			<path fill="#FFFFFF" d="M1440.907,1560.055c2.051,2.032,3.078,4.457,3.078,7.253v15.43c0,2.742-1.027,5.137-3.078,7.169
				c-1.996,2.038-4.424,3.063-7.277,3.063h-1.133c-2.809,0-5.211-1.025-7.215-3.063c-2.051-1.979-3.068-4.378-3.068-7.169v-15.43
				c0-2.845,1.018-5.254,3.068-7.253c2.045-2.042,4.451-3.067,7.215-3.067h1.133
				C1436.438,1556.987,1438.866,1558.013,1440.907,1560.055z M1438.706,1567.308c0-1.427-0.49-2.622-1.463-3.589
				c-0.986-0.935-2.186-1.394-3.613-1.394h-1.074c-1.369,0-2.6,0.459-3.658,1.394c-0.979,1.059-1.469,2.259-1.469,3.589v15.43
				c0,1.32,0.49,2.515,1.469,3.575c1.059,0.937,2.289,1.417,3.658,1.417h1.074c1.428,0,2.627-0.48,3.613-1.417
				c0.973-0.953,1.463-2.157,1.463-3.575V1567.308z"/>
			<path fill="#FFFFFF" d="M1448.194,1567.308c0-2.884,1.004-5.321,3.008-7.314c1.992-2.042,4.443-3.063,7.338-3.063
				c0.721,0,1.328,0.251,1.842,0.765c0.51,0.507,0.766,1.117,0.766,1.819c0,0.855-0.33,1.49-0.965,1.906
				c-0.65,0.42-1.26,0.651-1.838,0.696c-1.385,0.081-2.545,0.604-3.467,1.538c-0.986,0.963-1.484,2.182-1.484,3.652v20.746
				c0,1.384-0.508,2.545-1.535,3.488c-1.018,0.949-2.246,1.428-3.664,1.428V1567.308z"/>
		</g>
		<path fill="#FFFFFF" d="M1484.55,1556.982h-1.141c-2.746,0-5.154,1.017-7.188,3.054c-2.051,1.993-3.068,4.394-3.068,7.232v15.424
			c0,2.777,1.018,5.173,3.068,7.147c1.996,2.051,4.393,3.071,7.188,3.071h1.141c2.846,0,5.27-1.021,7.273-3.071
			c2.041-2.019,3.064-4.399,3.064-7.147v-15.424c0-2.776-1.023-5.196-3.064-7.232
			C1489.776,1557.999,1487.36,1556.982,1484.55,1556.982z M1489.614,1582.692c0,1.408-0.486,2.608-1.459,3.57
			c-0.98,0.944-2.188,1.394-3.605,1.394h-1.063c-1.375,0-2.602-0.449-3.67-1.394c-0.973-1.053-1.469-2.254-1.469-3.57v-15.424
			c0-1.325,0.496-2.521,1.469-3.58c1.068-0.928,2.295-1.408,3.67-1.408h1.063c1.418,0,2.625,0.48,3.605,1.408
			c0.973,0.974,1.459,2.173,1.459,3.58V1582.692z M1509.431,1556.982c-2.801,0-5.229,1.017-7.273,3.054
			c-2.051,2.036-3.061,4.456-3.061,7.232v33.223c1.475,0,2.697-0.506,3.729-1.465c1.021-0.934,1.521-2.104,1.521-3.532v-2.583h5.084
			c2.842,0,5.27-1.021,7.266-3.071c2.051-2.019,3.068-4.399,3.068-7.147v-15.424c0-2.776-1.018-5.196-3.068-7.232
			C1514.663,1557.999,1512.231,1556.982,1509.431,1556.982z M1514.491,1582.692c0,1.35-0.455,2.56-1.393,3.57
			c-1.076,0.944-2.287,1.394-3.668,1.394h-5.084v-20.388c0-1.407,0.502-2.606,1.484-3.58c1.063-0.928,2.262-1.408,3.6-1.408
			c1.381,0,2.592,0.48,3.668,1.408c0.938,0.974,1.393,2.173,1.393,3.58V1582.692z M1541.245,1560.302
			c-0.924-0.938-2.027-1.668-3.301-2.225c-1.268-0.553-2.613-0.837-4.031-0.837c-1.475,0-2.838,0.284-4.109,0.837
			c-1.27,0.557-2.365,1.287-3.301,2.225c-0.93,0.93-1.678,2.023-2.229,3.285c-0.564,1.264-0.842,2.604-0.842,4.017v14.954
			c0,1.413,0.277,2.752,0.842,4.007c0.551,1.271,1.299,2.364,2.229,3.275c0.936,0.942,2.031,1.692,3.301,2.245
			c1.271,0.546,2.607,0.826,4.045,0.826c2.301,0,4.377-0.662,6.188-2.021c1.832-1.351,3.105-3.137,3.809-5.356
			c0.229-0.673,0.16-1.291-0.203-1.917c-0.346-0.629-0.865-1.044-1.527-1.262c-0.715-0.229-1.375-0.17-1.992,0.164
			c-0.627,0.335-1.055,0.852-1.273,1.563c-0.354,1.104-0.99,1.979-1.908,2.651c-0.914,0.669-1.938,0.997-3.092,0.997
			c-1.438,0-2.65-0.513-3.67-1.533c-1.031-1.011-1.539-2.226-1.539-3.639v-3.334h5.273c1.418,0,2.764-0.261,4.031-0.827
			c1.273-0.547,2.377-1.291,3.301-2.234c0.932-0.915,1.676-2.019,2.232-3.271c0.555-1.272,0.836-2.602,0.836-4.024v-1.263
			c0-1.413-0.281-2.753-0.836-4.017C1542.921,1562.325,1542.177,1561.231,1541.245,1560.302z M1539.112,1568.866
			c0,1.423-0.508,2.65-1.535,3.691c-1.02,1.035-2.246,1.563-3.664,1.563h-5.273v-6.517c0-1.413,0.508-2.633,1.539-3.653
			c1.02-1.021,2.26-1.533,3.734-1.533c1.418,0,2.645,0.513,3.664,1.533c1.027,1.021,1.535,2.24,1.535,3.653V1568.866z
			 M1558.575,1556.982c-1.77,0-3.523,0.484-5.262,1.472c-0.49-0.987-1.285-1.472-2.398-1.472c-0.715,0-1.309,0.258-1.816,0.789
			c-0.521,0.532-0.789,1.123-0.789,1.795v33.345c1.477,0,2.697-0.484,3.668-1.456c1.064-1.026,1.605-2.191,1.605-3.517v-20.67
			c0-1.374,0.467-2.545,1.395-3.507c0.982-0.982,2.18-1.481,3.598-1.481c1.346,0,2.553,0.48,3.613,1.408
			c0.98,0.974,1.479,2.173,1.479,3.58v25.643c1.453,0,2.682-0.484,3.654-1.456c1.023-0.982,1.547-2.157,1.547-3.517v-20.67
			c0-2.839-1.02-5.239-3.02-7.232C1563.806,1557.999,1561.39,1556.982,1558.575,1556.982z M1600.972,1574.216
			c-0.996-1.001-2.168-1.785-3.504-2.355c-1.328-0.574-2.752-0.871-4.266-0.871h-0.736c-1.25,0-2.309-0.426-3.164-1.291
			c-0.877-0.855-1.305-1.906-1.305-3.154c0-1.196,0.42-2.235,1.27-3.087c0.854-0.876,1.895-1.298,3.121-1.298
			c1.205,0,2.238,0.417,3.088,1.259c0.479,0.484,1.092,0.741,1.832,0.741c0.729,0,1.336-0.257,1.842-0.741
			c0.477-0.488,0.723-1.093,0.723-1.823c0-0.736-0.246-1.336-0.723-1.83c-0.896-0.881-1.924-1.558-3.078-2.017
			c-1.162-0.465-2.377-0.697-3.684-0.697c-1.322,0-2.563,0.248-3.717,0.721c-1.168,0.499-2.174,1.166-3.029,2.028
			c-0.873,0.87-1.566,1.876-2.076,3.029c-0.518,1.15-0.77,2.388-0.77,3.715c0,1.33,0.252,2.568,0.77,3.72
			c0.51,1.156,1.203,2.162,2.076,3.014c0.855,0.866,1.861,1.554,3.029,2.063c1.154,0.518,2.395,0.769,3.717,0.769l0.746,0.054
			c1.643,0,3.037,0.575,4.174,1.707c1.113,1.128,1.699,2.487,1.699,4.079c0,1.598-0.586,2.971-1.699,4.112
			c-1.137,1.156-2.51,1.736-4.105,1.736c-1.336,0-2.527-0.396-3.568-1.198c-1.045-0.795-1.756-1.829-2.1-3.132
			c-0.178-0.69-0.582-1.233-1.191-1.591c-0.635-0.339-1.299-0.407-2.018-0.193c-0.66,0.228-1.184,0.644-1.529,1.236
			c-0.354,0.606-0.441,1.244-0.268,1.941c0.668,2.404,2,4.34,3.969,5.83c1.973,1.481,4.209,2.221,6.705,2.221
			c1.514,0,2.938-0.285,4.266-0.871c1.336-0.571,2.508-1.35,3.504-2.355c1-0.982,1.799-2.144,2.367-3.488
			c0.584-1.336,0.865-2.734,0.865-4.248c0-1.504-0.281-2.918-0.865-4.243C1602.771,1576.37,1601.972,1575.208,1600.972,1574.216z
			 M1619.644,1588.454c-0.643-0.443-1.25-0.681-1.818-0.725c-1.393-0.087-2.547-0.591-3.482-1.533
			c-1.023-1.104-1.533-2.322-1.533-3.639v-16.813h2.941c0.709,0,1.314-0.241,1.828-0.735c0.518-0.474,0.773-1.106,0.773-1.848
			c0-0.716-0.256-1.32-0.773-1.838c-0.514-0.498-1.119-0.749-1.828-0.749h-2.941v-1.008c0-0.754-0.25-1.367-0.764-1.853
			c-0.518-0.493-1.127-0.731-1.832-0.731c-0.768,0-1.391,0.238-1.896,0.731c-0.518,0.485-0.773,1.099-0.773,1.853v22.991
			c0,2.825,1.02,5.264,3.068,7.282c2.043,2.051,4.508,3.071,7.408,3.071c0.709,0,1.314-0.242,1.832-0.721
			c0.5-0.503,0.76-1.118,0.76-1.872C1620.612,1589.524,1620.302,1588.91,1619.644,1588.454z M1635.347,1556.982h-1.123
			c-2.746,0-5.156,1.017-7.205,3.054c-2.043,1.993-3.064,4.394-3.064,7.232v15.424c0,2.777,1.021,5.173,3.064,7.147
			c2.004,2.051,4.404,3.071,7.205,3.071h1.123c2.859,0,5.281-1.021,7.277-3.071c2.035-2.019,3.068-4.399,3.068-7.147v-15.424
			c0-2.776-1.033-5.196-3.068-7.232C1640.581,1557.999,1638.159,1556.982,1635.347,1556.982z M1640.437,1582.692
			c0,1.408-0.504,2.608-1.48,3.57c-0.986,0.944-2.168,1.394-3.609,1.394h-1.061c-1.363,0-2.602-0.449-3.672-1.394
			c-0.969-1.053-1.465-2.254-1.465-3.57v-15.424c0-1.325,0.496-2.521,1.465-3.58c1.07-0.928,2.309-1.408,3.672-1.408h1.061
			c1.441,0,2.623,0.48,3.609,1.408c0.977,0.974,1.48,2.173,1.48,3.58V1582.692z M1660.235,1556.982
			c-2.852,0-5.264,1.017-7.275,3.054c-2.043,2.036-3.08,4.46-3.08,7.296v15.36c0,2.777,1.037,5.192,3.08,7.229
			c2.012,1.979,4.424,2.99,7.275,2.99c2.805,0,5.205-1.012,7.193-2.99c2.059-2.036,3.076-4.451,3.076-7.229
			c0-0.716-0.254-1.33-0.764-1.838c-0.51-0.503-1.117-0.765-1.84-0.765c-0.746,0-1.373,0.262-1.859,0.765
			c-0.502,0.508-0.742,1.122-0.742,1.838c0,1.316-0.482,2.518-1.449,3.57c-1.084,0.983-2.287,1.467-3.615,1.467
			c-1.432,0-2.629-0.483-3.609-1.467c-0.975-0.962-1.451-2.162-1.451-3.57v-15.36c0-1.457,0.477-2.67,1.451-3.644
			c0.939-0.973,2.127-1.466,3.609-1.466c1.418,0,2.609,0.493,3.615,1.466c0.695,0.741,1.141,1.544,1.303,2.382
			c0,0.096,0.037,0.227,0.092,0.4c0.033,0.179,0.055,0.45,0.055,0.798c0,0.708,0.26,1.302,0.768,1.8
			c0.52,0.485,1.119,0.731,1.834,0.731c0.723,0,1.313-0.246,1.799-0.731c0.492-0.498,0.76-1.092,0.805-1.8v-0.063
			c-0.045-2.743-1.068-5.134-3.076-7.17C1665.44,1557.999,1663.04,1556.982,1660.235,1556.982z M1690.835,1575.509
			c-0.621-0.658-1.305-1.22-2.063-1.665c1.607-1.853,2.412-4.044,2.412-6.575v-4.107c0-0.716-0.268-1.32-0.781-1.838
			c-0.51-0.498-1.113-0.749-1.818-0.749c-0.707,0-1.336,0.251-1.842,0.749c-0.512,0.518-0.754,1.122-0.754,1.838v4.107
			c0,1.408-0.514,2.637-1.541,3.668c-0.928,0.924-2.09,1.432-3.482,1.524h-1.24v-12.826c0-0.702-0.264-1.325-0.76-1.824
			c-0.486-0.507-1.096-0.76-1.877-0.76c-0.691,0-1.314,0.253-1.818,0.76c-0.51,0.499-0.756,1.122-0.756,1.824v33.276
			c1.424,0,2.643-0.484,3.664-1.456c1.02-0.982,1.547-2.139,1.547-3.463v-10.423h3.918c1.414,0.092,2.609,0.596,3.533,1.524
			c0.977,1.03,1.467,2.235,1.467,3.657v10.16c1.434,0,2.656-0.484,3.67-1.456c1.021-0.982,1.537-2.139,1.537-3.463v-5.241
			C1693.851,1579.955,1692.841,1577.545,1690.835,1575.509z"/>
		<g>
			<path fill="#FFFFFF" d="M1145.073,1589.253V1570.4c0-1.264,0.9-2.12,2.123-2.12h5.051c2.814,0,5.386,2.53,5.386,5.481v12.192
				c0,3.13-2.571,5.443-5.386,5.443h-5.051C1145.875,1591.397,1145.073,1590.375,1145.073,1589.253z M1147.791,1571.019
				c0,5.941,0.032,11.664,0.032,17.635h4.423c1.423,0,2.642-1.215,2.642-2.699v-12.169c0-1.471-1.218-2.767-2.642-2.767H1147.791z"
				/>
			<path fill="#FFFFFF" d="M1173.786,1571.019l-7.769,0.059v7.116h7.435v2.734h-7.435v4.954c0,1.49,1.227,2.771,2.746,2.771h5.023
				v2.744h-5.023c-2.978,0-5.48-2.565-5.48-5.516v-15.457c0-1.26,1.084-2.145,2.216-2.145h8.288V1571.019z"/>
			<path fill="#FFFFFF" d="M1184.381,1568.015c3,0,6.075,2.217,6.075,6.474h-2.709c0-2.444-1.678-3.729-3.366-3.729
				c-1.726,0-3.408,0.981-3.408,2.81v1.911c0,1.815,2.082,2.447,3.708,2.772c2.676,0.566,5.776,1.389,5.776,5.424v2.376
				c0,3.695-3.1,5.578-6.105,5.578c-3.144,0-6.08-2.207-6.046-6.503h2.668c0,2.472,1.655,3.725,3.378,3.725
				c1.68,0,3.396-0.981,3.396-2.8v-2.376c0-1.984-1.85-2.421-3.632-2.715c-2.874-0.562-5.783-1.225-5.811-5.481v-1.911
				C1178.305,1569.9,1181.269,1568.015,1184.381,1568.015z"/>
			<path fill="#FFFFFF" d="M1196.103,1591.397v-23.117h2.739v23.117H1196.103z"/>
			<path fill="#FFFFFF" d="M1209.912,1578.354h4.358c1.255,0,2.146,0.865,2.146,2.08v5.618c0,3.666-3.1,5.554-6.242,5.554
				c-3.173,0-6.285-1.921-6.285-5.687v-12.316c0-3.739,3.048-5.626,6.217-5.626c3.109,0,6.212,2.216,6.246,6.54h-2.777
				c0-2.506-1.712-3.787-3.469-3.787c-1.787,0-3.498,0.981-3.498,2.873v12.316c0,1.917,1.784,2.933,3.566,2.933
				c1.787,0,3.474-0.981,3.507-2.8v-4.993h-3.769V1578.354z"/>
			<path fill="#FFFFFF" d="M1233.818,1568.28v21.239c0,1.253-0.857,1.878-1.752,1.878c-0.657,0-1.553-0.465-1.875-1.186
				c-1.655-4.064-3.237-8.752-4.96-13.252c-0.591-1.582-1.255-4.784-1.55-5.646l-0.4,0.106l0.793,4.06l0.134,15.918h-2.804v-21.27
				c-0.035-1.229,0.886-1.944,1.852-1.944c0.78,0,1.775,0.493,1.935,1.316l-0.018-0.077l6.808,19.23h0.18l-0.946-4.359
				l-0.139-16.014H1233.818z"/>
			<path fill="#FFFFFF" d="M1249.561,1571.019l-7.755,0.059v7.116h7.435v2.734h-7.435v4.954c0,1.49,1.214,2.771,2.741,2.771h5.014
				v2.744h-5.014c-2.973,0-5.484-2.565-5.484-5.516v-15.457c0-1.26,1.093-2.145,2.216-2.145h8.282V1571.019z"/>
			<path fill="#FFFFFF" d="M1254.882,1589.253V1570.4c0-1.264,0.893-2.12,2.118-2.12h5.053c2.8,0,5.382,2.53,5.382,5.481v12.192
				c0,3.13-2.582,5.443-5.382,5.443H1257C1255.675,1591.397,1254.882,1590.375,1254.882,1589.253z M1257.585,1571.019
				c0,5.941,0.041,11.664,0.041,17.635h4.428c1.417,0,2.637-1.215,2.637-2.699v-12.169c0-1.471-1.22-2.767-2.637-2.767H1257.585z"/>
			<path fill="#FFFFFF" d="M1292.763,1578.978c2.183,0.334,3.232,2.68,3.232,4.263v2.747c0,2.864-2.641,5.41-5.378,5.449h-5.023
				c-1.313,0-2.119-0.828-2.119-2.184v-18.828c0-1.288,0.805-2.145,2.119-2.145h4.592c2.91,0.034,5.457,2.342,5.457,5.481v1.156
				C1295.643,1576.171,1294.743,1578.522,1292.763,1578.978z M1286.189,1571.019v6.639h4.364c1.385,0,2.371-1.254,2.371-2.739
				v-1.156c0-1.486-1.217-2.743-2.739-2.743H1286.189z M1293.254,1585.987v-2.747c0-1.549-1.209-2.807-2.701-2.807h-4.364v8.254
				h4.428C1291.963,1588.624,1293.254,1587.438,1293.254,1585.987z"/>
			<path fill="#FFFFFF" d="M1306.47,1581.43v9.968h-2.742v-10.035c-0.689-1.658-1.389-3.299-2.154-5.061
				c-1.055-2.37-2.47-5.747-3.396-8.021h2.906c0.961,2.177,2.877,7.271,3.732,9.41l0.299,1.785c0.037-0.257,0.201-1.523,0.264-1.818
				c0.766-1.849,2.979-7.664,3.701-9.377h2.969L1306.47,1581.43z"/>
		</g>
	</g>
</g>
</svg>
