<?xml version="1.0" encoding="utf-8"?>
<!-- Designed by Vexels.com - 2019 All Rights Reserved - https://vexels.com/terms-and-conditions/  -->
<svg version="1.1" id="Capa_1" xmlns="http://www.w3.org/2000/svg" xmlns:xlink="http://www.w3.org/1999/xlink" x="0px" y="0px"
	 viewBox="0 0 1200 1200" enable-background="new 0 0 1200 1200" xml:space="preserve">
<g>
	<g>
		
			<line fill="none" stroke="#449247" stroke-width="0" stroke-linecap="round" stroke-linejoin="round" x1="830.211" y1="210.075" x2="830.219" y2="210.075"/>
		<g>
			<path fill="none" d="M422.486,333.972"/>
			<path fill="none" d="M422.365,333.773"/>
			<path fill="none" d="M422.552,334.082"/>
			<g>
				<path fill="none" d="M623.226,362.845c0.564-0.849,1.124-1.701,1.691-2.547C624.354,361.146,623.79,361.995,623.226,362.845z"/>
				<g>
					<path fill="none" d="M447.936,219.457c-0.352-1.825-0.676-3.652-0.91-5.496C447.26,215.805,447.582,217.632,447.936,219.457z"
						/>
					<path fill="none" d="M456.64,243.997c-0.527-1.2-1.043-2.406-1.563-3.609C455.596,241.592,456.11,242.798,456.64,243.997z"/>
					<path fill="none" d="M446.644,209.591c-0.038-0.77-0.059-1.526-0.062-2.27C446.585,208.066,446.606,208.821,446.644,209.591z"
						/>
					<path fill="none" d="M446.702,210.608c0.056,0.807,0.135,1.63,0.228,2.463C446.837,212.238,446.757,211.415,446.702,210.608z"
						/>
				</g>
			</g>
		</g>
		<g>
			<path fill="none" d="M825.522,211.058c-0.026,0.005-0.05,0.013-0.075,0.018c3.65-0.007,6.535-2.126,10.107-2.201
				C834.268,208.251,826.847,210.786,825.522,211.058z"/>
			<path fill="none" d="M798.81,219.2c-0.601,0.193-1.195,0.41-1.794,0.607c2.313-0.772,4.629-1.536,6.938-2.321
				C802.247,218.064,800.54,218.645,798.81,219.2z"/>
			<path fill="none" d="M636.047,387.009c0.158-0.287,0.308-0.578,0.468-0.864c-0.01,0.017-0.021,0.033-0.03,0.05
				C636.332,386.463,636.198,386.74,636.047,387.009z"/>
			<path fill="none" d="M617.866,426.687c4.352-11.325,9.211-22.541,14.792-33.372c-6.259,11.954-11.541,24.365-16.135,37.042
				C616.974,429.134,617.397,427.907,617.866,426.687z"/>
			<path fill="none" d="M710.473,264.927c-7.234,5.544-13.969,11.554-20.407,17.857c9.427-8.834,19.329-17.15,29.769-24.715
				C716.682,260.296,713.553,262.566,710.473,264.927z"/>
			<path fill="none" d="M624.918,360.298c0.026-0.039-0.529,0.798-0.994,1.502c0.03-0.046,0.063-0.091,0.093-0.137
				C624.317,361.208,624.617,360.752,624.918,360.298z"/>
			<path fill="none" d="M650.051,297.152c-0.373,0.362-0.751,0.72-1.127,1.078C649.302,297.872,649.678,297.513,650.051,297.152z"/>
			<path fill="none" d="M459.191,353.265c0.417-4.365,1.545-9.009,4.628-12.311C460.732,344.26,459.609,348.895,459.191,353.265z"/>
			<path fill="none" d="M793.539,220.982c-8.786,3.021-17.437,6.456-25.966,10.127c-5.415,2.33-10.711,4.853-15.907,7.537
				c12.174-6.1,24.664-11.351,37.436-16.089C790.574,222.011,792.055,221.493,793.539,220.982z"/>
			<path fill="none" d="M380.582,175.784c0.116,0.128,0.21,0.312,0.303,0.499C380.803,176.089,380.705,175.917,380.582,175.784z"/>
			<path fill="none" d="M492.049,446.355c-0.544-1.086-1.097-2.167-1.655-3.247C490.946,444.19,491.506,445.269,492.049,446.355z"/>
			<path fill="none" d="M389.244,212.272c1.545,6.118,3.344,12.18,5.355,18.302C392.615,224.41,390.805,218.276,389.244,212.272z"/>
			<path fill="none" d="M495.787,454.178c-0.483-1.06-0.973-2.116-1.473-3.168C494.811,452.064,495.314,453.116,495.787,454.178z"/>
			<path fill="none" d="M821.164,215.775c-11.322,5.208-22.234,12.188-32.685,19.062c3.414-2.211,6.827-4.425,10.284-6.547
				c8.521-5.231,17.53-10.568,26.763-14.398c2.869-1.19,5.734-2.252,8.662-3.268c-1.455,0.503-2.922,0.919-4.355,1.495
				C826.927,213.287,824.01,214.466,821.164,215.775z"/>
			<path fill="none" d="M614.815,376.326c-11.862,19.899-21.628,40.976-29.071,62.945c0.879-2.526,1.76-5.052,2.702-7.548
				C595.735,412.385,604.414,393.934,614.815,376.326z"/>
			<path fill="none" d="M834.189,210.624c0.692-0.24,2.433-0.57,2.012-1.241C835.706,209.887,834.321,210.579,834.189,210.624z"/>
			<path fill="none" d="M653.903,293.25c-0.665,0.704-1.343,1.398-2.025,2.087C652.563,294.649,653.237,293.953,653.903,293.25z"/>
			<path fill="none" d="M617.031,372.57c0.143-0.233,0.295-0.461,0.438-0.694C617.325,372.108,617.174,372.337,617.031,372.57z"/>
			<path fill="none" d="M687.167,229.935c-0.472,0.389-0.954,0.767-1.443,1.136C686.213,230.703,686.692,230.322,687.167,229.935z"
				/>
			<path fill="none" d="M683.675,232.52c-0.447,0.298-0.899,0.59-1.359,0.873C682.774,233.109,683.228,232.818,683.675,232.52z"/>
			<path fill="none" d="M672.061,242.691c-0.019-0.092-0.054-0.21-0.098-0.348c0.322,1.438,0.577,2.892,0.791,4.35
				C672.563,245.352,672.348,244.011,672.061,242.691z"/>
			<path fill="none" d="M690.362,227.034c-0.531,0.533-1.074,1.054-1.631,1.558C689.289,228.09,689.831,227.568,690.362,227.034z"/>
			<path fill="none" d="M657.349,289.43c-0.769,0.895-1.555,1.777-2.355,2.648C655.796,291.207,656.58,290.324,657.349,289.43z"/>
			<path fill="none" d="M692.387,224.914c0.174-0.203,0.312-0.424,0.482-0.63c-0.382,0.454-0.765,0.906-1.163,1.343
				C691.928,225.382,692.17,225.165,692.387,224.914z"/>
			<path fill="none" d="M695.179,221.203c-0.136,0.199-0.268,0.4-0.409,0.597C694.908,221.602,695.045,221.404,695.179,221.203z"/>
			<path fill="none" d="M679.476,235.059c0.347-0.186,0.671-0.401,1.013-0.594c-0.941,0.494-1.912,0.95-2.902,1.382
				C678.452,235.511,679.158,235.229,679.476,235.059z"/>
			<path fill="none" d="M662.193,283.322c0.044-0.061,0.082-0.127,0.126-0.188c-0.154,0.217-0.314,0.427-0.47,0.642
				C661.96,283.622,662.083,283.476,662.193,283.322z"/>
			<path fill="none" d="M672.961,248.164c-0.051-0.415-0.118-0.83-0.176-1.245c0.093,0.654,0.159,1.306,0.219,1.959
				C672.979,248.64,672.992,248.402,672.961,248.164z"/>
			<path fill="none" d="M660.317,285.791c-0.688,0.886-1.389,1.764-2.11,2.626C658.929,287.554,659.631,286.679,660.317,285.791z"/>
			<path fill="none" d="M664.976,279.099c-0.163,0.266-0.33,0.529-0.496,0.793C664.646,279.627,664.812,279.366,664.976,279.099z"/>
			<path fill="none" d="M671.407,264.697c-0.362,1.271-0.785,2.527-1.244,3.771C670.628,267.224,671.04,265.968,671.407,264.697z"/>
			<path fill="none" d="M667.422,274.724c-0.196,0.386-0.396,0.77-0.6,1.152C667.027,275.494,667.224,275.11,667.422,274.724z"/>
			<path fill="none" d="M669.602,269.934c-0.239,0.595-0.481,1.19-0.74,1.778C669.124,271.124,669.361,270.529,669.602,269.934z"/>
			<path fill="none" d="M452.456,328.849c-0.696-0.928-1.381-1.866-2.04-2.825C451.074,326.986,451.759,327.92,452.456,328.849z"/>
			<path fill="none" d="M465.329,397.911c1.004,1.739,2.009,3.479,3.031,5.207c3.201,5.409,6.326,10.883,9.409,16.384
				c-2.088-3.796-4.201-7.577-6.398-11.304C469.349,404.768,467.348,401.334,465.329,397.911z"/>
			<path fill="none" d="M498.769,416.918c5.126,10.618,10.006,21.312,14.448,32.204c0.091-0.024,0.182-0.05,0.273-0.073
				c-1.482-3.718-3.026-7.419-4.72-11.086C505.521,430.926,502.167,423.911,498.769,416.918z"/>
			<path fill="none" d="M440.826,361.994c0.507,0.714,0.998,1.447,1.508,2.156c4.192,5.82,8.525,11.516,12.687,17.35
				c-0.145-0.211-0.278-0.43-0.425-0.64C450.156,374.463,445.386,368.31,440.826,361.994z"/>
			<path fill="none" d="M522.033,424.855c-0.25-1.983,0.139-5.582-0.741-7.316c-0.594-1.172-3.808-2.225-5.359-2.765
				c-1.931-0.673-3.869-1.469-5.801-2.339c0.122,0.061,0.246,0.128,0.368,0.189c2.109,1.05,2.014,0.863,2.729,2.877
				c0.21,0.592,0.383,1.783,0.463,2.173c0.721,3.505,1.217,7.079,2.324,10.491c1.8,5.55,3.587,11.127,5.532,16.622
				c0.253,0.714,0.492,1.419,0.706,2.123c0.329-0.076,0.659-0.157,0.988-0.232c0.817-0.187,1.63-0.36,2.445-0.541
				c-0.49-2.228-0.924-4.47-1.323-6.704C523.5,434.6,522.65,429.726,522.033,424.855z"/>
			<path fill="none" d="M378.229,182.936c0.055,0.883,0.131,1.765,0.169,2.648c-0.014-0.522-0.017-1.044-0.037-1.567
				C378.349,183.699,378.282,183.309,378.229,182.936z"/>
			<path fill="none" d="M382.034,230.139c0.116,0.739,0.21,1.48,0.338,2.218c2.813,16.395,7.4,33.254,13.855,48.58
				c1.224,2.905,2.448,5.803,3.68,8.697c-7.183-16.901-12.914-34.448-16.677-52.779
				C382.773,234.628,382.402,232.383,382.034,230.139z"/>
			<path fill="none" d="M400.95,292.083c5.175,12.062,10.621,23.954,17.415,35.277c6.112,10.188,12.715,20.595,19.66,30.629
				c-0.622-0.896-1.263-1.776-1.871-2.683C422.654,335.165,410.562,314.18,400.95,292.083z"/>
			<path fill="none" d="M580.321,395.549c1.497-0.511,2.974-1.133,4.417-1.949c4.531-2.561,7.866-6.258,10.097-10.534
				C591.567,388.622,586.379,392.929,580.321,395.549z"/>
			<path fill="none" d="M703.154,190.632c0.084-5.563-0.383-11.312-1.524-16.92c0.805,4.569,1.213,9.134,1.435,13.248
				C703.129,188.167,703.144,189.399,703.154,190.632z"/>
			<path fill="none" d="M671.488,264.411c1.219-4.31,1.832-8.743,1.655-13.201C673.284,255.686,672.683,260.117,671.488,264.411z"/>
			<path fill="none" d="M556.423,412.213c-1.239,4.178-2.233,8.706-2.698,13.269c1.101,5.093,2.274,10.175,3.475,15.28
				c3.991-0.427,8.011-0.752,12.081-0.947c4.604-0.221,9.12-0.173,13.622-0.018c0.243-2.571,1.55-7.606,0.488-9.508
				c-1.348-2.413-4.713-4.219-6.7-6.085c-2.371-2.225-4.174-5.027-5.553-7.96c-1.296-2.758-2.429-5.592-3.674-8.379
				c-0.791-1.769-1.504-3.566-2.138-5.397c-0.479-1.382-0.661-1.979-0.164-2.441c-0.812,0.391-1.604,0.841-2.354,1.422
				C559.364,404.117,557.626,408.152,556.423,412.213z"/>
			<path fill="none" d="M380.582,175.784c-1.114-1.195-1.76-0.964-2.131-0.195C378.988,175.01,379.736,174.854,380.582,175.784z"/>
			<path fill="none" d="M606.699,336.771c1.591-1.379,3.168-2.774,4.675-4.246c1.379-1.345,2.65-2.784,3.901-4.24
				C612.568,331.254,609.748,334.087,606.699,336.771z"/>
			<path fill="none" d="M459.724,337.23c-0.632-0.623-1.24-1.288-1.854-1.943C458.486,335.939,459.088,336.606,459.724,337.23z"/>
			<path fill="none" d="M594.638,349.846c0.163,3.734,1.957,7.663,2.77,11.296c-0.742-3.314-1.859-6.552-2.489-9.891
				c-0.686-3.638,1.174-5.147,3.715-7.472c2.468-2.259,5.043-4.4,7.578-6.585C602.616,340.223,594.436,345.211,594.638,349.846z"/>
			<path fill="none" d="M448.195,220.758c1.439,6.894,4.185,13.416,6.981,19.863c-3.167-7.366-6.042-14.784-7.512-22.714
				C447.835,218.858,447.997,219.811,448.195,220.758z"/>
			<path fill="none" d="M456.074,242.706c0.012,0.026,0.028,0.055,0.039,0.082c-0.11-0.252-0.221-0.504-0.33-0.756
				C455.881,242.255,455.977,242.481,456.074,242.706z"/>
			<path fill="none" d="M438.302,298.772c0.122,0.536,0.304,1.074,0.439,1.611c-0.785-3.349-1.32-6.829-1.518-10.327
				C437.319,293.003,437.659,295.933,438.302,298.772z"/>
			<path fill="none" d="M457.988,247.065c0.035,0.144,0.178,0.381,0.32,0.625c-0.064-0.512-0.357-1.135-0.692-1.746
				C457.769,246.321,457.9,246.696,457.988,247.065z"/>
			<path fill="none" d="M448.978,323.822c-0.53-0.826-1.067-1.647-1.567-2.488C447.909,322.18,448.45,322.994,448.978,323.822z"/>
			<path fill="none" d="M455.968,333.211c-0.73-0.84-1.439-1.705-2.137-2.583C454.53,331.506,455.236,332.371,455.968,333.211z"/>
			<path fill="none" d="M446.802,211.83c0.027,0.303,0.082,0.601,0.114,0.903c-0.068-0.703-0.091-1.404-0.132-2.106
				C446.772,211.07,446.771,211.483,446.802,211.83z"/>
			<path fill="none" d="M384.176,193.294c-0.443-1.781-0.864-3.565-1.237-5.353c-0.141-0.678-0.297-1.355-0.45-2.031
				c0.417,2.06,0.826,4.125,1.345,6.157C383.94,192.48,384.064,192.884,384.176,193.294z"/>
			<path fill="none" d="M424.986,301.148c-5.328-10.181-10.61-20.453-15.354-30.937c4.054,9.33,8.46,18.5,13.36,27.355
				C423.655,298.767,424.321,299.954,424.986,301.148z"/>
			<path fill="none" d="M457.605,249.386c-0.475,0.353-0.975,0.708-1.149,0.864c-1.153,1.038-2.226,2.19-3.245,3.371
				C454.332,252.437,456.468,250.796,457.605,249.386z M454.616,252.061c-0.12,0.13-0.242,0.259-0.365,0.385
				C454.374,252.319,454.495,252.191,454.616,252.061z"/>
			<path fill="none" d="M447.428,216.644c-0.154-0.938-0.266-1.876-0.374-2.814C447.17,214.769,447.275,215.71,447.428,216.644z"/>
			<path fill="none" stroke="#449247" stroke-width="0" stroke-linecap="round" stroke-linejoin="round" d="M454.616,252.061
				c-0.122,0.128-0.243,0.257-0.365,0.385"/>
			<path fill="#449247" d="M594.835,383.066c3.431-6.574,4.231-14.528,2.573-21.923c-0.813-3.633-2.608-7.563-2.77-11.296
				c-0.202-4.636,7.978-9.624,11.575-12.652c0.163-0.141,0.324-0.282,0.487-0.423c3.048-2.684,5.869-5.517,8.576-8.485
				c2.126-2.472,4.175-5.01,6.456-7.34c3.966-4.051,9.006-7.208,13.403-10.778c4.661-3.784,9.351-7.733,13.789-11.938
				c0.376-0.358,0.754-0.716,1.127-1.078c0.617-0.597,1.222-1.206,1.827-1.815c0.683-0.69,1.361-1.383,2.025-2.087
				c0.368-0.388,0.729-0.78,1.091-1.172c0.8-0.871,1.586-1.753,2.355-2.648c0.288-0.335,0.574-0.673,0.858-1.012
				c0.721-0.863,1.422-1.74,2.11-2.626c0.517-0.668,1.036-1.334,1.531-2.016c0.156-0.215,0.316-0.425,0.47-0.642
				c0.746-1.052,1.464-2.138,2.161-3.242c0.166-0.264,0.333-0.526,0.496-0.793c0.645-1.053,1.257-2.13,1.846-3.224
				c0.204-0.382,0.404-0.766,0.6-1.152c0.507-0.99,0.988-1.995,1.441-3.012c0.259-0.588,0.501-1.183,0.74-1.778
				c0.197-0.485,0.377-0.975,0.56-1.466c0.459-1.244,0.883-2.5,1.244-3.771c0.028-0.095,0.054-0.191,0.081-0.286
				c1.195-4.293,1.796-8.724,1.655-13.201c-0.03-0.777-0.057-1.554-0.138-2.332c-0.06-0.653-0.126-1.305-0.219-1.959
				c-0.011-0.075-0.021-0.15-0.032-0.225c-0.214-1.458-0.47-2.912-0.791-4.35c-0.311-0.965-1.114-2.893-0.886-3.457
				c0.276-0.681,4.058-2.087,6.51-3.04c0.991-0.432,1.962-0.888,2.902-1.382c0.616-0.347,1.228-0.701,1.827-1.072
				c0.46-0.283,0.912-0.575,1.359-0.873c0.697-0.465,1.379-0.949,2.049-1.45c0.489-0.369,0.97-0.747,1.443-1.136
				c0.533-0.434,1.054-0.882,1.565-1.342c0.557-0.504,1.1-1.025,1.631-1.558c0.457-0.458,0.907-0.925,1.344-1.408
				c0.398-0.436,0.781-0.889,1.163-1.343c0.668-0.811,1.312-1.634,1.901-2.484c0.14-0.196,0.273-0.398,0.409-0.597
				c5.429-8.16,7.437-17.946,7.919-27.786c0.045-0.917,0.042-1.854,0.057-2.785c-0.01-1.233-0.025-2.465-0.089-3.672
				c-0.221-4.115-0.629-8.679-1.435-13.248c-1.24-6.096-3.244-12.01-6.177-17.265c0.067-0.008,0.133-0.01,0.2-0.019
				c-1.413-2.319-3.08-4.431-5.084-6.208c-1.363-1.209-2.892-2.18-4.529-2.973c-1.085-0.526-3.395-0.79-4.245-1.461
				c-1.455-1.149-1.493-7.558-1.977-9.747c-1.56-7.067-4.534-13.85-9.395-19.254c-9.05-10.062-24.402-17.538-38.035-16.92
				c0.733-10.793-1.156-24.624-8.653-33.041c-7.796-8.752-19.013-12.338-29.868-15.49c-10.769-3.127-23.183-0.404-33.043,4.525
				c-9.756,4.877-16.935,14.491-18.992,25.201c-8.978-4.753-20.519-8.717-30.767-6.551c-10.944,2.313-19.454,10.624-25.147,19.901
				c-3.079,5.016-4.62,10.628-7.183,15.854c-2.395,4.881-3.498,10.226-3.589,15.647c-0.103,6.159,0.732,12.354,1.237,18.482
				c0.136,1.648,0.291,3.298,0.397,4.948c0.156,2.439,0.304,2.792-1.596,4.195c-1.184,0.873-2.322,1.802-3.436,2.762
				c-8.853,7.623-15.867,18.498-20.529,29.146c-3.07,7.013-4.541,14.423-4.533,21.932c0.186,0.913,0.128,2.152,0.1,3.252
				c0.042,0.702,0.064,1.403,0.132,2.106c0.038,0.366,0.093,0.731,0.138,1.096c0.108,0.938,0.22,1.876,0.374,2.814
				c0.069,0.422,0.159,0.841,0.235,1.263c1.47,7.93,4.345,15.348,7.512,22.714c0.203,0.47,0.405,0.942,0.608,1.411
				c0.109,0.252,0.22,0.504,0.33,0.756c0.442,1,1.067,2.086,1.503,3.157c0.335,0.61,0.628,1.233,0.692,1.746
				c0.181,0.311,0.361,0.634,0.318,0.808c-0.035,0.137-0.515,0.512-1.022,0.889c-1.137,1.41-3.273,3.052-4.394,4.235
				c-0.208,0.241-0.43,0.472-0.631,0.716c-4.849,5.858-10.812,11.502-13.111,18.94c-1.652,5.348-2.43,11.101-2.246,16.778
				c0.198,3.499,0.733,6.979,1.518,10.327c1.796,7.129,4.753,14.304,8.669,20.952c0.5,0.841,1.038,1.662,1.567,2.488
				c0.472,0.74,0.944,1.479,1.438,2.202c0.659,0.959,1.344,1.897,2.04,2.825c0.451,0.601,0.909,1.194,1.375,1.779
				c0.698,0.878,1.408,1.743,2.137,2.583c0.62,0.711,1.26,1.394,1.902,2.075c0.614,0.655,1.222,1.32,1.854,1.943
				c1.328,1.303,2.685,2.563,4.094,3.725c-3.083,3.302-4.21,7.946-4.628,12.311c-11.123-14.8-22.532-29.856-31.153-46.296
				c-1.017-1.938-2.035-3.878-3.052-5.821c-0.664-1.194-1.33-2.381-1.994-3.582c-4.899-8.856-9.306-18.025-13.36-27.355
				c-2.042-4.513-3.991-9.064-5.79-13.667c-3.303-8.444-6.427-17.22-9.243-25.97c-2.01-6.122-3.81-12.183-5.355-18.302
				c-0.167-0.641-0.371-1.301-0.531-1.938c-1.434-5.677-3.119-11.343-4.536-17.04c-0.112-0.41-0.237-0.814-0.342-1.227
				c-0.519-2.032-0.928-4.097-1.345-6.157c-0.385-1.708-0.775-3.416-1.082-5.136c-0.192-1.074-0.006-3.285-0.522-4.491
				c-0.093-0.186-0.187-0.371-0.303-0.499c-0.847-0.93-1.594-0.774-2.131-0.195c-0.549,1.135-0.495,3.455-0.425,4.184
				c0.1,1.053,0.136,2.109,0.203,3.163c0.053,0.373,0.12,0.763,0.132,1.082c0.02,0.522,0.024,1.044,0.037,1.567
				c0.289,6.66,0.176,13.342,0.816,19.997c0.789,8.214,1.532,16.407,2.82,24.557c0.368,2.245,0.739,4.489,1.195,6.716
				c3.763,18.331,9.494,35.878,16.677,52.779c0.347,0.817,0.694,1.634,1.043,2.449c9.612,22.097,21.705,43.081,35.203,63.223
				c0.608,0.907,1.249,1.787,1.871,2.683c0.929,1.342,1.861,2.678,2.801,4.004c4.56,6.316,9.331,12.469,13.771,18.865
				c0.147,0.211,0.279,0.429,0.425,0.64c0.374,0.524,0.764,1.034,1.134,1.561c3.355,4.767,6.263,9.808,9.174,14.851
				c2.019,3.422,4.02,6.857,6.041,10.287c2.197,3.727,4.311,7.508,6.398,11.304c4.363,7.789,8.583,15.661,12.626,23.605
				c0.558,1.08,1.11,2.161,1.655,3.247c0.374,0.747,0.768,1.486,1.139,2.234c0.398,0.8,0.745,1.616,1.125,2.421
				c0.5,1.052,0.991,2.108,1.473,3.168c0.037,0.085,0.08,0.168,0.118,0.253c5.66-2.052,11.468-3.784,17.313-5.308
				c-4.441-10.892-9.322-21.586-14.448-32.204c-2.472-5.089-4.96-10.172-7.484-15.218c5.908,3.931,12.486,7.555,18.847,10.735
				c1.932,0.87,3.87,1.666,5.801,2.339c1.551,0.54,4.765,1.593,5.359,2.765c0.88,1.734,0.49,5.333,0.741,7.316
				c0.617,4.871,1.466,9.745,2.331,14.579c0.399,2.234,0.833,4.475,1.323,6.704c4.008-0.892,8.001-1.716,11.991-2.461
				c-2.516-10.388-4.715-20.629-6.259-31.293c-1.864-12.869-2.588-25.582-3.288-38.544c-0.693-12.821-2.097-25.64-3.017-38.45
				c-0.918-12.778-1.536-25.432-1.464-38.246c0.073-12.876,1.588-25.499,3.602-38.206c1.871-11.8,4.053-23.768,7.338-35.26
				c3.519-12.312,8.142-24.521,12.837-36.43c8.951-22.71,23.482-42.34,37.134-62.336c1.778-2.605,3.396-5.731,5.462-8.098
				c1.32-1.513,3.756-1.697,3.295,0.975c-0.281,1.629-2.016,3.316-2.787,4.803c-0.582,1.125-1.042,2.31-1.596,3.448
				c-1.311,2.691-2.855,5.271-4.297,7.894c-2.906,5.281-5.202,10.785-7.688,16.267c-2.597,5.729-5.613,11.323-7.905,17.184
				c-2.16,5.549-3.275,11.438-5.05,17.115c-7.483,23.948-9.741,49.281-13.225,73.998c-1.728,12.258-3.93,24.369-4.975,36.717
				c-1.092,12.891-1.632,25.604-1.403,38.545c0.449,25.295,2.343,50.82,6.288,75.803c0.85,5.385,1.908,10.663,3.044,15.918
				c0.465-4.563,1.459-9.092,2.698-13.269c1.204-4.061,2.942-8.096,6.386-10.764c0.75-0.581,1.542-1.031,2.354-1.422
				c0.285-0.265,0.79-0.487,1.602-0.785c4.491-1.649,9.113-2.178,13.556-3.694C586.379,392.929,591.567,388.622,594.835,383.066z
				 M623.924,361.8c-0.511,0.773-0.915,1.385-0.318,0.486c0.137-0.208,0.275-0.415,0.412-0.623
				C623.987,361.709,623.954,361.754,623.924,361.8z M835.58,208.879c-0.006-0.003-0.021-0.001-0.026-0.004
				c-3.572,0.075-6.457,2.194-10.107,2.201c-7.414,1.53-14.394,4.004-21.492,6.409c-2.309,0.784-4.625,1.549-6.938,2.321
				c-1.163,0.382-2.321,0.778-3.478,1.176c-1.484,0.51-2.965,1.029-4.437,1.575c-12.771,4.738-25.262,9.989-37.436,16.089
				c-11.062,5.713-21.641,12.222-31.831,19.423c-10.44,7.565-20.341,15.881-29.769,24.715c-9.071,8.881-17.534,18.363-25.807,28.102
				c-6.779,7.979-14.188,15.227-20.368,23.735c-6.731,9.268-13.937,18.116-20.287,27.666c-2.105,3.161-4.144,6.362-6.137,9.59
				c-0.143,0.233-0.295,0.461-0.438,0.694c-0.761,1.24-1.471,2.508-2.216,3.757c-10.401,17.608-19.08,36.059-26.37,55.396
				c-0.941,2.496-1.823,5.022-2.702,7.548c-0.068,0.2-0.128,0.402-0.196,0.602c5.768,0.27,11.523,0.747,17.392,1.288
				c3.178,0.293,6.315,0.675,9.432,1.121c1.306-3.993,2.691-7.967,4.152-11.926c4.594-12.677,9.876-25.088,16.135-37.042
				c1.094-2.122,2.238-4.216,3.389-6.307c0.151-0.269,0.285-0.545,0.437-0.813c0.01-0.017,0.021-0.033,0.03-0.05
				c4.798-8.629,10.088-16.973,16.036-24.856c6.86-9.09,13.88-18.38,21.651-26.713c7.219-7.741,13.802-15.923,20.82-23.839
				c14.773-16.664,31.438-31.918,49.369-45.109c14.386-10.582,29.05-21.055,44.088-30.791c10.45-6.874,21.363-13.854,32.685-19.062
				c2.846-1.309,5.763-2.488,8.669-3.656c1.433-0.576,2.9-0.992,4.355-1.495c0.132-0.045,1.518-0.738,2.012-1.241
				C836.106,209.232,835.937,209.069,835.58,208.879z"/>
			<path fill="#66CC66" d="M494.313,451.01c-0.38-0.805-0.728-1.621-1.125-2.421c-0.371-0.748-0.764-1.488-1.139-2.234
				c-0.544-1.085-1.103-2.165-1.655-3.247c-4.043-7.944-8.263-15.816-12.626-23.605c-3.082-5.501-6.208-10.974-9.409-16.384
				c-1.022-1.729-2.027-3.468-3.031-5.207c-2.911-5.043-5.819-10.085-9.174-14.851c-0.371-0.526-0.761-1.037-1.134-1.561
				c-4.163-5.834-8.495-11.53-12.687-17.35c-0.51-0.708-1.001-1.442-1.508-2.156c-0.941-1.326-1.872-2.663-2.801-4.004
				c-6.945-10.033-13.548-20.441-19.66-30.629c-6.793-11.323-12.239-23.215-17.415-35.277c-0.349-0.815-0.696-1.633-1.043-2.449
				c-1.232-2.893-2.456-5.792-3.68-8.697c-6.455-15.326-11.042-32.185-13.855-48.58c-0.127-0.738-0.221-1.479-0.338-2.218
				c-1.288-8.15-2.031-16.342-2.82-24.557c-0.64-6.655-0.526-13.338-0.816-19.997c-0.038-0.884-0.114-1.765-0.169-2.648
				c-0.067-1.054-0.103-2.111-0.203-3.163c-0.069-0.73-0.123-3.049,0.425-4.184c0.371-0.769,1.017-1,2.131,0.195
				c0.123,0.132,0.221,0.305,0.303,0.499c0.517,1.206,0.331,3.417,0.522,4.491c0.306,1.72,0.697,3.428,1.082,5.136
				c0.152,0.677,0.309,1.354,0.45,2.031c0.374,1.788,0.795,3.572,1.237,5.353c1.417,5.696,3.102,11.363,4.536,17.04
				c0.16,0.637,0.365,1.297,0.531,1.938c1.561,6.004,3.371,12.138,5.355,18.302c2.815,8.751,5.94,17.526,9.243,25.97
				c1.8,4.603,3.748,9.153,5.79,13.667c4.744,10.484,10.026,20.756,15.354,30.937c1.017,1.943,2.035,3.884,3.052,5.821
				c8.622,16.44,20.03,31.496,31.153,46.296c0.418-4.37,1.541-9.005,4.628-12.311c-1.409-1.162-2.766-2.422-4.094-3.725
				c-0.636-0.624-1.238-1.29-1.854-1.943c-0.643-0.681-1.282-1.365-1.902-2.075c-0.733-0.84-1.438-1.705-2.137-2.583
				c-0.466-0.586-0.924-1.178-1.375-1.779c-0.697-0.929-1.381-1.862-2.04-2.825c-0.494-0.723-0.966-1.462-1.438-2.202
				c-0.528-0.828-1.069-1.642-1.567-2.488c-3.916-6.648-6.874-13.823-8.669-20.952c-0.135-0.537-0.317-1.075-0.439-1.611
				c-0.643-2.839-0.984-5.768-1.079-8.717c-0.184-5.678,0.594-11.431,2.246-16.778c2.299-7.438,8.262-13.082,13.111-18.94
				c0.201-0.243,0.423-0.475,0.631-0.716c1.019-1.18,2.092-2.332,3.245-3.371c0.174-0.156,0.674-0.511,1.149-0.864
				c0.507-0.376,0.987-0.751,1.022-0.889c0.043-0.173-0.137-0.496-0.318-0.808c-0.142-0.243-0.286-0.481-0.32-0.625
				c-0.088-0.368-0.219-0.743-0.371-1.121c-0.436-1.071-1.061-2.157-1.503-3.157c-0.012-0.027-0.028-0.055-0.039-0.082
				c-0.097-0.224-0.193-0.45-0.291-0.674c-0.203-0.469-0.405-0.941-0.608-1.411c-2.796-6.447-5.541-12.968-6.981-19.863
				c-0.197-0.946-0.36-1.9-0.531-2.851c-0.076-0.421-0.166-0.84-0.235-1.263c-0.154-0.934-0.259-1.875-0.374-2.814
				c-0.046-0.366-0.1-0.73-0.138-1.096c-0.032-0.302-0.087-0.601-0.114-0.903c-0.03-0.347-0.029-0.761-0.018-1.203
				c0.028-1.1,0.086-2.339-0.1-3.252c-0.035-0.169-0.046-0.368-0.102-0.508c-0.434-1.098,0.37-0.577-0.689-1.225
				c-0.911-0.558-3.138-0.291-4.191-0.338c-1.503-0.067-3.01-0.095-4.513-0.017c-2.734,0.141-2.759,0.586-3.214-2.128
				c-0.622-3.716-1.504-7.366-2.445-11.011c-10.513-40.735-65.189-75.957-81.958-18.649c-0.314,1.073,0.039,1.315-0.766,1.759
				c-0.484,0.267-2.226-0.243-2.777-0.273c-21.516-1.191-38.859,19.486-40.114,40.22c-1.188,19.645,8.54,35.755,20.05,50.636
				c5.688,7.353,12.116,14.417,20.264,19.081c-27.525,17.513,9.61,60.414,25.575,72.916c1.211,0.948,2.453,1.842,3.778,2.624
				c1.957,1.155,2.443,0.889,1.641,3.093c-1.176,3.238-1.778,6.537-1.711,9.98c0.224,11.542,6.323,19.937,15.548,26.78
				c2.236,1.659,36.749,21.502,38.667,16.968c-4.04,9.549,4.913,17.954,13.162,20.664c9.02,2.963,19.177,4.556,28.66,4.772
				c2.481,0.057,5.021-0.037,7.471-0.457c1.883-0.323,2.999-1.185,4.216-0.269c1.005,0.756,1.978,3.613,2.471,4.703
				c1.108,2.448,1.915,5.047,3.005,7.511c0.378,0.854,0.782,1.702,1.195,2.549c1.976-0.821,3.975-1.593,5.994-2.325
				c-0.038-0.085-0.08-0.168-0.118-0.253C495.314,453.116,494.811,452.064,494.313,451.01z M516.017,428.166
				c-1.107-3.412-1.603-6.986-2.324-10.491c-0.08-0.39-0.253-1.582-0.463-2.173c-0.715-2.015-0.62-1.828-2.729-2.877
				c-0.122-0.061-0.246-0.128-0.368-0.189c-6.361-3.179-12.939-6.804-18.847-10.735c2.523,5.045,5.011,10.128,7.484,15.218
				c3.398,6.993,6.751,14.008,10.001,21.044c1.694,3.667,3.238,7.368,4.72,11.086c2.918-0.758,5.844-1.463,8.764-2.138
				c-0.214-0.704-0.453-1.409-0.706-2.123C519.604,439.293,517.817,433.716,516.017,428.166z M550.77,258.499
				c3.484-24.718,5.742-50.051,13.225-73.998c1.774-5.677,2.889-11.565,5.05-17.115c2.292-5.86,5.307-11.455,7.905-17.184
				c2.485-5.482,4.782-10.986,7.688-16.267c1.442-2.622,2.986-5.202,4.297-7.894c0.554-1.138,1.013-2.324,1.596-3.448
				c0.771-1.487,2.506-3.174,2.787-4.803c0.461-2.672-1.975-2.488-3.295-0.975c-2.065,2.367-3.683,5.493-5.462,8.098
				c-13.652,19.996-28.183,39.626-37.134,62.336c-4.695,11.909-9.318,24.118-12.837,36.43c-3.284,11.492-5.467,23.46-7.338,35.26
				c-2.014,12.706-3.53,25.33-3.602,38.206c-0.072,12.814,0.546,25.468,1.464,38.246c0.921,12.811,2.324,25.63,3.017,38.45
				c0.701,12.961,1.424,25.674,3.288,38.544c1.545,10.664,3.743,20.905,6.259,31.293c6.479-1.21,12.96-2.212,19.522-2.915
				c-1.201-5.105-2.375-10.187-3.475-15.28c-1.136-5.255-2.194-10.533-3.044-15.918c-3.945-24.983-5.839-50.508-6.288-75.803
				c-0.23-12.941,0.311-25.654,1.403-38.545C546.84,282.868,549.042,270.757,550.77,258.499z M893.896,225.44
				c-0.91-9.73-7.893-20.029-16.634-24.634c-1.308-0.689-5.222-1.294-6.047-2.583c-0.825-1.291-0.306-4.75-0.504-6.338
				c-0.64-5.167-1.868-10.03-4.036-14.777c-3.999-8.759-14.601-15.479-23.847-17.293c-10.27-2.016-23.176,0.487-32.209,5.731
				c-4.45-9.646-14.672-17.475-24.526-20.921c-11.184-3.911-21.515-2.1-32.329,1.991c-5.185,1.962-9.856,4.49-14.129,8.05
				c-1.992,1.66-3.832,3.478-5.534,5.435c-0.422,0.485-1.758,2.824-2.422,2.98c-0.526,0.125-2.93-1.485-3.673-1.812
				c-10.344-4.56-21.117-6.233-32.352-4.841c-0.067,0.008-0.133,0.01-0.2,0.019c2.933,5.255,4.937,11.169,6.177,17.265
				c1.141,5.608,1.608,11.357,1.524,16.92c-0.015,0.93-0.012,1.867-0.057,2.785c-0.482,9.84-2.489,19.626-7.919,27.786
				c-0.133,0.2-0.271,0.398-0.409,0.597c-0.589,0.85-1.233,1.673-1.901,2.484c-0.17,0.206-0.308,0.427-0.482,0.63
				c-0.216,0.251-0.459,0.468-0.681,0.713c-0.437,0.483-0.887,0.949-1.344,1.408c-0.531,0.534-1.073,1.056-1.631,1.558
				c-0.511,0.46-1.032,0.908-1.565,1.342c-0.474,0.387-0.953,0.769-1.443,1.136c-0.67,0.501-1.352,0.985-2.049,1.45
				c-0.447,0.298-0.901,0.589-1.359,0.873c-0.598,0.371-1.211,0.725-1.827,1.072c-0.342,0.192-0.665,0.408-1.013,0.594
				c-0.318,0.17-1.024,0.452-1.89,0.788c-2.451,0.952-6.234,2.359-6.51,3.04c-0.228,0.563,0.575,2.492,0.886,3.457
				c0.044,0.138,0.079,0.256,0.098,0.348c0.287,1.32,0.502,2.66,0.693,4.002c0.01,0.075,0.021,0.15,0.032,0.225
				c0.057,0.415,0.125,0.83,0.176,1.245c0.03,0.238,0.018,0.476,0.043,0.714c0.081,0.777,0.108,1.555,0.138,2.332
				c0.178,4.458-0.436,8.891-1.655,13.201c-0.027,0.095-0.053,0.191-0.081,0.286c-0.367,1.271-0.78,2.527-1.244,3.771
				c-0.183,0.49-0.363,0.98-0.56,1.466c-0.241,0.596-0.479,1.19-0.74,1.778c-0.452,1.017-0.934,2.022-1.441,3.012
				c-0.198,0.386-0.395,0.77-0.6,1.152c-0.589,1.093-1.201,2.171-1.846,3.224c-0.163,0.267-0.33,0.528-0.496,0.793
				c-0.697,1.104-1.415,2.19-2.161,3.242c-0.044,0.061-0.082,0.127-0.126,0.188c-0.11,0.154-0.233,0.3-0.344,0.453
				c-0.495,0.682-1.014,1.348-1.531,2.016c-0.686,0.887-1.388,1.763-2.11,2.626c-0.284,0.339-0.569,0.677-0.858,1.012
				c-0.769,0.895-1.554,1.778-2.355,2.648c-0.362,0.393-0.723,0.785-1.091,1.172c-0.667,0.703-1.341,1.399-2.025,2.087
				c-0.605,0.609-1.21,1.217-1.827,1.815c-0.374,0.362-0.749,0.72-1.127,1.078c-4.438,4.205-9.128,8.154-13.789,11.938
				c-4.397,3.57-9.438,6.727-13.403,10.778c-2.281,2.33-4.33,4.868-6.456,7.34c-1.251,1.456-2.522,2.894-3.901,4.24
				c-1.507,1.472-3.084,2.867-4.675,4.246c-0.163,0.141-0.324,0.283-0.487,0.423c-2.536,2.184-5.11,4.325-7.578,6.585
				c-2.541,2.326-4.401,3.835-3.715,7.472c0.629,3.339,1.747,6.577,2.489,9.891c1.657,7.395,0.858,15.349-2.573,21.923
				c-2.231,4.275-5.566,7.972-10.097,10.534c-1.444,0.816-2.92,1.438-4.417,1.949c-4.443,1.516-9.065,2.045-13.556,3.694
				c-0.812,0.298-1.317,0.519-1.602,0.785c-0.497,0.462-0.315,1.059,0.164,2.441c0.634,1.831,1.347,3.628,2.138,5.397
				c1.245,2.788,2.378,5.622,3.674,8.379c1.379,2.933,3.183,5.735,5.553,7.96c1.987,1.866,5.352,3.671,6.7,6.085
				c1.063,1.902-0.245,6.937-0.488,9.508c0.881,0.03,1.765,0.036,2.644,0.077c0.068-0.2,0.128-0.403,0.196-0.602
				c7.444-21.969,17.21-43.046,29.071-62.945c0.744-1.249,1.455-2.517,2.216-3.757c0.143-0.233,0.295-0.461,0.438-0.694
				c1.993-3.228,4.032-6.428,6.137-9.59c-0.597,0.898-0.193,0.287,0.318-0.486c0.466-0.704,1.02-1.541,0.994-1.502
				c-0.301,0.455-0.6,0.91-0.901,1.365c-0.137,0.208-0.275,0.415-0.412,0.623c6.349-9.55,13.556-18.398,20.287-27.666
				c6.179-8.508,13.589-15.756,20.368-23.735c8.273-9.738,16.735-19.22,25.807-28.102c6.438-6.303,13.173-12.313,20.407-17.857
				c3.08-2.36,6.209-4.631,9.362-6.858c10.19-7.2,20.769-13.709,31.831-19.423c5.196-2.684,10.491-5.207,15.907-7.537
				c8.529-3.67,17.179-7.105,25.966-10.127c1.157-0.398,2.315-0.794,3.478-1.176c0.599-0.197,1.193-0.414,1.794-0.607
				c1.73-0.555,3.437-1.136,5.144-1.714c7.098-2.405,14.078-4.879,21.492-6.409c0.026-0.005,0.05-0.013,0.075-0.018
				c1.325-0.272,8.746-2.807,10.031-2.183c0.006,0.003,0.021,0.001,0.026,0.004c0.358,0.19,0.526,0.353,0.621,0.504
				c0.421,0.67-1.32,1.001-2.012,1.241c-2.929,1.016-5.793,2.077-8.662,3.268c-9.233,3.83-18.242,9.167-26.763,14.398
				c-3.457,2.122-6.869,4.337-10.284,6.547c-15.038,9.737-29.702,20.21-44.088,30.791c-17.931,13.19-34.596,28.444-49.369,45.109
				c-7.017,7.915-13.601,16.098-20.82,23.839c-7.771,8.333-14.792,17.624-21.651,26.713c-5.948,7.882-11.238,16.227-16.036,24.856
				c-0.159,0.286-0.309,0.577-0.468,0.864c-1.151,2.09-2.295,4.184-3.389,6.307c-5.581,10.831-10.441,22.047-14.792,33.372
				c-0.468,1.22-0.892,2.447-1.343,3.67c-1.461,3.959-2.846,7.933-4.152,11.926c2.118,0.303,4.226,0.632,6.322,1.008
				c0.688-2.187,1.354-4.381,2.101-6.549c1.104-3.21,1.84-7.254,3.485-10.209c0.993-1.784,0.718-1.264,2.834-1.381
				c1.628-0.09,3.252-0.314,4.855-0.598c3.128-0.555,6.169-1.431,9.2-2.37c5.689-1.762,11.738-2.907,17.289-5.069
				c3.095-1.206,6.055-2.874,8.65-4.948c2.218-1.772,4.103-5.012,6.567-6.352c2.353-1.279,6.053-0.196,8.545,0.092
				c2.456,0.284,4.908,0.493,7.381,0.567c6.512,0.194,12.918-0.453,19.244-2.052c12.292-3.107,18.591-11.845,23.243-22.994
				c0.88-2.109,1.637-4.261,2.489-6.379c0.623-1.55,0.915-2.433,2.362-3.225c1.465-0.802,3.575-0.877,5.211-1.185
				c4.87-0.916,9.862-1.552,14.617-2.97c12.369-3.688,21.402-12.237,25.321-24.522c0.761-2.383,1.36-4.809,2.078-7.203
				c0.221-0.735,0.974-4.128,1.742-4.589c0.629-0.378,1.691,0.11,2.478,0.228c6.965,1.04,15.93,0.826,22.553-1.861
				c14.541-5.9,24.337-19.457,26.261-34.807c8.126,2.899,16.519,0.272,23.226-4.617c3.44-2.507,6.401-5.357,8.865-8.835
				c2.66-3.756,3.555-7.328,5.188-11.456c1.099-2.779,5.776-5.166,8.205-7.354c3.211-2.892,5.71-6.192,7.483-10.147
				C893.815,244.365,894.728,234.223,893.896,225.44z"/>
			<path fill="#FFA11C" d="M727.039,530.511c-2.658-13.557-7.757-26.91-15.963-38.131c-8.097-11.07-19.246-17.766-30.74-24.725
				c-11.395-6.898-22.379-12.994-35.006-17.39c-8.816-3.069-17.633-5.361-26.637-6.975c-2.095-0.376-4.204-0.705-6.322-1.008
				c-3.116-0.445-6.254-0.827-9.432-1.121c-5.869-0.541-11.624-1.019-17.392-1.288c-0.879-0.041-1.764-0.047-2.644-0.077
				c-4.502-0.155-9.018-0.203-13.622,0.018c-4.071,0.196-8.09,0.52-12.082,0.947c-6.562,0.702-13.043,1.705-19.522,2.915
				c-3.99,0.745-7.982,1.569-11.991,2.461c-0.815,0.181-1.628,0.355-2.445,0.541c-0.329,0.075-0.659,0.156-0.988,0.232
				c-2.92,0.674-5.846,1.38-8.764,2.138c-0.091,0.024-0.182,0.05-0.273,0.073c-5.845,1.524-11.653,3.256-17.313,5.308
				c-2.02,0.732-4.019,1.504-5.994,2.325c-13.282,5.52-25.45,13.167-34.851,24.692c-2.086,2.558-4.063,5.269-5.337,8.336
				c-0.717,1.727-0.997,3.373-1.294,5.195c-0.324,1.979-1.172,3.379-2.098,5.232c-3.193,6.392-5.913,13.189-7.532,20.156
				c-2.328,10.016-3.55,20.202-4.99,30.367c-3.947,27.864-2.394,56.622-2.383,84.685c0.008,22.153,1.119,44.249,3.192,66.311
				c0.017,0.183,0.028,0.366,0.046,0.549c1.176,12.428,2.283,24.857,3.443,37.282c1.139,12.218,2.329,24.431,3.688,36.632
				c0.85,7.633,1.696,15.267,2.712,22.88c-0.04-0.368-0.077-0.737-0.119-1.105c0.957,8.246,2.119,16.473,3.397,24.688
				c2.002,12.869,4.311,25.703,6.703,38.509c1.536,8.226,3.099,16.442,4.632,24.648c2.615,14.004,5.493,28.2,9.176,41.968
				c3.913,14.629,9.335,28.669,14.971,42.703c9.623,23.96,19.935,47.301,29.214,71.595c2.647,6.932,5.994,13.499,8.993,20.276
				c1.073,2.424,2.124,4.863,3.181,7.298c1.945,4.479,3.928,8.942,6.21,13.255c1.173,2.217,2.428,4.435,3.681,6.652
				c5.423,9.593,11.485,19.126,17.652,28.059c7.435,10.77,16.666,21.889,28.494,27.932c6.027,3.079,12.736,5.224,19.546,4.183
				c5.931-0.907,11.011-4.67,15.22-8.84c9.245-9.162,17.33-21.12,23.576-32.499c2.181-3.973,4.249-8.017,6.252-12.095
				c3.268-6.653,6.295-13.43,9.008-20.325c1.314-3.341,2.575-6.701,3.742-10.091c4.87-14.151,9.038-28.482,13.016-42.903
				c4.08-14.79,9.462-29.288,14.503-43.776c5.056-14.528,10.5-29.166,13.58-44.286c3.024-14.84,6.014-29.563,8.073-44.589
				c1.066-7.782,1.33-15.664,2.386-23.438c1.015-7.478,2.802-14.897,4.121-22.328c2.498-14.076,4.635-28.25,6.47-42.427
				c3.397-26.241,5.938-53.903,8.307-80.769c0.452-5.12,0.935-10.237,1.417-15.354l1.749-23.257
				c0.963-16.08,1.292-32.084,1.404-48.133c0.044-6.38,0.064-12.766,0.062-19.169C733.109,586.904,732.55,558.625,727.039,530.511z"
				/>
		</g>
		<g>
			<path fill="none" d="M606.149,705.159c6.385,3.723,13.62,5.61,20.87,5.659c-7.367-0.088-14.609-2.144-20.955-5.831
				c-0.032,0.017-0.062,0.036-0.094,0.054C606.03,705.077,606.089,705.124,606.149,705.159z"/>
			<path fill="none" d="M649.179,704.598c0.787-0.488,1.567-0.981,2.32-1.521C650.753,703.618,649.964,704.106,649.179,704.598z"/>
			<path fill="none" d="M647.564,705.567c-0.867,0.489-1.745,0.963-2.653,1.39c0.577-0.268,1.154-0.534,1.721-0.83
				C646.954,705.958,647.248,705.744,647.564,705.567z"/>
			<path fill="none" d="M635.369,666.891c-11.738,4.787-19.355-13.474-7.471-18.317
				C639.796,643.719,647.098,662.108,635.369,666.891z"/>
			<path fill="none" d="M507.15,709.105c1.576,0.423,3.171,0.749,4.785,0.987C510.328,709.866,508.734,709.521,507.15,709.105z"/>
			<path fill="none" d="M627.398,710.816c0.861-0.002,1.721-0.03,2.581-0.084C629.118,710.783,628.257,710.818,627.398,710.816z"/>
			<path fill="none" d="M631.073,710.657c0.661-0.059,1.32-0.142,1.979-0.232C632.392,710.514,631.733,710.601,631.073,710.657z"/>
			<path fill="none" d="M635.301,710.055c0.547-0.105,1.094-0.208,1.636-0.335C636.393,709.847,635.847,709.95,635.301,710.055z"/>
			<path fill="none" d="M641.328,708.426c1.098-0.389,2.183-0.825,3.252-1.31C643.524,707.6,642.435,708.03,641.328,708.426z"/>
			<path fill="none" d="M538.526,705.17c1.783-1.012,3.491-2.159,5.106-3.423c0.14-0.11,0.288-0.261,0.433-0.393
				c-8.982,7.148-20.598,10.282-31.848,8.785c2.075,0.291,4.164,0.481,6.264,0.454C525.48,710.503,532.438,708.629,538.526,705.17z"
				/>
			<path fill="none" d="M638.461,709.32c0.545-0.15,1.087-0.311,1.626-0.484C639.547,709.01,639.005,709.17,638.461,709.32z"/>
			<path fill="none" stroke="#FF7E1D" stroke-width="0" stroke-linecap="round" stroke-linejoin="round" d="M703.876,920.817
				c-0.066,0.363-0.132,0.725-0.199,1.088"/>
			<path fill="none" stroke="#FF7E1D" stroke-width="0" stroke-linecap="round" stroke-linejoin="round" d="M691.661,896.322
				c-0.08,0.436-0.16,0.872-0.239,1.308"/>
			<path fill="none" stroke="#FF7E1D" stroke-width="0" stroke-linecap="round" stroke-linejoin="round" d="M683.394,942.619
				c0.225-0.031,0.45-0.061,0.676-0.092"/>
			<path fill="#FFB3B3" d="M544.064,701.354c-0.145,0.132-0.293,0.283-0.433,0.393c-1.614,1.263-3.323,2.41-5.106,3.423
				c-6.088,3.458-13.046,5.332-20.045,5.423c-2.1,0.027-4.189-0.163-6.264-0.454c-0.094-0.012-0.187-0.035-0.281-0.048
				c-1.614-0.237-3.209-0.563-4.785-0.987c-0.919-0.242-1.832-0.512-2.738-0.818c-0.47-0.162-0.938-0.322-1.403-0.5
				c-1.37-0.52-2.727-1.09-4.051-1.765c-1.264-0.644-2.469-1.37-3.647-2.131c-0.399-0.256-0.788-0.523-1.178-0.792
				c-0.77-0.536-1.516-1.099-2.243-1.683c-0.334-0.265-0.697-0.492-1.023-0.767c-1.702-1.438-1.824-1.721-3.914-0.737
				c-1.859,0.876-3.637,1.941-5.402,2.988c-5.432,3.221-10.44,7.737-10.651,14.529c-0.197,6.34,5.9,9.923,11.206,11.761
				c12.927,4.476,29.042,2.827,42.24,0.529c5.732-0.998,14.471-2.712,21.128-6.211c6.979-3.668,11.669-9.297,8.178-18.141
				c-0.104-0.269-0.208-0.538-0.312-0.807c0.036,0.127,0.072,0.253,0.108,0.38c-0.546-1.582-1.265-3.117-2.317-4.432
				c-0.436-0.545-1.283-1.589-1.96-1.979c-2.126-1.225-0.389-0.716-1.887,0.007c-0.033,0.016-0.067,0.05-0.1,0.068
				C546.184,699.577,545.144,700.495,544.064,701.354z"/>
			<path fill="#FFB3B3" d="M649.179,704.598c-0.532,0.333-1.065,0.66-1.615,0.969c-0.317,0.177-0.611,0.392-0.932,0.56
				c-0.566,0.296-1.144,0.562-1.721,0.83c-0.111,0.052-0.22,0.108-0.331,0.16c-1.069,0.485-2.153,0.921-3.252,1.31
				c-0.136,0.048-0.261,0.113-0.396,0.159c-0.279,0.096-0.564,0.161-0.844,0.251c-0.54,0.172-1.081,0.334-1.626,0.484
				c-0.508,0.14-1.014,0.279-1.525,0.399c-0.542,0.127-1.089,0.23-1.636,0.335c-0.749,0.143-1.498,0.27-2.249,0.371
				c-0.659,0.09-1.318,0.173-1.979,0.232c-0.365,0.031-0.729,0.053-1.094,0.075c-0.86,0.054-1.72,0.082-2.581,0.084
				c-0.127,0-0.253,0.004-0.379,0.002c-7.25-0.049-14.485-1.936-20.87-5.659c-0.06-0.035-0.119-0.082-0.179-0.119
				c-0.395-0.243-0.789-0.516-1.18-0.807c-0.789-0.495-1.553-1.028-2.309-1.575c-0.177-0.1-0.353-0.216-0.533-0.297
				c-1.812-0.814-0.594-0.713-2.178,0.002c-0.721,0.327-1.619,1.213-2.224,1.782c-2.556,2.4-4.417,5.565-4.963,9.049
				c-1.004,6.404,3.748,10.414,9.25,12.682c12.554,5.176,28.808,3.691,41.877,1.581c4.758-0.768,11.316-1.807,17.301-3.836
				c8.99-3.048,16.672-8.351,14.908-18.504c-0.188-1.105-0.686-2.135-1.071-3.179c0.036,0.127,0.072,0.253,0.108,0.38
				c-1.07-3.121-2.972-5.526-5.59-7.508c-1.122-0.85-2.301-1.548-3.608-2.08c-0.475-0.193-1.595-0.708-2.183-0.723
				c-1.831-0.047-1.382,0.078-2.538,1.664c-2.581,3.543-5.747,6.633-9.288,9.211c-0.085,0.063-0.165,0.132-0.252,0.194
				C650.746,703.617,649.966,704.11,649.179,704.598z"/>
			<path fill="#FFFFFF" d="M635.369,666.891c11.728-4.783,4.426-23.172-7.471-18.317
				C616.015,653.417,623.631,671.678,635.369,666.891z"/>
			<path fill="#FFFFFF" d="M507.97,665.841c2.132,2.044,5.225,3.021,8.79,1.566c10.36-4.228,3.82-20.323-6.562-16.087
				c-0.894,0.365-1.619,0.842-2.27,1.362C503.627,656.121,504.439,662.456,507.97,665.841z"/>
			<path fill="#FFFFFF" d="M506.624,628.274c-15.792,4.412-27.804,18.06-30.207,34.277c-2.196,14.824,4.024,29.685,15.472,38.863
				c0.728,0.584,1.473,1.147,2.243,1.683c0.388,0.27,0.78,0.535,1.178,0.792c1.177,0.761,2.383,1.487,3.647,2.131
				c1.325,0.675,2.682,1.245,4.051,1.765c0.466,0.177,0.934,0.341,1.403,0.5c0.906,0.307,1.819,0.577,2.738,0.818
				c1.583,0.416,3.178,0.762,4.785,0.987c0.094,0.013,0.187,0.036,0.281,0.048c11.25,1.497,22.866-1.637,31.848-8.785
				c1.08-0.859,2.119-1.778,3.118-2.752c0.753-0.735,1.489-1.492,2.191-2.291c12.12-13.818,13.835-34.469,4.01-50.036
				c-2.418-3.83-5.423-7.164-8.84-9.944C534.14,627.866,519.899,624.564,506.624,628.274z M525.11,697.71
				c-5.666,1.584-11.101,1.29-15.954-0.337c-16.444-5.512-26.123-26.479-14.776-42.858c3.593-5.186,8.352-8.541,13.52-10.3
				c16.114-5.483,36.246,4.675,37.726,24.258C546.625,681.692,537.866,694.143,525.11,697.71z"/>
			<path fill="#FFFFFF" d="M592.64,645.241c-9.444,13.794-9.759,32.403-0.641,46.455c2.822,4.348,6.413,8.015,10.482,10.962
				c0.756,0.547,1.52,1.08,2.309,1.575c0.418,0.263,0.847,0.505,1.274,0.753c6.346,3.688,13.587,5.743,20.955,5.831
				c0.126,0.001,0.252-0.003,0.379-0.002c0.859,0.003,1.72-0.033,2.581-0.084c0.365-0.022,0.729-0.044,1.094-0.075
				c0.661-0.057,1.32-0.143,1.979-0.232c0.752-0.101,1.5-0.227,2.249-0.371c0.546-0.105,1.092-0.208,1.636-0.335
				c0.51-0.12,1.017-0.259,1.525-0.399c0.544-0.15,1.086-0.31,1.626-0.484c0.28-0.09,0.565-0.154,0.844-0.251
				c0.136-0.047,0.261-0.111,0.396-0.159c1.107-0.396,2.196-0.826,3.252-1.31c0.111-0.051,0.22-0.107,0.331-0.16
				c0.909-0.427,1.786-0.901,2.653-1.39c0.549-0.309,1.083-0.636,1.615-0.969c0.785-0.492,1.574-0.98,2.32-1.521
				c0.086-0.062,0.167-0.131,0.252-0.194c13.71-10.091,20.61-28.224,15.86-45.217c-3.89-13.92-14.969-24.906-28.685-28.948
				c-1.487-0.438-2.996-0.819-4.54-1.089C618.393,624.839,601.805,631.855,592.64,645.241z M655.595,667.691
				c0.999,13.219-7.76,25.671-20.516,29.238c-8.156,2.281-15.839,0.684-21.977-3.219c-4.904-3.119-8.819-7.707-11.18-13.006
				c-3.692-8.286-3.598-18.276,2.426-26.97C619.142,632.382,653.64,641.825,655.595,667.691z"/>
		</g>
	</g>
	<g>
		<path fill="none" d="M510.198,651.32c-10.366,4.228-3.81,20.317,6.562,16.087C527.138,663.168,520.56,647.094,510.198,651.32z"/>
		<path fill="none" d="M454.537,860.424c0.044,0.24,0.089,0.481,0.133,0.721c0.252-0.033,0.486-0.087,0.735-0.123
			C455.1,860.99,454.845,860.846,454.537,860.424z"/>
		<path fill="none" d="M635.369,666.891c11.9-4.849,4.257-23.1-7.471-18.317C616.158,653.361,623.489,671.739,635.369,666.891z"/>
		<path fill="#FF7E1D" d="M682.991,755.061c-1.341,3.842-3.197,10.473-2.175,14.521c1.017,4.026,7.477,4.099,7.582-0.434
			c0.064-2.706,0.312-5.413,0.879-8.061c0.401-1.874,1.556-4.225,1.202-6.17C689.635,750.286,684.215,751.555,682.991,755.061z"/>
		<path fill="#FF7E1D" d="M661.301,748.007c-7.456-0.657-6.248,8.469-6.26,13.111c-0.012,5.112-2.581,17.148,4.74,18.384
			c7.587,1.28,6.919-8.934,6.967-13.628C666.8,760.756,669.046,748.592,661.301,748.007z"/>
		<path fill="#FF7E1D" d="M718.362,760.418c-2.871-1.479-16.117-0.496-19.209-0.235c-3.398,0.287-6.775,0.627-7.783,4.477
			c-2.449,9.361,11.592,6.537,16.337,6.247c-0.394,2.578-0.742,5.156-1.075,7.742c-0.21,1.636-0.003,7.381-1.14,8.412
			c-0.185,0.168-3.533,0.12-3.748,0.141c-1.442,0.141-2.813,0.344-4.23,0.648c-2.738,0.588-5.414,1.172-8.21,1.44
			c-5.725,0.549-11.431,0.79-17.138,1.571c-5.263,0.72-10.983,1.876-16.116,1.876c-15.611,0.815-31.265,1.586-46.905,1.479
			c-4.098-0.028-16.24-2.491-15.08,4.944c0.48,3.076,3.021,3.754,5.635,3.905c3.986,0.23,7.992,0.306,11.982,0.411
			c14.976,0.395,29.94,0.63,44.92,0.642c7.71,0.006,15.339-1.008,23.033-1.277c7.749-0.271,16.068-0.716,23.787-0.079
			c-2.559,21.072-4.667,42.196-7.185,63.269c-1.212,10.149-2.768,20.235-4.58,30.291c-0.005,0.028-0.009,0.055-0.014,0.083
			c-1.864,10.332-2.578,20.661-2.823,31.152c-4.881-1.133-10.32,0.98-14.955,2.253c-5.595,1.537-11.164,3.264-16.778,4.717
			c-5.924,1.533-12.007,2.645-18.014,3.8c-3.01,0.578-5.937,0.931-8.994,1.105c-2.252,0.128-4.489,0.195-5.889,2.236
			c-1.163,1.695-0.998,4.01,0.277,5.602c1.904,2.378,4.857,1.729,7.536,1.55c6.171-0.413,12.217-1.639,18.36-2.26
			c6.176-0.624,12.263-1.855,18.427-2.442c4.848-0.461,9.766-0.814,14.601-1.5c0.788-0.112,1.579-0.21,2.362-0.343
			c-2.875,12.175-5.714,24.368-9.041,36.427c-1.783,6.462-3.055,13.06-4.928,19.493c-0.83,2.85-1.765,5.67-2.656,8.502
			c-0.723,2.298-1.501,7.344-3.211,8.518c-1.633,1.121-6.185,0.648-8.054,0.722c-2.673,0.107-5.342,0.299-8.007,0.531
			c-2.65,0.231-5.295,0.551-7.958,0.587c-2.396,0.032-5.429-0.783-7.096,1.433c-4.455,5.926,5.946,6.204,8.983,6.127
			c6.721-0.17,13.159-0.736,19.873,0.062c-5.026,16.32-13.681,31.273-21.28,46.519c-0.028,0.056-0.058,0.109-0.086,0.165
			c-0.609-0.211-1.212-0.436-1.822-0.643c-6.459-2.186-12.927-4.361-19.475-6.263c-5.32-1.545-11.375-4.552-16.704-1.471
			c-4.785,2.766-6.52,9.297-3.288,13.881c3.097,4.393,9.842,5.969,14.586,7.836c5.68,2.236,11.359,4.454,17.029,6.714
			c0.169,0.122,0.369,0.225,0.626,0.292c0.05,0.013,0.1,0.007,0.15,0.014c0.502,0.2,1.005,0.392,1.506,0.594
			c3.436,1.381,6.903,2.694,10.379,3.983c3.268-6.653,6.295-13.43,9.008-20.325c-1.011-0.419-2.02-0.841-3.032-1.257
			c-1.28-0.526-2.577-1.014-3.871-1.505c8.81-12.817,18.272-26.051,22.941-40.796c5.249-16.573,10.877-33.076,15.961-49.703
			c3.083-10.084,6.486-20.017,9.749-30.038c1.46-4.485,2.728-9.03,3.882-13.598c0.592-2.345,1.174-4.693,1.713-7.051
			c0.27-1.178,0.531-2.359,0.778-3.542c0.125-0.598,1.047-5.51,0.497-2.413c0.825-4.277,1.529-8.576,2.247-12.872
			c-0.125,0.692-0.252,1.383-0.379,2.074c0.367-1.981,0.719-3.965,1.051-5.953c-0.129,0.709-0.258,1.418-0.385,2.128
			c0.225-1.258,0.448-2.516,0.667-3.775c0.108-0.621,0.773-4.318,0.225-1.376c0.414-2.267,0.793-4.54,1.17-6.814
			c-0.128,0.718-0.257,1.436-0.385,2.153c5.411-29.951,8.409-60.175,11.961-90.393c1.792-15.247,3.334-30.512,5.065-45.761
			c1.593-14.042,4.565-45.404,5.762-59.47C729.906,706.012,720.366,747.897,718.362,760.418z"/>
		<path fill="#FF7E1D" d="M575.373,744.312c-2.1,2.681-5.587,3.791-8.976,4.219c5.48,3.724,13.092,4.627,18.799,1.075
			c4.356-2.711,6.528-7.156,8.17-11.895c1.385-3.995,2.798-9.698,8.528-7.693c2.263,0.804,3.29,2.359,3.612,4.217
			c0.24,0.002,0.51,0,0.847-0.012c2.387-0.089,4.772-0.133,7.161-0.175c8.839-0.152,17.345-1.062,25.989-2.924
			c7.09-1.527,15.257-3.512,21.51-7.503c-5.985,2.029-12.543,3.068-17.301,3.836c-13.069,2.11-29.323,3.595-41.877-1.581
			c-5.503-2.268-10.255-6.278-9.25-12.682c0.546-3.484,2.407-6.649,4.963-9.049c0.605-0.569,1.502-1.455,2.224-1.782
			c1.583-0.716,0.365-0.816,2.177-0.002c0.18,0.081,0.356,0.197,0.533,0.297c-4.069-2.948-7.66-6.614-10.482-10.963
			c-9.119-14.052-8.803-32.661,0.641-46.455c9.165-13.386,25.753-20.402,41.746-17.612c1.544,0.269,3.053,0.65,4.54,1.089
			c2.571-1.385,3.86-4.426,2.816-7.235c4.074,0.639,7.751,3.019,10.876,5.628c2.609,2.178,4.48,4.22,7.524,5.228V614.58
			c-5.505-3.041-12.849-4.175-18.855-4.856c-6.794-0.77-14.468-2.218-21.225-0.784c-5.137,1.09-12.157,5.305-15.629-0.465
			c-1.002,0.56-1.965,1.17-2.869,1.845c-2.533,1.891-3.979,5.021-3.369,8.182c0.108,0.557,1.318,2.563,1.255,2.916
			c-0.035,0.192-2.16,1.581-2.13,1.559c-1.741,1.349-3.392,2.816-5.01,4.309c-13.355,12.323-20.867,29.096-18.494,47.399
			c0.55,4.242,1.762,8.41,3.808,12.181c0.943,1.739,2.09,3.398,3.312,4.955c0.52,0.664,1.036,1.305,1.617,1.915
			c1.567,1.644,1.769,1.211,0.38,3.076c-5.048,6.778-6.222,17.089-2.804,24.858c0.669,1.52,2.827,3.379,3.133,4.794
			c0.27,1.247-1.07,3.652-1.559,5.293C580.325,736.38,578.369,740.488,575.373,744.312z"/>
		<path fill="#FF7E1D" d="M565.142,1077.569c4.392-1.831,9.072-3.725,9.834-9.132c0.666-4.726-2.584-9.891-7.327-10.962
			c-3.147-0.713-6.136-0.008-9.104,0.904c-0.478-1.574-1.014-3.12-1.464-4.709c10.54-1.932,21.081-3.324,31.548-5.699
			c5.193-1.178,10.365-2.278,15.588-3.309c1.819-0.359,3.908-0.63,4.456-2.76c0.523-2.031-1.305-4.47-3.499-4.112
			c-7.341,1.218-15.357,1.61-22.786,0.933c-7.236-0.66-14.426-2.52-21.584-3.72c-1.404-0.235-2.811-0.472-4.223-0.654
			c-1.136-0.147-4.714,0.153-5.563-0.506c-0.85-0.66-1.475-4.469-1.837-5.54c-0.49-1.449-0.975-2.899-1.445-4.354
			c-2.353-7.277-4.426-14.64-6.656-21.954c-4.2-13.771-9.332-27.191-12.761-41.201c-3.637-14.859-6.975-29.747-9.841-44.772
			c12.601-0.67,25.147-2.218,37.671-3.726c5.819-0.701,11.75-1.654,17.531-2.613c2.367-0.393,5.129-2.544,1.617-4.082
			c-1.852-0.811-6.616,0.468-8.72,0.648c-12.146,1.035-24.476-1.041-36.611-1.811c-3.332-0.211-6.661-0.461-9.987-0.744
			c-0.768-0.065-1.535-0.131-2.302-0.201c-1.345,0.374-1.931-0.083-1.762-1.368c-0.534-1.03-0.522-2.905-0.695-4.001
			c-1.057-6.691-1.714-13.438-2.734-20.135c19.776-2.027,39.534-4.132,59.294-6.253c10.154-1.09,20.271-1.773,30.34-3.603
			c8.655-1.573,18.028-3.684,27.772-5.177c2.949-0.452,8.636-0.042,10.543-2.88c2.355-3.504-1.057-6.566-4.481-6.378
			c-9.215,0.506-18.443,1.73-27.665,2.345c-19.749,1.318-39.687,2.05-59.486,1.76c-11.019-0.161-22.061-0.051-33.074-0.336
			c-1.217-0.032-3.376,0.274-4.513-0.151l-1.473-0.096c-0.097-1.005-0.19-2.011-0.281-3.017c-0.227-2.516-0.437-5.033-0.646-7.55
			c-0.501-6.037-6.742-52.651-6.966-69.926c-0.176-4.511-0.186-9.012-0.202-13.535c-0.01-3.094-0.065-6.188-0.045-9.282
			c0.019-2.982-0.465-6.554,0.191-9.461c0.501-2.22,0.551-1.545,2.959-1.56c1.45-0.009,2.9-0.049,4.348-0.1
			c2.98-0.105,5.938-0.312,8.884-0.783c5.523-0.883,10.89-2.476,15.904-4.965c0.982,3.257,2.952,7.019,4.414,10.107
			c1.894,3.999,4.884,7.156,7.937,10.28c5.182,5.302,12.741,8.667,19.695,11.156c7.766,2.78,16.837,1.3,23.749-3.101
			c3.401-2.165,5.998-4.81,8.289-8.105c1.153-1.658,3.101-3.84,3.713-5.786c0.37-1.178,0.178-2.422-0.068-3.635
			c-2.447,4.774-5.65,8.953-10.206,12.067c-10.925,7.469-24.577,5.538-33.774-3.704c2.488,2.529-0.028,0.036-0.593-0.529
			c-0.82-0.82-1.632-1.631-2.314-2.573c-1.374-1.897-2.27-4.135-3.352-6.193c-1.704-3.242-3.164-6.788-3.037-10.482
			c0.003-0.096,0.035-0.185,0.043-0.28c-0.794-1.201-1.602-2.398-2.316-3.632c-0.286-0.494-1.263-1.857-1.271-2.302
			c-0.003-0.171,1.076-1.669,1.21-2.081c0.513-1.58,0.256-3.308-0.537-4.74c-6.657,3.498-15.396,5.213-21.128,6.211
			c-13.198,2.298-29.313,3.947-42.24-0.529c-5.305-1.837-11.403-5.421-11.206-11.761c0.211-6.792,5.219-11.308,10.651-14.529
			c1.765-1.047,3.544-2.113,5.402-2.988c2.09-0.985,2.212-0.701,3.914,0.737c0.326,0.275,0.689,0.502,1.023,0.767
			c-11.448-9.178-17.669-24.038-15.472-38.863c2.403-16.217,14.415-29.866,30.207-34.277c13.275-3.711,27.516-0.408,37.918,8.056
			c1.184-1.069,2.024-2.532,2.227-4.304c0.652-5.682-4.631-7.584-8.964-9.098c-4.78-1.669-9.669-3.121-14.746-3.388
			c2.427-0.585,5.305-1.517,7.812-1.399c1.944,0.092,3.618,1.139,5.625,0.788c4.284-0.751,6.717-5.551,4.701-9.422
			c-1.536-2.949-5.242-4.157-8.789-4.556c-0.43,0.64-0.956,1.222-1.584,1.706c-2.245,1.728-4.913,1.656-7.594,1.697
			c-7.152,0.111-13.385,0.327-20.267,2.567c-15.587,5.74-27.903,15.199-38.428,27.879c-1.675,2.018-3.359,6.134-5.531,7.462
			c-2.121,1.297-4.997-0.048-5.097-2.626c-0.101-2.634,2.871-5.969,4.274-8.037c1.742-2.566,3.669-4.995,5.593-7.426
			c9.14-11.553,20.229-19.979,33.131-26.998c5.002-2.721,10.311-4.617,15.842-5.72c0.03-0.16,0.054-0.321,0.084-0.481
			c0.376-2.009,0.777-4.013,1.186-6.015c0.204-1.002,0.413-2.002,0.621-3.003c0.463-2.228,0.392-2.425,2.018-3.547
			c3.341-2.306,8.767-3.352,12.577-4.748c4.269-1.565,8.549-3.078,12.88-4.461c16.921-5.401,33.817-9.686,51.381-12.322
			c8.241-1.237,16.564-2.925,24.862-3.673c4.2-0.378,18.391,2.212,14.402-6.985c-1.627-3.75-6.017-3.195-9.411-3.653
			c-4.297-0.58-8.595-1.262-12.884-1.901c-8.586-1.28-16.966-1.864-25.648-2c-20.459-0.322-40.468,3.294-60.072,9.068
			c1.305-3.083,2.754-6.101,4.237-9.101c0.696-1.408,1.448-4.041,2.567-5.124c0.818-0.792,3.041-1.594,4.062-2.111
			c6.185-3.131,12.62-5.714,19.149-8.029c12.967-4.596,25.761-8.41,39.689-8.415c3.454-0.001,12.802,2.084,10.878-4.738
			c-1.43-5.073-12.459-3.813-16.455-3.874c-13.891-0.213-27.672,0.23-41.46,1.779c6.856-8.029,13.583-15.984,22.163-22.251
			c8.437-6.162,17.529-11.553,27.29-15.305c9.909-3.81,19.38-8.595,29.412-12.13c10.28-3.621,20.884-6.375,31.704-7.767
			c-32.084-13.913-68.126-17.614-102.709-14.299c-10.784,1.034-21.384,3.517-31.927,5.93c-7.626,1.746-15.191,3.598-22.591,6.152
			c-18.64,6.433-35.86,14.79-47.698,31.19c-1.311,1.816-2.499,3.735-3.36,5.809c-0.94,2.264-0.701,4.328-1.33,6.559
			c-0.605,2.141-2.338,4.356-3.288,6.426c-1.123,2.446-2.166,4.937-3.14,7.446c-3.584,9.237-5.193,19.156-6.589,28.927
			c-2.228,15.585-3.667,31.164-3.885,46.926c-0.454,32.659-0.383,65.269,1.708,97.859c0.966,15.063,2.664,30.054,4.042,45.077
			c0.046,0.466,0.089,0.933,0.135,1.399c0.021,0.22,0.036,0.441,0.057,0.661c0.065,0.723,0.139,1.444,0.202,2.167
			c1.913,21.999,3.932,43.964,6.86,65.863c-0.017-0.372-0.022-0.744-0.043-1.116c0.433,5.382,1.28,10.748,2.124,16.079
			c0.301,1.903,0.621,3.804,0.926,5.706c0.332,2.081,0.098,2.951,1.777,3.587c-0.417-0.08-0.84-0.122-1.253-0.217
			c-0.055-0.053-0.14-0.097-0.214-0.144c2.002,12.869,4.311,25.703,6.703,38.509c0.062-0.008,0.123-0.01,0.185-0.018
			c-0.044-0.24-0.089-0.481-0.133-0.721c0.308,0.422,0.563,0.565,0.867,0.598c-0.249,0.036-0.483,0.09-0.735,0.123
			c3.332,18.333,6.744,36.656,10.765,54.85c5.091,23.033,13.941,44.746,22.764,66.536c4.923,12.158,10.049,24.198,15.28,36.222
			c3.979,9.143,7.068,18.649,10.87,27.862c3.198,7.748,6.782,15.401,10.317,23.031c-0.005,0.002-0.01,0.004-0.015,0.006
			c1.945,4.479,3.928,8.942,6.21,13.255c1.173,2.217,2.428,4.435,3.681,6.652c0.113-0.041,0.228-0.08,0.341-0.121
			c2.936,4.926,6.006,9.777,8.929,14.733c6.122,10.384,12.963,20.483,21.411,29.132c9.039,9.255,21.932,18.315,35.581,16.061
			c-9.347-14.593-16.211-30.818-24.131-46.207C572.358,1094.776,568.535,1086.259,565.142,1077.569z"/>
		<path fill="#FF7E1D" d="M606.064,704.987c-0.427-0.248-0.856-0.49-1.274-0.753c0.391,0.29,0.785,0.564,1.18,0.807
			C606.002,705.023,606.032,705.004,606.064,704.987z"/>
		<path d="M509.941,643.438c-24.865,6.948-27.445,42.352-3.88,52.869c23.722,10.587,48.321-15.378,36.582-38.507
			C536.644,645.979,522.698,639.874,509.941,643.438z M516.76,667.407c-10.372,4.23-16.928-11.86-6.562-16.087
			C520.56,647.094,527.138,663.168,516.76,667.407z M604.433,608.475c3.472,5.77,10.492,1.555,15.629,0.465
			c6.757-1.434,14.431,0.014,21.225,0.784c6.57,0.745,14.767,2.003,20.377,5.74c2.207,1.471,4.159,4.884,7.187,4.338
			c2.512-0.452,3.908-3.554,2.618-5.691c-0.131-0.217-0.261-0.436-0.45-0.629c-10.044-10.268-20.486-18.401-34.953-20.926
			c-7.421-1.295-14.908-1.672-22.131,0.78c-5.587,1.896-13.054,6.537-10.224,13.682
			C603.928,607.568,604.173,608.042,604.433,608.475z M459.005,646.264c2.172-1.328,3.856-5.444,5.531-7.462
			c10.525-12.68,22.841-22.14,38.428-27.879c6.881-2.24,13.114-2.456,20.267-2.567c2.681-0.042,5.348,0.031,7.594-1.697
			c0.628-0.483,1.154-1.065,1.584-1.706c1.374-2.05,1.677-4.739,0.52-7.041c-2.996-5.961-10.839-3.793-16.029-3.161
			c-1.401,0.17-2.777,0.433-4.151,0.707c-5.532,1.103-10.841,2.999-15.842,5.72c-12.902,7.019-23.991,15.445-33.131,26.998
			c-1.924,2.431-3.851,4.86-5.593,7.426c-1.403,2.067-4.375,5.403-4.274,8.037C454.009,646.216,456.885,647.561,459.005,646.264z
			 M616.029,695.527c23.722,10.588,48.323-15.379,36.583-38.508c-5.999-11.821-19.946-17.927-32.702-14.36
			C595.042,649.607,592.464,685.008,616.029,695.527z M627.898,648.574c11.728-4.783,19.371,13.468,7.471,18.317
			C623.489,671.739,616.158,653.361,627.898,648.574z M603.101,744.825c1.19-2.785,2.992-7.198,2.405-10.59
			c-0.322-1.857-1.35-3.413-3.612-4.217c-5.73-2.005-7.143,3.698-8.528,7.693c-1.642,4.739-3.813,9.184-8.17,11.895
			c-5.707,3.552-13.318,2.648-18.799-1.075c-1.692-1.149-3.187-2.559-4.352-4.2c-1.168-1.644-2.341-3.33-3.274-5.119
			c-1.103-2.115-1.045-5.198-2.934-6.8c-3.461-2.937-7.145,0.166-7.451,3.851c-0.008,0.095-0.039,0.185-0.043,0.281
			c-0.127,3.693,1.333,7.239,3.037,10.482c1.082,2.058,1.978,4.296,3.352,6.193c0.682,0.942,1.495,1.753,2.315,2.573
			c0.565,0.565,3.081,3.057,0.593,0.529c9.197,9.242,22.849,11.174,33.774,3.704c4.556-3.114,7.759-7.293,10.206-12.067
			C602.142,746.935,602.643,745.897,603.101,744.825z"/>
	</g>
</g>
</svg>
