<?xml version="1.0" encoding="utf-8"?>
<!-- Generator: Adobe Illustrator 23.0.3, SVG Export Plug-In . SVG Version: 6.00 Build 0)  -->
<svg version="1.1" id="Capa_1" xmlns="http://www.w3.org/2000/svg" xmlns:xlink="http://www.w3.org/1999/xlink" x="0px" y="0px"
	 viewBox="0 0 1200 1200" enable-background="new 0 0 1200 1200" xml:space="preserve">
<g>
	<g>
		<g>
			<path fill="#F7C277" d="M124.748,392.937l-29.76-36.846c-1.61-1.992-3.941-3.038-6.316-3.038c-1.595,0-3.21,0.472-4.636,1.445
				c-12.451,8.489-25.681,21.123-18,33.094c17.991,28.049,33.046,41.329,39.986,42.046c1.079,0.11,1.683-0.1,2.408-0.835
				c5.238-5.333,11.39-15,17.321-27.219C127.116,398.774,126.722,395.38,124.748,392.937z"/>
			<path fill="#F7C277" d="M223.045,852.273c-10.676,1.004-20.208-6.163-22.199-16.659c-8.29-43.686-24.231-62.108-36.294-60.947
				c-12.169,1.144-25.102,22.526-25.102,59.903c0,74.58,38.722,75.531,40.372,75.535c1.685,0.063,110.144,4.467,260.144,6.647
				c-63.583-13.628-113.189-36.633-148.35-68.881C271.519,848.407,248.492,849.877,223.045,852.273z"/>
			<path fill="#F7C277" d="M115.01,334.789l-0.861-1.345c-9.166-14.341-19.733-28.312-28.628-23.326
				c-7.699,4.33-4.36,19.287-1.099,29.817c7.716-1.495,15.983,1.184,21.163,7.596l29.76,36.846
				c5.277,6.529,6.321,15.618,2.662,23.157c-3.517,7.244-8.513,16.515-14.207,24.131c10.556,14.203,49.804,61.797,116.28,84.581
				c-1.764-25.767,2.135-50.698,11.661-74.587C173.574,425.909,138.491,371.334,115.01,334.789z"/>
			<path fill="#F7C277" d="M758.925,916.754c150.388-2.178,259.479-6.585,260.917-6.643c0.135-0.003,0.266-0.003,0.402-0.007
				c1.581-0.003,40.303-0.955,40.303-75.535c0-37.377-12.933-58.759-25.102-59.903c-12.055-1.174-28.004,17.265-36.294,60.947
				c-1.992,10.5-11.538,17.664-22.197,16.659c-14.401-1.355-42.209-3.685-69.658-4.412
				C872.133,880.116,822.518,903.126,758.925,916.754z"/>
			<path fill="#F7C277" d="M599.452,610.945c210.99,0,324.316-58.393,341.642-68.075c1.355-5.894,2.398-11.745,3.14-17.554
				c0.013-0.156,0.035-0.311,0.058-0.466c4.608-36.888-3.083-72.009-23.07-104.646C879.82,352.596,796.936,312.48,733.173,297.482
				c-87.485-20.576-179.965-20.576-267.443,0c-63.763,14.998-146.648,55.114-188.048,122.721
				c-23.215,37.914-29.868,79.172-19.876,122.663C275.182,552.542,388.853,610.945,599.452,610.945z M776.198,385.083
				c22.032,0,39.896,17.479,39.896,39.043c0,21.562-17.863,39.043-39.896,39.043c-22.036,0-39.898-17.481-39.898-39.043
				C736.301,402.562,754.163,385.083,776.198,385.083z M546.548,460.794c3.525-1.294,7.447,0.506,8.747,4.038
				c2.494,6.713,10.176,20.802,17.973,21.44c5.471,0.467,12.316-5.992,19.26-18.138c1.41-2.471,4.061-4.013,6.916-4.016
				c0.002,0,0.003,0,0.007,0c2.852,0,5.504,1.538,6.921,4.014c6.946,12.146,13.759,18.562,19.262,18.139
				c7.798-0.639,15.479-14.727,17.978-21.449c1.309-3.524,5.227-5.32,8.749-4.021c3.525,1.305,5.33,5.212,4.031,8.739
				c-1.084,2.938-11.114,28.762-29.614,30.307c-0.579,0.048-1.156,0.072-1.731,0.072c-8.92,0-17.503-5.795-25.596-17.271
				c-8.617,12.218-17.792,17.987-27.327,17.2c-18.5-1.545-28.53-27.369-29.614-30.307
				C541.212,466.011,543.018,462.094,546.548,460.794z M423.804,385.083c22.032,0,39.896,17.479,39.896,39.043
				c0,21.562-17.863,39.043-39.896,39.043c-22.034,0-39.898-17.481-39.898-39.043C383.906,402.562,401.77,385.083,423.804,385.083z"
				/>
			<path fill="#F9BF78" d="M599.452,624.568c-217.968,0-331.573-60.149-348.992-70.175c-8.469,1.55-40.721,9.113-70.945,38.176
				c-4.568,4.394-4.556,10.058-3.022,13.892c1.936,4.833,6.209,7.733,11.434,7.756c12.477,0.053,25.949,0.467,40.277,1.335
				c0.226,0,0.449,0.02,0.673,0.042c83.384,5.124,196.684,26.201,325.152,87.922c0.16,0.065,0.306,0.146,0.459,0.221
				c12.86,6.186,25.851,12.73,38.998,19.756c3.735,1.996,8.195,1.996,11.93,0c13.147-7.026,26.14-13.571,39-19.756
				c0.153-0.075,0.299-0.156,0.457-0.221c128.711-61.837,242.199-82.88,325.628-87.952c0.012,0,0.022-0.002,0.033-0.002
				c14.39-0.875,27.918-1.292,40.441-1.345c5.223-0.023,9.497-2.923,11.433-7.756c1.535-3.835,1.547-9.499-3.022-13.892
				c-30.395-29.23-62.507-36.67-70.933-38.183C931.063,564.398,817.455,624.568,599.452,624.568z"/>
			<path fill="#F7C277" d="M1115.963,354.498c-1.427-0.973-3.042-1.445-4.636-1.445c-2.373,0-4.704,1.046-6.313,3.037
				c0,0.002-0.002,0.002-0.002,0.002l-29.762,36.846c-1.972,2.443-2.366,5.837-1.003,8.647
				c5.935,12.221,12.086,21.888,17.321,27.219c0.725,0.737,1.327,0.946,2.408,0.835c6.94-0.717,21.994-13.995,39.987-42.046
				C1141.644,375.621,1128.414,362.987,1115.963,354.498z"/>
			<path fill="#F7C277" d="M1064.654,384.376l29.762-36.846l-0.002,0.002c5.18-6.414,13.447-9.098,21.164-7.601
				c3.261-10.53,6.599-25.483-1.101-29.813c-8.895-4.997-19.463,8.99-28.628,23.326l-0.861,1.345
				c-28.4,44.203-64.769,92.211-137.827,106.868c9.522,23.882,13.422,48.806,11.662,74.569
				c66.746-22.869,106.725-70.589,117.346-84.599c-5.681-7.608-10.665-16.861-14.177-24.091
				C1058.333,399.998,1059.378,390.908,1064.654,384.376z"/>
			<path fill="#F0EB6D" d="M649.021,716.636c-12.264,5.923-24.652,12.174-37.184,18.871c-3.876,2.072-8.132,3.11-12.386,3.11
				c-4.255,0-8.508-1.038-12.387-3.11c-12.532-6.697-24.919-12.948-37.184-18.871c-157.535-0.103-262.143-15.174-307.202-43.895
				c-18.03,9.93-27.208,19.402-27.279,28.18c-0.072,8.857,7.146,11.89,23.634,16.699c1.961,0.572,3.966,1.171,5.982,1.793
				c0.025,0.008,0.048,0.015,0.073,0.023c10.492,3.244,21.317,7.53,28.343,16.596c16.746,21.612,28.403,33.286,73.137,22.154
				c32.077-7.989,48.686,2.764,63.344,12.256c13.079,8.471,24.377,15.778,46.784,11.73c17.381-3.146,29.117-7.307,38.546-10.65
				c18.673-6.619,29.943-10.613,53.01,5.933c5.566,3.994,10.922,7.766,15.963,11.268c21.075,14.647,49.4,14.647,70.478,0
				c5.039-3.502,10.395-7.274,15.961-11.268c23.067-16.553,34.337-12.552,53.01-5.933c9.429,3.343,21.163,7.503,38.544,10.65
				c22.4,4.051,33.703-3.259,46.784-11.73c14.657-9.492,31.265-20.248,63.344-12.256c44.738,11.132,56.394-0.542,73.138-22.154
				c7.024-9.063,17.844-13.35,28.335-16.593c0.028-0.01,0.057-0.018,0.085-0.028c2.014-0.622,4.019-1.219,5.978-1.791
				c16.487-4.809,23.705-7.843,23.632-16.699c-0.07-8.779-9.248-18.251-27.277-28.18
				C911.165,701.462,806.559,716.533,649.021,716.636z"/>
			<path fill="#F7C277" d="M936.241,744.374c-19.126,24.685-35.529,39.904-87.2,27.03c-26.338-6.552-38.529,1.337-52.646,10.473
				c-13.546,8.77-28.896,18.715-56.614,13.699c-18.469-3.343-31.302-7.892-40.671-11.215c-17.847-6.329-23.233-8.238-40.516,4.164
				c-5.622,4.034-11.035,7.846-16.129,11.388c-12.865,8.937-27.939,13.407-43.014,13.407c-15.075,0-30.149-4.47-43.012-13.407
				c-5.095-3.542-10.508-7.354-16.131-11.388c-17.28-12.399-22.666-10.49-40.516-4.164c-9.371,3.323-22.204,7.872-40.673,11.215
				c-27.703,5.009-43.064-4.929-56.614-13.699c-14.115-9.136-26.306-17.022-52.646-10.473c-51.676,12.878-68.075-2.348-87.199-27.03
				c-3.065-3.955-7.718-6.695-13.011-8.887c0.69,16.541,6.176,53.723,38.67,89.796c3.221,3.577,6.642,7.044,10.23,10.422
				c0.298,0.239,0.572,0.501,0.825,0.787c57.398,53.354,160.605,81.455,300.075,81.455c149.218,0,256.906-32.155,311.425-92.992
				c32.399-36.153,37.772-73.052,38.409-89.48C943.977,737.669,939.313,740.413,936.241,744.374z"/>
			<path fill="#9B5E55" d="M245.884,658.747c0.708,0.338,1.349,0.803,1.911,1.377c27.304,19.067,97.215,40.408,272.209,42.691
				c-112.856-49.919-212.391-68.297-287.784-73.359c-1.216,3.354-2.178,9.073,1.337,15.776
				C235.705,649.326,239.48,653.946,245.884,658.747z"/>
			<path fill="#9B5E55" d="M965.344,645.232c3.515-6.702,2.553-12.422,1.339-15.776c-75.393,5.062-174.929,23.441-287.784,73.359
				c175.001-2.283,244.911-23.626,272.212-42.695c0.56-0.57,1.199-1.034,1.904-1.372
				C959.421,653.948,963.198,649.326,965.344,645.232z"/>
			<path fill="#8C5757" d="M423.804,463.169c22.032,0,39.896-17.481,39.896-39.043c0-21.564-17.863-39.043-39.896-39.043
				c-22.034,0-39.898,17.479-39.898,39.043C383.906,445.688,401.77,463.169,423.804,463.169z"/>
			<path fill="#8C5757" d="M776.198,463.169c22.032,0,39.896-17.481,39.896-39.043c0-21.564-17.863-39.043-39.896-39.043
				c-22.036,0-39.898,17.479-39.898,39.043C736.301,445.688,754.163,463.169,776.198,463.169z"/>
			<path fill="#8C5757" d="M572.124,499.848c9.535,0.787,18.71-4.982,27.327-17.2c8.094,11.476,16.676,17.271,25.596,17.271
				c0.575,0,1.152-0.023,1.731-0.072c18.5-1.545,28.53-27.369,29.614-30.307c1.299-3.527-0.506-7.433-4.031-8.739
				c-3.522-1.299-7.44,0.497-8.749,4.021c-2.499,6.722-10.181,20.81-17.978,21.449c-5.503,0.422-12.316-5.993-19.262-18.139
				c-1.417-2.476-4.069-4.014-6.921-4.014c-0.003,0-0.005,0-0.007,0c-2.855,0.003-5.506,1.545-6.916,4.016
				c-6.944,12.146-13.789,18.605-19.26,18.138c-7.798-0.639-15.479-14.727-17.973-21.44c-1.3-3.532-5.222-5.331-8.747-4.038
				c-3.53,1.3-5.336,5.217-4.038,8.747C543.595,472.48,553.624,498.304,572.124,499.848z"/>
			<path fill="#8C5757" d="M1127.86,346.273c4.778-14.597,10.713-38.238-6.707-48.029c-21.306-11.982-39.161,15.939-46.781,27.863
				l-0.845,1.319c-28.488,44.343-62.189,88.569-131.997,101.442c-2.611-5.315-5.506-10.575-8.692-15.778
				c-43.589-71.179-130.109-113.24-196.546-128.867c-89.528-21.055-184.164-21.055-273.682,0
				c-66.437,15.627-152.957,57.686-196.546,128.867c-3.186,5.203-6.081,10.465-8.692,15.78
				c-68.703-12.65-101.176-55.178-130.901-101.443l-0.845-1.319c-7.62-11.923-25.47-39.854-46.781-27.863
				c-17.418,9.791-11.483,33.432-6.707,48.029c-28.54,21.377-23.436,39.532-17.571,48.675c11.05,17.227,32.245,46.401,50.053,48.242
				c0.637,0.065,1.267,0.098,1.887,0.098c2.724,0,5.247-0.707,7.55-1.941c13.382,17.514,56.497,67.411,127.605,89.743
				c0.539,3.575,1.219,7.171,1.971,10.776c-13.728,3.096-44.304,12.748-73.562,40.885c-7.783,7.487-10.227,18.778-6.226,28.772
				c4.009,10.018,13.214,16.27,24.021,16.317c9.569,0.042,19.749,0.304,30.437,0.817c-1.352,5.84-1.493,13.706,2.965,22.471
				c2.252,4.425,5.543,8.621,9.75,12.613c-19.545,11.77-29.137,23.95-29.243,37.066c-0.161,20.089,18.47,25.523,33.442,29.89
				c0.229,0.067,0.459,0.136,0.688,0.203c-0.201,15.5,3.045,59.707,41.973,103.146c0.196,0.22,0.409,0.429,0.607,0.649
				c-17.202,0.742-36.199,2.082-56.717,4.014c-3.63,0.313-6.865-2.082-7.54-5.637c-8.963-47.225-28.054-74.088-50.953-71.969
				c-22.4,2.105-37.45,31.629-37.45,73.466c0,34.616,7.876,59.906,23.409,75.162c13.503,13.26,28.185,13.969,30.477,13.995
				c5.689,0.229,195.332,7.843,419.738,7.843c224.432,0,415.156-7.613,420.834-7.843c2.292-0.027,16.974-0.735,30.477-13.995
				c15.534-15.256,23.409-40.546,23.409-75.162c0-41.837-15.05-71.361-37.45-73.466c-22.955-2.162-41.991,24.748-50.953,71.969
				c-0.675,3.555-3.928,5.963-7.538,5.637c-12.339-1.161-34.418-3.032-57.806-4.024c0.195-0.215,0.404-0.422,0.597-0.639
				c38.928-43.44,42.174-87.646,41.971-103.146c0.231-0.067,0.461-0.136,0.69-0.203c14.973-4.367,33.605-9.801,33.442-29.887
				c-0.105-13.119-9.697-25.3-29.241-37.071c4.206-3.991,7.498-8.187,9.748-12.612c4.458-8.765,4.319-16.631,2.965-22.471
				c10.689-0.512,20.87-0.775,30.439-0.817c10.806-0.047,20.01-6.299,24.02-16.317c4.001-9.994,1.557-21.286-6.226-28.772
				c-29.256-28.137-59.833-37.789-73.561-40.885c0.752-3.609,1.432-7.206,1.971-10.784c63.678-20.042,109.437-64.148,128.751-89.708
				c2.29,1.217,4.794,1.914,7.5,1.914c0.62,0,1.25-0.033,1.887-0.098c17.807-1.841,39.003-31.016,50.055-48.242
				C1151.297,385.805,1156.4,367.65,1127.86,346.273z M277.682,420.203c41.401-67.607,124.286-107.723,188.048-122.721
				c87.478-20.576,179.958-20.576,267.443,0c63.763,14.998,146.648,55.114,188.048,122.723
				c19.987,32.637,27.678,67.759,23.07,104.646c-0.023,0.155-0.045,0.309-0.058,0.466c-0.742,5.809-1.784,11.661-3.14,17.554
				c-17.326,9.682-130.652,68.075-341.642,68.075c-210.598,0-324.269-58.403-341.645-68.08
				C247.813,499.374,254.467,458.117,277.682,420.203z M108.43,428.804c-0.725,0.735-1.329,0.945-2.408,0.835
				c-6.939-0.717-21.994-13.997-39.986-42.046c-7.681-11.972,5.549-24.605,18-33.094c1.427-0.973,3.042-1.445,4.636-1.445
				c2.375,0,4.706,1.046,6.316,3.038l29.76,36.846c1.974,2.443,2.368,5.837,1.003,8.647
				C119.819,413.804,113.668,423.471,108.43,428.804z M240.081,516.245c-66.477-22.784-105.724-70.378-116.28-84.581
				c5.694-7.616,10.689-16.887,14.207-24.131c3.658-7.538,2.614-16.628-2.662-23.157l-29.76-36.846
				c-5.18-6.412-13.447-9.091-21.163-7.596c-3.261-10.53-6.6-25.486,1.099-29.817c8.895-4.986,19.462,8.985,28.628,23.326
				l0.861,1.345c23.481,36.545,58.564,91.12,136.731,106.87C242.216,465.547,238.316,490.478,240.081,516.245z M179.822,910.104
				c-1.65-0.003-40.372-0.955-40.372-75.535c0-37.377,12.933-58.759,25.102-59.903c12.063-1.161,28.004,17.261,36.294,60.947
				c1.991,10.497,11.523,17.664,22.199,16.659c25.447-2.396,48.473-3.866,68.57-4.404c35.161,32.248,84.767,55.253,148.35,68.881
				C289.966,914.571,181.506,910.167,179.822,910.104z M976.955,852.273c10.66,1.004,20.205-6.16,22.197-16.659
				c8.29-43.682,24.239-62.121,36.294-60.947c12.169,1.144,25.102,22.526,25.102,59.903c0,74.58-38.722,75.531-40.303,75.535
				c-0.136,0.003-0.268,0.003-0.402,0.007c-1.438,0.058-110.53,4.465-260.917,6.643c63.593-13.628,113.207-36.638,148.372-68.893
				C934.746,848.588,962.554,850.918,976.955,852.273z M910.876,824.954c-54.518,60.838-162.206,92.992-311.425,92.992
				c-139.47,0-242.676-28.101-300.075-81.455c-0.253-0.286-0.527-0.547-0.825-0.787c-3.589-3.378-7.009-6.845-10.23-10.422
				c-32.494-36.073-37.98-73.255-38.67-89.796c5.293,2.192,9.946,4.932,13.011,8.887c19.124,24.682,35.522,39.908,87.199,27.03
				c26.34-6.549,38.531,1.337,52.646,10.473c13.55,8.77,28.91,18.708,56.614,13.699c18.469-3.343,31.302-7.892,40.673-11.215
				c17.85-6.326,23.236-8.235,40.516,4.164c5.622,4.034,11.035,7.846,16.131,11.388c12.863,8.937,27.938,13.407,43.012,13.407
				c15.075,0,30.149-4.47,43.014-13.407c5.094-3.542,10.507-7.354,16.129-11.388c17.283-12.402,22.669-10.493,40.516-4.164
				c9.369,3.323,22.202,7.872,40.671,11.215c27.718,5.015,43.067-4.929,56.614-13.699c14.117-9.136,26.308-17.025,52.646-10.473
				c51.671,12.875,68.075-2.345,87.2-27.03c3.071-3.961,7.736-6.705,13.044-8.9C948.648,751.902,943.275,788.802,910.876,824.954z
				 M983.502,700.921c0.073,8.857-7.146,11.89-23.632,16.699c-1.959,0.572-3.964,1.169-5.978,1.791
				c-0.028,0.01-0.057,0.018-0.085,0.028c-10.492,3.243-21.311,7.53-28.335,16.593c-16.744,21.612-28.4,33.286-73.138,22.154
				c-32.078-7.992-48.686,2.764-63.344,12.256c-13.081,8.471-24.384,15.781-46.784,11.73c-17.381-3.146-29.115-7.307-38.544-10.65
				c-18.673-6.619-29.943-10.62-53.01,5.933c-5.566,3.994-10.922,7.766-15.961,11.268c-21.078,14.647-49.403,14.647-70.478,0
				c-5.04-3.502-10.397-7.274-15.963-11.268c-23.067-16.546-34.337-12.552-53.01-5.933c-9.429,3.343-21.164,7.503-38.546,10.65
				c-22.407,4.048-33.705-3.259-46.784-11.73c-14.657-9.492-31.267-20.245-63.344-12.256c-44.733,11.132-56.391-0.542-73.137-22.154
				c-7.026-9.066-17.852-13.352-28.343-16.596c-0.025-0.008-0.048-0.015-0.073-0.023c-2.016-0.622-4.021-1.221-5.982-1.793
				c-16.488-4.809-23.705-7.843-23.634-16.699c0.072-8.779,9.249-18.251,27.279-28.18c45.059,28.721,149.667,43.792,307.202,43.895
				c12.264,5.923,24.652,12.174,37.184,18.871c3.88,2.072,8.132,3.11,12.387,3.11c4.254,0,8.509-1.038,12.386-3.11
				c12.532-6.697,24.919-12.948,37.184-18.871c157.538-0.103,262.145-15.174,307.204-43.895
				C974.255,682.67,983.432,692.142,983.502,700.921z M232.22,629.456c75.393,5.062,174.928,23.441,287.784,73.359
				c-174.994-2.283-244.905-23.624-272.209-42.691c-0.562-0.574-1.202-1.039-1.911-1.377c-6.404-4.801-10.179-9.421-12.327-13.515
				C230.041,638.529,231.004,632.81,232.22,629.456z M678.899,702.815c112.855-49.919,212.391-68.297,287.784-73.359
				c1.214,3.354,2.177,9.075-1.339,15.776c-2.147,4.094-5.923,8.716-12.329,13.516c-0.705,0.338-1.344,0.802-1.904,1.372
				C923.811,679.19,853.9,700.532,678.899,702.815z M1019.387,592.57c4.568,4.394,4.557,10.058,3.022,13.892
				c-1.936,4.833-6.209,7.733-11.433,7.756c-12.524,0.053-26.052,0.471-40.441,1.345c-0.012,0-0.022,0.002-0.033,0.002
				c-83.429,5.072-196.917,26.115-325.628,87.952c-0.158,0.065-0.304,0.146-0.457,0.221c-12.86,6.185-25.852,12.73-39,19.756
				c-3.735,1.996-8.195,1.996-11.93,0c-13.147-7.026-26.138-13.57-38.998-19.756c-0.153-0.075-0.299-0.156-0.459-0.221
				c-128.468-61.721-241.768-82.798-325.152-87.922c-0.224-0.022-0.447-0.042-0.673-0.042c-14.328-0.868-27.8-1.282-40.277-1.335
				c-5.225-0.023-9.499-2.923-11.434-7.756c-1.535-3.835-1.547-9.499,3.022-13.892c30.224-29.063,62.475-36.627,70.945-38.176
				c17.419,10.026,131.024,70.175,348.992,70.175c218.003,0,331.611-60.171,349.002-70.182
				C956.88,555.9,988.992,563.34,1019.387,592.57z M958.824,516.225c1.759-25.762-2.14-50.687-11.662-74.569
				c73.058-14.657,109.427-62.665,137.827-106.868l0.861-1.345c9.165-14.336,19.733-28.323,28.628-23.326
				c7.699,4.33,4.362,19.284,1.101,29.813c-7.718-1.497-15.984,1.187-21.164,7.601l0.002-0.002l-29.762,36.846
				c-5.276,6.532-6.321,15.622-2.661,23.158c3.512,7.231,8.496,16.483,14.177,24.091
				C1065.549,445.636,1025.57,493.356,958.824,516.225z M1133.965,387.592c-17.993,28.051-33.048,41.329-39.987,42.046
				c-1.081,0.111-1.683-0.098-2.408-0.835c-5.235-5.331-11.386-14.998-17.321-27.219c-1.364-2.81-0.969-6.204,1.003-8.647
				l29.762-36.846c0,0,0.002,0,0.002-0.002c1.608-1.991,3.939-3.037,6.313-3.037c1.595,0,3.209,0.472,4.636,1.445
				C1128.414,362.987,1141.644,375.621,1133.965,387.592z"/>
			<linearGradient id="SVGID_1_" gradientUnits="userSpaceOnUse" x1="423.2585" y1="429.0335" x2="447.7101" y2="404.582">
				<stop  offset="0" style="stop-color:#FFFFFF;stop-opacity:0"/>
				<stop  offset="0.2587" style="stop-color:#FFFBF5;stop-opacity:0.2587"/>
				<stop  offset="0.6969" style="stop-color:#FEEFDA;stop-opacity:0.6969"/>
				<stop  offset="1" style="stop-color:#FEE6C4"/>
			</linearGradient>
			<path fill="url(#SVGID_1_)" d="M435.275,434.306c9.549,0,17.29-7.739,17.29-17.288c0-9.55-7.741-17.291-17.29-17.291
				s-17.29,7.741-17.29,17.291C417.985,426.567,425.726,434.306,435.275,434.306z"/>
			<linearGradient id="SVGID_2_" gradientUnits="userSpaceOnUse" x1="775.6516" y1="429.0335" x2="800.1031" y2="404.582">
				<stop  offset="0" style="stop-color:#FFFFFF;stop-opacity:0"/>
				<stop  offset="0.2587" style="stop-color:#FFFBF5;stop-opacity:0.2587"/>
				<stop  offset="0.6969" style="stop-color:#FEEFDA;stop-opacity:0.6969"/>
				<stop  offset="1" style="stop-color:#FEE6C4"/>
			</linearGradient>
			<path fill="url(#SVGID_2_)" d="M787.668,434.306c9.549,0,17.29-7.739,17.29-17.288c0-9.55-7.741-17.291-17.29-17.291
				c-9.549,0-17.29,7.741-17.29,17.291C770.378,426.567,778.119,434.306,787.668,434.306z"/>
			
				<radialGradient id="SVGID_3_" cx="599.4456" cy="446.4978" r="365.3113" gradientTransform="matrix(0.9998 0.0183 -0.0144 0.7855 6.5316 84.7724)" gradientUnits="userSpaceOnUse">
				<stop  offset="0.3365" style="stop-color:#F7C277;stop-opacity:0"/>
				<stop  offset="0.4887" style="stop-color:#F1B570;stop-opacity:0.2833"/>
				<stop  offset="0.7683" style="stop-color:#E2935E;stop-opacity:0.8039"/>
				<stop  offset="0.8737" style="stop-color:#DB8556"/>
			</radialGradient>
			<path fill="url(#SVGID_3_)" d="M599.452,610.945c210.99,0,324.316-58.393,341.642-68.075c1.355-5.894,2.398-11.745,3.14-17.554
				c0.013-0.156,0.035-0.311,0.058-0.466c4.608-36.888-3.083-72.009-23.07-104.646C879.82,352.596,796.936,312.48,733.173,297.482
				c-87.485-20.576-179.965-20.576-267.443,0c-63.763,14.998-146.648,55.114-188.048,122.721
				c-23.215,37.914-29.868,79.172-19.876,122.663C275.182,552.542,388.853,610.945,599.452,610.945z M776.198,385.083
				c22.032,0,39.896,17.479,39.896,39.043c0,21.562-17.863,39.043-39.896,39.043c-22.036,0-39.898-17.481-39.898-39.043
				C736.301,402.562,754.163,385.083,776.198,385.083z M546.548,460.794c3.525-1.294,7.447,0.506,8.747,4.038
				c2.494,6.713,10.176,20.802,17.973,21.44c5.471,0.467,12.316-5.992,19.26-18.138c1.41-2.471,4.061-4.013,6.916-4.016
				c0.002,0,0.003,0,0.007,0c2.852,0,5.504,1.538,6.921,4.014c6.946,12.146,13.759,18.562,19.262,18.139
				c7.798-0.639,15.479-14.727,17.978-21.449c1.309-3.524,5.227-5.32,8.749-4.021c3.525,1.305,5.33,5.212,4.031,8.739
				c-1.084,2.938-11.114,28.762-29.614,30.307c-0.579,0.048-1.156,0.072-1.731,0.072c-8.92,0-17.503-5.795-25.596-17.271
				c-8.617,12.218-17.792,17.987-27.327,17.2c-18.5-1.545-28.53-27.369-29.614-30.307
				C541.212,466.011,543.018,462.094,546.548,460.794z M423.804,385.083c22.032,0,39.896,17.479,39.896,39.043
				c0,21.562-17.863,39.043-39.896,39.043c-22.034,0-39.898-17.481-39.898-39.043C383.906,402.562,401.77,385.083,423.804,385.083z"
				/>
			
				<radialGradient id="SVGID_4_" cx="401.7738" cy="518.7687" r="122.398" gradientTransform="matrix(1 0 0 0.6019 0 206.5099)" gradientUnits="userSpaceOnUse">
				<stop  offset="0" style="stop-color:#F56849"/>
				<stop  offset="0.5128" style="stop-color:#F56849;stop-opacity:0"/>
			</radialGradient>
			<path fill="url(#SVGID_4_)" d="M401.773,564.296c37.689,0,67.211-19.996,67.211-45.526s-29.522-45.528-67.211-45.528
				c-37.686,0-67.208,19.998-67.208,45.528S364.086,564.296,401.773,564.296z"/>
			
				<radialGradient id="SVGID_5_" cx="798.2252" cy="518.7687" r="122.398" gradientTransform="matrix(1 0 0 0.6019 0 206.5099)" gradientUnits="userSpaceOnUse">
				<stop  offset="0" style="stop-color:#F56849"/>
				<stop  offset="0.5128" style="stop-color:#F56849;stop-opacity:0"/>
			</radialGradient>
			<path fill="url(#SVGID_5_)" d="M798.224,564.296c37.688,0,67.211-19.996,67.211-45.526s-29.522-45.528-67.211-45.528
				c-37.686,0-67.208,19.998-67.208,45.528S760.538,564.296,798.224,564.296z"/>
		</g>
		<linearGradient id="SVGID_6_" gradientUnits="userSpaceOnUse" x1="58.5788" y1="309.0309" x2="249.0693" y2="499.5215">
			<stop  offset="0.3365" style="stop-color:#F7C277;stop-opacity:0"/>
			<stop  offset="0.5134" style="stop-color:#ECA969;stop-opacity:0.3292"/>
			<stop  offset="0.7393" style="stop-color:#DF8F5B;stop-opacity:0.7498"/>
			<stop  offset="0.8737" style="stop-color:#DB8556"/>
		</linearGradient>
		<path fill="url(#SVGID_6_)" d="M115.01,334.789l-0.861-1.345c-9.166-14.341-19.733-28.312-28.628-23.326
			c-7.699,4.33-4.36,19.287-1.099,29.817c7.716-1.495,15.983,1.184,21.163,7.596l29.76,36.846
			c5.277,6.529,6.321,15.618,2.662,23.157c-3.517,7.244-8.513,16.515-14.207,24.131c10.556,14.203,49.804,61.797,116.28,84.581
			c-1.764-25.767,2.135-50.698,11.661-74.587C173.574,425.909,138.491,371.334,115.01,334.789z"/>
		<linearGradient id="SVGID_7_" gradientUnits="userSpaceOnUse" x1="1086.0972" y1="363.5936" x2="964.4618" y2="485.229">
			<stop  offset="0.3365" style="stop-color:#F7C277;stop-opacity:0"/>
			<stop  offset="0.5134" style="stop-color:#ECA969;stop-opacity:0.3292"/>
			<stop  offset="0.7393" style="stop-color:#DF8F5B;stop-opacity:0.7498"/>
			<stop  offset="0.8737" style="stop-color:#DB8556"/>
		</linearGradient>
		<path fill="url(#SVGID_7_)" d="M1064.654,384.376l29.762-36.846l-0.002,0.002c5.18-6.414,13.447-9.098,21.164-7.601
			c3.261-10.53,6.599-25.483-1.101-29.813c-8.895-4.997-19.463,8.99-28.628,23.326l-0.861,1.345
			c-28.4,44.203-64.769,92.211-137.827,106.868c9.522,23.882,13.422,48.806,11.662,74.569
			c66.746-22.869,106.725-70.589,117.346-84.599c-5.681-7.608-10.665-16.861-14.177-24.091
			C1058.333,399.998,1059.378,390.908,1064.654,384.376z"/>
		<linearGradient id="SVGID_8_" gradientUnits="userSpaceOnUse" x1="175.5693" y1="639.6887" x2="1023.332" y2="639.6887">
			<stop  offset="0" style="stop-color:#FFE4BD"/>
			<stop  offset="0.6399" style="stop-color:#FDD687;stop-opacity:0"/>
		</linearGradient>
		<path fill="url(#SVGID_8_)" d="M599.452,624.568c-217.968,0-331.573-60.149-348.992-70.175
			c-8.469,1.55-40.721,9.113-70.945,38.176c-4.568,4.394-4.556,10.058-3.022,13.892c1.936,4.833,6.209,7.733,11.434,7.756
			c12.477,0.053,25.949,0.467,40.277,1.335c0.226,0,0.449,0.02,0.673,0.042c83.384,5.124,196.684,26.201,325.152,87.922
			c0.16,0.065,0.306,0.146,0.459,0.221c12.86,6.186,25.851,12.73,38.998,19.756c3.735,1.996,8.195,1.996,11.93,0
			c13.147-7.026,26.14-13.571,39-19.756c0.153-0.075,0.299-0.156,0.457-0.221c128.711-61.837,242.199-82.88,325.628-87.952
			c0.012,0,0.022-0.002,0.033-0.002c14.39-0.875,27.918-1.292,40.441-1.345c5.223-0.023,9.497-2.923,11.433-7.756
			c1.535-3.835,1.547-9.499-3.022-13.892c-30.395-29.23-62.507-36.67-70.933-38.183
			C931.063,564.398,817.455,624.568,599.452,624.568z"/>
		<radialGradient id="SVGID_9_" cx="599.4507" cy="736.2256" r="275.2511" gradientUnits="userSpaceOnUse">
			<stop  offset="0" style="stop-color:#B9DB69;stop-opacity:0"/>
			<stop  offset="1" style="stop-color:#B9DB69"/>
		</radialGradient>
		<path fill="url(#SVGID_9_)" d="M649.021,716.636c-12.264,5.923-24.652,12.174-37.184,18.871c-3.876,2.072-8.132,3.11-12.386,3.11
			c-4.255,0-8.508-1.038-12.387-3.11c-12.532-6.697-24.919-12.948-37.184-18.871c-157.535-0.103-262.143-15.174-307.202-43.895
			c-18.03,9.93-27.208,19.402-27.279,28.18c-0.072,8.857,7.146,11.89,23.634,16.699c1.961,0.572,3.966,1.171,5.982,1.793
			c0.025,0.008,0.048,0.015,0.073,0.023c10.492,3.244,21.317,7.53,28.343,16.596c16.746,21.612,28.403,33.286,73.137,22.154
			c32.077-7.989,48.686,2.764,63.344,12.256c13.079,8.471,24.377,15.778,46.784,11.73c17.381-3.146,29.117-7.307,38.546-10.65
			c18.673-6.619,29.943-10.613,53.01,5.933c5.566,3.994,10.922,7.766,15.963,11.268c21.075,14.647,49.4,14.647,70.478,0
			c5.039-3.502,10.395-7.274,15.961-11.268c23.067-16.553,34.337-12.552,53.01-5.933c9.429,3.343,21.163,7.503,38.544,10.65
			c22.4,4.051,33.703-3.259,46.784-11.73c14.657-9.492,31.265-20.248,63.344-12.256c44.738,11.132,56.394-0.542,73.138-22.154
			c7.024-9.063,17.844-13.35,28.335-16.593c0.028-0.01,0.057-0.018,0.085-0.028c2.014-0.622,4.019-1.219,5.978-1.791
			c16.487-4.809,23.705-7.843,23.632-16.699c-0.07-8.779-9.248-18.251-27.277-28.18
			C911.165,701.462,806.559,716.533,649.021,716.636z"/>
		<radialGradient id="SVGID_10_" cx="599.4681" cy="826.7102" r="378.0714" gradientUnits="userSpaceOnUse">
			<stop  offset="0" style="stop-color:#F7C277;stop-opacity:0"/>
			<stop  offset="0.2263" style="stop-color:#F1B570;stop-opacity:0.2833"/>
			<stop  offset="0.6421" style="stop-color:#E2935E;stop-opacity:0.8039"/>
			<stop  offset="0.7987" style="stop-color:#DB8556"/>
		</radialGradient>
		<path fill="url(#SVGID_10_)" d="M936.241,744.374c-19.126,24.685-35.529,39.904-87.2,27.03
			c-26.338-6.552-38.529,1.337-52.646,10.473c-13.546,8.77-28.896,18.715-56.614,13.699c-18.469-3.343-31.302-7.892-40.671-11.215
			c-17.847-6.329-23.233-8.238-40.516,4.164c-5.622,4.034-11.035,7.846-16.129,11.388c-12.865,8.937-27.939,13.407-43.014,13.407
			c-15.075,0-30.149-4.47-43.012-13.407c-5.095-3.542-10.508-7.354-16.131-11.388c-17.28-12.399-22.666-10.49-40.516-4.164
			c-9.371,3.323-22.204,7.872-40.673,11.215c-27.703,5.009-43.064-4.929-56.614-13.699c-14.115-9.136-26.306-17.022-52.646-10.473
			c-51.676,12.878-68.075-2.348-87.199-27.03c-3.065-3.955-7.718-6.695-13.011-8.887c0.69,16.541,6.176,53.723,38.67,89.796
			c3.221,3.577,6.642,7.044,10.23,10.422c0.298,0.239,0.572,0.501,0.825,0.787c57.398,53.354,160.605,81.455,300.075,81.455
			c149.218,0,256.906-32.155,311.425-92.992c32.399-36.153,37.772-73.052,38.409-89.48
			C943.977,737.669,939.313,740.413,936.241,744.374z"/>
		<linearGradient id="SVGID_11_" gradientUnits="userSpaceOnUse" x1="139.4504" y1="845.6829" x2="439.966" y2="845.6829">
			<stop  offset="0.0248" style="stop-color:#F7C277;stop-opacity:0"/>
			<stop  offset="0.2433" style="stop-color:#ECA969;stop-opacity:0.3292"/>
			<stop  offset="0.5224" style="stop-color:#DF8F5B;stop-opacity:0.7498"/>
			<stop  offset="0.6885" style="stop-color:#DB8556"/>
		</linearGradient>
		<path fill="url(#SVGID_11_)" d="M223.045,852.273c-10.676,1.004-20.208-6.163-22.199-16.659
			c-8.29-43.686-24.231-62.108-36.294-60.947c-12.169,1.144-25.102,22.526-25.102,59.903c0,74.58,38.722,75.531,40.372,75.535
			c1.685,0.063,110.144,4.467,260.144,6.647c-63.583-13.628-113.189-36.633-148.35-68.881
			C271.519,848.407,248.492,849.877,223.045,852.273z"/>
		<linearGradient id="SVGID_12_" gradientUnits="userSpaceOnUse" x1="1053.1803" y1="845.684" x2="751.5572" y2="845.684">
			<stop  offset="0.0248" style="stop-color:#F7C277;stop-opacity:0"/>
			<stop  offset="0.2433" style="stop-color:#ECA969;stop-opacity:0.3292"/>
			<stop  offset="0.5224" style="stop-color:#DF8F5B;stop-opacity:0.7498"/>
			<stop  offset="0.6885" style="stop-color:#DB8556"/>
		</linearGradient>
		<path fill="url(#SVGID_12_)" d="M758.925,916.754c150.388-2.178,259.479-6.585,260.917-6.643c0.135-0.003,0.266-0.003,0.402-0.007
			c1.581-0.003,40.303-0.955,40.303-75.535c0-37.377-12.933-58.759-25.102-59.903c-12.055-1.174-28.004,17.265-36.294,60.947
			c-1.992,10.5-11.538,17.664-22.197,16.659c-14.401-1.355-42.209-3.685-69.658-4.412
			C872.133,880.116,822.518,903.126,758.925,916.754z"/>
	</g>
	<g opacity="0.8">
		<linearGradient id="SVGID_13_" gradientUnits="userSpaceOnUse" x1="411.7272" y1="418.7445" x2="375.088" y2="355.2835">
			<stop  offset="0" style="stop-color:#FFFFFF;stop-opacity:0"/>
			<stop  offset="1" style="stop-color:#FFFFFF"/>
		</linearGradient>
		<path fill="url(#SVGID_13_)" d="M298.714,481.547c15.962-41.917,46.962-77.01,84.898-100.54
			c20.834-12.922,43.563-22.733,67-29.826c20.669-6.256,47.277-6.426,65.723-17.538c7.925-4.774,6.42-17.171-2.574-19.696
			c-22.953-6.443-54.374,5.234-76.132,12.476c-26.145,8.702-51.25,20.519-73.686,36.61c-39.236,28.139-69.409,66.871-81.547,114.016
			C279.631,487.787,294.902,491.556,298.714,481.547L298.714,481.547z"/>
	</g>
	<g opacity="0.8">
		<linearGradient id="SVGID_14_" gradientUnits="userSpaceOnUse" x1="569.9412" y1="853.5748" x2="350.9447" y2="853.5748">
			<stop  offset="0" style="stop-color:#FFFFFF;stop-opacity:0"/>
			<stop  offset="1" style="stop-color:#FFFFFF"/>
		</linearGradient>
		<path fill="url(#SVGID_14_)" d="M351.653,822.479c9.409,15.086,29.459,24.213,44.804,32.138
			c17.267,8.918,35.584,16.271,54.184,21.894c18.813,5.687,38.166,9.56,57.643,12.096c18.61,2.423,39.53,5.647,57.165-1.965
			c7.98-3.445,4.107-14.008-2.155-16.486c-15.019-5.944-33.244-4.105-49.191-5.772c-19.344-2.022-38.359-5.78-57.131-10.836
			c-16.957-4.567-33.577-10.125-49.864-16.698c-16.034-6.47-33.165-18.715-50.317-21.054
			C353.172,815.302,349.327,818.75,351.653,822.479L351.653,822.479z"/>
	</g>
</g>
</svg>
