<?xml version="1.0" encoding="utf-8"?>
<!-- Generator: Adobe Illustrator 23.0.3, SVG Export Plug-In . SVG Version: 6.00 Build 0)  -->
<svg version="1.1" id="Layer_1" xmlns="http://www.w3.org/2000/svg" xmlns:xlink="http://www.w3.org/1999/xlink" x="0px" y="0px"
	 viewBox="0 0 1200 1200" enable-background="new 0 0 1200 1200" xml:space="preserve">
<g>
	<path fill="#3D302A" d="M929.544,220.494c-50.582-54.974-155.161-64.033-188.538,13.637c-9.29-5.941-23.182-8.704-31.291-11.433
		c-20.77-6.99-41.831-11.265-63.334-15.071c-0.298-0.36-0.675-0.668-1.123-0.894c-2.897-9.887-0.296-24.86-0.299-34.583
		c-0.003-11.734-0.072-23.469-0.136-35.203c-0.071-13.079-0.18-26.159-0.425-39.237c-0.193-10.25,2.599-23.896-4.14-32.617
		c-5.882-7.613-18.637-12.062-27.659-13.804c-20.72-4.001-43.086,1.754-61.56,11.216c-9.26,4.743-6.558,16.386-6.804,25.435
		c-0.393,14.452-0.477,28.912-0.356,43.369c0.237,28.289,1.282,56.563,2.441,84.827c-29.394-2.051-61.762,9.934-89.224,22.617
		c-28.559-85.251-150.834-67.931-193.871-5.668c-19.491,28.198-21.905,80.724-3.718,109.977
		c17.839,28.692,53.165,41.462,84.365,50.475c-3.876,19.54-5.858,39.306-5.4,59.282c0.135,5.884,0.124,12.704,0.756,19.501
		c-35.069,22.997-24.54,70.107,6.773,91.908c4.771,3.321,9.851,6.16,15.126,8.657c-0.119,0.567-0.115,1.173,0.085,1.812
		c14.671,46.919,17.191,94.645,21.262,143.101c3.749,44.625,7.684,89.234,11.777,133.829c4.708,51.289,9.512,102.57,14.623,153.821
		c3.205,32.141,4.78,65.343,10.832,97.125c0.447,2.345,0.495,5.552,1.863,7.638c3.771,5.751,15.211,9.222,21.233,12.012
		c10.239,4.743,20.795,8.827,31.549,12.245c42.056,13.369,86.792,16.875,130.692,15.108c48.402-1.948,96.71-7.701,144.255-16.938
		c23.336-4.534,48.57-10.229,54.829-36.603c6.431-27.104,7.781-56.173,11.022-83.773c6.032-51.37,11.701-102.782,17.275-154.203
		c5.536-51.062,10.992-102.134,16.123-153.238c5.344-53.232,13.335-106.22,17.735-159.514c0.027-0.324,0.014-0.618-0.007-0.904
		c18.515-9.692,37.258-24.557,39.411-46.778c2.091-21.585-10.561-42.054-30.258-50.166c-0.89-8.92-2.832-17.802-4.38-25.527
		c-2.322-11.579-5.516-22.937-9.685-33.942c32.175-9.448,68.173-23.517,83.051-55.847
		C959.521,299.311,954.236,247.329,929.544,220.494z M667.959,177.46c10.812,6.698,21.112,12.279,29.81,21.805
		c2.499,2.737,7.401,1.429,7.898-2.496c1.677-13.255,7.479-24.219,18.07-32.648c3.488-2.776,2.081-9.676-3.144-7.572
		c-12.132,4.886-24.235-1.5-32.245-10.26c-3.922-4.289-7.233-9.149-10.642-13.842c-2.353-3.239-8.942-1.08-6.94,3.106
		c5.687,11.885,6.521,24.233,2.859,36.45c-0.613-0.174-1.205-0.397-1.828-0.546C668.832,170.749,664.491,175.312,667.959,177.46z
		 M479.522,189.768c3.662-3.386,7.296-6.801,10.932-10.213c-1.022-0.555-2.065-1.083-3.141-1.568
		c-4.985-2.247-0.367-10.109,4.339-7.988c1.998,0.9,3.917,1.962,5.788,3.101c3.176-2.678,7.596-5.506,9.359-1.532
		c0.945,2.127-0.647,4.381-2.732,6.356c0.821,0.713,1.646,1.422,2.415,2.194c3.778,3.795,9.029,9.009,7.357,14.692
		c-0.239,0.811-0.993,1.575-1.899,1.571c-4.242-0.015-4.937-1.227-7.486-4.621c-1.421-1.893-2.903-3.683-4.603-5.336
		c-0.942-0.916-1.92-1.775-2.928-2.586c-3.984,3.428-7.949,6.879-11.883,10.362C481.668,197.189,475.723,193.28,479.522,189.768z
		 M936.235,406.293c0.02,3.958-4.948,6.262-8.834,8.057c0.134,0.214,0.298,0.402,0.428,0.621c2.76,4.635,5.844,10.952,2.991,16.067
		c-0.488,0.875-1.426,1.108-2.351,1.111c-0.459,0.002-0.917,0.004-1.376,0.005c-1.386,0.005-2.64-1.052-3.101-2.301
		c-1.487-4.03-2.93-7.756-4.886-11.163c-3.839,2.077-7.678,4.154-11.517,6.231c-4.624,2.5-7.588-3.95-3.045-6.437
		c3.425-1.875,6.85-3.749,10.274-5.623c-1.048-1.134-2.179-2.235-3.499-3.274c-3.935-3.097,1.05-8.788,4.907-6.296
		c2.358,1.523,4.544,3.241,6.502,5.185c3.658-2.088,7.347-4.075,11.628-4.374C935.371,404.03,936.23,405.409,936.235,406.293z
		 M308.64,417.754c-3.367,2.496-6.533,5.215-9.606,8.04c4.596,3.834,9.79,8.133,11.652,13.691c0.907,2.706-2.701,3.763-4.603,3.306
		c-4.908-1.181-9.363-6.887-13.145-11.046c-3.557,3.845-6.743,8.044-10.756,11.428c-1.965,1.657-6.331-0.452-5.329-3.184
		c1.941-5.288,6.676-9.721,10.66-13.617c-3.736-3.592-7.517-7.127-11.422-10.553c-3.045-2.671,2.246-5.634,4.797-3.848
		c4.199,2.943,8.328,5.994,12.359,9.169c3.315-2.848,6.76-5.535,10.33-8.086C307.131,410.516,312.709,414.737,308.64,417.754z
		 M306.615,556.933c-13.38,2.289-27.442-4.79-32.106-17.927c-1.352-3.81-8.015-2.073-7.735,1.824
		c0.778,10.812,0.439,20.418-3.891,30.229c-2.639,0.362-5.451,3.218-2.881,5.459c9.353,8.155,19.694,13.967,28.177,23.353
		c2.322,2.57,6.829-0.013,7.136-2.979c1.359-13.146,8.049-24.211,15.12-35.038C312.296,559.004,309.613,556.42,306.615,556.933z"/>
	<path fill="#EFDF6E" d="M275.286,553.143c6.782,6.663,15.523,10.555,25.339,10.732c-4.933,7.788-9.239,15.715-11.671,24.493
		c-5.568-5.852-11.993-11.596-19.085-15.048C273.313,566.752,274.939,560.121,275.286,553.143z M698.977,187.399
		c2.13-7.619,5.692-14.451,10.61-20.484c-10.399-0.529-19.27-6.679-26.63-14.738c0.647,7.398-0.203,14.839-2.626,22.262
		C687.234,177.558,693.418,182.158,698.977,187.399z"/>
	<path fill="#C4E5E1" d="M719.502,1088.558c26.476-5.53,53.992-11.509,78.688-22.982c-0.314,2.344-0.608,4.691-0.927,7.034
		c-1.063,7.816-1.962,17.904-4.091,23.83c-6.829,19.008-28.292,21.771-45.61,25.118c-24.716,4.776-49.62,8.588-74.631,11.433
		c-45.93,5.226-92.71,8.339-138.752,2.724c-19.463-2.373-38.754-6.375-57.445-12.33c-11.591-3.693-22.942-8.133-33.866-13.496
		c-4.038-1.983-10.437-3.372-12.099-6.173c-3.726-6.283-2.877-21.007-3.705-28.214c-0.259-2.26-0.493-4.523-0.746-6.784
		c25.59,15.156,55.108,21.202,84.392,25.639c35.055,5.312,70.599,7.42,106.036,6.396
		C651.242,1099.758,685.722,1095.613,719.502,1088.558z M787.173,569.394c23.729-5.068,47.73-10.612,69.941-20.592
		c-4.508,47.225-12.523,94.048-17.125,141.294c-3.71,38.09-7.841,76.142-11.934,114.192
		c-8.971,83.376-17.458,166.915-28.386,250.073c-0.099,0.041-0.192,0.058-0.292,0.105c-27.995,13.152-60.382,19.634-90.634,25.402
		c-32.272,6.153-65.007,9.489-97.848,10.224c-30.957,0.693-61.963-1.053-92.641-5.266c-31.612-4.342-64.007-9.724-92.806-24.021
		c-1.404-12.845-2.756-25.697-4.066-38.551c-5.003-49.146-9.653-98.329-14.221-147.516c-4.654-50.102-9.29-100.208-13.71-150.331
		c-4.404-49.947-7.349-99.166-22.562-147.37c16.22,6.177,33.759,9.692,50.3,12.961c30.511,6.028,61.525,9.458,92.605,10.459
		c8.703,0.28,17.407,0.379,26.11,0.346c-1.158,53.707-1.279,107.438-1.379,161.157c-23.847-6.974-49.851-13.998-74.276-5.675
		c-10.143,3.455-20.855,9.33-27.65,17.81c-8.546,10.668-6.14,25.192-6.006,37.85c0.179,17.066-0.003,34.13,0.316,51.198
		c0.65,34.736,2.186,69.459,4.798,104.104c1.965,26.048,5.535,52.885,24.359,72.599c15.937,16.691,36.205,21.75,58.1,25.517
		c53.447,9.195,110.269,9.674,163.608-0.517c21.697-4.144,44.531-9.253,64.707-18.394c19.732-8.94,31.3-23.589,37.876-44.221
		c8.986-28.198,10.366-59.034,13.434-88.282c3.474-33.128,6.683-66.294,10.534-99.382c1.729-14.871,5.127-29.441,6.972-44.306
		c2.194-17.667,5.807-39.579-1.362-56.604c-21.254-50.477-88.132-19.347-119.57,3.201c-21.651,15.53-38.608,36.177-57.914,54.292
		c1.654-58.792,1.566-117.388,0.781-176.35c19.338-2.191,38.617-4.889,57.806-7.966
		C725.902,581.884,756.605,575.921,787.173,569.394z M426.395,671.194c-0.602-18.104,2.128-40.285,25.192-37.075
		c11.547,1.607,23.164,5.833,34.853,5.547c4.002-0.097,7.464-6.07,2.571-7.892c-14.451-5.383-41.456-12.505-55.822-3.268
		c-14.689,9.444-15.064,27.678-14.18,43.233C419.24,675.84,426.531,675.296,426.395,671.194z M790.529,596.612
		c-20.029,3.751-39.25,10.841-59.262,14.961c-20.224,4.163-40.903,6.79-61.525,7.757c-4.676,0.219-4.291,6.126,0.305,6.185
		c41.038,0.527,86.412-4.135,123.003-23.953C795.942,599.996,793.207,596.111,790.529,596.612z"/>
	<path fill="#FFFFFF" d="M551.609,68.926c25.54,11.847,59.699,15.457,84.984,1.447c0.184,0.053,0.369,0.1,0.553,0.152
		c-1.054,29.846-1.052,59.724-1.126,89.586c-0.035,14.079,0.983,47.97,1.396,48.898c-12.97,7.831-22.892,16.161-39.177,18.783
		c-15.98,2.574-30.312-0.415-44.088-7.788C554.568,219.338,553.361,118.487,551.609,68.926z M602.047,70.144
		c7.605-0.482,14.835-2.458,22.118-4.111c-10.029-3.847-19.927-7.846-31.162-7.81c-12.249,0.039-22.779,2.532-33.349,6.862
		C573.407,69.097,587.605,71.059,602.047,70.144z M624.145,782.026c1.123-0.913,2.183-1.894,3.284-2.83
		c2.025-61.231,2.54-122.326,3.242-183.679c-27.946,2.994-56.009,4.885-84.095,5.24c0.73,72.049-0.122,144.162-0.112,216.25
		C574.831,812.164,601.721,800.233,624.145,782.026z M623.535,884.79c0.862-26.007,1.809-52.01,2.877-78.009
		c0.228-5.547,0.418-11.09,0.617-16.635c-23.659,18.201-49.599,31.37-80.544,36.436c0.055,42.167,0.44,84.324,1.681,126.453
		c13.672,4.462,25.623,11.867,40.683,12.728c12.647,0.724,22.496-1.729,33.431-7.137c-3.413-9.707-0.309-23.788-0.005-33.873
		C622.676,911.431,623.096,898.111,623.535,884.79z"/>
	<path fill="#A89D92" d="M539.841,955.417c-0.173-4.055-0.291-8.115-0.432-12.172c-22.267,0.108-48.428-9.136-48.61-35.349
		c-0.179-25.58,24.124-40.689,47.377-38.273c-0.03-13.973,0.009-27.946,0.08-41.917c-1.409,0.16-2.785,0.369-4.214,0.496
		c-23.2,2.058-47.185-0.413-69.302-7.811c-8.17-2.733-18.962-7.316-26.244-14.245c-0.06,29.519,0.455,59.04,1.616,88.537
		c1.209,30.734,1.572,62.328,6.273,92.764c5.953,38.548,28.74,60.61,66.499,67.769c29.41,5.576,59.507,7.72,89.418,7.546
		c28.078-0.164,56.281-2.446,83.781-8.245c22.757-4.799,50.118-9.702,69.402-23.466c27.914-19.924,27.698-66.612,31.074-98.282
		c3.617-33.923,7.029-67.867,10.707-101.782c3.617-33.362,14.186-67.805,10.897-101.36c-1.323-13.495-9.21-27.547-22.795-31.908
		c-15.209-4.881-34.001,1.648-48.264,7.025c-29.849,11.252-52.814,31.224-74.849,53.674c-8.543,8.705-17.217,16.882-26.164,24.401
		c-0.204,6.35-0.407,12.699-0.655,19.056c-1.104,28.268-2.163,56.537-3.229,84.805c20.549-0.969,41.22,14.243,39.378,36.625
		c-0.848,10.312-10.795,17.684-18.984,22.588c-5.781,3.463-16.415,8.966-23.523,6.449c-0.251,3.386-0.36,6.043-0.08,6.399
		c1.078,1.366,0.6,2.439-0.459,3.019c-6.147,13.896-24.276,14.783-37.598,14.293c-17.707-0.652-31.975-8.192-46.389-17.722
		C542.358,959.006,539.965,958.292,539.841,955.417z M530.602,990.115c-6.721,21.193-25.225,30.386-46.105,23.165
		c-16.983-5.873-25.011-23.045-18.933-38.708C473.189,940.915,544.882,945.086,530.602,990.115z M680.58,877.872
		c0.572-38.672,91.132-35.874,74.668,19.094c-6.21,20.736-28.487,34.059-49.532,27.237
		C686.437,917.951,676.681,896.793,680.58,877.872z M674.646,977.75c7.933-7.377,19.049-9.804,29.525-7.498
		c18.859,4.152,35.512,25.175,26.137,44.466c-9.765,20.092-39.26,20.707-55.986,9.405c-6.966-4.706-9.664-12.396-9.509-20.414
		C662.6,994.613,667.98,983.948,674.646,977.75z M572.109,986.223c19.452-7.648,45.971,2.027,51.892,22.982
		c13.366,47.293-69.122,43.847-68.976,8.051C554.14,1004.821,561.135,990.538,572.109,986.223z M538.515,766.846
		c-0.005,2.254-0.009,4.509-0.014,6.763c-0.03,14.843-0.119,29.702-0.201,44.572c-1.454,0.177-2.907,0.358-4.368,0.497
		c-17.896,1.713-36.142,0.551-53.642-3.579c-12.009-2.833-37.765-9.068-40.742-23.743c-4.186-20.632,34.161-30.716,48.059-31.283
		C504.842,759.368,521.876,762.661,538.515,766.846z M746.801,239.022c1.882,2.238,3.16,4.811,3.564,7.805
		c0.344,2.552-2.127,3.158-4.005,1.978c-29.206-18.333-67.681-28.689-101.343-36.081c-14.494,12.278-26.718,21.553-45.993,24.722
		c-19.946,3.279-36.109-1.875-51.357-14.162c-14.379,3.654-29.505,4.406-44.02,7.852c-19.207,4.559-38.218,10.705-56.182,18.891
		c-3.229,1.472-7.63-3.005-3.777-4.889c2.238-1.096,4.538-2.204,6.867-3.316c-0.104-0.139-0.207-0.277-0.292-0.437
		c-17.081-32.433-44.666-51.695-82.732-51.433c-32.924,0.226-66.319,16.486-88.953,40.057
		c-24.241,25.243-29.432,80.151-9.261,109.306c17.235,24.908,50.41,35.977,78.386,43.914c3.102-1.662,7.775,0.696,6.784,5.44
		c-7.374,35.258-10.281,74.427,2.332,108.757c0.005,0.009,0.002,0.019,0.005,0.029c0.08,0.04,0.165,0.068,0.242,0.117
		c32.297,20.372,77.511,19.517,114.365,21.972c47.443,3.161,95.131,3.541,142.625,1.342c45.83-2.122,91.468-7.02,136.718-14.599
		c39.69-6.649,77.869-14.987,113.997-32.035c1.963-34.656-4.971-67.942-17.15-100.392c-1.514-4.033,5.359-4.94,6.98-1.615
		c0.876,1.799,1.714,3.614,2.529,5.438c29.315-8.235,64.301-20.75,78.416-50.031c14.615-30.32,7.409-79.352-15.904-102.799
		C870.064,174.99,781.123,170.609,746.801,239.022z M352.75,341.387c-22.788,7.706-41.861-19.006-45.458-38.076
		c-5.587-29.633,14.847-48.898,42.15-55.832c13.924-3.536,28.989-2.752,42.054,3.462c7.954,3.782,23.197,13.38,23.23,23.816
		c0.003,1.256-0.214,2.523-0.69,3.795c-4.041,10.8-15.359,19.419-23.125,27.433C380.48,316.748,367.472,336.409,352.75,341.387z
		 M453.24,472.325c-15.529,15.476-46.984,19.298-65.312,6.532c-19.261-13.416-11.789-47.538,7.966-56.861
		c0.024-0.011,0.049-0.005,0.072-0.015c6.845-6.116,14.5-10.102,25.135-10.817c10.095-0.679,20.676,1.826,28.705,8.174
		C466.653,432.654,468.494,457.121,453.24,472.325z M448.252,400.138c-10.797-8.69-15.248-28.514-5.536-39.246
		c7.859-8.686,19.551-10.244,30.667-9.392C511.363,354.407,477.192,423.433,448.252,400.138z M586.586,495.027
		c-12.732,1.417-22.625-10.801-17.205-22.737c1.429-3.148,8.053-2.304,7.121,1.592c-1.651,6.912,3.989,12.637,10.691,11.08
		c6.897-1.601,7.071-7.232,8.543-12.809c0.787-2.979,6.157-5.565,7.723-1.664C607.793,481.291,597.065,493.861,586.586,495.027z
		 M622.904,429.332c-9.897,30.595-44.36,38.108-70.896,22.169c-23.257-13.97-21.095-51.311-11.621-73.236
		c7.863-21.429,30.571-32.226,53.672-24.352C624.786,364.387,631.822,401.768,622.904,429.332z M689.474,366.74
		c13.215-11.796,31.322-16.346,44.039-28.529c3.46-3.315,9.342,1.062,6.05,4.908c-8.596,10.044-19.702,16.237-30.26,23.386
		c14.203,1.066,28.971,2.653,41.6,7.509c4.315,1.659,2.293,8.956-1.905,9.239c-8.694,0.588-17.5-1.891-26.128-3.042
		c-9.906-1.323-19.844-2.295-29.803-3.111C688.233,376.703,685.804,370.017,689.474,366.74z M785.024,456.627
		c-14.554,16.509-44.024,20.803-63.358,10.604c-45.134-23.809,14.594-88.049,54.343-64.315
		C794.952,414.228,799.677,440.004,785.024,456.627z M891.583,303.408c-4.883,17.66-23.96,41.814-45.189,34.444
		c-13.792-4.787-26.063-23.134-35.856-33.199c-8.406-8.64-22.038-18.592-25.273-30.874c-3.426-13.008,20.792-25.653,30.507-28.833
		c14.153-4.634,29.684-3.716,43.562,1.436C884.85,255.853,899.128,276.114,891.583,303.408z M571.439,434.856
		c-0.57,2.257-1.926,4.21-4.07,5.237c-5.034,2.407-8.816-3.828-8.968-9.191c-0.124-4.349,2.138-8.125,8.054-6.253
		C570.723,426.001,572.482,430.733,571.439,434.856z M602.605,432.269c-1.359,10.201-16.344,3.128-9.798-4.976
		c0.536-0.661,0.644-1.318,0.49-1.913c1.268-1.118,2.775-1.826,4.624-1.387C601.374,424.813,603.032,429.059,602.605,432.269z"/>
	<path fill="#F498AC" d="M876.956,468.15c-0.793,0.426-1.596,0.818-2.394,1.235c0.839-3.598,1.236-7.37,1.321-11.222
		c24.562,13.653,26.618,46.931,4.651,65.764c-21.807,18.698-52.705,26.681-80.068,33.003
		c-58.324,13.476-117.806,24.157-177.407,29.925c-61.287,5.93-123.888,5.708-184.694-4.712
		c-29.762-5.099-65.292-10.233-89.706-29.199c-24.72-19.204-29.148-49.749-8.169-71.879c1.61,7.918,4.63,15.209,10.47,20.202
		c0.008,0.006,0.017,0.007,0.024,0.013c0.137,0.466,0.419,0.927,0.931,1.353c16.933,14.079,36.552,18.899,58.002,21.764
		c23.583,3.149,47.369,5.193,71.112,6.654c46.653,2.87,93.372,2.897,140.017-0.141c47.803-3.113,95.376-9.059,142.501-17.634
		c38.944-7.086,84.391-13.171,117.269-37.157C885.319,472.835,882.574,465.139,876.956,468.15z M767.399,407.676
		c-17.899-8.115-31.615,0.869-45.063,10.896c-9.961,11.078-11.378,32.596,0.983,40.96c13.899,9.404,38.588,7.123,51.352-2.983
		C792.298,442.594,787.014,416.57,767.399,407.676z M407.432,274.052c-32.19-41.158-117.247-11.395-85.796,41.803
		c4.092,6.922,11.235,14.784,19.624,16.524c13.316,2.761,22.044-10.502,29.836-18.497
		C382.362,302.321,400.914,289.146,407.432,274.052z M429.376,418.96c-14.638-2.424-25.099,4.961-35.941,13.882
		c-11.192,9.209-13.247,31.51-0.149,40.407c15.099,10.256,41.269,6.807,53.961-5.498C464.959,450.578,451.99,422.705,429.376,418.96
		z M850.919,252.68c-21.851-6.456-44.584-0.827-58.354,17.427c7.079,14.661,23.558,26.562,34.661,37.936
		c7.781,7.97,15.044,19,26.318,20.312c12.986,1.51,22.812-9.38,27.601-20.547C892.51,281.295,876.453,260.224,850.919,252.68z"/>
</g>
</svg>
