<?xml version="1.0" encoding="utf-8"?>
<!-- Generator: Adobe Illustrator 23.0.3, SVG Export Plug-In . SVG Version: 6.00 Build 0)  -->
<svg version="1.1" id="Capa_1" xmlns="http://www.w3.org/2000/svg" xmlns:xlink="http://www.w3.org/1999/xlink" x="0px" y="0px"
	 viewBox="0 0 1200 1200" enable-background="new 0 0 1200 1200" xml:space="preserve">
<g>
	<g>
		<path fill="#F6C774" d="M864.024,663.175c66.431,40.257,115.364,54.519,148.046,64l3.287,0.956
			c19.741,5.742,23.855,2.25,24.018,2.095c0.464-0.425,0.708-2.156,0.155-4.962c-1.166-5.897,0.408-11.83,4.317-16.282
			c3.849-4.39,9.433-6.66,15.304-6.305c4.547,0.302,6.315-0.641,6.542-0.911c0.141-0.249,0.4-2.017-1.133-5.354
			c-2.548-5.537-2.44-11.773,0.296-17.103c2.742-5.341,7.763-9.074,13.774-10.238c3.473-0.674,3.959-1.952,4.22-2.642
			c0.394-1.037-0.706-2.385-1.952-3.042c-75.397-39.871-126.106-91.117-157.194-130.56L864.024,663.175z"/>
		<path fill="#F99891" d="M600.001,579.312c-13.67,0-25.474,8.788-29.609,21.423c8.157,6.444,18.43,10.324,29.609,10.324
			c11.177,0,21.45-3.88,29.607-10.322C625.472,588.102,613.669,579.312,600.001,579.312z"/>
		<path fill="#EE726B" d="M647.886,549.717c0-2.111-1.717-3.826-3.826-3.826h-88.12c-2.109,0-3.826,1.715-3.826,3.826v13.456
			c0,8.572,2.293,16.606,6.254,23.573c8.311-14.601,23.965-24.161,41.633-24.161c17.668,0,33.32,9.56,41.631,24.163
			c3.961-6.969,6.254-15.001,6.254-23.575V549.717z"/>
		<path fill="#EE726B" d="M535.387,843.441c0-56.192-45.715-101.904-101.907-101.904c-13.809,0-27.075,2.712-39.565,8
			l84.816,185.245C513.395,917.66,535.387,882.624,535.387,843.441z"/>
		<path fill="#EE726B" d="M652.338,954.865c0,24.057,12.68,46.256,32.869,58.683l56.905-124.285
			c-6.718-2.142-13.709-3.269-20.9-3.269C683.235,885.993,652.338,916.891,652.338,954.865z"/>
		<path fill="#F6C774" d="M119.105,663.383c-1.248,0.662-2.348,2.009-1.956,3.046c0.261,0.69,0.747,1.968,4.223,2.642
			c6.007,1.164,11.028,4.892,13.772,10.234c2.736,5.329,2.844,11.565,0.298,17.107c-1.535,3.336-1.274,5.105-1.129,5.362
			c0.221,0.257,1.983,1.205,6.538,0.903c5.878-0.331,11.451,1.915,15.302,6.301c3.908,4.455,5.482,10.389,4.316,16.286
			c-0.553,2.806-0.308,4.537,0.155,4.962c0.161,0.151,4.278,3.647,24.018-2.099l3.287-0.951c32.682-9.48,81.615-23.743,148.046-64
			l-59.68-130.347C245.207,572.27,194.496,623.518,119.105,663.383z"/>
		<path fill="#F6C774" d="M1046.551,138.567c-86.807-33.139-255.843-71.84-446.55-71.84c-190.708,0-359.745,38.701-446.552,71.84
			c-31.757,12.124-49.737,46.37-40.935,77.962c9.278,33.311,41.458,38.954,49.062,39.828c21.186-8.225,214.618-80.8,438.425-80.8
			c223.862,0,417.339,72.612,438.442,80.804c7.72-0.841,39.714-6.33,49.043-39.828
			C1096.288,184.933,1078.308,150.692,1046.551,138.567z"/>
		<path fill="#D37433" d="M174.119,269.484l35.67,77.907c20.411,7.506,38.555-9.201,58.349-30.219
			c23.961-25.437,48.092-31.832,83.277-22.052c3.093,0.858,6.019,1.699,8.804,2.499c29.082,8.359,37.864,10.887,60.055-14.693
			c19.551-22.534,48.23-15.032,69.17-9.552l1.109,0.286c25.546,6.681,41.431,6.832,57.39-10.854
			c13.795-15.289,32.288-23.71,52.073-23.71c19.763,0,38.246,8.421,52.045,23.714c15.951,17.678,31.845,17.527,57.388,10.85
			l1.109-0.286c20.939-5.48,49.621-12.978,69.17,9.552c22.195,25.584,30.971,23.057,60.055,14.693
			c2.785-0.8,5.711-1.642,8.802-2.499c35.187-9.793,59.318-3.389,83.279,22.052c19.797,21.019,37.941,37.748,58.347,30.223
			l35.67-77.907c-39.789-14.807-219.761-77.204-425.878-77.204C393.75,192.284,213.89,254.679,174.119,269.484z"/>
		<path fill="#F9CD50" d="M919.685,328.639c-19.792-21.019-37.223-25.568-66.623-17.405c-3.04,0.845-5.919,1.674-8.657,2.462
			c-30.007,8.621-48.124,13.84-77.313-19.81c-11.824-13.623-29.137-10.393-52.302-4.333l-1.115,0.294
			c-24.467,6.391-50.336,10.434-74.033-15.832c-10.585-11.732-24.657-18.193-39.626-18.193c-14.989,0-29.072,6.46-39.655,18.189
			c-23.698,26.274-49.568,22.232-74.037,15.832l-1.113-0.29c-23.169-6.06-40.48-9.303-52.302,4.333
			c-29.186,33.65-47.303,28.435-77.312,19.81c-2.738-0.788-5.617-1.617-8.659-2.462c-29.39-8.163-46.83-3.61-66.621,17.405
			c-14.65,15.555-35.287,37.464-60.445,37.468c-0.511,0-1.036-0.067-1.552-0.086l168.635,368.31
			c14.63-6.224,30.536-9.521,46.527-9.521c65.415,0,118.633,53.219,118.633,118.631c0,45.786-25.798,86.705-66.418,106.55
			l71.268,155.652c7.804,17.045,24.294,27.63,43.036,27.63c18.744,0,35.236-10.585,43.04-27.63l35.167-76.806
			c-26.103-15.216-42.595-43.385-42.595-73.972c0-47.199,38.401-85.598,85.6-85.598c9.623,0,18.976,1.58,27.916,4.672
			l232.53-507.864C955.807,366.986,934.629,344.51,919.685,328.639z M413.13,517.895c-27.056,0-48.988-21.464-48.988-47.939
			c0-26.477,21.932-47.938,48.988-47.938c27.053,0,48.986,21.462,48.986,47.938C462.116,496.431,440.184,517.895,413.13,517.895z
			 M600.001,627.785c-17.327,0-33.049-6.891-44.664-18.034c-0.047-0.043-0.096-0.084-0.142-0.129
			c-12.187-11.759-19.808-28.218-19.808-46.45v-13.456c0-11.332,9.221-20.553,20.553-20.553h88.12
			c11.332,0,20.553,9.221,20.553,20.553v13.456c0,18.228-7.616,34.683-19.796,46.44c-0.059,0.057-0.122,0.11-0.182,0.165
			C633.024,620.904,617.315,627.785,600.001,627.785z M656.25,788.875c-9.378,0-16.982-7.604-16.982-16.984
			c0-9.378,7.604-16.982,16.982-16.982c9.379,0,16.982,7.604,16.982,16.982C673.232,781.271,665.629,788.875,656.25,788.875z
			 M786.873,517.895c-27.055,0-48.988-21.464-48.988-47.939c0-26.477,21.932-47.938,48.988-47.938
			c27.053,0,48.986,21.462,48.986,47.938C835.859,496.431,813.926,517.895,786.873,517.895z"/>
		<path fill="#913D58" d="M1052.517,122.943C964.381,89.293,792.984,50,600.001,50c-192.985,0-364.382,39.293-452.518,72.943
			c-39.738,15.167-62.178,58.25-51.083,98.078c9.998,35.892,41.609,48.99,60.788,51.665l111.245,242.97
			c-29.406,38.838-79.84,92.063-157.144,132.941c-9.072,4.79-13.184,14.787-9.78,23.763c1.85,4.876,6.244,11.112,16.684,13.137
			c1.217,0.233,1.799,0.919,2.072,1.454c0.27,0.523,0.484,1.376-0.02,2.475c-3.804,8.274-3.704,16.024,0.284,21.823
			c2.854,4.153,8.884,8.931,21.407,8.122c0.686-0.053,1.233,0.176,1.646,0.641c0.267,0.306,0.684,0.972,0.48,2.009
			c-2.175,11.001,1.664,17.241,5.266,20.541c4.067,3.724,9.666,5.578,17.098,5.578c6.266,0,13.838-1.319,22.889-3.953l3.275-0.947
			c33.268-9.652,82.942-24.126,150.396-64.755l198.77,434.125c10.56,23.061,32.878,37.39,58.244,37.39c0.002,0,0,0,0.002,0
			c25.364,0,47.685-14.33,58.246-37.39l198.768-434.125c67.454,40.629,117.128,55.103,150.396,64.755l3.275,0.952
			c9.054,2.63,16.621,3.949,22.889,3.949c7.43,0,13.033-1.854,17.098-5.578c3.602-3.3,7.441-9.54,5.266-20.541
			c-0.204-1.037,0.212-1.703,0.48-2.009c0.417-0.466,0.968-0.69,1.648-0.641c12.529,0.813,18.55-3.965,21.407-8.122
			c3.986-5.799,4.088-13.546,0.284-21.823c-0.504-1.099-0.29-1.952-0.022-2.475c0.276-0.535,0.856-1.221,2.075-1.454
			c10.438-2.026,14.832-8.261,16.68-13.133c3.408-8.98-0.704-18.973-9.774-23.763c-77.313-40.886-127.743-94.109-157.147-132.947
			l111.244-242.968c19.179-2.675,50.79-15.773,60.788-51.665C1114.695,181.193,1092.258,138.11,1052.517,122.943z M187.93,727.174
			l-3.287,0.951c-19.741,5.746-23.857,2.25-24.018,2.099c-0.464-0.425-0.709-2.156-0.155-4.962
			c1.166-5.897-0.408-11.83-4.316-16.286c-3.851-4.386-9.423-6.632-15.302-6.301c-4.555,0.302-6.317-0.645-6.538-0.903
			c-0.145-0.257-0.406-2.026,1.129-5.362c2.546-5.542,2.438-11.777-0.298-17.107c-2.744-5.341-7.765-9.07-13.772-10.234
			c-3.475-0.674-3.961-1.952-4.223-2.642c-0.392-1.037,0.709-2.385,1.956-3.046c75.391-39.865,126.101-91.113,157.191-130.556
			l59.68,130.347C269.544,703.432,220.612,717.694,187.93,727.174z M393.915,749.537c12.49-5.288,25.756-8,39.565-8
			c56.192,0,101.907,45.713,101.907,101.904c0,39.183-21.992,74.219-56.655,91.34L393.915,749.537z M685.206,1013.547
			c-20.189-12.427-32.869-34.626-32.869-58.683c0-37.974,30.897-68.872,68.874-68.872c7.191,0,14.183,1.127,20.9,3.269
			L685.206,1013.547z M1080.899,663.387c1.246,0.657,2.346,2.005,1.952,3.042c-0.261,0.69-0.747,1.968-4.22,2.642
			c-6.011,1.164-11.032,4.896-13.774,10.238c-2.736,5.329-2.844,11.565-0.296,17.103c1.533,3.336,1.274,5.105,1.133,5.354
			c-0.227,0.27-1.995,1.213-6.542,0.911c-5.87-0.355-11.455,1.915-15.304,6.305c-3.908,4.451-5.482,10.385-4.317,16.282
			c0.553,2.806,0.308,4.537-0.155,4.962c-0.163,0.155-4.278,3.647-24.018-2.095l-3.287-0.956c-32.682-9.48-81.615-23.743-148.046-64
			l59.681-130.347C954.792,572.27,1005.501,623.516,1080.899,663.387z M749.127,873.938c-8.94-3.091-18.293-4.672-27.916-4.672
			c-47.199,0-85.6,38.399-85.6,85.598c0,30.587,16.492,58.756,42.595,73.972l-35.167,76.806c-7.804,17.045-24.296,27.63-43.04,27.63
			c-18.742,0-35.232-10.585-43.036-27.63l-71.268-155.652c40.62-19.845,66.418-60.763,66.418-106.55
			c0-65.413-53.219-118.631-118.633-118.631c-15.991,0-31.897,3.298-46.527,9.521l-168.635-368.31
			c0.516,0.018,1.04,0.086,1.552,0.086c25.158-0.004,45.795-21.913,60.445-37.468c19.792-21.015,37.231-25.568,66.621-17.405
			c3.042,0.845,5.921,1.674,8.659,2.462c30.009,8.625,48.126,13.84,77.312-19.81c11.822-13.635,29.133-10.393,52.302-4.333
			l1.113,0.29c24.469,6.399,50.34,10.442,74.037-15.832c10.583-11.728,24.666-18.189,39.655-18.189
			c14.969,0,29.041,6.46,39.626,18.193c23.698,26.266,49.566,22.223,74.033,15.832l1.115-0.294
			c23.165-6.06,40.478-9.29,52.302,4.333c29.188,33.65,47.306,28.431,77.313,19.81c2.738-0.788,5.617-1.617,8.657-2.462
			c29.401-8.163,46.832-3.614,66.623,17.405c14.944,15.871,36.122,38.348,61.972,37.435L749.127,873.938z M990.209,347.395
			c-20.406,7.524-38.55-9.205-58.347-30.223c-23.961-25.441-48.092-31.845-83.279-22.052c-3.091,0.858-6.017,1.699-8.802,2.499
			c-29.084,8.363-37.86,10.891-60.055-14.693c-19.549-22.53-48.23-15.032-69.17-9.552l-1.109,0.286
			c-25.543,6.677-41.437,6.828-57.388-10.85c-13.799-15.293-32.282-23.714-52.045-23.714c-19.786,0-38.279,8.421-52.073,23.71
			c-15.959,17.686-31.845,17.535-57.39,10.854l-1.109-0.286c-20.939-5.48-49.619-12.982-69.17,9.552
			c-22.191,25.58-30.973,23.052-60.055,14.693c-2.785-0.8-5.711-1.642-8.804-2.499c-35.185-9.78-59.316-3.385-83.277,22.052
			c-19.794,21.019-37.938,37.725-58.349,30.219l-35.67-77.907c39.771-14.805,219.631-77.2,425.882-77.2
			c206.117,0,386.089,62.397,425.878,77.204L990.209,347.395z M1087.486,216.533c-9.329,33.499-41.323,38.987-49.043,39.828
			c-21.102-8.192-214.58-80.804-438.442-80.804c-223.807,0-417.239,72.575-438.425,80.8c-7.604-0.874-39.783-6.518-49.062-39.828
			c-8.802-31.591,9.178-65.837,40.935-77.962c86.807-33.139,255.843-71.84,446.552-71.84c190.706,0,359.743,38.701,446.55,71.84
			C1078.308,150.692,1096.288,184.933,1087.486,216.533z"/>
		<path fill="#913D58" d="M413.13,422.018c-27.056,0-48.988,21.462-48.988,47.938c0,26.475,21.932,47.939,48.988,47.939
			c27.053,0,48.986-21.464,48.986-47.939C462.116,443.48,440.184,422.018,413.13,422.018z"/>
		<path fill="#913D58" d="M786.873,422.018c-27.055,0-48.988,21.462-48.988,47.938c0,26.475,21.932,47.939,48.988,47.939
			c27.053,0,48.986-21.464,48.986-47.939C835.859,443.48,813.926,422.018,786.873,422.018z"/>
		<path fill="#913D58" d="M644.817,609.613c12.18-11.757,19.796-28.212,19.796-46.44v-13.456c0-11.332-9.221-20.553-20.553-20.553
			h-88.12c-11.332,0-20.553,9.221-20.553,20.553v13.456c0,18.232,7.621,34.691,19.808,46.45c0.046,0.045,0.095,0.086,0.142,0.129
			c11.615,11.142,27.337,18.034,44.664,18.034c17.314,0,33.023-6.881,44.635-18.007C644.696,609.723,644.758,609.67,644.817,609.613
			z M600.001,611.059c-11.179,0-21.452-3.88-29.609-10.324c4.135-12.635,15.939-21.423,29.609-21.423
			c13.668,0,25.471,8.79,29.607,21.425C621.451,607.179,611.178,611.059,600.001,611.059z M600.001,562.585
			c-17.668,0-33.322,9.56-41.633,24.161c-3.961-6.967-6.254-15.001-6.254-23.573v-13.456c0-2.111,1.717-3.826,3.826-3.826h88.12
			c2.109,0,3.826,1.715,3.826,3.826v13.456c0,8.574-2.293,16.606-6.254,23.575C633.321,572.145,617.669,562.585,600.001,562.585z"/>
		<path fill="#913D58" d="M656.25,754.909c-9.378,0-16.982,7.604-16.982,16.982c0,9.38,7.604,16.984,16.982,16.984
			c9.379,0,16.982-7.604,16.982-16.984C673.232,762.513,665.629,754.909,656.25,754.909z"/>
		<linearGradient id="SVGID_1_" gradientUnits="userSpaceOnUse" x1="411.581" y1="476.8624" x2="441.6036" y2="446.8397">
			<stop  offset="0" style="stop-color:#FFFFFF;stop-opacity:0"/>
			<stop  offset="0.4979" style="stop-color:#FEF7E5;stop-opacity:0.4979"/>
			<stop  offset="1" style="stop-color:#FCEEC7"/>
		</linearGradient>
		<circle fill="url(#SVGID_1_)" cx="427.214" cy="461.23" r="21.229"/>
		<linearGradient id="SVGID_2_" gradientUnits="userSpaceOnUse" x1="912.1345" y1="984.5522" x2="531.7385" y2="322.7484">
			<stop  offset="0.2049" style="stop-color:#F2A561"/>
			<stop  offset="1" style="stop-color:#F2A561;stop-opacity:0"/>
		</linearGradient>
		<path fill="url(#SVGID_2_)" d="M919.685,328.639c-19.792-21.019-37.223-25.568-66.623-17.405c-3.04,0.845-5.919,1.674-8.657,2.462
			c-30.007,8.621-48.124,13.84-77.313-19.81c-11.824-13.623-29.137-10.393-52.302-4.333l-1.115,0.294
			c-24.467,6.391-50.336,10.434-74.033-15.832c-10.585-11.732-24.657-18.193-39.626-18.193c-14.989,0-29.072,6.46-39.655,18.189
			c-23.698,26.274-49.568,22.232-74.037,15.832l-1.113-0.29c-23.169-6.06-40.48-9.303-52.302,4.333
			c-29.186,33.65-47.303,28.435-77.312,19.81c-2.738-0.788-5.617-1.617-8.659-2.462c-29.39-8.163-46.83-3.61-66.621,17.405
			c-14.65,15.555-35.287,37.464-60.445,37.468c-0.511,0-1.036-0.067-1.552-0.086l168.635,368.31
			c14.63-6.224,30.536-9.521,46.527-9.521c65.415,0,118.633,53.219,118.633,118.631c0,45.786-25.798,86.705-66.418,106.55
			l71.268,155.652c7.804,17.045,24.294,27.63,43.036,27.63c18.744,0,35.236-10.585,43.04-27.63l35.167-76.806
			c-26.103-15.216-42.595-43.385-42.595-73.972c0-47.199,38.401-85.598,85.6-85.598c9.623,0,18.976,1.58,27.916,4.672
			l232.53-507.864C955.807,366.986,934.629,344.51,919.685,328.639z M413.13,517.895c-27.056,0-48.988-21.464-48.988-47.939
			c0-26.477,21.932-47.938,48.988-47.938c27.053,0,48.986,21.462,48.986,47.938C462.116,496.431,440.184,517.895,413.13,517.895z
			 M600.001,627.785c-17.327,0-33.049-6.891-44.664-18.034c-0.047-0.043-0.096-0.084-0.142-0.129
			c-12.187-11.759-19.808-28.218-19.808-46.45v-13.456c0-11.332,9.221-20.553,20.553-20.553h88.12
			c11.332,0,20.553,9.221,20.553,20.553v13.456c0,18.228-7.616,34.683-19.796,46.44c-0.059,0.057-0.122,0.11-0.182,0.165
			C633.024,620.904,617.315,627.785,600.001,627.785z M656.25,788.875c-9.378,0-16.982-7.604-16.982-16.984
			c0-9.378,7.604-16.982,16.982-16.982c9.379,0,16.982,7.604,16.982,16.982C673.232,781.271,665.629,788.875,656.25,788.875z
			 M786.873,517.895c-27.055,0-48.988-21.464-48.988-47.939c0-26.477,21.932-47.938,48.988-47.938
			c27.053,0,48.986,21.462,48.986,47.938C835.859,496.431,813.926,517.895,786.873,517.895z"/>
		<linearGradient id="SVGID_3_" gradientUnits="userSpaceOnUse" x1="300.1202" y1="268.8048" x2="839.8818" y2="808.5665">
			<stop  offset="0.0119" style="stop-color:#FCEAA3"/>
			<stop  offset="0.3661" style="stop-color:#FBE68C;stop-opacity:0"/>
		</linearGradient>
		<path fill="url(#SVGID_3_)" d="M919.697,328.639c-19.792-21.019-37.223-25.568-66.623-17.405c-3.04,0.845-5.919,1.674-8.657,2.462
			c-30.007,8.621-48.124,13.84-77.313-19.81c-11.824-13.623-29.137-10.393-52.302-4.333l-1.115,0.294
			c-24.467,6.391-50.336,10.434-74.033-15.832c-10.585-11.732-24.657-18.193-39.626-18.193c-14.989,0-29.072,6.46-39.655,18.189
			c-23.698,26.274-49.568,22.232-74.037,15.832l-1.113-0.29c-23.169-6.06-40.48-9.303-52.302,4.333
			c-29.186,33.65-47.303,28.435-77.312,19.81c-2.738-0.788-5.617-1.617-8.659-2.462c-29.39-8.163-46.83-3.61-66.621,17.405
			c-14.65,15.555-35.287,37.464-60.445,37.468c-0.511,0-1.036-0.067-1.552-0.086l168.635,368.31
			c14.63-6.224,30.536-9.521,46.527-9.521c65.415,0,118.633,53.219,118.633,118.631c0,45.786-25.798,86.705-66.418,106.55
			l71.268,155.652c7.804,17.045,24.294,27.63,43.036,27.63c18.744,0,35.236-10.585,43.04-27.63l35.167-76.806
			c-26.103-15.216-42.595-43.385-42.595-73.972c0-47.199,38.401-85.598,85.6-85.598c9.623,0,18.976,1.58,27.916,4.672
			l232.53-507.864C955.819,366.986,934.641,344.51,919.697,328.639z M413.142,517.895c-27.055,0-48.988-21.464-48.988-47.939
			c0-26.477,21.932-47.938,48.988-47.938c27.053,0,48.986,21.462,48.986,47.938C462.128,496.431,440.196,517.895,413.142,517.895z
			 M600.013,627.785c-17.327,0-33.049-6.891-44.664-18.034c-0.047-0.043-0.096-0.084-0.142-0.129
			c-12.187-11.759-19.808-28.218-19.808-46.45v-13.456c0-11.332,9.221-20.553,20.553-20.553h88.12
			c11.332,0,20.553,9.221,20.553,20.553v13.456c0,18.228-7.616,34.683-19.796,46.44c-0.059,0.057-0.122,0.11-0.182,0.165
			C633.036,620.904,617.327,627.785,600.013,627.785z M656.262,788.875c-9.378,0-16.982-7.604-16.982-16.984
			c0-9.378,7.604-16.982,16.982-16.982c9.379,0,16.982,7.604,16.982,16.982C673.244,781.271,665.641,788.875,656.262,788.875z
			 M786.885,517.895c-27.055,0-48.988-21.464-48.988-47.939c0-26.477,21.932-47.938,48.988-47.938
			c27.053,0,48.986,21.462,48.986,47.938C835.871,496.431,813.939,517.895,786.885,517.895z"/>
		<radialGradient id="SVGID_4_" cx="599.9999" cy="161.544" r="630.6027" gradientUnits="userSpaceOnUse">
			<stop  offset="0" style="stop-color:#F6C774;stop-opacity:0"/>
			<stop  offset="0.2233" style="stop-color:#EFBA6D;stop-opacity:0.2796"/>
			<stop  offset="0.6338" style="stop-color:#DE985A;stop-opacity:0.7934"/>
			<stop  offset="0.7987" style="stop-color:#D68952"/>
		</radialGradient>
		<path fill="url(#SVGID_4_)" d="M1046.551,138.567c-86.807-33.139-255.843-71.84-446.55-71.84
			c-190.708,0-359.745,38.701-446.552,71.84c-31.757,12.124-49.737,46.37-40.935,77.962c9.278,33.311,41.458,38.954,49.062,39.828
			c21.186-8.225,214.618-80.8,438.425-80.8c223.862,0,417.339,72.612,438.442,80.804c7.72-0.841,39.714-6.33,49.043-39.828
			C1096.288,184.933,1078.308,150.692,1046.551,138.567z"/>
		<radialGradient id="SVGID_5_" cx="464.651" cy="838.1589" r="117.4377" gradientUnits="userSpaceOnUse">
			<stop  offset="0.0626" style="stop-color:#E9292A;stop-opacity:0"/>
			<stop  offset="0.1422" style="stop-color:#E7282A;stop-opacity:0.085"/>
			<stop  offset="1" style="stop-color:#D72128"/>
		</radialGradient>
		<path fill="url(#SVGID_5_)" d="M535.387,843.441c0-56.192-45.715-101.904-101.907-101.904c-13.809,0-27.075,2.712-39.565,8
			l84.816,185.245C513.395,917.66,535.387,882.624,535.387,843.441z"/>
		<radialGradient id="SVGID_6_" cx="697.2245" cy="949.7704" r="75.8628" gradientUnits="userSpaceOnUse">
			<stop  offset="0.0626" style="stop-color:#E9292A;stop-opacity:0"/>
			<stop  offset="0.1422" style="stop-color:#E7282A;stop-opacity:0.085"/>
			<stop  offset="1" style="stop-color:#D72128"/>
		</radialGradient>
		<path fill="url(#SVGID_6_)" d="M652.338,954.865c0,24.057,12.68,46.256,32.869,58.683l56.905-124.285
			c-6.718-2.142-13.709-3.269-20.9-3.269C683.235,885.993,652.338,916.891,652.338,954.865z"/>
		<radialGradient id="SVGID_7_" cx="599.9999" cy="566.3198" r="69.4288" gradientUnits="userSpaceOnUse">
			<stop  offset="0.0626" style="stop-color:#E9292A;stop-opacity:0"/>
			<stop  offset="0.1422" style="stop-color:#E7282A;stop-opacity:0.085"/>
			<stop  offset="1" style="stop-color:#D72128"/>
		</radialGradient>
		<path fill="url(#SVGID_7_)" d="M647.886,549.717c0-2.111-1.717-3.826-3.826-3.826h-88.12c-2.109,0-3.826,1.715-3.826,3.826v13.456
			c0,8.572,2.293,16.606,6.254,23.573c8.311-14.601,23.965-24.161,41.633-24.161c17.668,0,33.32,9.56,41.631,24.163
			c3.961-6.969,6.254-15.001,6.254-23.575V549.717z"/>
		<linearGradient id="SVGID_8_" gradientUnits="userSpaceOnUse" x1="785.3237" y1="476.8624" x2="815.3463" y2="446.8397">
			<stop  offset="0" style="stop-color:#FFFFFF;stop-opacity:0"/>
			<stop  offset="0.4979" style="stop-color:#FEF7E5;stop-opacity:0.4979"/>
			<stop  offset="1" style="stop-color:#FCEEC7"/>
		</linearGradient>
		<circle fill="url(#SVGID_8_)" cx="800.956" cy="461.23" r="21.229"/>
		
			<radialGradient id="SVGID_9_" cx="436.9074" cy="587.3008" r="150.2857" gradientTransform="matrix(1 0 0 0.6019 0 233.791)" gradientUnits="userSpaceOnUse">
			<stop  offset="0" style="stop-color:#DF2E2E"/>
			<stop  offset="0.5277" style="stop-color:#F04846;stop-opacity:0"/>
		</radialGradient>
		<path fill="url(#SVGID_9_)" d="M436.906,643.201c46.276,0,82.524-24.552,82.524-55.899c0-31.347-36.248-55.902-82.524-55.902
			c-46.273,0-82.521,24.554-82.521,55.902C354.385,618.65,390.633,643.201,436.906,643.201z"/>
		
			<radialGradient id="SVGID_10_" cx="763.0924" cy="587.3008" r="150.2857" gradientTransform="matrix(1 0 0 0.6019 0 233.791)" gradientUnits="userSpaceOnUse">
			<stop  offset="0" style="stop-color:#DF2E2E"/>
			<stop  offset="0.5277" style="stop-color:#F04846;stop-opacity:0"/>
		</radialGradient>
		<path fill="url(#SVGID_10_)" d="M763.091,643.201c46.276,0,82.524-24.552,82.524-55.899c0-31.347-36.248-55.902-82.524-55.902
			c-46.273,0-82.521,24.554-82.521,55.902C680.57,618.65,716.818,643.201,763.091,643.201z"/>
		<linearGradient id="SVGID_11_" gradientUnits="userSpaceOnUse" x1="1014.9772" y1="673.5526" x2="829.2444" y2="557.6902">
			<stop  offset="0" style="stop-color:#E9292A;stop-opacity:0"/>
			<stop  offset="1" style="stop-color:#D72128"/>
		</linearGradient>
		<path opacity="0.6" fill="url(#SVGID_11_)" d="M864.024,663.175c66.431,40.257,115.364,54.519,148.046,64l3.287,0.956
			c19.741,5.742,23.855,2.25,24.018,2.095c0.464-0.425,0.708-2.156,0.155-4.962c-1.166-5.897,0.408-11.83,4.317-16.282
			c3.849-4.39,9.433-6.66,15.304-6.305c4.547,0.302,6.315-0.641,6.542-0.911c0.141-0.249,0.4-2.017-1.133-5.354
			c-2.548-5.537-2.44-11.773,0.296-17.103c2.742-5.341,7.763-9.074,13.774-10.238c3.473-0.674,3.959-1.952,4.22-2.642
			c0.394-1.037-0.706-2.385-1.952-3.042c-75.397-39.871-126.106-91.117-157.194-130.56L864.024,663.175z"/>
		<linearGradient id="SVGID_12_" gradientUnits="userSpaceOnUse" x1="193.0264" y1="684.1602" x2="367.1667" y2="551.5118">
			<stop  offset="0" style="stop-color:#E9292A;stop-opacity:0"/>
			<stop  offset="1" style="stop-color:#D72128"/>
		</linearGradient>
		<path opacity="0.6" fill="url(#SVGID_12_)" d="M119.105,663.383c-1.248,0.662-2.348,2.009-1.956,3.046
			c0.261,0.69,0.747,1.968,4.223,2.642c6.007,1.164,11.028,4.892,13.772,10.234c2.736,5.329,2.844,11.565,0.298,17.107
			c-1.535,3.336-1.274,5.105-1.129,5.362c0.221,0.257,1.983,1.205,6.538,0.903c5.878-0.331,11.451,1.915,15.302,6.301
			c3.908,4.455,5.482,10.389,4.316,16.286c-0.553,2.806-0.308,4.537,0.155,4.962c0.161,0.151,4.278,3.647,24.018-2.099l3.287-0.951
			c32.682-9.48,81.615-23.743,148.046-64l-59.68-130.347C245.207,572.27,194.496,623.518,119.105,663.383z"/>
		<linearGradient id="SVGID_13_" gradientUnits="userSpaceOnUse" x1="218.3185" y1="694.5477" x2="1336.7618" y2="694.5477">
			<stop  offset="0.0642" style="stop-color:#FFFFFF;stop-opacity:0"/>
			<stop  offset="0.1232" style="stop-color:#F9E4D5;stop-opacity:0.0682"/>
			<stop  offset="0.1846" style="stop-color:#F5CDB1;stop-opacity:0.1391"/>
			<stop  offset="0.2496" style="stop-color:#F1B994;stop-opacity:0.2141"/>
			<stop  offset="0.3181" style="stop-color:#EEAB7D;stop-opacity:0.2932"/>
			<stop  offset="0.3918" style="stop-color:#ECA06D;stop-opacity:0.3783"/>
			<stop  offset="0.4742" style="stop-color:#EA9A63;stop-opacity:0.4736"/>
			<stop  offset="0.5837" style="stop-color:#EA9860;stop-opacity:0.6"/>
		</linearGradient>
		<path opacity="0.4" fill="url(#SVGID_13_)" d="M919.685,328.639c-19.792-21.019-37.223-25.568-66.623-17.405
			c-3.04,0.845-5.919,1.674-8.657,2.462c-30.007,8.621-48.124,13.84-77.313-19.81c-11.824-13.623-29.137-10.393-52.302-4.333
			l-1.115,0.294c-24.467,6.391-50.336,10.434-74.033-15.832c-10.585-11.732-24.657-18.193-39.626-18.193
			c-14.989,0-29.072,6.46-39.655,18.189c-23.698,26.274-49.568,22.232-74.037,15.832l-1.113-0.29
			c-23.169-6.06-40.48-9.303-52.302,4.333c-29.186,33.65-47.303,28.435-77.312,19.81c-2.738-0.788-5.617-1.617-8.659-2.462
			c-29.39-8.163-46.83-3.61-66.621,17.405c-14.65,15.555-35.287,37.464-60.445,37.468c-0.511,0-1.036-0.067-1.552-0.086
			l168.635,368.31c14.63-6.224,30.536-9.521,46.527-9.521c65.415,0,118.633,53.219,118.633,118.631
			c0,45.786-25.798,86.705-66.418,106.55l71.268,155.652c7.804,17.045,24.294,27.63,43.036,27.63
			c18.744,0,35.236-10.585,43.04-27.63l35.167-76.806c-26.103-15.216-42.595-43.385-42.595-73.972
			c0-47.199,38.401-85.598,85.6-85.598c9.623,0,18.976,1.58,27.916,4.672l232.53-507.864
			C955.807,366.986,934.629,344.51,919.685,328.639z M413.13,517.895c-27.056,0-48.988-21.464-48.988-47.939
			c0-26.477,21.932-47.938,48.988-47.938c27.053,0,48.986,21.462,48.986,47.938C462.116,496.431,440.184,517.895,413.13,517.895z
			 M600.001,627.785c-17.327,0-33.049-6.891-44.664-18.034c-0.047-0.043-0.096-0.084-0.142-0.129
			c-12.187-11.759-19.808-28.218-19.808-46.45v-13.456c0-11.332,9.221-20.553,20.553-20.553h88.12
			c11.332,0,20.553,9.221,20.553,20.553v13.456c0,18.228-7.616,34.683-19.796,46.44c-0.059,0.057-0.122,0.11-0.182,0.165
			C633.024,620.904,617.315,627.785,600.001,627.785z M656.25,788.875c-9.378,0-16.982-7.604-16.982-16.984
			c0-9.378,7.604-16.982,16.982-16.982c9.379,0,16.982,7.604,16.982,16.982C673.232,781.271,665.629,788.875,656.25,788.875z
			 M786.873,517.895c-27.055,0-48.988-21.464-48.988-47.939c0-26.477,21.932-47.938,48.988-47.938
			c27.053,0,48.986,21.462,48.986,47.938C835.859,496.431,813.926,517.895,786.873,517.895z"/>
		<linearGradient id="SVGID_14_" gradientUnits="userSpaceOnUse" x1="174.1187" y1="270.7562" x2="1025.8792" y2="270.7562">
			<stop  offset="0" style="stop-color:#FDE6B9"/>
			<stop  offset="0.6399" style="stop-color:#FBD984;stop-opacity:0"/>
		</linearGradient>
		<path fill="url(#SVGID_14_)" d="M174.119,269.484l35.67,77.907c20.411,7.506,38.555-9.201,58.349-30.219
			c23.961-25.437,48.092-31.832,83.277-22.052c3.093,0.858,6.019,1.699,8.804,2.499c29.082,8.359,37.864,10.887,60.055-14.693
			c19.551-22.534,48.23-15.032,69.17-9.552l1.109,0.286c25.546,6.681,41.431,6.832,57.39-10.854
			c13.795-15.289,32.288-23.71,52.073-23.71c19.763,0,38.246,8.421,52.045,23.714c15.951,17.678,31.845,17.527,57.388,10.85
			l1.109-0.286c20.939-5.48,49.621-12.978,69.17,9.552c22.195,25.584,30.971,23.057,60.055,14.693
			c2.785-0.8,5.711-1.642,8.802-2.499c35.187-9.793,59.318-3.389,83.279,22.052c19.797,21.019,37.941,37.748,58.347,30.223
			l35.67-77.907c-39.789-14.807-219.761-77.204-425.878-77.204C393.75,192.284,213.89,254.679,174.119,269.484z"/>
	</g>
	<g opacity="0.8">
		
			<linearGradient id="SVGID_15_" gradientUnits="userSpaceOnUse" x1="564.7427" y1="1030.8131" x2="747.2405" y2="746.8892" gradientTransform="matrix(0.9989 -0.0477 0.0477 0.9989 -264.386 -132.3542)">
			<stop  offset="0" style="stop-color:#FFFFFF;stop-opacity:0"/>
			<stop  offset="1" style="stop-color:#FFFFFF"/>
		</linearGradient>
		<path fill="url(#SVGID_15_)" d="M308.427,482.299c38.176,84.146,72.767,169.966,110.995,254.143
			c18.855,41.518,37.677,83.051,56.565,124.554c9.164,20.136,18.496,40.196,27.81,60.264c9.025,19.447,16.789,42.674,33.018,57.269
			c9.288,8.353,24.068,1.057,23.754-11.194c-0.526-20.537-11.832-39.682-20.24-58.047c-9.784-21.372-19.556-42.75-29.516-64.041
			c-19.348-41.357-38.695-82.713-58.043-124.07c-38.771-82.876-81.153-164.062-119.934-246.878
			C325.951,459.601,301.556,467.155,308.427,482.299L308.427,482.299z"/>
	</g>
	<g opacity="0.8">
		
			<linearGradient id="SVGID_16_" gradientUnits="userSpaceOnUse" x1="-5893.9814" y1="10294.8145" x2="-6018.2266" y2="10294.8145" gradientTransform="matrix(-0.9968 -0.0797 0.0797 -0.9968 -6056.5771 10625.5107)">
			<stop  offset="0" style="stop-color:#FFFFFF;stop-opacity:0"/>
			<stop  offset="1" style="stop-color:#FFFFFF"/>
		</linearGradient>
		<path fill="url(#SVGID_16_)" d="M654.857,981.262c22.013-49.013,44.152-97.968,65.71-147.182
			c10.497-23.965,20.995-47.929,31.492-71.893c8.994-20.533,25.284-44.846,21.309-67.835c-1.39-8.04-10.243-9.575-16.144-5.672
			c-19.055,12.599-25.992,42.601-34.696,62.769c-10.363,24.013-20.726,48.027-31.09,72.04
			c-21.264,49.272-41.942,98.792-62.747,148.26C621.696,988.381,647.588,997.448,654.857,981.262L654.857,981.262z"/>
	</g>
</g>
</svg>
