<?xml version="1.0" encoding="utf-8"?>
<!-- Generator: Adobe Illustrator 23.0.3, SVG Export Plug-In . SVG Version: 6.00 Build 0)  -->
<svg version="1.1" id="Layer_1" xmlns="http://www.w3.org/2000/svg" xmlns:xlink="http://www.w3.org/1999/xlink" x="0px" y="0px"
	 viewBox="0 0 1200 1200" enable-background="new 0 0 1200 1200" xml:space="preserve">
<g>
	<path fill="#6D3334" d="M583.515,111.02c1.439-5.673,7.226-9.111,12.881-7.67c3.33,0.841,81.856,21.452,110.451,89.534
		c19.754,47.024,10.444,104.053-27.659,169.501c-1.967,3.383-5.52,5.268-9.169,5.268c-1.814,0-3.648-0.464-5.326-1.441
		c-5.061-2.944-6.775-9.434-3.827-14.494c34.575-59.389,43.466-110.066,26.434-150.621c-24.549-58.445-95.402-77.015-96.114-77.197
		C585.511,122.462,582.076,116.694,583.515,111.02z M555.129,323.486c-29.825,27.046-60.667,55.016-50.548,96.275
		c6.945,28.309,25.721,51.608,54.3,67.378c25.206,13.91,54.316,19.592,66.753,19.592c2.22,0,3.905-0.182,4.949-0.526
		c5.553-1.851,8.556-7.856,6.705-13.413c-1.661-4.974-6.622-7.91-11.674-7.127c-0.07,0.004-0.145,0.004-0.224,0.004
		c-12.192,0-85.86-12.444-100.214-70.96c-7.111-28.989,16.666-50.548,44.197-75.515c29.637-26.877,63.23-57.34,56.298-102.781
		c-3.76-24.632-14.627-43.421-32.306-55.84c-33.351-23.431-78.621-14.859-80.537-14.486c-5.736,1.131-9.465,6.688-8.345,12.428
		s6.682,9.492,12.424,8.382c0.383-0.075,38.503-7.152,64.357,11.086c12.712,8.97,20.601,22.976,23.444,41.628
		C609.926,273.795,583.308,297.931,555.129,323.486z M452.023,521.462c2.387,0,4.791-0.803,6.771-2.452
		c4.504-3.74,5.119-10.428,1.375-14.929c-91.424-109.954,5.814-208.892,10.009-213.062c4.156-4.116,4.193-10.821,0.081-14.983
		c-4.112-4.162-10.823-4.203-14.991-0.091c-1.166,1.151-115.393,116.621-11.403,241.695
		C445.962,520.162,448.981,521.462,452.023,521.462z M1146.841,952.875c-7.57,7.574-64.777,87.566-99.054,136.214
		c-1.979,2.804-5.193,4.481-8.626,4.493l-879.988,3.396c-3.503,0-6.748-1.69-8.732-4.531l-98.53-141.001
		c-2.253-3.222-2.534-7.425-0.735-10.925c1.799-3.495,5.386-5.707,9.318-5.748c1.04-0.009,42.064-0.422,107.381-1.005
		c-38.94-92.034,42.432-183.579,66.282-207.678c-14.581-10.982-21.482-22.437-21.078-35.02c0.092-2.85,0.6-5.639,1.428-8.391
		l-44.946-32.305c-18.791,0.849-76.101,1.213-94.843-23.692c-4.622-6.141-9.018-16.582-3.717-31.428
		c13.544-37.921,55.89-40.137,85.817-34.381c-0.932-15.405,0.571-38.406,14.43-54.996c11.763-14.08,29.527-20.698,52.931-19.58
		c20.694,0.961,35.488,8.614,43.974,22.735c16.172,26.922,2.454,68.156-4.51,85.289c7.623,6.821,16.343,18.321,25.451,22.776
		c16.534,8.088,27.237,4.306,37.063,24.981c0.636,1.339,1.267,2.645,1.905,3.921c128.765-111.178,255.582-95.29,339.509-62.139
		c239.293,94.509,359.62,207.968,367.714,346.64c109.859,0.963,110.755,3.037,113.904,10.533
		C1150.858,945.011,1149.889,949.827,1146.841,952.875z"/>
	<path fill="#F9CCA0" d="M265.452,631.366c-16.989,11.109-30.873,21.46-40.086,31.956c-17.491-12.573-30.021-25.036-47.262-31.132
		c-6.673-2.358-14.051-3.764-22.696-3.853c-17.469-0.18-51.783,0.445-63.75-15.457c-1.518-2.017-2.968-5.156-0.686-11.546
		c6.197-17.343,23.876-22.464,40.645-22.682c10.426-0.137,36.319,10.026,44.326,3.479c8.171-6.68,1.598-21.93,1.863-30.519
		c0.486-15.764,7.364-33.505,21.685-41.52c14.065-7.872,41.406-6.272,50.482,8.808c7.722,12.842,4.503,30.438,1.215,44.125
		c-3.575,14.869-15.378,27.622-6.273,42.085c1.521,2.416,25.023,23.448,25.825,22.967
		C269.02,629.109,267.279,630.171,265.452,631.366z"/>
	<path fill="#DFEAE9" d="M346.118,952.407c-0.614,0.11-1.234,0.17-1.854,0.17c-0.453,0-0.899-0.087-1.348-0.145
		c-90.946,0.692-180.289,1.481-262.113,2.294l83.839,119.98l868.966-3.354c14.08-19.944,61.766-87.322,85.666-118.874
		C1037.288,948.653,681.253,949.867,346.118,952.407z M434.253,1041.928H177.026c-5.856,0-10.602-4.746-10.602-10.602
		s4.746-10.602,10.602-10.602h257.227c5.856,0,10.602,4.746,10.602,10.602S440.108,1041.928,434.253,1041.928z"/>
	<path fill="#9E7344" d="M549.082,851.549c-2.739-2.392,20.799-39.099,23.48-44.574c9.185-18.758,17.354-39.153,18.761-60.203
		c27.413,32.343,46.68,74.513,57.746,103.241C633.797,858.273,583.597,881.48,549.082,851.549z M615.156,929.728
		c5.262,0.021,61.769,2.998,62.702-0.478c1.488-19.743-15.475-41.036-21.503-59.029c-10.902,5.618-30.82,14.38-53.42,16.894
		c-1.427,0.168-7.626,28.655-7.723,31.082C594.604,933.374,600.057,929.668,615.156,929.728z M581.032,887.34
		c-13.758-1.396-27.712-5.947-40.602-15.523c-13.168,23.06-35.765,44.046-53.749,58.445c27.653-0.178,55.696-0.346,83.811-0.499
		L581.032,887.34z M515.381,808.555c-15.389-12.616-33.958-20.857-52.538-27.374c4.091,16.314,2.505,32.184-4.793,47.349
		c-2.015,4.187-4.465,8.193-7.211,12.057c23.064,10.62,35.301,41.309,40.362,57.789
		C514.408,876.656,549.256,836.324,515.381,808.555z M383.991,722.337c4.539,9.92,17.306,16.399,33.825,22.203
		c10.429-7.763,44.083-31.705,79.823-45.365c-47.233-3.065-83.347-5.798-110.6-9.266
		C381.483,703.966,380.462,714.63,383.991,722.337z M545.66,812.384c12.131-21.725,36.694-74.886,15.515-94.515
		c-5.137-4.762-12.966-7.552-24.317-7.44c-33.133,0.323-67.325,24.27-93.74,42.135c28.188,8.55,59.855,18.402,85.708,39.594
		C536.329,798.308,541.899,805.079,545.66,812.384z M286.436,878.062c-38.886-3.754-73.374,34.958-88.087,54.391
		c36.237-0.315,78.003-0.663,123.356-1.017l-16.133-19.402C296.915,901.016,290.693,889.549,286.436,878.062z M294.5,773.986
		c6.175-10.479-31.579-29.798-37.709-33.803c-9.896-6.462-26.619,21.269-31.674,27.881c-0.006,0.006,54.935,48.388,54.935,48.388
		C282.486,799.293,288.08,784.42,294.5,773.986z M280.67,856.645c-0.756-4.309-1.292-8.585-1.591-12.798l-66.318-58.4
		c-22.874,34.737-43.701,82.937-28.449,130.445C201.743,893.776,237.327,856.892,280.67,856.645z M846.91,924.421
		c1.99-25.286,10.861-78.066,49.141-115.69c-15.737-10.382-40.167-5.203-57.16-0.975c-5.982,1.489-58.53,17.847-57.873,21.354
		C783.376,841.697,799.314,916.049,846.91,924.421z M898.732,837.838c22.277,10.214,71.055,35.857,81.043,68.432
		c2.359,7.694,2.442,15.414,0.327,22.822c12.174,0.062,23.482,0.126,33.932,0.199c-3.089-47.686-20.874-92.368-53.717-134.329
		C932.071,803.675,912.402,819.618,898.732,837.838z M959.504,912.486c-7.131-23.255-49.623-46.432-72.202-56.544
		c-14.974,28.407-18.653,58.133-19.515,72.884c32.646,0.002,62.446,0.058,89.315,0.164
		C960.499,923.561,961.285,918.292,959.504,912.486z M678.364,680.454c15.379-10.811,42.443-34.718,43.97-51.55
		c-19.823-8.939-40.667-17.729-62.547-26.369c-27.175-10.732-59.165-19.526-94.39-22.11c10.164,10.771,20.134,23.961,27.706,38.747
		C606.562,623.757,650.504,646.844,678.364,680.454z M690.565,697.808c0.22,0.379,0.459,0.752,0.674,1.135
		c3.539,6.293,6.205,12.639,8.078,18.998c0.038,0.025,0.08,0.035,0.118,0.06c33.428,21.429,103.024,14.973,122.6,12.639
		c5.3-25.102,5.638-46.251,5.642-46.746c0.001-0.091,0.026-0.174,0.029-0.265c-25.841-15.631-54.366-30.84-85.667-45.632
		C734.357,665.32,700.557,690.776,690.565,697.808z M912.615,794.829c9.568-6.787,20.524-12.678,33.051-17.315
		c-25.36-28.204-57.796-55.155-97.385-80.953c-1.485,20.191-6.74,60.694-25.147,92.803
		C851.311,781.768,891.268,775.881,912.615,794.829z"/>
	<path fill="#B58555" d="M381.431,868.852c-25.386,12.861-51.473,20.942-63.43,24.295c-27.054-39.304-17.569-81.816-8.933-101.266
		c25.174,12.966,82.072,48.978,72.557,76.161C381.532,868.309,381.502,868.582,381.431,868.852z M403.516,856.096
		c27.728-18.441,50.493-47.649,34.344-81.965c-0.173-0.367-0.268-0.745-0.396-1.12c-0.716-0.217-1.453-0.445-2.164-0.661
		c-18.753-5.682-35.988-10.935-49.221-18.845l-33.466,39.799C375.276,809.033,400.097,831.495,403.516,856.096z M450.571,930.498
		c6.046-3.967,14.133-9.742,22.842-16.731c-0.027-0.108-0.074-0.207-0.098-0.317c-0.163-0.747-12.294-53.267-38.17-55.304
		c-30.904,28.299-78.11,45.415-102.792,52.933l16.754,20.145C381.617,930.978,415.652,930.732,450.571,930.498z M234.272,690.706
		c-0.523,16.275,35.557,33.575,47.054,39.801c11.33-11.202,13.446-29.602,14.477-44.721c0.239-3.508-1.709-45.603-1.99-45.51
		c-3.57,1.193-8.906,3.706-16.759,8.839C265.477,656.686,234.72,676.795,234.272,690.706z M316.996,772.121
		c3.556,1.785,9.883,5.09,17.606,9.655c11.727-13.946,23.125-28.448,35.395-41.835c-11.957-15.42-10.433-35.745-4.342-53.238
		c-25.228-4.495-40.111-10.307-47.92-18.981c-0.097-0.108-0.169-0.226-0.265-0.335c0.724,24.767-2.168,56.633-18.632,75.563
		C309.849,751.652,317.638,761.078,316.996,772.121z M597.851,722.386c31.831,0.373,55.907,21.24,77.14,42.172
		c7.365-14.525,8.356-28.97,2.951-43.999c-11.9-33.059-51.064-59.971-74.282-73.049c5.128,22.029,3.446,46.08-10.431,70.256
		C594.792,719.276,596.331,720.819,597.851,722.386z M808.388,928.868c-15.648,0.025-34.558-49.322-38.756-61
		c-2.588-7.197-3.436-20.893-7.82-26.889c-1.554-2.124-20.267-11.376-20.754-6.477c-4.905,30.577-35.559,61.777-46.254,71.853
		c2.543,7.595,4.277,15.536,4.121,22.812C737.841,929.022,774.41,928.92,808.388,928.868z M761.607,813.005
		c29.204-5.669,45.482-32.581,54.579-60.377c-9.744,0.961-23.605,1.965-39.091,1.965c-24.27,0-52.453-2.468-74.724-11.432
		c-0.653,12.55-4.547,24.961-11.734,36.942C712.095,801.105,733.431,818.473,761.607,813.005z M685.8,885.408
		c13.505-13.958,33.291-38.255,34.647-56.861c-20.588-9.16-37.68-26.258-53.492-42.079c-15.424-15.432-30.309-30.268-47.155-37.805
		c37.761,51.958,57.252,115.671,60.477,126.825C681.584,877.656,683.592,881.143,685.8,885.408z M463.468,675.648
		c16.264,1.151,33.029,2.218,49.688,3.276c23.891,1.518,45.06,10.86,63.615,24.734c30.917-60.187-31.78-114.534-43.235-123.761
		c-8.839,0.342-17.831,1.097-26.965,2.352c-0.351,0.178-0.683,0.383-1.06,0.524c-52.54,19.7-42.545,88.962-42.094,91.902
		C463.468,675.002,463.448,675.323,463.468,675.648z M459.544,592.954c-37.487,11.97-76.522,32.977-115.81,66.508
		c18.206,6.845,55.223,11.167,98.209,14.577C439.406,652.607,441.772,618.849,459.544,592.954z"/>
</g>
</svg>
