<?xml version="1.0" encoding="utf-8"?>
<!-- Designed by Vexels.com - 2019 All Rights Reserved - https://vexels.com/terms-and-conditions/  -->
<svg version="1.1" id="Capa_1" xmlns="http://www.w3.org/2000/svg" xmlns:xlink="http://www.w3.org/1999/xlink" x="0px" y="0px"
	 viewBox="0 0 1200 1200" enable-background="new 0 0 1200 1200" xml:space="preserve">
<g>
	<path fill="#52B252" d="M499.31,698.016c-8.23-20.508-23.672-36.933-34.197-56.193c-2.537-4.642-4.575-9.408-6.432-14.254
		c-13.507-4.435-27.737-11.156-31.383-14.977c-2.257-2.365-4.409-4.997-7.39-6.345c-4.331-1.956-9.547,1.072-14.081,2.839
		c12.63,20.791,25.391,41.482,40.854,60.332c14.846,18.097,31.254,34.414,42.528,55.166c7.522,13.845,13.182,28.573,18.254,43.487
		C508.441,744.205,508.198,720.163,499.31,698.016z M529.064,899.884c-1.687-14.09-2.58-28.306-6.231-42.459
		c-4.483-17.374-14.557-33.061-25.326-47.7c7.374,13.419,13.268,27.637,18.247,42.127
		C521.162,867.591,525.473,883.647,529.064,899.884z M246.649,293.923c6.488,8.086,10.333,17.804,13.048,27.732
		c5.303,19.395,6.301,39.736,13.763,58.566c8.521,21.502,22.754,40.206,29.346,62.56c7.035,23.854,7.592,47.181,25.285,66.396
		c5.642,6.128,11.473,11.916,17.254,17.71c2.721-3.133,5.478-6.176,8.192-9.125c4.16-4.519,8.554-8.745,13.087-12.797
		c-0.927-3.625-2.133-7.181-3.695-10.648c-2.03-1.541-3.993-3.162-5.891-4.862c-2.301-2.286-4.306-4.787-5.686-7.742
		c-2.201-4.713-1.592-9.279-4.845-13.601c-2.026-2.692-5.316-4.493-7.394-7.278c-5.536-7.421-6.99-17.093-9.207-25.858
		c-10.149-40.126-24.327-86.874-0.562-125.048c1.282-2.059,3.091-3.31,5.014-3.913c2.773-8.041,5.902-15.986,9.215-24.038
		c-0.924-3.947-1.35-8.084-1.821-12.111c-2.775-23.74-11.238-49.981-32.838-60.216c-5.743-2.721-12.111-4.117-17.514-7.462
		c-7.136-4.418-11.856-11.749-16.514-18.73c-7.189-10.774-15.048-21.528-25.91-28.583c-10.862-7.055-25.426-9.755-36.849-3.65
		c-5.652,3.02-10.303,8.005-16.461,9.778c-6.218,1.791-12.96-0.002-19.308,1.252c-9.834,1.943-16.999,11.034-19.669,20.695
		c-2.67,9.661-1.7,19.907-0.709,29.881c2.336,23.51,5.546,48.973,22.094,65.836c2.692,2.744,5.888,5.578,6.226,9.407
		c0.275,3.111-1.45,6.008-3.1,8.66c-7.456,11.984-14.827,24.411-17.593,38.252c-2.766,13.841-0.128,29.559,10.1,39.285
		c-7.449,19.25-14.952,40.631-7.795,59.992c0.327,0.884,0.704,1.748,1.076,2.614c0.87,0.115,1.731,0.289,2.598,0.428
		c-1.061-3.738,2.755-8.086,7.759-7.254c22.453,3.737,42.833,16.972,57.501,34.198c15.98,18.766,23.405,47.045,46.157,59.034
		c15.601,8.221,27.465,11.696,38.12,26.684c1.763,2.481,3.481,4.993,5.168,7.524c2.741-5.858,6.191-11.44,10.017-16.775
		c-13.956-13.494-28.693-26.061-36.428-44.377c-10-23.679-11.307-49.311-23.267-72.508c-10.266-19.911-20.959-38.656-24.858-61.013
		c-3.407-19.537-3.122-43.589-17.197-59.233c-10.898-12.112-24.718-15.985-21.895-35.148c1.803-12.236,4.302-22.781,3.042-35.289
		c-1.205-11.966-5.264-22.818-9.507-34.016c-2.803-7.399,9.518-12.057,13.518-5.949c14.54,22.202,12.704,46.398,10.401,71.328
		C226.524,281.756,237.639,282.694,246.649,293.923z M350.964,558.685c-2.868,5.881-2.919,11.723,5.091,15.408
		c2.909,1.338,6.037,2.35,9.225,3.171C360.739,570.91,355.998,564.696,350.964,558.685z M516.664,415.937
		C516.664,415.937,516.664,415.937,516.664,415.937c5.365-1.014,9.628,2.347,11.414,6.724
		C526.293,418.282,522.029,414.921,516.664,415.937z M387.525,579.394c9.372-0.469,18.7-2.673,26.902-7.087
		c-12.151-10.78-22.77-22.886-32.943-36.049c-1.631-2.111-3.166-4.199-4.606-6.307c-5.324,4.391-10.329,9.158-14.988,14.25
		c4.154,4.667,8.159,9.511,11.878,14.722C378.546,565.618,383.097,572.465,387.525,579.394z M412.693,651.765
		c-8.303-12.756-16.102-25.8-24.039-38.714c-8.328,1.521-16.736,2.492-25.246,2.241c-1.035-0.031-2.09-0.087-3.154-0.158
		c22.848,33.88,50.409,64.201,77.761,94.448c17.341,19.176,34.673,38.401,50.968,58.459c-6.39-18.132-14.013-35.824-25.423-51.393
		C447.216,694.346,427.861,675.067,412.693,651.765z M829.781,528.877c3.944-5.29,7.672-10.691,11.291-16.152
		c-3.937,2.41-7.986,4.642-12.175,6.627c-4.56,2.16-22.95,7.864-34.413,6.712c-2.671,3.946-5.311,7.906-7.689,12.015
		c-4.487,17.026-8.333,34.259-10.595,52.058c-0.369,2.904-0.739,5.81-1.122,8.715c-0.003,0.271-0.006,0.542-0.008,0.812
		c0.414-1.205,0.828-2.411,1.284-3.598c4.362-11.35,10.737-20.713,19.213-29.361C807.928,554.096,819.062,543.252,829.781,528.877z
		 M769.957,168.346c1.382,6.488,2.105,13.174,2.661,19.783c0.126,1.499,0.255,3.01,0.395,4.521
		C774.088,184.383,772.969,176.16,769.957,168.346z M538.108,408.827c-1.853-0.868-3.785-1.595-5.8-2.126
		c-2.953-0.778-5.961-1.117-8.948-1.095c5.114,0.019,10.145,1.177,14.735,3.301C538.098,408.88,538.104,408.854,538.108,408.827z
		 M944.539,291.288c1.121-1.899,1.131-4.222,1.083-6.433c-1.854,3.02-3.605,6.096-5.234,9.235
		C942.084,293.797,943.573,292.924,944.539,291.288z M515.968,803.788c0.215,0.31,0.442,0.611,0.657,0.922
		c0.151,0.218,0.295,0.439,0.445,0.658c-0.117-1.233-0.257-2.484-0.357-3.703c-0.032,0.159-0.059,0.318-0.091,0.476
		C516.487,802.813,516.251,803.339,515.968,803.788z M1021.926,278.666c16.548-16.863,19.758-42.326,22.094-65.836
		c0.991-9.975,1.961-20.22-0.709-29.881c-2.671-9.661-9.835-18.753-19.669-20.695c-6.348-1.254-13.09,0.539-19.308-1.252
		c-6.158-1.773-10.809-6.758-16.461-9.778c-11.424-6.105-25.987-3.405-36.849,3.65c-10.862,7.055-18.721,17.809-25.91,28.583
		c-4.658,6.981-9.378,14.312-16.514,18.73c-5.403,3.345-11.771,4.741-17.514,7.462c-13.305,6.305-21.613,18.689-26.69,32.815
		c-1.602-13.294-1.7-26.83-3.874-40.065c-2.896-17.624-10.604-35.926-26.18-44.666c-4.977-2.793-10.742-4.624-14.454-8.959
		c-10.527-12.296,3.073-33.211-5.545-46.913c-7.067-11.235-23.326-9.961-36.401-12.243c-12.098-2.112-23.23-8.331-35.393-10.033
		c-11.377-1.592-25.09,2.754-29.13,13.103c-4.306-2.188-9.053-3.27-13.86-2.637c-6.731,0.886-12.829,4.933-19.612,5.242
		c-6.716,0.306-13.014-3.085-19.646-4.189c-11.394-1.895-22.894,3.306-31.266,11.453c-1.926,0.585-3.874,1.04-5.888,1.132
		c-6.402,0.292-12.404-2.941-18.725-3.992c-12.777-2.125-25.709,5.095-33.74,15.257c-8.031,10.162-12.033,22.866-15.393,35.374
		c-2.178,8.105-4.302,16.562-9.648,23.032c-0.484,0.586-1.004,1.135-1.528,1.681c7.364-1.587,13.095,8.067,5.445,12.761
		c-3.438,2.11,4.371,32.438,4.874,37.811c0.962,10.268,6.992,18.179,8.507,28.153c1.493,9.824-2.77,18.962-4.223,28.547
		c-2.59,17.09,1.511,34.118-0.495,51.072c-0.779,6.584-9.883,4.822-12.1,0.288c-5.903-12.074-4.709-31.286-3.621-44.366
		c0.668-8.036,2.523-15.556,4.207-23.378c2.033-9.443-2.271-15.476-5.229-23.975c-2.235-6.422-2.228-12.533-2.865-19.22
		c-0.779-8.168-4.597-14.67-6.391-22.475c-1.789-7.783-0.233-15.381,4.992-20.76c0.201-12.718,2.623-26.214-3.66-36.96
		c-5.742-9.82-18.032-15.685-20.48-26.795c-1.501-6.812,1.211-14.045-0.396-20.832c-2.829-11.95-17.666-17.031-29.828-15.33
		c-12.162,1.702-23.295,7.921-35.393,10.033c-13.075,2.283-29.334,1.008-36.401,12.243c-8.618,13.702,4.982,34.617-5.545,46.913
		c-3.712,4.335-9.476,6.166-14.454,8.959c-15.576,8.74-23.284,27.042-26.18,44.666c-2.048,12.464-2.276,25.19-3.631,37.733
		c11.322-22.178,30.151-40.843,56.851-39.359c21.372,1.188,34.602,19.57,36.011,39.543c0.751,10.634-4.175,21.135,1.525,31.038
		c3.206,5.57,8.526,7.758,13.609,11.68c11.092,8.559,20.332,17.888,27.745,28.036c8.206,11.234,14.121,23.495,17.741,36.861
		c2.565-0.625,5.167-1.119,7.81-1.437c6.827-0.82,17.371-3.598,20.456,4.967c0.279,0.775,0.411,1.569,0.447,2.361
		c9.646-0.496,14.618,11.628,7.43,18.298c-0.136,0.126-0.271,0.252-0.407,0.378c0.367,2.822-0.808,5.909-3.646,7.38
		c-4.899,2.541-9.858,4.792-14.819,6.993c4.248,0.694,8.388,1.92,12.331,3.607c3.573-6.499,8-12.624,9.774-19.796
		c1.264-5.111,1.094-10.462,1.883-15.668c1.942-12.814,9.328-23.532,18.474-33.014c8.446-8.757,14.377-19.811,16.379-31.811
		c1.408-8.435,5.548-16.612,11.116-23.199c9.112-10.779,21.571-18.096,33.891-24.983c2.726-1.524,5.636-3.226,6.9-6.083
		c1.555-3.516,0.128-7.541-0.903-11.245c-6.335-22.761,3.162-46.603,12.481-68.313c3.954-9.211,8.057-18.649,15.065-25.816
		c7.008-7.167,17.674-11.662,27.222-8.609c6.164,1.971,11.199,6.799,17.508,8.237c6.248,1.424,12.729-0.691,19.137-0.603
		c0.901,0.012,1.794,0.08,2.679,0.179c10.703,1.2,20.14,8.573,26.047,17.833c2.035-5.012,8.519-8.319,12.751-3.275
		c14.716,17.539,18.821,39.836,13.247,61.423c15.087,11.324,25.689,27.322,28.341,46.595c1.672,12.147-0.184,24.87-5.141,36.101
		c-2.545,5.765-5.96,11.184-10.005,16.008c-2.172,2.59-5.106,4.862-7.407,7.495c1.798,3.849,4.74,7.649,6.486,11.149
		c3.25,6.511,6.178,13.21,8.55,20.093c3.405,9.881,5.962,20.139,7.465,30.483c1.036,7.126,1.497,14.269,1.572,21.408
		c2.217-6.753,4.883-13.345,8.25-19.603c3.682-6.845,8.686-12.895,12.293-19.765c5.087-9.69,1.21-17.106-1.527-26.597
		c-4.71-16.333,4.836-24.431,7.826-39.696c2.971-15.17,1.126-30.732,9.436-44.427c4.161-6.857,16.239-2.17,13.01,5.788
		c-6.949,17.13-2.881,36.062-10.125,53.024c-3.87,9.063-6.636,12.927-3.323,23.205c1.798,5.577,3.964,10.901,4.178,16.845
		c0.454,12.583-6.612,22.414-13.045,32.568c-8.88,14.016-13.552,29.636-16.699,45.824c-4.736,24.361-7.123,49.576-16.194,72.713
		c30.441-15.146,55.111-40.667,73.258-69.527c3.922-6.237,7.548-12.633,10.94-19.149c5.229-15.34,8.959-31.13,10.945-48.231
		c1.877-16.167,4.404-31.452,9.141-46.218c-3.314-3.727-7.292-8.34-11.35-15.635c-7.426-13.351,3.622-44.614,16.823-25.138
		c2.941,4.339,3.794,9.75,5.882,14.544c0.293-0.522,0.567-1.046,0.868-1.567c5.47-9.467,11.687-18.403,18.357-26.994
		c0.038-0.046,0.053-0.105,0.093-0.15c0.02-0.023,0.047-0.034,0.067-0.056c8.419-10.823,17.573-21.088,27.048-31.034
		c6.673-7.005,18.091,1.045,11.353,8.83c-8.522,9.846-17.435,19.786-25.636,30.228c0.184,1.889,0.117,3.837-0.044,5.717
		c-0.356,4.143-0.996,8.43,0.323,12.373c5.35-3.345,7.401-9.995,11.084-15.119c3.682-5.124,11.891-8.596,15.925-3.745
		c3.393,4.081,0.741,10.187-1.998,14.734c-4.492,7.459-9.018,14.898-13.577,22.316c8.485-3.873,16.969-7.747,25.454-11.62
		c4.779-2.182,11.896-3.576,14.021,1.229c0.814,1.841,0.444,3.99-0.226,5.888c-3.74,10.599-15.287,16.11-26.058,19.319
		c-23.481,6.996-33.352,12.597-39.686,36.699c-0.689,2.621-1.356,5.25-2.063,7.871c-1.198,4.478-2.919,8.777-4.669,13.043
		c-12.57,30.643-26.199,61.026-45.245,88.35c-11.601,22.188-23.25,44.479-37.195,65.311c-14.519,21.689-33.094,37.983-50.162,57.299
		c-15.818,17.901-14.611,43.867-28.952,62.931c-6.657,8.849-15.737,16.265-20.846,26.201c-5.6,10.893-4.815,23.624-8.517,35.101
		c-3.27,10.139-9.539,17.101-16.52,24.845c-7.46,8.276-9.918,15.74-9.903,24.658c4.474-6.341,8.988-12.643,13.494-18.916
		c13.629-18.976,28.153-36.498,45.798-51.885c9.859-8.597,20.252-16.537,30.642-24.473c5.373-4.104,10.824-7.535,12.99-14.441
		c1.686-5.376,1.049-11.813,2.247-17.381c2.092-9.731,5.774-18.898,10.803-27.477c4.985-8.503,9.239-11.616,17.157-17.185
		c8.077-5.681,7.352-12.948,10.121-21.917c2.509-8.127,7.021-14.779,13.229-20.527c7.384-6.836,16.381-11.526,25.649-15.297
		c3.913-1.592,8.02-2.74,11.872-4.475c8.997-4.051,10.425-8.697,13.293-17.342c3.506-10.569,10.581-14.59,15.538-24.092
		c4.784-9.171,6.723-17.61,13.914-25.546c13.097-14.454,35.143-26.393,54.384-28.555c6.849-0.77,9.473,6.797,5.993,11.389
		c4.925-1.453,9.945-2.577,15.034-3.251c0.372-0.867,0.75-1.731,1.076-2.614c7.157-19.361-0.345-40.742-7.795-59.992
		c10.228-9.726,12.866-25.444,10.1-39.285c-2.766-13.841-10.137-26.268-17.593-38.252c-1.65-2.652-3.375-5.549-3.1-8.66
		C1016.039,284.244,1019.234,281.41,1021.926,278.666z M661.227,1020.074c-0.062-0.114-0.123-0.228-0.183-0.342
		c-6.001-11.456-4.765-25.202-3.242-38.044c1.219-10.274,2.533-20.551,4.006-30.806c-15.802,30.952-36.491,59.391-61.422,83.62
		l-0.561-7.72c-0.782-10.751,1.284-21.537,6.133-31.164c8.619-17.113,15.374-35.157,20.205-53.703
		c0.064-1.371,0.116-2.726,0.133-4.041c0.201-16.075-0.004-32.157-0.992-48.205c-2.272-36.911-10.632-71.788-21.977-106.857
		c-2.254-6.968,7.262-6.546,9.884-2.004c8.786,15.224,14.728,31.476,18.859,48.259c-0.366-5.364-0.509-10.729-0.095-16.091
		c1.359-17.583,8.484-35.449,3.421-52.342c-3.479-11.61-12.208-20.753-18.876-30.874c-3.179-4.825-5.898-10.355-7.298-15.993
		c-1.537-6.188-1.484-12.506,1.369-18.17c3.663-7.273,11.725-13.506,10.147-21.495c-0.659-3.339-2.971-6.08-5.281-8.579
		c-15.14-16.376-35.14-32.023-36.39-54.291c-0.34-6.051,0.816-12.123,0.35-18.166c-0.914-11.862-7.89-22.291-14.865-31.929
		c-2.77-3.827-5.561-7.666-8.304-11.537c-2.015-2.231-3.693-4.643-4.941-7.228c-2.494-3.764-4.904-7.574-7.047-11.516
		c-0.422-0.775-0.864-1.541-1.267-2.325c-0.48,2.853-1.05,5.706-1.738,8.558c-3.844,15.949-12.203,28.969-12.459,44.338
		c-0.238,14.308,6.781,25.156,10.465,37.704c6.672,22.723,6.331,44.273,7.597,67.531c0.237,4.351,0.329,8.014,0.448,12.002
		c0.066,2.219,0.139,4.535,0.252,7.135c0.669,15.511,0.975,23.211,0.939,41.307c-0.036,18.097-7.35,29.986-3.982,54.464
		c8.44,61.35,38.177,136.379,44.018,202.811c1.707,19.414,0.08,27.435-6.513,37.898c-3.833,6.082-23.794,19.843-24.816-14.528
		c-0.734-24.721-5.689-52.706-11.922-81.607c-0.471-2.185-0.961-4.383-1.446-6.577c-2.34,0.311-4.589-0.523-5.979-3.009
		c-0.587,0.24-1.171,0.472-1.762,0.691c1.974,12.356,3.695,24.759,5.223,37.172c0.298,2.421,0.593,4.842,0.88,7.263
		c1.523,12.843,2.759,26.588-3.242,38.044c-0.06,0.115-0.121,0.229-0.183,0.342c-8.617,15.786-22.6,9.994-23.563-7.965
		c-0.295-5.502-0.829-12.055-1.56-19.315c-0.154,3.79-0.173,7.582,0.047,11.377c0.858,14.852,5.971,30.384,17.787,39.423
		c13.498,10.325,32.229,9.866,49.026,7.282c15.451-2.377,60.282,1.004,65.401,1.455c11.821,1.041,22.914-7.171,28.822-17.463
		c1.371-2.389,2.5-4.881,3.474-7.436C673.17,1031.126,666.282,1029.336,661.227,1020.074z M597.51,840.141
		c-0.811,3.863-5.713,4.681-7.383,0.993c-11.283-24.925-14.378-53.437-21.439-79.806c-2.144-8.006,10.375-9.589,12.725-2.584
		c4.809,14.331,9.165,28.703,12.541,43.444C596.805,814.634,600.182,827.414,597.51,840.141z"/>
	<path fill="#66CC66" d="M531.756,916.974c-1.188-5.667-2.007-11.368-2.692-17.09c-3.591-16.236-7.902-32.293-13.31-48.032
		c-4.979-14.49-10.872-28.707-18.247-42.127c-3.437-4.671-6.943-9.238-10.362-13.716
		c-49.361-64.637-112.099-118.952-154.774-188.695c-1.203-0.736-2.372-1.513-3.465-2.374c-6.72-5.293-9.523-13.871-10.203-22.309
		c-8.453-15.839-18.02-31.435-34.156-38.45c-16.144-7.018-27.496-14.903-37.356-29.831c-8.296-12.559-14.219-26.662-23.71-38.432
		c-13.532-16.78-31.297-26.085-50.43-34.954c-1.994-0.924-3.065-2.249-3.465-3.659c-0.867-0.139-1.727-0.313-2.598-0.428
		c-3.924-0.519-7.876-0.848-11.845-0.87c-5.478-0.03-11.234,0.33-16.14-2.108c-8.722-4.334-11.19-15.323-16.267-23.635
		c-9.535-15.611-31.608-22.022-48.023-13.948c-23.589,11.604-28.056,43.808-22.659,69.536c8.42,40.135,9.328,74.898,32.755,108.556
		c11.721,16.841,46.494,33.779,58.215,50.619c5.085,7.305,10.441,14.862,18.228,19.172c8.348,4.621,18.32,4.879,27.6,7.098
		c26.479,6.329,47.391,28.682,74.282,32.931c8.965,1.417,18.265,0.735,26.993,3.227c7.277,2.078,13.749,6.249,20.1,10.363
		c34.07,22.074,68.141,44.147,102.211,66.221c13.589,8.804,27.348,17.784,39.052,28.858c3.682,3.483,7.173,7.161,10.375,11.122
		c10.38,12.838,17.459,28.022,23.331,43.452c0.573,1.506,1.144,3.113,1.712,4.764c6.395,18.573,12.445,45.9,17.318,73.607
		c0.021-0.007,0.042-0.016,0.063-0.023c0.607-0.211,1.209-0.435,1.818-0.641c6.444-2.181,12.898-4.351,19.431-6.249
		C527.532,918.35,529.631,917.566,531.756,916.974z M541.319,974.424c-1.528-12.413-3.249-24.816-5.223-37.172
		c-1.803,0.667-3.594,1.26-5.163,1.878c-5.667,2.231-11.333,4.444-16.99,6.699c-0.258,0.103-0.517,0.202-0.774,0.305
		c-0.5,0.2-1.003,0.391-1.502,0.592c-1.249,0.502-2.514,0.967-3.77,1.454c2.462,16.096,4.438,31.541,5.755,44.615
		c0.731,7.26,1.265,13.813,1.56,19.315c0.963,17.959,14.946,23.751,23.563,7.965c0.062-0.114,0.123-0.228,0.183-0.342
		c6.001-11.456,4.765-25.202,3.242-38.044C541.911,979.266,541.617,976.845,541.319,974.424z M517.93,437.437
		c1.429,0.053,2.963-0.21,4.571-0.866C520.893,437.228,519.358,437.491,517.93,437.437z M508.784,430.535
		c-2.034-4.988-0.852-11.289,5.58-13.915C507.93,419.243,506.749,425.546,508.784,430.535z M1125.287,396.316
		c-16.414-8.074-38.488-1.663-48.023,13.948c-5.077,8.312-7.545,19.301-16.267,23.635c-4.906,2.438-10.661,2.077-16.14,2.108
		c-3.97,0.022-7.921,0.351-11.845,0.87c-5.09,0.674-10.109,1.798-15.034,3.251c-0.515,0.68-1.158,1.296-1.947,1.809
		c-12.48,8.11-26.945,11.425-38.719,21.154c-0.943,0.779-1.785,1.577-2.616,2.378c-0.295,0.287-0.601,0.562-0.893,0.853
		c-6.947,7.07-10.079,15.036-13.623,24.576c-3.09,8.318-10.239,12.923-13.574,20.853c-3.299,7.845-3.19,14.935-9.55,21.505
		c-13.402,13.845-35.741,13.169-48.77,27.973c-11.33,12.874-5.452,32.605-22.556,41.591c-12.457,6.545-18.515,18.498-21.467,32.152
		c-1.995,9.23-1.134,18.848-5.84,27.339c-4.289,7.738-11.992,12.873-18.844,18.118c-9.69,7.417-19.353,14.875-28.558,22.894
		c-34.641,30.175-57.036,69.354-84.948,104.935c-0.089,0.521-0.17,1.046-0.262,1.566c-4.732,26.703-11.546,52.648-21.381,77.927
		c-4.066,10.45-18.343,5.167-15.226-5.448c6.252-21.284,11.926-42.897,16.24-64.705c-0.808-1.381-0.96-3.05,0.066-4.853
		c0.417-0.732,0.858-1.453,1.279-2.183c0.454-2.473,0.908-4.946,1.323-7.424c4.393-26.249,3.977-53.512,11.362-79.219
		c5.974-20.796,18.112-37.784,30.019-55.505c12.429-18.496,18.912-38.184,22.355-60.096c4.156-26.449,6.158-52.652,13.093-78.601
		c5.822-21.782,13.312-43.066,19.561-64.722c13.701-47.478,17.681-95.357-6.996-140.173c-3.748-6.808-7.459-12.397-4.256-20.215
		c3.557-8.682,13.05-13.649,17.625-22.095c12.362-22.819,5.385-50.806-16.908-64.469c-4.253-2.607-6.526-7.505-4.496-12.359
		c1.807-4.32,2.973-8.683,3.539-13.035c-0.14-1.511-0.269-3.022-0.395-4.521c-0.556-6.609-1.279-13.295-2.661-19.783
		c-1.76-4.567-4.15-8.997-7.168-13.206c-1.745-2.434-1.768-5.181-0.806-7.551c-5.907-9.26-15.344-16.633-26.047-17.833
		c-0.886-0.099-1.778-0.166-2.679-0.179c-6.408-0.088-12.889,2.027-19.137,0.603c-6.309-1.438-11.344-6.266-17.508-8.237
		c-9.547-3.053-20.214,1.443-27.222,8.609c-7.008,7.167-11.111,16.605-15.065,25.816c-9.319,21.71-18.817,45.553-12.481,68.313
		c1.031,3.703,2.458,7.729,0.903,11.245c-1.263,2.857-4.174,4.559-6.9,6.083c-12.32,6.887-24.779,14.204-33.891,24.983
		c-5.568,6.587-9.708,14.764-11.116,23.199c-2.002,12-7.933,23.054-16.379,31.811c-9.146,9.482-16.532,20.2-18.474,33.014
		c-0.789,5.206-0.619,10.557-1.883,15.668c-1.774,7.172-6.202,13.297-9.774,19.796c11.041,4.726,20.491,13.151,26.089,24.336
		c9.68,19.34,6.157,43.233-8.65,58.981c-0.111,0.118-0.233,0.221-0.344,0.338c2.942,2.269,5.288,5.273,6.567,8.978
		c-0.046-0.156-0.091-0.311-0.137-0.467c0.13,0.333,0.26,0.665,0.39,0.998c0.227,0.574,0.41,1.131,0.583,1.683
		c3.767,3.255,5.519,8.527,1.706,12.992c-21.478,25.146-60.888,36.741-92.491,26.058c-13.631-4.608-26.082-16.395-24.762-31.906
		c0.756-8.889,5.405-16.449,11.877-22.054c-7.825-11.601-8.881-29.583-6.178-44.378c-4.669,1.357-10.47-1.994-10.001-8.207
		c0.19-2.514,0.701-4.914,1.439-7.225c-2.313,1.035-5.296-0.164-5.795-2.89c-0.615-3.36,3.398-7.866,5.165-10.477
		c2.312-3.418,4.889-6.646,7.453-9.876c11.031-13.898,24.431-23.884,39.854-32.483c5.576-3.109,11.486-5.45,17.634-6.949
		c-3.62-13.366-9.535-25.627-17.741-36.861c-7.412-10.148-16.653-19.477-27.745-28.036c-5.083-3.922-10.403-6.109-13.609-11.68
		c-5.699-9.903-0.774-20.403-1.525-31.038c-1.41-19.974-14.64-38.356-36.011-39.543c-26.7-1.484-45.529,17.182-56.851,39.359
		c-1.702,3.334-3.244,6.742-4.607,10.179c-4.375,11.027-8.857,21.434-13.067,31.666c-3.314,8.053-6.442,15.997-9.215,24.038
		c6.005-1.883,13.147,2.68,9.024,9.752c-14.426,24.738-12.446,52.269-6.342,79.198c3.033,13.379,6.67,26.63,10.131,39.903
		c0.994,3.813,1.897,9.512,3.936,12.961c2.421,4.095,6.95,6.304,9.897,9.937c5.058,6.236,4.304,14.109,9.986,19.815
		c6.233,6.259,12.173,9.76,13.592,19.295c0.936,6.293,0.725,11.842,3.676,17.788c2.701,5.442,6.863,10.172,10.576,14.936
		c6.82,8.751,13.834,17.479,21.742,25.278c2.454,2.42,5.034,4.648,7.664,6.785c8.397-8.442,15.822-18.25,27.008-21.743
		c5.465-1.707,12.571-1.047,15.338,3.965c3.476,6.296-2.416,13.721-8.487,17.577c-6.071,3.856-13.543,7.519-15.061,14.549
		c12.722-5.196,25.445-10.392,38.167-15.588c2.977-1.216,6.136-2.456,9.316-1.978c3.18,0.478,6.23,3.387,5.626,6.545
		c-0.506,2.65-3.161,4.237-5.553,5.486c-9.082,4.741-18.163,9.481-27.245,14.222c8.49-1.158,17.001-2.162,25.527-3.013
		c3.815-0.381,8.788-0.013,9.92,3.65c1.173,3.797-3.034,6.917-6.598,8.674c-8.176,4.031-16.351,8.061-24.527,12.092
		c4.878-2.405,33.221,6.735,31.326,9.916c-2.233,3.748,0.087,15.975-23.706,15.942c1.326,2.759,2.75,5.495,4.398,8.184
		c6.006,9.801,12.759,19.126,18.695,28.976c24.578,40.783,23.434,87.264,14.331,132.547c0.1,1.219,0.239,2.47,0.357,3.703
		c11.232,16.346,21.269,33.093,25.341,52.766c4.797,23.171,3.34,47.367,9.696,70.261c1.479,5.329-3.532,10.545-8.27,11.174
		c0.485,2.194,0.975,4.393,1.446,6.577c6.233,28.901,11.188,56.886,11.922,81.607c1.021,34.371,20.983,20.61,24.816,14.528
		c6.593-10.462,8.221-18.484,6.513-37.898c-5.841-66.432-35.578-141.461-44.018-202.811c-3.368-24.478,3.946-36.367,3.982-54.464
		c0.036-18.097-0.271-25.797-0.939-41.307c-0.112-2.6-0.186-4.916-0.252-7.135c-0.118-3.988-0.21-7.651-0.448-12.002
		c-1.267-23.258-0.925-44.808-7.597-67.531c-3.685-12.548-10.704-23.395-10.465-37.704c0.256-15.369,8.614-28.389,12.459-44.338
		c0.688-2.852,1.258-5.706,1.738-8.558c0.403,0.784,0.845,1.55,1.267,2.325c2.143,3.942,4.553,7.752,7.047,11.516
		c-1.718-3.555-2.632-7.429-2.438-11.61c0.268-5.775,8.766-9.117,12.712-5.84c-0.266-1.989-0.197-3.93,0.458-5.552
		c1.747-4.325,7.904-4.743,10.202-0.658c1.147,2.039,1.149,4.538,2.256,6.695c1.37,2.671,3.114,5.363,4.979,7.728
		c6.668,8.458,20.157,10.669,29.011,4.609c4.839-3.312,7.299-8.941,9.126-14.37c-8.605-5.435-14.798-14.435-14.216-25.119
		c0.516-9.474,6.53-16.148,14.008-21.144c-4.724-5.815-8.094-13.077-10.628-19.928c-6.981-18.875-7.477-39.927,3.679-57.278
		c8.76-13.625,20.564-21.126,33.546-24.09c-4.528,0.223-9.085,0.434-13.741,0.209c-8.189-0.395-9.653-10.128-3.149-14.332
		c0.9-0.582,1.84-1.115,2.802-1.621c-0.115-0.575-0.216-1.156-0.216-1.77c-0.001-6.353,5.193-10.461,10.594-12.585
		c12.751-5.015,27.869-3.874,40.726,0.493c13.035,4.427,23.331,13.847,32.765,23.492c1.867,1.903,1.384,5.141-0.528,6.804
		c2.171,2.107,4.086,4.323,5.679,6.637c5.209,7.566-0.475,15.23-7.631,15.301c-1.539,3.844-6.203,7.029-10.518,5.688
		c-1.133-0.352-2.28-0.721-3.437-1.099c5.643,5.988,9.93,13.293,12.213,21.458c4.07,14.561,1.291,29.939-6.559,42.185
		c7.051,1.569,13.243,6.158,15.669,13.186c-0.046-0.157-0.091-0.314-0.137-0.471c0.479,1.3,1.097,2.565,1.331,3.942
		c0.985,5.76-0.488,10.273-3.44,13.85c-0.286,1.467-0.891,2.951-1.927,4.397c-13.412,18.711-42.934,29.238-68.318,28.791
		c0.093,0.759,0.135,1.548,0.059,2.394c-1.883,20.868-24.055,34.971-43.669,35.513c-14.069,0.389-35.222-6.389-46.321-18.678
		c2.743,3.871,5.535,7.71,8.304,11.537c6.975,9.638,13.951,20.067,14.865,31.929c0.466,6.043-0.69,12.114-0.35,18.166
		c1.25,22.267,21.25,37.915,36.39,54.291c2.31,2.499,4.621,5.241,5.281,8.579c1.578,7.989-6.484,14.222-10.147,21.495
		c-2.853,5.664-2.906,11.982-1.369,18.17c1.401,5.638,4.119,11.168,7.298,15.993c6.668,10.121,15.397,19.264,18.876,30.874
		c5.062,16.893-2.062,34.759-3.421,52.342c-0.414,5.362-0.271,10.727,0.095,16.091c3.949,16.046,6.244,32.578,7.742,49.177
		c1.655,18.335,1.981,36.782,1.805,55.182c-0.164,17.129,2.268,38.296-4.942,54.109c-2.054,4.506-6.872,2.432-8.447-1.214
		c-5.562-12.877-2.744-29.995-2.067-44.405c-4.831,18.546-11.586,36.589-20.205,53.703c-4.849,9.627-6.915,20.414-6.133,31.164
		l0.561,7.72c24.931-24.229,45.62-52.668,61.422-83.62c-1.473,10.255-2.788,20.532-4.006,30.806
		c-1.523,12.843-2.759,26.588,3.242,38.044c0.06,0.115,0.121,0.229,0.183,0.342c5.056,9.263,11.944,11.052,16.98,7.358
		c3.548-2.602,6.184-7.901,6.582-15.323c0.4-7.46,1.232-16.823,2.414-27.322c1.45-12.88,3.433-27.491,5.814-42.481
		c-2.686-1.056-5.369-2.119-8.056-3.176c-4.733-1.863-11.462-3.435-14.552-7.818c-3.224-4.573-1.493-11.089,3.281-13.849
		c5.317-3.074,11.358-0.074,16.666,1.468c2.115,0.614,4.211,1.291,6.311,1.954c4.712-25.979,10.411-51.187,16.424-68.648
		c0.569-1.651,1.139-3.257,1.712-4.764c5.872-15.43,12.95-30.614,23.331-43.452c3.203-3.961,6.693-7.639,10.375-11.122
		c11.704-11.073,25.463-20.054,39.052-28.858c34.07-22.074,68.141-44.147,102.211-66.221c6.351-4.115,12.823-8.286,20.1-10.363
		c8.727-2.492,18.028-1.811,26.993-3.227c26.891-4.249,47.803-26.602,74.282-32.931c9.28-2.218,19.252-2.477,27.6-7.098
		c7.787-4.311,13.144-11.867,18.228-19.172c11.721-16.841,46.494-33.779,58.215-50.619c23.427-33.658,24.335-68.421,32.755-108.556
		C1153.343,440.124,1148.876,407.92,1125.287,396.316z M635.945,578.422c-4.235,20.843-31.635,29.134-47.403,15.316
		c-3.755-3.29-0.718-9.369,2.96-11.024c1.939-0.872,3.717-1.768,5.871-1.853c4.302-0.169,8.89,1.716,13.167,0.107
		c5.181-1.948,8.432-8.391,11.662-12.219c2.469-2.926,7.482-2.874,10.417-0.824C636.122,570.37,636.736,574.527,635.945,578.422z
		 M656.461,766.299c-12.664-18.174-16.898-46.714-7.598-66.842c2.047-4.43,3.802-5.351,2.114-9.251
		c-0.946-2.185-4.385-4.593-5.834-6.677c-2.546-3.664-4.46-7.7-5.622-12.008c-2.772-10.274-1.194-19.858,3.393-29.218
		c2.933-5.986,14.207-1.386,12.275,5.005c-3.371,11.157-0.998,20.236,6.576,28.554c4.816,5.29,9.719,9.373,9.124,17.226
		c-0.336,4.438-2.083,6.157-4.282,10.04c-5.213,9.205-6.258,13.231-4.334,24.727c2.049,12.246,6.471,23.412,7.371,35.984
		C670.154,770.968,659.451,770.589,656.461,766.299z M538.108,408.827c-0.004,0.026-0.01,0.052-0.013,0.079
		c2.431,1.124,4.739,2.513,6.864,4.158C542.857,411.402,540.562,409.977,538.108,408.827z M516.664,415.937
		C516.664,415.937,516.664,415.937,516.664,415.937c-0.747,0.141-1.514,0.361-2.3,0.682
		C515.15,416.299,515.917,416.079,516.664,415.937z M653.9,428.867c2.26,5.773,8.277,10.085,15.677,7.065
		C662.182,438.95,656.162,434.639,653.9,428.867z M694.64,436.684c-0.185-2.242-0.614-4.427-1.217-6.547
		c1.537,5.604,1.639,11.487,0.383,17.083C694.607,443.819,694.937,440.28,694.64,436.684z M489.86,449.879
		c1.052,3.846,2.741,7.543,5.121,10.883c2.103,2.952,4.637,5.505,7.473,7.617C496.367,463.75,491.945,457.197,489.86,449.879z
		 M631.343,459.793c2.102,2.95,4.635,5.502,7.469,7.613c-6.083-4.628-10.502-11.176-12.588-18.489
		C627.276,452.761,628.965,456.455,631.343,459.793z M558.277,437.654c-0.185-2.244-0.615-4.43-1.22-6.553
		c1.54,5.608,1.643,11.495,0.385,17.095C558.245,444.793,558.574,441.252,558.277,437.654z M494.985,420.248
		c-1.023,1.44-1.877,2.963-2.654,4.518c2.62-5.113,6.465-9.553,11.17-12.871C500.243,414.146,497.335,416.939,494.985,420.248z
		 M639.857,410.932c-3.255,2.25-6.161,5.041-8.509,8.348c-1.023,1.441-1.878,2.964-2.654,4.52
		C631.312,418.689,635.154,414.25,639.857,410.932z M670.881,435.325c6.061-3.211,7.17-9.662,5.154-14.933
		C678.048,425.664,676.936,432.116,670.881,435.325z M668.671,405.732c-2.956-0.778-5.966-1.118-8.956-1.095
		c7.825,0.027,15.466,2.705,21.606,7.456C677.633,409.178,673.356,406.966,668.671,405.732z"/>
	<path fill="#449247" d="M458.981,426.038c-2.703,14.795-1.647,32.776,6.178,44.378c-6.472,5.605-11.121,13.165-11.877,22.054
		c-1.32,15.511,11.131,27.298,24.762,31.906c31.603,10.682,71.013-0.912,92.491-26.058c3.813-4.464,2.061-9.737-1.706-12.992
		c6.408,20.523-23.908,26.318-38.197,28.731c-9.862,1.665-20.063,2.346-30.066,2.157c-8.635-0.163-18.129-1.021-25.923-5.088
		c-7.668-4.002-11.098-10.771-7.472-18.988c3.388-7.676,11.912-12.4,19.278-15.678c0.577-0.257,1.159-0.472,1.741-0.699
		c-11.064-10.6-17.326-25.871-16.12-41.564c1.658-21.572,17.015-40.326,37.859-46.15c7.316-2.045,14.84-2.357,22.072-1.175
		c4.962-2.2,9.92-4.452,14.819-6.993c2.838-1.472,4.013-4.558,3.646-7.38c0.136-0.126,0.271-0.252,0.407-0.378
		c7.188-6.671,2.215-18.795-7.43-18.298c0.125,2.782-1.158,5.532-3.366,7.296c-2.984,2.384-6.548,2.182-10.148,2.242
		c-4.012,0.067-8.122-0.229-12.118,0.11c-4.219,0.357-8.415,1.758-12.416,3.06c-9.116,3.357-18.093,8.059-26.114,13.53
		c-8.051,5.491-14.548,12.747-20.793,20.153c-1.531,1.815-3.03,3.628-4.35,5.605c-0.869,1.301-1.506,3.12-2.691,4.146
		c-0.317,0.275-0.665,0.481-1.027,0.643c-0.737,2.31-1.249,4.71-1.439,7.225C448.511,424.044,454.311,427.395,458.981,426.038z
		 M339.114,460.835c2.077,2.785,5.368,4.586,7.394,7.278c3.252,4.322,2.644,8.887,4.845,13.601c1.38,2.955,3.385,5.456,5.686,7.742
		c1.898,1.7,3.862,3.321,5.891,4.862c1.562,3.466,2.768,7.022,3.695,10.648c2.291-2.048,4.608-4.066,6.971-6.027
		c5.979,7,10.816,14.73,15.375,22.606c-2.362,1.303-4.532,2.519-6.075,3.662c-2.053,1.521-4.046,3.12-6.017,4.745
		c1.44,2.108,2.974,4.196,4.606,6.307c10.173,13.163,20.792,25.268,32.943,36.049c2.585-1.391,5.091-2.933,7.409-4.783
		c0.293-0.234,0.576-0.485,0.866-0.726c1.922-1.599,3.751-3.338,5.539-5.136c-2.63-2.137-5.21-4.365-7.664-6.785
		c-7.908-7.799-14.922-16.527-21.742-25.278c-3.713-4.764-7.875-9.494-10.576-14.936c-2.95-5.945-2.739-11.495-3.676-17.788
		c-1.418-9.535-7.359-13.036-13.592-19.295c-5.682-5.705-4.928-13.579-9.986-19.815c-2.947-3.633-7.476-5.842-9.897-9.937
		c-2.039-3.449-2.942-9.148-3.936-12.961c-3.461-13.273-7.098-26.524-10.131-39.903c-6.104-26.929-8.084-54.46,6.342-79.198
		c4.124-7.072-3.019-11.635-9.024-9.752c-1.923,0.603-3.732,1.855-5.014,3.913c-23.765,38.174-9.587,84.921,0.562,125.048
		C332.125,443.742,333.578,453.414,339.114,460.835z M361.89,544.202c-1.609,1.759-3.208,3.529-4.729,5.365
		c-2.352,2.837-4.668,5.983-6.197,9.118c5.035,6.011,9.776,12.225,14.317,18.579c4.323,1.114,8.772,1.831,13.086,2.11
		c3.027,0.196,6.093,0.174,9.159,0.02c-4.427-6.93-8.979-13.776-13.757-20.471C370.05,553.712,366.044,548.869,361.89,544.202z
		 M538.614,222.735c0.638,6.687,0.63,12.799,2.865,19.22c2.957,8.499,7.261,14.532,5.229,23.975
		c-1.684,7.823-3.539,15.342-4.207,23.378c-1.088,13.08-2.282,32.291,3.621,44.366c2.217,4.534,11.321,6.296,12.1-0.288
		c2.006-16.954-2.095-33.983,0.495-51.072c1.453-9.585,5.716-18.723,4.223-28.547c-1.516-9.975-7.545-17.886-8.507-28.153
		c-0.504-5.374-8.312-35.702-4.874-37.811c7.65-4.695,1.92-14.348-5.445-12.761c-0.907,0.195-1.835,0.53-2.769,1.098
		c-1.599,0.971-2.929,2.126-4.129,3.361c-5.225,5.378-6.781,12.977-4.992,20.76C534.017,208.066,537.835,214.568,538.614,222.735z
		 M957.591,258.53c1.307,1.858,1.897,4.044,2.118,6.318c8.202-10.442,17.115-20.382,25.636-30.228
		c6.738-7.785-4.679-15.834-11.353-8.83c-9.475,9.946-18.629,20.21-27.048,31.034C949.717,253.793,955.217,255.153,957.591,258.53z
		 M940.389,294.09c1.629-3.139,3.379-6.215,5.234-9.235c-0.001-0.059,0-0.119-0.002-0.178c-0.153-6.766-0.305-13.532-0.458-20.299
		c-0.058-2.567-0.002-5.383,1.622-7.349c-6.67,8.592-12.887,17.527-18.357,26.994c-0.301,0.521-0.575,1.045-0.868,1.567
		c0.432,0.991,0.898,1.965,1.466,2.887C931.349,292.247,936.438,294.772,940.389,294.09z M916.206,311.82
		c-4.737,14.766-7.264,30.051-9.141,46.218c-1.986,17.102-5.716,32.891-10.945,48.231c9.834-18.893,17.63-38.821,24.419-59.01
		C928.19,324.509,924.084,320.68,916.206,311.82z M213.706,233.149c1.26,12.508-1.239,23.053-3.042,35.289
		c-2.823,19.163,10.997,23.037,21.895,35.148c14.075,15.644,13.79,39.696,17.197,59.233c3.899,22.357,14.592,41.101,24.858,61.013
		c11.96,23.198,13.267,48.83,23.267,72.508c7.735,18.315,22.472,30.883,36.428,44.377c3.449-4.808,7.201-9.414,11.036-13.83
		c-5.781-5.794-11.612-11.582-17.254-17.71c-17.693-19.215-18.251-42.542-25.285-66.396c-6.592-22.354-20.825-41.059-29.346-62.56
		c-7.462-18.83-8.46-39.17-13.763-58.566c-2.715-9.928-6.559-19.647-13.048-27.732c-9.01-11.229-20.125-12.167-18.531-29.411
		c2.304-24.931,4.139-49.126-10.401-71.328c-4-6.108-16.321-1.45-13.518,5.949C208.442,210.331,212.501,221.183,213.706,233.149z
		 M622.203,568.749c-3.231,3.828-6.482,10.271-11.662,12.219c-4.278,1.608-8.865-0.277-13.167-0.107
		c-2.154,0.085-3.933,0.98-5.871,1.853c-3.678,1.656-6.715,7.734-2.96,11.024c15.768,13.818,43.168,5.527,47.403-15.316
		c0.791-3.895,0.177-8.051-3.325-10.496C629.685,565.876,624.672,565.824,622.203,568.749z M662.272,727.856
		c-1.924-11.496-0.879-15.522,4.334-24.727c2.2-3.884,3.946-5.602,4.282-10.04c0.595-7.853-4.308-11.937-9.124-17.226
		c-7.574-8.319-9.948-17.397-6.576-28.554c1.931-6.391-9.342-10.991-12.275-5.005c-4.587,9.36-6.165,18.944-3.393,29.218
		c1.163,4.309,3.076,8.344,5.622,12.008c1.449,2.084,4.888,4.492,5.834,6.677c1.688,3.9-0.067,4.821-2.114,9.251
		c-9.3,20.128-5.065,48.668,7.598,66.842c2.989,4.29,13.693,4.67,13.182-2.459C668.743,751.268,664.321,740.101,662.272,727.856z
		 M1011.984,428.739c-19.24,2.163-41.287,14.101-54.384,28.555c-7.191,7.936-9.13,16.375-13.914,25.546
		c-4.957,9.502-12.032,13.523-15.538,24.092c-2.868,8.646-4.297,13.291-13.293,17.342c-3.852,1.735-7.959,2.883-11.872,4.475
		c-9.268,3.771-18.265,8.46-25.649,15.297c-6.208,5.748-10.72,12.399-13.229,20.527c-2.769,8.969-2.044,16.236-10.121,21.917
		c-7.918,5.569-12.172,8.681-17.157,17.185c-5.029,8.579-8.711,17.746-10.803,27.477c-1.197,5.568-0.561,12.005-2.247,17.381
		c-2.166,6.906-7.618,10.337-12.99,14.441c-10.39,7.937-20.783,15.876-30.642,24.473c-17.645,15.388-32.169,32.909-45.798,51.885
		c-4.506,6.274-9.02,12.576-13.494,18.916c-0.015-8.918,2.443-16.382,9.903-24.658c6.981-7.744,13.25-14.706,16.52-24.845
		c3.701-11.477,2.916-24.208,8.517-35.101c5.109-9.937,14.189-17.352,20.846-26.201c14.341-19.065,13.134-45.03,28.952-62.931
		c17.068-19.316,35.643-35.61,50.162-57.299c13.945-20.832,25.594-43.123,37.195-65.311c-13.937,19.994-31.178,38.155-51.876,50.823
		c-3.619,5.461-7.347,10.862-11.291,16.152c-10.719,14.375-21.854,25.219-34.213,37.829c-8.476,8.648-14.851,18.011-19.213,29.361
		c-0.456,1.187-0.87,2.393-1.284,3.598c0.003-0.271,0.005-0.542,0.008-0.812c0.383-2.905,0.753-5.811,1.122-8.715
		c2.262-17.799,6.107-35.032,10.595-52.058c2.378-4.11,5.017-8.07,7.689-12.015c-7.613-0.765-12.177-4.547-7.585-14.418
		c0.495-1.065,1.163-2.156,2.02-3.264c4.149-5.364,10.863-7.901,17.065-10.643c2.004-0.886,3.982-1.821,5.938-2.794
		c9.071-23.137,11.458-48.352,16.194-72.713c3.147-16.188,7.819-31.807,16.699-45.824c6.433-10.154,13.499-19.985,13.045-32.568
		c-0.214-5.944-2.38-11.268-4.178-16.845c-3.313-10.278-0.547-14.142,3.323-23.205c7.243-16.962,3.175-35.894,10.125-53.024
		c3.228-7.958-8.849-12.645-13.01-5.788c-8.31,13.695-6.465,29.257-9.436,44.427c-2.99,15.265-12.536,23.363-7.826,39.696
		c2.737,9.491,6.614,16.907,1.527,26.597c-3.607,6.87-8.611,12.921-12.293,19.765c-3.366,6.258-6.033,12.85-8.25,19.603
		c-0.076-7.139-0.537-14.281-1.572-21.408c-1.503-10.344-4.06-20.602-7.465-30.483c-2.372-6.883-5.301-13.581-8.55-20.093
		c-1.747-3.5-4.688-7.299-6.486-11.149c2.302-2.633,5.236-4.905,7.407-7.495c4.044-4.823,7.46-10.242,10.005-16.008
		c4.957-11.231,6.813-23.953,5.141-36.101c-2.653-19.273-13.254-35.271-28.341-46.595c5.574-21.587,1.469-43.884-13.247-61.423
		c-4.232-5.044-10.716-1.737-12.751,3.275c-0.962,2.37-0.939,5.117,0.806,7.551c3.018,4.209,5.408,8.64,7.168,13.206
		c3.012,7.814,4.131,16.037,3.055,24.305c-0.566,4.352-1.733,8.715-3.539,13.035c-2.03,4.854,0.243,9.752,4.496,12.359
		c22.293,13.663,29.27,41.65,16.908,64.469c-4.575,8.446-14.069,13.413-17.625,22.095c-3.203,7.817,0.507,13.407,4.256,20.215
		c24.677,44.816,20.697,92.696,6.996,140.173c-6.249,21.656-13.739,42.94-19.561,64.722c-6.936,25.948-8.937,52.152-13.093,78.601
		c-3.443,21.912-9.926,41.6-22.355,60.096c-11.908,17.721-24.045,34.709-30.019,55.505c-7.385,25.708-6.969,52.971-11.362,79.219
		c-0.415,2.478-0.87,4.951-1.323,7.424c-0.421,0.73-0.862,1.451-1.279,2.183c-1.026,1.802-0.874,3.472-0.066,4.853
		c-4.315,21.808-9.989,43.421-16.24,64.705c-3.118,10.614,11.16,15.897,15.226,5.448c9.835-25.279,16.65-51.224,21.381-77.927
		c0.092-0.52,0.173-1.045,0.262-1.566c27.911-35.581,50.307-74.76,84.948-104.935c9.206-8.019,18.868-15.477,28.558-22.894
		c6.852-5.245,14.555-10.38,18.844-18.118c4.706-8.491,3.845-18.109,5.84-27.339c2.952-13.654,9.01-25.608,21.467-32.152
		c17.104-8.986,11.226-28.716,22.556-41.591c13.028-14.804,35.368-14.128,48.77-27.973c6.36-6.57,6.251-13.66,9.55-21.505
		c3.335-7.93,10.485-12.535,13.574-20.853c3.544-9.54,6.676-17.506,13.623-24.576c0.282-0.287,0.598-0.568,0.893-0.853
		c0.832-0.801,1.673-1.599,2.616-2.378c11.774-9.729,26.239-13.043,38.719-21.154c0.789-0.513,1.432-1.129,1.947-1.809
		C1021.458,435.537,1018.834,427.969,1011.984,428.739z M281.003,523.284c-22.752-11.989-30.177-40.268-46.157-59.034
		c-14.669-17.226-35.048-30.461-57.501-34.198c-5.004-0.833-8.82,3.516-7.759,7.254c0.4,1.409,1.471,2.734,3.465,3.659
		c19.133,8.869,36.898,18.174,50.43,34.954c9.492,11.77,15.415,25.873,23.71,38.432c9.86,14.928,21.212,22.813,37.356,29.831
		c16.136,7.015,25.703,22.61,34.156,38.45c-0.208-2.579-0.234-5.147-0.092-7.602c0.636-3.691,1.637-7.276,2.886-10.776
		c0.818-2.294,1.759-4.546,2.796-6.761c-1.687-2.532-3.405-5.044-5.168-7.524C308.469,534.979,296.604,531.505,281.003,523.284z
		 M641.618,933.425c0.176-18.4-0.15-36.847-1.805-55.182c-1.499-16.599-3.793-33.131-7.742-49.177
		c-4.131-16.784-10.072-33.035-18.859-48.259c-2.622-4.542-12.138-4.964-9.884,2.004c11.344,35.069,19.705,69.945,21.977,106.857
		c0.988,16.049,1.193,32.131,0.992,48.205c-0.017,1.315-0.069,2.671-0.133,4.041c-0.677,14.409-3.495,31.528,2.067,44.405
		c1.575,3.646,6.392,5.72,8.447,1.214C643.886,971.721,641.454,950.554,641.618,933.425z M581.414,758.745
		c-2.351-7.005-14.869-5.422-12.725,2.584c7.061,26.369,10.156,54.88,21.439,79.806c1.67,3.688,6.572,2.87,7.383-0.993
		c2.672-12.727-0.705-25.507-3.556-37.953C590.578,787.448,586.222,773.076,581.414,758.745z M542.411,858.134
		c-4.073-19.673-14.11-36.421-25.341-52.766c-0.15-0.219-0.294-0.439-0.445-0.658c-0.214-0.311-0.442-0.611-0.657-0.922
		c0.283-0.449,0.519-0.976,0.654-1.647c0.032-0.159,0.059-0.318,0.091-0.476c9.102-45.283,10.247-91.763-14.331-132.547
		c-5.936-9.85-12.689-19.175-18.695-28.976c-1.648-2.689-3.071-5.425-4.398-8.184c-0.011,0-0.019,0.001-0.029,0.001
		c-5.138-0.01-12.738-1.818-20.579-4.392c1.857,4.846,3.895,9.612,6.432,14.254c10.525,19.261,25.967,35.685,34.197,56.193
		c8.888,22.148,9.131,46.189,8.155,70.054c-5.072-14.914-10.732-29.642-18.254-43.487c-11.275-20.752-27.683-37.07-42.528-55.166
		c-15.463-18.849-28.224-39.541-40.854-60.332c-0.929,0.362-1.831,0.675-2.689,0.877c-4.804,1.131-9.631,2.202-14.484,3.089
		c7.937,12.914,15.736,25.957,24.039,38.714c15.168,23.302,34.523,42.581,50.867,64.883c11.41,15.569,19.033,33.261,25.423,51.393
		c-16.296-20.058-33.627-39.284-50.968-58.459c-27.353-30.246-54.913-60.568-77.761-94.448c-3.585-0.24-7.301-0.712-10.984-1.474
		c-5.996-1.241-11.874-3.272-16.9-6.345c42.675,69.742,105.413,124.057,154.774,188.695c3.42,4.478,6.926,9.045,10.362,13.716
		c10.77,14.639,20.844,30.326,25.326,47.7c3.651,14.152,4.544,28.368,6.231,42.459c0.685,5.722,1.504,11.423,2.692,17.09
		c3.529-0.982,7.129-1.43,10.448,0.488c4.774,2.76,6.505,9.276,3.281,13.849c-1.729,2.453-4.605,4.013-7.627,5.249
		c1.39,2.486,3.64,3.319,5.979,3.009c4.738-0.629,9.75-5.845,8.27-11.174C545.752,905.501,547.208,881.305,542.411,858.134z
		 M646.238,532.766c0.076-0.847,0.034-1.635-0.059-2.394c25.384,0.447,54.906-10.08,68.318-28.791
		c1.036-1.445,1.641-2.93,1.927-4.397c-8.125,9.845-27.559,12.545-38.602,14.181c-9.825,1.456-20.14,1.972-30.064,1.481
		c-7.881-0.39-16.69-1.505-23.603-5.609c-7.448-4.422-9.824-11.53-5.825-19.379c1.832-3.597,4.888-6.554,8.387-9.004
		c-0.995-0.803-1.969-1.641-2.909-2.525c-15.965-15.012-20.728-39.16-11.764-59.132c8.869-19.762,29.737-32.231,51.361-30.569
		c13.122,1.008,25.181,7.107,33.942,16.404c1.157,0.378,2.305,0.747,3.437,1.099c4.315,1.341,8.979-1.843,10.518-5.688
		c7.156-0.071,12.84-7.735,7.631-15.301c-1.593-2.314-3.508-4.53-5.679-6.637c-0.253,0.22-0.527,0.419-0.828,0.577
		c-3.275,1.716-5.496-0.963-7.68-2.942c-5.45-4.94-13.613-6.615-20.643-7.933c-7.277-1.364-14.693-2.042-22.082-2.474
		c-3.648-0.214-7.267-0.499-10.875,0.221c-3.412,0.681-6.385,2.281-9.673,3.19c-5.218,1.442-10.532-1.953-11.56-7.072
		c-0.961,0.506-1.901,1.039-2.802,1.621c-6.504,4.203-5.04,13.937,3.149,14.332c4.656,0.224,9.213,0.014,13.741-0.209
		c-12.982,2.964-24.786,10.464-33.546,24.09c-11.156,17.352-10.66,38.403-3.679,57.278c2.534,6.852,5.904,14.113,10.628,19.928
		c-7.479,4.997-13.493,11.671-14.008,21.144c-0.581,10.684,5.612,19.684,14.216,25.119c0.012-0.034,0.025-0.069,0.036-0.103
		c0.872-2.602,1.011-5.602,3.134-7.547c1.951-1.787,4.775-2.398,7.284-1.516c7.916,2.812,3.772,13.051,1.5,18.361
		c-2.942,6.878-6.885,13.181-12.938,17.744c-13.617,10.264-31.13,8.572-43.114-3.192c0.328,0.341,0.647,0.682,0.997,1.021
		c-0.442-0.439-0.882-0.879-1.321-1.321c0.105,0.106,0.218,0.196,0.324,0.3c-3.912-4.063-6.387-8.295-9.025-13.407
		c-1.199-2.323-2.486-5.619-2.91-8.793c-3.946-3.276-12.444,0.065-12.712,5.84c-0.194,4.181,0.721,8.054,2.438,11.61
		c1.248,2.585,2.927,4.997,4.941,7.228c11.099,12.289,32.252,19.067,46.321,18.678C622.183,567.737,644.355,553.634,646.238,532.766
		z"/>
	<path fill="#FFB3B3" d="M540.825,470.756c0.213-0.124,0.428-0.246,0.639-0.375C541.251,470.508,541.039,470.634,540.825,470.756z"
		/>
	<path fill="#FFB3B3" d="M657.572,474.331c3.872,0.269,7.809-0.079,11.645-1.151c2.336-0.653,4.547-1.572,6.644-2.673
		C670.23,473.389,663.881,474.709,657.572,474.331z"/>
	<path fill="#FFB3B3" d="M682.791,484.979c-18.185,9.102-40.394,6.525-56.074-6.125c-3.498,2.45-6.554,5.407-8.387,9.004
		c-3.998,7.849-1.623,14.957,5.825,19.379c6.912,4.104,15.721,5.219,23.603,5.609c9.923,0.491,20.239-0.025,30.064-1.481
		c11.044-1.636,30.477-4.336,38.602-14.181c2.952-3.578,4.425-8.09,3.44-13.85c-0.235-1.377-0.853-2.642-1.331-3.942
		c0.046,0.157,0.091,0.314,0.137,0.471c-2.426-7.029-8.618-11.617-15.669-13.186C698.101,474.321,691.237,480.752,682.791,484.979z"
		/>
	<path fill="#FFB3B3" d="M677.823,469.415c-0.21,0.125-0.42,0.25-0.632,0.371C677.402,469.662,677.614,469.542,677.823,469.415z"/>
	<path fill="#FFB3B3" d="M502.639,485.56c-5.421-2.433-10.267-5.794-14.449-9.801c-0.581,0.227-1.164,0.442-1.741,0.699
		c-7.366,3.278-15.89,8.003-19.278,15.678c-3.626,8.216-0.196,14.986,7.472,18.988c7.794,4.067,17.288,4.926,25.923,5.088
		c10.004,0.189,20.204-0.492,30.066-2.157c14.289-2.413,44.605-8.208,38.197-28.731c-0.173-0.552-0.356-1.109-0.583-1.683
		c-0.13-0.332-0.26-0.665-0.39-0.998c0.046,0.156,0.091,0.312,0.137,0.467c-1.279-3.706-3.625-6.709-6.567-8.978
		C546.391,489.818,522.464,494.46,502.639,485.56z"/>
	<path fill="#FFB3B3" d="M521.217,475.299c3.87,0.268,7.805-0.081,11.638-1.153c2.336-0.653,4.548-1.572,6.645-2.674
		C533.872,474.355,527.525,475.676,521.217,475.299z"/>
	<path fill="#FFFFFF" d="M516.664,415.937c-0.747,0.141-1.514,0.362-2.3,0.682c-6.431,2.627-7.613,8.928-5.58,13.915
		c1.526,3.741,4.861,6.743,9.146,6.903c1.428,0.053,2.963-0.21,4.571-0.866c6.429-2.626,7.611-8.924,5.578-13.911
		C526.293,418.284,522.029,414.923,516.664,415.937z"/>
	<path fill="#FFFFFF" d="M653.9,428.867c2.262,5.772,8.281,10.083,15.677,7.065c0.458-0.187,0.892-0.39,1.304-0.608
		c6.055-3.209,7.168-9.661,5.154-14.933c-2.091-5.467-7.545-9.666-14.362-7.653c-0.446,0.132-0.899,0.29-1.356,0.477
		c-0.915,0.373-1.737,0.812-2.47,1.305C652.782,417.928,651.968,423.931,653.9,428.867z"/>
	<path fill="#FFFFFF" d="M509.929,388.046c-20.845,5.824-36.202,24.578-37.859,46.15c-1.206,15.693,5.056,30.963,16.12,41.564
		c4.182,4.007,9.028,7.367,14.449,9.801c19.826,8.899,43.752,4.258,58.787-11.427c0.112-0.116,0.234-0.22,0.344-0.338
		c14.807-15.748,18.33-39.641,8.65-58.981c-5.598-11.185-15.048-19.61-26.089-24.336c-3.943-1.688-8.082-2.913-12.331-3.607
		C524.769,385.689,517.245,386.001,509.929,388.046z M538.108,408.827c2.454,1.15,4.749,2.575,6.85,4.237
		c0.281,0.217,0.55,0.449,0.825,0.675c0.323,0.272,0.646,0.542,0.959,0.825c3.227,2.859,5.968,6.315,7.962,10.31
		c1.004,2.012,1.769,4.101,2.353,6.227c0.605,2.123,1.035,4.309,1.22,6.553c0.367,4.452-0.185,8.829-1.464,12.949
		c-0.119,0.398-0.254,0.791-0.387,1.185c-0.119,0.341-0.232,0.684-0.361,1.021c-1.642,4.404-4.151,8.511-7.516,11.995
		c-2.122,2.197-4.518,4.047-7.085,5.577c-0.211,0.129-0.425,0.25-0.639,0.375c-0.437,0.248-0.878,0.489-1.324,0.718
		c-2.097,1.101-4.308,2.02-6.645,2.674c-3.834,1.072-7.768,1.42-11.638,1.153c-3.951-0.236-7.884-1.116-11.607-2.726
		c-2.576-1.114-4.97-2.532-7.156-4.194c-2.836-2.112-5.371-4.665-7.473-7.617c-2.38-3.341-4.069-7.037-5.121-10.883
		c-1.091-3.829-1.561-7.86-1.259-11.944c0.267-3.615,1.111-7.113,2.441-10.389c1.007-2.555,2.319-5.009,3.944-7.298
		c2.35-3.309,5.258-6.102,8.516-8.353c3.169-2.234,6.712-3.975,10.544-5.046c2.337-0.653,4.705-1.015,7.069-1.16
		c0.5-0.036,1.001-0.059,1.503-0.073c0.248-0.004,0.495-0.012,0.742-0.011c2.988-0.022,5.995,0.317,8.948,1.095
		C534.323,407.232,536.255,407.959,538.108,408.827z"/>
	<path fill="#FFFFFF" d="M663.405,386.629c-21.623-1.662-42.491,10.807-51.361,30.569c-8.964,19.972-4.201,44.12,11.764,59.132
		c0.94,0.884,1.913,1.722,2.909,2.525c15.68,12.65,37.889,15.227,56.074,6.125c8.446-4.227,15.31-10.659,20.21-18.303
		c7.85-12.246,10.629-27.624,6.559-42.185c-2.283-8.166-6.57-15.47-12.213-21.458C688.586,393.735,676.527,387.637,663.405,386.629z
		 M657.572,474.331c-3.948-0.237-7.878-1.116-11.6-2.726c-2.578-1.115-4.973-2.535-7.16-4.198c-2.834-2.111-5.367-4.663-7.469-7.613
		c-2.378-3.338-4.067-7.032-5.119-10.875c-1.093-3.831-1.563-7.864-1.261-11.951c0.267-3.614,1.111-7.112,2.44-10.387
		c1.007-2.555,2.318-5.01,3.944-7.299c2.349-3.307,5.254-6.098,8.509-8.348c3.17-2.236,6.715-3.979,10.55-5.05
		c2.335-0.653,4.702-1.014,7.064-1.16c0.505-0.037,1.01-0.059,1.518-0.074c0.243-0.004,0.485-0.012,0.728-0.011
		c2.99-0.023,6,0.316,8.956,1.095c4.685,1.234,8.962,3.446,12.65,6.361c0.281,0.217,0.55,0.448,0.824,0.674
		c0.324,0.273,0.649,0.544,0.963,0.827c3.226,2.858,5.967,6.313,7.96,10.308c1.005,2.014,1.771,4.106,2.354,6.234
		c0.603,2.121,1.032,4.306,1.217,6.547c0.367,4.45-0.186,8.826-1.463,12.944c-0.121,0.404-0.258,0.803-0.393,1.203
		c-0.117,0.336-0.228,0.673-0.356,1.005c-1.643,4.406-4.152,8.516-7.519,12c-2.123,2.197-4.52,4.048-7.087,5.579
		c-0.208,0.127-0.421,0.248-0.632,0.371c-0.439,0.249-0.881,0.491-1.33,0.721c-2.096,1.101-4.307,2.02-6.644,2.673
		C665.381,474.252,661.444,474.6,657.572,474.331z"/>
	<path d="M542.204,917.462c-3.318-1.919-6.919-1.471-10.448-0.488c-2.125,0.591-4.224,1.376-6.218,1.956
		c-6.533,1.898-12.987,4.068-19.431,6.249c-0.609,0.206-1.21,0.43-1.818,0.641c-0.021,0.007-0.042,0.016-0.063,0.023
		c-1.68,0.585-3.353,1.191-5.016,1.822c-1.291,0.49-2.585,0.977-3.862,1.502c-1.368,0.562-2.729,1.139-4.098,1.7
		c-0.612,0.251-4.581,1.916-2.382,0.97c-18.327,7.799-37.165,14.285-56.01,20.664c-7.305,2.473-14.708,4.591-21.965,7.237
		c-4.066,1.483-8.053,3.165-12.186,4.438c-3.931,1.21-9.224,2.373-12.07,5.608c-3.021,3.435-3.027,7.073-0.435,10.73
		c2.045,2.884,3.959,5.712,6.141,8.496c5.345,6.914,10.672,13.665,17.046,19.7c6.645,6.29,13.32,12.548,19.906,18.899
		c6.532,6.298,12.83,12.825,18.879,19.589c6.019,6.731,12.96,13.02,18.282,20.321c-8.493,4.839-16.489,10.765-24.048,16.928
		c-3.792,3.091-7.289,6.554-11.014,9.729c-3.993,3.403-8.743,6.871-11.823,11.177c-5.253,7.345,0.653,14.427,8.487,15.278
		c8.69,0.944,19.053-4.717,26.322-8.858c8.971-5.11,16.941-11.747,25.088-18.031c6.309-4.866,13.576-10.599,14.38-18.892
		c0.945-9.749-5.986-18.415-11.601-25.732c-6.179-8.052-12.169-16.354-18.794-24.047c-6.471-7.515-13.705-14.049-20.607-21.124
		c-6.888-7.06-13.357-14.332-20.973-20.656c5.006-2.287,9.991-4.649,15.058-6.797c-0.636,0.269-1.275,0.535-1.914,0.797
		c12.166-5.103,25.734-11.201,38.922-16.436c11.226-4.456,22.702-8.311,33.957-12.676c1.256-0.487,2.521-0.952,3.77-1.454
		c0.5-0.201,1.002-0.393,1.502-0.592c0.257-0.103,0.516-0.203,0.774-0.305c5.656-2.255,11.323-4.468,16.99-6.699
		c1.569-0.618,3.36-1.211,5.163-1.878c0.591-0.219,1.175-0.451,1.762-0.691c3.022-1.236,5.897-2.796,7.627-5.249
		C548.709,926.738,546.978,920.222,542.204,917.462z M641.474,367.145c3.288-0.909,6.261-2.509,9.673-3.19
		c3.607-0.72,7.226-0.435,10.875-0.221c7.388,0.433,14.805,1.11,22.082,2.474c7.03,1.318,15.193,2.993,20.643,7.933
		c2.183,1.979,4.404,4.658,7.68,2.942c0.302-0.158,0.575-0.357,0.828-0.577c1.911-1.663,2.395-4.901,0.528-6.804
		c-9.434-9.646-19.729-19.066-32.765-23.492c-12.857-4.366-27.974-5.507-40.726-0.493c-5.401,2.124-10.595,6.232-10.594,12.585
		c0,0.614,0.101,1.196,0.216,1.77C630.942,365.192,636.256,368.587,641.474,367.145z M450.419,410.606
		c0.362-0.162,0.71-0.368,1.027-0.643c1.184-1.026,1.822-2.845,2.691-4.146c1.32-1.977,2.82-3.79,4.35-5.605
		c6.245-7.406,12.742-14.662,20.793-20.153c8.021-5.471,16.998-10.173,26.114-13.53c4.001-1.302,8.196-2.703,12.416-3.06
		c3.996-0.338,8.107-0.043,12.118-0.11c3.6-0.06,7.164,0.142,10.148-2.242c2.209-1.764,3.492-4.515,3.366-7.296
		c-0.036-0.792-0.168-1.586-0.447-2.361c-3.085-8.564-13.629-5.787-20.456-4.967c-2.643,0.317-5.245,0.811-7.81,1.437
		c-6.148,1.498-12.058,3.839-17.634,6.949c-15.423,8.6-28.822,18.586-39.854,32.483c-2.564,3.23-5.141,6.458-7.453,9.876
		c-1.767,2.611-5.78,7.118-5.165,10.477C445.123,410.442,448.106,411.641,450.419,410.606z M403.138,609.962
		c0.858-0.202,1.76-0.515,2.689-0.877c4.533-1.767,9.75-4.795,14.081-2.839c2.981,1.347,5.133,3.98,7.39,6.345
		c3.646,3.821,17.876,10.542,31.383,14.977c7.841,2.574,15.441,4.383,20.579,4.392c0.011,0,0.019-0.001,0.029-0.001
		c23.793,0.033,21.473-12.194,23.706-15.942c1.895-3.182-26.448-12.321-31.326-9.916c8.176-4.031,16.352-8.061,24.527-12.092
		c3.565-1.757,7.771-4.877,6.598-8.674c-1.132-3.663-6.105-4.031-9.92-3.65c-8.526,0.851-17.037,1.855-25.527,3.013
		c9.082-4.741,18.163-9.481,27.245-14.222c2.392-1.248,5.047-2.836,5.553-5.486c0.603-3.158-2.446-6.067-5.626-6.545
		c-3.18-0.478-6.339,0.762-9.316,1.978c-12.722,5.196-25.445,10.392-38.167,15.588c1.518-7.03,8.99-10.693,15.061-14.549
		c6.071-3.856,11.962-11.281,8.487-17.577c-2.767-5.012-9.873-5.672-15.338-3.965c-11.186,3.494-18.611,13.301-27.008,21.743
		c-1.788,1.797-3.617,3.537-5.539,5.136c-0.289,0.241-0.572,0.491-0.866,0.726c-2.318,1.85-4.824,3.392-7.409,4.783
		c-8.202,4.414-17.53,6.618-26.902,7.087c-3.066,0.154-6.132,0.176-9.159-0.02c-4.313-0.279-8.763-0.997-13.086-2.11
		c-3.188-0.821-6.317-1.834-9.225-3.171c-8.011-3.685-7.96-9.526-5.091-15.408c1.529-3.135,3.845-6.282,6.197-9.118
		c1.522-1.835,3.12-3.606,4.729-5.365c4.659-5.092,9.663-9.859,14.988-14.25c1.971-1.625,3.964-3.224,6.017-4.745
		c1.543-1.143,3.713-2.36,6.075-3.662c-4.559-7.876-9.396-15.605-15.375-22.606c-2.363,1.961-4.679,3.978-6.971,6.027
		c-4.533,4.052-8.926,8.278-13.087,12.797c-2.714,2.948-5.472,5.992-8.192,9.125c-3.836,4.416-7.588,9.022-11.036,13.83
		c-3.827,5.336-7.276,10.918-10.017,16.775c-1.037,2.215-1.978,4.467-2.796,6.761c-1.249,3.501-2.25,7.085-2.886,10.776
		c-0.142,2.454-0.116,5.022,0.092,7.602c0.68,8.438,3.484,17.016,10.203,22.309c1.093,0.861,2.262,1.639,3.465,2.374
		c5.026,3.073,10.904,5.104,16.9,6.345c3.682,0.762,7.399,1.234,10.984,1.474c1.064,0.071,2.119,0.127,3.154,0.158
		c8.51,0.252,16.917-0.719,25.246-2.241C393.508,612.164,398.334,611.093,403.138,609.962z M554.704,424.874
		c-1.993-3.996-4.734-7.451-7.962-10.31c-0.316-0.28-0.634-0.557-0.959-0.825c-0.274-0.226-0.544-0.457-0.825-0.675
		c-2.125-1.645-4.433-3.034-6.864-4.158c-4.591-2.123-9.621-3.282-14.735-3.301c-0.247-0.001-0.495,0.006-0.742,0.011
		c-0.501,0.009-1.002,0.042-1.503,0.073c-2.364,0.146-4.732,0.507-7.069,1.16c-3.832,1.071-7.375,2.812-10.544,5.046
		c-5.541,3.907-9.907,9.361-12.46,15.65c-1.33,3.276-2.173,6.774-2.441,10.389c-0.302,4.084,0.168,8.115,1.259,11.944
		c2.085,7.318,6.507,13.871,12.594,18.5c2.185,1.662,4.579,3.081,7.156,4.194c3.724,1.61,7.657,2.49,11.607,2.726
		c6.308,0.376,12.655-0.944,18.283-3.826c0.447-0.229,0.887-0.469,1.324-0.718c0.214-0.122,0.427-0.248,0.639-0.375
		c2.567-1.53,4.963-3.381,7.085-5.577c3.365-3.483,5.874-7.591,7.516-11.995c0.126-0.339,0.246-0.679,0.361-1.021
		c0.133-0.394,0.268-0.787,0.387-1.185c1.888-6.3,2.006-13.084,0.244-19.502C556.473,428.975,555.708,426.886,554.704,424.874z
		 M522.501,436.571c-1.608,0.657-3.142,0.919-4.571,0.866c-4.285-0.16-7.619-3.162-9.146-6.903
		c-2.036-4.989-0.854-11.292,5.58-13.915c0.786-0.321,1.553-0.541,2.3-0.683c5.365-1.016,9.629,2.346,11.414,6.724
		C530.111,427.647,528.93,433.945,522.501,436.571z M817.188,964.176c-4.133-1.272-8.12-2.954-12.186-4.438
		c-7.257-2.647-14.66-4.765-21.965-7.237c-18.846-6.379-37.683-12.865-56.01-20.664c2.199,0.946-1.77-0.72-2.382-0.97
		c-1.369-0.561-2.73-1.137-4.098-1.7c-1.277-0.525-2.571-1.012-3.862-1.502c-1.684-0.639-3.377-1.254-5.079-1.845
		c-0.607-0.211-1.209-0.435-1.818-0.641c-4.358-1.475-8.731-2.911-13.119-4.295c-2.1-0.663-4.197-1.34-6.311-1.954
		c-5.308-1.542-11.349-4.541-16.666-1.468c-4.774,2.76-6.505,9.276-3.281,13.849c3.09,4.383,9.819,5.955,14.552,7.818
		c2.687,1.058,5.37,2.12,8.056,3.176c2.978,1.171,5.959,2.337,8.934,3.522c0.258,0.103,0.517,0.202,0.774,0.305
		c0.5,0.2,1.003,0.391,1.502,0.592c12.447,5.002,25.249,9.177,37.727,14.13c13.187,5.235,26.756,11.333,38.922,16.436
		c-0.639-0.263-1.277-0.528-1.914-0.797c5.067,2.148,10.053,4.51,15.058,6.797c-7.616,6.324-14.086,13.596-20.973,20.656
		c-6.903,7.075-14.137,13.609-20.607,21.124c-6.625,7.693-12.614,15.995-18.794,24.047c-5.616,7.317-12.547,15.983-11.601,25.732
		c0.804,8.293,8.072,14.026,14.38,18.892c8.147,6.284,16.117,12.92,25.088,18.031c7.269,4.141,17.632,9.802,26.322,8.858
		c7.834-0.851,13.74-7.934,8.487-15.278c-3.079-4.306-7.83-7.774-11.823-11.177c-3.725-3.175-7.222-6.637-11.014-9.729
		c-7.56-6.163-15.555-12.09-24.049-16.928c5.322-7.301,12.262-13.589,18.282-20.321c6.049-6.764,12.347-13.291,18.879-19.589
		c6.586-6.351,13.262-12.609,19.906-18.899c6.375-6.035,11.701-12.785,17.046-19.7c2.182-2.784,4.096-5.612,6.141-8.496
		c2.592-3.657,2.586-7.295-0.435-10.73C826.411,966.549,821.119,965.386,817.188,964.176z M1010.896,290.733
		c-2.125-4.805-9.242-3.41-14.021-1.229c-8.485,3.873-16.969,7.747-25.454,11.62c4.559-7.418,9.085-14.857,13.577-22.316
		c2.738-4.546,5.391-10.653,1.998-14.734c-4.034-4.852-12.243-1.379-15.925,3.745c-3.682,5.124-5.733,11.774-11.084,15.119
		c-1.319-3.943-0.678-8.23-0.323-12.373c0.161-1.88,0.228-3.828,0.044-5.717c-0.221-2.274-0.811-4.46-2.118-6.318
		c-2.374-3.377-7.875-4.737-10.646-1.706c-0.02,0.022-0.047,0.033-0.067,0.056c-0.04,0.045-0.055,0.104-0.093,0.15
		c-1.624,1.967-1.68,4.782-1.622,7.349c0.153,6.766,0.305,13.532,0.458,20.299c0.001,0.059,0,0.119,0.002,0.178
		c0.047,2.211,0.037,4.534-1.083,6.433c-0.966,1.636-2.455,2.509-4.15,2.802c-3.951,0.682-9.04-1.843-11.362-5.612
		c-0.568-0.922-1.034-1.896-1.466-2.887c-2.088-4.795-2.941-10.205-5.882-14.544c-13.201-19.476-24.248,11.786-16.823,25.138
		c4.058,7.296,8.035,11.908,11.35,15.635c7.878,8.86,11.984,12.689,4.334,35.439c-6.789,20.189-14.585,40.117-24.419,59.01
		c-3.392,6.516-7.019,12.913-10.94,19.149c-18.147,28.86-42.817,54.381-73.258,69.527c-1.956,0.973-3.934,1.908-5.938,2.794
		c-6.202,2.741-12.917,5.279-17.065,10.643c-0.857,1.108-1.524,2.199-2.02,3.264c-4.591,9.871-0.028,13.654,7.585,14.418
		c11.464,1.151,29.854-4.552,34.413-6.712c4.19-1.985,8.238-4.217,12.175-6.627c20.698-12.667,37.939-30.829,51.876-50.823
		c19.046-27.324,32.675-57.707,45.245-88.35c1.75-4.266,3.47-8.565,4.669-13.043c0.707-2.62,1.374-5.25,2.063-7.871
		c6.335-24.102,16.206-29.703,39.686-36.699c10.771-3.209,22.318-8.72,26.058-19.319
		C1011.339,294.722,1011.71,292.574,1010.896,290.733z M677.19,469.785c0.212-0.12,0.422-0.246,0.632-0.371
		c2.567-1.531,4.964-3.381,7.087-5.579c3.366-3.484,5.876-7.594,7.519-12c0.124-0.333,0.242-0.668,0.356-1.005
		c0.136-0.4,0.272-0.799,0.393-1.203c1.886-6.296,2.006-13.076,0.246-19.491c-0.584-2.128-1.35-4.22-2.354-6.234
		c-1.993-3.995-4.734-7.45-7.96-10.308c-0.317-0.281-0.636-0.559-0.963-0.827c-0.274-0.226-0.544-0.457-0.824-0.674
		c-6.14-4.751-13.781-7.429-21.606-7.456c-0.243-0.001-0.485,0.006-0.728,0.011c-0.505,0.009-1.012,0.043-1.518,0.074
		c-2.363,0.146-4.729,0.507-7.064,1.16c-3.835,1.071-7.38,2.814-10.55,5.05c-5.538,3.907-9.901,9.359-12.453,15.647
		c-1.33,3.276-2.173,6.773-2.44,10.387c-0.302,4.087,0.168,8.12,1.261,11.951c2.086,7.313,6.506,13.861,12.588,18.489
		c2.187,1.664,4.582,3.084,7.16,4.198c3.721,1.609,7.652,2.489,11.6,2.726c6.31,0.378,12.658-0.942,18.289-3.825
		C676.309,470.277,676.751,470.035,677.19,469.785z M670.881,435.325c-0.411,0.218-0.846,0.421-1.304,0.608
		c-7.399,3.02-13.417-1.293-15.677-7.065c-1.932-4.936-1.119-10.94,3.946-14.347c0.733-0.493,1.555-0.932,2.47-1.305
		c0.458-0.187,0.91-0.345,1.356-0.477c6.817-2.013,12.271,2.185,14.362,7.653C678.051,425.663,676.942,432.114,670.881,435.325z
		 M628.067,514.21c-2.509-0.882-5.332-0.272-7.284,1.516c-2.123,1.945-2.262,4.945-3.134,7.547
		c-0.012,0.034-0.025,0.069-0.036,0.103c-1.827,5.428-4.287,11.058-9.126,14.37c-8.854,6.059-22.343,3.849-29.011-4.609
		c-1.865-2.365-3.609-5.057-4.979-7.728c-1.106-2.157-1.108-4.656-2.256-6.695c-2.299-4.085-8.456-3.667-10.202,0.658
		c-0.655,1.623-0.724,3.564-0.458,5.552c0.424,3.174,1.711,6.469,2.91,8.793c2.639,5.112,5.114,9.344,9.025,13.407
		c11.984,11.764,29.497,13.456,43.114,3.192c6.053-4.563,9.996-10.866,12.938-17.744
		C631.838,527.261,635.982,517.022,628.067,514.21z M574.512,548.144c-0.35-0.339-0.669-0.68-0.997-1.021
		c-0.106-0.104-0.219-0.194-0.324-0.3C573.63,547.265,574.07,547.706,574.512,548.144z"/>
</g>
</svg>
