<?xml version="1.0" encoding="utf-8"?>
<!-- Generator: Adobe Illustrator 23.1.0, SVG Export Plug-In . SVG Version: 6.00 Build 0)  -->
<svg version="1.1" id="Capa_1" xmlns="http://www.w3.org/2000/svg" xmlns:xlink="http://www.w3.org/1999/xlink" x="0px" y="0px"
	 viewBox="0 0 1200 1200" enable-background="new 0 0 1200 1200" xml:space="preserve">
<g>
	<path fill="#FFFBC9" d="M69.887,314.365c0,0,142.929-144.942,521.389-144.942s541.52,134.877,541.52,134.877
		S971.75,493.53,603.355,493.53S69.887,314.365,69.887,314.365z"/>
	<radialGradient id="SVGID_1_" cx="499.39" cy="-77.1621" r="802.8146" gradientUnits="userSpaceOnUse">
		<stop  offset="0" style="stop-color:#FFFFFF"/>
		<stop  offset="1" style="stop-color:#FFFFFF;stop-opacity:0"/>
	</radialGradient>
	<path fill="url(#SVGID_1_)" d="M69.887,314.365c0,0,142.929-144.942,521.389-144.942s541.52,134.877,541.52,134.877
		S971.75,493.53,603.355,493.53S69.887,314.365,69.887,314.365z"/>
	<radialGradient id="SVGID_2_" cx="622.0738" cy="445.6383" r="630.2475" gradientUnits="userSpaceOnUse">
		<stop  offset="0" style="stop-color:#B09187"/>
		<stop  offset="0.3114" style="stop-color:#AD8E85"/>
		<stop  offset="0.5586" style="stop-color:#A3867D"/>
		<stop  offset="0.783" style="stop-color:#927870"/>
		<stop  offset="0.994" style="stop-color:#7B655F"/>
		<stop  offset="1" style="stop-color:#7A645E"/>
	</radialGradient>
	<path fill="url(#SVGID_2_)" d="M67.874,332.483v511.324c0,0,144.942,185.204,515.35,185.204s547.559-177.152,547.559-177.152
		V324.431c0,0-154.337,183.064-530.784,183.064S67.874,332.483,67.874,332.483z"/>
	<radialGradient id="SVGID_3_" cx="846.7774" cy="809.8474" r="176.4594" gradientUnits="userSpaceOnUse">
		<stop  offset="0" style="stop-color:#D9856C"/>
		<stop  offset="0.5128" style="stop-color:#D9856C;stop-opacity:0"/>
	</radialGradient>
	<circle fill="url(#SVGID_3_)" cx="845.871" cy="806.893" r="94.627"/>
	<radialGradient id="SVGID_4_" cx="349.1488" cy="809.8474" r="176.4594" gradientUnits="userSpaceOnUse">
		<stop  offset="0" style="stop-color:#D9856C"/>
		<stop  offset="0.5128" style="stop-color:#D9856C;stop-opacity:0"/>
	</radialGradient>
	<circle fill="url(#SVGID_4_)" cx="348.243" cy="806.893" r="94.627"/>
	<path fill="#BFDE6A" d="M478.544,251.96c0,0,76.497,25.164,95.622,56.366c0,0,50.327,19.124,100.654,19.124
		s80.523,23.151,92.602,58.38c0,0,135.883-17.111,142.929-52.34s-48.314-84.55-69.451-86.563
		c-21.137-2.013-96.628-8.052-110.72-4.026s-25.164,13.085-34.222,6.039s-23.151-29.19-66.432-23.15
		C586.244,231.829,491.629,226.796,478.544,251.96z"/>
	<radialGradient id="SVGID_5_" cx="461.7483" cy="83.8604" r="573.8968" gradientUnits="userSpaceOnUse">
		<stop  offset="0" style="stop-color:#F4FFA1"/>
		<stop  offset="1" style="stop-color:#F4FFA1;stop-opacity:0"/>
	</radialGradient>
	<path fill="url(#SVGID_5_)" d="M616.807,280.046c13.554-1.936,36.79-7.745,48.407,9.681c1.936,0,7.745,3.873,9.682,1.936
		c9.682-15.49,30.981-19.363,44.535-13.554c3.873,1.936,9.682,7.745,13.554,9.681c7.745,3.873,19.363,5.809,29.044,1.936
		c34.228-12.611,73.484-22.695,111.727-24.04c-12.372-10.698-24.987-18.011-32.857-18.761c-21.138-2.013-96.629-8.052-110.72-4.026
		c-14.092,4.026-25.164,13.085-34.223,6.039c-9.059-7.046-23.151-29.19-66.432-23.15c-43.281,6.039-137.896,1.007-150.982,26.17
		c0,0,1.887,0.621,5.14,1.787C530.049,258.914,571.027,287.089,616.807,280.046z"/>
	<path fill="#FF8F63" d="M719.108,327.451c-25.164-5.033-46.301,15.098-67.438,4.026c-21.137-11.072-72.471-21.138-72.471-21.138
		s0.646,4.42,2.072,11.289c-5.031-9.33-11.199-18.058-19.519-25.381c-33.551-29.525-91.26-41.603-91.26-41.603
		c-205.335,21.473-209.361,67.103-132.864,106.022c67.706,34.447,285.858,40.261,285.858,40.261
		c-2.378-1.838-4.496-3.926-6.508-6.12c18.229-0.591,131.452-4.514,144.404-10.991C775.474,376.772,744.271,332.483,719.108,327.451
		z"/>
	<radialGradient id="SVGID_6_" cx="802.6142" cy="311.8014" r="188.2663" gradientUnits="userSpaceOnUse">
		<stop  offset="0" style="stop-color:#FFE1AD"/>
		<stop  offset="1" style="stop-color:#FFE1AD;stop-opacity:0"/>
	</radialGradient>
	<path fill="url(#SVGID_6_)" d="M719.107,327.451c-25.163-5.033-46.301,15.098-67.439,4.026
		c-16.79-8.795-52.61-16.949-66.642-19.933c-0.196,6.224,0.005,12.493,0.799,18.847c-19.363-5.809-38.726-9.681-58.089-17.427
		c-17.427-5.809-36.79-5.809-52.28,1.936c-37.038,19.26-76.346,46.43-117.918,53.805c82.723,27.335,265.947,32.223,265.947,32.223
		c-2.378-1.837-4.496-3.926-6.508-6.12c18.229-0.591,131.452-4.514,144.404-10.991C775.474,376.772,744.271,332.483,719.107,327.451
		z"/>
	<radialGradient id="SVGID_7_" cx="417.8331" cy="131.958" r="248.0081" gradientUnits="userSpaceOnUse">
		<stop  offset="0" style="stop-color:#FFE1AD"/>
		<stop  offset="1" style="stop-color:#FFE1AD;stop-opacity:0"/>
	</radialGradient>
	<path fill="url(#SVGID_7_)" d="M527.737,312.963c19.363,7.745,38.726,11.618,58.089,17.427c-0.794-6.353-0.995-12.623-0.799-18.847
		c-3.633-0.773-5.829-1.204-5.829-1.204s0.646,4.42,2.072,11.289c-5.031-9.33-11.198-18.058-19.519-25.381
		c-33.552-29.525-91.259-41.603-91.259-41.603c-205.335,21.473-209.361,67.103-132.864,106.022
		c5.653,2.876,12.375,5.548,19.911,8.038c41.572-7.375,80.88-34.545,117.918-53.805
		C490.948,307.154,510.311,307.154,527.737,312.963z"/>
	<g>
		<linearGradient id="SVGID_8_" gradientUnits="userSpaceOnUse" x1="1068.7937" y1="648.7251" x2="874.2701" y2="313.7122">
			<stop  offset="0" style="stop-color:#FFFFFF;stop-opacity:0"/>
			<stop  offset="1" style="stop-color:#FFFFFF"/>
		</linearGradient>
		<path fill="url(#SVGID_8_)" d="M1014.877,726.376c-18.435,0-33.373-7.511-33.373-16.776V430.197
			c0-9.264,14.937-26.457,33.373-26.457c18.435,0,33.373-11.852,33.373-2.587V709.6
			C1048.25,718.865,1033.313,726.376,1014.877,726.376z"/>
	</g>
	<path fill="#9C7B70" d="M1150,312.434c0-3.024-1.018-6.734-2.769-9.396C1143.19,296.905,1043.197,152.87,600,152.87
		c-413.723,0-540.748,142.404-545.954,148.47C51.444,304.372,50,308.286,50,312.267c0,0,0,534.043,0,534.043
		c0,3.397,1.032,6.714,2.96,9.513c5.379,7.812,136.439,191.307,547.04,191.307c400.373,0,540.908-183.026,546.691-190.818
		c2.152-2.891,3.309-6.397,3.309-10.002C1150,846.31,1150,312.89,1150,312.434z M1110.607,311.92
		C1072.589,349.764,918.897,479.535,600,479.535c-319.567,0-470.865-127.42-509.653-166.398
		C127.882,281.478,268.257,186.421,600,186.421C954.547,186.421,1079.375,281.093,1110.607,311.92z M1116.448,840.273
		c-22.968,26.349-166.9,173.305-516.448,173.305c-358.903,0-495.386-147.287-516.449-172.994V353.278
		c60.55,54.01,217.342,159.809,516.449,159.809c296.327,0,455.303-106.844,516.448-160.497V840.273z"/>
	<radialGradient id="SVGID_9_" cx="574.6732" cy="-181.7222" r="1102.0773" gradientUnits="userSpaceOnUse">
		<stop  offset="0" style="stop-color:#FFE3BF;stop-opacity:0.7"/>
		<stop  offset="0.9061" style="stop-color:#FFE3BF;stop-opacity:0"/>
	</radialGradient>
	<path fill="url(#SVGID_9_)" d="M92.506,311.344C133.057,278.049,274.285,186.421,600,186.421
		c349.832,0,476.005,92.165,509.302,124.229c8.508-7.584,16.123-15.802,22.994-24.638C1091.603,246.53,957.392,152.87,600,152.87
		c-334.888,0-481.912,93.295-528.55,132.07C77.129,294.746,83.841,303.777,92.506,311.344z"/>
	<radialGradient id="SVGID_10_" cx="658.3213" cy="1533.0634" r="1451.0048" gradientUnits="userSpaceOnUse">
		<stop  offset="0" style="stop-color:#63473D"/>
		<stop  offset="0.3812" style="stop-color:#654A40;stop-opacity:0.6188"/>
		<stop  offset="0.6839" style="stop-color:#6C534A;stop-opacity:0.3161"/>
		<stop  offset="0.9587" style="stop-color:#78615B;stop-opacity:0.0413"/>
		<stop  offset="1" style="stop-color:#7A645E;stop-opacity:0"/>
	</radialGradient>
	<path fill="url(#SVGID_10_)" d="M1116.448,840.273c-22.968,26.349-166.9,173.305-516.448,173.305
		c-358.903,0-495.386-147.287-516.448-172.994V358.354C71.749,344.208,60.805,329.203,50,314.06c0,33.564,0,532.25,0,532.25
		c0,3.397,1.032,6.714,2.959,9.513c5.379,7.812,136.44,191.307,547.041,191.307c400.373,0,540.907-183.026,546.691-190.818
		c2.151-2.892,3.309-6.397,3.309-10.002c0,0,0-373.066,0-515.368c-10.325,9.155-21.357,17.349-33.552,23.67V840.273z"/>
	<g>
		<path fill="#593529" d="M572.04,770.663c-0.014-21.408-33.544-21.938-33.551-0.007c-0.028,78.117,123.01,79.68,123.022,0.016
			c0.003-21.547-33.541-21.778-33.551-0.018C627.943,805.46,572.051,806.905,572.04,770.663z"/>
		<circle fill="#593529" cx="376.324" cy="725.93" r="52.34"/>
		<circle fill="#593529" cx="823.676" cy="725.93" r="52.34"/>
	</g>
	<path fill="#B0AF5C" d="M600,410.305c198.625,0,339.541-41.587,321.382-88.07c-0.388-0.994-0.153-2.132-0.453-3.156
		c-0.797-2.709-20.069-66.398-68.85-76.154c-38.379-7.678-106.448-15.432-136.729-5.341c-8.475,2.834-14.133-0.489-25.114-7.645
		c-9.655-6.288-21.669-14.116-38.679-15.662c-20.549-1.879-144.92-0.62-180.426,26.744c-58.802,6.594-192.511,27.514-192.511,81.214
		C278.618,380.055,440.292,410.305,600,410.305z M591.961,324.777c27.18,8.87,70.952,20.022,105.99,14.182
		c28.566-4.749,45.795,22.395,53.605,39.239c-36.695,5.15-79.492,8.648-127.632,9.524
		C619.466,381.665,603.464,358.558,591.961,324.777z M649.535,236.552c11.479,1.043,19.741,6.427,28.489,12.126
		c11.861,7.738,25.316,16.486,44.402,10.127c22.297-7.44,81.203-2.766,125.261,6.051c31.848,6.37,48.105,49.62,51.223,58.822
		c-2.411,16.996-47.099,37.715-124.352,50.948c-10.961-27.377-37.491-64.858-80.287-57.728
		c-44.33,7.408-109.372-18.097-118.117-21.645c-19.437-22.048-52.188-36.648-74.984-44.712
		C537.31,239.244,615.738,233.489,649.535,236.552z M468.809,263.802c0.775,0.404,1.6,0.721,2.468,0.939
		c23.651,5.911,87.259,28.369,97.4,60.831c8.606,27.525,20.145,49.019,28.435,62.363c-183.555-0.393-296.125-38.406-296.125-65.699
		C300.986,307.071,346.688,278.087,468.809,263.802z"/>
	<path fill="#E07865" d="M774.558,374.625c-10.961-27.377-37.491-64.858-80.287-57.728c-44.33,7.408-109.372-18.097-118.117-21.645
		c-19.437-22.048-52.188-36.648-74.984-44.712c0.121-0.038,0.254-0.074,0.375-0.111c-10.269-2.857-20.377-6.162-30.157-9.596
		c-0.084,0.064-0.176,0.125-0.259,0.189c-58.802,6.594-192.511,27.514-192.511,81.214c0,57.819,161.674,88.07,321.382,88.07
		c198.452,0,339.29-41.515,321.422-87.949c-7.677,0.639-15.116,2.457-23.168,3.76C892.166,342.62,848.155,362.019,774.558,374.625z
		 M300.986,322.235c0-15.165,45.702-44.148,167.823-58.434c0.775,0.404,1.6,0.721,2.468,0.939
		c23.651,5.911,87.259,28.369,97.4,60.831c8.606,27.525,20.145,49.019,28.435,62.363
		C413.556,387.542,300.986,349.529,300.986,322.235z M623.924,387.722c-4.458-6.057-20.46-29.164-31.963-62.944
		c27.18,8.87,70.952,20.022,105.99,14.182c28.566-4.749,45.795,22.395,53.605,39.239
		C714.861,383.348,672.064,386.846,623.924,387.722z"/>
	<radialGradient id="SVGID_11_" cx="930.1776" cy="663.1233" r="746.7963" gradientUnits="userSpaceOnUse">
		<stop  offset="0" style="stop-color:#FFEFC0;stop-opacity:0.9"/>
		<stop  offset="0.9061" style="stop-color:#FFEFC0;stop-opacity:0"/>
	</radialGradient>
	<path fill="url(#SVGID_11_)" d="M774.558,374.625c-2.382,0.377-19.518,3.107-23.002,3.573c-36.695,5.15-79.492,8.648-127.632,9.524
		c-1.001,0-25.812,0.213-26.813,0.213c-170.791-0.366-280.106-33.3-294.487-59.865c-5.907-14.177-14.558-12.337-20.952-19.416
		c-1.976,4.277-3.055,8.797-3.055,13.582c0,57.819,161.674,88.07,321.382,88.07c198.624,0,339.54-41.586,321.382-88.07
		c-0.389-0.994-15.671,0.673-23.054,3.68C892.523,342.463,848.453,361.968,774.558,374.625z"/>
	<g>
		<linearGradient id="SVGID_12_" gradientUnits="userSpaceOnUse" x1="823.3897" y1="749.9553" x2="848.4724" y2="688.2134">
			<stop  offset="0" style="stop-color:#FFFFFF;stop-opacity:0"/>
			<stop  offset="1" style="stop-color:#FFF7FE"/>
		</linearGradient>
		<circle fill="url(#SVGID_12_)" cx="840.101" cy="708.82" r="12.059"/>
		<linearGradient id="SVGID_13_" gradientUnits="userSpaceOnUse" x1="807.648" y1="743.5603" x2="832.7307" y2="681.8184">
			<stop  offset="0" style="stop-color:#FFFFFF;stop-opacity:0"/>
			<stop  offset="1" style="stop-color:#FFF7FE"/>
		</linearGradient>
		<circle fill="url(#SVGID_13_)" cx="811.963" cy="732.938" r="6.431"/>
	</g>
	<g>
		<linearGradient id="SVGID_14_" gradientUnits="userSpaceOnUse" x1="378.0411" y1="749.9553" x2="403.1238" y2="688.2134">
			<stop  offset="0" style="stop-color:#FFFFFF;stop-opacity:0"/>
			<stop  offset="1" style="stop-color:#FFF7FE"/>
		</linearGradient>
		<circle fill="url(#SVGID_14_)" cx="394.752" cy="708.82" r="12.059"/>
		<linearGradient id="SVGID_15_" gradientUnits="userSpaceOnUse" x1="362.2995" y1="743.5603" x2="387.3821" y2="681.8184">
			<stop  offset="0" style="stop-color:#FFFFFF;stop-opacity:0"/>
			<stop  offset="1" style="stop-color:#FFF7FE"/>
		</linearGradient>
		<circle fill="url(#SVGID_15_)" cx="366.615" cy="732.938" r="6.431"/>
	</g>
</g>
</svg>
