<?xml version="1.0" encoding="utf-8"?>
<!-- Generator: Adobe Illustrator 23.0.3, SVG Export Plug-In . SVG Version: 6.00 Build 0)  -->
<svg version="1.1" id="Capa_1" xmlns="http://www.w3.org/2000/svg" xmlns:xlink="http://www.w3.org/1999/xlink" x="0px" y="0px"
	 viewBox="0 0 1200 1200" enable-background="new 0 0 1200 1200" xml:space="preserve">
<g>
	<g>
		<path fill="#FCE175" d="M782.391,385.888c-1.399,33.606-3.797,83.042-7.561,138.009c2.784-4.133,5.526-8.377,8.216-12.758
			c7.29-11.88,15.455-22.31,24.391-31.303c1.662-13.505,9.659-70.609,32.749-136.264l-10.951-218.404
			c-0.185-3.693-1.828-7.058-4.629-9.472c-2.799-2.414-6.357-3.527-10.045-3.191l-33.251,3.231
			c-6.734,0.658-11.934,6.252-12.095,13.017l-5.447,229.416c2.365,0.86,4.643,2.015,6.755,3.514
			C778.354,367.244,782.79,376.291,782.391,385.888z"/>
		<path fill="#FCE175" d="M355.31,452.891c17.696,8.657,33.557,21.365,47.226,37.972c-0.544-70.581,4.952-127.293,12.976-172.138
			c0.03-0.606,0.146-1.19,0.313-1.76c10.672-58.762,25.627-96.965,36.736-119.169c2.569-5.139,2.841-10.914,0.763-16.267
			c-2.091-5.387-6.218-9.494-11.625-11.572c-8.952-3.442-16.566-6.514-22.637-9.128c-8.363-3.605-18.213-1.113-23.951,6.052
			c-60.14,75.168-63.624,186.787-63.818,197.851L355.31,452.891z"/>
		<path fill="#FCE175" d="M488.649,324.185c-5.675-4.788-13.115-6.784-20.437-5.479l-38.58,6.9
			c-8.246,47.884-13.55,109.426-11.602,187.24c22.534,36.279,48.383,63.953,77.353,82.92l2.104-252.35
			C497.548,335.986,494.328,328.976,488.649,324.185z"/>
		<path fill="#F57D71" d="M113.907,837.818c-1.127,0.599-2.126,1.823-1.771,2.758c0.238,0.625,0.677,1.782,3.824,2.392
			c5.438,1.054,9.983,4.429,12.467,9.265c2.478,4.825,2.576,10.47,0.27,15.49c-1.389,3.021-1.153,4.621-1.02,4.854
			c0.198,0.233,1.806,1.08,5.916,0.813c5.318-0.322,10.372,1.738,13.857,5.712c3.535,4.03,4.959,9.401,3.905,14.736
			c-0.502,2.54-0.279,4.107,0.14,4.492c0.15,0.137,3.87,3.301,21.746-1.9l2.944-0.854c23.744-6.886,59.257-17.219,105.085-41.477
			l-21.773-138.582C234.197,746.912,184.257,800.615,113.907,837.818z"/>
		<path fill="#FCE175" d="M337.69,445.82l-57.064-209.469c-2.956-10.847-14.239-17.457-25.147-14.736l-36.6,9.132
			c-5.608,1.401-10.259,4.943-13.1,9.975c-2.841,5.035-3.469,10.851-1.768,16.374l57.046,185.248
			C288.747,437.123,314.511,438.386,337.69,445.82z"/>
		<path fill="#FCE175" d="M295.237,232.374l24.343,89.358c3.047-22.897,8.814-52.396,19.677-82.918
			c-5.66-58.387-21.904-116.171-31.158-145.588c-3.333-10.592-14.285-16.444-24.94-13.339c-9.575,2.795-20.518,5.974-30.389,8.799
			c-10.474,2.998-16.657,13.627-14.076,24.197c7.431,30.447,17.258,75.944,20.909,93.011
			C275.75,205.519,290.837,216.218,295.237,232.374z"/>
		<path fill="#FCE175" d="M635.731,378.664c-1.656-2.675-4.048-4.697-6.876-5.904c-0.021-0.007-0.043-0.013-0.065-0.02
			c-0.828-0.349-1.682-0.651-2.579-0.852l-45.201-10.156c-7.849-1.745-15.686,2.928-17.845,10.677l-52.341,187.88l-0.37,44.431
			c21.569,11.49,44.735,18.476,69.427,20.91l57.683-235.423C638.535,386.236,637.884,382.136,635.731,378.664z"/>
		<path fill="#FCE175" d="M717.016,385.365c-7.204,62.047-17.261,142.889-28.87,220.075c25.556-13.341,48.888-32.97,69.884-58.812
			c4.744-64.184,7.638-123.079,9.233-161.369c0.187-4.518-1.819-8.61-5.503-11.224c-3.695-2.621-8.235-3.165-12.448-1.494
			L717.016,385.365z"/>
		<path fill="#FCE175" d="M674.421,225.767c3.695,15.025,6.552,31.794,7.903,50.198h21.236c6.499,0,12.716,2.769,17.058,7.594
			c4.335,4.817,6.429,11.276,5.747,17.723c-1.677,15.831-4.19,39.026-7.384,67.012l24.741-9.823
			c1.612-0.641,3.263-1.074,4.924-1.409l2.109-88.819l-39.58-191.95c-0.793-3.852-3.083-7.095-6.446-9.135
			c-3.364-2.037-7.294-2.569-11.08-1.486l-28.008,7.982c-6.656,1.893-10.964,8.492-10.021,15.346L674.421,225.767z"/>
		<path fill="#FCE175" d="M467.441,176.05c3.59,9.25,3.102,19.646-1.338,28.519c-10.071,20.128-23.4,53.893-33.536,105.13
			l32.978-5.899c8.33-1.499,16.75-0.272,24.21,3.281l7.459-28.158l37.451-159.755c0.608-2.599,0.115-5.242-1.392-7.446
			c-1.505-2.2-3.788-3.619-6.425-3.993l-40.944-5.83c-4.218-0.599-8.322,1.727-9.976,5.649l-21.847,51.893
			C460.081,163.45,464.794,169.225,467.441,176.05z"/>
		<path fill="#FCE175" d="M511.887,282.664l-9.096,34.334c6.361,7.316,9.921,16.681,9.84,26.544l-1.322,158.574l37.268-133.774
			c3.54-12.699,14.71-21.297,27.262-22.062c0.909-11.511,2.081-35.937-0.983-64.993L536.62,269.1
			c-5.131-1.638-10.555-1.109-15.274,1.479C516.624,273.166,513.266,277.459,511.887,282.664z"/>
		<path fill="#FCE175" d="M590.89,348.432l34.604,7.775l10.435-61.165c1.885-11.054,11.392-19.077,22.603-19.077h8.618
			c-3.64-47.165-17.694-82.878-29.19-104.928c-4.235-8.122-13.66-11.96-22.422-9.121c-13.189,4.277-24.807,8.163-34.532,11.549
			c-4.924,1.715-8.795,5.279-10.904,10.037c-2.165,4.884-2.192,10.322-0.076,15.306C595.892,259.754,592.755,326.965,590.89,348.432
			z"/>
		<path fill="#FCE175" d="M671.673,613.065c18.943-123.968,33.998-260.145,39.634-313.377c0.235-2.215-0.457-4.348-1.946-6.004
			c-1.495-1.66-3.557-2.577-5.801-2.577h-45.028c-3.808,0-7.035,2.725-7.675,6.477l-10.927,64.049
			c3.445,2.348,6.405,5.394,8.671,9.052c4.314,6.958,5.616,15.169,3.667,23.121l-57.023,232.73c1.582,0.035,3.161,0.078,4.754,0.078
			C625.413,626.615,649.325,622.079,671.673,613.065z"/>
		<path fill="#FCE175" d="M929.694,440.852c7.302,1.011,14.738,2.455,22.313,4.396c4.378,1.12,8.344,3.139,11.785,5.799
			l46.35-88.497c2.695-5.15,2.95-11.176,0.695-16.533c-2.255-5.361-6.742-9.39-12.307-11.065l-33.155-9.956
			C953.153,357.843,940.388,397.12,929.694,440.852z"/>
		<path fill="#F57D71" d="M928.267,695.865l33.639-214.107c1.553-9.889-4.446-19.483-13.655-21.842
			c-64.646-16.559-118.733,4.444-152.3,59.141c-31.621,51.529-69.645,86.959-113.591,106.043c-0.535,0.32-1.117,0.549-1.721,0.73
			c-25.007,10.579-51.907,15.927-80.638,15.927c-36.269,0-69.626-8.501-99.923-25.337c-0.625-0.246-1.203-0.571-1.734-0.965
			c-35.867-20.387-67.398-52.566-94.296-96.398c-33.567-54.701-87.65-75.696-152.298-59.141
			c-9.211,2.359-15.208,11.952-13.655,21.842l33.643,214.127l60.498,385.054c4.908,31.243,30.371,53.917,60.546,53.917h207.219
			h207.217c30.175,0,55.638-22.674,60.548-53.917l60.495-385.036C928.263,695.891,928.266,695.878,928.267,695.865z
			 M448.748,798.422c-24.494,0-44.348-19.43-44.348-43.399s19.855-43.399,44.348-43.399c24.492,0,44.348,19.43,44.348,43.399
			S473.24,798.422,448.748,798.422z M672.649,887.616c0,40.057-32.589,72.646-72.648,72.646s-72.648-32.589-72.648-72.646v-28.219
			c0-10.54,8.575-19.117,19.117-19.117h107.06c10.542,0,19.119,8.577,19.119,19.117V887.616z M751.255,711.624
			c24.492,0,44.347,19.43,44.347,43.399s-19.856,43.399-44.347,43.399c-24.494,0-44.349-19.43-44.349-43.399
			S726.761,711.624,751.255,711.624z"/>
		<path fill="#F57D71" d="M1086.093,837.818c-70.349-37.201-120.288-90.906-145.586-122.299l-21.773,138.58
			c45.826,24.254,81.34,34.591,105.082,41.477l2.948,0.854c17.87,5.205,21.592,2.041,21.744,1.9
			c0.418-0.385,0.641-1.952,0.141-4.492c-1.054-5.335,0.368-10.707,3.904-14.736c3.483-3.971,8.529-6.048,13.851-5.712
			c4.122,0.277,5.725-0.58,5.928-0.821c0.128-0.226,0.362-1.826-1.026-4.847c-2.307-5.021-2.207-10.666,0.272-15.49
			c2.483-4.836,7.028-8.211,12.468-9.265c3.142-0.606,3.582-1.767,3.819-2.392C1088.218,839.636,1087.22,838.416,1086.093,837.818z"
			/>
		<path fill="#E86054" d="M653.53,855.423H546.47c-2.192,0-3.974,1.782-3.974,3.974v28.219c0,8.488,1.897,16.526,5.213,23.786
			c13.643-13.991,32.476-22.112,52.292-22.112c19.818,0,38.65,8.12,52.291,22.112c3.316-7.259,5.214-15.298,5.214-23.786v-28.219
			C657.506,857.205,655.722,855.423,653.53,855.423z"/>
		<path fill="#FAA291" d="M600.001,904.434c-16.939,0-32.94,7.516-43.883,20.26c10.557,12.474,26.3,20.426,43.883,20.426
			c17.583,0,33.327-7.952,43.883-20.424C632.941,911.952,616.941,904.434,600.001,904.434z"/>
		<path fill="#FCE175" d="M914.472,439.393c22.406-92.505,54.083-165.665,71.212-201.459c1.812-3.786,1.946-8.011,0.381-11.893
			c-1.562-3.878-4.582-6.825-8.505-8.292c-9.801-3.675-21.25-8.015-31.378-11.982c-5.921-2.322-12.596-0.662-16.603,4.137
			c-70.36,84.212-96.689,207.463-104.566,254.836C850.453,446.294,880.742,437.667,914.472,439.393z"/>
		<path fill="#873249" d="M1093.174,824.434c-78.778-41.66-132.309-106.707-149.448-129.408l33.138-210.916
			c1.103-7.022-0.02-13.956-2.801-20.04l49.493-94.497c4.802-9.165,5.253-19.894,1.24-29.432
			c-4.013-9.538-11.999-16.714-21.91-19.69l-32.11-9.642c10.964-28.216,21.152-50.841,28.569-66.339
			c3.614-7.553,3.893-16.333,0.765-24.09c-3.124-7.753-9.407-13.882-17.237-16.814c-9.734-3.645-21.106-7.956-31.166-11.901
			c-11.999-4.699-25.563-1.272-33.75,8.529c-27.556,32.981-48.502,71.184-64.351,108.636l-9.247-184.425
			c-0.394-7.867-3.897-15.032-9.862-20.178c-5.967-5.146-13.568-7.557-21.402-6.791l-33.251,3.231
			c-14.348,1.397-25.426,13.317-25.768,27.724l-1.724,72.602L726.008,73.232c-1.632-7.904-6.527-14.84-13.429-19.021
			c-6.904-4.185-15.317-5.313-23.079-3.105l-28.009,7.982c-13.864,3.948-22.836,17.694-20.873,31.975l9.801,71.3
			c-8.054-13.531-24.357-19.785-39.551-14.851c-13.293,4.307-25.016,8.23-34.844,11.653c-8.923,3.109-15.943,9.572-19.766,18.2
			c-3.825,8.633-3.887,18.603-0.172,27.358c8.394,19.777,13.52,40.491,16.585,59.975l-31.452-10.024
			c-7.624-2.434-15.611-2.142-22.931,0.699l31.12-132.752c1.568-6.688,0.24-13.779-3.636-19.446
			c-3.876-5.668-9.999-9.472-16.794-10.44l-40.944-5.83c-11.037-1.556-21.746,4.51-26.064,14.77l-21.676,51.485
			c-5.835-2.296-10.953-4.39-15.234-6.237c-14.612-6.296-31.785-1.978-41.771,10.503c-13.208,16.507-23.783,34.493-32.306,52.749
			c-7.343-49.871-20.445-96.08-28.439-121.495c-5.732-18.215-25.304-28.674-43.628-23.328c-9.549,2.788-20.467,5.96-30.312,8.777
			c-18.322,5.242-29.138,23.846-24.62,42.349c7.336,30.051,17.038,74.946,20.734,92.216l-29.505,7.363
			c-9.682,2.418-17.716,8.533-22.621,17.224c-4.905,8.695-5.989,18.736-3.052,28.275l56.73,184.227
			c-15.701,4.98-25.788,21.43-23.13,38.329l33.138,210.914c-17.137,22.703-70.669,87.748-149.45,129.41
			c-8.208,4.344-11.929,13.391-8.849,21.509c1.674,4.414,5.653,10.06,15.105,11.893c1.1,0.211,1.627,0.832,1.874,1.316
			c0.244,0.473,0.439,1.25-0.019,2.244c-3.443,7.49-3.351,14.507,0.259,19.757c2.586,3.756,8.043,8.082,19.375,7.35
			c0.612-0.055,1.118,0.159,1.495,0.584c0.241,0.274,0.618,0.876,0.433,1.815c-1.966,9.96,1.509,15.609,4.77,18.596
			c3.682,3.372,8.751,5.05,15.479,5.05c5.673,0,12.527-1.194,20.721-3.575l2.934-0.854c23.555-6.832,58.381-16.936,103.351-40.209
			l33.525,213.38c6.072,38.652,37.826,66.709,75.504,66.709h207.219h207.217c37.678,0,69.433-28.057,75.506-66.709l33.525-213.38
			c44.969,23.271,79.792,33.377,103.347,40.209l2.937,0.854c8.194,2.381,15.047,3.575,20.72,3.575c6.729,0,11.797-1.678,15.479-5.05
			c3.261-2.987,6.736-8.636,4.769-18.596c-0.185-0.939,0.192-1.542,0.432-1.815c0.375-0.425,0.9-0.632,1.49-0.584
			c11.335,0.732,16.796-3.594,19.38-7.35c3.61-5.25,3.703-12.267,0.261-19.753c-0.458-0.998-0.264-1.775-0.02-2.248
			c0.248-0.484,0.775-1.105,1.878-1.316c9.448-1.834,13.426-7.479,15.099-11.89C1105.104,837.825,1101.383,828.778,1093.174,824.434
			z M998.531,334.951c5.566,1.675,10.052,5.704,12.307,11.065c2.255,5.357,2,11.383-0.695,16.533l-46.35,88.497
			c-3.441-2.66-7.407-4.679-11.785-5.799c-7.575-1.941-15.011-3.385-22.313-4.396c10.694-43.732,23.458-83.009,35.682-115.857
			L998.531,334.951z M929.578,209.903c4.008-4.799,10.682-6.459,16.603-4.137c10.128,3.967,21.578,8.307,31.378,11.982
			c3.923,1.468,6.943,4.414,8.505,8.292c1.566,3.882,1.431,8.108-0.381,11.893c-17.128,35.794-48.806,108.954-71.212,201.459
			c-33.731-1.727-64.019,6.9-89.46,25.347C832.889,417.366,859.218,294.116,929.578,209.903z M769.215,128.754
			c0.161-6.766,5.361-12.359,12.095-13.017l33.251-3.231c3.688-0.336,7.246,0.776,10.045,3.191c2.8,2.414,4.444,5.778,4.629,9.472
			l10.951,218.404c-23.09,65.655-31.087,122.759-32.749,136.264c-8.936,8.993-17.101,19.422-24.391,31.303
			c-2.69,4.381-5.432,8.625-8.216,12.758c3.764-54.967,6.162-104.403,7.561-138.009c0.399-9.597-4.037-18.644-11.867-24.204
			c-2.113-1.499-4.39-2.654-6.755-3.514L769.215,128.754z M761.76,374.036c3.684,2.614,5.69,6.706,5.503,11.224
			c-1.595,38.29-4.489,97.185-9.233,161.369c-20.995,25.842-44.327,45.471-69.884,58.812
			c11.609-77.186,21.666-158.028,28.87-220.075l32.296-12.823C753.525,370.871,758.065,371.414,761.76,374.036z M652.269,393.807
			c1.948-7.952,0.647-16.163-3.667-23.121c-2.266-3.658-5.227-6.705-8.671-9.052l10.927-64.049c0.64-3.752,3.867-6.477,7.675-6.477
			h45.028c2.244,0,4.305,0.917,5.801,2.577c1.49,1.656,2.181,3.789,1.946,6.004c-5.636,53.231-20.69,189.409-39.634,313.377
			c-22.348,9.013-46.26,13.55-71.672,13.55c-1.593,0-3.172-0.043-4.754-0.078L652.269,393.807z M579.88,625.63
			c-24.692-2.434-47.858-9.42-69.427-20.91l0.37-44.431l52.341-187.88c2.159-7.749,9.997-12.422,17.845-10.677l45.201,10.156
			c0.897,0.202,1.751,0.503,2.579,0.852c0.021,0.007,0.043,0.013,0.065,0.02c2.828,1.207,5.22,3.229,6.876,5.904
			c2.154,3.471,2.804,7.571,1.832,11.542L579.88,625.63z M665.641,73.654l28.008-7.982c3.786-1.083,7.716-0.551,11.08,1.486
			c3.362,2.041,5.653,5.283,6.446,9.135l39.58,191.95l-2.109,88.819c-1.662,0.335-3.313,0.767-4.924,1.409l-24.741,9.823
			c3.194-27.986,5.707-51.181,7.384-67.012c0.682-6.448-1.412-12.906-5.747-17.723c-4.342-4.825-10.559-7.594-17.058-7.594h-21.236
			c-1.351-18.404-4.208-35.173-7.903-50.198L655.621,89C654.678,82.146,658.985,75.547,665.641,73.654z M570.026,198.809
			c-2.117-4.984-2.089-10.422,0.076-15.306c2.109-4.758,5.98-8.322,10.904-10.037c9.725-3.386,21.343-7.272,34.532-11.549
			c8.762-2.839,18.187,0.998,22.422,9.121c11.496,22.051,25.55,57.764,29.19,104.928h-8.618c-11.211,0-20.718,8.022-22.603,19.077
			l-10.435,61.165l-34.604-7.775C592.755,326.965,595.892,259.754,570.026,198.809z M521.345,270.579
			c4.719-2.588,10.143-3.117,15.274-1.479l38.234,12.187c3.065,29.057,1.893,53.483,0.983,64.993
			c-12.551,0.765-23.722,9.363-27.262,22.062l-37.268,133.774l1.322-158.574c0.081-9.864-3.479-19.228-9.84-26.544l9.096-34.334
			C513.266,277.459,516.624,273.166,521.345,270.579z M475.926,107.548c1.654-3.923,5.758-6.248,9.976-5.649l40.944,5.83
			c2.638,0.373,4.921,1.793,6.425,3.993c1.507,2.203,2,4.847,1.392,7.446l-37.451,159.755l-7.459,28.158
			c-7.46-3.553-15.88-4.78-24.21-3.281l-32.978,5.899c10.136-51.237,23.466-85.002,33.536-105.13
			c4.44-8.873,4.928-19.269,1.338-28.519c-2.647-6.825-7.361-12.599-13.363-16.609L475.926,107.548z M497.487,343.417l-2.104,252.35
			c-28.971-18.967-54.819-46.641-77.353-82.92c-1.947-77.815,3.356-139.357,11.602-187.24l38.58-6.9
			c7.322-1.305,14.762,0.691,20.437,5.479C494.328,328.976,497.548,335.986,497.487,343.417z M395.111,166.881
			c5.738-7.165,15.588-9.657,23.951-6.052c6.07,2.614,13.684,5.686,22.637,9.128c5.407,2.078,9.535,6.185,11.625,11.572
			c2.078,5.353,1.806,11.128-0.763,16.267c-11.109,22.204-26.064,60.407-36.736,119.169c-0.167,0.569-0.284,1.153-0.313,1.76
			c-8.023,44.845-13.52,101.557-12.976,172.138c-13.669-16.607-29.53-29.315-47.226-37.972l-24.017-88.159
			C331.488,353.669,334.971,242.049,395.111,166.881z M238.693,112.883c-2.581-10.57,3.603-21.199,14.076-24.197
			c9.871-2.825,20.814-6.004,30.389-8.799c10.655-3.105,21.607,2.747,24.94,13.339c9.255,29.417,25.498,87.201,31.158,145.588
			c-10.864,30.522-16.63,60.021-19.677,82.918l-24.343-89.358c-4.399-16.156-19.487-26.855-35.634-26.48
			C255.95,188.827,246.124,143.33,238.693,112.883z M204.01,257.096c-1.701-5.523-1.073-11.339,1.768-16.374
			c2.841-5.032,7.492-8.573,13.1-9.975l36.6-9.132c10.908-2.721,22.191,3.889,25.147,14.736L337.69,445.82
			c-23.179-7.435-48.944-8.697-76.634-3.477L204.01,257.096z M176.184,895.576l-2.944,0.854c-17.876,5.202-21.596,2.037-21.746,1.9
			c-0.419-0.385-0.641-1.952-0.14-4.492c1.054-5.335-0.37-10.707-3.905-14.736c-3.485-3.974-8.539-6.034-13.857-5.712
			c-4.11,0.266-5.718-0.58-5.916-0.813c-0.133-0.233-0.369-1.834,1.02-4.854c2.306-5.021,2.208-10.666-0.27-15.49
			c-2.484-4.836-7.029-8.211-12.467-9.265c-3.146-0.61-3.586-1.767-3.824-2.392c-0.355-0.935,0.644-2.159,1.771-2.758
			c70.35-37.203,120.29-90.906,145.589-122.301l21.773,138.582C235.44,878.357,199.928,888.69,176.184,895.576z M867.766,1080.94
			c-4.91,31.243-30.373,53.917-60.548,53.917H600.001H392.782c-30.175,0-55.638-22.674-60.546-53.917l-60.498-385.054
			l-33.643-214.127c-1.553-9.889,4.444-19.483,13.655-21.842c64.648-16.555,118.731,4.44,152.298,59.141
			c26.898,43.832,58.429,76.01,94.296,96.398c0.531,0.394,1.109,0.719,1.734,0.965c30.297,16.836,63.654,25.337,99.923,25.337
			c28.731,0,55.632-5.348,80.638-15.927c0.604-0.181,1.186-0.41,1.721-0.73c43.946-19.084,81.97-54.514,113.591-106.043
			c33.567-54.697,87.654-75.7,152.3-59.141c9.209,2.359,15.208,11.952,13.655,21.842l-33.639,214.107
			c-0.002,0.013-0.005,0.026-0.006,0.039L867.766,1080.94z M1087.863,840.575c-0.237,0.625-0.677,1.786-3.819,2.392
			c-5.44,1.054-9.986,4.429-12.468,9.265c-2.479,4.825-2.579,10.47-0.272,15.49c1.388,3.021,1.153,4.621,1.026,4.847
			c-0.203,0.24-1.806,1.098-5.928,0.821c-5.322-0.336-10.368,1.741-13.851,5.712c-3.536,4.03-4.958,9.401-3.904,14.736
			c0.501,2.54,0.277,4.107-0.141,4.492c-0.152,0.141-3.874,3.305-21.744-1.9l-2.948-0.854
			c-23.742-6.886-59.256-17.223-105.082-41.477l21.773-138.58c25.299,31.393,75.237,85.098,145.586,122.299
			C1087.22,838.416,1088.218,839.636,1087.863,840.575z"/>
		<path fill="#873249" d="M448.748,711.624c-24.494,0-44.348,19.43-44.348,43.399s19.855,43.399,44.348,43.399
			c24.492,0,44.348-19.43,44.348-43.399S473.24,711.624,448.748,711.624z"/>
		<path fill="#873249" d="M751.255,798.422c24.492,0,44.347-19.43,44.347-43.399s-19.856-43.399-44.347-43.399
			c-24.494,0-44.349,19.43-44.349,43.399S726.761,798.422,751.255,798.422z"/>
		<path fill="#873249" d="M653.53,840.28H546.47c-10.542,0-19.117,8.577-19.117,19.117v28.219c0,40.057,32.589,72.646,72.648,72.646
			s72.648-32.589,72.648-72.646v-28.219C672.649,848.857,664.072,840.28,653.53,840.28z M600.001,945.119
			c-17.584,0-33.327-7.952-43.883-20.426c10.943-12.744,26.945-20.26,43.883-20.26c16.94,0,32.94,7.518,43.883,20.261
			C633.328,937.167,617.584,945.119,600.001,945.119z M657.506,887.616c0,8.488-1.898,16.527-5.214,23.786
			c-13.641-13.991-32.474-22.112-52.291-22.112c-19.816,0-38.649,8.12-52.292,22.112c-3.316-7.261-5.213-15.298-5.213-23.786
			v-28.219c0-2.192,1.782-3.974,3.974-3.974h107.06c2.192,0,3.976,1.782,3.976,3.974V887.616z"/>
		<linearGradient id="SVGID_1_" gradientUnits="userSpaceOnUse" x1="763.7682" y1="318.1721" x2="840.1854" y2="318.1721">
			<stop  offset="0" style="stop-color:#F7AD66"/>
			<stop  offset="1" style="stop-color:#F7AD66;stop-opacity:0"/>
		</linearGradient>
		<path fill="url(#SVGID_1_)" d="M782.391,385.888c-1.399,33.606-3.797,83.042-7.561,138.009c2.784-4.133,5.526-8.377,8.216-12.758
			c7.29-11.88,15.455-22.31,24.391-31.303c1.662-13.505,9.659-70.609,32.749-136.264l-10.951-218.404
			c-0.185-3.693-1.828-7.058-4.629-9.472c-2.799-2.414-6.357-3.527-10.045-3.191l-33.251,3.231
			c-6.734,0.658-11.934,6.252-12.095,13.017l-5.447,229.416c2.365,0.86,4.643,2.015,6.755,3.514
			C778.354,367.244,782.79,376.291,782.391,385.888z"/>
		<linearGradient id="SVGID_2_" gradientUnits="userSpaceOnUse" x1="331.2935" y1="325.0274" x2="454.7068" y2="325.0274">
			<stop  offset="0" style="stop-color:#F7AD66"/>
			<stop  offset="1" style="stop-color:#F7AD66;stop-opacity:0"/>
		</linearGradient>
		<path fill="url(#SVGID_2_)" d="M355.31,452.891c17.696,8.657,33.557,21.365,47.226,37.972
			c-0.544-70.581,4.952-127.293,12.976-172.138c0.03-0.606,0.146-1.19,0.313-1.76c10.672-58.762,25.627-96.965,36.736-119.169
			c2.569-5.139,2.841-10.914,0.763-16.267c-2.091-5.387-6.218-9.494-11.625-11.572c-8.952-3.442-16.566-6.514-22.637-9.128
			c-8.363-3.605-18.213-1.113-23.951,6.052c-60.14,75.168-63.624,186.787-63.818,197.851L355.31,452.891z"/>
		<linearGradient id="SVGID_3_" gradientUnits="userSpaceOnUse" x1="417.6265" y1="457.0412" x2="497.4877" y2="457.0412">
			<stop  offset="0" style="stop-color:#F7AD66"/>
			<stop  offset="1" style="stop-color:#F7AD66;stop-opacity:0"/>
		</linearGradient>
		<path fill="url(#SVGID_3_)" d="M488.649,324.185c-5.675-4.788-13.115-6.784-20.437-5.479l-38.58,6.9
			c-8.246,47.884-13.55,109.426-11.602,187.24c22.534,36.279,48.383,63.953,77.353,82.92l2.104-252.35
			C497.548,335.986,494.328,328.976,488.649,324.185z"/>
		<linearGradient id="SVGID_4_" gradientUnits="userSpaceOnUse" x1="203.0729" y1="333.4119" x2="337.6902" y2="333.4119">
			<stop  offset="0" style="stop-color:#F7AD66"/>
			<stop  offset="1" style="stop-color:#F7AD66;stop-opacity:0"/>
		</linearGradient>
		<path fill="url(#SVGID_4_)" d="M337.69,445.82l-57.064-209.469c-2.956-10.847-14.239-17.457-25.147-14.736l-36.6,9.132
			c-5.608,1.401-10.259,4.943-13.1,9.975c-2.841,5.035-3.469,10.851-1.768,16.374l57.046,185.248
			C288.747,437.123,314.511,438.386,337.69,445.82z"/>
		<linearGradient id="SVGID_5_" gradientUnits="userSpaceOnUse" x1="238.1077" y1="200.3942" x2="339.2569" y2="200.3942">
			<stop  offset="0" style="stop-color:#F7AD66"/>
			<stop  offset="1" style="stop-color:#F7AD66;stop-opacity:0"/>
		</linearGradient>
		<path fill="url(#SVGID_5_)" d="M295.237,232.374l24.343,89.358c3.047-22.897,8.814-52.396,19.677-82.918
			c-5.66-58.387-21.904-116.171-31.158-145.588c-3.333-10.592-14.285-16.444-24.94-13.339c-9.575,2.795-20.518,5.974-30.389,8.799
			c-10.474,2.998-16.657,13.627-14.076,24.197c7.431,30.447,17.258,75.944,20.909,93.011
			C275.75,205.519,290.837,216.218,295.237,232.374z"/>
		<linearGradient id="SVGID_6_" gradientUnits="userSpaceOnUse" x1="510.4532" y1="493.4985" x2="638.0028" y2="493.4985">
			<stop  offset="0" style="stop-color:#F7AD66"/>
			<stop  offset="1" style="stop-color:#F7AD66;stop-opacity:0"/>
		</linearGradient>
		<path fill="url(#SVGID_6_)" d="M635.731,378.664c-1.656-2.675-4.048-4.697-6.876-5.904c-0.021-0.007-0.043-0.013-0.065-0.02
			c-0.828-0.349-1.682-0.651-2.579-0.852l-45.201-10.156c-7.849-1.745-15.686,2.928-17.845,10.677l-52.341,187.88l-0.37,44.431
			c21.569,11.49,44.735,18.476,69.427,20.91l57.683-235.423C638.535,386.236,637.884,382.136,635.731,378.664z"/>
		<linearGradient id="SVGID_7_" gradientUnits="userSpaceOnUse" x1="688.146" y1="488.5146" x2="767.2748" y2="488.5146">
			<stop  offset="0" style="stop-color:#F7AD66"/>
			<stop  offset="1" style="stop-color:#F7AD66;stop-opacity:0"/>
		</linearGradient>
		<path fill="url(#SVGID_7_)" d="M717.016,385.365c-7.204,62.047-17.261,142.889-28.87,220.075
			c25.556-13.341,48.888-32.97,69.884-58.812c4.744-64.184,7.638-123.079,9.233-161.369c0.187-4.518-1.819-8.61-5.503-11.224
			c-3.695-2.621-8.235-3.165-12.448-1.494L717.016,385.365z"/>
		<linearGradient id="SVGID_8_" gradientUnits="userSpaceOnUse" x1="655.4915" y1="216.7086" x2="750.7557" y2="216.7086">
			<stop  offset="0" style="stop-color:#F7AD66"/>
			<stop  offset="1" style="stop-color:#F7AD66;stop-opacity:0"/>
		</linearGradient>
		<path fill="url(#SVGID_8_)" d="M674.421,225.767c3.695,15.025,6.552,31.794,7.903,50.198h21.236
			c6.499,0,12.716,2.769,17.058,7.594c4.335,4.817,6.429,11.276,5.747,17.723c-1.677,15.831-4.19,39.026-7.384,67.012l24.741-9.823
			c1.612-0.641,3.263-1.074,4.924-1.409l2.109-88.819l-39.58-191.95c-0.793-3.852-3.083-7.095-6.446-9.135
			c-3.364-2.037-7.294-2.569-11.08-1.486l-28.008,7.982c-6.656,1.893-10.964,8.492-10.021,15.346L674.421,225.767z"/>
		<linearGradient id="SVGID_9_" gradientUnits="userSpaceOnUse" x1="432.5665" y1="205.752" x2="534.9176" y2="205.752">
			<stop  offset="0" style="stop-color:#F7AD66"/>
			<stop  offset="1" style="stop-color:#F7AD66;stop-opacity:0"/>
		</linearGradient>
		<path fill="url(#SVGID_9_)" d="M467.441,176.05c3.59,9.25,3.102,19.646-1.338,28.519c-10.071,20.128-23.4,53.893-33.536,105.13
			l32.978-5.899c8.33-1.499,16.75-0.272,24.21,3.281l7.459-28.158l37.451-159.755c0.608-2.599,0.115-5.242-1.392-7.446
			c-1.505-2.2-3.788-3.619-6.425-3.993l-40.944-5.83c-4.218-0.599-8.322,1.727-9.976,5.649l-21.847,51.893
			C460.081,163.45,464.794,169.225,467.441,176.05z"/>
		<linearGradient id="SVGID_10_" gradientUnits="userSpaceOnUse" x1="502.7902" y1="385.1409" x2="576.837" y2="385.1409">
			<stop  offset="0" style="stop-color:#F7AD66"/>
			<stop  offset="1" style="stop-color:#F7AD66;stop-opacity:0"/>
		</linearGradient>
		<path fill="url(#SVGID_10_)" d="M511.887,282.664l-9.096,34.334c6.361,7.316,9.921,16.681,9.84,26.544l-1.322,158.574
			l37.268-133.774c3.54-12.699,14.71-21.297,27.262-22.062c0.909-11.511,2.081-35.937-0.983-64.993L536.62,269.1
			c-5.131-1.638-10.555-1.109-15.274,1.479C516.624,273.166,513.266,277.459,511.887,282.664z"/>
		<linearGradient id="SVGID_11_" gradientUnits="userSpaceOnUse" x1="568.458" y1="258.5965" x2="667.1498" y2="258.5965">
			<stop  offset="0" style="stop-color:#F7AD66"/>
			<stop  offset="1" style="stop-color:#F7AD66;stop-opacity:0"/>
		</linearGradient>
		<path fill="url(#SVGID_11_)" d="M590.89,348.432l34.604,7.775l10.435-61.165c1.885-11.054,11.392-19.077,22.603-19.077h8.618
			c-3.64-47.165-17.694-82.878-29.19-104.928c-4.235-8.122-13.66-11.96-22.422-9.121c-13.189,4.277-24.807,8.163-34.532,11.549
			c-4.924,1.715-8.795,5.279-10.904,10.037c-2.165,4.884-2.192,10.322-0.076,15.306C595.892,259.754,592.755,326.965,590.89,348.432
			z"/>
		<linearGradient id="SVGID_12_" gradientUnits="userSpaceOnUse" x1="595.2468" y1="458.8615" x2="711.3517" y2="458.8615">
			<stop  offset="0" style="stop-color:#F7AD66"/>
			<stop  offset="1" style="stop-color:#F7AD66;stop-opacity:0"/>
		</linearGradient>
		<path fill="url(#SVGID_12_)" d="M671.673,613.065c18.943-123.968,33.998-260.145,39.634-313.377
			c0.235-2.215-0.457-4.348-1.946-6.004c-1.495-1.66-3.557-2.577-5.801-2.577h-45.028c-3.808,0-7.035,2.725-7.675,6.477
			l-10.927,64.049c3.445,2.348,6.405,5.394,8.671,9.052c4.314,6.958,5.616,15.169,3.667,23.121l-57.023,232.73
			c1.582,0.035,3.161,0.078,4.754,0.078C625.413,626.615,649.325,622.079,671.673,613.065z"/>
		<linearGradient id="SVGID_13_" gradientUnits="userSpaceOnUse" x1="929.6945" y1="388.0204" x2="1012.3641" y2="388.0204">
			<stop  offset="0" style="stop-color:#F7AD66"/>
			<stop  offset="1" style="stop-color:#F7AD66;stop-opacity:0"/>
		</linearGradient>
		<path fill="url(#SVGID_13_)" d="M929.694,440.852c7.302,1.011,14.738,2.455,22.313,4.396c4.378,1.12,8.344,3.139,11.785,5.799
			l46.35-88.497c2.695-5.15,2.95-11.176,0.695-16.533c-2.255-5.361-6.742-9.39-12.307-11.065l-33.155-9.956
			C953.153,357.843,940.388,397.12,929.694,440.852z"/>
		<linearGradient id="SVGID_14_" gradientUnits="userSpaceOnUse" x1="825.0119" y1="334.7344" x2="987.148" y2="334.7344">
			<stop  offset="0" style="stop-color:#F7AD66"/>
			<stop  offset="1" style="stop-color:#F7AD66;stop-opacity:0"/>
		</linearGradient>
		<path fill="url(#SVGID_14_)" d="M914.472,439.393c22.406-92.505,54.083-165.665,71.212-201.459
			c1.812-3.786,1.946-8.011,0.381-11.893c-1.562-3.878-4.582-6.825-8.505-8.292c-9.801-3.675-21.25-8.015-31.378-11.982
			c-5.921-2.322-12.596-0.662-16.603,4.137c-70.36,84.212-96.689,207.463-104.566,254.836
			C850.453,446.294,880.742,437.667,914.472,439.393z"/>
		<linearGradient id="SVGID_15_" gradientUnits="userSpaceOnUse" x1="998.1118" y1="133.1214" x2="327.5828" y2="697.347">
			<stop  offset="0" style="stop-color:#FEEEA7"/>
			<stop  offset="0.6399" style="stop-color:#FDEB8F;stop-opacity:0"/>
		</linearGradient>
		<path fill="url(#SVGID_15_)" d="M782.391,385.888c-1.399,33.606-3.797,83.042-7.561,138.009c2.784-4.133,5.526-8.377,8.216-12.758
			c7.29-11.88,15.455-22.31,24.391-31.303c1.662-13.505,9.659-70.609,32.749-136.264l-10.951-218.404
			c-0.185-3.693-1.828-7.058-4.629-9.472c-2.799-2.414-6.357-3.527-10.045-3.191l-33.251,3.231
			c-6.734,0.658-11.934,6.252-12.095,13.017l-5.447,229.416c2.365,0.86,4.643,2.015,6.755,3.514
			C778.354,367.244,782.79,376.291,782.391,385.888z"/>
		<linearGradient id="SVGID_16_" gradientUnits="userSpaceOnUse" x1="845.991" y1="-47.6599" x2="175.4619" y2="516.5658">
			<stop  offset="0" style="stop-color:#FEEEA7"/>
			<stop  offset="0.6399" style="stop-color:#FDEB8F;stop-opacity:0"/>
		</linearGradient>
		<path fill="url(#SVGID_16_)" d="M355.31,452.891c17.696,8.657,33.557,21.365,47.226,37.972
			c-0.544-70.581,4.952-127.293,12.976-172.138c0.03-0.606,0.146-1.19,0.313-1.76c10.672-58.762,25.627-96.965,36.736-119.169
			c2.569-5.139,2.841-10.914,0.763-16.267c-2.091-5.387-6.218-9.494-11.625-11.572c-8.952-3.442-16.566-6.514-22.637-9.128
			c-8.363-3.605-18.213-1.113-23.951,6.052c-60.14,75.168-63.624,186.787-63.818,197.851L355.31,452.891z"/>
		<linearGradient id="SVGID_17_" gradientUnits="userSpaceOnUse" x1="937.4548" y1="61.0362" x2="266.9257" y2="625.2619">
			<stop  offset="0" style="stop-color:#FEEEA7"/>
			<stop  offset="0.6399" style="stop-color:#FDEB8F;stop-opacity:0"/>
		</linearGradient>
		<path fill="url(#SVGID_17_)" d="M488.649,324.185c-5.675-4.788-13.115-6.784-20.437-5.479l-38.58,6.9
			c-8.246,47.884-13.55,109.426-11.602,187.24c22.534,36.279,48.383,63.953,77.353,82.92l2.104-252.35
			C497.548,335.986,494.328,328.976,488.649,324.185z"/>
		<linearGradient id="SVGID_18_" gradientUnits="userSpaceOnUse" x1="800.0983" y1="-102.199" x2="129.5693" y2="462.0267">
			<stop  offset="0" style="stop-color:#FEEEA7"/>
			<stop  offset="0.6399" style="stop-color:#FDEB8F;stop-opacity:0"/>
		</linearGradient>
		<path fill="url(#SVGID_18_)" d="M337.69,445.82l-57.064-209.469c-2.956-10.847-14.239-17.457-25.147-14.736l-36.6,9.132
			c-5.608,1.401-10.259,4.943-13.1,9.975c-2.841,5.035-3.469,10.851-1.768,16.374l57.046,185.248
			C288.747,437.123,314.511,438.386,337.69,445.82z"/>
		<linearGradient id="SVGID_19_" gradientUnits="userSpaceOnUse" x1="737.9246" y1="-176.0867" x2="67.3954" y2="388.139">
			<stop  offset="0" style="stop-color:#FEEEA7"/>
			<stop  offset="0.6399" style="stop-color:#FDEB8F;stop-opacity:0"/>
		</linearGradient>
		<path fill="url(#SVGID_19_)" d="M295.237,232.374l24.343,89.358c3.047-22.897,8.814-52.396,19.677-82.918
			c-5.66-58.387-21.904-116.171-31.158-145.588c-3.333-10.592-14.285-16.444-24.94-13.339c-9.575,2.795-20.518,5.974-30.389,8.799
			c-10.474,2.998-16.657,13.627-14.076,24.197c7.431,30.447,17.258,75.944,20.909,93.011
			C275.75,205.519,290.837,216.218,295.237,232.374z"/>
		<linearGradient id="SVGID_20_" gradientUnits="userSpaceOnUse" x1="1000.6823" y1="136.1761" x2="330.1532" y2="700.4017">
			<stop  offset="0" style="stop-color:#FEEEA7"/>
			<stop  offset="0.6399" style="stop-color:#FDEB8F;stop-opacity:0"/>
		</linearGradient>
		<path fill="url(#SVGID_20_)" d="M635.731,378.664c-1.656-2.675-4.048-4.697-6.876-5.904c-0.021-0.007-0.043-0.013-0.065-0.02
			c-0.828-0.349-1.682-0.651-2.579-0.852l-45.201-10.156c-7.849-1.745-15.686,2.928-17.845,10.677l-52.341,187.88l-0.37,44.431
			c21.569,11.49,44.735,18.476,69.427,20.91l57.683-235.423C638.535,386.236,637.884,382.136,635.731,378.664z"/>
		<linearGradient id="SVGID_21_" gradientUnits="userSpaceOnUse" x1="1055.5858" y1="201.4238" x2="385.0568" y2="765.6495">
			<stop  offset="0" style="stop-color:#FEEEA7"/>
			<stop  offset="0.6399" style="stop-color:#FDEB8F;stop-opacity:0"/>
		</linearGradient>
		<path fill="url(#SVGID_21_)" d="M717.016,385.365c-7.204,62.047-17.261,142.889-28.87,220.075
			c25.556-13.341,48.888-32.97,69.884-58.812c4.744-64.184,7.638-123.079,9.233-161.369c0.187-4.518-1.819-8.61-5.503-11.224
			c-3.695-2.621-8.235-3.165-12.448-1.494L717.016,385.365z"/>
		<linearGradient id="SVGID_22_" gradientUnits="userSpaceOnUse" x1="917.6158" y1="37.4594" x2="247.0867" y2="601.6851">
			<stop  offset="0" style="stop-color:#FEEEA7"/>
			<stop  offset="0.6399" style="stop-color:#FDEB8F;stop-opacity:0"/>
		</linearGradient>
		<path fill="url(#SVGID_22_)" d="M674.421,225.767c3.695,15.025,6.552,31.794,7.903,50.198h21.236
			c6.499,0,12.716,2.769,17.058,7.594c4.335,4.817,6.429,11.276,5.747,17.723c-1.677,15.831-4.19,39.026-7.384,67.012l24.741-9.823
			c1.612-0.641,3.263-1.074,4.924-1.409l2.109-88.819l-39.58-191.95c-0.793-3.852-3.083-7.095-6.446-9.135
			c-3.364-2.037-7.294-2.569-11.08-1.486l-28.008,7.982c-6.656,1.893-10.964,8.492-10.021,15.346L674.421,225.767z"/>
		<linearGradient id="SVGID_23_" gradientUnits="userSpaceOnUse" x1="820.7313" y1="-77.6787" x2="150.2022" y2="486.547">
			<stop  offset="0" style="stop-color:#FEEEA7"/>
			<stop  offset="0.6399" style="stop-color:#FDEB8F;stop-opacity:0"/>
		</linearGradient>
		<path fill="url(#SVGID_23_)" d="M467.441,176.05c3.59,9.25,3.102,19.646-1.338,28.519c-10.071,20.128-23.4,53.893-33.536,105.13
			l32.978-5.899c8.33-1.499,16.75-0.272,24.21,3.281l7.459-28.158l37.451-159.755c0.608-2.599,0.115-5.242-1.392-7.446
			c-1.505-2.2-3.788-3.619-6.425-3.993l-40.944-5.83c-4.218-0.599-8.322,1.727-9.976,5.649l-21.847,51.893
			C460.081,163.45,464.794,169.225,467.441,176.05z"/>
		<linearGradient id="SVGID_24_" gradientUnits="userSpaceOnUse" x1="923.0171" y1="43.8783" x2="252.488" y2="608.104">
			<stop  offset="0" style="stop-color:#FEEEA7"/>
			<stop  offset="0.6399" style="stop-color:#FDEB8F;stop-opacity:0"/>
		</linearGradient>
		<path fill="url(#SVGID_24_)" d="M511.887,282.664l-9.096,34.334c6.361,7.316,9.921,16.681,9.84,26.544l-1.322,158.574
			l37.268-133.774c3.54-12.699,14.71-21.297,27.262-22.062c0.909-11.511,2.081-35.937-0.983-64.993L536.62,269.1
			c-5.131-1.638-10.555-1.109-15.274,1.479C516.624,273.166,513.266,277.459,511.887,282.664z"/>
		<linearGradient id="SVGID_25_" gradientUnits="userSpaceOnUse" x1="898.9142" y1="15.2344" x2="228.3852" y2="579.4601">
			<stop  offset="0" style="stop-color:#FEEEA7"/>
			<stop  offset="0.6399" style="stop-color:#FDEB8F;stop-opacity:0"/>
		</linearGradient>
		<path fill="url(#SVGID_25_)" d="M590.89,348.432l34.604,7.775l10.435-61.165c1.885-11.054,11.392-19.077,22.603-19.077h8.618
			c-3.64-47.165-17.694-82.878-29.19-104.928c-4.235-8.122-13.66-11.96-22.422-9.121c-13.189,4.277-24.807,8.163-34.532,11.549
			c-4.924,1.715-8.795,5.279-10.904,10.037c-2.165,4.884-2.192,10.322-0.076,15.306C595.892,259.754,592.755,326.965,590.89,348.432
			z"/>
		<linearGradient id="SVGID_26_" gradientUnits="userSpaceOnUse" x1="1016.6113" y1="155.1063" x2="346.0822" y2="719.332">
			<stop  offset="0" style="stop-color:#FEEEA7"/>
			<stop  offset="0.6399" style="stop-color:#FDEB8F;stop-opacity:0"/>
		</linearGradient>
		<path fill="url(#SVGID_26_)" d="M671.673,613.065c18.943-123.968,33.998-260.145,39.634-313.377
			c0.235-2.215-0.457-4.348-1.946-6.004c-1.495-1.66-3.557-2.577-5.801-2.577h-45.028c-3.808,0-7.035,2.725-7.675,6.477
			l-10.927,64.049c3.445,2.348,6.405,5.394,8.671,9.052c4.314,6.958,5.616,15.169,3.667,23.121l-57.023,232.73
			c1.582,0.035,3.161,0.078,4.754,0.078C625.413,626.615,649.325,622.079,671.673,613.065z"/>
		<linearGradient id="SVGID_27_" gradientUnits="userSpaceOnUse" x1="1109.7875" y1="265.8374" x2="439.2584" y2="830.0631">
			<stop  offset="0" style="stop-color:#FEEEA7"/>
			<stop  offset="0.6399" style="stop-color:#FDEB8F;stop-opacity:0"/>
		</linearGradient>
		<path fill="url(#SVGID_27_)" d="M929.694,440.852c7.302,1.011,14.738,2.455,22.313,4.396c4.378,1.12,8.344,3.139,11.785,5.799
			l46.35-88.497c2.695-5.15,2.95-11.176,0.695-16.533c-2.255-5.361-6.742-9.39-12.307-11.065l-33.155-9.956
			C953.153,357.843,940.388,397.12,929.694,440.852z"/>
		<linearGradient id="SVGID_28_" gradientUnits="userSpaceOnUse" x1="1060.854" y1="207.6845" x2="390.3249" y2="771.9102">
			<stop  offset="0" style="stop-color:#FEEEA7"/>
			<stop  offset="0.6399" style="stop-color:#FDEB8F;stop-opacity:0"/>
		</linearGradient>
		<path fill="url(#SVGID_28_)" d="M914.472,439.393c22.406-92.505,54.083-165.665,71.212-201.459
			c1.812-3.786,1.946-8.011,0.381-11.893c-1.562-3.878-4.582-6.825-8.505-8.292c-9.801-3.675-21.25-8.015-31.378-11.982
			c-5.921-2.322-12.596-0.662-16.603,4.137c-70.36,84.212-96.689,207.463-104.566,254.836
			C850.453,446.294,880.742,437.667,914.472,439.393z"/>
		<radialGradient id="SVGID_29_" cx="601.8182" cy="827.3372" r="596.6376" gradientUnits="userSpaceOnUse">
			<stop  offset="0.0626" style="stop-color:#ED3D2A;stop-opacity:0"/>
			<stop  offset="0.556" style="stop-color:#D43224;stop-opacity:0.6302"/>
			<stop  offset="0.8456" style="stop-color:#C32A20"/>
		</radialGradient>
		<path fill="url(#SVGID_29_)" d="M928.267,695.865l33.639-214.107c1.553-9.889-4.446-19.483-13.655-21.842
			c-64.646-16.559-118.733,4.444-152.3,59.141c-31.621,51.529-69.645,86.959-113.591,106.043c-0.535,0.32-1.117,0.549-1.721,0.73
			c-25.007,10.579-51.907,15.927-80.638,15.927c-36.269,0-69.626-8.501-99.923-25.337c-0.625-0.246-1.203-0.571-1.734-0.965
			c-35.867-20.387-67.398-52.566-94.296-96.398c-33.567-54.701-87.65-75.696-152.298-59.141
			c-9.211,2.359-15.208,11.952-13.655,21.842l33.643,214.127l60.498,385.054c4.908,31.243,30.371,53.917,60.546,53.917h207.219
			h207.217c30.175,0,55.638-22.674,60.548-53.917l60.495-385.036C928.263,695.891,928.266,695.878,928.267,695.865z
			 M448.748,798.422c-24.494,0-44.348-19.43-44.348-43.399s19.855-43.399,44.348-43.399c24.492,0,44.348,19.43,44.348,43.399
			S473.24,798.422,448.748,798.422z M672.649,887.616c0,40.057-32.589,72.646-72.648,72.646s-72.648-32.589-72.648-72.646v-28.219
			c0-10.54,8.575-19.117,19.117-19.117h107.06c10.542,0,19.119,8.577,19.119,19.117V887.616z M751.255,711.624
			c24.492,0,44.347,19.43,44.347,43.399s-19.856,43.399-44.347,43.399c-24.494,0-44.349-19.43-44.349-43.399
			S726.761,711.624,751.255,711.624z"/>
		<linearGradient id="SVGID_30_" gradientUnits="userSpaceOnUse" x1="162.1332" y1="819.4856" x2="326.3531" y2="778.715">
			<stop  offset="0.0626" style="stop-color:#ED3D2A;stop-opacity:0"/>
			<stop  offset="0.8655" style="stop-color:#DD3222"/>
		</linearGradient>
		<path fill="url(#SVGID_30_)" d="M113.907,837.818c-1.127,0.599-2.126,1.823-1.771,2.758c0.238,0.625,0.677,1.782,3.824,2.392
			c5.438,1.054,9.983,4.429,12.467,9.265c2.478,4.825,2.576,10.47,0.27,15.49c-1.389,3.021-1.153,4.621-1.02,4.854
			c0.198,0.233,1.806,1.08,5.916,0.813c5.318-0.322,10.372,1.738,13.857,5.712c3.535,4.03,4.959,9.401,3.905,14.736
			c-0.502,2.54-0.279,4.107,0.14,4.492c0.15,0.137,3.87,3.301,21.746-1.9l2.944-0.854c23.744-6.886,59.257-17.219,105.085-41.477
			l-21.773-138.582C234.197,746.912,184.257,800.615,113.907,837.818z"/>
		<linearGradient id="SVGID_31_" gradientUnits="userSpaceOnUse" x1="1010.8084" y1="819.2075" x2="854.0511" y2="755.5132">
			<stop  offset="0.0626" style="stop-color:#ED3D2A;stop-opacity:0"/>
			<stop  offset="0.8655" style="stop-color:#DD3222"/>
		</linearGradient>
		<path fill="url(#SVGID_31_)" d="M1086.093,837.818c-70.349-37.201-120.288-90.906-145.586-122.299l-21.773,138.58
			c45.826,24.254,81.34,34.591,105.082,41.477l2.948,0.854c17.87,5.205,21.592,2.041,21.744,1.9
			c0.418-0.385,0.641-1.952,0.141-4.492c-1.054-5.335,0.368-10.707,3.904-14.736c3.483-3.971,8.529-6.048,13.851-5.712
			c4.122,0.277,5.725-0.58,5.928-0.821c0.128-0.226,0.362-1.826-1.026-4.847c-2.307-5.021-2.207-10.666,0.272-15.49
			c2.483-4.836,7.028-8.211,12.468-9.265c3.142-0.606,3.582-1.767,3.819-2.392C1088.218,839.636,1087.22,838.416,1086.093,837.818z"
			/>
		
			<radialGradient id="SVGID_32_" cx="431.3382" cy="916.4768" r="80.6245" gradientTransform="matrix(0.9996 0.0266 -0.0201 0.7543 18.5653 213.6554)" gradientUnits="userSpaceOnUse">
			<stop  offset="0" style="stop-color:#C31C28"/>
			<stop  offset="0.5211" style="stop-color:#DE2C2E;stop-opacity:0.4332"/>
			<stop  offset="0.9194" style="stop-color:#EE3632;stop-opacity:0"/>
		</radialGradient>
		<path fill="url(#SVGID_32_)" d="M431.338,867.785c-40.309,0-71.884,21.389-71.884,48.694c0,27.301,31.575,48.689,71.884,48.689
			s71.884-21.389,71.884-48.689C503.222,889.174,471.647,867.785,431.338,867.785z"/>
		
			<radialGradient id="SVGID_33_" cx="768.6631" cy="916.4768" r="80.6245" gradientTransform="matrix(0.9996 0.0266 -0.0201 0.7543 18.6849 204.6747)" gradientUnits="userSpaceOnUse">
			<stop  offset="0" style="stop-color:#C31C28"/>
			<stop  offset="0.5211" style="stop-color:#DE2C2E;stop-opacity:0.4332"/>
			<stop  offset="0.9194" style="stop-color:#EE3632;stop-opacity:0"/>
		</radialGradient>
		<path fill="url(#SVGID_33_)" d="M768.663,867.785c-40.309,0-71.884,21.389-71.884,48.694c0,27.301,31.575,48.689,71.884,48.689
			s71.884-21.389,71.884-48.689C840.547,889.174,808.972,867.785,768.663,867.785z"/>
		<radialGradient id="SVGID_34_" cx="600.0011" cy="883.4127" r="70.8268" gradientUnits="userSpaceOnUse">
			<stop  offset="0" style="stop-color:#DA3121;stop-opacity:0"/>
			<stop  offset="0.9766" style="stop-color:#DD3222"/>
		</radialGradient>
		<path fill="url(#SVGID_34_)" d="M653.53,855.423H546.47c-2.192,0-3.974,1.782-3.974,3.974v28.219
			c0,8.488,1.897,16.526,5.213,23.786c13.643-13.991,32.476-22.112,52.292-22.112c19.818,0,38.65,8.12,52.291,22.112
			c3.316-7.259,5.214-15.298,5.214-23.786v-28.219C657.506,857.205,655.722,855.423,653.53,855.423z"/>
		<linearGradient id="SVGID_35_" gradientUnits="userSpaceOnUse" x1="447.3468" y1="761.2747" x2="474.5266" y2="734.0949">
			<stop  offset="0" style="stop-color:#FFFFFF;stop-opacity:0"/>
			<stop  offset="0.4979" style="stop-color:#FEF9E5;stop-opacity:0.4979"/>
			<stop  offset="1" style="stop-color:#FCF2C7"/>
		</linearGradient>
		<circle fill="url(#SVGID_35_)" cx="461.499" cy="747.123" r="19.219"/>
		<linearGradient id="SVGID_36_" gradientUnits="userSpaceOnUse" x1="749.8524" y1="761.2747" x2="777.0322" y2="734.0949">
			<stop  offset="0" style="stop-color:#FFFFFF;stop-opacity:0"/>
			<stop  offset="0.4979" style="stop-color:#FEF9E5;stop-opacity:0.4979"/>
			<stop  offset="1" style="stop-color:#FCF2C7"/>
		</linearGradient>
		<circle fill="url(#SVGID_36_)" cx="764.005" cy="747.123" r="19.219"/>
	</g>
	<g opacity="0.8">
		<linearGradient id="SVGID_37_" gradientUnits="userSpaceOnUse" x1="336.6367" y1="654.9005" x2="278.3478" y2="654.9005">
			<stop  offset="0" style="stop-color:#FFFFFF;stop-opacity:0"/>
			<stop  offset="1" style="stop-color:#FFFFFF"/>
		</linearGradient>
		<path fill="url(#SVGID_37_)" d="M278.418,520.976c6.12,45.948,12.716,91.804,19.552,137.652
			c3.447,23.12,6.696,46.267,9.928,69.418c3.02,21.628,3.373,46.752,14.922,65.773c2.749,4.528,9.698,3.619,11.19-1.462
			c5.942-20.24,0.34-42.712-2.528-63.224c-3.232-23.12-6.843-46.195-10.475-69.256c-7.453-47.32-16.162-94.307-26.556-141.071
			C292.497,510.007,277.19,511.756,278.418,520.976L278.418,520.976z"/>
	</g>
	<g opacity="0.8">
		<linearGradient id="SVGID_38_" gradientUnits="userSpaceOnUse" x1="923.0604" y1="628.8835" x2="870.6913" y2="538.1777">
			<stop  offset="0" style="stop-color:#FFFFFF;stop-opacity:0"/>
			<stop  offset="1" style="stop-color:#FFFFFF"/>
		</linearGradient>
		<path fill="url(#SVGID_38_)" d="M895.702,526.8c-5.436,36.989-18.08,80.777-11.976,118.068c0.625,3.818,6.81,4.574,8.433,1.102
			c15.994-34.218,15.654-79.823,20.449-116.882C913.84,519.562,897.112,517.204,895.702,526.8L895.702,526.8z"/>
	</g>
	<g opacity="0.8">
		<linearGradient id="SVGID_39_" gradientUnits="userSpaceOnUse" x1="644.3934" y1="1081.5206" x2="406.9725" y2="1081.5206">
			<stop  offset="0" style="stop-color:#FFFFFF;stop-opacity:0"/>
			<stop  offset="1" style="stop-color:#FFFFFF"/>
		</linearGradient>
		<path fill="url(#SVGID_39_)" d="M413.474,1085.582c38.764,2.613,77.324,5.741,116.204,6.37
			c18.736,0.303,37.511,0.258,56.247-0.043c17.922-0.288,37.149,1.114,54.117-5.332c5.575-2.118,6.025-9.846,0-11.807
			c-17.226-5.607-36.196-3.517-54.117-3.446c-18.75,0.074-37.498,0.081-56.247,0.12c-38.718,0.082-77.498,1.224-116.204,0.651
			C404.722,1071.965,404.889,1085.003,413.474,1085.582L413.474,1085.582z"/>
	</g>
</g>
</svg>
