<svg id="Layer_1" data-name="Layer 1" xmlns="http://www.w3.org/2000/svg" viewBox="0 0 500 500"><defs><style>.cls-3{fill:#ffc06c}.cls-4{fill:#75af22}.cls-5{fill:#e04215}.cls-6{fill:#e85d3d}.cls-7{fill:#fceebe}.cls-8{fill:#3f2d24}</style></defs><path d="M327.64 430.23L44 255a17.4 17.4 0 01-5.67-23.85l113.9-186.88a17.17 17.17 0 0123.7-5.71l283.63 175.2a17.41 17.41 0 015.68 23.85l-113.91 186.9a17.16 17.16 0 01-23.69 5.72z" fill="#d38926"/><path d="M49.72 233.09L159.09 53.63A10.81 10.81 0 01174 50l276.27 170.66a11 11 0 013.58 15l-109.37 179.5a10.83 10.83 0 01-14.94 3.6L53.3 248.13a11 11 0 01-3.58-15.04z" fill="#ffb345"/><path class="cls-3" d="M153.63 75.73c6.13-.64 12.17-1.71 18.21-2.93 9.08-1.84 18.38-3.65 26.7-7.63l-18.22-11.25a18.2 18.2 0 00-25.1 6l-9.85 16.17a68.51 68.51 0 008.26-.36zm-12.71 20.53a107.44 107.44 0 0019.36-2.78 158.38 158.38 0 0017.28-5.11c4.42-1.56 8.71-3.44 13.11-5 5.64-2 11.27-4.1 16.84-6.29 2.08-.82 4.16-1.64 6.23-2.48l-7.53-4.65a58.68 58.68 0 01-6.19 3c-10.17 4.23-20.89 6.25-31.67 8.2a108.63 108.63 0 01-19.61 2.1 50.41 50.41 0 01-7.34-.51l-8.35 13.7c2.62-.03 5.26-.07 7.87-.18zm-9.92 7.15c7.45-.37 14.9-.8 22.36-.73a111.5 111.5 0 0122.46 2.49c7.78 1.67 15.45 3.77 23.18 5.64 8.82 2.14 17.88 4 27 3.69a61.07 61.07 0 0016.84-2.94 64.89 64.89 0 0017-8.53L220.45 78.7c-9.34 4-18.93 7.42-28.46 11-5.38 2-10.66 4.21-16.12 6a143.38 143.38 0 01-17.63 4.65 112.1 112.1 0 01-19.24 2.03 80.17 80.17 0 01-9.17-.39h-.2l-.57.94c.66.13 1.3.31 1.94.48z"/><path class="cls-3" d="M174.78 122c3.18 1.57 6.36 3.14 9.57 4.67l4.67 2.17.13.06.19.08 1 .46 2.18.92c2.78 1.16 5.59 2.23 8.45 3.16 1.33.43 2.68.8 4 1.18l.59.14 1.6.33c1.05.22 2.11.43 3.16.62 16.52 3.1 33.39 3.33 49.65-1.28a91 91 0 0010.83-3.89c1-.41 1.92-.84 2.87-1.28l1.26-.59.64-.31q2.77-1.43 5.48-3c2.55-1.45 5-3 7.47-4.66l-20.2-12.48a76 76 0 01-26.29 12.92 65.08 65.08 0 01-18.37 2.12c-10.13-.3-20-2.73-29.76-5.43-7.84-2.17-15.62-4.65-23.59-6.35a113.71 113.71 0 00-21.88-2.29h-.71c9.28 3.83 18.18 8.33 27.06 12.73z"/><path class="cls-3" d="M294.92 124.7a108.15 108.15 0 01-37.67 18.49c-16.95 4.43-34.84 4.14-52 .87-13.56-2.58-26.07-9.23-38.41-15.16-12.68-6.09-25.52-12.39-39.21-15.85-1.39-.35-2.8-.66-4.2-1l-9.81 16.1c3.08-.08 6.16-.11 9.25 0 10 .42 19.51 3.25 29 6.24 23.32 7.35 45.92 17.94 70.3 21.31a136.08 136.08 0 0049.5-2.37 130 130 0 0023.6-7.94q2.88-1.29 5.68-2.73c1-.51 2-1 3-1.57l1.28-.71.55-.31.25-.14c2.29-1.34 4.51-2.79 6.69-4.29zM444 216.77l-59.93-37c-4 2.08-7.73 4.52-11.43 6.9a162.09 162.09 0 01-14 8.26q-10.09 5.16-20.53 9.59a365.8 365.8 0 01-83.86 23.86 139.18 139.18 0 01-37.86 1 103.73 103.73 0 01-32-9.23c-11-5.17-21-12.15-31.43-18.47-4.94-3-9.95-5.89-15-8.63-2.61-1.4-5-2.68-7.1-3.7q-4.07-2-8.2-3.94a185.81 185.81 0 00-33.93-12c-.74-.18-1.47-.35-2.22-.51l-9.01 14.61c5.86 3.49 11.57 7.28 17.35 10.9C108.56 207 122.57 214.76 137 222c25.82 13 52.54 25.4 81.12 30.69 28.23 5.22 56.85 1.71 84.47-5.18 14.09-3.51 28-7.72 41.93-11.78a332.3 332.3 0 0143.17-9.89 299.81 299.81 0 0145.31-3.33c5.67 0 11.38.13 17.07.46a18 18 0 00-6.07-6.2z"/><path class="cls-3" d="M130.6 178.93A323.66 323.66 0 01161.34 196c10.11 6.34 18.84 12.37 29.73 17.15q3.72 1.63 7.55 3l2 .67 1 .32.46.14c1.14.35 2.3.66 3.46 1a100.21 100.21 0 0015.74 2.72l2.17.17h1.31c1.43.07 2.87.12 4.3.14 2.92.05 5.85 0 8.77-.1a152.42 152.42 0 0019.23-2A371.64 371.64 0 00339.29 196c6.68-2.79 13.33-5.75 19.73-9.15 4.5-2.39 8.77-5.23 13.18-7.78 1.87-1.08 3.76-2.13 5.68-3.13l-34.42-21.26a119.9 119.9 0 01-24.14 16.52 115.14 115.14 0 01-29.47 10.6 171 171 0 01-31.09 3.44 248.73 248.73 0 01-30.51-1.24c-5.24-.5-10.5-1.05-15.68-2a115.74 115.74 0 01-18.47-5c-10.59-3.81-20.58-9-30.66-14l-1.12-.53-.95-.45-2.54-1.18c-1.82-.83-3.64-1.66-5.48-2.46q-5.81-2.56-11.74-4.86a109.74 109.74 0 00-25.19-6.88 53.94 53.94 0 00-12-.4c-.84.06-1.39.11-1.91.17l-11 18c13.58 3.26 26.72 8.53 39.09 14.52zm120.71 122.26c13.59 4.12 27.36 7.85 41.44 9.81a177.44 177.44 0 0041.52.66c28-2.75 55.8-11.46 79.82-26.22a119.05 119.05 0 0016.76-12.15l.19-.18 16.11-26.43c-7-.35-14-.44-20.94-.16a168.63 168.63 0 00-43 7.31c-16.58 5.09-32.72 11.5-49.12 17.1-8.29 2.82-16.68 5.26-25.08 7.74-7.54 2.22-15 4.59-22.65 6.62a173.71 173.71 0 01-47.48 5.71 204.6 204.6 0 01-31.34-3c14.69 3.92 29.18 8.76 43.77 13.19z"/><path class="cls-3" d="M409.14 298.21a200.24 200.24 0 01-83.32 22.42 177.93 177.93 0 01-42.35-3.09c-14.45-2.83-28.53-7.23-42.49-11.85s-28.12-9.51-42.49-13.21a214.76 214.76 0 00-45.34-6.35c-13.07-.54-26.26-.44-39.43-.68l52.55 32.46a167.21 167.21 0 0120.21-2.23 115.66 115.66 0 0127.39 2.32c16.81 3.2 32.88 9.55 48.83 15.63 20.38 7.76 41.65 14.07 63.68 14a101.1 101.1 0 0022.4-2.54 130.62 130.62 0 0022.69-7.64 237.48 237.48 0 0022.14-11.43 87.44 87.44 0 008.55-5.53l17.1-28.07c-3.26 2.06-6.68 3.99-10.12 5.79zm-244.51-17.82c5.47.34 10.88 1 16.24 1.81-28.77-7.27-57.2-17.33-82.41-33.21a256.09 256.09 0 01-39.52-31l-5.36 8.79a18.47 18.47 0 006 25.27L104 279.44c20.19.39 40.44-.3 60.63.95z"/><path class="cls-3" d="M212.42 334.2c8.62-.09 17.11 1.72 25.36 4.06 7.65 2.17 15.19 4.67 22.72 7.21 15.57 5.25 31.06 10.84 47.17 14.2q3 .63 6.12 1.16l1.48.24h.18l.64.1c1 .14 2 .26 3 .38 4 .49 8 .82 12 .93 8.34.24 16.69-.93 24.91-2.28a159.05 159.05 0 0025-5.84l.67-.24 11.6-19-.64.36a195.14 195.14 0 01-24.85 11.87 117 117 0 01-50.5 7.63c-17.09-1.21-34-5.67-49.88-11.89-17.7-6.92-35.24-14.65-53.85-18.8a132.14 132.14 0 00-29.14-3.05c-4 0-7.92.25-11.88.58l24.7 15.18a45.57 45.57 0 0115.19-2.8z"/><path class="cls-3" d="M313.44 391.8c13.06-1.77 26-.06 38.69 3.13 1.34.34 2.68.71 4 1.09l20.21-33.17a166.19 166.19 0 01-21.44 5.22 146.1 146.1 0 01-25.71 2.59 131.37 131.37 0 01-24.52-2.66c-16.12-3.13-31.74-8.47-47.29-13.66-7.38-2.46-14.77-4.88-22.26-7-7.77-2.17-15.68-3.9-23.79-3.61-1 0-1.94.11-2.91.2l86 53.1a72 72 0 0119.02-5.23zm11.17 14.7a170.69 170.69 0 0118.89 1.5c1.64.22 3.27.47 4.89.73l3.61-5.92a113.72 113.72 0 00-20.95-4.64 78.86 78.86 0 00-18.36-.25 63.26 63.26 0 00-12.34 2.81l10 6.18a121.61 121.61 0 0114.26-.41zm12.55 8.7c-2.48-.19-5-.32-7.46-.46h-6.78l.32.2a18.15 18.15 0 0017.87.66c-1.31-.18-2.63-.3-3.95-.4zM74.5 218.49a230.38 230.38 0 0039.17 27.88 258.7 258.7 0 0044.4 19 391.91 391.91 0 0046.43 12.33 192 192 0 0046.25 3.62 151.57 151.57 0 0023.37-2.72c7.66-1.55 15.17-3.7 22.66-5.9 7.9-2.32 15.88-4.38 23.76-6.76s16-5.12 23.88-7.86c16-5.54 32.1-11.41 48.69-15.07a184.55 184.55 0 0144.49-3.78c4.49.11 9 .38 13.45.77a18.37 18.37 0 001.36-10.52c-4.62-.19-9.26-.16-13.86-.2q-11.12-.1-22.21.64a291.13 291.13 0 00-44 6.3c-14.2 3.16-28.08 7.65-42 11.78s-27.75 8-41.89 10.89a220.09 220.09 0 01-43.27 4.67 168.37 168.37 0 01-43.05-5.66c-28.42-7.37-55.13-20.53-81.21-33.9-15.09-7.73-29.35-17-43.71-26l-4.45-2.78-8.41 13.8q4.95 4.9 10.15 9.47zm47.81-77.7a137.72 137.72 0 0127 7.71c7.8 3.05 15.43 6.54 23 10.18 9.61 4.62 19.31 9.17 29.53 12.28s20.69 4.17 31.2 5a235.59 235.59 0 0029.94.62q3.82-.18 7.64-.51l2-.18.68-.07.61-.07c1.23-.14 2.45-.29 3.66-.46a139.15 139.15 0 0014.33-2.71 106.09 106.09 0 0027.9-11.38 111.72 111.72 0 0016.07-11.2l-16.27-10.06q-2.33 1.65-4.72 3.2c-15.33 10-32.79 16.07-50.76 19a139.07 139.07 0 01-54.3-1.88c-21.48-5.07-41.7-14.25-62.58-21.25a128.21 128.21 0 00-15.34-4.37 76.1 76.1 0 00-14.29-1.27h-7.1l-3.88 6.36a72.29 72.29 0 0115.68 1.06z"/><path class="cls-4" d="M121.75 167.53a95 95 0 0013.66 3.59c7.61 1.4 16.79 2 23.05-1.13a22.62 22.62 0 007.2-5.74 28.86 28.86 0 004.25-6.88 11 11 0 00-5.47-14.46 28.54 28.54 0 00-7.71-2.31 22.59 22.59 0 00-9.17.54c-6.76 1.83-13.21 8.43-18 14.57a96.7 96.7 0 00-7.81 11.82zm278.57 138.35a96.67 96.67 0 002.68-13.94c.93-7.73 1-17-2.53-23.1a22.74 22.74 0 00-6.12-6.89 28.55 28.55 0 00-7.08-3.84 10.89 10.89 0 00-14 6.37 29.17 29.17 0 00-1.82 7.89 23 23 0 001.09 9.18c2.24 6.69 9.17 12.77 15.55 17.18a95.93 95.93 0 0012.23 7.15z"/><path class="cls-5" d="M200.37 138.91a35.1 35.1 0 01-64.16-10.27 35.53 35.53 0 014.22-26.75 35.11 35.11 0 0164.17 10.26 35.52 35.52 0 01-4.23 26.76z"/><path class="cls-6" d="M186.9 105.34c-1.32 2.17-5.15 5.45-8.65 8.2s-6.68 4.94-6.68 4.94.51-3.84 1.36-8.23 2-9.31 3.33-11.48a11.66 11.66 0 015-4.6 5.44 5.44 0 015.16 0 5.5 5.5 0 012.36 4.62 11.65 11.65 0 01-1.88 6.55zm-33 30.11c1.33-2.17 5.16-5.45 8.66-8.19s6.67-5 6.67-5-.51 3.85-1.35 8.23-2 9.32-3.34 11.49a11.62 11.62 0 01-4.94 4.59 5.41 5.41 0 01-5.16 0 5.51 5.51 0 01-2.36-4.63 11.74 11.74 0 011.82-6.49zm31.46 1.55c-2.15-1.33-5.42-5.19-8.14-8.72s-4.91-6.72-4.91-6.72 3.82.52 8.17 1.37 9.25 2 11.41 3.35a11.74 11.74 0 014.56 5 5.55 5.55 0 010 5.2 5.47 5.47 0 01-4.6 2.38 11.62 11.62 0 01-6.49-1.86zm-29.91-33.21c2.15 1.33 5.41 5.18 8.14 8.71s4.91 6.72 4.91 6.72-3.82-.51-8.18-1.36-9.25-2-11.4-3.36a11.62 11.62 0 01-4.56-5 5.52 5.52 0 010-5.2A5.43 5.43 0 01149 102a11.47 11.47 0 016.45 1.79zm37.2 17.71c-2.46.59-7.48.18-11.88-.37s-8.19-1.26-8.19-1.26 3.06-2.35 6.73-4.85 8-5.16 10.43-5.75a11.61 11.61 0 016.72.27 5 5 0 012.06 8.65 11.67 11.67 0 01-5.87 3.31zm-44.49-2.2c2.46-.59 7.48-.19 11.88.36s8.19 1.26 8.19 1.26-3.06 2.35-6.74 4.86-8 5.15-10.42 5.74a11.52 11.52 0 01-6.72-.27 5 5 0 01-2.06-8.64 11.53 11.53 0 015.87-3.31zm21.15 23.49c-.59-2.48-.18-7.53.37-12s1.24-8.25 1.24-8.25 2.34 3.09 4.83 6.79 5.11 8 5.7 10.49a11.69 11.69 0 01-.27 6.77 5 5 0 01-8.58 2.07 11.67 11.67 0 01-3.29-5.87zM171.49 98c.59 2.48.19 7.53-.36 12s-1.25 8.25-1.25 8.25-2.34-3.08-4.82-6.78-5.12-8-5.71-10.5a11.78 11.78 0 01.27-6.77 5 5 0 018.59-2.07 11.7 11.7 0 013.28 5.87z"/><path class="cls-5" d="M181.15 127a12.59 12.59 0 01-23-3.68 12.73 12.73 0 011.52-9.59 12.58 12.58 0 0123 3.68 12.72 12.72 0 01-1.52 9.59z"/><path class="cls-6" d="M177.11 124.54a7.91 7.91 0 01-4.87 3.56 7.92 7.92 0 01-3.67-15.4 7.75 7.75 0 016 1 7.87 7.87 0 013.53 4.9 8 8 0 01-.99 5.94z"/><path class="cls-7" d="M169 121.72c.49 3 1.75 5.92 1.61 9-.24 5.22-4.43 9.32-6.23 14.21-2.26 6.14-.45 13.38 3.84 18.3s10.75 7.61 17.24 8.1c4.59.34 9.38-.32 13.7 1.29s7.54 5.12 11.9 6.07c6.83 1.48 13.22-3.9 17.41-9.52 8.12-10.89 12.84-25.41 8.52-38.31-3.17-9.48-10.87-16.94-19.7-21.54-8-4.16-20.3-8.76-29.52-8.86-11.2-.15-20.65 9.97-18.77 21.26z"/><path class="cls-4" d="M202.3 83a98.27 98.27 0 00-6.06 12.83c-2.79 7.27-5.11 16.23-3.21 23a22.9 22.9 0 004.24 8.19 28.74 28.74 0 005.92 5.49 10.85 10.85 0 0015.14-2.69 29 29 0 003.69-7.2 22.85 22.85 0 001.2-9.16c-.52-7-5.75-14.65-10.85-20.52A96.05 96.05 0 00202.3 83z"/><path class="cls-5" d="M258.57 174.21a35.09 35.09 0 01-64.16-10.27 35.41 35.41 0 0126-42.67 34.87 34.87 0 0126.59 4.26 35.54 35.54 0 0111.58 48.68z"/><path class="cls-6" d="M245.1 140.64c-1.32 2.17-5.16 5.45-8.66 8.2s-6.67 4.94-6.67 4.94.51-3.84 1.35-8.23 2-9.31 3.34-11.48a11.64 11.64 0 014.94-4.6 5 5 0 017.53 4.65 11.82 11.82 0 01-1.83 6.52zm-33 30.12c1.32-2.17 5.15-5.46 8.66-8.2s6.67-4.95 6.67-4.95-.51 3.85-1.35 8.23-2 9.32-3.34 11.49a11.62 11.62 0 01-4.94 4.59 5.43 5.43 0 01-5.17 0 5.53 5.53 0 01-2.36-4.63 11.72 11.72 0 011.83-6.53zm31.46 1.55c-2.16-1.33-5.42-5.19-8.15-8.72s-4.91-6.72-4.91-6.72 3.82.52 8.18 1.37 9.25 2 11.4 3.36a11.62 11.62 0 014.57 5 5.52 5.52 0 010 5.2 5.46 5.46 0 01-4.59 2.38 11.51 11.51 0 01-6.5-1.87zm-29.92-33.22c2.16 1.33 5.42 5.19 8.14 8.71s4.91 6.72 4.91 6.72-3.81-.51-8.17-1.36-9.25-2-11.41-3.36a11.68 11.68 0 01-4.56-5 5.55 5.55 0 010-5.2 5.43 5.43 0 014.6-2.37 11.51 11.51 0 016.49 1.86zm37.2 17.71c-2.46.59-7.47.18-11.88-.37s-8.19-1.26-8.19-1.26 3.06-2.35 6.74-4.85 8-5.15 10.42-5.75a11.65 11.65 0 016.73.27 5 5 0 012 8.65 11.67 11.67 0 01-5.82 3.31zm-44.48-2.2c2.45-.59 7.47-.19 11.87.37s8.2 1.25 8.2 1.25-3.07 2.36-6.74 4.86-8 5.15-10.43 5.74a11.45 11.45 0 01-6.72-.27 5 5 0 01-2.06-8.64 11.56 11.56 0 015.88-3.31zm21.15 23.49c-.59-2.47-.19-7.53.36-12s1.25-8.24 1.25-8.24 2.34 3.08 4.82 6.78 5.12 8 5.71 10.49a11.78 11.78 0 01-.27 6.77 5 5 0 01-8.59 2.07 11.73 11.73 0 01-3.28-5.87zm2.18-44.79c.59 2.48.19 7.53-.36 12s-1.25 8.25-1.25 8.25-2.34-3.08-4.83-6.78-5.11-8-5.7-10.5a11.78 11.78 0 01.27-6.77 5 5 0 018.58-2.07 11.71 11.71 0 013.29 5.87z"/><path class="cls-5" d="M239.34 162.33a12.58 12.58 0 01-23-3.68 12.73 12.73 0 011.51-9.59 12.59 12.59 0 0123 3.68 12.72 12.72 0 01-1.51 9.59z"/><path class="cls-6" d="M235.3 159.84a7.93 7.93 0 11.95-6 7.93 7.93 0 01-.95 6z"/><path class="cls-4" d="M196.5 167.81a95.56 95.56 0 0010.82 9.19c6.28 4.55 14.31 9.06 21.31 8.92a22.73 22.73 0 009-2.07 28.68 28.68 0 006.76-4.39 11 11 0 001.17-15.46 28.68 28.68 0 00-6-5.41 22.72 22.72 0 00-8.51-3.47c-6.9-1.26-15.54 1.92-22.45 5.41a95.76 95.76 0 00-12.1 7.28zm113.18-18.18a96.9 96.9 0 00-4.32 13.53c-1.81 7.58-2.93 16.77-.15 23.24a22.89 22.89 0 005.28 7.56 28.68 28.68 0 006.59 4.64 10.86 10.86 0 0014.65-4.69 28.63 28.63 0 002.72-7.62 23 23 0 000-9.24c-1.45-6.9-7.64-13.76-13.46-18.89a97.43 97.43 0 00-11.31-8.53z"/><path class="cls-7" d="M239.91 157.19c.07 3.05.9 6.11.34 9.1-1 5.13-5.7 8.59-8.18 13.18-3.1 5.75-2.33 13.18 1.23 18.66s9.57 9.07 15.92 10.48c4.5 1 9.33 1 13.38 3.23s6.74 6.15 10.92 7.71c6.55 2.45 13.63-2 18.58-6.93 9.57-9.62 16.29-23.31 13.83-36.7-1.8-9.84-8.37-18.33-16.45-24.14-7.33-5.26-18.87-11.58-28-13-11.04-1.7-21.82 6.97-21.57 18.41z"/><path class="cls-4" d="M266.35 138.87A96.34 96.34 0 00262 152.4c-1.81 7.57-2.93 16.77-.15 23.24a22.89 22.89 0 005.28 7.56 29 29 0 006.59 4.64 10.86 10.86 0 0014.65-4.69 28.76 28.76 0 002.72-7.62 23 23 0 000-9.25c-1.45-6.9-7.64-13.75-13.46-18.88a96.06 96.06 0 00-11.28-8.53z"/><path class="cls-5" d="M321.18 222a35 35 0 01-49.51 4.63 35.55 35.55 0 01-4.59-49.84 35 35 0 0149.51-4.63 35.55 35.55 0 014.59 49.84z"/><path class="cls-6" d="M312.59 186.8c-1.62 2-5.88 4.66-9.73 6.88s-7.3 3.93-7.3 3.93 1-3.73 2.5-8 3.3-8.93 4.92-10.89a11.57 11.57 0 015.54-3.84 5.45 5.45 0 015.11.76 5.52 5.52 0 011.68 4.92 11.67 11.67 0 01-2.72 6.24zm-36.92 25.09c1.62-2 5.87-4.66 9.73-6.87s7.3-3.94 7.3-3.94-1.05 3.73-2.5 7.95-3.31 8.93-4.92 10.89a11.67 11.67 0 01-5.54 3.84 5.42 5.42 0 01-5.11-.76 5.55 5.55 0 01-1.69-4.92 11.77 11.77 0 012.73-6.19zm30.92 6.04c-1.94-1.63-4.63-5.91-6.83-9.79s-3.91-7.36-3.91-7.36 3.7 1.06 7.9 2.52 8.87 3.33 10.82 5a11.64 11.64 0 013.81 5.57 5.56 5.56 0 01-.76 5.15 5.45 5.45 0 01-4.88 1.69 11.6 11.6 0 01-6.15-2.78zm-24.92-37.17c1.94 1.63 4.63 5.92 6.83 9.8s3.91 7.35 3.91 7.35-3.71-1.06-7.9-2.52-8.87-3.33-10.82-4.95a11.71 11.71 0 01-3.81-5.58 5.53 5.53 0 01.76-5.15 5.45 5.45 0 014.88-1.69 11.63 11.63 0 016.15 2.74zM316 203.61c-2.52.24-7.42-.88-11.71-2.06s-7.93-2.41-7.93-2.41 3.37-1.89 7.36-3.85 8.61-4 11.13-4.19a11.46 11.46 0 016.61 1.23 5 5 0 01.82 8.85 11.58 11.58 0 01-6.28 2.43zm-43.73-8.53c2.51-.24 7.42.88 11.7 2.06s7.93 2.41 7.93 2.41-3.36 1.9-7.35 3.85-8.61 4-11.13 4.19a11.46 11.46 0 01-6.61-1.23 5 5 0 01-.82-8.85 11.55 11.55 0 016.28-2.43zm17.62 26.28c-.23-2.54.88-7.48 2.05-11.79s2.4-8 2.4-8 1.88 3.38 3.81 7.4 3.94 8.67 4.17 11.2a11.69 11.69 0 01-1.22 6.66 5 5 0 01-8.79.83 11.71 11.71 0 01-2.42-6.3zm8.48-44.03c.23 2.54-.88 7.48-2.05 11.79s-2.4 8-2.4 8-1.88-3.39-3.81-7.41-3.94-8.67-4.17-11.2a11.69 11.69 0 011.22-6.66A5 5 0 01296 171a11.72 11.72 0 012.37 6.33z"/><path class="cls-5" d="M303.83 207.45a12.55 12.55 0 01-17.75 1.66 12.75 12.75 0 01-1.65-17.87 12.55 12.55 0 0117.75-1.66 12.75 12.75 0 011.65 17.87z"/><path class="cls-6" d="M300.18 204.4a7.91 7.91 0 11-1-11.15 8 8 0 011 11.15z"/><path class="cls-7" d="M314.54 203.29c.06 3 .9 6.1.33 9.09-1 5.13-5.7 8.59-8.18 13.18-3.1 5.75-2.33 13.18 1.23 18.66s9.57 9.07 15.92 10.48c4.5 1 9.33 1 13.38 3.23s6.74 6.15 10.92 7.71c6.56 2.45 13.63-2 18.58-6.93C376.3 249.1 383 235.4 380.56 222c-1.81-9.84-8.37-18.32-16.46-24.14-7.33-5.26-18.87-11.57-28-13-11.04-1.69-21.82 6.98-21.56 18.43z"/><path class="cls-4" d="M299.59 236a96.34 96.34 0 009.6 10.42c5.67 5.31 13.08 10.79 20 11.53a22.55 22.55 0 009.14-.94 28.56 28.56 0 007.25-3.5 11 11 0 003.12-15.16 28.65 28.65 0 00-5.27-6.11 22.76 22.76 0 00-8-4.52c-6.68-2.11-15.64 0-22.94 2.56a96 96 0 00-12.9 5.72zm113.13-36.39a96.19 96.19 0 00-14.05 1.44c-7.61 1.37-16.43 4-21.2 9.18a22.94 22.94 0 00-4.76 7.91 28.72 28.72 0 00-1.58 7.94 10.94 10.94 0 002.69 7.92 10.78 10.78 0 007.45 3.71 28.41 28.41 0 008-.56 22.52 22.52 0 008.4-3.72c5.7-4.1 9.45-12.56 11.78-20a97.65 97.65 0 003.27-13.82z"/><path class="cls-5" d="M395.8 268a35 35 0 01-49.51 4.63 35.55 35.55 0 01-4.59-49.84 35 35 0 0149.51-4.63A35.55 35.55 0 01395.8 268z"/><path class="cls-6" d="M387.21 232.89c-1.62 2-5.87 4.66-9.73 6.88s-7.3 3.94-7.3 3.94 1.05-3.74 2.5-8 3.31-8.93 4.92-10.89a11.67 11.67 0 015.54-3.84 5.48 5.48 0 015.11.76 5.55 5.55 0 011.69 4.92 11.77 11.77 0 01-2.73 6.23zM350.29 258c1.62-2 5.88-4.66 9.73-6.87s7.3-3.94 7.3-3.94-1 3.73-2.5 8-3.3 8.93-4.92 10.89a11.57 11.57 0 01-5.54 3.84 5.43 5.43 0 01-5.11-.76 5.52 5.52 0 01-1.68-4.92 11.67 11.67 0 012.72-6.24zm30.92 6c-1.94-1.63-4.63-5.91-6.83-9.79s-3.91-7.36-3.91-7.36 3.71 1.06 7.9 2.52 8.87 3.33 10.82 5a11.67 11.67 0 013.81 5.58 5.51 5.51 0 01-.76 5.14 5.43 5.43 0 01-4.88 1.7 11.73 11.73 0 01-6.15-2.79zm-24.92-37.14c1.94 1.62 4.63 5.91 6.83 9.79S367 244 367 244s-3.7-1.05-7.9-2.52-8.87-3.33-10.82-4.95a11.71 11.71 0 01-3.78-5.53 5.56 5.56 0 01.76-5.15 5.45 5.45 0 014.88-1.69 11.54 11.54 0 016.15 2.7zm34.32 22.84c-2.51.24-7.42-.88-11.7-2.06s-7.93-2.41-7.93-2.41 3.36-1.89 7.35-3.84 8.61-4 11.13-4.2a11.46 11.46 0 016.61 1.23 5 5 0 01.82 8.85 11.47 11.47 0 01-6.28 2.43zm-43.72-8.53c2.51-.24 7.42.88 11.7 2.06s7.94 2.42 7.94 2.42-3.37 1.89-7.36 3.84-8.61 4-11.13 4.19a11.46 11.46 0 01-6.61-1.23 5 5 0 01-.82-8.84 11.51 11.51 0 016.28-2.44zm17.62 26.28c-.23-2.54.88-7.48 2.05-11.79s2.4-8 2.4-8 1.88 3.38 3.81 7.4 3.94 8.67 4.17 11.21a11.73 11.73 0 01-1.22 6.66 5 5 0 01-8.79.82 11.79 11.79 0 01-2.42-6.3zm8.49-44.02c.23 2.53-.88 7.47-2.05 11.78s-2.4 8-2.4 8-1.88-3.39-3.81-7.41-3.94-8.67-4.17-11.2a11.69 11.69 0 011.22-6.66 5 5 0 018.79-.82 11.65 11.65 0 012.42 6.31z"/><path class="cls-5" d="M378.45 253.54a12.55 12.55 0 01-17.75 1.66 12.75 12.75 0 01-1.65-17.87 12.55 12.55 0 0117.75-1.66 12.75 12.75 0 011.65 17.87z"/><path class="cls-6" d="M374.8 250.49a7.82 7.82 0 01-11.07 1 8 8 0 01-1-11.15 7.88 7.88 0 0112.1 10.11z"/><path class="cls-8" d="M174.26 152.16a8.13 8.13 0 00-11.26 2.71 8.26 8.26 0 002.69 11.31 8.15 8.15 0 0011.31-2.71 8.26 8.26 0 00-2.69-11.31zm-6.21 10.19a3.66 3.66 0 01-1.67-2.31 3.76 3.76 0 01.44-2.82 3.71 3.71 0 012.3-1.68 3.65 3.65 0 012.81.44 3.75 3.75 0 011.22 5.14 3.69 3.69 0 01-5.1 1.23zm21.66-67.54a8.13 8.13 0 00-11.23 2.71 8.26 8.26 0 002.69 11.31 8.15 8.15 0 0011.23-2.71 8.26 8.26 0 00-2.69-11.31zM183.5 105a3.74 3.74 0 011.08-6.82 3.71 3.71 0 014.47 2.77 3.77 3.77 0 01-.44 2.82 3.7 3.7 0 01-5.11 1.23zm83.63 48.85a8.13 8.13 0 00-11.23 2.71 8.25 8.25 0 002.69 11.3 8.12 8.12 0 0011.23-2.71 8.22 8.22 0 00-2.69-11.3zM260.92 164a3.74 3.74 0 01-1.22-5.14 3.73 3.73 0 111.22 5.14zm58.17 65.21a8.08 8.08 0 00-6.17-1 8.16 8.16 0 00-5.06 3.69 8.26 8.26 0 002.69 11.31 8.12 8.12 0 0011.23-2.71 8.21 8.21 0 001-6.21 8.1 8.1 0 00-3.69-5.08zm-6.21 10.19a3.75 3.75 0 01-1.22-5.14 3.71 3.71 0 016.77 1.08 3.79 3.79 0 01-.44 2.83 3.75 3.75 0 01-2.3 1.68 3.7 3.7 0 01-2.81-.45zm77.79 28.41a8.13 8.13 0 00-11.23 2.7 8.24 8.24 0 00-1 6.22 8.14 8.14 0 0014.9 2.38 8.26 8.26 0 001-6.21 8.18 8.18 0 00-3.67-5.09zM384.46 278a3.71 3.71 0 01-1.67-2.32 3.77 3.77 0 01.44-2.82 3.7 3.7 0 015.11-1.23 3.74 3.74 0 01-1.08 6.82 3.68 3.68 0 01-2.8-.45zm-7.84-74.8a8.13 8.13 0 00-11.23 2.71 8.25 8.25 0 002.69 11.3 8.13 8.13 0 0011.23-2.71 8.25 8.25 0 00-2.69-11.3zm-6.21 10.19a3.75 3.75 0 01-1.22-5.14 3.69 3.69 0 015.1-1.23 3.74 3.74 0 011.22 5.14 3.69 3.69 0 01-5.1 1.23z"/><path class="cls-4" d="M231.81 214.48a96.45 96.45 0 019.36 10.63c4.69 6.2 9.39 14.16 9.44 21.21a23 23 0 01-1.81 9.06 29.3 29.3 0 01-4.17 6.93 10.84 10.84 0 01-15.29 1.69 28.42 28.42 0 01-5.53-5.87 22.82 22.82 0 01-3.68-8.47c-1.44-6.9 1.48-15.68 4.76-22.74a96.59 96.59 0 016.92-12.44zm150.57 120.83a96.37 96.37 0 01-11.11 8.77c-6.43 4.33-14.61 8.57-21.6 8.19a22.5 22.5 0 01-8.88-2.38 28.79 28.79 0 01-6.61-4.61 11 11 0 01-.7-15.46 28.65 28.65 0 016.17-5.2 22.54 22.54 0 018.62-3.19c6.93-1 15.46 2.45 22.25 6.18a95.3 95.3 0 0111.86 7.7z"/><path class="cls-5" d="M143.94 231.51a35.54 35.54 0 00-11.58-48.68A35 35 0 0084 194.49a35.55 35.55 0 0011.58 48.68 35 35 0 0048.36-11.66z"/><path class="cls-6" d="M108.11 234.63c1.32-2.17 2.5-7.1 3.34-11.48s1.35-8.23 1.35-8.23-3.17 2.2-6.67 4.94-7.34 6-8.66 8.2a11.81 11.81 0 00-1.83 6.51A5.53 5.53 0 0098 239.2a5.43 5.43 0 005.17 0 11.55 11.55 0 004.94-4.57zm11.72-43.26c-1.32 2.17-2.5 7.1-3.34 11.48s-1.35 8.23-1.35 8.23 3.17-2.2 6.67-4.94 7.34-6 8.66-8.2a11.82 11.82 0 001.83-6.52 5.52 5.52 0 00-2.36-4.62 5.43 5.43 0 00-5.17 0 11.55 11.55 0 00-4.94 4.57zm15.63 27.53c-2.16-1.33-7.06-2.51-11.41-3.36s-8.18-1.36-8.18-1.36 2.19 3.19 4.91 6.71 6 7.39 8.15 8.72a11.51 11.51 0 006.47 1.84 5.46 5.46 0 004.59-2.38 5.52 5.52 0 000-5.2 11.66 11.66 0 00-4.53-4.97zm-42.98-11.8c2.16 1.33 7 2.51 11.41 3.36s8.18 1.36 8.18 1.36-2.19-3.19-4.91-6.72-6-7.38-8.15-8.71a11.51 11.51 0 00-6.47-1.84 5.46 5.46 0 00-4.6 2.37 5.55 5.55 0 000 5.2 11.62 11.62 0 004.54 4.98zM125 232.46c-.59-2.47-3.22-6.79-5.71-10.49s-4.82-6.78-4.82-6.78-.7 3.81-1.25 8.24-.95 9.49-.36 12a11.73 11.73 0 003.28 5.91 5 5 0 008.59-2.07 11.78 11.78 0 00.27-6.81zm-22.08-38.93c.59 2.48 3.22 6.8 5.71 10.5s4.82 6.78 4.82 6.78.7-3.81 1.25-8.25 1-9.48.36-11.95a11.63 11.63 0 00-3.29-5.91 5 5 0 00-8.58 2.07 11.74 11.74 0 00-.27 6.76zm30.38 8.34c-2.45.6-6.74 3.25-10.42 5.75s-6.74 4.86-6.74 4.86 3.79.7 8.19 1.25 9.42 1 11.88.37a11.67 11.67 0 005.87-3.31 5.53 5.53 0 001.58-4.95 5.46 5.46 0 00-3.63-3.69 11.56 11.56 0 00-6.73-.28zm-38.67 22.25c2.46-.59 6.75-3.24 10.43-5.74s6.74-4.86 6.74-4.86-3.79-.7-8.19-1.25-9.43-1-11.88-.37a11.49 11.49 0 00-5.87 3.31 5 5 0 002 8.64 11.45 11.45 0 006.77.27z"/><path class="cls-5" d="M124.71 219.64a12.73 12.73 0 00-4.15-17.46 12.57 12.57 0 00-17.34 4.18 12.75 12.75 0 004.16 17.46 12.56 12.56 0 0017.33-4.18z"/><path class="cls-6" d="M120.67 217.14a7.93 7.93 0 00-2.59-10.89 7.83 7.83 0 00-10.81 2.61 7.94 7.94 0 002.59 10.89 7.83 7.83 0 0010.81-2.61z"/><path class="cls-7" d="M114.5 211.13c2.89-.92 6-1.11 8.67-2.61 4.51-2.58 6.24-8.2 9.76-12 4.41-4.81 11.64-6.46 17.94-4.83s11.61 6.2 15 11.8c2.38 4 4 8.56 7.35 11.71s8 4.44 10.77 7.93c4.4 5.46 2.54 13.62-.54 19.94-6 12.22-16.69 23-30.07 25-9.83 1.45-19.93-2.08-28-7.92-7.32-5.29-17-14.26-21.22-22.49-5.16-10.03-.5-23.1 10.34-26.53z"/><path class="cls-4" d="M95.26 258.6a96.39 96.39 0 018.62-11.26c5.17-5.8 12.05-11.94 18.92-13.31a22.6 22.6 0 019.18.09 28.82 28.82 0 017.54 2.83 11 11 0 014.48 14.81 28.9 28.9 0 01-4.7 6.57 22.59 22.59 0 01-7.57 5.23c-6.47 2.71-15.58 1.47-23.08-.45a96.54 96.54 0 01-13.39-4.51z"/><path class="cls-5" d="M201.56 267.75A35.52 35.52 0 00190 219.07a35 35 0 00-48.35 11.66 35.52 35.52 0 0011.58 48.68 35 35 0 0048.35-11.66z"/><path class="cls-6" d="M165.74 270.87c1.32-2.17 2.49-7.1 3.33-11.49s1.36-8.23 1.36-8.23-3.18 2.2-6.68 5-7.33 6-8.66 8.19a11.74 11.74 0 00-1.82 6.52 5.51 5.51 0 002.36 4.63 5.44 5.44 0 005.16 0 11.69 11.69 0 004.95-4.62zm11.71-43.26c-1.32 2.17-2.49 7.09-3.33 11.48s-1.36 8.23-1.36 8.23 3.17-2.2 6.68-4.94 7.33-6 8.65-8.2a11.65 11.65 0 001.83-6.52 5.5 5.5 0 00-2.36-4.62 5.44 5.44 0 00-5.16 0 11.66 11.66 0 00-4.95 4.57zm15.63 27.52c-2.16-1.33-7.05-2.51-11.41-3.35s-8.17-1.37-8.17-1.37 2.18 3.2 4.91 6.72 6 7.39 8.14 8.72a11.63 11.63 0 006.48 1.84 5.46 5.46 0 004.59-2.38 5.55 5.55 0 000-5.2 11.74 11.74 0 00-4.54-4.98zm-42.97-11.79c2.15 1.33 7 2.51 11.41 3.36s8.17 1.36 8.17 1.36-2.19-3.19-4.91-6.72-6-7.38-8.14-8.72a11.53 11.53 0 00-6.48-1.83 5.43 5.43 0 00-4.59 2.37 5.52 5.52 0 000 5.2 11.62 11.62 0 004.54 4.98zm32.53 25.36c-.58-2.47-3.22-6.79-5.7-10.49s-4.83-6.79-4.83-6.79-.69 3.82-1.24 8.25-1 9.48-.37 12a11.67 11.67 0 003.29 5.91 5 5 0 008.58-2.07 11.69 11.69 0 00.27-6.81zm-22.1-38.93c.59 2.48 3.23 6.8 5.71 10.5s4.82 6.78 4.82 6.78.7-3.81 1.25-8.25 1-9.48.37-12a11.78 11.78 0 00-3.29-5.91 5.48 5.48 0 00-4.92-1.59 5.54 5.54 0 00-3.67 3.66 11.78 11.78 0 00-.27 6.81zm30.39 8.34c-2.46.59-6.75 3.24-10.43 5.75s-6.73 4.85-6.73 4.85 3.79.7 8.19 1.26 9.42 1 11.88.37a11.67 11.67 0 005.87-3.31 5 5 0 00-2.06-8.65 11.61 11.61 0 00-6.72-.27zm-38.67 22.25c2.46-.59 6.75-3.24 10.42-5.74s6.74-4.86 6.74-4.86-3.79-.7-8.19-1.26-9.42-1-11.88-.36a11.53 11.53 0 00-5.87 3.31 5 5 0 002.06 8.64 11.52 11.52 0 006.72.27z"/><path class="cls-5" d="M182.34 255.87a12.75 12.75 0 00-4.15-17.45 12.55 12.55 0 00-17.34 4.18 12.72 12.72 0 004.15 17.45 12.55 12.55 0 0017.34-4.18z"/><path class="cls-6" d="M178.3 253.38a8 8 0 00.94-6 7.87 7.87 0 00-3.53-4.9 7.84 7.84 0 00-10.82 2.61 7.88 7.88 0 1013.41 8.28z"/><path class="cls-4" d="M167.78 214.94a95.8 95.8 0 0113 5.57c6.87 3.57 14.51 8.74 17.56 15.09a23.07 23.07 0 012.22 9 29 29 0 01-.83 8.05 10.88 10.88 0 01-13.1 8.09 28.87 28.87 0 01-7.51-2.92 22.87 22.87 0 01-6.93-6.07c-4.23-5.61-5.33-14.81-5.38-22.6a97.25 97.25 0 01.97-14.21zM203 324.76a95.56 95.56 0 0110-10c5.89-5.06 13.52-10.23 20.51-10.67a22.64 22.64 0 019.09 1.32 29.3 29.3 0 017.1 3.81 11 11 0 012.48 15.28 29.09 29.09 0 01-5.52 5.89 22.76 22.76 0 01-8.2 4.17c-6.76 1.82-15.63-.62-22.81-3.53a95.57 95.57 0 01-12.65-6.27z"/><path class="cls-7" d="M178.05 258.71c2.72-1.31 5.81-1.95 8.2-3.82 4.1-3.2 5-9 8-13.3 3.69-5.4 10.61-8.07 17.08-7.36s12.36 4.48 16.49 9.54c2.92 3.59 5.13 7.91 8.93 10.55s8.49 3.26 11.77 6.31c5.14 4.77 4.44 13.12 2.28 19.81-4.18 12.95-13.26 25.18-26.23 29-9.53 2.84-20 .79-28.83-3.83-8-4.2-18.8-11.69-24.18-19.23-6.56-9.11-3.77-22.71 6.49-27.67z"/><path class="cls-4" d="M173.79 290.74a96.84 96.84 0 0110-10c5.89-5.06 13.52-10.23 20.51-10.67a22.64 22.64 0 019.09 1.32 28.63 28.63 0 017.1 3.81 11 11 0 012.51 15.27 28.58 28.58 0 01-5.52 5.89 22.45 22.45 0 01-8.2 4.17c-6.76 1.83-15.63-.62-22.81-3.52a96.06 96.06 0 01-12.68-6.27z"/><path class="cls-5" d="M272.21 302.31a35.49 35.49 0 00-18.33-46.53 35.06 35.06 0 00-46.22 18.46A35.48 35.48 0 00226 320.77a35.06 35.06 0 0046.22-18.46z"/><path class="cls-6" d="M237.18 310.53c1-2.34 1.47-7.39 1.69-11.85s.18-8.34.18-8.34-2.83 2.63-5.91 5.85-6.41 7-7.42 9.35a11.77 11.77 0 00-.89 6.71 5 5 0 008.11 3.53 11.69 11.69 0 004.24-5.25zm5.5-44.53c-1 2.33-1.47 7.38-1.68 11.84s-.18 8.34-.18 8.34 2.83-2.63 5.91-5.85 6.41-7 7.41-9.35a11.76 11.76 0 00.89-6.71 5.49 5.49 0 00-3-4.24 5.42 5.42 0 00-5.11.71 11.62 11.62 0 00-4.24 5.26zM262 291c-2.32-1-7.33-1.48-11.76-1.69s-8.29-.18-8.29-.18 2.62 2.85 5.81 5.95 7 6.45 9.29 7.46a11.56 11.56 0 006.67.9 5 5 0 003.5-8.16A11.6 11.6 0 00262 291zm-44.17-5.49c2.32 1 7.34 1.48 11.77 1.69s8.28.18 8.28.18-2.61-2.84-5.81-5.95-7-6.45-9.29-7.46a11.43 11.43 0 00-6.66-.89 5.48 5.48 0 00-4.22 3 5.55 5.55 0 00.71 5.15 11.65 11.65 0 005.22 4.28zM253.62 306c-.94-2.36-4.15-6.26-7.13-9.57s-5.73-6-5.73-6-.16 3.87-.07 8.34.39 9.52 1.32 11.89a11.69 11.69 0 004.09 5.34 5.44 5.44 0 005.09.87 5.51 5.51 0 003.11-4.15 11.77 11.77 0 00-.68-6.72zm-27.37-35.41c.93 2.36 4.15 6.26 7.13 9.57s5.73 6 5.73 6 .15-3.88.07-8.35-.39-9.52-1.33-11.89a11.68 11.68 0 00-4.08-5.38 5.44 5.44 0 00-5.09-.87 5.49 5.49 0 00-3.12 4.15 11.78 11.78 0 00.69 6.77zm31.25 3.91c-2.35.94-6.22 4.17-9.51 7.18s-6 5.77-6 5.77 3.85.15 8.29.07 9.46-.4 11.81-1.34a11.54 11.54 0 005.34-4.11 5.57 5.57 0 00.87-5.13 5.49 5.49 0 00-4.12-3.13 11.56 11.56 0 00-6.68.69zm-35.14 27.55c2.35-.94 6.23-4.17 9.51-7.18s6-5.76 6-5.76-3.87-.11-8.3-.11-9.46.4-11.81 1.34a11.6 11.6 0 00-5.34 4.11 5.54 5.54 0 00-.87 5.13 5.47 5.47 0 004.12 3.13 11.44 11.44 0 006.69-.66z"/><path class="cls-5" d="M251.51 293.31a12.73 12.73 0 00-6.58-16.68 12.46 12.46 0 00-9.64-.15 12.63 12.63 0 00-6.93 6.76 12.8 12.8 0 00-.15 9.72 12.66 12.66 0 006.72 7 12.6 12.6 0 0016.58-6.62z"/><path class="cls-6" d="M247.15 291.42a7.91 7.91 0 00.09-6.06 7.85 7.85 0 00-14.53-.22 8 8 0 00-.09 6.06 7.85 7.85 0 0014.53.22z"/><path class="cls-7" d="M252.67 304.81c2.72-1.32 5.81-2 8.2-3.83 4.11-3.19 5-9 8-13.3 3.69-5.39 10.62-8.07 17.08-7.36s12.37 4.48 16.49 9.54c2.92 3.59 5.13 7.91 8.93 10.55s8.49 3.26 11.77 6.31c5.14 4.77 4.44 13.12 2.28 19.81-4.18 13-13.26 25.18-26.23 29.05-9.53 2.83-20 .79-28.83-3.84-8-4.19-18.8-11.69-24.18-19.23-6.56-9.15-3.77-22.75 6.49-27.7z"/><path class="cls-4" d="M274.85 276.58a94.87 94.87 0 0113.58 3.89c7.26 2.69 15.48 6.85 19.28 12.77a22.94 22.94 0 013.31 8.62 28.86 28.86 0 01.18 8.1 10.89 10.89 0 01-4 7.33 10.77 10.77 0 01-8 2.33 28.46 28.46 0 01-7.81-1.95 22.75 22.75 0 01-7.62-5.15c-4.9-5-7.13-14-8.14-21.75a97.66 97.66 0 01-.78-14.19zm19.04 118.01a97 97 0 01-5.08-13.26c-2.24-7.45-3.88-16.57-1.48-23.19a22.71 22.71 0 014.85-7.85 28.38 28.38 0 016.31-5 10.85 10.85 0 0114.9 3.84 29.05 29.05 0 013.14 7.45 23.07 23.07 0 01.51 9.23c-1.06 7-6.84 14.17-12.37 19.63a95.52 95.52 0 01-10.78 9.15z"/><path class="cls-5" d="M346.83 348.41a35.49 35.49 0 00-18.33-46.54 35.06 35.06 0 00-46.22 18.46 35.48 35.48 0 0018.33 46.53 35.07 35.07 0 0046.22-18.45z"/><path class="cls-6" d="M311.81 356.62c1-2.34 1.46-7.39 1.68-11.85s.18-8.34.18-8.34-2.83 2.63-5.91 5.85-6.41 7-7.41 9.35a11.71 11.71 0 00-.89 6.72 5 5 0 008.1 3.52 11.77 11.77 0 004.25-5.25zm5.49-44.5c-1 2.34-1.47 7.38-1.68 11.84s-.18 8.34-.18 8.34 2.83-2.63 5.91-5.84 6.41-7 7.41-9.36a11.68 11.68 0 00.89-6.71 5.49 5.49 0 00-3-4.24 5.42 5.42 0 00-5.11.72 11.65 11.65 0 00-4.24 5.25zm19.35 25.01c-2.32-1-7.33-1.47-11.76-1.69s-8.28-.18-8.28-.18 2.61 2.85 5.8 5.95 7 6.45 9.29 7.46a11.56 11.56 0 006.67.9 5 5 0 003.5-8.16 11.55 11.55 0 00-5.22-4.28zm-44.2-5.53c2.33 1 7.34 1.48 11.77 1.7s8.28.18 8.28.18-2.61-2.85-5.8-6-7-6.46-9.29-7.47a11.55 11.55 0 00-6.67-.89 5.44 5.44 0 00-4.21 3 5.5 5.5 0 00.71 5.15 11.62 11.62 0 005.21 4.33zm35.79 20.46c-.93-2.37-4.15-6.27-7.13-9.58s-5.73-6-5.73-6-.15 3.87-.07 8.34.39 9.52 1.32 11.89a11.71 11.71 0 004.09 5.38 5.44 5.44 0 005.09.87 5.52 5.52 0 003.12-4.15 11.74 11.74 0 00-.69-6.75zm-27.37-35.38c.93 2.36 4.15 6.26 7.13 9.57s5.73 6 5.73 6 .15-3.88.07-8.34-.39-9.53-1.32-11.9a11.73 11.73 0 00-4.09-5.37 5.42 5.42 0 00-5.09-.88 5.52 5.52 0 00-3.12 4.15 11.78 11.78 0 00.69 6.77zm31.25 3.91c-2.35.94-6.22 4.18-9.5 7.18s-6 5.77-6 5.77 3.85.15 8.29.07 9.46-.4 11.81-1.33a11.62 11.62 0 005.34-4.12 5 5 0 00-3.25-8.26 11.57 11.57 0 00-6.69.69zM297 348.14c2.35-.93 6.23-4.17 9.51-7.17s6-5.77 6-5.77-3.85-.16-8.29-.08-9.46.4-11.81 1.34a11.6 11.6 0 00-5.34 4.11 5 5 0 003.25 8.27 11.54 11.54 0 006.68-.7z"/><path class="cls-5" d="M326.13 339.4a12.73 12.73 0 00-6.58-16.68 12.46 12.46 0 00-9.64-.15 12.68 12.68 0 1016.22 16.83z"/><path class="cls-6" d="M321.77 337.51a7.92 7.92 0 00-4.1-10.41 7.74 7.74 0 00-6-.09 7.85 7.85 0 00-4.33 4.22 7.94 7.94 0 004.11 10.41 7.84 7.84 0 0010.33-4.13z"/><path class="cls-8" d="M133.72 199.31a8.14 8.14 0 005.06-3.69 8.26 8.26 0 00-2.69-11.31 8.13 8.13 0 00-11.23 2.69 8.25 8.25 0 002.69 11.3 8.08 8.08 0 006.17 1.01zm1.71-8.86a3.77 3.77 0 01-.44 2.82 3.71 3.71 0 01-6.78-1.08 3.75 3.75 0 01.45-2.83 3.7 3.7 0 016.77 1.09zm-46.9 29.14a8.14 8.14 0 005-3.69 8.23 8.23 0 00-2.69-11.31 8.13 8.13 0 00-11.23 2.71 8.26 8.26 0 00-1 6.21 8.17 8.17 0 009.85 6.08zm1.7-8.86a3.77 3.77 0 01-.44 2.82 3.7 3.7 0 01-5.11 1.23 3.74 3.74 0 011.08-6.78 3.7 3.7 0 014.47 2.77zm119.52 72a8.12 8.12 0 005.06-3.7 8.25 8.25 0 00-2.69-11.3 8.08 8.08 0 00-6.17-1 8.24 8.24 0 00-2.37 15 8.08 8.08 0 006.17 1zm1.71-8.87a3.79 3.79 0 01-.44 2.83 3.72 3.72 0 01-6.33-3.91 3.71 3.71 0 016.77 1.08zm-64.32-36.92a8.24 8.24 0 002.37-15 8.13 8.13 0 00-11.23 2.71A8.26 8.26 0 00141 236a8.12 8.12 0 006.14.94zm1.71-8.86a3.73 3.73 0 01-.45 2.82 3.71 3.71 0 01-6.77-1.08 3.75 3.75 0 01.45-2.83 3.69 3.69 0 015.1-1.23 3.75 3.75 0 011.67 2.32zm103.24 87.84a8.24 8.24 0 002.37-15 8.13 8.13 0 00-11.23 2.71 8.25 8.25 0 002.69 11.3 8.08 8.08 0 006.17.99zm1.71-8.86a3.73 3.73 0 01-.45 2.82 3.69 3.69 0 01-5.1 1.23A3.74 3.74 0 01247 306a3.69 3.69 0 015.1-1.23 3.71 3.71 0 011.7 2.29zm96.66 37.83a8.14 8.14 0 005.06-3.69 8.26 8.26 0 00-2.69-11.31 8.13 8.13 0 00-11.23 2.71 8.25 8.25 0 002.69 11.3 8.08 8.08 0 006.17.99zm1.71-8.86a3.77 3.77 0 01-.44 2.82 3.71 3.71 0 01-6.78-1.08 3.75 3.75 0 01.45-2.83 3.7 3.7 0 016.77 1.09zm-65.28 25.52a8.16 8.16 0 005.06-3.69 8.26 8.26 0 00-2.69-11.31 8.15 8.15 0 00-11.26 2.71 8.24 8.24 0 002.69 11.31 8.12 8.12 0 006.2.98zm1.71-8.86a3.74 3.74 0 01-2.75 4.5 3.7 3.7 0 01-4.47-2.76 3.77 3.77 0 01.44-2.82 3.72 3.72 0 015.11-1.24 3.78 3.78 0 011.67 2.32z"/></svg>