<svg xmlns="http://www.w3.org/2000/svg" viewBox="0 0 1200 1200"><path fill="#FCE175" d="M782.391 385.888c-1.399 33.606-3.797 83.042-7.561 138.009a359.862 359.862 0 008.216-12.758c7.29-11.88 15.455-22.31 24.391-31.303 1.662-13.505 9.659-70.609 32.749-136.264l-10.951-218.404a13.27 13.27 0 00-4.629-9.472c-2.799-2.414-6.357-3.527-10.045-3.191l-33.251 3.231c-6.734.658-11.934 6.252-12.095 13.017l-5.447 229.416a28.396 28.396 0 016.755 3.514 28.146 28.146 0 0111.868 24.205zM355.31 452.891c17.696 8.657 33.557 21.365 47.226 37.972-.544-70.581 4.952-127.293 12.976-172.138a7.57 7.57 0 01.313-1.76c10.672-58.762 25.627-96.965 36.736-119.169 2.569-5.139 2.841-10.914.763-16.267-2.091-5.387-6.218-9.494-11.625-11.572-8.952-3.442-16.566-6.514-22.637-9.128-8.363-3.605-18.213-1.113-23.951 6.052-60.14 75.168-63.624 186.787-63.818 197.851l24.017 88.159z"/><path fill="#FCE175" d="M488.649 324.185a24.827 24.827 0 00-20.437-5.479l-38.58 6.9c-8.246 47.884-13.55 109.426-11.602 187.24 22.534 36.279 48.383 63.953 77.353 82.92l2.104-252.35a24.82 24.82 0 00-8.838-19.231z"/><path fill="#F57D71" d="M113.907 837.818c-1.127.599-2.126 1.823-1.771 2.758.238.625.677 1.782 3.824 2.392 5.438 1.054 9.983 4.429 12.467 9.265 2.478 4.825 2.576 10.47.27 15.49-1.389 3.021-1.153 4.621-1.02 4.854.198.233 1.806 1.08 5.916.813 5.318-.322 10.372 1.738 13.857 5.712 3.535 4.03 4.959 9.401 3.905 14.736-.502 2.54-.279 4.107.14 4.492.15.137 3.87 3.301 21.746-1.9l2.944-.854c23.744-6.886 59.257-17.219 105.085-41.477l-21.773-138.582c-25.3 31.395-75.24 85.098-145.59 122.301z"/><path fill="#FCE175" d="M337.69 445.82l-57.064-209.469c-2.956-10.847-14.239-17.457-25.147-14.736l-36.6 9.132c-5.608 1.401-10.259 4.943-13.1 9.975-2.841 5.035-3.469 10.851-1.768 16.374l57.046 185.248c27.69-5.221 53.454-3.958 76.633 3.476z"/><path fill="#FCE175" d="M295.237 232.374l24.343 89.358c3.047-22.897 8.814-52.396 19.677-82.918-5.66-58.387-21.904-116.171-31.158-145.588-3.333-10.592-14.285-16.444-24.94-13.339a6235.038 6235.038 0 01-30.389 8.799 20.138 20.138 0 00-14.076 24.197c7.431 30.447 17.258 75.944 20.909 93.011 16.147-.375 31.234 10.324 35.634 26.48zm340.494 146.29a14.936 14.936 0 00-6.876-5.904l-.065-.02a15.193 15.193 0 00-2.579-.852l-45.201-10.156c-7.849-1.745-15.686 2.928-17.845 10.677l-52.341 187.88-.37 44.431c21.569 11.49 44.735 18.476 69.427 20.91l57.683-235.423c.971-3.971.32-8.071-1.833-11.543zm81.285 6.701c-7.204 62.047-17.261 142.889-28.87 220.075 25.556-13.341 48.888-32.97 69.884-58.812 4.744-64.184 7.638-123.079 9.233-161.369.187-4.518-1.819-8.61-5.503-11.224-3.695-2.621-8.235-3.165-12.448-1.494l-32.296 12.824zm-42.595-159.598c3.695 15.025 6.552 31.794 7.903 50.198h21.236a22.98 22.98 0 0117.058 7.594 22.924 22.924 0 015.747 17.723 8420.611 8420.611 0 01-7.384 67.012l24.741-9.823c1.612-.641 3.263-1.074 4.924-1.409l2.109-88.819-39.58-191.95c-.793-3.852-3.083-7.095-6.446-9.135-3.364-2.037-7.294-2.569-11.08-1.486l-28.008 7.982c-6.656 1.893-10.964 8.492-10.021 15.346l18.801 136.767zm-206.98-49.717a35.307 35.307 0 01-1.338 28.519c-10.071 20.128-23.4 53.893-33.536 105.13l32.978-5.899c8.33-1.499 16.75-.272 24.21 3.281l7.459-28.158 37.451-159.755a9.293 9.293 0 00-1.392-7.446 9.281 9.281 0 00-6.425-3.993l-40.944-5.83a9.404 9.404 0 00-9.976 5.649l-21.847 51.893c6 4.009 10.713 9.784 13.36 16.609z"/><path fill="#FCE175" d="M511.887 282.664l-9.096 34.334c6.361 7.316 9.921 16.681 9.84 26.544l-1.322 158.574 37.268-133.774c3.54-12.699 14.71-21.297 27.262-22.062.909-11.511 2.081-35.937-.983-64.993L536.62 269.1c-5.131-1.638-10.555-1.109-15.274 1.479-4.722 2.587-8.08 6.88-9.459 12.085zm79.003 65.768l34.604 7.775 10.435-61.165a22.875 22.875 0 0122.603-19.077h8.618c-3.64-47.165-17.694-82.878-29.19-104.928-4.235-8.122-13.66-11.96-22.422-9.121-13.189 4.277-24.807 8.163-34.532 11.549-4.924 1.715-8.795 5.279-10.904 10.037-2.165 4.884-2.192 10.322-.076 15.306 25.866 60.946 22.729 128.157 20.864 149.624z"/><path fill="#FCE175" d="M671.673 613.065c18.943-123.968 33.998-260.145 39.634-313.377a7.666 7.666 0 00-1.946-6.004 7.716 7.716 0 00-5.801-2.577h-45.028a7.767 7.767 0 00-7.675 6.477l-10.927 64.049a30.127 30.127 0 018.671 9.052c4.314 6.958 5.616 15.169 3.667 23.121l-57.023 232.73c1.582.035 3.161.078 4.754.078 25.414.001 49.326-4.535 71.674-13.549zm258.021-172.213a200.653 200.653 0 0122.313 4.396c4.378 1.12 8.344 3.139 11.785 5.799l46.35-88.497a19.352 19.352 0 00.695-16.533 19.358 19.358 0 00-12.307-11.065l-33.155-9.956c-12.222 32.847-24.987 72.124-35.681 115.856z"/><path fill="#F57D71" d="M928.267 695.865l33.639-214.107c1.553-9.889-4.446-19.483-13.655-21.842-64.646-16.559-118.733 4.444-152.3 59.141-31.621 51.529-69.645 86.959-113.591 106.043a7.549 7.549 0 01-1.721.73c-25.007 10.579-51.907 15.927-80.638 15.927-36.269 0-69.626-8.501-99.923-25.337a7.532 7.532 0 01-1.734-.965c-35.867-20.387-67.398-52.566-94.296-96.398-33.567-54.701-87.65-75.696-152.298-59.141-9.211 2.359-15.208 11.952-13.655 21.842l33.643 214.127 60.498 385.054c4.908 31.243 30.371 53.917 60.546 53.917h414.436c30.175 0 55.638-22.674 60.548-53.917l60.495-385.036c.002-.012.005-.025.006-.038zM448.748 798.422c-24.494 0-44.348-19.43-44.348-43.399s19.855-43.399 44.348-43.399c24.492 0 44.348 19.43 44.348 43.399s-19.856 43.399-44.348 43.399zm223.901 89.194c0 40.057-32.589 72.646-72.648 72.646s-72.648-32.589-72.648-72.646v-28.219c0-10.54 8.575-19.117 19.117-19.117h107.06c10.542 0 19.119 8.577 19.119 19.117v28.219zm78.606-175.992c24.492 0 44.347 19.43 44.347 43.399s-19.856 43.399-44.347 43.399c-24.494 0-44.349-19.43-44.349-43.399s19.855-43.399 44.349-43.399zm334.838 126.194c-70.349-37.201-120.288-90.906-145.586-122.299l-21.773 138.58c45.826 24.254 81.34 34.591 105.082 41.477l2.948.854c17.87 5.205 21.592 2.041 21.744 1.9.418-.385.641-1.952.141-4.492-1.054-5.335.368-10.707 3.904-14.736 3.483-3.971 8.529-6.048 13.851-5.712 4.122.277 5.725-.58 5.928-.821.128-.226.362-1.826-1.026-4.847-2.307-5.021-2.207-10.666.272-15.49 2.483-4.836 7.028-8.211 12.468-9.265 3.142-.606 3.582-1.767 3.819-2.392.353-.939-.645-2.159-1.772-2.757z"/><path fill="#E86054" d="M653.53 855.423H546.47a3.978 3.978 0 00-3.974 3.974v28.219c0 8.488 1.897 16.526 5.213 23.786 13.643-13.991 32.476-22.112 52.292-22.112 19.818 0 38.65 8.12 52.291 22.112 3.316-7.259 5.214-15.298 5.214-23.786v-28.219a3.98 3.98 0 00-3.976-3.974z"/><path fill="#FAA291" d="M600.001 904.434c-16.939 0-32.94 7.516-43.883 20.26 10.557 12.474 26.3 20.426 43.883 20.426 17.583 0 33.327-7.952 43.883-20.424-10.943-12.744-26.943-20.262-43.883-20.262z"/><path fill="#FCE175" d="M914.472 439.393c22.406-92.505 54.083-165.665 71.212-201.459 1.812-3.786 1.946-8.011.381-11.893-1.562-3.878-4.582-6.825-8.505-8.292-9.801-3.675-21.25-8.015-31.378-11.982-5.921-2.322-12.596-.662-16.603 4.137-70.36 84.212-96.689 207.463-104.566 254.836 25.44-18.446 55.729-27.073 89.459-25.347z"/><path fill="#873249" d="M1093.174 824.434c-78.778-41.66-132.309-106.707-149.448-129.408l33.138-210.916c1.103-7.022-.02-13.956-2.801-20.04l49.493-94.497a34.44 34.44 0 001.24-29.432 34.438 34.438 0 00-21.91-19.69l-32.11-9.642c10.964-28.216 21.152-50.841 28.569-66.339a29.973 29.973 0 00.765-24.09 29.951 29.951 0 00-17.237-16.814c-9.734-3.645-21.106-7.956-31.166-11.901-11.999-4.699-25.563-1.272-33.75 8.529-27.556 32.981-48.502 71.184-64.351 108.636l-9.247-184.425c-.394-7.867-3.897-15.032-9.862-20.178-5.967-5.146-13.568-7.557-21.402-6.791l-33.251 3.231c-14.348 1.397-25.426 13.317-25.768 27.724l-1.724 72.602-26.344-127.761a29.217 29.217 0 00-13.429-19.021 29.233 29.233 0 00-23.079-3.105l-28.009 7.982c-13.864 3.948-22.836 17.694-20.873 31.975l9.801 71.3a33.765 33.765 0 00-39.551-14.851c-13.293 4.307-25.016 8.23-34.844 11.653-8.923 3.109-15.943 9.572-19.766 18.2-3.825 8.633-3.887 18.603-.172 27.358 8.394 19.777 13.52 40.491 16.585 59.975l-31.452-10.024c-7.624-2.434-15.611-2.142-22.931.699l31.12-132.752a24.591 24.591 0 00-3.636-19.446 24.596 24.596 0 00-16.794-10.44l-40.944-5.83c-11.037-1.556-21.746 4.51-26.064 14.77l-21.676 51.485c-5.835-2.296-10.953-4.39-15.234-6.237-14.612-6.296-31.785-1.978-41.771 10.503-13.208 16.507-23.783 34.493-32.306 52.749-7.343-49.871-20.445-96.08-28.439-121.495-5.732-18.215-25.304-28.674-43.628-23.328a6093.82 6093.82 0 01-30.312 8.777 35.238 35.238 0 00-24.62 42.349c7.336 30.051 17.038 74.946 20.734 92.216l-29.505 7.363c-9.682 2.418-17.716 8.533-22.621 17.224-4.905 8.695-5.989 18.736-3.052 28.275l56.73 184.227c-15.701 4.98-25.788 21.43-23.13 38.329l33.138 210.914c-17.137 22.703-70.669 87.748-149.45 129.41-8.208 4.344-11.929 13.391-8.849 21.509 1.674 4.414 5.653 10.06 15.105 11.893 1.1.211 1.627.832 1.874 1.316.244.473.439 1.25-.019 2.244-3.443 7.49-3.351 14.507.259 19.757 2.586 3.756 8.043 8.082 19.375 7.35.612-.055 1.118.159 1.495.584.241.274.618.876.433 1.815-1.966 9.96 1.509 15.609 4.77 18.596 3.682 3.372 8.751 5.05 15.479 5.05 5.673 0 12.527-1.194 20.721-3.575l2.934-.854c23.555-6.832 58.381-16.936 103.351-40.209l33.525 213.38c6.072 38.652 37.826 66.709 75.504 66.709h414.436c37.678 0 69.433-28.057 75.506-66.709l33.525-213.38c44.969 23.271 79.792 33.377 103.347 40.209l2.937.854c8.194 2.381 15.047 3.575 20.72 3.575 6.729 0 11.797-1.678 15.479-5.05 3.261-2.987 6.736-8.636 4.769-18.596-.185-.939.192-1.542.432-1.815.375-.425.9-.632 1.49-.584 11.335.732 16.796-3.594 19.38-7.35 3.61-5.25 3.703-12.267.261-19.753-.458-.998-.264-1.775-.02-2.248.248-.484.775-1.105 1.878-1.316 9.448-1.834 13.426-7.479 15.099-11.89 3.08-8.123-.641-17.17-8.85-21.514zm-94.643-489.483a19.356 19.356 0 0112.307 11.065 19.352 19.352 0 01-.695 16.533l-46.35 88.497c-3.441-2.66-7.407-4.679-11.785-5.799a200.653 200.653 0 00-22.313-4.396c10.694-43.732 23.458-83.009 35.682-115.857l33.154 9.957zm-68.953-125.048c4.008-4.799 10.682-6.459 16.603-4.137 10.128 3.967 21.578 8.307 31.378 11.982 3.923 1.468 6.943 4.414 8.505 8.292 1.566 3.882 1.431 8.108-.381 11.893-17.128 35.794-48.806 108.954-71.212 201.459-33.731-1.727-64.019 6.9-89.46 25.347 7.878-47.373 34.207-170.623 104.567-254.836zm-160.363-81.149c.161-6.766 5.361-12.359 12.095-13.017l33.251-3.231c3.688-.336 7.246.776 10.045 3.191a13.271 13.271 0 014.629 9.472l10.951 218.404c-23.09 65.655-31.087 122.759-32.749 136.264-8.936 8.993-17.101 19.422-24.391 31.303a359.862 359.862 0 01-8.216 12.758c3.764-54.967 6.162-104.403 7.561-138.009a28.145 28.145 0 00-11.867-24.204 28.415 28.415 0 00-6.755-3.514l5.446-229.417zm-7.455 245.282c3.684 2.614 5.69 6.706 5.503 11.224-1.595 38.29-4.489 97.185-9.233 161.369-20.995 25.842-44.327 45.471-69.884 58.812 11.609-77.186 21.666-158.028 28.87-220.075l32.296-12.823c4.213-1.672 8.753-1.129 12.448 1.493zm-109.491 19.771c1.948-7.952.647-16.163-3.667-23.121a30.128 30.128 0 00-8.671-9.052l10.927-64.049a7.767 7.767 0 017.675-6.477h45.028c2.244 0 4.305.917 5.801 2.577a7.663 7.663 0 011.946 6.004c-5.636 53.231-20.69 189.409-39.634 313.377-22.348 9.013-46.26 13.55-71.672 13.55-1.593 0-3.172-.043-4.754-.078l57.021-232.731zM579.88 625.63c-24.692-2.434-47.858-9.42-69.427-20.91l.37-44.431 52.341-187.88c2.159-7.749 9.997-12.422 17.845-10.677l45.201 10.156c.897.202 1.751.503 2.579.852l.065.02a14.936 14.936 0 016.876 5.904 14.974 14.974 0 011.832 11.542L579.88 625.63zm85.761-551.976l28.008-7.982c3.786-1.083 7.716-.551 11.08 1.486 3.362 2.041 5.653 5.283 6.446 9.135l39.58 191.95-2.109 88.819c-1.662.335-3.313.767-4.924 1.409l-24.741 9.823a8420.611 8420.611 0 007.384-67.012 22.923 22.923 0 00-5.747-17.723 22.98 22.98 0 00-17.058-7.594h-21.236c-1.351-18.404-4.208-35.173-7.903-50.198L655.621 89c-.943-6.854 3.364-13.453 10.02-15.346zm-95.615 125.155c-2.117-4.984-2.089-10.422.076-15.306 2.109-4.758 5.98-8.322 10.904-10.037 9.725-3.386 21.343-7.272 34.532-11.549 8.762-2.839 18.187.998 22.422 9.121 11.496 22.051 25.55 57.764 29.19 104.928h-8.618a22.874 22.874 0 00-22.603 19.077l-10.435 61.165-34.604-7.775c1.865-21.468 5.002-88.679-20.864-149.624zm-48.681 71.77c4.719-2.588 10.143-3.117 15.274-1.479l38.234 12.187c3.065 29.057 1.893 53.483.983 64.993-12.551.765-23.722 9.363-27.262 22.062l-37.268 133.774 1.322-158.574c.081-9.864-3.479-19.228-9.84-26.544l9.096-34.334c1.382-5.205 4.74-9.498 9.461-12.085zm-45.419-163.031a9.403 9.403 0 019.976-5.649l40.944 5.83a9.274 9.274 0 016.425 3.993 9.292 9.292 0 011.392 7.446l-37.451 159.755-7.459 28.158c-7.46-3.553-15.88-4.78-24.21-3.281l-32.978 5.899c10.136-51.237 23.466-85.002 33.536-105.13a35.307 35.307 0 001.338-28.519c-2.647-6.825-7.361-12.599-13.363-16.609l21.85-51.893zm21.561 235.869l-2.104 252.35c-28.971-18.967-54.819-46.641-77.353-82.92-1.947-77.815 3.356-139.357 11.602-187.24l38.58-6.9a24.827 24.827 0 0120.437 5.479 24.816 24.816 0 018.838 19.231zM395.111 166.881c5.738-7.165 15.588-9.657 23.951-6.052 6.07 2.614 13.684 5.686 22.637 9.128 5.407 2.078 9.535 6.185 11.625 11.572 2.078 5.353 1.806 11.128-.763 16.267-11.109 22.204-26.064 60.407-36.736 119.169a7.5 7.5 0 00-.313 1.76c-8.023 44.845-13.52 101.557-12.976 172.138-13.669-16.607-29.53-29.315-47.226-37.972l-24.017-88.159c.195-11.063 3.678-122.683 63.818-197.851zm-156.418-53.998a20.138 20.138 0 0114.076-24.197 6235.038 6235.038 0 0030.389-8.799c10.655-3.105 21.607 2.747 24.94 13.339 9.255 29.417 25.498 87.201 31.158 145.588-10.864 30.522-16.63 60.021-19.677 82.918l-24.343-89.358c-4.399-16.156-19.487-26.855-35.634-26.48-3.652-17.067-13.478-62.564-20.909-93.011zM204.01 257.096c-1.701-5.523-1.073-11.339 1.768-16.374 2.841-5.032 7.492-8.573 13.1-9.975l36.6-9.132c10.908-2.721 22.191 3.889 25.147 14.736L337.69 445.82c-23.179-7.435-48.944-8.697-76.634-3.477L204.01 257.096zm-27.826 638.48l-2.944.854c-17.876 5.202-21.596 2.037-21.746 1.9-.419-.385-.641-1.952-.14-4.492 1.054-5.335-.37-10.707-3.905-14.736-3.485-3.974-8.539-6.034-13.857-5.712-4.11.266-5.718-.58-5.916-.813-.133-.233-.369-1.834 1.02-4.854 2.306-5.021 2.208-10.666-.27-15.49-2.484-4.836-7.029-8.211-12.467-9.265-3.146-.61-3.586-1.767-3.824-2.392-.355-.935.644-2.159 1.771-2.758 70.35-37.203 120.29-90.906 145.589-122.301l21.773 138.582c-45.828 24.258-81.34 34.591-105.084 41.477zm691.582 185.364c-4.91 31.243-30.373 53.917-60.548 53.917H392.782c-30.175 0-55.638-22.674-60.546-53.917l-60.498-385.054-33.643-214.127c-1.553-9.889 4.444-19.483 13.655-21.842 64.648-16.555 118.731 4.44 152.298 59.141 26.898 43.832 58.429 76.01 94.296 96.398a7.532 7.532 0 001.734.965c30.297 16.836 63.654 25.337 99.923 25.337 28.731 0 55.632-5.348 80.638-15.927a7.549 7.549 0 001.721-.73c43.946-19.084 81.97-54.514 113.591-106.043 33.567-54.697 87.654-75.7 152.3-59.141 9.209 2.359 15.208 11.952 13.655 21.842l-33.639 214.107-.006.039-60.495 385.035zm220.097-240.365c-.237.625-.677 1.786-3.819 2.392-5.44 1.054-9.986 4.429-12.468 9.265-2.479 4.825-2.579 10.47-.272 15.49 1.388 3.021 1.153 4.621 1.026 4.847-.203.24-1.806 1.098-5.928.821-5.322-.336-10.368 1.741-13.851 5.712-3.536 4.03-4.958 9.401-3.904 14.736.501 2.54.277 4.107-.141 4.492-.152.141-3.874 3.305-21.744-1.9l-2.948-.854c-23.742-6.886-59.256-17.223-105.082-41.477l21.773-138.58c25.299 31.393 75.237 85.098 145.586 122.299 1.129.598 2.127 1.818 1.772 2.757z"/><path fill="#873249" d="M448.748 711.624c-24.494 0-44.348 19.43-44.348 43.399s19.855 43.399 44.348 43.399c24.492 0 44.348-19.43 44.348-43.399s-19.856-43.399-44.348-43.399zm302.507 86.798c24.492 0 44.347-19.43 44.347-43.399s-19.856-43.399-44.347-43.399c-24.494 0-44.349 19.43-44.349 43.399s19.855 43.399 44.349 43.399zM653.53 840.28H546.47c-10.542 0-19.117 8.577-19.117 19.117v28.219c0 40.057 32.589 72.646 72.648 72.646s72.648-32.589 72.648-72.646v-28.219c0-10.54-8.577-19.117-19.119-19.117zm-53.529 104.839c-17.584 0-33.327-7.952-43.883-20.426 10.943-12.744 26.945-20.26 43.883-20.26 16.94 0 32.94 7.518 43.883 20.261-10.556 12.473-26.3 20.425-43.883 20.425zm57.505-57.503c0 8.488-1.898 16.527-5.214 23.786-13.641-13.991-32.474-22.112-52.291-22.112-19.816 0-38.649 8.12-52.292 22.112-3.316-7.261-5.213-15.298-5.213-23.786v-28.219a3.978 3.978 0 013.974-3.974h107.06a3.98 3.98 0 013.976 3.974v28.219z"/><linearGradient id="a" gradientUnits="userSpaceOnUse" x1="763.768" y1="318.172" x2="840.185" y2="318.172"><stop offset="0" stop-color="#f7ad66"/><stop offset="1" stop-color="#f7ad66" stop-opacity="0"/></linearGradient><path fill="url(#a)" d="M782.391 385.888c-1.399 33.606-3.797 83.042-7.561 138.009a359.862 359.862 0 008.216-12.758c7.29-11.88 15.455-22.31 24.391-31.303 1.662-13.505 9.659-70.609 32.749-136.264l-10.951-218.404a13.27 13.27 0 00-4.629-9.472c-2.799-2.414-6.357-3.527-10.045-3.191l-33.251 3.231c-6.734.658-11.934 6.252-12.095 13.017l-5.447 229.416a28.396 28.396 0 016.755 3.514 28.146 28.146 0 0111.868 24.205z"/><linearGradient id="b" gradientUnits="userSpaceOnUse" x1="331.293" y1="325.027" x2="454.707" y2="325.027"><stop offset="0" stop-color="#f7ad66"/><stop offset="1" stop-color="#f7ad66" stop-opacity="0"/></linearGradient><path fill="url(#b)" d="M355.31 452.891c17.696 8.657 33.557 21.365 47.226 37.972-.544-70.581 4.952-127.293 12.976-172.138a7.57 7.57 0 01.313-1.76c10.672-58.762 25.627-96.965 36.736-119.169 2.569-5.139 2.841-10.914.763-16.267-2.091-5.387-6.218-9.494-11.625-11.572-8.952-3.442-16.566-6.514-22.637-9.128-8.363-3.605-18.213-1.113-23.951 6.052-60.14 75.168-63.624 186.787-63.818 197.851l24.017 88.159z"/><linearGradient id="c" gradientUnits="userSpaceOnUse" x1="417.627" y1="457.041" x2="497.488" y2="457.041"><stop offset="0" stop-color="#f7ad66"/><stop offset="1" stop-color="#f7ad66" stop-opacity="0"/></linearGradient><path fill="url(#c)" d="M488.649 324.185a24.827 24.827 0 00-20.437-5.479l-38.58 6.9c-8.246 47.884-13.55 109.426-11.602 187.24 22.534 36.279 48.383 63.953 77.353 82.92l2.104-252.35a24.82 24.82 0 00-8.838-19.231z"/><linearGradient id="d" gradientUnits="userSpaceOnUse" x1="203.073" y1="333.412" x2="337.69" y2="333.412"><stop offset="0" stop-color="#f7ad66"/><stop offset="1" stop-color="#f7ad66" stop-opacity="0"/></linearGradient><path fill="url(#d)" d="M337.69 445.82l-57.064-209.469c-2.956-10.847-14.239-17.457-25.147-14.736l-36.6 9.132c-5.608 1.401-10.259 4.943-13.1 9.975-2.841 5.035-3.469 10.851-1.768 16.374l57.046 185.248c27.69-5.221 53.454-3.958 76.633 3.476z"/><linearGradient id="e" gradientUnits="userSpaceOnUse" x1="238.108" y1="200.394" x2="339.257" y2="200.394"><stop offset="0" stop-color="#f7ad66"/><stop offset="1" stop-color="#f7ad66" stop-opacity="0"/></linearGradient><path fill="url(#e)" d="M295.237 232.374l24.343 89.358c3.047-22.897 8.814-52.396 19.677-82.918-5.66-58.387-21.904-116.171-31.158-145.588-3.333-10.592-14.285-16.444-24.94-13.339a6235.038 6235.038 0 01-30.389 8.799 20.138 20.138 0 00-14.076 24.197c7.431 30.447 17.258 75.944 20.909 93.011 16.147-.375 31.234 10.324 35.634 26.48z"/><linearGradient id="f" gradientUnits="userSpaceOnUse" x1="510.453" y1="493.498" x2="638.003" y2="493.498"><stop offset="0" stop-color="#f7ad66"/><stop offset="1" stop-color="#f7ad66" stop-opacity="0"/></linearGradient><path fill="url(#f)" d="M635.731 378.664a14.936 14.936 0 00-6.876-5.904l-.065-.02a15.193 15.193 0 00-2.579-.852l-45.201-10.156c-7.849-1.745-15.686 2.928-17.845 10.677l-52.341 187.88-.37 44.431c21.569 11.49 44.735 18.476 69.427 20.91l57.683-235.423c.971-3.971.32-8.071-1.833-11.543z"/><linearGradient id="g" gradientUnits="userSpaceOnUse" x1="688.146" y1="488.515" x2="767.275" y2="488.515"><stop offset="0" stop-color="#f7ad66"/><stop offset="1" stop-color="#f7ad66" stop-opacity="0"/></linearGradient><path fill="url(#g)" d="M717.016 385.365c-7.204 62.047-17.261 142.889-28.87 220.075 25.556-13.341 48.888-32.97 69.884-58.812 4.744-64.184 7.638-123.079 9.233-161.369.187-4.518-1.819-8.61-5.503-11.224-3.695-2.621-8.235-3.165-12.448-1.494l-32.296 12.824z"/><linearGradient id="h" gradientUnits="userSpaceOnUse" x1="655.491" y1="216.709" x2="750.756" y2="216.709"><stop offset="0" stop-color="#f7ad66"/><stop offset="1" stop-color="#f7ad66" stop-opacity="0"/></linearGradient><path fill="url(#h)" d="M674.421 225.767c3.695 15.025 6.552 31.794 7.903 50.198h21.236a22.98 22.98 0 0117.058 7.594 22.924 22.924 0 015.747 17.723 8420.611 8420.611 0 01-7.384 67.012l24.741-9.823c1.612-.641 3.263-1.074 4.924-1.409l2.109-88.819-39.58-191.95c-.793-3.852-3.083-7.095-6.446-9.135-3.364-2.037-7.294-2.569-11.08-1.486l-28.008 7.982c-6.656 1.893-10.964 8.492-10.021 15.346l18.801 136.767z"/><linearGradient id="i" gradientUnits="userSpaceOnUse" x1="432.567" y1="205.752" x2="534.918" y2="205.752"><stop offset="0" stop-color="#f7ad66"/><stop offset="1" stop-color="#f7ad66" stop-opacity="0"/></linearGradient><path fill="url(#i)" d="M467.441 176.05a35.307 35.307 0 01-1.338 28.519c-10.071 20.128-23.4 53.893-33.536 105.13l32.978-5.899c8.33-1.499 16.75-.272 24.21 3.281l7.459-28.158 37.451-159.755a9.293 9.293 0 00-1.392-7.446 9.281 9.281 0 00-6.425-3.993l-40.944-5.83a9.404 9.404 0 00-9.976 5.649l-21.847 51.893c6 4.009 10.713 9.784 13.36 16.609z"/><linearGradient id="j" gradientUnits="userSpaceOnUse" x1="502.79" y1="385.141" x2="576.837" y2="385.141"><stop offset="0" stop-color="#f7ad66"/><stop offset="1" stop-color="#f7ad66" stop-opacity="0"/></linearGradient><path fill="url(#j)" d="M511.887 282.664l-9.096 34.334c6.361 7.316 9.921 16.681 9.84 26.544l-1.322 158.574 37.268-133.774c3.54-12.699 14.71-21.297 27.262-22.062.909-11.511 2.081-35.937-.983-64.993L536.62 269.1c-5.131-1.638-10.555-1.109-15.274 1.479-4.722 2.587-8.08 6.88-9.459 12.085z"/><linearGradient id="k" gradientUnits="userSpaceOnUse" x1="568.458" y1="258.596" x2="667.15" y2="258.596"><stop offset="0" stop-color="#f7ad66"/><stop offset="1" stop-color="#f7ad66" stop-opacity="0"/></linearGradient><path fill="url(#k)" d="M590.89 348.432l34.604 7.775 10.435-61.165a22.875 22.875 0 0122.603-19.077h8.618c-3.64-47.165-17.694-82.878-29.19-104.928-4.235-8.122-13.66-11.96-22.422-9.121-13.189 4.277-24.807 8.163-34.532 11.549-4.924 1.715-8.795 5.279-10.904 10.037-2.165 4.884-2.192 10.322-.076 15.306 25.866 60.946 22.729 128.157 20.864 149.624z"/><linearGradient id="l" gradientUnits="userSpaceOnUse" x1="595.247" y1="458.861" x2="711.352" y2="458.861"><stop offset="0" stop-color="#f7ad66"/><stop offset="1" stop-color="#f7ad66" stop-opacity="0"/></linearGradient><path fill="url(#l)" d="M671.673 613.065c18.943-123.968 33.998-260.145 39.634-313.377a7.666 7.666 0 00-1.946-6.004 7.716 7.716 0 00-5.801-2.577h-45.028a7.767 7.767 0 00-7.675 6.477l-10.927 64.049a30.127 30.127 0 018.671 9.052c4.314 6.958 5.616 15.169 3.667 23.121l-57.023 232.73c1.582.035 3.161.078 4.754.078 25.414.001 49.326-4.535 71.674-13.549z"/><linearGradient id="m" gradientUnits="userSpaceOnUse" x1="929.694" y1="388.02" x2="1012.364" y2="388.02"><stop offset="0" stop-color="#f7ad66"/><stop offset="1" stop-color="#f7ad66" stop-opacity="0"/></linearGradient><path fill="url(#m)" d="M929.694 440.852a200.653 200.653 0 0122.313 4.396c4.378 1.12 8.344 3.139 11.785 5.799l46.35-88.497a19.352 19.352 0 00.695-16.533 19.358 19.358 0 00-12.307-11.065l-33.155-9.956c-12.222 32.847-24.987 72.124-35.681 115.856z"/><linearGradient id="n" gradientUnits="userSpaceOnUse" x1="825.012" y1="334.734" x2="987.148" y2="334.734"><stop offset="0" stop-color="#f7ad66"/><stop offset="1" stop-color="#f7ad66" stop-opacity="0"/></linearGradient><path fill="url(#n)" d="M914.472 439.393c22.406-92.505 54.083-165.665 71.212-201.459 1.812-3.786 1.946-8.011.381-11.893-1.562-3.878-4.582-6.825-8.505-8.292-9.801-3.675-21.25-8.015-31.378-11.982-5.921-2.322-12.596-.662-16.603 4.137-70.36 84.212-96.689 207.463-104.566 254.836 25.44-18.446 55.729-27.073 89.459-25.347z"/><linearGradient id="o" gradientUnits="userSpaceOnUse" x1="998.112" y1="133.121" x2="327.583" y2="697.347"><stop offset="0" stop-color="#feeea7"/><stop offset=".64" stop-color="#fdeb8f" stop-opacity="0"/></linearGradient><path fill="url(#o)" d="M782.391 385.888c-1.399 33.606-3.797 83.042-7.561 138.009a359.862 359.862 0 008.216-12.758c7.29-11.88 15.455-22.31 24.391-31.303 1.662-13.505 9.659-70.609 32.749-136.264l-10.951-218.404a13.27 13.27 0 00-4.629-9.472c-2.799-2.414-6.357-3.527-10.045-3.191l-33.251 3.231c-6.734.658-11.934 6.252-12.095 13.017l-5.447 229.416a28.396 28.396 0 016.755 3.514 28.146 28.146 0 0111.868 24.205z"/><linearGradient id="p" gradientUnits="userSpaceOnUse" x1="845.991" y1="-47.66" x2="175.462" y2="516.566"><stop offset="0" stop-color="#feeea7"/><stop offset=".64" stop-color="#fdeb8f" stop-opacity="0"/></linearGradient><path fill="url(#p)" d="M355.31 452.891c17.696 8.657 33.557 21.365 47.226 37.972-.544-70.581 4.952-127.293 12.976-172.138a7.57 7.57 0 01.313-1.76c10.672-58.762 25.627-96.965 36.736-119.169 2.569-5.139 2.841-10.914.763-16.267-2.091-5.387-6.218-9.494-11.625-11.572-8.952-3.442-16.566-6.514-22.637-9.128-8.363-3.605-18.213-1.113-23.951 6.052-60.14 75.168-63.624 186.787-63.818 197.851l24.017 88.159z"/><linearGradient id="q" gradientUnits="userSpaceOnUse" x1="937.455" y1="61.036" x2="266.926" y2="625.262"><stop offset="0" stop-color="#feeea7"/><stop offset=".64" stop-color="#fdeb8f" stop-opacity="0"/></linearGradient><path fill="url(#q)" d="M488.649 324.185a24.827 24.827 0 00-20.437-5.479l-38.58 6.9c-8.246 47.884-13.55 109.426-11.602 187.24 22.534 36.279 48.383 63.953 77.353 82.92l2.104-252.35a24.82 24.82 0 00-8.838-19.231z"/><linearGradient id="r" gradientUnits="userSpaceOnUse" x1="800.098" y1="-102.199" x2="129.569" y2="462.027"><stop offset="0" stop-color="#feeea7"/><stop offset=".64" stop-color="#fdeb8f" stop-opacity="0"/></linearGradient><path fill="url(#r)" d="M337.69 445.82l-57.064-209.469c-2.956-10.847-14.239-17.457-25.147-14.736l-36.6 9.132c-5.608 1.401-10.259 4.943-13.1 9.975-2.841 5.035-3.469 10.851-1.768 16.374l57.046 185.248c27.69-5.221 53.454-3.958 76.633 3.476z"/><linearGradient id="s" gradientUnits="userSpaceOnUse" x1="737.925" y1="-176.087" x2="67.395" y2="388.139"><stop offset="0" stop-color="#feeea7"/><stop offset=".64" stop-color="#fdeb8f" stop-opacity="0"/></linearGradient><path fill="url(#s)" d="M295.237 232.374l24.343 89.358c3.047-22.897 8.814-52.396 19.677-82.918-5.66-58.387-21.904-116.171-31.158-145.588-3.333-10.592-14.285-16.444-24.94-13.339a6235.038 6235.038 0 01-30.389 8.799 20.138 20.138 0 00-14.076 24.197c7.431 30.447 17.258 75.944 20.909 93.011 16.147-.375 31.234 10.324 35.634 26.48z"/><linearGradient id="t" gradientUnits="userSpaceOnUse" x1="1000.682" y1="136.176" x2="330.153" y2="700.402"><stop offset="0" stop-color="#feeea7"/><stop offset=".64" stop-color="#fdeb8f" stop-opacity="0"/></linearGradient><path fill="url(#t)" d="M635.731 378.664a14.936 14.936 0 00-6.876-5.904l-.065-.02a15.193 15.193 0 00-2.579-.852l-45.201-10.156c-7.849-1.745-15.686 2.928-17.845 10.677l-52.341 187.88-.37 44.431c21.569 11.49 44.735 18.476 69.427 20.91l57.683-235.423c.971-3.971.32-8.071-1.833-11.543z"/><linearGradient id="u" gradientUnits="userSpaceOnUse" x1="1055.586" y1="201.424" x2="385.057" y2="765.649"><stop offset="0" stop-color="#feeea7"/><stop offset=".64" stop-color="#fdeb8f" stop-opacity="0"/></linearGradient><path fill="url(#u)" d="M717.016 385.365c-7.204 62.047-17.261 142.889-28.87 220.075 25.556-13.341 48.888-32.97 69.884-58.812 4.744-64.184 7.638-123.079 9.233-161.369.187-4.518-1.819-8.61-5.503-11.224-3.695-2.621-8.235-3.165-12.448-1.494l-32.296 12.824z"/><linearGradient id="v" gradientUnits="userSpaceOnUse" x1="917.616" y1="37.459" x2="247.087" y2="601.685"><stop offset="0" stop-color="#feeea7"/><stop offset=".64" stop-color="#fdeb8f" stop-opacity="0"/></linearGradient><path fill="url(#v)" d="M674.421 225.767c3.695 15.025 6.552 31.794 7.903 50.198h21.236a22.98 22.98 0 0117.058 7.594 22.924 22.924 0 015.747 17.723 8420.611 8420.611 0 01-7.384 67.012l24.741-9.823c1.612-.641 3.263-1.074 4.924-1.409l2.109-88.819-39.58-191.95c-.793-3.852-3.083-7.095-6.446-9.135-3.364-2.037-7.294-2.569-11.08-1.486l-28.008 7.982c-6.656 1.893-10.964 8.492-10.021 15.346l18.801 136.767z"/><linearGradient id="w" gradientUnits="userSpaceOnUse" x1="820.731" y1="-77.679" x2="150.202" y2="486.547"><stop offset="0" stop-color="#feeea7"/><stop offset=".64" stop-color="#fdeb8f" stop-opacity="0"/></linearGradient><path fill="url(#w)" d="M467.441 176.05a35.307 35.307 0 01-1.338 28.519c-10.071 20.128-23.4 53.893-33.536 105.13l32.978-5.899c8.33-1.499 16.75-.272 24.21 3.281l7.459-28.158 37.451-159.755a9.293 9.293 0 00-1.392-7.446 9.281 9.281 0 00-6.425-3.993l-40.944-5.83a9.404 9.404 0 00-9.976 5.649l-21.847 51.893c6 4.009 10.713 9.784 13.36 16.609z"/><linearGradient id="x" gradientUnits="userSpaceOnUse" x1="923.017" y1="43.878" x2="252.488" y2="608.104"><stop offset="0" stop-color="#feeea7"/><stop offset=".64" stop-color="#fdeb8f" stop-opacity="0"/></linearGradient><path fill="url(#x)" d="M511.887 282.664l-9.096 34.334c6.361 7.316 9.921 16.681 9.84 26.544l-1.322 158.574 37.268-133.774c3.54-12.699 14.71-21.297 27.262-22.062.909-11.511 2.081-35.937-.983-64.993L536.62 269.1c-5.131-1.638-10.555-1.109-15.274 1.479-4.722 2.587-8.08 6.88-9.459 12.085z"/><linearGradient id="y" gradientUnits="userSpaceOnUse" x1="898.914" y1="15.234" x2="228.385" y2="579.46"><stop offset="0" stop-color="#feeea7"/><stop offset=".64" stop-color="#fdeb8f" stop-opacity="0"/></linearGradient><path fill="url(#y)" d="M590.89 348.432l34.604 7.775 10.435-61.165a22.875 22.875 0 0122.603-19.077h8.618c-3.64-47.165-17.694-82.878-29.19-104.928-4.235-8.122-13.66-11.96-22.422-9.121-13.189 4.277-24.807 8.163-34.532 11.549-4.924 1.715-8.795 5.279-10.904 10.037-2.165 4.884-2.192 10.322-.076 15.306 25.866 60.946 22.729 128.157 20.864 149.624z"/><linearGradient id="z" gradientUnits="userSpaceOnUse" x1="1016.611" y1="155.106" x2="346.082" y2="719.332"><stop offset="0" stop-color="#feeea7"/><stop offset=".64" stop-color="#fdeb8f" stop-opacity="0"/></linearGradient><path fill="url(#z)" d="M671.673 613.065c18.943-123.968 33.998-260.145 39.634-313.377a7.666 7.666 0 00-1.946-6.004 7.716 7.716 0 00-5.801-2.577h-45.028a7.767 7.767 0 00-7.675 6.477l-10.927 64.049a30.127 30.127 0 018.671 9.052c4.314 6.958 5.616 15.169 3.667 23.121l-57.023 232.73c1.582.035 3.161.078 4.754.078 25.414.001 49.326-4.535 71.674-13.549z"/><linearGradient id="A" gradientUnits="userSpaceOnUse" x1="1109.787" y1="265.837" x2="439.258" y2="830.063"><stop offset="0" stop-color="#feeea7"/><stop offset=".64" stop-color="#fdeb8f" stop-opacity="0"/></linearGradient><path fill="url(#A)" d="M929.694 440.852a200.653 200.653 0 0122.313 4.396c4.378 1.12 8.344 3.139 11.785 5.799l46.35-88.497a19.352 19.352 0 00.695-16.533 19.358 19.358 0 00-12.307-11.065l-33.155-9.956c-12.222 32.847-24.987 72.124-35.681 115.856z"/><linearGradient id="B" gradientUnits="userSpaceOnUse" x1="1060.854" y1="207.685" x2="390.325" y2="771.91"><stop offset="0" stop-color="#feeea7"/><stop offset=".64" stop-color="#fdeb8f" stop-opacity="0"/></linearGradient><path fill="url(#B)" d="M914.472 439.393c22.406-92.505 54.083-165.665 71.212-201.459 1.812-3.786 1.946-8.011.381-11.893-1.562-3.878-4.582-6.825-8.505-8.292-9.801-3.675-21.25-8.015-31.378-11.982-5.921-2.322-12.596-.662-16.603 4.137-70.36 84.212-96.689 207.463-104.566 254.836 25.44-18.446 55.729-27.073 89.459-25.347z"/><radialGradient id="C" cx="601.818" cy="827.337" r="596.638" gradientUnits="userSpaceOnUse"><stop offset=".063" stop-color="#ed3d2a" stop-opacity="0"/><stop offset=".556" stop-color="#d43224" stop-opacity=".63"/><stop offset=".846" stop-color="#c32a20"/></radialGradient><path fill="url(#C)" d="M928.267 695.865l33.639-214.107c1.553-9.889-4.446-19.483-13.655-21.842-64.646-16.559-118.733 4.444-152.3 59.141-31.621 51.529-69.645 86.959-113.591 106.043a7.549 7.549 0 01-1.721.73c-25.007 10.579-51.907 15.927-80.638 15.927-36.269 0-69.626-8.501-99.923-25.337a7.532 7.532 0 01-1.734-.965c-35.867-20.387-67.398-52.566-94.296-96.398-33.567-54.701-87.65-75.696-152.298-59.141-9.211 2.359-15.208 11.952-13.655 21.842l33.643 214.127 60.498 385.054c4.908 31.243 30.371 53.917 60.546 53.917h414.436c30.175 0 55.638-22.674 60.548-53.917l60.495-385.036c.002-.012.005-.025.006-.038zM448.748 798.422c-24.494 0-44.348-19.43-44.348-43.399s19.855-43.399 44.348-43.399c24.492 0 44.348 19.43 44.348 43.399s-19.856 43.399-44.348 43.399zm223.901 89.194c0 40.057-32.589 72.646-72.648 72.646s-72.648-32.589-72.648-72.646v-28.219c0-10.54 8.575-19.117 19.117-19.117h107.06c10.542 0 19.119 8.577 19.119 19.117v28.219zm78.606-175.992c24.492 0 44.347 19.43 44.347 43.399s-19.856 43.399-44.347 43.399c-24.494 0-44.349-19.43-44.349-43.399s19.855-43.399 44.349-43.399z"/><linearGradient id="D" gradientUnits="userSpaceOnUse" x1="162.133" y1="819.486" x2="326.353" y2="778.715"><stop offset=".063" stop-color="#ed3d2a" stop-opacity="0"/><stop offset=".866" stop-color="#dd3222"/></linearGradient><path fill="url(#D)" d="M113.907 837.818c-1.127.599-2.126 1.823-1.771 2.758.238.625.677 1.782 3.824 2.392 5.438 1.054 9.983 4.429 12.467 9.265 2.478 4.825 2.576 10.47.27 15.49-1.389 3.021-1.153 4.621-1.02 4.854.198.233 1.806 1.08 5.916.813 5.318-.322 10.372 1.738 13.857 5.712 3.535 4.03 4.959 9.401 3.905 14.736-.502 2.54-.279 4.107.14 4.492.15.137 3.87 3.301 21.746-1.9l2.944-.854c23.744-6.886 59.257-17.219 105.085-41.477l-21.773-138.582c-25.3 31.395-75.24 85.098-145.59 122.301z"/><linearGradient id="E" gradientUnits="userSpaceOnUse" x1="1010.808" y1="819.207" x2="854.051" y2="755.513"><stop offset=".063" stop-color="#ed3d2a" stop-opacity="0"/><stop offset=".866" stop-color="#dd3222"/></linearGradient><path fill="url(#E)" d="M1086.093 837.818c-70.349-37.201-120.288-90.906-145.586-122.299l-21.773 138.58c45.826 24.254 81.34 34.591 105.082 41.477l2.948.854c17.87 5.205 21.592 2.041 21.744 1.9.418-.385.641-1.952.141-4.492-1.054-5.335.368-10.707 3.904-14.736 3.483-3.971 8.529-6.048 13.851-5.712 4.122.277 5.725-.58 5.928-.821.128-.226.362-1.826-1.026-4.847-2.307-5.021-2.207-10.666.272-15.49 2.483-4.836 7.028-8.211 12.468-9.265 3.142-.606 3.582-1.767 3.819-2.392.353-.939-.645-2.159-1.772-2.757z"/><radialGradient id="F" cx="431.338" cy="916.477" r="80.624" gradientTransform="matrix(.9996 .0266 -.0201 .7543 18.565 213.655)" gradientUnits="userSpaceOnUse"><stop offset="0" stop-color="#c31c28"/><stop offset=".521" stop-color="#de2c2e" stop-opacity=".433"/><stop offset=".919" stop-color="#ee3632" stop-opacity="0"/></radialGradient><path fill="url(#F)" d="M431.338 867.785c-40.309 0-71.884 21.389-71.884 48.694 0 27.301 31.575 48.689 71.884 48.689s71.884-21.389 71.884-48.689c0-27.305-31.575-48.694-71.884-48.694z"/><radialGradient id="G" cx="768.663" cy="916.477" r="80.624" gradientTransform="matrix(.9996 .0266 -.0201 .7543 18.685 204.675)" gradientUnits="userSpaceOnUse"><stop offset="0" stop-color="#c31c28"/><stop offset=".521" stop-color="#de2c2e" stop-opacity=".433"/><stop offset=".919" stop-color="#ee3632" stop-opacity="0"/></radialGradient><path fill="url(#G)" d="M768.663 867.785c-40.309 0-71.884 21.389-71.884 48.694 0 27.301 31.575 48.689 71.884 48.689s71.884-21.389 71.884-48.689c0-27.305-31.575-48.694-71.884-48.694z"/><radialGradient id="H" cx="600.001" cy="883.413" r="70.827" gradientUnits="userSpaceOnUse"><stop offset="0" stop-color="#da3121" stop-opacity="0"/><stop offset=".977" stop-color="#dd3222"/></radialGradient><path fill="url(#H)" d="M653.53 855.423H546.47a3.978 3.978 0 00-3.974 3.974v28.219c0 8.488 1.897 16.526 5.213 23.786 13.643-13.991 32.476-22.112 52.292-22.112 19.818 0 38.65 8.12 52.291 22.112 3.316-7.259 5.214-15.298 5.214-23.786v-28.219a3.98 3.98 0 00-3.976-3.974z"/><linearGradient id="I" gradientUnits="userSpaceOnUse" x1="447.347" y1="761.275" x2="474.527" y2="734.095"><stop offset="0" stop-color="#fff" stop-opacity="0"/><stop offset=".498" stop-color="#fef9e5" stop-opacity=".498"/><stop offset="1" stop-color="#fcf2c7"/></linearGradient><circle fill="url(#I)" cx="461.499" cy="747.123" r="19.219"/><linearGradient id="J" gradientUnits="userSpaceOnUse" x1="749.852" y1="761.275" x2="777.032" y2="734.095"><stop offset="0" stop-color="#fff" stop-opacity="0"/><stop offset=".498" stop-color="#fef9e5" stop-opacity=".498"/><stop offset="1" stop-color="#fcf2c7"/></linearGradient><circle fill="url(#J)" cx="764.005" cy="747.123" r="19.219"/><g opacity=".8"><linearGradient id="K" gradientUnits="userSpaceOnUse" x1="336.637" y1="654.9" x2="278.348" y2="654.9"><stop offset="0" stop-color="#fff" stop-opacity="0"/><stop offset="1" stop-color="#fff"/></linearGradient><path fill="url(#K)" d="M278.418 520.976c6.12 45.948 12.716 91.804 19.552 137.652 3.447 23.12 6.696 46.267 9.928 69.418 3.02 21.628 3.373 46.752 14.922 65.773 2.749 4.528 9.698 3.619 11.19-1.462 5.942-20.24.34-42.712-2.528-63.224-3.232-23.12-6.843-46.195-10.475-69.256-7.453-47.32-16.162-94.307-26.556-141.071-1.954-8.799-17.261-7.05-16.033 2.17z"/></g><g opacity=".8"><linearGradient id="L" gradientUnits="userSpaceOnUse" x1="923.06" y1="628.884" x2="870.691" y2="538.178"><stop offset="0" stop-color="#fff" stop-opacity="0"/><stop offset="1" stop-color="#fff"/></linearGradient><path fill="url(#L)" d="M895.702 526.8c-5.436 36.989-18.08 80.777-11.976 118.068.625 3.818 6.81 4.574 8.433 1.102 15.994-34.218 15.654-79.823 20.449-116.882 1.232-9.526-15.496-11.884-16.906-2.288z"/></g><g opacity=".8"><linearGradient id="M" gradientUnits="userSpaceOnUse" x1="644.393" y1="1081.521" x2="406.973" y2="1081.521"><stop offset="0" stop-color="#fff" stop-opacity="0"/><stop offset="1" stop-color="#fff"/></linearGradient><path fill="url(#M)" d="M413.474 1085.582c38.764 2.613 77.324 5.741 116.204 6.37 18.736.303 37.511.258 56.247-.043 17.922-.288 37.149 1.114 54.117-5.332 5.575-2.118 6.025-9.846 0-11.807-17.226-5.607-36.196-3.517-54.117-3.446-18.75.074-37.498.081-56.247.12-38.718.082-77.498 1.224-116.204.651-8.752-.13-8.585 12.908 0 13.487z"/></g></svg>