<svg xmlns="http://www.w3.org/2000/svg" viewBox="0 0 1200 1200"><path fill="#FCBD00" d="M283.045 588.355c-5.436 20.057-11.446 40.11-13.397 60.799-1.638 17.374-.382 34.894-1.326 52.319-1.055 19.479-4.176 39.721-12.599 57.363-8.962 18.772 13.809 26.123 28.883 29.406 46.171 10.057 92.407 20.1 139.209 26.808 21.203 3.039 43.232 6.568 64.406 8.007 22.144 1.505 45.599-6.617 65.683-15.045 7.454-3.128 18.109-7.689 21.344-15.739 3.811-9.484.586-25.965.598-36.132.071-56.77.334-113.445-.574-170.298l-1.525-95.476-.777-48.674c-.173-10.808 6.689-20.264-6.396-19.183-13.253 1.095-26.327 2.836-39.654 3.195a375.183 375.183 0 01-75.652-5.636c-10.292-1.828-20.956-5.939-31.273-6.957-7.965-.785-11.926 3.554-19.373 6.047-19.013 6.366-41.382 4.533-60.531-.092-17.957-4.337-23.947 4.569-27.163 21.598-4.243 22.465-6.87 45.224-11.257 67.689a1143.487 1143.487 0 01-18.626 80.001z"/><path fill="#FFF" d="M478.85 537.75c3.546-6.81 8.504-12.763 13.424-18.658 5.299-6.35 11.487-13.185 19.726-13.902 1.87-.163 3.931.084 5.272 1.397 1.239 1.213 1.586 3.047 1.829 4.764a103.634 103.634 0 01-1.039 34.972c-.447 2.208-1.028 4.519-2.598 6.135-1.799 1.851-4.513 2.411-7.06 2.83-7.024 1.157-23.244 5.759-29.885 2.981-8.059-3.371-2.566-14.953.331-20.519zm-53.86-18.504c-.428-3.457-1.139-7.278-3.932-9.359-2.652-1.976-6.471-1.685-9.406-.16-10.916 5.674-19.345 15.754-24.413 26.837-2.47 5.402-4.223 11.188-4.909 17.098-.903 7.779-.693 9.563 7.444 8.65 7.505-.842 31.275.55 36.237-5.309 5.114-6.037.046-30.288-1.021-37.757z"/><path fill="#DE6945" d="M856.099 802.394c-1.427 1.532-2.198 2.221-2.806 3.032-6.138 8.203-12.911 15.873-19.673 23.556-3.154 3.583-6.192 7.269-9.253 10.933-2.394 2.865-4.597 5.788-8.063 7.68-2.316 1.264-4.049 3.609-6.018 5.496-7.655 7.336-15.79 14.063-24.836 19.64-7.875 4.854-16.084 8.941-25.117 11.228-8.918 2.258-17.774 4.774-26.726 6.882-4.632 1.091-9.393 1.775-14.135 2.229-8.689.832-17.026-.808-24.787-4.784-12.784-6.549-22.851-16.044-29.742-28.691-1.634-2.999-3.285-5.96-5.158-8.811-4.251-6.469-6.259-13.569-5.875-21.328.203-4.091.572-8.138 1.494-12.161 3.744-16.344 9.102-32.131 15.965-47.418 4.05-9.022 8.259-17.977 12.128-27.076 9.348-21.988 17.802-44.289 22.81-67.746 1.567-7.339 2.947-14.704 3.498-22.202.1-1.361.167-2.729.358-4.078 2.3-16.305 1.924-32.703.956-49.035-.644-10.867-1.291-21.771-2.811-32.597-.994-7.082-1.501-14.236-2.539-21.327-1.037-7.083-1.71-14.219-2.751-21.3-1.587-10.792-3.575-21.529-4.98-32.343-1.316-10.136-2.783-20.281-2.785-30.546 0-3.085-.461-6.071-1.147-9.095-3.547-15.636-6.157-31.447-8.224-47.339-.569-4.376-.714-8.864-.498-13.274.771-15.74 3.077-31.214 9.1-45.924 4.547-11.105 9.926-21.7 18.366-30.487 2.144-2.233 4.193-4.423 7.094-5.716 2.269-1.012 3.722-2.911 4.674-5.204.538-1.297.788-2.594.387-3.971-2.034-6.984-5.653-13.132-10.126-18.784-1.899-2.4-4.138-4.531-6.192-6.81-4.574-5.075-7.777-12.481-8.823-19.234-.584-3.774-.414-8.005 2.077-10.899 3.042-3.534 8.316-3.831 12.979-3.859l18.159-.112c7.542-.047 10.822-4.48 17.263-7.267.926-.401 1.932-.64 2.921-.871 2.407-.561 5.014 1.081 5.39 3.488.735 4.712 1.464 9.41 1.404 14.225-.127 10.235-.058 20.472-.022 30.709.008 2.382.103 4.774.343 7.143.306 3.015 2.513 4.993 5.441 5.044 3.407.06 6.815.106 10.222.097 7.029-.018 13.438 2.148 19.421 5.635 3.532 2.059 6.958 4.312 10.341 6.612 3.101 2.109 6.164 4.293 9.095 6.631 8.543 6.817 17.407 13.197 26.686 18.947 13.375 8.288 23.301 19.84 31.826 32.765 3.191 4.838 6.169 9.823 9.068 14.843 1.872 3.24 3.692 6.558 5.074 10.026 7.074 17.744 13.188 35.827 18.604 54.144 2.519 8.52 3.953 17.281 5.535 25.997 2.192 12.074 4.211 24.181 6.161 36.297.92 5.721 1.573 11.488 2.224 17.248.652 5.758 1.262 11.524 1.698 17.301 1.46 19.377 3.619 38.711 3.22 58.201-.167 8.168-.421 16.355.772 24.513.439 3.005.313 6.157-.004 9.195-1.167 11.185-1.606 22.436-3.418 33.565-1.756 10.786-4.031 21.442-7.002 31.949-3.996 14.131-8.976 27.895-15.23 41.206-6.672 14.201-13.351 28.395-21.094 42.052-8.08 14.252-16.842 28.081-26.196 41.531-.973 1.399-2.01 2.755-3.037 4.115-.832 1.102-2.07 1.59-2.242.937-.163-.621-.423-1.389-.207-1.912 2.215-5.355 4.524-10.67 6.795-16.002.783-1.842 1.864-3.589 1.968-6.889zm-72.845-381.426c-2.731 1.724-4.8 2.881-6.688 4.281-1.057.784-1.882 1.921-2.688 2.992-.912 1.214-.355 3.623.924 4.537 1.422 1.016 3.016 1.707 4.742 1.507 3.364-.39 6.742-.815 10.038-1.56 1.949-.44 3.877-1.317 5.597-2.357 4.034-2.438 6.246-6.128 6.57-10.856.092-1.346.124-2.74-.117-4.057-1.413-7.745-4.064-15.043-8.304-21.704-1.505-2.365-3.709-3.993-6.426-4.707-1.269-.334-2.732-.548-3.976-.256-5.335 1.255-8.713 6.475-7.477 11.545 1.205 4.943 2.775 9.782 4.94 14.407.852 1.819 1.68 3.648 2.865 6.228zm-49.368 8.812c.003.063.06-.979-.129-1.973-1.085-5.715-2.707-11.269-5.406-16.449-1.777-3.41-4.458-5.995-7.759-7.935-2.774-1.631-5.745-1.988-8.875-1.305-5.468 1.193-8.363 6.916-5.846 11.902 1.222 2.421 2.824 4.651 4.244 6.973.815 1.332.517 2.575-.361 3.744-.409.545-.865 1.054-1.29 1.587-.211.265-.44.529-.591.828-.638 1.261-.801 2.579-.405 3.951.586 2.03 1.697 3.684 3.429 4.925.737.528 2.054.558 2.767-.088.753-.683 1.424-1.458 2.184-2.132.71-.628 2.038-.553 2.747.186 1.871 1.949 3.657 3.981 5.558 5.899 1.063 1.072 3.451 1.289 4.781.401 1.107-.739 2.279-1.579 3-2.657 1.338-2.003 2.026-4.308 1.952-7.857z"/><path fill="#FCBD00" d="M1072.313 602.783c-2.727 0-5.467-.175-8.177.035-6.232.483-12.213-.949-18.201-2.222-5.306-1.128-8.831-5.243-9.217-10.854-.165-2.39-.276-4.733-.952-7.043-.689-2.354-.651-4.775.183-7.051 1.149-3.132.729-6.011-.804-8.848-.324-.599-.556-1.249-.898-1.836-3.499-6.008-5.524-12.382-5.161-19.436.089-1.725-.657-3.293-2.16-4.397-1.094-.804-2.251-1.588-3.14-2.593-1.857-2.099-2.985-4.584-2.829-7.451.111-2.036.218-4.118.719-6.079 1.279-5.009 1.501-10.096 1.592-15.217.097-5.453.226-10.907.43-16.357.139-3.704 1.163-5.129 5.334-6.458 2.03-.647 4.136-.554 5.874.749 2.993 2.245 6.003 4.504 8.738 7.046 4.375 4.066 9.49 6.55 15.2 8.009 2.639.675 5.273 1.379 7.88 2.167 4.644 1.404 8.774 3.658 12.134 7.266 1.385 1.487 2.985 2.794 4.589 4.053 2.756 2.164 5.917 3.358 9.44 3.453 1.7.046 3.409.065 5.104-.052 3.129-.215 5.988-1.255 8.525-3.122 2.185-1.608 4.113-3.562 6.724-4.588 1.64-.644 3.694.455 3.749 2.203.021.677.148 1.36.094 2.029-.273 3.396-.55 6.793-.901 10.181-.386 3.726-5.073 49.806-5.229 52.868-.299 5.879-1.989 11.378-4.37 16.709-1.346 3.014-3.259 5.151-6.908 5.07-1.35-.03-2.793.002-4.047.434-6.288 2.162-12.741 1.996-19.228 1.648-1.358-.073-2.723-.011-4.085-.011-.002-.1-.002-.203-.002-.305zM63.971 568.539c-2.152-3.611-3.823-7.674-4.411-12.132-.489-3.707-1.022-7.413-1.358-11.135-.459-5.081-.777-10.176-1.102-15.268-.195-3.052-.279-6.073-1.443-9.013-.605-1.528-.528-3.337-.688-5.026-.77-8.127-1.596-16.25-2.244-24.386-.431-5.421-.613-10.862-.871-16.296-.144-3.028 1.438-5.141 3.795-6.782 1.623-1.13 4.498-.613 5.405 1.014 1.158 2.077 2.249 4.193 3.334 6.31.931 1.815 1.738 3.698 2.734 5.476 2.051 3.665 4.941 6.541 8.806 8.215 8.358 3.62 8.416 4.411 17.351.569a24.514 24.514 0 014.833-1.493c2.228-.446 5.26 1.323 5.685 3.355.625 2.984 1.164 6.001 1.458 9.032.125 1.284-.284 2.709-.772 3.942-.748 1.891-1.896 3.623-2.656 5.51-1.524 3.78-3.357 7.516-4.251 11.455-2.396 10.561-2.522 10.232 2.623 19.325 3.19 5.638 6.589 11.102 11.32 15.659 1.688 1.626 3.075 3.653 4.255 5.697 2.517 4.361 2.798 9.018 1.104 13.76-.338.947-.725 1.956-1.361 2.705-7.384 8.695-7.075 9.22-19.023 8.592-9.593-.504-17.562-4.914-24.996-10.539-3.835-2.899-5.079-4.437-7.527-8.546z"/><path fill="#DE6945" d="M918.526 889.483c4.052-.184 7.386 1.897 9.701 5.638 1.067 1.724 1.888 3.61 2.72 5.468.715 1.598.704 3.239.24 4.968-.626 2.334-1.76 4.409-2.8 6.551-1.052 2.167-.225 6.143 1.59 7.503 8.897 6.665 15.556 15.204 20.629 24.974 4.569 8.799 5.665 18.036 2.881 27.72-1.872 6.514-5.872 11.431-10.809 15.742-.999.873-2.322 1.39-3.529 2.007-4.024 2.058-8.322-.221-10.035-2.531-2.067-2.787-3.692-5.824-4.101-9.24-.645-5.398-1.982-10.73-1.746-16.225.044-1.019.009-2.044-.026-3.065-.351-10.275-7.623-17.002-17.523-17.848-3.037-.26-6.121.032-9.184.053-3.063.022-6.133.155-9.187-.005-3.383-.177-5.835-2.12-7.002-5.164-1.086-2.831-1.947-5.852-2.249-8.856-.422-4.193 1.167-8.035 3.434-11.535 2.8-4.321 6.261-8.08 10.259-11.303 6.108-4.925 12.683-9.18 19.407-13.21 2.115-1.266 4.414-1.738 7.33-1.642zm-302.202 162.163c-6.812.104-13.594.11-20.158-2.156-6.538-2.258-12.325-5.698-17.315-10.478a25.897 25.897 0 01-6.223-9.236c-1.276-3.206-2.003-6.506-1.661-9.969.435-4.397.762-8.814 1.435-13.177.741-4.802 2.635-9.117 6.367-12.469 2.267-2.036 6.494-2.489 8.373-.222 3.247 3.918 7.71 6.682 10.331 11.165.682 1.167 1.642 2.169 2.402 3.295 3.754 5.559 9.475 8.668 14.989 12.021.85.517 1.891.798 2.882.989 2.664.513 5.374 1.412 8.02 1.274 7.692-.399 14.712 2.204 21.853 4.308 1.253.369 2.559 1.096 3.453 2.029 1.942 2.026 3.202 4.413 2.218 7.398-.319.969-.529 1.976-.885 2.931-2.85 7.658-6.299 15.044-10.133 22.255-1.637 3.08-4.027 5.453-6.946 7.32-1.855 1.186-3.836 1.329-5.85.554-1.266-.487-2.448-1.186-3.697-1.723-1.911-.821-3.83-4.139-3.3-6.946.501-2.653 1.47-5.216 2.088-7.852.078-.331-.712-1.229-1.131-1.251-2.364-.125-4.74-.097-7.112-.06z"/><path d="M202.579 633.753c16.447 2.451 33.549-1.118 48.979-10.651 16.467-10.174 29.129-25.996 36.733-43.797 1.815-4.248 3.378-8.937 2.253-13.418-1.125-4.48-6.005-8.273-10.316-6.615-2.966 1.141-4.583 4.257-6.063 7.068-8.986 17.067-22.436 31.759-38.646 42.214-32.525 20.977-57.348-4.091-75.962-30.449-2.554-3.616-4.733-7.495-7.811-10.747-.638-.674-.736-1.859-1.182-3.077.952-2.375 2.118-4.836 2.932-7.409 1.786-5.644 2.294-11.393.331-17.104-1.676-4.878-4.938-8.082-10.235-8.837-1.314-.187-2.777.141-3.973-1.513-.036-.614-.372-1.668-.102-2.532 1.12-3.575 2.381-7.109 3.672-10.628 1.292-3.522 2.76-6.981 4.008-10.519 1.595-4.523 2.732-9.169 2.761-13.996.008-1.323-.313-2.697-.739-3.962-.91-2.699-4.577-3.643-6.8-1.833-.525.428-1.087.85-1.49 1.382-1.788 2.358-3.164 4.903-3.45 7.903-.969.001-2.233.353-2.8-.124-2.592-2.183-5.015-4.575-7.418-6.973-1.283-1.281-1.907-2.79-.485-4.662.767-.316 1.674-.752 2.62-1.068 6.072-2.032 10.609-6.028 14.106-11.238 4.861-7.243 7.777-15.15 7.203-24.007-.431-6.643-2.694-12.605-7.443-17.451-1.667-1.701-3.24-3.526-5.082-5.015-2.104-1.7-4.314-3.389-6.733-4.555-7.47-3.599-14.557-2.692-20.958 2.602-1.555 1.287-2.873 2.886-4.177 4.444-.868 1.037-1.434 2.327-2.294 3.372-.604.734-1.477 1.246-2.291 1.907-2.385-.767-4.607-1.612-6.896-2.183-3.079-.768-6.068-.369-8.892 1.182-2.74 1.505-4.984 3.482-6.682 6.149a35.747 35.747 0 00-4.18 9.272c-.376 1.289-.594 2.702-2.106 3.639-1.756 1.089-3.739-.21-5.716-.303-4.97-.235-8.554 1.858-10.765 6.224-.915 1.807-1.491 3.786-2.242 5.739-.708.682-1.52 1.323-2.149 2.11-.617.772-1.048 1.692-1.549 2.527l.828 3.048 2.51-1.171c2.169.875 3.633 2.307 5.153 3.661.213.629.632 1.268.604 1.886-.189 4.168.431 8.14 2.324 11.909.76 1.512 1.256 3.157 1.871 4.738 3.695 2.423 7.847 4.151 10.591 7.294 1.581 2.447 1.269 4.918 1.411 7.261.934 15.391 3.85 30.432 7.899 45.272.526 1.929 1.013 3.992 2.962 5.191.537-2.037-.266-3.931-.693-5.81-3.407-14.983-5.635-30.167-7.843-45.355-.241-1.659-.407-3.393 1.399-4.833l7.548-.794 5.503-3.41c3.136.32 5.602 2.34 8.412 3.483.792.322 1.281 1.388 1.869 2.067-3.937 5.911-3.937 5.911-4.924 13.583-.541.888-1.236 2.053-1.955 3.204-1.527 2.444-1.903 5.14-1.365 7.883.59 3.006 1.469 5.955 2.3 9.233-.058.711-.038 1.743-.239 2.73-.79 3.892.116 7.445 2.046 10.804 3.46 6.022 8.143 10.919 13.881 14.79 1.687 1.138 3.558 2.003 5.636 3.154 1.536 3.711 1.267 7.695.407 11.642 1.099.905 2.704 1.069 3.037 3.004-.742 4.111-4.257 6.459-6.667 9.008-9.012 5.005-18.049 5.227-27.307 3.17a165.026 165.026 0 01-9.911-2.54c-1.949-.562-3.82-1.398-5.561-2.05-3.582-3.738-5.559-8.024-6.588-12.77-.578-2.664-1.127-5.352-1.417-8.059-1.419-13.239-3.93-26.305-6.1-39.426-1.391-8.412-2.812-16.818-4.175-25.234-.33-2.037-.734-4.024-1.824-5.809-.267.94-.838 1.91-.748 2.814.439 4.408.971 8.811 1.623 13.193 2.857 19.228 6.893 38.267 9.156 57.593.395 3.371 1.193 6.724 2.116 9.998 1.749 6.206 5.567 10.835 11.288 13.876 3.036 1.614 6.232 2.742 9.588 3.485 7.376 1.633 14.861 2.09 22.381 2.036 2.03-.015 4.073-.383 6.084-.738 4.948-.874 8.845-3.343 11.55-7.673 1.063-1.702 1.61-3.816 3.261-4.77 2.213-1.279 4.276-.307 6.281-.31 1.999-.002 4.025-1.084 6.292.253 2.516 2.407 4.119 5.861 6.291 8.9 6.187 8.657 13.323 16.413 21.738 22.945 10.262 7.968 21.716 12.819 33.506 14.576zM89.303 483.801c-1.864-.446-3.164-.142-4.387.52-1.197.648-2.316 1.458-3.556 2.002-6.132 2.693-13.821-.673-15.861-6.948-.524-1.613-.903-3.285-1.198-4.956-.351-1.984-.065-4.315-1.933-5.569-1.343-.901-3.126-1.136-4.692-1.724-.242-.091-.373-.481-.569-.752-.535-2.224 1.37-3.713 1.798-5.68.281-1.292.99-2.542 1.72-3.674 1.166-1.807 2.926-2.919 5.085-2.967 1.68-.038 3.382.239 5.05.518 1.65.276 3.236 1.037 4.967.527 1.462-.727 1.518-2.193 1.704-3.499.585-4.114 1.917-7.943 4.243-11.38.945-1.396 2-2.775 3.243-3.899 2.986-2.7 6.527-3.64 10.423-2.422 2.576.805 5.069 1.877 7.553 2.813 1.006-.623 2.115-.959 2.642-1.705 1.368-1.939 2.341-4.158 3.719-6.089 5.676-7.959 14.131-8.786 21.719-5.146 2.461 1.181 4.656 2.792 6.405 4.964 4.653 5.774 6.987 16.043 5.293 23.168-1.533 6.447-4.731 12-9.003 16.97-2.535 2.949-5.737 4.724-9.672 5.134-2.337.243-4.798-.212-6.82 1.028-1.551 1.293-1.587 3.075-2.164 4.646-.696 1.893-1.539 3.776-2.611 5.478-2.217 3.517-5.676 4.709-9.665 4.505a15.533 15.533 0 01-6.813-1.976c-2.372-1.324-4.686-2.747-6.62-3.887zm49.628 71.353c-2.883 1.152-5.373 2.858-6.626 5.439-.842 2.515.603 4.317.805 6.307.205 2.023.094 4.082.363 6.093.177 1.319.712 2.61 1.219 3.86.631 1.556 1.743 2.944 1.532 4.77-.998 1.226-2.248 1.22-3.615.726-2.645-.956-4.616-2.813-6.502-4.796-2.571-3.809-2.524-8.407-3.915-12.998-1.198-1.153-2.727-2.476-4.071-3.965-1.137-1.26-2.048-2.717-1.72-4.455 1.313-2.301 4.88-1.155 5.671-4.188-6.779.529-11.707-2.549-15.392-7.94-.959-1.403-1.801-2.885-3.151-5.063-.433-2.818-.788-6.511-2.674-9.887-1.133-2.028-1.812-4.43-.78-7.038l3.895-2.765c.189-.721.539-1.377.498-2.009-.218-3.382-.693-6.755-.756-10.137-.04-2.157 1.233-3.832 3.176-4.88 1.231-.664 2.533-.906 3.931-.655 2.063.371 3.938 1.207 5.426 2.641 1.953 1.881 3.74 3.935 5.714 6.037.504 3.49 3.518 6.679 1.369 10.422-1.564.874-2.879.813-3.948-.216-1.696-1.633-3.262-3.4-4.924-5.07-.185-.185-.651-.201-.952-.136-.706.15-1.03.843-.468 1.45 4.386 4.739 8.653 9.558 11.557 15.433.346-.273.681-.425.67-.544-.191-2.004-.424-4.004-.625-5.794l2.087-6.165c-1.812-8.525-2.104-17.474-6.684-24.546.789-2.238 1.39-3.425 2.872-3.847 1.402-.399 2.684-.026 3.879.674 3.472 2.034 5.338 5.181 5.914 9.067.247 1.665.11 3.389.118 5.086.011 2.327-.891 4.633-.165 6.988.949-1.002.555 1.279.824-.059.602-2.989 1.322-5.968 1.68-8.988.353-2.977 2.492-5.426 2.383-8.495 1.799-1.917 3.522-3.916 5.462-5.678.591-.537 1.821-.37 2.579-.496 1.261 1.185 1.695 2.394 1.658 3.828-.097 3.783-1.15 7.368-2.324 10.906-1.174 3.538-2.578 6.999-3.825 10.514-1.02 2.875-2.061 5.75-2.889 8.682-.453 1.608-1.096 3.559-.582 4.963 1.15 3.142-.465 5.774-.811 8.618l6.536-1.685c5.556 1.309 8.161 4.886 8.553 10.197.329 4.467-.374 8.795-2.349 12.86-.135.277-.481.452-.793.733-3.053.103-4.364-2.969-7.192-4.042-.668.05-1.755-.11-2.638.243zm327.677-405.109l.122-.02c6.339-1.039 13.982-.139 20.156 1.501 4.31 1.144 8.458 2.602 12.468 4.521 14.749 7.057 26.831 17.382 36.892 30.161 3.823 4.856 6.625 10.312 9.044 15.975 7.342 17.183 10.211 37.157 4.882 55.285 5.279-1.298 11.102.628 14.95 4.469 3.848 3.841 5.771 9.389 5.67 14.825.813-.602 1.224-1.599 1.512-2.569 1.541-5.183.515-11.063-2.69-15.418-3.205-4.355-8.514-7.083-13.92-7.153 1.512.02 1.186-20.792.857-23.215-.825-6.078-1.878-12.133-3.577-18.055-3.732-13.001-9.826-24.638-19.165-34.563-7.784-8.271-16.487-15.3-26.335-20.948-7.766-4.454-15.914-7.657-24.85-9.001-5.648-.85-11.672-1.085-17.282-.109-2.788.485-20.415.31-19.749 4.324.713 4.296 18.052.475 21.015-.01zm458.399 394.532c-.835-11.903-1.592-23.819-2.967-35.695-1.374-11.871-2.853-23.736-5.144-35.432-4.796-24.484-11.676-48.387-21.726-71.31-6.747-15.391-14.955-29.895-25.504-43.01-4.917-6.115-9.861-12.219-15.018-18.131-17.067-19.564-37.427-34.776-60.977-45.716-9.992-4.642-20.333-7.919-31.464-8.21-1.356-.035-2.723-.23-4.049-.516-.619-.133-1.153-.66-2.065-1.215-.125-1.079-.546-2.432-.388-3.713.67-5.411 1.289-10.846 2.338-16.191 1.953-9.951 4.577-19.762 8.862-28.982 1.251-2.692 3.496-6.041 1.743-8.979-2.12-3.552-6.978-3.314-10.466-2.723-3.458.587-7.748.854-9.704-2.058-.811-1.208-1.05-2.801-2.127-3.78-1.05-.955-2.603-1.058-4.022-1.036-5.472.083-10.862 1.257-16.208 2.426-2.125.465-4.425 1.035-5.768 2.746-1.662 2.116-1.257 5.181-2.286 7.667-1.246 3.009-4.813 4.85-7.987 4.122-1.742-.4-3.265-1.451-4.963-2.009-4.269-1.403-7.528.446-10.002 3.68-2.099 2.745-5.896 6.769-3.311 10.423.652.921 1.667 1.702 1.762 2.826.125 1.477-1.36 2.498-2.305 3.641-1.863 2.254-1.406 7.725.231 10.085 5.773 8.322 12.293 15.303 18.96 22.153 2.855 2.934 5.87 5.713 8.713 8.659.647.67.881 1.737 1.349 2.712-.836.761-1.486 1.607-2.34 2.09-9.179 5.193-15.753 12.993-21.364 21.647-3.149 4.857-5.844 10.014-8.614 15.106-3.118 5.73-5.212 11.873-6.653 18.214-3.052 13.44-3.674 27.026-1.854 40.68 2.209 16.571 5.391 32.979 8.538 49.392 1.733 9.042 3.297 18.117 5.067 27.152 2.025 10.331 3.961 20.684 6.691 31.88.3-1.988.607-2.986.572-3.972-.455-12.591-2.369-26.963-4.831-39.393-1.463-7.387-2.755-14.813-4.118-22.22-2.344-12.738-4.75-25.47-6.942-38.236-.701-4.083-.526-8.051.685-12.118 2.236-7.515 4.634-14.988 6.77-22.521 3.576-12.609 9.766-23.965 15.75-35.449.361-.694 1.53-.966 2.536-1.561.847 2.295.526 4.329.398 6.352-.109 1.702-.328 3.412-.252 5.107.084 1.874-.462 4.008 1.617 5.41.225-.256.58-.475.637-.755.676-3.341 1.393-6.678 1.933-10.043.975-6.077 2.449-12.032 4.298-17.891 1.352-4.283 3.48-8.17 6.728-11.327.669-.649 1.719-.906 2.491-1.292 1.789 1.052 2.24 2.78 3.018 4.265 1.738 3.321 3.336 6.717 5.153 9.993 1.517 2.734 3.655 4.922 6.82 6.334h4.544c1.259 1.051 2.241 2.014 3.373 2.743.413.266 1.409.206 1.73-.115.386-.385.618-1.317.422-1.821-.863-2.218-1.884-4.375-2.882-6.539-1.986-4.304-4.265-8.48-5.955-12.902.829-.409 1.391-.872 1.992-.933.63-.063 1.363.135 1.943.431 8.381 4.278 17.183 6.523 26.112 5.414 3.479 1.343 5.724 3.479 8.094 5.41 2.38 1.939 4.646 4.021 7.032 5.952 1.587 1.285 3.29 2.429 4.961 3.609 1.146.81 2.835.927 2.713.25-.11-.603-.154-1.337-.521-1.756-9.965-11.368-20.825-21.633-34.809-28.02-1.234-.564-2.378-1.336-3.518-2.083-.222-.146-.229-.621-.336-.945.521-.355 1.018-.963 1.568-1.016 1.686-.163 3.407-.27 5.09-.118 6.843.614 13.435 2.384 19.814 4.86 20.277 7.871 38.396 19.216 54.216 34.16 13.199 12.469 24.723 26.374 35.028 41.308a153.597 153.597 0 019.987 16.669c15.206 29.372 24.479 60.696 29.958 93.143 3.577 21.184 6.202 42.533 6.925 64.056.046 1.363.216 2.722.297 4.084.402 6.81.914 13.617 1.157 20.433.256 7.161.217 14.332.379 21.497.069 3.045-.166 6.127.623 9.17 1.358-.657.474.967 1.177-.155.98-1.565 1.016-3.231 1.11-4.904.965-17.064.728-34.136-.465-51.16zm-192.485-251.89c-.763 1.316-1.973 1.735-3.444 1.597-.961-.09-3.181-5.072-3.751-5.927a97.36 97.36 0 00-16.059-18.523c-2.399-2.147-5.043-4.389-5.819-7.514-1.103-4.442 2.464-9.201 6.939-10.164s9.236 1.344 12.025 4.973c2.827 3.678 4.613 6.952 4.811 11.557.181 4.205 1.011 8.362 2.299 12.363 1.14 3.54 2.246 7.09 3.283 10.37-.135.635-.127.999-.284 1.268zm19.272-5.608c-1.786.658-3.796-.37-3.819-2.031a158.29 158.29 0 01.086-7.094c.13-4.052.423-8.108-.375-11.88-.728-.64-1.269-.477-1.521.375-1.542 5.195-3.038 10.404-4.534 15.613-.511 1.782-1.575 3.052-2.452 2.893-1.536-.28-1.994-1.605-2.626-2.729-.498-.883-.892-1.827-1.303-2.756-1.648-3.72-3.228-7.47-4.947-11.156-.999-2.192-2.83-3.982-2.556-6.39.248-2.183.666-3.549.338-6.034-.238-1.806-.466-3.706.211-5.397s2.596-3.032 4.309-2.413c1.624.587 2.294 2.527 3.663 3.579 1.473 1.132 3.546 1.074 5.346.615 1.555-.397 3.158-1.156 3.886-2.586 1.126-2.213-.297-4.887.032-7.348.338-2.526 2.796-4.583 5.342-4.47 4.489.198 5.758 5.274 5.017 8.876-2.34 11.372-3.282 22.806-1.763 34.375.131.999.095 2.021.106 3.033.015 1.045-1.188 2.464-2.44 2.925z"/><path d="M957.993 962.72c-.625-4.381-1.234-8.832-2.544-13.035-3.843-12.335-10.138-23.094-21.17-30.497-1.42-.953-2.883-1.851-3.381-3.669.513-2.13 2.453-3.145 3.739-4.675 2.007-2.388 2.051-4.929.721-7.61a20.509 20.509 0 00-.993-1.789c-3.079-4.914-6.138-9.841-9.267-14.723-1.651-2.576-4.505-3.501-7.119-2.257-5.235 2.491-10.497 4.941-15.606 7.675-7.267 3.89-13.674 8.995-19.513 14.794-4.449 4.418-7.861 9.423-8.531 15.903-.066.632-.577 1.217-1.22 2.498-1.243 1.116-2.92 2.813-4.787 4.265-5.926 4.608-11.922 9.125-17.893 13.675-3.262 2.487-6.51 4.99-8.778 8.5-1.317 2.038-3.1 3.593-4.98 5.091-2.4 1.913-4.645 4.023-7.058 5.919-3.484 2.738-6.952 5.521-10.621 7.997-6.276 4.235-13.171 7.179-20.551 8.9-3.562.831-6.77-.169-9.558-2.459-1.873-1.537-3.323-3.437-4.204-5.71-1.112-2.87-2.088-5.792-2.168-8.909-.115-4.433-.256-8.869-.232-13.302.046-8.541 1.136-17.012 1.776-25.514.642-8.523 1.978-16.94 2.921-25.414.221-1.985.97-3.91 1.366-5.438.662-.573.891-.851 1.182-1.011 2.693-1.473 5.417-2.888 8.091-4.391 17.085-9.597 32.54-21.191 45.432-36.12 17.513-20.278 31.862-42.594 43.641-66.595 8.272-16.854 15.224-34.292 22.38-51.634 1.817-4.403 3.308-8.966 4.599-13.554 2.957-10.508 5.455-21.134 7.335-31.893.347-1.986.337-4.033.508-6.257-1.755.633-1.385 2.153-2.006 3.097-.747 1.137-1.304 2.398-2.046 3.539-3.92 6.03-6.926 12.529-9.896 19.052-2.968 6.519-5.954 13.032-9.053 19.49-4.427 9.226-8.827 18.471-13.489 27.578-5.442 10.628-11.256 21.048-17.852 31.033-9.041 13.687-18.873 26.755-29.31 39.406-12.924 15.667-27.69 29.199-45.03 39.826-6.689 4.099-13.501 7.998-20.288 11.934-5.333 3.092-11.069 5.218-17.026 6.739-.359.092-.908-.562-1.473-.937.847-.707 1.594-1.393 2.404-1.991.822-.606 1.747-1.075 2.559-1.692 9.308-7.074 17.539-15.177 23.825-25.114.53-.838.785-1.847 1.204-2.76.569-1.241-.203.484-.629-.812-1.728.562-2.636 2.08-3.82 3.277-4.558 4.608-9.007 9.331-13.697 13.8-5.723 5.452-12.138 9.934-19.544 12.71-7.52.822-7.52.822-15.612 4.502-2.363.159-4.752.331-6.353-1.932-.386-1.504.257-2.731.891-3.929 2.544-4.816 5.146-9.601 7.628-14.448.188-.365-.391-1.122-.619-1.708-2.084.717-3.231 2.483-4.428 4.112-2.421 3.299-4.687 6.713-7.081 10.034-1.248 1.731-3.015 2.808-5.121 3.094-3.362.457-6.745.764-9.698 1.089-3.406-1.242-4.719-3.446-4.755-6.456-.021-1.7.055-3.414.249-5.103 1.164-10.133 2.248-20.28 4.579-30.182-1.452-.809-1.942.337-2.279 1.014-4.007 8.054-5.842 16.712-6.739 25.58-.446 4.404-.54 8.843-.789 13.188-1.332 3.383-2.989 6.266-6.888 6.647-3.249-.571-5.894-2.083-8.34-3.996-10.309-8.061-16.91-18.732-20.714-31.011-3.283-10.6-3.687-21.49-.498-32.309.675-2.29 1.257-4.623 2.142-6.832 2.922-7.3 5.173-14.812 7.175-22.398.882-3.344 2.182-6.446 4.082-9.32 1.129-1.707 2.156-3.482 3.308-5.174 6.443-9.464 10.387-19.811 12.09-31.189 1.571-10.499 4.463-20.628 10.726-29.558 2.949-4.204 4.425-9.171 5.604-14.2 1.333-5.69 2.04-11.431 1.839-17.253-.297-8.579 1.037-17.014 2.07-25.474.246-2.013.853-3.999 1.46-5.946.812-2.603 1.672-5.203 2.715-7.719 2.143-5.168 2.739-10.556 2.415-16.057-.3-5.108-.82-10.204-1.238-15.305-.418-5.098-.988-10.19-1.209-15.296-.472-10.925-1.917-21.733-3.449-32.544-2.379-16.787-2.336-34.762-5.964-51.218-.737 6.404 1.685 19.884-1.068 25.508-.969 1.979-2.036 4.491-3.379 6.847-7.119 12.501-15.47 24.134-25.194 34.734-3.683 4.015-7.773 7.657-11.709 11.437-1.005.965-2.234 1.486-3.692 1.214-.97-1.049-1.227-2.363-1.339-3.741-1.16-14.281-2.508-28.55-3.448-42.846-1.031-15.703-3.455-31.182-6.727-46.541-2.359-11.077-6.254-21.596-11.953-31.435-8.607-14.858-21.191-23.715-38.359-25.87-3.02-.379-5.997-1.104-8.723-1.618-2.213.562-4.162 1.173-6.157 1.523-1.327.233-2.724.171-4.081.099-1.421-.076-2.577-.742-3.599-2.469l-1.815-22.86 3.103-5.6c.563-3.458-2.647-4.606-2.595-7.364.648-.535 1.334-1.284 2.175-1.761 2.372-1.347 4.847-2.516 7.207-3.881 2.373-1.372 4.515-3.064 6.25-5.223 1.568-1.953 2.386-4.232 2.049-6.662-.324-2.34-1.207-4.599-1.704-6.923-.124-.576.295-1.268.466-1.907 1.222-1.394 2.987-1.499 4.609-1.957a78.705 78.705 0 0018.765-8.035c7.773-4.602 14.019-10.739 18.94-18.341 4.936-7.626 7.501-16.014 8.752-24.893 2.143-15.205-2.2-28.326-12.792-39.389-5.322-5.558-11.714-9.201-19.229-11.088-6.693-1.681-13.446-2.169-20.295-2.135-2.383.012-4.805.585-7.125-.041.306.82.584 1.658.827 2.516 1.241-.161 2.453-.334 3.646-.244 7.143.538 14.249 1.429 21.152 3.438 14.206 4.134 23.302 13.56 28.073 27.379.443 1.282.801 2.621.975 3.962 2.268 17.531-1.792 33.188-14.004 46.322-7.156 7.697-16.204 12.321-26.045 15.589-3.914 1.3-7.883 2.183-12.396 1.883l-6.721-2.078-6.659 1.87c-3.225.905-10.497-3.862-12.531-1.314-.738.925-.979 2.158-1.649 3.134-1.703 2.481-5.336 2.428-8.307 1.943a82.366 82.366 0 01-22.623-7.161c-6.089-2.951-6.834 1.56-10.39 5.85-9.555 11.527-21.664 18.43-36.563 20.455-6.464.879-12.856.895-19.359.18-10.14-1.115-19.33-4.008-26.34-11.842-6.786 6.315-4.499 3.995-12.66 18.257l-4.321 2.294-2.969 4.699c-19.175 13.745-40.678 17.428-63.864 12.635-5.714-1.181-11.058-3.447-16.046-6.489-6.016-3.669-10.426-8.712-12.896-15.361-.228-.615-.209-1.322-.426-2.824l6.03-4.402c-.275-.434-.452-.851-.542-.833-4.612.928-9.218 1.892-13.803 2.848-2.825-.056-5.424-.919-7.775-2.333-4.686-2.817-7.436-6.947-7.686-12.504-.123-2.716-.022-5.441-.022-7.828l3.423-7.909c-.87-.826-1.459-1.813-2.286-2.089-2.247-.75-4.568-1.524-6.906-1.713-11.242-.91-19.886-6.457-27.116-14.703-8.057-9.189-12.811-20.041-15.928-31.699-3.126-11.691-3.911-23.668-2.054-35.522 3.832-24.461 15.801-44.041 36.957-57.477 3.43-2.179 7.146-4.067 10.963-5.449 17.119-6.203 32.821-3.091 47.257 7.671 3.11 2.319 4.724 5.733 6.934 8.721.151.204 1.062-.155 1.896-.299.053-2.029.036-4.063.169-6.087 1.266-19.31 15.118-27.194 27.883-29.103 5.888-.881 11.564.271 16.623 3.618 1.74 1.152 3.463 2.126 5.639 1.642 1.271-.836 1.422-2.257 1.827-3.529 4.516-14.18 13.217-25.285 25.225-33.829 8.002-5.693 16.604-9.684 25.818-11.818a28.998 28.998 0 01-2.399-4.24c-9.863 2.615-19.209 7.23-27.996 13.975-11.063 8.493-19.325 19.194-23.452 32.759-.194.64-.482 1.309-.911 1.803-.418.481-1.074.755-1.753 1.205-1.361-.884-2.75-1.84-4.189-2.711-2.666-1.613-5.577-2.425-8.666-2.881-17.136-2.532-31.999 9.488-35.71 21.486-.696 2.25-1.655 4.418-2.548 6.768-1.19-.206-2.282-.129-3.071-.582-2.362-1.357-4.551-3.016-6.905-4.388-16-9.322-32.433-9.511-49.003-1.82-10.039 4.66-18.542 11.511-25.643 19.997-13.639 16.299-20.734 35.054-20.891 56.381-.258 35.493 14.993 61.94 43.914 81.095-4.618 8.487-4.676 19.289-.148 27.825 4.527 8.536 13.501 14.547 23.118 15.485-11.968 44.009-15.454 89.479-26.765 133.445-3.919 15.185-6.933 30.575-9.476 46.07-2.267 13.813-3.697 27.712-5.368 41.59-.245 2.029-.282 4.084-.43 6.125-.785 10.886-1.326 21.797-2.415 32.653-2.387 23.773-5.876 47.377-12.088 70.501-.971 3.613-2.093 7.185-3.127 10.781-7.892 27.45-26.503 34.352 1.31 55.91.788.612 1.301 1.511.605 2.982-.795.586-1.849 1.438-2.975 2.182-3.922 2.594-6.031 6.405-7.28 10.784-.769 2.697-.65 5.387.233 8.057.983 2.973 2.553 5.599 4.777 7.779 2.434 2.387 5.083 4.56 7.46 6.999 4.344 4.456 9.453 7.828 14.855 10.787 4.791 2.624 9.749 4.89 14.936 6.662 18.569 6.347 36.983 13.201 56.144 17.606a5.506 5.506 0 013.737-.751c10.655 1.551 21.347 4.24 31.597 7.838 2.548.01 5.112.127 7.634.464 23.366 3.126 46.837 4.044 70.379 3.268 9.886-.326 19.701-1.411 29.413-3.382 2.661-.54 5.388-.786 8.099-1.019.548-.047 1.154.571 1.734.883.29.603.773 1.186.842 1.861 6.64-3.488 13.69-6.199 20.113-10.128 2.862-1.751 5.59-.452 6.97 1.746 5.567-.692 11.138-1.351 16.696-2.11 13.206-1.803 26.075-5.197 38.978-8.41a28.285 28.285 0 0010.125-4.772c2.891-2.155 4.496-5.088 4.705-8.709.182-3.134-.368-6.123-2.102-8.804-1.096-1.693-2.237-3.357-3.221-4.831.34-1.016.368-1.861.803-2.247.999-.886 2.186-1.565 3.317-2.298 1.423-.923 2.915-1.747 4.287-2.74 1.689-1.222 1.973-3.622.983-5.536-1.134-2.196-2.842-3.792-4.791-5.22-1.891-1.386-4.3-2.196-5.266-4.575-.158-.715-.43-1.376-.434-2.04-.092-16.034-.164-32.069-.195-48.103-.001-.633.441-1.268.698-1.958l5.949-5.006c3.16-1.308 6.016-2.434 8.826-3.662 16.524-7.222 29.246-18.791 37.953-34.474 8.148-14.673 14.075-30.314 17.875-46.685 2.318-9.98 3.712-20.126 4.292-30.364.617-10.899 2.049-21.743 2.142-32.677.005-.657.322-1.311.5-1.99.752-1.576 2.075-2.636 3.47-3.628 2.78-1.978 5.554-3.966 8.342-5.934 7.28-5.136 13.959-10.942 19.845-17.648 2.026-2.307 4.17-4.512 6.205-6.812 2.024-2.287 3.978-4.635 5.878-6.858h2.206c.968 1.576.964 3.294.948 4.996-.103 9.896.121 19.812-.436 29.684-.69 12.236-.885 24.582-4.614 36.455-.305.97-.559 1.996-.598 3.005-.341 8.936-2.736 17.516-4.675 26.151-5.534 24.654-12.38 48.929-21.7 72.461-3.266 8.245-6.319 16.573-9.499 24.852-3.668 9.555-7.089 19.186-10.039 28.998-2.571 8.552-3.817 17.312-4.844 26.12-.274 2.349-.172 4.785.086 7.145 1.011 9.233 3.542 18.041 7.554 26.439 4.369 9.147 10.388 16.73 19.3 21.928 3.813 2.224 7.267 5.069 10.849 7.68.524.382.852 1.035 1.262 1.551-.168 1.821-1.295 3.099-2.411 4.392-4.014 4.649-8.113 9.229-12.009 13.977-9.354 11.399-17.331 23.703-23.184 37.257-8.664 20.067-16.672 40.365-19.418 62.298-.248 1.978-.574 4.08-2.656 5.932-5.093 2.008-10.264 1.297-14.873-2.418-2.374-1.913-4.51-4.163-6.531-6.457-2.252-2.556-4.183-5.393-6.384-7.999-1.757-2.08-3.583-4.134-5.601-5.954-4.416-3.986-9.655-4.846-15.295-3.371-1.282.336-2.605.974-3.602 1.831-1.533 1.319-3.115 2.761-4.126 4.476-4.86 8.247-6.674 17.098-4.427 26.541 2.251 9.457 7.919 16.499 15.934 21.737 7.609 4.973 16.094 7.311 25.09 7.94 2.379.166 4.78.064 7.153.283.934.086 1.82.713 2.694 1.08-1.168 6.22-1.168 6.22.464 9.127l18.672 8.171c16.187.419 32.562.029 48.909-.816 5.017-.26 10.076-.662 14.886-2.224.899-.292 1.827-.645 2.449-1.357.995-1.14.912-2.915.248-4.274-1.039-2.125-3.25-3.485-5.544-4.062-2.294-.578-4.697-.479-7.06-.377-12.696.548-24.912 1.729-37.505 3.282-2.705.334-5.436.56-8.159.6-.906.013-1.823-.709-2.633-1.052-.23-1.624.263-2.848 1.013-4.018 2.208-3.447 4.433-6.885 6.584-10.368a29.226 29.226 0 003.765-9.457c.987-4.714.161-8.804-3.595-12.052-1.287-1.114-2.69-2.117-3.256-4.496 0-.427-.087-1.452.022-2.456.147-1.35.346-2.71.693-4.021 7.742-29.198 18.585-57.061 35.44-82.341 2.461-3.69 4.755-7.49 7.181-11.203 4.492-6.874 9.66-13.222 15.191-19.279 1.154-1.264 2.356-2.484 4.747-2.849 1.123.221 2.792.52 4.447.878 14.2 3.072 28.417 3.176 42.667.333 2.333-.465 4.713-.731 7.085-.925.516-.042 1.089.621 1.946 1.151-.072 1.497-.025 3.187-.256 4.837-.802 5.742-1.777 11.46-2.547 17.205-2.192 16.354-1.956 32.68 1.119 48.902.693 3.654 1.753 7.349 3.326 10.704 4.278 9.123 11.576 14.07 21.769 14.408 4.475.148 8.867-.386 13.014-2.21 3.744-1.646 7.619-3.074 11.162-5.082 9.821-5.567 19.157-11.872 27.166-19.913 3.631-3.646 7.547-6.893 11.72-9.879 3.329-2.382 18.47-14 22.69-17.23 3.627.136 7.024.443 10.407.339 3.402-.105 6.79-.622 10.185-.954 1.357-.133 2.716-.255 4.075-.381 3.11-.289 6.113.266 9.093 1.095 2.394.665 4.283 2.057 5.894 3.88 1.852 2.096 2.919 4.564 3.54 7.28.698 3.055.582 6.11.153 9.16-.632 4.495.081 8.859 1.216 13.165 1.165 4.417 3.578 8.089 7.19 10.915 4.397 3.439 9.326 4.156 14.481 2.248 6.377-2.361 11.081-6.729 13.686-13.039 1.975-4.775 3.013-9.835 2.273-15.022zM822.938 861.588c2.481-3.101 4.879-6.309 8.727-7.89.198-.081.549.209.86.34 0 .262.109.608-.016.802-2.2 3.391-5.152 6.026-8.462 8.285-.234.16-.702.252-.907.125-.611-.375-.704-1.036-.202-1.662zM614.962 463.919c-.183-3.048-.543-6.085-.813-9.028 1.546-1.449 2.37-1.596 3.469-.846 4.003 2.731 7.1 6.345 9.965 10.182 4.526 6.06 7.732 12.811 10.411 19.849 3.901 10.249 6.089 20.925 7.837 31.691 2.185 13.458 3.474 27.013 4.474 40.618.875 11.898 1.859 23.782 2.208 35.71.069 2.378.262 4.776-1.005 7.534-4.725 4.727-10.409 8.992-16.755 12.383-1.265.676-2.968-.179-3.081-1.567-.138-1.694-.362-3.397-.308-5.089.221-6.809.471-13.619.827-20.422.518-9.877.679-19.747-.115-29.617-.682-8.489-1.173-16.982-2.945-25.365-1.349-6.385-3.559-12.432-6.046-18.409-1.859-4.47-4.773-8.244-8.184-11.635-2.161-2.15-4.392-4.231-6.59-6.342.081-1.179-.077-2.254.257-3.145 1.198-3.185 2.578-6.3 3.861-9.454 2.228-5.473 2.885-11.197 2.533-17.048zm-3.62 180.54c-.631 5.08-2.435 9.127-7.462 10.565-4.444-1.079-3.122-6.253-6.705-8.05l-1.517 6.469c-1.441 1.325-3.042 3.131-4.958 4.492-3.869 2.749-7.321 6.121-11.823 8.324-.685-.882-1.603-1.565-1.798-2.413-.453-1.98-.747-4.036-.772-6.066-.101-8.188-.093-16.378-.084-24.567.002-1.719.281-3.399 1.989-4.983 4.657-.997 9.694-.83 13.641-.364 3.451 1.184 2.884 4.74 5.684 5.181 0-2.724-.031-5.44.012-8.155.023-1.36.149-2.721.289-4.076.184-1.802 1.803-3.584 3.161-3.453 1.873.181 3.138 1.331 3.783 2.979.488 1.246.797 2.641.813 3.974.022 1.688-.333 3.38-.514 4.956.985 5.574 3.571 10.364 6.261 15.187zm-1.232-21.353c-.725-1.522-1.295-3.145-2.217-4.534-.92-1.387-2.04-2.734-3.342-3.755-2.928-2.296-6.883-1.33-8.8 1.756-1.253 2.016-1.138 4.695-3.706 6.714-4.43.946-9.384.943-13.976-.15-1.581-1.727-1.81-3.421-1.793-5.124.077-8.166.727-68.053.719-89.83-.002-7.135-.723-14.268-1.025-21.406-.13-3.054-.111-6.122.016-9.176.039-.94.659-1.857.971-2.669.823-.27 1.49-.721 2.093-.649 4.619.553 13.477 4.215 16.822 6.824 4.353 3.395 7.885 7.47 10.499 12.351 4.045 7.554 6.957 15.518 8.584 23.922 2.329 12.04 3.945 24.177 4.222 36.451.292 12.928.456 25.859.604 38.789.027 2.357-.298 4.719-.461 7.091-2.616 2.516-5.127 4.659-9.21 3.395zm-6.403-175.573c1.368.437 2.411 1.356 2.952 2.626 3.67 8.619 5.522 17.474 2.97 26.774a206.072 206.072 0 01-3.597 11.655c-.296.872-1.231 1.526-1.801 2.196-4.358-.323-4.334-.375-8.005-3.965.14-.896.119-1.952.48-2.854 1.133-2.829 2.527-5.557 3.609-8.403 2.503-6.579 2.717-13.23.318-19.917-.795-2.216-1.468-4.476-2.32-7.093 2.125-1.926 3.757-1.541 5.394-1.019zm-27.518-1.662c3.72-1.125 7.731-.814 11.273-.366 2.454 1.064 3.62 2.727 4.665 4.48 3.17 5.311 5.141 11.03 5.821 17.781-.772 5.802-1.512 12.18-5.942 18.141l-14.305-2.316c-1.546-.958-2.185-2.145-2.253-3.535-.463-9.471-.89-18.944-1.285-28.419-.084-2.042.027-4.085 2.026-5.766zm5.749 415.651c.077 1.768-.839 3.351-2.126 4.495-1.256 1.118-2.673 2.195-4.21 2.828-2.822 1.163-5.732 2.194-8.696 2.912-7.614 1.846-15.301 3.389-22.91 5.258-3.795.932-7.4.733-10.091-.505-6.672.536-42.651 3.567-54.87 4.622-1.019.088-2.034.287-3.052.298-12.946.132-25.902.77-38.821-.676-1.693-.189-3.392-.443-5.09-.453-11.278-.067-22.423-1.707-33.598-2.892-10.837-1.148-21.703-2.336-32.411-4.304-12.052-2.214-24.075-4.835-35.865-8.153-17.046-4.797-33.92-10.228-50.762-15.713-5.804-1.89-11.319-4.69-16.909-7.204-1.85-.833-3.581-1.983-5.252-3.153-2.537-1.777-4.705-3.956-6.074-6.783-.25-.517-.035-1.26-.035-2.979 2.1.692 3.41 1.04 4.654 1.551 2.52 1.037 5 2.173 7.504 3.249 22.387 9.613 45.759 15.532 69.873 18.728 6.415.85 12.793 1.982 19.191 2.965 2.019.31 4.042.712 6.076.804 12.946.583 25.783 2.257 38.642 3.729 2.028.232 4.08.305 6.123.352 13.289.302 26.577.623 39.867.828 3.752.058 7.463.374 11.199.666 21.099 1.649 42.21 2.034 63.299-.303 2.709-.3 5.418-.662 8.137-.804 10.244-.537 20.339-2.166 30.303-4.46 5.625-1.295 11.07-3.364 16.609-5.044.956-.29 1.974-.497 2.966-.51.623-.007 1.414.254 1.849.681 2.777 2.727 4.309 6.092 4.48 9.97zm1.79-26.946c.664.515.783 1.736 1.23 2.831-2.754 2.643-6.519 4.119-7.824 7.56-.878.545-1.422.968-2.031 1.247-3.085 1.416-6.09 3.11-9.31 4.099-3.234.993-6.683 1.301-10.046 1.856-8.071 1.334-16.099 2.873-24.303 3.389-8.847.557-17.666 1.539-26.491 2.396-15.326 1.487-30.651 1.425-45.978.057-8.152-.727-16.346-1.059-24.398-2.695-3.674-.747-7.342-1.538-11.039-2.153-8.405-1.399-16.854-2.546-25.232-4.092-7.706-1.422-15.37-3.109-22.995-4.921-3.955-.939-8.028-1.82-10.325-4.488-5.306-.794-9.675-1.552-14.072-2.082-7.148-.861-14.073-2.638-20.878-4.897-16.522-5.484-33.483-9.372-50.258-13.934-5.592-1.521-11.185-3.05-16.819-4.405-3.041-.731-5.843-1.881-8.357-3.698a316.49 316.49 0 01-8.992-6.739c-1.109-.864-1.612-2.149-1.665-3.579.458-1.355 1.313-2.342 2.733-2.743.653-.184 1.323-.439 1.986-.44 3.784-.004 7.428-.8 10.974-2.047 2.033.78 3.956 1.458 5.833 2.246a247.223 247.223 0 0043.84 13.82c16.671 3.59 33.448 6.589 50.381 8.677 2.03.25 4.054.56 6.074.884 13.475 2.167 27.058 3.434 40.629 4.781 1.214.12 2.565.525 3.643-.539-.72-1.305-1.978-1.815-3.269-2.275-13.504-4.805-27.198-9.014-41.146-12.288-15.604-3.663-31.114-7.608-46.477-12.219-11.769-3.533-23.303-7.706-34.924-11.646a642.776 642.776 0 01-14.471-5.1c-2.224-.814-4.375-1.829-6.124-2.568-1.316-1.448-1.741-2.736-1.637-4.13.228-3.059.402-6.134.861-9.163 2.3-15.169 4.964-30.289 6.958-45.497 1.908-14.548 4.285-29.008 6.911-43.431a395.055 395.055 0 014.674-22.007c3.37-13.946 5.415-28.112 7.476-42.285 1.426-9.816 3.068-19.604 4.444-29.429.973-6.954-.541-13.397 1.406-20.236 9.256-32.51 14.314-66.449 20.262-99.838 2.207-12.389 3.668-24.912 5.49-37.37.044-.3.374-.559.571-.837.646-.034 1.424-.308 1.909-.045.865.47 1.588 1.229 2.306 1.932 1.217 1.191 2.37 2.448 3.574 3.651 6.297 6.289 13.996 9.531 22.764 10.384 2.371.231 4.765.22 7.139.434.983.089 1.94.476 2.83.707 0 .793.14 1.473-.039 2.054-.194.626-.631 1.204-1.056 1.727-13.332 16.389-22.117 35.072-27.817 55.291-1.385 4.913-2.548 9.891-3.694 14.867-.379 1.645-.443 3.374-.53 5.071-.032.634.28 1.285.56 2.444.876-2.516 1.643-4.603 2.33-6.716 1.582-4.856 3.105-9.732 4.689-14.588 5.105-15.643 12.62-30.137 21.193-44.111 3.212-5.237 6.892-10.15 11.146-14.602 1.165-1.22 2.484-2.293 3.622-3.332 3.535-.849 6.849-1.597 10.135-2.445 6.71-1.732 12.786-4.654 17.72-9.659.478-.485.979-.95 1.495-1.395 3.598-3.113 7.679-4.17 12.011-3.069 1.578 1.109.824 2.505 1.068 3.66 5.247-.854 10.644-.962 15.79-3.004-2.055-1.771-4.424-2.117-6.758-2.537-2.678-.481-5.393-.799-8.028-1.45-.821-.203-1.431-1.257-2.112-1.898 1.332-3.244 4.111-4.762 6.541-6.548 5.546-4.075 10.16-6.145 19.34-9.056 2.153-.082 3.814 1.271 5.659 2.08 12.066 5.294 24.415 5.671 36.982 2.169 6.599-1.839 12.946-4.304 18.68-8.124 3.647-2.429 7.614-4.335 11.74-5.803 9.031-3.211 19.812-4.518 29.325-3.008 3.358.533 6.76 1.406 10.114.847 1.687-.281 3.293-.918 4.851-1.623a54.643 54.643 0 009.893-5.801c1.889-1.393 5.443-5.462 8.03-5.518 1.684-.036 3.388-.234 5.047-.046.933.106 1.807.827 2.68 1.319.285.161.509.454.723.718 4.727 5.848 4.46 9.275-1.07 13.871-4.925 4.092-9.804 6.807-19.849 11.003l-32.534 2.734c1.964.979 3.843.506 5.644.633 1.698.119 18.753.224 25.571.384 2.022.047 4.115-.012 5.923 1.197l.649 1.828c-.985 1.579-2.641 2.171-4.26 2.581-4.289 1.086-8.587 2.217-12.947 2.932-13.496 2.212-27.124 2.781-40.777 2.716-10.23-.049-20.459-.253-30.69-.372-3.751-.044-7.508.076-11.252-.097-3.527-.162-6.69.9-9.739 2.396l-10.006.354c-1.181 1.233-.599 2.057.29 2.485 4.011 1.932 8.236 3.458 12.61 4.077 10.799 1.529 21.454 3.889 32.311 5.12 12.264 1.392 24.47 1.742 36.715.127.669-.088 1.358-.011 2.147-.011 2.342.336 4.352 1.585 6.244 3.085 4.047 3.21 7.288 7.157 10.339 11.277 2.637 3.562 5.181 7.196 7.904 10.692 1.024 1.314 2.422 2.341 3.687 3.456.112.099.6-.042.746-.214.187-.221.368-.659.271-.878-3.751-8.452-8.68-16.174-14.516-23.332-.855-1.049-1.66-2.139-2.47-3.224-.515-.691.035-2.349.901-2.571 3.945-1.011 7.861-2.203 11.862-2.9 3.377-.589 6.631-1.394 9.788-2.707.572-.238 1.327-.034 2.008-.034.374.501 1.007.976 1.094 1.537.258 1.676.388 3.383.417 5.081.099 5.796.193 11.593.183 17.39-.031 21.147.652 42.272 1.623 63.396.453 9.874.36 19.774.441 29.666.053 6.589-2.078 13.227-1.791 19.759.23 5.244 1.682 10.034 1.772 15.399.164 9.776-1.401 20.413.051 30.044 1.493 9.907-.748 18.159-.57 27.776.322 17.056.522 34.114.947 51.167.315 12.615 1.145 25.22 1.33 37.836.424 28.656.597 57.315.855 85.973.021 2.387-.009 4.78-.176 7.159-.068.971-.565 1.912-.77 2.565-1.69 1.933-3.805 2.228-5.746 2.635-13.682 2.867-27.352 5.808-41.097 8.336-7.364 1.354-14.861 2.042-22.318 2.839-9.835 1.051-19.683 1.949-29.578 2.352-4.417.18-8.805 1.021-13.219 1.411-4.06.359-8.139.515-12.715.79 2.052 1.188 3.759.933 5.381.935 11.599.014 23.194-.073 34.766-1.124 5.09-.462 10.22-.64 15.334-.658 15.429-.053 30.588-2.234 45.625-5.482 7.329-1.582 14.65-3.198 21.632-4.724 2.996-.058 4.525 2.134 6.646 3.144 1.83.872 3.62 1.907 5.216 3.141zm.118-117.465c-1.372.857-1.632 3.021-3.651 2.997-.476-.507-1.217-.927-1.307-1.457-.342-2.001-.607-4.034-.661-6.062-.317-12.227-.58-24.455-.826-36.684-.027-1.339.171-2.681.22-3.394.745-1.982 1.906-2.739 3.059-3.424 5.546-3.294 11.065-6.623 14.906-10.393 2.804-1.076 4.419-.321 6.08-.123 4.126.492 7.304-1.193 9.528-4.597 1.689-2.586 2.866-5.402 2.775-8.591-.039-1.352-.198-2.756.732-3.88.4-.483 1.025-.883 1.626-1.072.872-.275 2.182.72 2.243 1.534.051.676.249 1.362.177 2.022-1.174 10.827-3.172 21.487-6.47 31.886-1.962 6.184-4.665 12.026-8.026 17.566-1.232 2.033-2.574 4-3.813 6.029-4.3 7.041-9.528 13.228-16.592 17.643zm32.562 27.561c-6.901 7.257-15.016 12.657-24.523 15.905-1.253.428-3.199-.723-2.99-1.846 1.565-8.415 1.423-16.875.809-25.361-.094-1.305.261-2.642.416-4.042l2.971-1.527c1.047.841 2.253 1.525 3.074 2.525a23.283 23.283 0 014.822 9.993c.703 3.284 1.378 6.574 2.113 10.089.655-.551 1.308-.823 1.377-1.201 1.375-7.584.632-14.865-3.34-21.627-.863-1.469-1.747-2.908-1.632-4.779 1.373-2.267 2.701-4.687 6.091-4.284 2.745 1.605 4.455 4.143 5.963 6.807 1.671 2.952 3.19 5.991 4.78 8.989.728 1.372 1.228 2.893 2.451 3.945-.12 2.387-.689 4.634-2.382 6.414zm33.127-77.973c-2.061 16.276-6.574 31.947-13.152 47.007-2.862 6.552-5.688 13.117-9.726 19.059-1.329 1.956-2.58 4.031-4.798 5.172l-2.802.171c-.238-10.281-1.945-14.628-9.913-25.557-.349-1.456.232-2.664.889-3.866 2.279-4.179 4.612-8.33 6.803-12.555 6.487-12.514 10.161-25.895 12.331-39.767.949-6.065 1.702-12.12 1.748-18.262.011-1.339.308-2.675.433-3.679.446-.574.623-.871.865-1.098.492-.463.963-.99 1.541-1.315 5.606-3.149 11.233-6.262 16.729-9.316.79.579 1.593.862 1.785 1.373.347.919.46 1.978.439 2.974-.279 13.281-1.505 26.504-3.172 39.659zm-.078 364.192c1.832 2.687 2.556 5.631 1.428 8.736-.927 2.551-1.936 5.13-3.33 7.442-3.695 6.13-7.592 12.14-11.481 18.151-.531.821-1.469 1.379-2.434 2.255-4.089-.268-7.673-2.135-11.114-4.316-.486-.308-.645-1.132-1.023-1.842.523-3.105 3.943-4.498 4.778-7.511-.189-.568-.227-1.331-.627-1.708-.441-.416-1.216-.669-1.843-.665-5.109.031-10.229.386-15.325.168-8.697-.372-16.737-3.063-23.993-7.912-7.075-4.727-11.956-11.094-14.079-19.415-1.946-7.623-.717-14.885 2.738-21.829.599-1.203 1.469-2.301 2.351-3.329 3.11-3.622 8.793-4.686 13.076-2.481.906.466 1.851.949 2.59 1.629 1.754 1.61 3.498 3.255 5.056 5.05 1.775 2.044 3.694 4.044 4.407 6.815.255 5.106-4.28 9.219-3.277 14.692 3.377-1.875 3.986-5.732 6.957-8.091.67.029 1.731-.185 2.547.168 1.252.541 2.147 1.631 2.587 2.996.755 2.34.416 4.727.319 7.106-.097 2.37-.503 4.772.583 7.043.351.733.876.971 1.76.655l2.885-10.091c.706-.566.943-.896 1.244-.973 1.375-.351 2.684-.233 3.149.169 2.337 2.024 2.429 4.191 3.279 6.017.711 1.53 1.356 3.098 2.187 4.56.192.338 1.02.314 1.606.47 1.206-3.448-.771-6.76-.191-10.413l1.899-1.727c8.215 4.136 8.215 4.136 16.545 4.501 1.994.684 3.562 1.943 4.746 3.68zm2.23-42.454c-.517 1.965-1.194 3.89-1.849 5.816-2.846 8.362-5.406 16.796-6.608 25.584-.25 1.831-.303 1.84-2.811 3.869-4.511-.977-4.58-.897-7.252-4.786 0-1.295-.254-2.7.041-3.978 2.288-9.92 4.755-19.796 8.055-29.442.572-1.671 1.429-3.064 3.654-3.653l5.599 2.26c1.548 1.639 1.516 3.015 1.171 4.33zm225.378-48.856c-2.635 1.699-5.843 3.585-8.846 5.754-3.025 2.185-5.849 4.648-8.756 6.995-2.9 2.341-5.792 4.69-8.059 6.525-2.879.946-4.006-.185-4.747-1.859-.689-1.557-1.177-3.182-.204-6.193 7.951-6.522 16.075-13.197 24.223-19.844.509-.415 1.181-.649 1.804-.9.304-.122.67-.09 1.023-.129 2.182.62 3.141 2.381 3.922 4.293.658 1.613 1.028 3.236-.36 5.358zm74.859 36.924c-1.881 4.599-5.036 8.003-9.488 10.271-4.618 2.353-9.422 1.665-13.108-2.044-3.241-3.262-5.132-7.206-5.633-11.748-.26-2.361-.253-4.76-.237-7.141.066-10.289.082-10.289-2.37-19.036.126-1.528 1.216-2.36 2.236-3.248 1.28-1.114 2.617-2.177 3.774-3.408.283-.301.029-1.184-.115-1.766-.045-.185-.603-.44-.809-.36-3.154 1.218-6.292 2.485-9.556 3.79-.884-.23-1.915-.369-2.835-.763-2.345-1.003-3.172-2.668-2.528-4.839.575-1.938 1.194-3.864 1.724-5.814.052-.193-.328-.6-.596-.756-.25-.146-.707-.23-.919-.097-.837.524-1.811.998-2.372 1.759-1.605 2.179-3.033 4.489-4.415 6.574-.887.256-1.55.651-2.136.56-.58-.09-1.499-.623-1.549-1.047-.233-1.992-.218-4.013-.297-6.182-.321-.611-.997-.756-1.503.013-1.484 2.251-2.847 4.582-4.338 7.011-6.07 2.724-6.07 2.724-10.391 1.704-1.952-2.123-1.012-5.255-2.468-7.593-1.253-2.014-2.479-4.046-3.61-5.896-.481-3.43.548-6.275 1.993-9.027 1.599-3.046 3.716-5.705 6.126-8.134 4.089-4.121 8.419-7.991 13.314-11.116 5.166-3.298 10.495-6.339 15.773-9.457 1.514-.894 3.15-1.25 5.494-.308 3.615 4.225 6.345 9.731 9.555 14.908.683 1.103.943 2.468 1.269 3.358-.721 2.174-2.082 3.187-3.39 4.291-1.282 1.083-2.531 2.246-3.592 3.541-.7.856-.329 1.927.813 3.452 1.113.585 2.912 1.512 4.696 2.469 5.21 2.796 9.402 6.722 12.714 11.593 6.673 9.815 10.356 20.674 10.938 32.511.201 4.091-.594 8.14-2.164 11.975zm78.16-358.253c-2.331.153-4.707.491-7.069.414-2.362-.077-4.71-.569-7.238-.903-2.704 1.969-5.335 4.135-8.208 5.906-2.864 1.765-5.972 3.135-9.131 4.759-.069 4.01 2.05 7.367 2.263 11.197-.048.548-.04 1.239-.177 1.899-1.228 5.918-5.302 8.476-10.926 8.982-2.354.212-4.743.035-6.429.035-3.386 1.307-4.808 3.778-6.721 5.674-5.407 5.355-11.538 9.481-18.702 12.208-6.305 2.4-12.637 2.563-19.12 1.345-1.335-.251-2.646-.677-3.937-1.114-15.696-5.312-28.566-14.283-37.337-28.655-3.389-5.553-6.189-11.35-8.621-17.387-5.497-13.646-9.198-27.828-12.935-42.003-1.564-5.931-.248-11.601 2.673-16.757 2.175-3.84 5.097-7.236 9.215-9.009 1.612.789 2.117 2.072 2.438 3.349 1.659 6.615 3.279 13.24 4.838 19.88 3.146 13.399 8.229 25.982 15.614 37.62 6.584 10.376 15.425 18.12 26.704 23.059 9.34 4.09 20.121 1.343 26.646-6.855.405-.509.538-1.236.978-2.295-1.279-4.572-1.94-9.614-1.658-14.761.152-2.775.804-5.378 2.066-7.851 1.359-2.663 3.422-4.172 6.483-4.157 1.358.006 2.717.001 4.357.001 1.112-.439 1.684-1.635 2.092-2.964 1.746-5.683 1.741-11.37.486-17.181a202.676 202.676 0 00-6.607-23.628c-1.679-4.841-3.144-9.75-4.012-14.798-.942-5.476-.679-10.872 1.809-16.001.99-2.042 3.648-3.382 5.985-2.988 2.097.354 3.868 1.35 5.435 2.691 4.206 3.599 7.477 7.927 9.815 12.95.718 1.544 1.333 3.14 2.124 4.644.292.555.956.916 1.45 1.364 2.298-.768 3.406-2.525 2.87-4.733-1.222-5.03-1.753-10.086-1.307-15.224.513-5.92 2.386-11.348 6.44-15.827 1.134-1.254 2.432-2.416 3.83-3.361 2.013-1.361 4.237-2.112 6.775-1.538 1.286.29 2.64.285 4.023.419.434-1.201.973-2.124 1.074-3.092.212-2.03.241-4.084.261-6.129.043-4.484.749-8.829 2.626-13.192l4.487-5.343c.266-1.678.548-3.352.794-5.032.509-3.474 2.067-6.477 4.163-9.225 1.912-2.506 4.308-4.363 7.411-5.171 1.317-.343 2.65-.622 4.307-1.006l10.867 2.53c.67-.578 1.647-1.073 2.09-1.866 1.327-2.377 2.451-4.867 3.644-7.319a45.768 45.768 0 016.104-9.426c5.785-6.897 13.208-10.648 22.159-11.273 2.71-.189 5.472-.195 8.168.098 6.042.655 11.111 3.12 14.398 8.535.695 1.146 1.547 2.197 2.08 2.946 1.744.813 3.084.775 4.405.312 3.261-1.142 6.62-1.543 10.062-1.559 12.672-.058 20.744 9.185 22.766 18.402 1.693 7.716.621 14.898-3.245 21.715a21.855 21.855 0 01-5.248 6.228c-2.982 2.423-6.311 4.004-10.23 4.195-2.339.114-4.733-.213-7.123.506-.459 1.036-1.102 1.906-1.214 2.84-.529 4.403-1.111 8.815-1.308 13.239-.471 10.574-1.399 21.105-2.628 31.61-.515 4.402-1.229 8.78-1.849 13.17-2.194 15.53-4.346 31.066-6.609 46.586-.491 3.368-1.239 6.716-2.129 10.003a22.254 22.254 0 01-2.418 5.609c-1.84 3.046-4.534 5.072-8.178 5.547-1.689.22-3.39.405-5.091.482-15.347.696-30.701.729-46.054.282-7.469-.217-8.054-.433-15.816-3.608zm67.108-1.513c2.653-.414 3.957-1.634 4.738-3.107 1.107-2.085 2.059-4.323 2.624-6.608.898-3.632 1.513-7.342 2.089-11.044 1.886-12.121 8.392-57.322 9.67-67.81.453-3.715.52-7.482.633-11.229.029-.963-.44-1.941-.665-2.851-.779 0-1.632-.263-1.978.044-1.777 1.579-3.401 3.328-5.12 4.975-4.967 4.758-10.862 6.862-17.741 6.222-2.741-.255-5.351-.827-7.865-2.03-5.653-2.704-10.472-6.343-13.949-11.643-1.101-1.679-1.804-3.711-4.257-4.87l-10.682-.846-2.646 3.113c-1.663-.131-2.845-1.87-4.734-1.335-1.268.647-1.992 1.847-2.312 3.166-1.289 5.302-2.464 10.628-2.631 16.122-.184 6.083-1.453 12.013-2.657 19.911-.958-10.799-.592-19.654-.062-28.494.182-3.043.908-6.067 1.549-9.065.672-3.143 2.228-5.681 5.421-6.928.604-.236 1.088-.779 1.629-1.182.542-2.546-1.122-3.664-2.992-4.64-10.612-1.175-11.386-1.517-20.099-8.935-.489.889-1.253 1.7-1.375 2.599-.458 3.371-.756 6.767-1.021 10.161-.239 3.056-.27 6.13-.579 9.177-.094.922-.81 1.781-1.192 2.57-.861.125-1.581.435-2.179.278-1.639-.43-3.237-1.027-4.832-1.61-2.968-1.085-5.284-.08-7.31 2.121-1.873 2.034-3.515 4.261-4.304 6.889-1.674 5.573-2.822 11.25-1.712 17.114.121.641.573 1.22.872 1.827 1.983.468 3.833-.08 4.147-1.316.417-1.64.728-3.308 1.081-4.965.503-2.356 1.308-4.583 2.772-6.532 1.295-1.725 3.007-2.751 5.152-2.965 2.083-.207 4.123-.195 5.402 2.038.554 2.562 1.361 5.18.819 7.714-1.033 2.591-2.824 4.121-5.118 5.025-3.178 1.252-6.334 2.516-9.058 4.646-7.392 5.777-13.133 12.88-16.86 21.495-.783 1.811-.879 3.953-1.096 5.963-.174 1.606 1.394 3.355 3.168 3.369 1.65.013 3.305-.448 4.847-.684 5.315-5.209 11.384-9.032 17.341-12.998a7.055 7.055 0 012.789-1.065c.472-.07 1.099.522 1.551.93.137.124.035.731-.152.953-.65.772-1.318 1.556-2.1 2.185-4.778 3.849-9.627 7.61-14.379 11.491-4.146 3.386-6.551 7.767-7.031 13.147-.146 1.635 1.902 3.468 3.358 2.901 1.89-.736 3.848-1.411 5.558-2.467 2.605-1.608 4.995-3.561 7.535-5.28.814-.551 1.785-.984 2.742-1.16.471-.086 1.124.478 1.588.872.168.143.139.702.009.983-1.345 2.905-4.16 4.401-6.344 6.496-3.208 3.077-6.431 6.149-8.666 10.026-1.181 2.048-2.124 4.267-2.898 6.504-.43 1.244-.37 2.682-.392 4.035-.032 1.991 2.264 3.671 4.265 3.372 3.162-.471 5.708-2.166 8.187-3.971 6.896-5.023 13.273-10.663 19.4-16.587.971-.938 1.781-2.061 2.568-3.168 1.766-2.483 1.33-4.75-.238-6.567-1.088-1.26-2.665-2.194-2.335-4.826.782-1.219 1.967-2.876 2.953-4.643 1.632-2.925 1.477-7.236-2.868-9.566-.599-.321-1.347-.422-1.857-.835-.758-.612-1.364-1.412-1.931-2.02.139-.905.167-1.587.353-2.223 2.828-9.66 2.833-9.659.024-18.509 1.247-1.186 2.519-.792 3.626.119 1.362 1.12 2.238 2.689 2.312 4.415.101 2.36.015 4.76-.313 7.097-.28 1.997-1.317 3.888-.769 6.003 5.457 5.769 5.457 5.769 6.999 11.293l-2.774 8.343c.629 2.235 1.456 4.483 1.865 6.805.468 2.658.565 5.381.842 8.271-2.383 5.642-6.323 9.392-12.98 9.39-1.473 1.596-2.866 3.072-4.207 4.593-.186.211-.281.779-.139.952.381.464.863 1.024 1.397 1.146a9.725 9.725 0 003.039.199c5.49-.517 10.822.088 16.218 1.309 8.657 1.959 17.486 2.892 26.387 2.845 5.455-.029 10.91-.154 16.366-.177 3.748-.016 7.497.029 11.243.146.575.018 1.133.572 1.699.88.148.657.298 1.311.572 2.511zm-40.574-152.015c-2.329.955-3.643.869-4.976.443-2.259-.723-4.489-1.608-6.803-2.073-5.227-1.049-9.368.746-12.214 5.295-.718 1.148-1.396 2.358-1.852 3.626-1.368 3.805-.927 7.313 1.802 10.488 1.637 1.905 3.679 3.111 6.034 3.552 2.321.435 4.729.448 7.102.553 1.693.075 3.404-.062 5.252 1.212 3.012 3.935 5.541 9.084 12.192 10.219 1.133-.24 2.82-.477 4.426-.977 1.282-.4 2.526-1.019 3.677-1.721 2.031-1.239 3.954-2.654 5.977-3.907.539-.334 1.269-.412 1.925-.476.239-.023.745.35.735.518-.037.621-.041 1.418-.413 1.815-2.538 2.704-5.167 5.323-7.854 8.059.131 1.005.055 2.063.42 2.938 1.37 3.28 3.853 5.495 7.005 7.091 3.784 1.917 7.818 2.194 11.932 2.113 9.621-.19 16.89-4.52 22.015-12.573 2.012-3.162 3.841-6.419 5.065-9.99.431-1.256 1.032-2.454 1.612-3.812 1.215.184 2.182.252 3.104.49.983.253 1.901.764 2.887.994 6.246 1.463 11.394-.395 15.514-5.249 2.706-3.188 4.232-6.931 5.223-10.949 1.852-7.508-.034-14.139-4.697-20.092-2.603-3.323-6.079-5.407-10.109-6.563-3.347-.96-6.745-.897-10.1-.12-3.306.765-6.569 1.717-9.908 2.602-.894-.599-1.984-.975-2.487-1.738-1.116-1.695-1.87-3.623-2.898-5.382-1.051-1.798-2.573-3.208-4.473-4.048-1.855-.82-3.766-1.758-5.737-2.029-10.771-1.477-20.257 1.086-27.768 9.382-3.228 3.566-5.711 7.602-7.692 11.972-1.255 2.773-2.586 5.511-3.918 8.337zm-59.831 131.649c-.681-2.038-2.506-2.521-3.69-3.679-1.829-1.788-2.599-3.981-2.232-6.495.295-2.019.826-4.005 1.103-6.026.083-.606-.336-1.281-.525-1.925l-5.594-4.478c-.249-1.79-.698-3.458-.664-5.116.064-3.103 1.105-5.978 2.397-8.808 1.26-2.759 3.486-5.091 3.856-8.741-.713-1.865-1.47-4.119-2.423-6.287-2.367-5.386-5.855-9.978-10.225-13.897-1.296-1.162-2.771-1.967-4.661-1.619-1.576.885-2.259 2.437-2.638 4.118-.607 2.696-.63 5.453-.017 8.125a186.15 186.15 0 003.124 11.85c1.763 5.875 3.73 11.688 5.538 17.549 3.586 11.623 4.179 23.492 2.063 35.393-.921 5.182-1.158 10.096.517 15.103.283.846-.11 1.918-.184 2.805l-2.053.575c-1.597-.892-2.575-2.277-2.832-4.035-.393-2.69-.6-5.407-.917-8.109-.346-2.946-1.705-5.13-4.634-6.035-1.491-.01-2.771.451-3.494 1.727-.662 1.168-1.37 2.421-1.583 3.715-1.369 8.323.319 16.273 3.316 23.999 1.257 3.239 3.352 5.985 6.179 7.997 4.731 3.366 9.919 4.339 15.487 2.285 3.001-1.107 4.767-4.077 4.448-7.271-.241-2.412-.979-4.641-2.138-6.773-.798-1.468-2.075-2.786-1.956-4.609.04-.611.334-1.507.783-1.733 1.496-.753 3.068-1.508 4.696-1.817 4.484-.851 8.336-2.943 11.881-5.667.71-.545 1.062-1.556 1.598-2.381-.785-.353-1.449-.942-1.955-.828-1.974.447-3.874 1.221-5.847 1.678-2.706.626-5.454.782-7.842-.989-2.05-1.52-2.797-3.78-3.05-6.21.178-4.92 2.667-9.124 4.168-13.391zm-171.22 475.502c-.903-1.283-.075-2.204 1.057-3.083 1.158-.899 2.841-1.44 4.754-1.68 8.755-1.099 17.604-1.923 26.73-1.818 6.697.077 13.396.199 20.09.236 5.903.033 11.799-.13 17.7-.019 10.634.199 21.274.457 31.902.865 3.497.135 7.037.681 10.413 1.297 1.773.323 3.341 1.139 4.81 1.849 1.953.943 1.288 2.472-1.083 3.129-3.873 1.073-8.132 1.499-12.404 1.656-8.609.318-17.187.804-25.881.737-11.81-.09-23.606.146-35.416.007-9.446-.111-18.904-.569-28.357-.878-3.964-.13-7.864-.519-11.614-1.296-1.053-.218-1.931-.709-2.701-1.002zm-20.942-640.727c-.618.443-1.127 1.103-1.697 1.161-1.676.17-3.382.195-5.067.11-6.2-.311-12.183.558-17.92 3.002-1.235.526-2.537.897-3.882 1.365-.94-.518-1.958-.833-2.605-1.504-.676-.701-1.137-1.7-1.448-2.648-4.033-12.277-4.569-24.633-.529-37.012.73-2.238 1.766-4.428 2.984-6.446 3.755-6.22 10.474-6.156 14.936-2.754 1.864 1.421 3.503 3.197 5.01 5.006 1.07 1.284 1.903 2.826 2.576 4.369 4.514 10.342 7.423 21.095 7.973 32.413.049.994-.218 2.003-.331 2.938zm-3.937-5.608c-.458-5.583-1.592-11.223-3.319-16.7-1.219-3.863-2.824-7.637-4.609-11.277-1.025-2.09-2.646-3.931-4.209-5.699-.867-.981-2.114-1.674-3.284-2.327-2.063-1.15-4.896-.579-6.468 1.312-1.073 1.291-2.088 2.68-1.701 4.684 1.037 2.428 4.465 3.056 5.023 6.029.061.327.008.675.008 1.159-.38 2.185-2.722 3.808-2.366 6.419.443.453.823 1.033 1.358 1.337.57.323 1.328.302 1.931.586.587.276 1.082.746 1.837 1.29.334 1.082.858 2.347 1.101 3.664.431 2.334.623 4.712 1.046 7.048.307 1.693.942 3.263 3.528 4.17 2.573-.326 5.953.884 9.172-.787.289-.15.493-.462.952-.908z"/><path d="M736.929 436.653c.989 3.005 3.167 3.609 2.862 5.628-1.151.934-2.552.847-3.891.874-3.399.07-6.801.102-10.201.076-4.894-.038-9.439.951-13.364 4.097-.765.613-1.754.945-2.849 1.516-.737-.634-1.76-1.112-2.128-1.897-2.188-4.666-3.005-9.745-3.802-14.759-.962-6.053-.96-12.192-.413-18.317.277-3.105 1.208-5.986 2.697-8.7 1.545-2.816 3.937-4.63 6.916-5.715a9.608 9.608 0 016.013-.215c3.005.851 5.576 2.448 7.751 4.705 4.625 4.798 7.459 10.522 8.62 17.038.949 5.345 2.215 10.668 1.789 15.669zm-14.157-.103c2.046 2.213 3.782 2.222 5.463 2.205 2.168-.022 4.012-.687 4.797-3.843-.8-4.984-1.139-10.73-2.932-16.278-1.383-4.279-3.365-8.163-6.539-11.339-1.174-1.175-2.603-2.24-4.115-2.901-2.237-.978-4.694-1.104-6.818.366-1.983 1.373-3.686 3.055-2.792 6.273 3.263 2.237 7.729 3.96 7.879 9.437-.843 2.753-4.85 3.764-4.578 7.648.766.282 1.639.861 2.514.865 1.325.005 2.648-.424 3.981-.588.23-.028.508.344 1.038.731l2.102 7.424zm109.82 232.089c-1.202 1.342-1.373 1.7-1.646 1.813-6.692 2.776-13.633 4.305-20.911 4.094-3.091-.09-6.107-.553-8.996-1.729a143.315 143.315 0 00-5.735-2.19c-2.322-.831-4.68-.881-7.024-.077-2.579.884-5.14 1.822-7.72 2.702-3.418 1.167-6.746.71-9.957-.742-1.547-.7-3.032-1.549-4.503-2.403-1.769-1.027-3.448-2.215-5.247-3.183-2.521-1.356-5.245-1.547-7.942-.674-2.265.733-4.429 1.775-6.671 2.585-1.594.575-3.216 1.166-4.877 1.443-3.273.545-6.105-.456-8.145-3.14-1.837-2.417-3.445-4.989-4.41-7.844.789-1.091 1.78-1.093 2.748-.598 1.919.98 2.726 2.977 3.982 4.563 1.074 1.355 2.294 2.513 4.76 2.982.689-.183 2.025-.418 3.269-.894 2.866-1.095 5.688-2.305 8.526-3.472 3.368-1.385 6.704-1.199 9.892.451a108.364 108.364 0 017.979 4.571c3.752 2.368 7.761 2.807 11.767 1.239 10.601-4.151 9.914-3.874 20.43.227 5.166 2.015 10.552 2.607 16.09 1.469 4.325-.889 8.712-1.274 14.341-1.193zm-13.961-42.911c-2.409 1.456-5.315 3.222-8.231 4.971-4.979 2.986-10.266 3.451-15.756 1.78-2.279-.694-4.487-1.619-6.749-2.376-2.577-.863-5.178-1.656-7.019-2.241-3.293-.134-5.481.878-7.625 1.902-2.15 1.027-4.23 2.211-6.299 3.397-5.772 3.309-11.631 3.43-17.632.656a119.067 119.067 0 00-6.59-2.789c-1.57-.615-3.197-1.085-4.727-1.596-2.147.575-4.082 1.17-6.058 1.556-.396.077-1.009-.588-1.396-1.023-.145-.164-.039-.72.135-.972 1.443-2.095 3.528-3.114 5.994-3.461 2.769-.39 5.446.034 8.028 1.015 1.91.726 3.744 1.656 5.658 2.371 2.534.947 5.113 1.773 7.688 2.656 2.105-.671 4.085-1.17 5.957-1.936a42.173 42.173 0 005.478-2.751c6.005-3.556 12.152-4.121 18.572-1.203a36.596 36.596 0 004.786 1.785c2.605.768 5.251 1.396 7.189 1.903 3.563-.073 6.06-1.145 8.438-2.515 2.067-1.191 4.065-2.501 6.103-3.741 3.063-1.864 6.418-2.39 9.85-1.618 5.935 1.335 11.821 2.888 17.389 4.266.712.964.482 1.428-.446 1.678-4.791 1.292-9.486.428-14.133-.756-2.301-.585-4.499-1.631-8.604-.958zm-2.974 105.061c-.817.392-1.353.844-1.921.887-2.378.179-4.775.421-7.148.299-5.857-.301-11.568.458-17.214 1.926-.99.258-2.006.43-2.98.737-6.409 2.019-12.1.443-17.351-3.406-1.65-1.21-3.304-2.415-4.96-3.616-2.981-2.161-6.288-2.519-9.749-1.603-2.966.785-5.878 1.773-8.84 2.573-1.637.442-3.316.804-4.999.99-3.957.436-7.428-.789-10.3-3.523-1.478-1.407-2.768-3.01-4.188-4.482-.934-.969-1.947-1.861-2.242-2.14-2.529-1.451-4.159-.115-5.808-.345-1.298-.713-.868-1.76-.219-2.428 3.148-3.244 6.773-3.402 9.847-.43 1.958 1.893 3.734 3.974 5.662 5.9 1.782 1.781 4.033 2.633 6.514 2.392 2.36-.23 4.739-.611 7.019-1.248 3.944-1.102 7.882-2.162 11.456-2.656 3.642.343 6.472 1.451 9.019 3.27 1.665 1.189 3.31 2.41 4.925 3.666 3.438 2.673 7.346 3.522 11.575 2.915 2.356-.338 4.689-.864 7.014-1.391 7.454-1.688 14.905-1.353 22.336.065.875.167 1.619 1.025 2.552 1.648zM151.926 366.071c-2.138-2.074-4.139-3.891-5.999-5.842-5.083-5.33-5.328-11.634-2.675-17.938 3.457-8.215 10.32-12.455 18.928-13.398 6.19-.678 11.122 2.252 14.631 7.399.562.824 1.048 1.775 1.28 2.738 1.87 7.741.784 14.791-5.09 20.628-5.631 5.596-12.179 8.393-21.075 6.413zm3.888-2.819c3.465.364 6.68-.606 9.643-2.466 2.928-1.838 5.351-4.222 7.206-7.148 1.696-2.677 2.355-5.613 2.177-8.783-.392-6.945-6.46-11.979-13.342-10.773-5.641.989-10.16 3.896-13.085 8.923-3.069 5.274-2.73 10.413.992 15.273 1.675 2.19 3.579 4.122 6.409 4.974zm552.594 408.567c1.81-.555 2.816-.167 3.314.73 1.307 2.357 2.385 4.84 3.658 7.217.637 1.19 1.507 2.253 2.961 2.735 2.744.256 5.172-1.088 7.678-1.99 4.434-1.595 8.618-1.289 12.675 1.1 2.041 1.202 4.064 2.449 6.184 3.495 4.717 2.329 6.325 2.411 12.715 1.05.883.332.984.857.259 1.526-3.575 3.3-7.767 3.892-12.264 2.548-1.93-.577-3.773-1.489-5.591-2.379-1.516-.742-2.912-1.723-4.407-2.512-2.189-1.155-4.527-1.397-6.896-.701-1.942.571-3.82 1.358-5.762 1.93-1.29.38-2.632.621-3.967.798-2.686.356-5.502-1.128-6.79-3.521-1.933-3.592-3.261-7.384-3.767-12.026zM602.157 186.318c1.165.447 2.839.874 4.295 1.69 3.532 1.98 5.617 5.116 5.266 9.166-.409 4.731-2.905 8.365-7.576 9.899-1.877.616-4.016.713-6.015.618-3.802-.18-6.251-2.258-7.025-5.078-.473-2.714.356-4.233.991-5.797.763-1.88 1.42-3.815 2.333-5.62 1.482-2.927 3.897-4.622 7.731-4.878zm-.581 5.202c-4.138.476-5.714 3.454-7.016 6.694-.909 2.26.754 4.973 3.231 5.293 2.919.377 5.344-.62 7.308-2.762 2.246-2.449 1.913-5.89-.856-8.001-.781-.596-1.822-.849-2.667-1.224zm42.764-18.609c.241-2.415.143-4.148.629-5.698.814-2.593 2.311-4.871 4.111-6.945 2.516-2.897 5.679-3.562 9.204-2.618 3.201.857 5.203 3.071 5.965 6.287 1.439 6.073-.746 10.812-6.082 13.594-3.368 1.756-6.528 1.479-9.495-.803-1.334-1.027-2.537-2.225-4.332-3.817zm11.043-10.757c-3.516.458-5.468 2.693-7.138 5.273-1.29 1.993-.467 4.868 1.666 6.006 2.261 1.207 4.542 1.157 6.642-.22 2.367-1.552 3.805-3.747 3.44-6.728-.167-1.366-.886-2.561-2.04-3.305-.813-.523-1.823-.74-2.57-1.026zm374.503 274.247c-3.322-3.57-3.972-7.532-3.66-11.722.245-3.29 2.994-6.617 6.189-7.427 4.645-1.178 8.818-.301 12.042 3.483 5.2 6.102 1.634 16.305-6.215 17.702-1.292.23-2.744.094-4.019-.253-1.617-.439-3.127-1.269-4.337-1.783zm-.021-7.309c.243 1.221.365 2.23.652 3.191.414 1.384 1.412 2.302 2.76 2.748 3.78 1.252 7.734-.494 9.306-4.059 1.571-3.562-.049-7.545-3.782-9.305-3.155-1.486-7.214.278-8.208 3.646-.38 1.284-.516 2.64-.728 3.779zm-329.248-40.125c-1.888.195-2.85-.142-3.198-1.175-.315-.935-.537-2.023-.38-2.973.962-5.814 4.241-9.826 9.753-11.937 1.965-.752 3.969-.645 5.938.126a14.658 14.658 0 015.049 3.314c1.939 1.93 2.605 2.994 4.019 6.559-.628.161-1.404.637-1.861.425-2.132-.99-4.172-2.178-6.253-3.28-4.195-2.222-7.827-1.17-10.277 3.102-1.001 1.745-1.749 3.636-2.79 5.839zm84.807-18.818c-2.554-1.581-4.802-3.111-7.176-4.41-3.731-2.041-8.396-.996-11.004 2.466-1.424 1.891-2.551 4.005-3.953 5.914-.246.335-1.196.153-1.83.21-1.259-1.412-1.413-3.111-.919-4.789 1.686-5.735 5.443-9.374 11.372-10.453 4.284-.78 8.157.266 11.207 3.517 1.156 1.232 2.177 2.623 3.069 4.06.511.823.732 1.886-.766 3.485zm-576.671-18.617l-1.976-1.939c-.884-4.033.847-6.884 3.55-9.151 2.547-2.137 5.607-2.211 8.633-1.079 3.091 1.156 5.052 3.365 5.39 6.74.493 4.922-2.598 9.409-7.485 10.623-1.225.304-2.704.064-3.949-.313-1.763-.533-2.48-2.162-3.038-3.798l4.438.853c2.611-.849 4.08-2.163 4.993-4.12.699-1.497.327-3.385-.957-4.657-1.273-1.262-3.349-1.85-4.645-1.192-3.269 1.661-5.497 4.003-4.954 8.033zm578.689-144.166l-1.976-1.939c-.884-4.033.847-6.884 3.55-9.151 2.547-2.137 5.607-2.211 8.633-1.079 3.091 1.156 5.052 3.365 5.39 6.74.493 4.922-2.599 9.409-7.485 10.623-1.225.304-2.704.064-3.949-.313-1.763-.533-2.48-2.162-3.038-3.798l4.438.853c2.611-.849 4.08-2.163 4.993-4.12.699-1.497.327-3.385-.957-4.657-1.273-1.262-3.349-1.85-4.645-1.192-3.269 1.66-5.497 4.002-4.954 8.033zm214.498 250.336c-1.909-2.175-2.545-4.649-1.877-7.489.656-2.786 2.795-4.652 5.666-4.886 3.607-.293 6.597.831 8.881 3.704 2.313 2.909 1.937 7.463-.74 10.096-2.831 2.784-7.757 3.073-10.023.58-.677-.744-1.385-1.46-2.078-2.189 2 .176 4.004.525 5.999.478 1.766-.042 3.116-1.076 3.883-2.75.639-1.395.069-3.114-1.479-4.391-1.379-1.137-2.896-1.635-4.725-.988-2.863 1.797-3.396 4.72-3.507 7.835zM621.358 244.083c-1.815-.67-2.82-.903-3.687-1.385-5.009-2.783-4.626-6.033-1.771-9.955a7.35 7.35 0 012.245-1.996c1.153-.656 2.452-1.055 3.895-1.649 1.505.602 3.167 1.017 4.561 1.871 3.596 2.203 3.85 7.889.406 10.373-1.59 1.148-3.57 1.757-5.649 2.741zm-3.802-6.724c.284 1.451 1.188 2.372 2.596 2.466 1.327.089 2.579-.487 3.445-1.521.358-.427.502-1.163.48-1.749-.039-1.045-.908-1.812-1.874-1.938-2.279-.297-3.65.909-4.647 2.742zm-422.747 61.6c-.51 4.015-1.744 7.845-3.793 11.384-.47.812-1.265 1.454-2.49 1.116-2.32-4.059-2.24-8.265-.455-12.537.535-1.281 1.41-2.283 2.67-2.905 1.296-.639 3.033-.269 3.475.996.217.623.387 1.264.593 1.946zm804.776 107.742c.362-.944.618-1.952 1.126-2.81.311-.525.952-.998 1.543-1.189 3.002-.968 6.488.629 7.574 3.38 1.312 3.322-.462 7.135-3.807 8.182-2.037.637-3.989.494-5.834-.64-2.275-2.276-2.451-4.675-.417-7.202 1.048 1.217 1.453 2.975 3.081 3.693 2.009-.7 2.633-1.318 2.36-2.322-.441-1.626-1.995-2.436-3.848-1.925-.623.173-1.187.55-1.778.833zM201.631 295.742c1.381-.327 2.648.015 3.849.658 3.34 1.789 5.823 4.441 7.556 7.772.218.419-.127 1.192-.346 1.747-.09.228-.528.414-.826.444-.656.066-1.36.163-1.979-.001-4.073-1.077-7.197-3.439-9.168-7.183-.694-1.32-.318-2.545.914-3.437zm395.468-156.533c.243 1.068.976-.283.44.625-1.784 3.02-4.516 5.055-7.254 7.077-.632.467-1.499.616-2.212.133-.656-.444-1.064-1.124-.921-1.986.042-.253.165-.492.349-1.016 2.813-2.029 6.093-3.636 9.598-4.833zM205.517 291.86c.119-1.461.934-2.493 2.081-3.276 2.584-1.765 5.567-2.392 8.589-2.797.387-.052.943.679 1.301 1.14.145.186.085.702-.077.93-2.027 2.851-4.839 4.667-7.998 6.043-1.347.586-2.569.008-3.896-2.04zm454.949-3.596c-.684 1.396-1.968 1.951-3.333 2.037-2.82.178-5.329-.766-7.526-2.555-.798-.65-1.372-2.267-.851-2.69.5-.405 1.047-.872 1.645-1.017 2.017-.489 4.085-.495 6.061.137 2.006.643 3.724 1.709 4.004 4.088zm8.327-5.905c.774-.928 1.452-2.223 2.521-2.92 1.969-1.286 4.152-2.252 6.279-3.284.712-.345 1.389-.044 1.758.665.136.263.176.686.062.951-1.234 2.896-3.344 5.035-5.88 6.835-1.682 1.195-3.333.58-4.74-2.247zm-484.633 9.257c-.011.258.083.607-.05.76-2.464 2.837-5.612 4.715-9.024 6.134-.855.355-1.967.284-2.919.137-.533-.082-1.252-.647-1.389-1.135-.145-.516.108-1.45.52-1.768 3.524-2.709 7.485-4.372 11.979-4.561.288-.012.589.282.883.433zm14.862-7.7c-2.754-5.564-2.754-5.564-.367-15.445.462.312 1.102.511 1.316.928 1.272 2.484 1.378 5.181 1.218 7.9-.121 2.045-.712 3.947-2.167 6.617zm-6.461 1.154c-1.35.206.449.999-.824.534-3.9-1.425-6.826-4.008-9.188-7.336-.602-.849-.56-2.47.174-2.643.588-.139 1.335-.272 1.829-.033 3.413 1.65 5.92 4.263 7.613 7.638.273.542.271 1.223.396 1.84zm712.109 9.559c-.8 6.297-2.735 12.302-5.948 17.851-.737 1.273-1.984 2.28-3.904 1.751-3.638-6.364-3.513-12.96-.713-19.66.839-2.008 2.21-3.58 4.187-4.555 2.032-1.002 4.756-.421 5.449 1.562.34.978.606 1.983.929 3.051zm10.698-5.044c2.166-.513 4.152.023 6.036 1.032 5.237 2.805 9.132 6.965 11.849 12.187.342.657-.199 1.869-.542 2.74-.141.357-.829.649-1.296.696-1.028.104-2.133.255-3.104-.002-6.387-1.689-11.286-5.392-14.376-11.264-1.089-2.07-.499-3.99 1.433-5.389zm6.093-6.088c.186-2.291 1.464-3.908 3.263-5.137 4.052-2.767 8.73-3.752 13.468-4.385.606-.081 1.478 1.065 2.04 1.787.227.292.133 1.102-.121 1.458-3.179 4.471-7.587 7.318-12.542 9.476-2.111.92-4.028.014-6.108-3.199zm-33.489-.381c-.018.404.13.952-.078 1.192-3.864 4.449-8.8 7.393-14.151 9.618-1.34.557-3.084.446-4.577.215-.835-.129-1.963-1.015-2.178-1.78-.227-.809.169-2.274.816-2.772 5.525-4.248 11.737-6.856 18.784-7.153.451-.018.922.442 1.384.68zm23.305-12.075c-4.319-8.724-4.319-8.724-.576-24.22.725.49 1.728.801 2.063 1.455 1.994 3.894 2.161 8.125 1.91 12.387-.189 3.209-1.116 6.191-3.397 10.378zm-10.133 1.809c-2.118.323.703 1.566-1.293.837-6.115-2.234-10.703-6.285-14.408-11.503-.944-1.331-.878-3.873.273-4.145.922-.218 2.093-.427 2.869-.052 5.352 2.588 9.282 6.685 11.938 11.976.429.852.427 1.92.621 2.887zM674.7 295.105l-1.909-2.365c.136-1.234.691-2.067 1.707-2.297 2.61-.591 5.22-.682 7.771.403.848.361 1.696 1.597 1.311 2.287-.304.546-.757 1.076-1.273 1.417-.529.35-1.212.631-1.834.646-1.955.045-3.912-.051-5.773-.091zm-63.735-148.41c.887 1.861 1.524 3.809 1.606 5.852-.422.921-1.179 1.135-1.845.636-1.928-1.444-3.256-3.342-3.575-5.786-.057-.439.269-.968.518-1.397.366-.63 1.155-.742 2.062-.27.448.233.812.628 1.234.965zm171.763 112.204c2.161-.948 2.98-1.565 3.847-1.641 3.139-.276 5.82.92 8.039 3.082.322.314.172 1.114.247 1.747-2.588 1.125-5.197.736-7.696-.168-1.18-.426-2.151-1.428-4.437-3.02zM601.084 148.803c.226.173.552.306.553.442.031 3.052-1.362 5.506-3.388 7.635-.238.25-.946.122-1.416.047-.191-.03-.464-.381-.471-.594-.026-.763-.205-1.667.126-2.271 1.136-2.077 2.488-4.026 4.596-5.259zm208.17 121.344c.641.134 1.403.093 1.904.434 2.446 1.662 3.333 4.117 3.049 6.965-.04.402-1.118 1.126-1.475 1.002-3.041-1.049-5.116-3.007-5.369-6.433-.068-.935.891-1.94 1.891-1.968zM618.565 140.462c-.037.457.098 1.057-.137 1.303-1.299 1.358-2.899 2.225-4.808 2.332-.824.046-1.468-.42-1.962-1.089-.644-.871-.242-2.365.709-2.551 2.054-.402 4.109-.833 6.198.005zm199.616 110.293c-1.366 2.796-3.549 4.825-6.253 6.354-.757.428-1.977.184-2.749-.601-.701-.713-.769-2.152-.239-2.725 2.175-2.351 5.184-3.051 8.016-4.097.24-.089.658.074.885.255.188.151.219.501.34.814zM597.264 130.267c.479.191 1.052.275 1.422.594 1.814 1.566 3.201 3.447 3.878 5.782.059.202-.007.522-.142.675-.129.147-.492.272-.636.194-2.363-1.282-4.045-3.247-5.323-5.559-.188-.341.036-.949.17-1.404.042-.143.411-.19.631-.282zm65.913 152.309c-1.382-.296-2.095-.255-2.548-.578-1.946-1.388-2.958-3.465-3.673-5.655-.157-.481.219-1.266.57-1.753.503-.698 2.136-.647 2.627-.086 1.789 2.047 2.415 4.547 3.024 8.072zM799.94 250.76c-3.112-1.649-4.91-4.268-5.769-7.488-.095-.357.582-.987 1.004-1.381.17-.159.732-.155.918.005.735.631 1.561 1.253 2.042 2.063 1.17 1.973 1.731 4.19 1.805 6.801zm1.734 20.719c-.321 2.652-1.062 5.165-3.134 7.029-.332.299-1.162.138-1.734.034-.238-.043-.546-.477-.578-.76-.308-2.796.761-5.152 2.563-7.177.356-.4 1.236-.63 1.759-.494.452.118.74.867 1.124 1.368zM608.016 131.04c-2.15-1.248-2.791-2.98-3.456-4.653-.143-.359.096-1.076.405-1.345.275-.24.891-.088 1.383-.111 1.384 1.602 2.397 3.328 1.668 6.109zm59.76 175.737c-2.699-3.369-3.617-5.803-3.248-8.592.074-.559.576-1.13 1.018-1.552.546-.521 1.875.556 2.038 1.616.051.33.181.656.184.985.017 1.983.008 3.967.008 7.543zM50.587 483.428c1.667 4.444 2.163 9.058 1.97 13.766-.012.3-.304.588-.466.881-2.26-4.701-2.565-9.604-1.504-14.647zm63.244 102.342c-.343.482-.583 1.098-1.033 1.41-5.616 3.898-11.961 4.679-18.569 4.202-4.122-.298-8.047-1.45-11.882-2.931-3.83-1.479-7.409-3.376-10.362-6.252.071-.798.566-1.088 1.421-.751 3.799 1.495 7.529 3.186 11.386 4.508 8.298 2.845 16.664 3.294 25.059.229 1.227-.448 2.548-1.045 3.98-.415zm-48.808-72.668c.396.175.901.244.964.449.875 2.826 6.085 32.531 6.851 38.76-.409.42-.956.331-1.379-.415-.496-.873-1.006-1.798-1.212-2.764-2.328-10.907-4.359-21.866-5.394-32.984-.093-.99.105-2.006.17-3.046zm10.817 52.433c1.781.181 2.897 1.371 3.862 2.64.574.755.632 1.734.046 2.645-.454.706-1.779.3-2.339-.752a31.872 31.872 0 01-.863-1.737 5.06 5.06 0 01-.303-.928c-.145-.605-.264-1.217-.403-1.868zm225.687-276.027c.14 6.552-1.693 11.12-5.905 14.597-2.495 2.06-5.378 2.764-8.57 2.112-3.104-.634-5.578-3.217-5.848-6.233-.12-1.342-.256-2.736-.036-4.047.903-5.384 2.596-10.511 5.445-15.207a8.638 8.638 0 011.255-1.596c2.383-2.398 6.18-2.998 9.197-.455 2.126 1.792 3.43 4.204 3.978 6.934.331 1.653.42 3.356.484 3.895zm-9.028-7.41c-.73.35-1.824.552-2.407 1.208-3.227 3.631-4.571 8.122-5.436 12.78-.118.638.036 1.336.115 2 .392 3.297 4.216 4.903 6.879 2.896 4.487-3.382 6.026-7.91 5.007-13.324-.308-1.635-.933-3.25-2.227-4.426-.48-.437-1.136-.679-1.931-1.134zm29.611 37.177c.106 8.014-3.041 13.64-9.131 17.644-5.65 3.715-10.842-.774-11.126-5.467-.081-1.334-.224-2.784.186-4.005 1.39-4.138 2.848-8.272 4.627-12.253.794-1.778 2.288-3.31 3.689-4.733 1.983-2.016 4.969-1.972 7.406-.243 2.021 1.434 3.331 3.324 3.866 5.714.293 1.307.388 2.659.483 3.343zM305.5 329.81c.015 1.444.574 2.606 1.811 3.359.894.544 2.893.238 3.791-.483 4.248-3.412 6.127-7.865 5.715-13.259-.074-.966-.536-1.918-.906-2.842-.62-1.548-3.074-2.13-4.226-1.059-4.156 3.861-6.243 8.611-6.185 14.284zm17.839-61.617l-2.436-2.272c.717-.819 1.228-1.778 2.026-2.251 4.53-2.687 9.094-2.059 13.51.289 1.501.798 2.588 2.225 3.051 3.906 1.271 4.616.298 8.702-3.217 12.042-2.366 2.248-6.879 2.347-9.364.266-1.33-1.113-2.332-2.516-2.612-4.221-.436-2.649-.668-5.331-.958-7.759zm7.539 8.878c1.916-.154 2.983-1.341 3.53-2.984.648-1.946.658-3.915-.632-5.649-.369-.497-.97-.87-1.535-1.163-1.456-.757-3.652.088-4.136 1.517-.656 1.937-.755 3.864-.028 5.812.504 1.352 1.495 2.105 2.801 2.467zm208.103 469.426c.803-.576 1.823-.996 2.371-1.757 2.19-3.039 4.202-6.206 6.351-9.275.555-.793 1.373-1.402 2.093-2.119.267.412.666.776.596.955-4.018 10.202-9.566 19.56-16.058 28.347-4.289 5.805-9.676 10.532-15.671 14.539-10.523 7.034-21.589 12.953-33.664 16.967-11.111 3.693-22.4 5.718-34.137 5.215-9.893-.424-19.651-1.778-29.415-3.38a238.715 238.715 0 01-35.693-8.716c-15.773-5.163-29.818-13.29-42.115-24.438-3.816-3.46-6.982-7.453-9.724-11.798-5.125-8.12-9.109-16.745-11.574-26.048-5.11-19.278-7.351-38.798-4.978-58.707.398-3.336.157-6.779 1.549-10.703.552 1.572 1.093 2.451 1.139 3.355.191 3.742.199 7.493.335 11.239.261 7.149.554 14.298.851 21.446.5 12.002 3.174 23.605 6.51 35.079 2.399 8.253 6.285 15.811 10.987 22.965a55.715 55.715 0 0010.073 11.499c11.73 10.193 24.932 17.675 39.768 22.436 13.009 4.174 26.276 7.209 39.676 9.664 6.353 1.164 12.836 1.673 19.28 2.273 12.424 1.156 24.411-.902 36.169-4.939 11.371-3.903 21.83-9.512 31.878-16.021 9.978-6.463 17.369-15.221 23.061-25.521.468-.848.454-1.963.664-2.953l-.322.396z"/><path d="M539.303 746.102c-.617.25-1.371.354-1.821.78-.983.93-1.933 1.943-2.685 3.064-7.063 10.526-17.185 17.391-28.071 23.244-8.122 4.367-16.721 7.56-25.664 9.963-9.919 2.666-19.982 4.481-30.166 5.253-18.18 1.378-36.118.053-53.247-6.934-3.779-1.541-7.61-3.076-11.129-5.111-10.638-6.153-20.72-13.108-29.984-21.249-8.949-7.864-15.229-17.427-18.862-28.692-3.145-9.751-5.688-19.654-5.29-30.047.038-.998.265-1.988.431-3.167.522.499 1.123.793 1.215 1.202 1.423 6.313 2.68 12.664 4.179 18.958 1.502 6.306 3.495 12.463 6.387 18.299 3.21 6.479 7.35 12.24 12.669 17.182 10.306 9.576 21.708 17.676 34.131 24.15 12.5 6.515 25.856 10.546 40.136 10.736 6.474.086 12.96.38 19.421.102 19.706-.845 38.319-6.13 55.827-15.029 10.081-5.124 19.191-11.736 26.169-20.893 1.028-1.349 2.201-2.6 3.412-3.788.367-.36 1.09-.358 1.695-.535l.924 2.907.323-.395zM381.085 567.021c-1.371-.453-1.813-1.295-1.993-2.315-.487-2.758.074-5.473.802-8.059 4.999-17.756 13.573-33.338 28.148-45.116 2.367-1.912 4.994-3.529 7.612-5.097 2.682-1.606 5.701-2.207 8.814-2.135 3.314.077 5.86 1.557 7.493 4.481 1.343 2.404 2.253 4.966 2.426 7.727.255 4.071.704 8.156.57 12.219-.212 6.454-.739 12.904-1.32 19.339-.428 4.738-1.104 9.457-1.775 14.17-.237 1.666-.639 3.346-1.252 4.907-.332.845-1.267 1.454-1.781 2.009-2.451.377-4.219-.874-6.114-1.504-7.483-2.488-15.157-3.781-23.022-4.059-4.802-.17-9.509.172-14.025 2.049-1.547.643-3.223.982-4.583 1.384zm28.407-32.686c2.391-9.98 3.293-12.165 9.324-22.754.427-.75.281-1.37-.461-1.703-.27-.121-.673-.093-.967.008-3.955 1.362-7.02 4.083-10.023 6.817-12.987 11.819-20.556 26.762-24.882 43.543-.318 1.232.123 2.713.752 2.75.654.038 1.408.22 1.954-.026 5.291-2.38 10.721-4.221 16.535-4.816.592-.061 1.13-.654 2.004-1.192.615-2.346 1.303-4.945 1.974-7.548.342-1.328.8-2.581 2.317-3.72 1.595-.251 3.609-.503 5.593-.902a24.91 24.91 0 003.888-1.14c1.353-.512 2.115-1.616 2.465-2.997-.332-1.388-1.092-2.4-2.398-3.049-2.407-1.197-5.461-.586-8.075-3.271zm108.212 31.069c-1.96-1.031-3.717-2.093-5.583-2.905-3.12-1.358-6.25-2.744-9.484-3.779-4.993-1.598-10.088-1.631-15.084.086-4.187 1.439-8.316 3.047-12.475 4.569-1.081.395-1.671.178-3.523-1.195-.74-3.093-.047-6.119.803-9.049 3.955-13.619 10.533-25.864 19.785-36.614 4.029-4.682 8.755-8.59 14.251-11.508 4.061-2.156 8.365-2.808 12.887-2.186 2.914.401 5.042 2.03 6.472 4.505 1.73 2.995 2.668 6.252 2.813 9.732.215 5.124.154 10.247-.646 15.311-1.545 9.77-3.688 19.421-6.187 28.989-.431 1.649-1.275 3.147-4.029 4.044zm-14.771-35.868c-.653-3.118 1.129-5.421 2.061-7.906.831-2.214 2.125-4.249 3.099-6.415 1.098-2.44 3.293-4.351 3.506-7.218-.614-.242-1.324-.809-1.783-.65-1.581.547-3.192 1.17-4.581 2.083-6.033 3.963-11.046 9.009-15.185 14.91-6.291 8.97-11.064 18.692-14.207 29.196-.29.968-.581 2.01-.505 2.989.07.906.633 1.773.967 2.628 3.738-.234 6.513-2.478 9.736-3.47 3.226-.993 6.46-1.959 9.902-3 .511-1.194 1.235-2.376 1.518-3.655.512-2.316.767-4.69 1.12-7.041.267-1.784.958-3.232 3.09-3.772 1.128.279 2.426.717 3.758.895 1.327.178 2.695.187 4.034.102 1.54-.098 2.36-1.119 2.696-2.578-1.479-4.445-6.5-4.426-9.226-7.098zm-101.235-96.601c-.423 1.869-2.046 2.623-3.415 3.559-5.355 3.661-10.477 7.61-15.094 12.175-16.194 16.013-28.897 34.357-37.145 55.678-4.182 10.81-7.869 21.77-10.437 33.09-.597 2.633-1.404 5.218-2.067 7.652-.735.494-1.268.228-1.299-.685-.236-6.908 1.612-13.507 3.317-20.082 2.74-10.564 6.288-20.897 11.01-30.735 10.172-21.191 24.026-39.533 42.913-53.799 2.711-2.048 5.586-3.901 8.511-5.631 1.107-.655 2.571-.707 3.872-1.034l-.166-.188zm135.177 42.875c-.073 1.739-.386 3.417-1.707 4.652-.435.406-1.218.73-1.767.638-.512-.085-1.126-.693-1.327-1.214-.226-.583-.043-1.326-.032-2 .01-.677.103-1.363.027-2.03-.29-2.531-2.347-4.653-4.686-4.554-2.016.086-4.152.194-5.992.914-2.833 1.109-5.504 2.669-8.159 4.188-2.357 1.349-4.589 2.913-6.9 4.343-.187.115-.806-.061-.807-.116-.02-.596-.194-1.409.121-1.76 3.682-4.097 8.144-7.24 12.866-9.986 2.344-1.363 4.889-2.401 7.672-2.654 5.767-.524 10.944 3.559 10.691 9.579zm-105.928 8.814c-1.297-1.42-.708-3.16-.851-4.787-.376-4.277-4.2-6.542-7.983-4.69-1.51.739-2.997 1.612-4.302 2.661-2.369 1.905-4.595 3.988-6.839 5.961-1.258-.703-1.375-1.181-.78-2.086 2.261-3.435 5.127-6.322 8.215-8.987 1.014-.875 2.215-1.567 3.409-2.196 3.483-1.834 8.067-.849 11.155 2.32 2.616 2.684 3.132 6.67 1.344 10.366-.456.944-1.175 1.25-3.368 1.438z"/><path d="M401.864 433.122c.12-.303.152-.712.372-.893 3.556-2.929 7.268-5.508 12.226-5.052l-.211-.245c-3.199 1.833-6.365 3.727-9.619 5.457-.838.446-1.949.378-2.935.546l.167.187zm-287.489 22.442l-3.435-.835c-.032-.633-.284-1.366-.053-1.882.724-1.617 2.161-2.498 3.789-3.052 1.507-.512 3.503.235 4.401 1.595 2.237 3.389 1.056 8.492-2.486 10.515-1.22.697-2.556.816-3.818.056-.66-.398-.961-1.164-.518-1.666.627-.711 1.627-1.094 2.25-1.807.701-.803.732-1.823-.13-2.924zm17.499-1.591c.557.292 1.242.465 1.646.899 1.256 1.347 1.032 3.383-.398 4.081-.991.484-1.909.075-2.653-.567-1.295-1.117-1.051-2.9.51-4.048.252-.184.595-.246.895-.365zm4.68 82.941c-.011.331.092.724-.049.983a959.866 959.866 0 01-6.21 11.245c-.135.241-.519.342-.85.547-.704.051-1.39-.408-1.178-1.158 1.384-4.897 3.676-9.174 8.525-11.532l-.238-.085zm-19.944 1.334c3.068-1.405 4.868-.955 6.905-.015l-1.262 5.284c-2.145-1.089-3.232-3.147-5.643-5.269zm976.692 54.932c-.658 4.142-2.233 5.914-3.849 7.578-1.642 1.69-3.341 3.421-5.307 4.678-3.197 2.044-6.93 3.091-10.662 2.76-9.759-.865-19.653-.792-29.165-3.659-1.942-.585-3.893-1.172-5.334-2.724-.206-.222-.338-.593-.35-.901-.028-.701.443-1.335 1.17-1.222 4.34.675 8.692 1.32 12.985 2.233 7.006 1.49 14.133 1.544 21.222 2.009 5.347.351 9.973-1.493 13.77-5.33 1.421-1.436 2.881-2.833 5.52-5.422zm-19.076-67.027c.318.467.532.698.646.97.126.302.256.652.223.964-1.517 14.467-3.008 28.937-4.635 43.392-.377 3.347-1.24 6.639-1.889 10.008-1.094-1.567-.55-3.356-.612-5.025-.087-2.365.045-4.738.104-7.107.051-2.031.082-4.063.206-6.09.474-7.768 1.034-15.532 1.458-23.303.223-4.089.713-8.111 2.406-11.865.357-.791 1.361-1.288 2.093-1.944zm24.477 3.857c-1.728 5.103-2.52 10.42-3.168 15.817-1.208 10.061-2.296 20.158-4.535 30.358-.528-.728-1.121-1.165-1.128-1.611-.144-9.504.291-18.985 1.376-28.43.387-3.37.818-6.741 1.414-10.078.416-2.331 1.123-4.634 2.829-6.413.425-.444 1.15-.866 1.71-.834.487.028.937.713 1.502 1.191zm-561.375 514.901c-.258-3.329-1.296-6.668-3.404-9.259-1.41-1.734-3.253-3.081-5.238-4.109a22.27 22.27 0 00-14.167-2.106c-8.3 1.533-15.316 7.714-23.715 8.544-17.898 1.768-16.411-10.715-13.244-22.681 3.941-14.889 6.822-30.067 8.706-45.351 1.875-15.215 2.74-30.549 2.675-45.878-.057-13.735-4.965-31.372-2.718-44.628.206-1.213.979-2.056 2.04-2.669a168.821 168.821 0 01-3.052-4.064c-2.177.664-4.391 1.217-6.59 1.815-5.523 1.504-11.095 2.722-16.699 3.735-.221 1.65-.462 3.282-.716 4.874.797-.102 1.595-.204 2.391-.313 2.141-.293 3.951 1.144 4.273 3.398.193 1.348.354 2.704.458 4.062.445 5.778.793 11.564 1.304 17.335 1.66 18.765.663 37.471-1.358 56.133-.99 9.14-2.392 18.24-3.763 27.334-1.525 10.115-3.612 20.117-6.785 29.861-.303.931-1.022 1.727-1.456 2.436l-6.992 3.231c-2.856 3.05-4.234 6.165-4.909 9.538-.8 4.003-1.407 8.05-1.962 12.096-.076.554-.111 1.114-.168 1.671.515.775.823 1.734.807 2.873-.047 3.403-2.235 10.128-.859 14.132.308.898.796 1.659 1.526 2.215 7.72 5.874 19.146 1.97 22.593-5.787-2.484 5.591 25.762 8.019 28.995 8.238 21.518 1.456 43.697 1.672 65.372 1.42 5.848-.068 11.731-.213 17.467-1.355.915-.182 1.906-.44 2.461-1.19.752-1.015.335-2.548-.589-3.409-.924-.861-2.205-1.205-3.439-1.471-13.546-2.926-32.226 3.125-44.532-2.87 1.32-6.336 5.851-10.53 5.287-17.801zm-76.28-20.385c.176-1.193.202-2.227.489-3.182 3.523-11.725 5.836-23.694 7.571-35.803.422-2.948.506-6.097 2.368-9.2 2.721-.7 5.595-1.252 9.302-.092.322 7.444-.667 15.772-4.182 29.567-1.657 6.504-2.415 13.357-6.005 19.368-3.328 1.01-6.52 1.997-9.543-.658zm64.821 19.559c-.815 2.964-3.726 4.221-6.561 3.725-2.416-.423-4.424.3-6.431 1.721-2.363 1.673-5.939.408-7.297-1.913-1.544-2.64-.434-5.635 1.913-7.297 4.348-3.078 9.511-3.696 14.65-2.796 2.854.499 4.433 3.987 3.726 6.56zm-287.99-19.065c.839-5.851 3.815-10.143 9.625-12.082.962-.321 1.99-.442 2.822-.62 5.094.501 9.35 2.583 13.17 5.577 7.889 6.183 10.475 16.336 20.724 19.736 27.245 9.038 33.323-30.087 39.242-48.451 9.527-29.561 16.939-59.708 24.844-89.717 1.648-6.257 2.95-12.607 4.362-18.925.138-.618-.077-1.314-.128-1.974-.427-.517-.753-1.229-1.301-1.512-.293-.151-.605-.265-.908-.397.68-1.458 1.332-2.929 1.976-4.405 2.676.835 5.346 1.693 8.027 2.509 6.414 1.952 12.879 3.479 19.378 4.681a32.954 32.954 0 01-2.658 4.205c-1.407-.169-2.95-.167-4.808.377-2.305 4.858-3.501 9.76-4.3 14.846-2.22 14.136-4.687 28.23-8.169 42.125a681.242 681.242 0 01-16.223 54.865 252.12 252.12 0 01-13.026 31.087c-.911 1.825-1.829 3.647-2.769 5.52.345 1.014.426 2.151 1.02 2.855 4.935 5.847 6.221 12.722 5.914 20.092-.307 7.42.788 6.442 7.521 7.712a57.917 57.917 0 0114.799 4.943c.553.272 1.143.596 1.383 1.164.336.795-.203 1.742-.959 2.159-.756.416-1.66.437-2.523.446-8.608.085-18.425-1.654-26.733.683-7.391 2.079-12.195.121-19.412-.387-14.08-.99-28.343-.553-42.447-1.101a3386.97 3386.97 0 01-46.932-2.149c-1.556-.082-3.174-.182-4.538-.937-1.364-.755-2.386-2.37-1.94-3.864.493-1.651 2.403-2.366 4.086-2.736 15.724-3.459 32.006 2.887 48.069 1.781-6.558-4.036-12.347-7.154-17.559-13.018-4.192-4.644-6.973-10.052-8.851-15.989-.95-2.994-1.214-6.047-.778-9.099zm84.699 8.713c.461-.684 1.146-1.467 1.573-2.373 2.901-6.149 5.871-12.271 8.57-18.509 1.885-4.358 3.434-8.867 5.007-13.352.441-1.257.416-2.667-1.268-4.649l-7.952-1.544c-.853.874-1.78 1.471-2.194 2.319-.89 1.823-1.548 3.762-2.244 5.675-3.606 9.904-7.256 19.789-11.776 29.329-.564 1.19-.819 2.526-1.271 3.968 1.068.582 1.857 1.301 2.736 1.437 3.152.487 6.05-.322 8.819-2.301zm-12.092 28.73a8.01 8.01 0 001.953-.136c2.069-.386 3.358-2.011 2.602-4.368-.185-.579-.739-1.039-1.123-1.554-3.689-.255-4.757.207-5.614 2.431-.607 1.575.542 3.526 2.182 3.627zm-60.725-37.113c.595 1.607 1.607 2.828 3.378 3.743.717-.162 1.804-.132 2.53-.63 1.696-1.16 2.108-3.573 1.141-5.252-1.136-1.972-3.953-2.594-6.022-1.329-1.047.639-1.487 2.227-1.027 3.468zm-7.446-618.76c-.29.693-.497 1.755-1.094 2.507-1.827 2.301-4.276 3.186-7.207 2.714-1.45-.233-2.476-1.058-3.185-2.259-1.147-1.942-.842-5.076.703-6.631 1.507-1.517 3.392-2.195 5.546-1.912 2.52.332 4.607 2.103 5.123 4.305.075.322.062.665.114 1.276zm-36.902 24.597a8526.8 8526.8 0 004.142-.743l4.427-4.834c.897-.245 1.624.078 1.542.849-.338 3.149-1.936 5.702-4.274 7.749-.725.634-1.751.962-2.684 1.311-1.528.57-3.305-.612-3.602-2.47-.094-.583.285-1.24.449-1.862z"/><path fill="#F36C52" d="M796.718 487.348c.698-.126 1.309-.286 1.93-.335.529-.042 1.087-.038 1.598.087 1.88.461 2.68 2.233 1.843 3.984-.394.824-1.01 1.473-1.662 2.093a24.523 24.523 0 01-4.978 3.644 854.1 854.1 0 01-14.625 7.975c-2.017 1.073-4.147 1.647-6.222 2.534-.769.329-1.228.982-1.959 1.45-.775.497-1.656.825-2.528 1.107a34.853 34.853 0 01-7.285 1.524c-.805.08-1.624.132-2.419-.019-1.69-.32-2.941-1.62-4.581-2.079-1.118-.313-2.584-.654-2.984-1.966-.148-.486.08-1.002.338-1.44.754-1.281 1.924-2.441 3.038-3.417 1.492-1.308 3.149-2.371 4.93-3.234a294.873 294.873 0 016.559-3.101c3.261-1.481 6.577-2.839 9.733-4.55.939-.509 1.975-.842 2.971-1.246 1.826-.739 5.981-2.406 6.226-2.516 3.314-1.497 6.683-1.99 10.077-.495z"/><path fill="#FFF" d="M779.047 477.625c.22 1.922-.377 3.673-1.472 5.252-2.133 3.076-5.171 4.636-8.841 4.944-2.159.181-4.072-.483-5.525-2.195-.284-.335-.581-.658-.809-.916-.625-.05-.94.294-1.313.532a200.62 200.62 0 01-3.417 2.128c-2.913 1.774-6.086 1.99-9.356 1.491a9.362 9.362 0 01-2.32-.656c-3.17-1.387-3.768-5.152-1.211-7.503 1.157-1.064 2.569-1.616 4.101-1.868a14.135 14.135 0 014.287-.072c1.949.275 3.9.545 5.838.884 1.14.199 2.257.529 3.351.792.205-.071.423-.081.53-.195 1.44-1.532 3.249-2.151 5.302-2.225 1.164-.042 2.326-.162 3.49-.198 1.883-.059 3.762-.095 5.599-.602.507-.142 1.057-.274 1.766.407zm14.844-.928c-1.116-.011-2.148-.247-3.082-.858-1.976-1.293-2.742-3.704-1.884-5.91.333-.856.818-1.623 1.534-2.176 2.059-1.593 4.193-3.08 6.662-3.99.844-.311 1.716-.506 2.633-.466 2.791.12 4.666 2.175 4.492 4.965a6.231 6.231 0 01-.85 2.81c-2.138 3.621-5.38 5.377-9.505 5.625z"/><path fill="#F36C52" d="M436.822 643.854c-2.17-1.24-2.372-3.272-.591-4.625 1.398-1.062 3.011-1.793 4.71-2.231 1.334-.344 2.538-.925 3.756-1.535 3.471-1.737 6.937-3.49 10.467-5.103 7.105-3.247 14.606-5.246 22.234-6.793a263.59 263.59 0 019.168-1.672c1.432-.238 2.89-.335 4.34-.451a8.188 8.188 0 011.742.058c3.835.519 5.604 4.447 3.457 7.672-.711 1.069-1.697 1.865-2.76 2.553-3.997 2.585-8.065 5.051-12.47 6.893a130.022 130.022 0 01-15.68 5.416c-4.712 1.296-9.544 1.834-14.383 2.085-4.27.222-8.523-.335-12.614-1.733-.55-.186-1.084-.419-1.376-.534z"/><path fill="#FFF" d="M426.66 602.384c1.475 1.146 2.695 2.101 3.927 3.04.145.11.357.133.54.196.695.024.972-.564 1.364-.96 1.864-1.887 4.129-2.415 6.676-2.007.478.077.967.142 1.421.301 1.506.525 2.961.528 4.553.187 3.137-.672 5.738.495 7.667 3.014 2.771 3.619 1.295 8.685-2.961 10.331a9.264 9.264 0 01-3.708.609c-2.616-.098-5.227-.285-7.808-.745-.759-.135-1.504-.372-2.24-.609-2.256-.727-3.82-2.227-4.769-4.379-.233-.528-.411-1.081-.64-1.688-2.03-.709-4.153-.836-6.237-1.102-.402.132-.78.226-1.134.377-1.909.813-3.792.658-5.643-.162-1.506-.668-3.027-1.315-4.474-2.096-2.7-1.457-3.895-4.17-3.113-6.817.829-2.804 3.403-4.532 6.468-4.327 1.17.078 2.3.349 3.365.846.615.286 1.211.612 1.814.922 2.212 1.137 4.101 2.595 4.932 5.069zm61.652 7.858c-.662.96-1.593 1.813-2.821 2.233-2.204.753-4.441 1.441-6.786 1.55-2.442.114-4.633-.529-6.149-2.611-.983-1.351-1.246-2.832-.431-4.375.643-1.216 1.661-1.873 3.055-1.866.482.003.968.063 1.446.138 1.23.195 2.291-.197 3.283-.881.637-.439 1.249-.938 1.939-1.276 2.034-.996 4.466-.538 5.876 1.034 1.508 1.684 1.768 4.044.588 6.054z"/><path d="M410.422 589.051c2.968 2.031 5.648 4.411 9.059 6.096a84.31 84.31 0 0011.308 4.586c4.827 1.568 9.767 2.45 14.813 2.819a144.02 144.02 0 0023.248-.189c2.125-.188 4.251-.382 6.382-.516 2.632-.165 5.022.283 7.612-.1 6.912-1.02 15.33-.917 18.688 6.713 2.282 5.185 2.23 10.39-.095 15.504-1.869 4.111-4.573 7.611-8.154 10.451-5.39 4.275-11.414 7.322-17.885 9.526-5.809 1.978-11.783 3.166-17.905 3.732-9.63.89-18.941-.38-28.039-3.597-6.152-2.175-12.073-4.822-17.534-8.401-8.871-5.814-15.777-13.376-20.198-23.097-1.052-2.313-1.774-4.719-2.061-7.248-.609-5.362 1.091-9.93 4.781-13.801 2.613-2.74 7.803-6.597 11.61-4.953 1.584.684 3.007 1.543 4.37 2.475zm86.199 36.757c-.17-.797-.657-.936-1.13-.981-3.374-.322-6.736-.856-10.138-.747-8.592.275-16.953 1.806-25.035 4.761-8.788 3.213-16.964 7.609-24.69 12.863-.122.083-.145.313-.217.48.308.606.927.632 1.476.76 16.898 3.946 32.912 1.579 48.063-6.791a41.966 41.966 0 006.935-4.772 22.465 22.465 0 004.736-5.573zm-44.306-18.491c-2.952-.176-5.642-.35-8.334-.493-2.775-.147-5.499-.837-8.338-.956-.622 2.339-.96 4.503-.25 6.72.572 1.784 1.679 3.004 3.52 3.54 4.011 1.167 7.499.153 10.412-2.689 1.585-1.547 2.858-3.391 2.99-6.122zm-37.66-10.814c-1.074 1.186-1.561 2.329-1.911 3.541-1.021 3.541 1.083 7.934 5.87 8.086 3.77.119 7.016-1.052 9.617-3.836.095-.101.026-.356.037-.64-1.539-.681-3.136-1.335-4.684-2.088-1.476-.717-2.918-1.507-4.344-2.318-1.494-.849-2.951-1.762-4.585-2.745zm57.806 9.446c.013 2.212.75 3.837 1.969 5.247.361.417.902.744 1.424.945 3.498 1.342 7.836-.258 9.716-3.551.382-.669.754-1.345 1.094-2.036.213-.433.359-.899-.328-1.424-4.38.762-9.025.02-13.875.819zm268.053-124.347c-.995-.269-1.76-.515-2.541-.68-3.699-.782-7.21-2.139-10.718-3.497a10.27 10.27 0 01-2.117-1.146c-.763-.529-1.118-1.698-.571-2.394 2.188-2.783 3.266-6.168 5.108-9.13.089-.143.264-.234.405-.355.532-.265 1.023-.21 1.454.212.095.161.224.303.269.467.297 1.074.143 2.127-.173 3.173-.392 1.296-1.015 2.483-1.659 3.667-.33.607-.905 1.101-.947 1.969.374.182.753.419 1.165.557 4.252 1.422 8.555 2.663 12.99 3.373 2.029.325 3.951 1.132 6.062 1.115 5.931-.049 11.796-.464 17.578-1.958 5.498-1.42 10.748-3.428 15.821-5.939 4.416-2.186 8.923-4.186 13.225-6.603 1.478-.83 3.071-1.456 4.535-2.139.626-.047 1.167-.052 1.698-.132 4.622-.691 9.759 3.853 10.612 8.148.663 3.342.438 6.609-.375 9.855-1.249 4.987-3.787 9.268-7.385 12.922a58.777 58.777 0 01-7.127 6.141 142.891 142.891 0 01-10.977 7.288c-5.293 3.18-11.058 5.045-17.102 6.158a36.008 36.008 0 01-7.492.573c-6.952-.182-13.127-2.429-18.622-6.723-6.357-4.967-8.674-14.085-4.81-21.828.482-.958 1.029-1.882 1.694-3.094zm60.973 8.071c-1.107-.284-1.784-.527-2.481-.624-3.216-.446-6.441-.403-9.649.048-8.625 1.213-16.622 4.29-24.258 8.363-4.577 2.441-8.18 6.015-11.357 10.107 2.84 1.22 6.288 1.811 9.812 1.641 7.214-.348 13.94-2.448 20.115-6.104 4.081-2.416 7.957-5.185 11.875-7.868 2.148-1.47 3.979-3.311 5.943-5.563zm-56.087-7.067c.11 1.899.72 3.276 1.599 4.524 1.254 1.78 3.009 2.416 5.148 2.072a6.919 6.919 0 002.263-.783c2.139-1.18 4.016-2.657 5.346-4.749.18-.284.423-.555.165-1.06-2.331.184-4.713.545-7.112.42-2.383-.124-4.766-.271-7.409-.424zm46.168-12.01c.295.505.398.754.564.95.288.339.618.642.925.965 1.755 1.844 4.799 1.303 6.103-.551 1.242-1.767 1.852-3.777 2.261-5.846-.89-.546-1.677-.451-2.391-.027-2.444 1.444-4.863 2.933-7.462 4.509zm-25.987 13.302c2.285 1.097 3.785 1.116 5.11.076 1.016-.797 1.607-1.902 2.082-3.069.163-.401.325-.847-.177-1.322l-7.556 2.084c-.337.903.095 1.49.541 2.231z"/></svg>