<svg xmlns="http://www.w3.org/2000/svg" viewBox="0 0 1200 1200"><path fill="#FFFBC9" d="M69.887 314.365s142.929-144.942 521.389-144.942 541.52 134.877 541.52 134.877S971.75 493.53 603.355 493.53 69.887 314.365 69.887 314.365z"/><radialGradient id="a" cx="499.39" cy="-77.162" r="802.815" gradientUnits="userSpaceOnUse"><stop offset="0" stop-color="#fff"/><stop offset="1" stop-color="#fff" stop-opacity="0"/></radialGradient><path fill="url(#a)" d="M69.887 314.365s142.929-144.942 521.389-144.942 541.52 134.877 541.52 134.877S971.75 493.53 603.355 493.53 69.887 314.365 69.887 314.365z"/><radialGradient id="b" cx="622.074" cy="445.638" r="630.247" gradientUnits="userSpaceOnUse"><stop offset="0" stop-color="#b09187"/><stop offset=".311" stop-color="#ad8e85"/><stop offset=".559" stop-color="#a3867d"/><stop offset=".783" stop-color="#927870"/><stop offset=".994" stop-color="#7b655f"/><stop offset="1" stop-color="#7a645e"/></radialGradient><path fill="url(#b)" d="M67.874 332.483v511.324s144.942 185.204 515.35 185.204 547.559-177.152 547.559-177.152V324.431S976.446 507.495 599.999 507.495 67.874 332.483 67.874 332.483z"/><radialGradient id="c" cx="846.777" cy="809.847" r="176.459" gradientUnits="userSpaceOnUse"><stop offset="0" stop-color="#d9856c"/><stop offset=".513" stop-color="#d9856c" stop-opacity="0"/></radialGradient><circle fill="url(#c)" cx="845.871" cy="806.893" r="94.627"/><radialGradient id="d" cx="349.149" cy="809.847" r="176.459" gradientUnits="userSpaceOnUse"><stop offset="0" stop-color="#d9856c"/><stop offset=".513" stop-color="#d9856c" stop-opacity="0"/></radialGradient><circle fill="url(#d)" cx="348.243" cy="806.893" r="94.627"/><path fill="#BFDE6A" d="M478.544 251.96s76.497 25.164 95.622 56.366c0 0 50.327 19.124 100.654 19.124s80.523 23.151 92.602 58.38c0 0 135.883-17.111 142.929-52.34s-48.314-84.55-69.451-86.563c-21.137-2.013-96.628-8.052-110.72-4.026s-25.164 13.085-34.222 6.039-23.151-29.19-66.432-23.15c-43.282 6.039-137.897 1.006-150.982 26.17z"/><radialGradient id="e" cx="461.748" cy="83.86" r="573.897" gradientUnits="userSpaceOnUse"><stop offset="0" stop-color="#f4ffa1"/><stop offset="1" stop-color="#f4ffa1" stop-opacity="0"/></radialGradient><path fill="url(#e)" d="M616.807 280.046c13.554-1.936 36.79-7.745 48.407 9.681 1.936 0 7.745 3.873 9.682 1.936 9.682-15.49 30.981-19.363 44.535-13.554 3.873 1.936 9.682 7.745 13.554 9.681 7.745 3.873 19.363 5.809 29.044 1.936 34.228-12.611 73.484-22.695 111.727-24.04-12.372-10.698-24.987-18.011-32.857-18.761-21.138-2.013-96.629-8.052-110.72-4.026-14.092 4.026-25.164 13.085-34.223 6.039-9.059-7.046-23.151-29.19-66.432-23.15-43.281 6.039-137.896 1.007-150.982 26.17 0 0 1.887.621 5.14 1.787 46.367 5.169 87.345 33.344 133.125 26.301z"/><path fill="#FF8F63" d="M719.108 327.451c-25.164-5.033-46.301 15.098-67.438 4.026-21.137-11.072-72.471-21.138-72.471-21.138s.646 4.42 2.072 11.289c-5.031-9.33-11.199-18.058-19.519-25.381-33.551-29.525-91.26-41.603-91.26-41.603-205.335 21.473-209.361 67.103-132.864 106.022 67.706 34.447 285.858 40.261 285.858 40.261-2.378-1.838-4.496-3.926-6.508-6.12 18.229-.591 131.452-4.514 144.404-10.991 14.092-7.044-17.111-51.333-42.274-56.365z"/><radialGradient id="f" cx="802.614" cy="311.801" r="188.266" gradientUnits="userSpaceOnUse"><stop offset="0" stop-color="#ffe1ad"/><stop offset="1" stop-color="#ffe1ad" stop-opacity="0"/></radialGradient><path fill="url(#f)" d="M719.107 327.451c-25.163-5.033-46.301 15.098-67.439 4.026-16.79-8.795-52.61-16.949-66.642-19.933-.196 6.224.005 12.493.799 18.847-19.363-5.809-38.726-9.681-58.089-17.427-17.427-5.809-36.79-5.809-52.28 1.936-37.038 19.26-76.346 46.43-117.918 53.805 82.723 27.335 265.947 32.223 265.947 32.223-2.378-1.837-4.496-3.926-6.508-6.12 18.229-.591 131.452-4.514 144.404-10.991 14.093-7.045-17.11-51.334-42.274-56.366z"/><radialGradient id="g" cx="417.833" cy="131.958" r="248.008" gradientUnits="userSpaceOnUse"><stop offset="0" stop-color="#ffe1ad"/><stop offset="1" stop-color="#ffe1ad" stop-opacity="0"/></radialGradient><path fill="url(#g)" d="M527.737 312.963c19.363 7.745 38.726 11.618 58.089 17.427-.794-6.353-.995-12.623-.799-18.847-3.633-.773-5.829-1.204-5.829-1.204s.646 4.42 2.072 11.289c-5.031-9.33-11.198-18.058-19.519-25.381-33.552-29.525-91.259-41.603-91.259-41.603-205.335 21.473-209.361 67.103-132.864 106.022 5.653 2.876 12.375 5.548 19.911 8.038 41.572-7.375 80.88-34.545 117.918-53.805 15.491-7.745 34.854-7.745 52.28-1.936z"/><linearGradient id="h" gradientUnits="userSpaceOnUse" x1="1068.794" y1="648.725" x2="874.27" y2="313.712"><stop offset="0" stop-color="#fff" stop-opacity="0"/><stop offset="1" stop-color="#fff"/></linearGradient><path fill="url(#h)" d="M1014.877 726.376c-18.435 0-33.373-7.511-33.373-16.776V430.197c0-9.264 14.937-26.457 33.373-26.457 18.435 0 33.373-11.852 33.373-2.587V709.6c0 9.265-14.937 16.776-33.373 16.776z"/><path fill="#9C7B70" d="M1150 312.434c0-3.024-1.018-6.734-2.769-9.396C1143.19 296.905 1043.197 152.87 600 152.87c-413.723 0-540.748 142.404-545.954 148.47A16.86 16.86 0 0050 312.267V846.31a16.77 16.77 0 002.96 9.513c5.379 7.812 136.439 191.307 547.04 191.307 400.373 0 540.908-183.026 546.691-190.818A16.742 16.742 0 001150 846.31V312.434zm-39.393-.514C1072.589 349.764 918.897 479.535 600 479.535c-319.567 0-470.865-127.42-509.653-166.398C127.882 281.478 268.257 186.421 600 186.421c354.547 0 479.375 94.672 510.607 125.499zm5.841 528.353c-22.968 26.349-166.9 173.305-516.448 173.305-358.903 0-495.386-147.287-516.449-172.994V353.278c60.55 54.01 217.342 159.809 516.449 159.809 296.327 0 455.303-106.844 516.448-160.497v487.683z"/><radialGradient id="i" cx="574.673" cy="-181.722" r="1102.077" gradientUnits="userSpaceOnUse"><stop offset="0" stop-color="#ffe3bf" stop-opacity=".7"/><stop offset=".906" stop-color="#ffe3bf" stop-opacity="0"/></radialGradient><path fill="url(#i)" d="M92.506 311.344C133.057 278.049 274.285 186.421 600 186.421c349.832 0 476.005 92.165 509.302 124.229 8.508-7.584 16.123-15.802 22.994-24.638C1091.603 246.53 957.392 152.87 600 152.87c-334.888 0-481.912 93.295-528.55 132.07 5.679 9.806 12.391 18.837 21.056 26.404z"/><radialGradient id="j" cx="658.321" cy="1533.063" r="1451.005" gradientUnits="userSpaceOnUse"><stop offset="0" stop-color="#63473d"/><stop offset=".381" stop-color="#654a40" stop-opacity=".619"/><stop offset=".684" stop-color="#6c534a" stop-opacity=".316"/><stop offset=".959" stop-color="#78615b" stop-opacity=".041"/><stop offset="1" stop-color="#7a645e" stop-opacity="0"/></radialGradient><path fill="url(#j)" d="M1116.448 840.273c-22.968 26.349-166.9 173.305-516.448 173.305-358.903 0-495.386-147.287-516.448-172.994v-482.23C71.749 344.208 60.805 329.203 50 314.06v532.25c0 3.397 1.032 6.714 2.959 9.513 5.379 7.812 136.44 191.307 547.041 191.307 400.373 0 540.907-183.026 546.691-190.818A16.751 16.751 0 001150 846.31V330.942c-10.325 9.155-21.357 17.349-33.552 23.67v485.661z"/><g fill="#593529"><path d="M572.04 770.663c-.014-21.408-33.544-21.938-33.551-.007-.028 78.117 123.01 79.68 123.022.016.003-21.547-33.541-21.778-33.551-.018-.017 34.806-55.909 36.251-55.92.009z"/><circle cx="376.324" cy="725.93" r="52.34"/><circle cx="823.676" cy="725.93" r="52.34"/></g><path fill="#B0AF5C" d="M600 410.305c198.625 0 339.541-41.587 321.382-88.07-.388-.994-.153-2.132-.453-3.156-.797-2.709-20.069-66.398-68.85-76.154-38.379-7.678-106.448-15.432-136.729-5.341-8.475 2.834-14.133-.489-25.114-7.645-9.655-6.288-21.669-14.116-38.679-15.662-20.549-1.879-144.92-.62-180.426 26.744-58.802 6.594-192.511 27.514-192.511 81.214-.002 57.82 161.672 88.07 321.38 88.07zm-8.039-85.528c27.18 8.87 70.952 20.022 105.99 14.182 28.566-4.749 45.795 22.395 53.605 39.239-36.695 5.15-79.492 8.648-127.632 9.524-4.458-6.057-20.46-29.164-31.963-62.945zm57.574-88.225c11.479 1.043 19.741 6.427 28.489 12.126 11.861 7.738 25.316 16.486 44.402 10.127 22.297-7.44 81.203-2.766 125.261 6.051 31.848 6.37 48.105 49.62 51.223 58.822-2.411 16.996-47.099 37.715-124.352 50.948-10.961-27.377-37.491-64.858-80.287-57.728-44.33 7.408-109.372-18.097-118.117-21.645-19.437-22.048-52.188-36.648-74.984-44.712 36.14-11.297 114.568-17.052 148.365-13.989zm-180.726 27.25c.775.404 1.6.721 2.468.939 23.651 5.911 87.259 28.369 97.4 60.831 8.606 27.525 20.145 49.019 28.435 62.363-183.555-.393-296.125-38.406-296.125-65.699-.001-15.165 45.701-44.149 167.822-58.434z"/><path fill="#E07865" d="M774.558 374.625c-10.961-27.377-37.491-64.858-80.287-57.728-44.33 7.408-109.372-18.097-118.117-21.645-19.437-22.048-52.188-36.648-74.984-44.712.121-.038.254-.074.375-.111-10.269-2.857-20.377-6.162-30.157-9.596-.084.064-.176.125-.259.189-58.802 6.594-192.511 27.514-192.511 81.214 0 57.819 161.674 88.07 321.382 88.07 198.452 0 339.29-41.515 321.422-87.949-7.677.639-15.116 2.457-23.168 3.76-6.088 16.503-50.099 35.902-123.696 48.508zm-473.572-52.39c0-15.165 45.702-44.148 167.823-58.434.775.404 1.6.721 2.468.939 23.651 5.911 87.259 28.369 97.4 60.831 8.606 27.525 20.145 49.019 28.435 62.363-183.556-.392-296.126-38.405-296.126-65.699zm322.938 65.487c-4.458-6.057-20.46-29.164-31.963-62.944 27.18 8.87 70.952 20.022 105.99 14.182 28.566-4.749 45.795 22.395 53.605 39.239-36.695 5.149-79.492 8.647-127.632 9.523z"/><radialGradient id="k" cx="930.178" cy="663.123" r="746.796" gradientUnits="userSpaceOnUse"><stop offset="0" stop-color="#ffefc0" stop-opacity=".9"/><stop offset=".906" stop-color="#ffefc0" stop-opacity="0"/></radialGradient><path fill="url(#k)" d="M774.558 374.625c-2.382.377-19.518 3.107-23.002 3.573-36.695 5.15-79.492 8.648-127.632 9.524-1.001 0-25.812.213-26.813.213-170.791-.366-280.106-33.3-294.487-59.865-5.907-14.177-14.558-12.337-20.952-19.416-1.976 4.277-3.055 8.797-3.055 13.582 0 57.819 161.674 88.07 321.382 88.07 198.624 0 339.54-41.586 321.382-88.07-.389-.994-15.671.673-23.054 3.68-5.804 16.547-49.874 36.052-123.769 48.709z"/><linearGradient id="l" gradientUnits="userSpaceOnUse" x1="823.39" y1="749.955" x2="848.472" y2="688.213"><stop offset="0" stop-color="#fff" stop-opacity="0"/><stop offset="1" stop-color="#fff7fe"/></linearGradient><circle fill="url(#l)" cx="840.101" cy="708.82" r="12.059"/><linearGradient id="m" gradientUnits="userSpaceOnUse" x1="807.648" y1="743.56" x2="832.731" y2="681.818"><stop offset="0" stop-color="#fff" stop-opacity="0"/><stop offset="1" stop-color="#fff7fe"/></linearGradient><circle fill="url(#m)" cx="811.963" cy="732.938" r="6.431"/><linearGradient id="n" gradientUnits="userSpaceOnUse" x1="378.041" y1="749.955" x2="403.124" y2="688.213"><stop offset="0" stop-color="#fff" stop-opacity="0"/><stop offset="1" stop-color="#fff7fe"/></linearGradient><circle fill="url(#n)" cx="394.752" cy="708.82" r="12.059"/><linearGradient id="o" gradientUnits="userSpaceOnUse" x1="362.3" y1="743.56" x2="387.382" y2="681.818"><stop offset="0" stop-color="#fff" stop-opacity="0"/><stop offset="1" stop-color="#fff7fe"/></linearGradient><circle fill="url(#o)" cx="366.615" cy="732.938" r="6.431"/></svg>