<svg xmlns="http://www.w3.org/2000/svg" viewBox="0 0 1200 1200"><path fill="#3D302A" d="M929.544 220.494c-50.582-54.974-155.161-64.033-188.538 13.637-9.29-5.941-23.182-8.704-31.291-11.433-20.77-6.99-41.831-11.265-63.334-15.071a3.5 3.5 0 00-1.123-.894c-2.897-9.887-.296-24.86-.299-34.583-.003-11.734-.072-23.469-.136-35.203-.071-13.079-.18-26.159-.425-39.237-.193-10.25 2.599-23.896-4.14-32.617-5.882-7.613-18.637-12.062-27.659-13.804-20.72-4.001-43.086 1.754-61.56 11.216-9.26 4.743-6.558 16.386-6.804 25.435-.393 14.452-.477 28.912-.356 43.369.237 28.289 1.282 56.563 2.441 84.827-29.394-2.051-61.762 9.934-89.224 22.617-28.559-85.251-150.834-67.931-193.871-5.668-19.491 28.198-21.905 80.724-3.718 109.977 17.839 28.692 53.165 41.462 84.365 50.475-3.876 19.54-5.858 39.306-5.4 59.282.135 5.884.124 12.704.756 19.501-35.069 22.997-24.54 70.107 6.773 91.908 4.771 3.321 9.851 6.16 15.126 8.657a3.534 3.534 0 00.085 1.812c14.671 46.919 17.191 94.645 21.262 143.101 3.749 44.625 7.684 89.234 11.777 133.829 4.708 51.289 9.512 102.57 14.623 153.821 3.205 32.141 4.78 65.343 10.832 97.125.447 2.345.495 5.552 1.863 7.638 3.771 5.751 15.211 9.222 21.233 12.012a268.815 268.815 0 0031.549 12.245c42.056 13.369 86.792 16.875 130.692 15.108 48.402-1.948 96.71-7.701 144.255-16.938 23.336-4.534 48.57-10.229 54.829-36.603 6.431-27.104 7.781-56.173 11.022-83.773 6.032-51.37 11.701-102.782 17.275-154.203 5.536-51.062 10.992-102.134 16.123-153.238 5.344-53.232 13.335-106.22 17.735-159.514a5.645 5.645 0 00-.007-.904c18.515-9.692 37.258-24.557 39.411-46.778 2.091-21.585-10.561-42.054-30.258-50.166-.89-8.92-2.832-17.802-4.38-25.527-2.322-11.579-5.516-22.937-9.685-33.942 32.175-9.448 68.173-23.517 83.051-55.847 15.107-32.832 9.822-84.814-14.87-111.649zM667.959 177.46c10.812 6.698 21.112 12.279 29.81 21.805 2.499 2.737 7.401 1.429 7.898-2.496 1.677-13.255 7.479-24.219 18.07-32.648 3.488-2.776 2.081-9.676-3.144-7.572-12.132 4.886-24.235-1.5-32.245-10.26-3.922-4.289-7.233-9.149-10.642-13.842-2.353-3.239-8.942-1.08-6.94 3.106 5.687 11.885 6.521 24.233 2.859 36.45-.613-.174-1.205-.397-1.828-.546-2.965-.708-7.306 3.855-3.838 6.003zm-188.437 12.308c3.662-3.386 7.296-6.801 10.932-10.213a47.373 47.373 0 00-3.141-1.568c-4.985-2.247-.367-10.109 4.339-7.988 1.998.9 3.917 1.962 5.788 3.101 3.176-2.678 7.596-5.506 9.359-1.532.945 2.127-.647 4.381-2.732 6.356.821.713 1.646 1.422 2.415 2.194 3.778 3.795 9.029 9.009 7.357 14.692-.239.811-.993 1.575-1.899 1.571-4.242-.015-4.937-1.227-7.486-4.621-1.421-1.893-2.903-3.683-4.603-5.336a41.585 41.585 0 00-2.928-2.586A1114.991 1114.991 0 00485.04 194.2c-3.372 2.989-9.317-.92-5.518-4.432zm456.713 216.525c.02 3.958-4.948 6.262-8.834 8.057.134.214.298.402.428.621 2.76 4.635 5.844 10.952 2.991 16.067-.488.875-1.426 1.108-2.351 1.111l-1.376.005c-1.386.005-2.64-1.052-3.101-2.301-1.487-4.03-2.93-7.756-4.886-11.163l-11.517 6.231c-4.624 2.5-7.588-3.95-3.045-6.437l10.274-5.623c-1.048-1.134-2.179-2.235-3.499-3.274-3.935-3.097 1.05-8.788 4.907-6.296 2.358 1.523 4.544 3.241 6.502 5.185 3.658-2.088 7.347-4.075 11.628-4.374 1.015-.072 1.874 1.307 1.879 2.191zM308.64 417.754c-3.367 2.496-6.533 5.215-9.606 8.04 4.596 3.834 9.79 8.133 11.652 13.691.907 2.706-2.701 3.763-4.603 3.306-4.908-1.181-9.363-6.887-13.145-11.046-3.557 3.845-6.743 8.044-10.756 11.428-1.965 1.657-6.331-.452-5.329-3.184 1.941-5.288 6.676-9.721 10.66-13.617-3.736-3.592-7.517-7.127-11.422-10.553-3.045-2.671 2.246-5.634 4.797-3.848a275.657 275.657 0 0112.359 9.169 146.766 146.766 0 0110.33-8.086c3.554-2.538 9.132 1.683 5.063 4.7zm-2.025 139.179c-13.38 2.289-27.442-4.79-32.106-17.927-1.352-3.81-8.015-2.073-7.735 1.824.778 10.812.439 20.418-3.891 30.229-2.639.362-5.451 3.218-2.881 5.459 9.353 8.155 19.694 13.967 28.177 23.353 2.322 2.57 6.829-.013 7.136-2.979 1.359-13.146 8.049-24.211 15.12-35.038 1.861-2.85-.822-5.434-3.82-4.921z"/><path fill="#EFDF6E" d="M275.286 553.143c6.782 6.663 15.523 10.555 25.339 10.732-4.933 7.788-9.239 15.715-11.671 24.493-5.568-5.852-11.993-11.596-19.085-15.048 3.444-6.568 5.07-13.199 5.417-20.177zm423.691-365.744c2.13-7.619 5.692-14.451 10.61-20.484-10.399-.529-19.27-6.679-26.63-14.738.647 7.398-.203 14.839-2.626 22.262 6.903 3.119 13.087 7.719 18.646 12.96z"/><path fill="#C4E5E1" d="M719.502 1088.558c26.476-5.53 53.992-11.509 78.688-22.982-.314 2.344-.608 4.691-.927 7.034-1.063 7.816-1.962 17.904-4.091 23.83-6.829 19.008-28.292 21.771-45.61 25.118a973.113 973.113 0 01-74.631 11.433c-45.93 5.226-92.71 8.339-138.752 2.724-19.463-2.373-38.754-6.375-57.445-12.33-11.591-3.693-22.942-8.133-33.866-13.496-4.038-1.983-10.437-3.372-12.099-6.173-3.726-6.283-2.877-21.007-3.705-28.214-.259-2.26-.493-4.523-.746-6.784 25.59 15.156 55.108 21.202 84.392 25.639 35.055 5.312 70.599 7.42 106.036 6.396 34.496-.995 68.976-5.14 102.756-12.195zm67.671-519.164c23.729-5.068 47.73-10.612 69.941-20.592-4.508 47.225-12.523 94.048-17.125 141.294-3.71 38.09-7.841 76.142-11.934 114.192-8.971 83.376-17.458 166.915-28.386 250.073-.099.041-.192.058-.292.105-27.995 13.152-60.382 19.634-90.634 25.402-32.272 6.153-65.007 9.489-97.848 10.224a584.981 584.981 0 01-92.641-5.266c-31.612-4.342-64.007-9.724-92.806-24.021a5304.772 5304.772 0 01-4.066-38.551c-5.003-49.146-9.653-98.329-14.221-147.516-4.654-50.102-9.29-100.208-13.71-150.331-4.404-49.947-7.349-99.166-22.562-147.37 16.22 6.177 33.759 9.692 50.3 12.961 30.511 6.028 61.525 9.458 92.605 10.459 8.703.28 17.407.379 26.11.346-1.158 53.707-1.279 107.438-1.379 161.157-23.847-6.974-49.851-13.998-74.276-5.675-10.143 3.455-20.855 9.33-27.65 17.81-8.546 10.668-6.14 25.192-6.006 37.85.179 17.066-.003 34.13.316 51.198.65 34.736 2.186 69.459 4.798 104.104 1.965 26.048 5.535 52.885 24.359 72.599 15.937 16.691 36.205 21.75 58.1 25.517 53.447 9.195 110.269 9.674 163.608-.517 21.697-4.144 44.531-9.253 64.707-18.394 19.732-8.94 31.3-23.589 37.876-44.221 8.986-28.198 10.366-59.034 13.434-88.282 3.474-33.128 6.683-66.294 10.534-99.382 1.729-14.871 5.127-29.441 6.972-44.306 2.194-17.667 5.807-39.579-1.362-56.604-21.254-50.477-88.132-19.347-119.57 3.201-21.651 15.53-38.608 36.177-57.914 54.292 1.654-58.792 1.566-117.388.781-176.35 19.338-2.191 38.617-4.889 57.806-7.966 30.864-4.95 61.567-10.913 92.135-17.44zm-360.778 101.8c-.602-18.104 2.128-40.285 25.192-37.075 11.547 1.607 23.164 5.833 34.853 5.547 4.002-.097 7.464-6.07 2.571-7.892-14.451-5.383-41.456-12.505-55.822-3.268-14.689 9.444-15.064 27.678-14.18 43.233.231 4.101 7.522 3.557 7.386-.545zm364.134-74.582c-20.029 3.751-39.25 10.841-59.262 14.961-20.224 4.163-40.903 6.79-61.525 7.757-4.676.219-4.291 6.126.305 6.185 41.038.527 86.412-4.135 123.003-23.953 2.892-1.566.157-5.451-2.521-4.95z"/><path fill="#FFF" d="M551.609 68.926c25.54 11.847 59.699 15.457 84.984 1.447.184.053.369.1.553.152-1.054 29.846-1.052 59.724-1.126 89.586-.035 14.079.983 47.97 1.396 48.898-12.97 7.831-22.892 16.161-39.177 18.783-15.98 2.574-30.312-.415-44.088-7.788.417-.666-.79-101.517-2.542-151.078zm50.438 1.218c7.605-.482 14.835-2.458 22.118-4.111-10.029-3.847-19.927-7.846-31.162-7.81-12.249.039-22.779 2.532-33.349 6.862 13.753 4.012 27.951 5.974 42.393 5.059zm22.098 711.882c1.123-.913 2.183-1.894 3.284-2.83 2.025-61.231 2.54-122.326 3.242-183.679-27.946 2.994-56.009 4.885-84.095 5.24.73 72.049-.122 144.162-.112 216.25 28.367-4.843 55.257-16.774 77.681-34.981zm-.61 102.764c.862-26.007 1.809-52.01 2.877-78.009.228-5.547.418-11.09.617-16.635-23.659 18.201-49.599 31.37-80.544 36.436.055 42.167.44 84.324 1.681 126.453 13.672 4.462 25.623 11.867 40.683 12.728 12.647.724 22.496-1.729 33.431-7.137-3.413-9.707-.309-23.788-.005-33.873.401-13.322.821-26.642 1.26-39.963z"/><path fill="#A89D92" d="M539.841 955.417c-.173-4.055-.291-8.115-.432-12.172-22.267.108-48.428-9.136-48.61-35.349-.179-25.58 24.124-40.689 47.377-38.273-.03-13.973.009-27.946.08-41.917-1.409.16-2.785.369-4.214.496-23.2 2.058-47.185-.413-69.302-7.811-8.17-2.733-18.962-7.316-26.244-14.245-.06 29.519.455 59.04 1.616 88.537 1.209 30.734 1.572 62.328 6.273 92.764 5.953 38.548 28.74 60.61 66.499 67.769 29.41 5.576 59.507 7.72 89.418 7.546 28.078-.164 56.281-2.446 83.781-8.245 22.757-4.799 50.118-9.702 69.402-23.466 27.914-19.924 27.698-66.612 31.074-98.282 3.617-33.923 7.029-67.867 10.707-101.782 3.617-33.362 14.186-67.805 10.897-101.36-1.323-13.495-9.21-27.547-22.795-31.908-15.209-4.881-34.001 1.648-48.264 7.025-29.849 11.252-52.814 31.224-74.849 53.674-8.543 8.705-17.217 16.882-26.164 24.401-.204 6.35-.407 12.699-.655 19.056-1.104 28.268-2.163 56.537-3.229 84.805 20.549-.969 41.22 14.243 39.378 36.625-.848 10.312-10.795 17.684-18.984 22.588-5.781 3.463-16.415 8.966-23.523 6.449-.251 3.386-.36 6.043-.08 6.399 1.078 1.366.6 2.439-.459 3.019-6.147 13.896-24.276 14.783-37.598 14.293-17.707-.652-31.975-8.192-46.389-17.722-2.194.675-4.587-.039-4.711-2.914zm-9.239 34.698c-6.721 21.193-25.225 30.386-46.105 23.165-16.983-5.873-25.011-23.045-18.933-38.708 7.625-33.657 79.318-29.486 65.038 15.543zM680.58 877.872c.572-38.672 91.132-35.874 74.668 19.094-6.21 20.736-28.487 34.059-49.532 27.237-19.279-6.252-29.035-27.41-25.136-46.331zm-5.934 99.878c7.933-7.377 19.049-9.804 29.525-7.498 18.859 4.152 35.512 25.175 26.137 44.466-9.765 20.092-39.26 20.707-55.986 9.405-6.966-4.706-9.664-12.396-9.509-20.414-2.213-9.096 3.167-19.761 9.833-25.959zm-102.537 8.473c19.452-7.648 45.971 2.027 51.892 22.982 13.366 47.293-69.122 43.847-68.976 8.051-.885-12.435 6.11-26.718 17.084-31.033zm-33.594-219.377l-.014 6.763c-.03 14.843-.119 29.702-.201 44.572-1.454.177-2.907.358-4.368.497-17.896 1.713-36.142.551-53.642-3.579-12.009-2.833-37.765-9.068-40.742-23.743-4.186-20.632 34.161-30.716 48.059-31.283 17.235-.705 34.269 2.588 50.908 6.773zm208.286-527.824c1.882 2.238 3.16 4.811 3.564 7.805.344 2.552-2.127 3.158-4.005 1.978-29.206-18.333-67.681-28.689-101.343-36.081-14.494 12.278-26.718 21.553-45.993 24.722-19.946 3.279-36.109-1.875-51.357-14.162-14.379 3.654-29.505 4.406-44.02 7.852-19.207 4.559-38.218 10.705-56.182 18.891-3.229 1.472-7.63-3.005-3.777-4.889a770.285 770.285 0 016.867-3.316 3.357 3.357 0 01-.292-.437c-17.081-32.433-44.666-51.695-82.732-51.433-32.924.226-66.319 16.486-88.953 40.057-24.241 25.243-29.432 80.151-9.261 109.306 17.235 24.908 50.41 35.977 78.386 43.914 3.102-1.662 7.775.696 6.784 5.44-7.374 35.258-10.281 74.427 2.332 108.757.005.009.002.019.005.029.08.04.165.068.242.117 32.297 20.372 77.511 19.517 114.365 21.972 47.443 3.161 95.131 3.541 142.625 1.342 45.83-2.122 91.468-7.02 136.718-14.599 39.69-6.649 77.869-14.987 113.997-32.035 1.963-34.656-4.971-67.942-17.15-100.392-1.514-4.033 5.359-4.94 6.98-1.615a182.072 182.072 0 012.529 5.438c29.315-8.235 64.301-20.75 78.416-50.031 14.615-30.32 7.409-79.352-15.904-102.799-49.578-49.863-138.519-54.244-172.841 14.169zM352.75 341.387c-22.788 7.706-41.861-19.006-45.458-38.076-5.587-29.633 14.847-48.898 42.15-55.832 13.924-3.536 28.989-2.752 42.054 3.462 7.954 3.782 23.197 13.38 23.23 23.816a10.671 10.671 0 01-.69 3.795c-4.041 10.8-15.359 19.419-23.125 27.433-10.431 10.763-23.439 30.424-38.161 35.402zm100.49 130.938c-15.529 15.476-46.984 19.298-65.312 6.532-19.261-13.416-11.789-47.538 7.966-56.861.024-.011.049-.005.072-.015 6.845-6.116 14.5-10.102 25.135-10.817 10.095-.679 20.676 1.826 28.705 8.174 16.847 13.316 18.688 37.783 3.434 52.987zm-4.988-72.187c-10.797-8.69-15.248-28.514-5.536-39.246 7.859-8.686 19.551-10.244 30.667-9.392 37.98 2.907 3.809 71.933-25.131 48.638zm138.334 94.889c-12.732 1.417-22.625-10.801-17.205-22.737 1.429-3.148 8.053-2.304 7.121 1.592-1.651 6.912 3.989 12.637 10.691 11.08 6.897-1.601 7.071-7.232 8.543-12.809.787-2.979 6.157-5.565 7.723-1.664 4.334 10.802-6.394 23.372-16.873 24.538zm36.318-65.695c-9.897 30.595-44.36 38.108-70.896 22.169-23.257-13.97-21.095-51.311-11.621-73.236 7.863-21.429 30.571-32.226 53.672-24.352 30.727 10.474 37.763 47.855 28.845 75.419zm66.57-62.592c13.215-11.796 31.322-16.346 44.039-28.529 3.46-3.315 9.342 1.062 6.05 4.908-8.596 10.044-19.702 16.237-30.26 23.386 14.203 1.066 28.971 2.653 41.6 7.509 4.315 1.659 2.293 8.956-1.905 9.239-8.694.588-17.5-1.891-26.128-3.042-9.906-1.323-19.844-2.295-29.803-3.111-4.834-.397-7.263-7.083-3.593-10.36zm95.55 89.887C770.47 473.136 741 477.43 721.666 467.231c-45.134-23.809 14.594-88.049 54.343-64.315 18.943 11.312 23.668 37.088 9.015 53.711zm106.559-153.219c-4.883 17.66-23.96 41.814-45.189 34.444-13.792-4.787-26.063-23.134-35.856-33.199-8.406-8.64-22.038-18.592-25.273-30.874-3.426-13.008 20.792-25.653 30.507-28.833 14.153-4.634 29.684-3.716 43.562 1.436 25.516 9.471 39.794 29.732 32.249 57.026zM571.439 434.856c-.57 2.257-1.926 4.21-4.07 5.237-5.034 2.407-8.816-3.828-8.968-9.191-.124-4.349 2.138-8.125 8.054-6.253 4.268 1.352 6.027 6.084 4.984 10.207zm31.166-2.587c-1.359 10.201-16.344 3.128-9.798-4.976.536-.661.644-1.318.49-1.913 1.268-1.118 2.775-1.826 4.624-1.387 3.453.82 5.111 5.066 4.684 8.276z"/><path fill="#F498AC" d="M876.956 468.15c-.793.426-1.596.818-2.394 1.235.839-3.598 1.236-7.37 1.321-11.222 24.562 13.653 26.618 46.931 4.651 65.764-21.807 18.698-52.705 26.681-80.068 33.003-58.324 13.476-117.806 24.157-177.407 29.925-61.287 5.93-123.888 5.708-184.694-4.712-29.762-5.099-65.292-10.233-89.706-29.199-24.72-19.204-29.148-49.749-8.169-71.879 1.61 7.918 4.63 15.209 10.47 20.202.008.006.017.007.024.013.137.466.419.927.931 1.353 16.933 14.079 36.552 18.899 58.002 21.764 23.583 3.149 47.369 5.193 71.112 6.654 46.653 2.87 93.372 2.897 140.017-.141 47.803-3.113 95.376-9.059 142.501-17.634 38.944-7.086 84.391-13.171 117.269-37.157 4.503-3.284 1.758-10.98-3.86-7.969zm-109.557-60.474c-17.899-8.115-31.615.869-45.063 10.896-9.961 11.078-11.378 32.596.983 40.96 13.899 9.404 38.588 7.123 51.352-2.983 17.627-13.955 12.343-39.979-7.272-48.873zM407.432 274.052c-32.19-41.158-117.247-11.395-85.796 41.803 4.092 6.922 11.235 14.784 19.624 16.524 13.316 2.761 22.044-10.502 29.836-18.497 11.266-11.561 29.818-24.736 36.336-39.83zm21.944 144.908c-14.638-2.424-25.099 4.961-35.941 13.882-11.192 9.209-13.247 31.51-.149 40.407 15.099 10.256 41.269 6.807 53.961-5.498 17.712-17.173 4.743-45.046-17.871-48.791zm421.543-166.28c-21.851-6.456-44.584-.827-58.354 17.427 7.079 14.661 23.558 26.562 34.661 37.936 7.781 7.97 15.044 19 26.318 20.312 12.986 1.51 22.812-9.38 27.601-20.547 11.365-26.513-4.692-47.584-30.226-55.128z"/></svg>