<svg xmlns="http://www.w3.org/2000/svg" viewBox="0 0 1200 1200"><path fill="#3A6854" d="M386.744 875.028c-4.304 8.175-9.772 15.573-16.056 22.292-4.557-2.274-8.914-4.978-13.091-8.088a218.981 218.981 0 0014.836-12.426 128.788 128.788 0 0011.416-11.866c.758 3.434 1.709 6.814 2.895 10.088zm-44.755 6.462c-30.355 16.989-66.728 28.818-100.53 29.673-15.262.386-31.558-1.933-48.012-5.713-1.82.178-3.45.293-4.828.33-1.044.027-2.1.042-3.159.042-27.752 0-60.403-9.538-83.865-25.792 13.782 18.761 36.108 31.565 65.633 36.833 27.07 4.835 57.403 3.51 95.462-4.166 15.624-3.153 35.984-7.918 54.888-16.859 8.276-3.916 16.43-8.732 24.411-14.348zm174.625 1.555c-.048.05-.091.105-.139.155 2.668 2.505 5.373 4.538 6.902 5.454 11.649 6.976 22.576 14.188 34.452 20.008a318.397 318.397 0 0028.101-7.433c-23.38-3.907-47.82-9.043-69.316-18.184zm208.392 17.345c-18.148 3.778-36.786 6.018-55.796 6.771-.022.025-.035.054-.057.079a123.938 123.938 0 01-18.589 16.868c25.933-1.252 51.562-5.819 73.935-11.322 34.977-8.603 88.226-28.052 86.612-71.447-.145-3.891-1.423-19.601-4.554-24.336-.49 15.044-4.906 29.845-12.971 42.668-16.815 26.744-42.899 35.376-68.58 40.719zm-78.207 6.914a380.958 380.958 0 01-27.972-1.66c-11.378 4.808-23.186 8.966-35.24 12.46 12.056 3.103 24.436 4.94 36.871 5.786 9.272-4.316 18.108-9.675 26.341-16.586zm18.746-20.407c-25.843 1.144-51.857-1.269-76.997-7.395-15.992-3.896-54.648-18.169-72.934-13.934 23.843 11.728 53.56 17.354 81.017 21.709 43.451 6.892 85.577 6.2 125.216-2.051 21.849-4.546 43.887-11.681 57.693-32.435-29.097 26.678-76.09 32.429-113.995 34.106zm-256.36 70.342c-37.315-9.283-70.265-18.892-95.647-42.556-.068-.064-.115-.14-.18-.206-16.997 6.698-34.02 10.66-47.607 13.401-24.226 4.886-45.578 7.31-65.1 7.31-12.473 0-24.186-1.001-35.44-2.967 20.145 5.497 41.092 7.82 61.893 10.07 25.426 2.751 48.011 3.095 70.44-2.466 4.041-1.002 8.081-2.264 12.128-3.669 29.359 16.787 61.919 28.556 95.116 34.684 27.192 5.019 55.088 6.365 82.554 2.861 11.74-1.498 34.182-2.238 46.607-10.785-16.778 2.416-33.09 3.65-49.096 3.65-25.729.001-50.694-3.112-75.668-9.327zm1.144-28.507c-8.619-2.931-23.728-7.223-36.832-13.328-10.311-3.994-20.116-9.39-29.125-16.844a179.44 179.44 0 01-15.499 8.949c22.158 18.191 51.27 26.543 84.051 34.698 39.642 9.858 79.391 11.479 122.604 4.811-14.565-5-30.917-4.081-46.55-4.402-26.722-.547-53.346-5.279-78.649-13.884zm727.605-549.283c-5.726 22.807-17.085 44.617-33.061 62.057-24.547 26.789-54.655 48.247-85.934 69.681-32.604 22.344-69.133 43.433-111.671 64.47-50.637 25.043-102.681 46.395-146.91 63.977-19.169 7.619-37.781 14.767-56.116 20.876a167.422 167.422 0 01-15.275 15.133c2.966.793 5.923 1.608 8.856 2.462 15.028 4.375 30.168 9.703 44.322 16.614 105.366-31.459 207.186-74.789 302.886-128.948 26.091-14.765 52.088-30.617 72.59-52.49 33.961-36.231 42.019-89.451 20.313-133.832zm-50.511-40.432c-54.703-14.961-113.529-16.435-172.562-7.945l-162.816 54.253c-12.023 4.008-24.367 8.173-36.269 12.988.085.158.176.311.26.47 6.086 2.987 11.797 6.681 16.857 11.302 13.52 12.349 21.876 28.798 26.315 47.426 28.594-9.575 57.94-18.589 86.547-27.367 67.956-20.853 138.224-42.417 202.945-72.664a7.742 7.742 0 0110.296 3.737 7.743 7.743 0 01-3.737 10.296c-65.702 30.707-136.496 52.431-204.96 73.442-29.236 8.97-59.244 18.192-88.345 27.979 3.106 25.502.09 53.842-6.569 81.008 76.409-24.468 113.153-40.889 234.393-98.216a7.744 7.744 0 0110.311 3.691 7.74 7.74 0 01-3.691 10.311c-127.049 60.075-161.915 75.522-245.933 102.033-7.78 25.26-18.352 48.593-29.551 66.475 11.066-4.077 22.288-8.455 33.717-12.998 43.945-17.467 95.626-38.671 145.767-63.469 41.875-20.708 77.786-41.433 109.783-63.363 30.508-20.904 59.832-41.784 83.266-67.363 17.711-19.333 29.084-44.628 32.287-70.134-10.071-10.743-23.964-17.968-38.311-21.892z"/><path fill="#BEE595" d="M382.157 839.722c.184-2.174.448-4.334.805-6.474a91.843 91.843 0 002.646-2.537 54.334 54.334 0 01-3.451 9.011zm52.329 2.993c-1.319-.505-2.109-.59-2.496-.59-.197 0-.287.021-.29.024-.405.563-.85 3.985.454 8.057 2.251 7.026 8.236 13.464 15.249 16.593 1.948-9.509-3.834-20.61-12.917-24.084zm18.426-41.176c-.24-2.892-.29-5.773-.248-8.642-1.335.061-3.042.68-4.902 1.817-2.039 1.247-3.265 2.893-3.528 3.679.36.3 1.492.959 4.747 1.952l3.931 1.194zm38.589 81.318c.623.629 3.374.569 6.72-1.198a36.244 36.244 0 006.438-4.34 122.191 122.191 0 01-12.219-7.437c-1.014 2.871-1.615 5.887-1.68 8.929-.07 3.062.605 3.907.741 4.046zm15.096 32.573c-13.978.674-27.776.387-41.08-.983-6.433-.66-12.935-1.198-19.449-1.737-10.439-.861-20.701-1.725-30.64-3.06-13.666-7.127-23.335-19.855-28.684-34.622-1.186-3.274-2.137-6.654-2.895-10.089 17.028-20.166 22.613-41.373 17.023-64.426a30.296 30.296 0 00-.119-3.193c.547-.536 1.075-1.089 1.646-1.602 6.101-5.492 13.678-9.094 21.429-11.796 6.392-2.228 13.113-3.881 19.856-4.489a31.817 31.817 0 00-3.989 2.055c-7.455 4.548-13.715 13.628-9.842 22.813 3.095 7.352 10.874 9.724 14.62 10.865l11.514 3.498c3.908 14.242 11.114 27.733 21.209 38.335a92.1 92.1 0 005.144 4.972c-2.44 5.185-3.851 10.847-3.973 16.571-.121 5.601 1.322 9.973 4.296 13.001 2.66 2.705 6.266 4.07 10.317 4.07 2.841-.002 5.904-.712 9.01-2.061.789 3.088 2.674 6.025 3.98 9.016 1.77 4.053 2.413 8.847.627 12.862zm-67.688-84.291c-8.393-3.213-13.34-.191-15.54 1.894-5.516 5.219-5.071 14.55-3.017 20.956 3.649 11.398 13.473 21.34 25.025 25.322h.003c.72.248 2.233.772 4.088.772a9.17 9.17 0 003.029-.505c2.95-1.05 5.044-3.464 6.23-7.174 5.217-16.267-3.857-35.165-19.818-41.265zm188.892-11.128c-1.483.266-2.923.929-3.788 1.51 4.971 4.729 13.727 4.908 22.287 4.729 2-.051 3.228-.29 3.942-.511-.39-.418-.989-.938-1.821-1.437-5.849-3.504-14.717-5.344-20.62-4.291zm-41.815-17.86c.623.082 1.519-.375 2.351-1.05 2.142-1.728 3.328-4.711 2.956-7.434-.502-3.655-4.257-9.246-6-9.579-1.831 1.065-3.374 10.442-2.215 14.732.506 1.863 1.952 3.297 2.908 3.331zm-78.658-53.776c.216-3.439.79-6.82 1.678-10.133 31.122-16.168 66.674-18.489 101.394-18.489 2.269 0 4.539.012 6.799.027 36.042.257 88.6 3.401 128.738 27.621h.003c14.75 8.898 27.24 20.281 37.122 33.83 6.188 8.484 8.43 17.473 6.659 26.713-2.124 11.113-10.094 21.742-21.857 29.158-14.305 9.019-31.688 13.246-46.804 16.19-5.701 1.11-11.388 2.047-17.065 2.9-50.964 2.009-102.507-10.069-146.96-35.127-14.606-8.233-28.75-18.083-38.532-31.7-8.031-11.179-10.382-23.027-11.197-36.768 1.995-.299 2.014-3.9.022-4.222zm147.455 65.294c-8.517-5.101-20.239-7.458-29.161-5.858-4.29.766-12.09 3.843-14.099 10.514-.735 2.439-1.204 7.259 3.918 12.145 7.631 7.289 18.568 8.236 26.768 8.233 1.579 0 3.056-.033 4.39-.067 11.298-.272 15.019-5.313 16.151-9.491 1.543-5.679-1.51-11.609-7.967-15.476zm16.254-11.328c5.894 5.873 18.217 8.012 29.355 8.012 8.668 0 16.62-1.298 20.248-3.141 1.443-.729 3.089-1.731 4.348-3.622 1.062-1.613 2.118-4.369 1.098-8.342 0-.003-.003-.006-.003-.006-2.714-10.526-18.118-17.534-31.936-19.019-12.366-1.322-21.582 2.079-25.246 9.364-3.113 6.195-2.336 12.3 2.136 16.754zm-71.069-57.009c-.012 5.101 2.085 9.513 6.063 12.753 6.308 5.138 16.762 6.569 26.462 6.569 12.051 0 22.928-2.212 23.201-2.266 4.251-.887 7.038-2.92 8.29-6.057 1.84-4.629-.49-9.649-5.936-12.789-4.269-2.46-37.718-17.745-51.639-9.727-4.142 2.383-6.429 6.473-6.441 11.517zm-28.853 56.719c1.921 7.113 7.855 12.248 14.417 12.487.166.006.333.009.499.009 3.479 0 7.044-1.34 10.088-3.8 5.482-4.414 8.408-11.779 7.452-18.762-.756-5.519-4.826-13.597-10.33-17.564-4.012-2.893-7.694-2.968-10.084-2.517-2.496.469-6.054 1.958-8.829 6.375-4.396 7.001-4.69 18.304-3.213 23.772zm142.06-5.247c-2.714-3.122-10.847-7.237-20.35-8.257a35.898 35.898 0 00-3.818-.215c-5.204 0-8.284 1.334-9.035 2.826-.868 1.728-.554 2.039-.191 2.402 4.862 4.845 25.806 5.141 33.394 3.244zm-99.317-48.325c5.455 4.442 20.989 4.245 32.078 2.92-11.873-5.056-30.499-9.849-33.503-6.738.009 0-.073.206-.073.702-.002 1.361.418 2.235 1.498 3.116zm106.225 48.31l-5.979 1.54c0 .061.003.106.006.136l5.973-1.676zm-31.117-121.146a167.422 167.422 0 0015.275-15.133c-33.349 11.112-65.77 18.692-98.845 19.071-.052.003-.103.01-.155.013a6.742 6.742 0 01-.427.012c-.036 0-.071-.01-.107-.011-.633.005-1.263.041-1.896.041-7.346 0-14.717-.36-22.148-1.12-29.388-3.001-55.076-12.565-74.289-27.663a115.434 115.434 0 01-6.873-5.887c.96 2.521 1.982 5.021 3.148 7.473 8.484 17.839 22.377 32.182 38.951 42.285-8.46 6.42-16.025 13.782-21.894 21.853 31.244-11.395 64.935-12.492 97.6-12.288 37.869.272 93.232 3.661 136.635 29.848h-.003c16.526 9.97 30.535 22.744 41.636 37.963 6.953 9.532 10.352 20.012 10.146 30.696.121.356.19.737.259 1.117 5.976-22.86.508-49.921-13.781-69.504-12.772-17.503-30.462-30.123-50.055-39.69-14.154-6.911-29.294-12.239-44.322-16.614a413.204 413.204 0 00-8.855-2.462zM256.59 830.407c-1.882.726-2.033 1.48-2.042 2.466-.008.977.262 2.065.689 3.172 3.12-.856 6.144-1.779 9.049-2.773-.951-.911-2.004-1.722-3.136-2.299-1.722-.878-3.256-1.065-4.56-.566zm-31.219-99.324c-76.779-17.206-195.923-24.584-172.333 50.129 3.632 11.503 10.935 21.303 20.825 29.502 3.385-8.586 9.298-17.877 18.955-27.692 31.915-32.441 81.45-48.821 132.553-51.939zm-55.614 111.702c-30.534-2.459-60.446-9.898-82.687-22.908 2.472-8.432 8.059-17.116 16.792-25.993 32.771-33.309 86.001-48.159 139.168-48.159 12.359 0 24.689.881 36.783 2.441.473.246.949.492 1.374.731 12.605 7.096 25.593 16.718 28.498 30.887.362 1.765.538 3.531.566 5.288-4.108-1.695-8.228-2.865-12.164-3.351-6.039-.729-14.572.539-18.635 6.614-1.625 2.427-3.74 7.585.363 14.859 2.388 4.234 9.382 8.076 17.369 10.727a61.606 61.606 0 01-5.437 5.063c-4.256 3.494-9.444 6.633-15.353 9.417-2.538-3.524-5.911-6.582-9.617-8.47-4.926-2.511-9.988-2.886-14.65-1.089-6.284 2.427-9.918 7.504-9.973 13.927-.017 2.032.356 4.105.999 6.146a227.4 227.4 0 01-18.855 2.997c-1.199-1.113-2.666-2.22-4.497-3.285a68.79 68.79 0 00-34.147-9.295c-10.753.033-14.214 6.042-15.174 8.668-.565 1.545-.785 3.157-.723 4.785zm1.501-38.002c2.605 4.605 7.519 6.929 14.638 6.929 1.071 0 2.194-.051 3.365-.157 6.472-.584 13.349-1.365 20.015-3.903 4.814-1.833 23.512-13.219 23.164-25.158-.091-3.144-1.573-8.838-10.454-11.637-4.091-1.289-8.196-.986-11.31-.584a66.021 66.021 0 00-32.523 13.718c-7.821 6.199-10.529 14.359-6.895 20.792zm125.313-10.759c-3.38-.418-6.212.536-6.793 1.174.061.03.139.681.832 1.909 1.6 1.964 7.936 4.5 14.53 6.243a43.069 43.069 0 002.747-5.786c-3.876-1.862-7.767-3.103-11.316-3.54zm-111.063 47.702c-2.272 0-3.304.517-3.486.702.025.083.174.509.52 1.101 5.759.204 11.503.231 17.188.091a56.199 56.199 0 00-14.14-1.894h-.082zm2.642-42.516c5.613-.502 11.522-1.162 16.714-3.141 4.678-1.779 13.785-9.249 15.05-12.714-.318-.182-.838-.424-1.652-.681-1.776-.563-4.142-.354-5.994-.112a53.617 53.617 0 00-26.42 11.143c-2.823 2.236-3.84 4.472-3.791 5.026h.003c.035.001 1.173.936 6.09.479zm350.025-329.639c6.26 5.676 14.472 12.045 22.565 11.443 1.582-.13 2.302-.517 2.433-.644.163-.215.393-1.313-.076-2.584-.79-2.148-2.817-4.284-4.889-6.272-10.448-10.022-18.725-15.582-24.717-16.637a200.625 200.625 0 00-3.552 5.546c1.745 2.533 4.434 5.698 8.236 9.148zm72.77-21.933c.1-.133.378-.841.306-2.227-.179-3.307-2.015-6.92-5.041-9.912-4.439-4.384-12.336-8.911-15.349-8.911h-.03c-.315 2.436 3.903 10.227 11.01 17.043 0 .003 0 .003.003.003 1.625 1.558 4.06 3.7 6.451 4.293 1.294.317 2.444-.056 2.65-.289zM492.241 612.496c-1.66-18.209-.024-37.034 2.955-55.123 4.875-29.607 13.722-57.779 26.494-82.416 1.97 2.205 4.059 4.256 6.076 6.088 8.06 7.313 18.829 15.513 31.736 15.513.829 0 1.667-.036 2.511-.106 4.95-.408 9.119-2.163 12.054-5.071 4.696-4.641 6.094-12.081 3.567-18.947-1.879-5.104-5.452-8.98-8.702-12.097v-.003c-5.208-4.992-14.817-14.2-25.755-18.63 32.395-40.228 79.802-62.982 142.357-52.31 2.467.421 4.931.924 7.388 1.477 21.376 30.076 32.315 71.948 30.018 119.132-2.015 41.433-12.487 76.286-31.128 103.586-20.554 30.104-52.263 48.49-87.036 50.506-7.494.075-15.001-.22-22.541-.991-26.465-2.702-49.388-11.149-66.289-24.432-8.877-6.978-16.748-15.674-23.705-26.176zm149.356-42.706c-4.611-8.726-16.922-23.612-30.326-26.402-6.197-1.295-12.018.064-16.838 3.918-6.408 5.122-8.88 12.242-6.965 20.042 3.652 14.883 23.658 29.458 34.846 31.642 1.731.339 3.422.505 5.053.505 5.422 0 10.154-1.846 13.41-5.331 5.474-5.869 5.783-14.979.82-24.374zm31.927-93.756c-3.673-8.278-11.298-13.255-20.399-13.313h-.163c-9.833 0-18.786 5.676-22.835 14.496-5.334 11.612-3.703 33.93 3.292 45.055 4.278 6.808 10.853 10.859 17.603 10.859h.13c8.708-.064 16.29-6.463 20.287-17.119 2.532-6.75 3.903-14.42 4.315-24.136.215-5.137.094-10.61-2.23-15.842zm-68.957-13.068c1.576.39 3.171.581 4.738.581 5.622-.003 10.932-2.427 14.084-6.681 2.427-3.277 3.579-7.519 3.328-12.272-.381-7.219-3.8-14.363-9.622-20.115-.148-.151-15.204-14.795-28.447-13.24-4.587.533-8.454 2.965-10.892 6.853-8.911 14.205 9.567 33.082 13.361 36.722 2.905 2.788 7.462 6.667 13.45 8.152zm-89.587 75.415c-2.965 7.44-6.357 22.756-4.23 32.002 1.703 7.398 7.667 12.832 14.502 13.219.287.015.575.024.859.024 6.118 0 11.537-3.734 16.118-11.11 6.469-10.42 9.785-19.885 10.142-28.94.2-5.138-.641-9.401-2.572-13.028-3.25-6.115-8.487-9.431-14.593-9.101-8.952.489-17.103 9.091-20.226 16.934zm201.057-139.598c10.326 19.377 17.33 41.883 20.594 66.482a1506.076 1506.076 0 0122.578-7.754c-4.44-18.628-12.795-35.077-26.315-47.426-5.06-4.621-10.771-8.315-16.857-11.302zm12.487 179.821a7.717 7.717 0 01-2.287.348c-.053 0-.104-.011-.157-.013-5.436 15.905-12.603 30.397-21.473 43.389-8.161 11.952-17.917 22.233-28.816 30.701 14.836-4.12 29.83-9.156 45.125-14.792 11.199-17.882 21.772-41.215 29.551-66.475a3684.089 3684.089 0 01-21.943 6.842zM529.37 544.111c-2.502 6.284-4.617 18.036-3.522 22.798.088.378.251.708.414.95.529-.427 1.492-1.395 2.805-3.513 5.016-8.081 7.576-15.074 7.824-21.376.088-2.287-.169-4.021-.772-5.153a6.479 6.479 0 00-.487-.787c-1.708.664-4.997 3.904-6.262 7.081zm232.585-71.177a1455.26 1455.26 0 00-22.983 7.92c-.264.094-.532.146-.799.21a260.24 260.24 0 01.242 29.69c-.881 18.103-3.325 35.053-7.258 50.819 8.557-2.657 16.59-5.184 24.229-7.63 6.66-27.167 9.675-55.507 6.569-81.009zm-153.842 85.619a6.44 6.44 0 00-1.301-.148c-1.017 0-1.852.321-2.705 1.002-1.864 1.492-2 2.602-1.594 4.251 2.012 8.203 16.886 18.98 22.774 20.133 2.563.493 3.994-.006 4.163-.197.339-.36.372-2.926-1.552-6.566-3.474-6.579-12.908-17.044-19.785-18.475zm44.915-80.34h-.057c-3.122 0-7.029 1.685-8.768 5.467-3.104 6.765-1.8 23.779 2.33 30.344 0 0 0 .003.003.003 1.316 2.097 3.201 3.613 4.49 3.613h.012c1.858-.012 4.39-3.053 5.897-7.071 1.939-5.171 3.001-11.316 3.34-19.343.157-3.761.064-6.714-.911-8.908-1.495-3.37-4.272-4.093-6.336-4.105z"/><path d="M795.576 772.1c-11.101-15.219-25.11-27.993-41.636-37.963h.003c-43.403-26.187-98.766-29.576-136.635-29.848-32.665-.204-66.357.893-97.6 12.288-15.057 5.492-29.549 13.362-43.077 24.655a56.454 56.454 0 00-9.298 9.858c-31.519.986-59.337 7.468-82.69 19.382-7.369-6.248-17.199-12.17-29.54-17.733-36.782-16.578-83.887-24.452-129.731-21.655-51.103 3.118-100.638 19.497-132.553 51.939-9.657 9.815-15.57 19.106-18.955 27.692-2.401 6.091-3.522 11.818-3.725 17.111 0 .032-.009.062-.009.094l.001.051a47.23 47.23 0 00.154 5.844c2.476 51.593 37.295 88.141 94.221 98.296.233.042.474.069.707.11 11.254 1.966 22.967 2.967 35.44 2.967 19.521 0 40.873-2.424 65.1-7.31 13.587-2.74 30.61-6.702 47.607-13.401.065.066.112.142.18.206 25.382 23.664 58.331 33.273 95.647 42.556 24.974 6.215 49.938 9.328 75.668 9.328 16.006 0 32.318-1.234 49.096-3.65 15.465-2.227 31.324-5.453 47.743-9.738 24.29-6.339 47.884-13.565 68.871-29.071a123.938 123.938 0 0018.589-16.868c.022-.025.036-.054.057-.079 19.01-.753 37.648-2.993 55.796-6.771 25.682-5.343 51.766-13.975 68.579-40.719 8.065-12.823 12.48-27.624 12.971-42.668.137-4.202.021-8.42-.472-12.622-.019-.162-.075-.309-.103-.467-.069-.38-.138-.761-.259-1.117.204-10.685-3.195-21.166-10.147-30.697zm-309.022-18.977c7.146-5.964 14.666-10.837 22.451-14.881 31.122-16.168 66.674-18.489 101.394-18.489 2.269 0 4.539.012 6.799.027 36.042.257 88.6 3.401 128.738 27.621h.003c14.75 8.898 27.24 20.281 37.122 33.83 6.188 8.484 8.43 17.473 6.659 26.713-2.124 11.113-10.094 21.742-21.857 29.158-14.305 9.019-31.688 13.246-46.804 16.19-5.701 1.11-11.388 2.047-17.065 2.9-68.379 10.279-134.58 2.008-188.04-23.826-18.723-9.047-41.433-24.517-43.315-46.834-1.038-12.349 4.033-24.161 13.915-32.409zm71.275 155.539c-16.999 3.679-34.248 5.95-51.232 6.768-13.978.674-27.776.387-41.08-.983-6.433-.66-12.935-1.198-19.449-1.737-10.439-.861-20.701-1.725-30.64-3.06-16.011-2.15-31.164-5.555-44.74-12.33-4.557-2.274-8.914-4.978-13.091-8.088a218.981 218.981 0 0014.836-12.426 128.788 128.788 0 0011.416-11.866c17.028-20.166 22.613-41.373 17.023-64.426a30.296 30.296 0 00-.119-3.193c-.463-5.104-2.23-10.052-5.298-14.837 18.083-8.579 38.468-13.665 61.881-15.384a70.674 70.674 0 00-3.025 10.356c-3.417-.244-7.008.421-10.626 1.978a31.817 31.817 0 00-3.989 2.055c-7.455 4.548-13.715 13.628-9.842 22.813 3.095 7.352 10.874 9.724 14.62 10.865l11.514 3.498c3.908 14.242 11.114 27.733 21.209 38.335a92.1 92.1 0 005.144 4.972c-2.44 5.185-3.851 10.847-3.973 16.571-.121 5.601 1.322 9.973 4.296 13.001 2.66 2.705 6.266 4.07 10.317 4.07 2.841-.002 5.904-.712 9.01-2.061.669-.291 1.338-.574 2.009-.928a48.963 48.963 0 0012.474-9.423c.048-.05.091-.104.139-.155 21.496 9.14 45.937 14.276 69.316 18.183a318.626 318.626 0 01-28.1 7.432zM447.762 794.714c1.86-1.136 3.566-1.756 4.902-1.817-.042 2.869.007 5.75.248 8.642l-3.93-1.194c-3.256-.992-4.387-1.652-4.747-1.952.263-.787 1.488-2.433 3.527-3.679zm56.897 82.605a36.208 36.208 0 01-6.438 4.34c-3.346 1.767-6.097 1.827-6.72 1.198-.136-.139-.811-.983-.741-4.045.065-3.042.666-6.058 1.68-8.929a122.37 122.37 0 0012.219 7.436zm-400.798-83.434c32.771-33.309 86.001-48.159 139.168-48.159 12.359 0 24.689.881 36.783 2.441 24.812 3.201 48.548 9.512 68.924 18.696 18.275 8.236 39.418 21.249 36.362 36.465-8.311 41.364-157.663 85.91-196.897 86.966-36.916.977-87.493-19.074-99.81-47.412a33.379 33.379 0 01-2.539-9.205c-.099-1.842-.22-3.673-.224-5.564.133-2.716.629-5.463 1.442-8.236 2.472-8.432 8.059-17.116 16.791-25.992zM262.69 912.696c-38.06 7.676-68.392 9.001-95.462 4.166-29.524-5.267-51.851-18.071-65.633-36.833 23.462 16.254 56.113 25.792 83.865 25.792 1.059 0 2.115-.015 3.159-.042 1.378-.037 3.008-.152 4.828-.33 34.686-3.383 145.79-31.92 189.515-72.201a91.843 91.843 0 002.646-2.537c-.852 3.029-2.004 6.03-3.451 9.011-4.195 8.644-10.881 17.125-20.193 25.664a198.846 198.846 0 01-19.975 16.103c-7.981 5.616-16.135 10.432-24.411 14.347-18.904 8.942-39.264 13.707-54.888 16.86zm315.088 25.494c-14.507 3.787-28.548 6.715-42.248 8.829-43.213 6.667-82.962 5.046-122.604-4.811-32.781-8.155-61.893-16.508-84.051-34.698a179.29 179.29 0 0015.499-8.949c9.009 7.454 18.813 12.85 29.125 16.844 22.358 8.661 47.087 10.748 71.297 12.746 6.408.53 12.808 1.056 19.137 1.71 9.337.959 18.892 1.431 28.586 1.431 30.014 0 61.288-4.554 91.068-13.187 12.054-3.494 23.862-7.651 35.24-12.46a380.99 380.99 0 0027.972 1.66c-8.233 6.911-17.069 12.27-26.342 16.587-13.529 6.295-27.957 10.455-42.679 14.298zm144.069-52.964c-39.639 8.251-81.765 8.944-125.216 2.051-27.457-4.355-57.174-9.981-81.017-21.709-10.41-5.121-19.714-11.39-27.199-19.249-6.856-7.201-12.133-16.177-15.587-25.799 10.307 11.357 24.068 19.843 36.385 25.796 40.668 19.652 88.189 29.694 138.402 29.691 24.974 0 50.619-2.484 76.407-7.507 16.523-3.219 35.636-7.912 52.102-18.29a73.746 73.746 0 008.26-6.044c-1.174 2.481-2.443 4.921-3.912 7.257-.299.475-.625.906-.932 1.368-13.806 20.753-35.844 27.889-57.693 32.435zM609.305 463.547c5.622-.003 10.932-2.427 14.084-6.681 2.427-3.277 3.579-7.519 3.328-12.272-.381-7.219-3.8-14.363-9.622-20.115-.148-.151-15.204-14.795-28.447-13.24-4.587.533-8.454 2.965-10.892 6.853-8.911 14.205 9.567 33.082 13.361 36.722 2.905 2.787 7.461 6.665 13.449 8.151 1.577.392 3.171.582 4.739.582zm-7.464-19.915c-7.107-6.817-11.325-14.608-11.01-17.043h.03c3.014 0 10.91 4.526 15.349 8.911 3.026 2.992 4.862 6.605 5.041 9.912.073 1.386-.206 2.094-.306 2.227-.206.233-1.355.605-2.65.29-2.39-.593-4.826-2.735-6.451-4.293-.003-.001-.003-.001-.003-.004zm51.284 19.089h-.163c-9.833 0-18.786 5.676-22.835 14.496-5.334 11.612-3.703 33.93 3.292 45.055 4.278 6.808 10.853 10.859 17.603 10.859h.13c8.708-.064 16.29-6.463 20.287-17.119 2.532-6.75 3.903-14.42 4.315-24.136.215-5.138.094-10.611-2.23-15.842-3.673-8.278-11.298-13.255-20.399-13.313zm7.15 28.505c-.339 8.027-1.401 14.172-3.34 19.343-1.507 4.018-4.039 7.059-5.897 7.071h-.012c-1.289 0-3.174-1.516-4.49-3.613-.003 0-.003-.003-.003-.003-4.13-6.566-5.434-23.579-2.33-30.344 1.74-3.782 5.646-5.467 8.768-5.467h.057c2.064.012 4.841.735 6.336 4.106.974 2.193 1.068 5.146.911 8.907zm-49.004 52.162c-6.197-1.295-12.018.064-16.838 3.918-6.408 5.122-8.88 12.242-6.965 20.042 3.652 14.883 23.658 29.458 34.846 31.642 1.731.339 3.422.505 5.053.505 5.422 0 10.154-1.846 13.41-5.331 5.473-5.87 5.782-14.98.82-24.375-4.611-8.725-16.922-23.611-30.326-26.401zm18.179 40.205c-.169.191-1.601.69-4.163.197-5.888-1.153-20.762-11.93-22.774-20.133-.405-1.649-.269-2.759 1.594-4.251.853-.681 1.688-1.002 2.705-1.002.402 0 .832.051 1.301.148 6.877 1.431 16.311 11.897 19.785 18.475 1.924 3.64 1.89 6.206 1.552 6.566zm-118.7-13.21c1.703 7.398 7.667 12.832 14.502 13.219.287.015.575.024.859.024 6.118 0 11.537-3.734 16.118-11.11 6.469-10.42 9.785-19.885 10.142-28.94.2-5.138-.641-9.401-2.572-13.028-3.25-6.115-8.487-9.431-14.593-9.101-8.953.49-17.104 9.092-20.227 16.935-2.964 7.439-6.356 22.755-4.229 32.001zm26.142-27.412c-.248 6.302-2.808 13.295-7.824 21.376-1.313 2.118-2.275 3.086-2.805 3.513a2.897 2.897 0 01-.414-.95c-1.095-4.762 1.02-16.514 3.522-22.798 1.265-3.177 4.554-6.417 6.263-7.08.127.172.294.424.487.787.601 1.13.859 2.864.771 5.152zm-13.712-102.31c-8.103 3.044-10.302 8.681-10.892 11.77-1.475 7.718 3.42 15.832 9.403 22.526 1.97 2.205 4.059 4.256 6.076 6.088 8.06 7.313 18.829 15.513 31.736 15.513.829 0 1.667-.036 2.511-.106 4.95-.408 9.119-2.163 12.054-5.071 4.696-4.641 6.094-12.081 3.567-18.947-1.879-5.104-5.452-8.98-8.702-12.097v-.003c-5.208-4.992-14.817-14.2-25.755-18.63-6.415-2.598-13.286-3.56-19.998-1.043zm10.311 14.216c5.992 1.054 14.268 6.614 24.717 16.637 2.073 1.988 4.1 4.124 4.889 6.272.469 1.271.239 2.369.076 2.584-.13.127-.85.514-2.433.644-8.094.602-16.305-5.767-22.565-11.443-3.802-3.45-6.491-6.616-8.235-9.148-1.451-2.107-2.259-3.783-2.406-4.749.215-.13.56-.309 1.092-.508 1.401-.528 3.03-.612 4.865-.289zm166.901 355.476c8.668 0 16.62-1.298 20.248-3.141 1.443-.729 3.089-1.731 4.348-3.622 1.062-1.613 2.118-4.369 1.098-8.342 0-.003-.003-.006-.003-.006-2.714-10.526-18.118-17.534-31.936-19.019-12.366-1.322-21.582 2.079-25.246 9.364-3.113 6.193-2.336 12.299 2.136 16.753 5.894 5.874 18.217 8.013 29.355 8.013zm19.691-13.564l-5.973 1.676a1.392 1.392 0 01-.006-.136l5.979-1.54zm-40.111-5.631c.75-1.492 3.83-2.826 9.035-2.826 1.165 0 2.439.067 3.818.215 9.504 1.02 17.636 5.135 20.35 8.257-7.588 1.897-28.532 1.601-33.394-3.243-.363-.363-.678-.675.191-2.403zm-94.44 23.38c.166.006.333.009.499.009 3.479 0 7.044-1.34 10.088-3.8 5.482-4.414 8.408-11.779 7.452-18.762-.756-5.519-4.826-13.597-10.33-17.564-4.012-2.893-7.694-2.968-10.084-2.517-2.496.469-6.054 1.958-8.829 6.375-4.396 7.001-4.69 18.305-3.213 23.773 1.921 7.112 7.855 12.247 14.417 12.486zm-.239-30.451c1.743.333 5.498 5.924 6 9.579.372 2.723-.814 5.706-2.956 7.434-.832.675-1.728 1.132-2.351 1.05-.956-.033-2.402-1.467-2.908-3.331-1.158-4.29.385-13.667 2.215-14.732zm69.49 29.582c-8.517-5.101-20.239-7.458-29.161-5.858-4.29.766-12.09 3.843-14.099 10.514-.735 2.439-1.204 7.259 3.918 12.145 7.631 7.289 18.568 8.236 26.768 8.233 1.579 0 3.056-.033 4.39-.067 11.298-.272 15.019-5.313 16.151-9.491 1.543-5.679-1.51-11.609-7.967-15.476zm-8.484 12.581c-8.56.179-17.316 0-22.287-4.729.865-.581 2.306-1.244 3.788-1.51 5.903-1.053 14.771.787 20.62 4.29.832.499 1.431 1.02 1.821 1.437-.713.221-1.942.46-3.942.512zm-366.847-37.915c-1.625 2.427-3.74 7.585.363 14.859 2.388 4.234 9.382 8.076 17.369 10.727 6.816 2.262 14.354 3.66 20.398 3.66 2.227 0 4.251-.188 5.957-.59 5.667-1.334 9.204-5.11 9.458-10.106v-.003c.321-6.366-4.735-10.55-6.396-11.924-5.078-4.203-10.702-7.555-16.35-9.886-4.108-1.695-8.228-2.865-12.164-3.351-6.04-.729-14.572.539-18.635 6.614zm40.096 16.92c-3.274.445-8.929-.457-14.407-1.905-6.594-1.743-12.93-4.279-14.53-6.243-.693-1.228-.772-1.879-.832-1.909.581-.638 3.413-1.591 6.793-1.174 3.549.437 7.44 1.678 11.316 3.54a53.4 53.4 0 0110.813 6.944c.335.278.614.526.847.747zm-133.652 6.457c1.071 0 2.194-.051 3.365-.157 6.472-.584 13.349-1.365 20.015-3.903 4.814-1.833 23.512-13.219 23.164-25.158-.091-3.144-1.573-8.838-10.454-11.637-4.091-1.289-8.196-.986-11.31-.584a66.021 66.021 0 00-32.523 13.718c-7.821 6.2-10.529 14.36-6.895 20.792 2.605 4.605 7.518 6.929 14.638 6.929zm-.049-18.006a53.608 53.608 0 0126.42-11.143c1.852-.242 4.218-.451 5.994.112.814.257 1.334.499 1.652.681-1.265 3.464-10.372 10.935-15.05 12.714-5.192 1.979-11.101 2.638-16.714 3.141-4.917.457-6.054-.478-6.091-.478h-.003c-.047-.555.969-2.791 3.792-5.027zm-.193 35.627c-10.753.033-14.214 6.042-15.174 8.668-.565 1.544-.785 3.155-.723 4.783.171 4.491 2.638 9.112 7.071 12.823 9.67 8.094 23.065 9.652 31.939 9.652a73.8 73.8 0 003.446-.079h.003c9.664-.445 16.121-5.098 16.85-12.142.259-2.52-.187-6.874-4.767-11.126-1.199-1.113-2.666-2.22-4.497-3.285a68.796 68.796 0 00-34.148-9.294zm27.92 20.009c1.8 1.05 2.678 1.942 3.007 2.278-.729.451-2.475 1.068-4.935 1.18-6.693.312-19.056-.16-26.862-6.693-1.171-.98-1.843-1.893-2.243-2.578a5.988 5.988 0 01-.52-1.101c.182-.185 1.213-.702 3.486-.702h.082c4.787.023 9.539.673 14.14 1.894a56.337 56.337 0 0113.845 5.722zm53.203-29.41c-4.926-2.511-9.988-2.886-14.65-1.089-6.284 2.427-9.918 7.504-9.973 13.927-.017 2.032.356 4.105.999 6.146 2.432 7.719 8.957 14.934 14.974 17.373 2.699 1.092 5.174 1.634 7.51 1.634.608 0 1.204-.036 1.794-.109 4.157-.514 7.833-2.847 10.351-6.572 2.92-4.318 3.876-9.858 2.557-14.82-.733-2.76-2.133-5.505-3.944-8.02-2.539-3.524-5.912-6.582-9.618-8.47zm1.586 19.673c.39 1.479.051 3.367-.85 4.699-.339.502-.893 1.123-1.595 1.207-.687.091-1.758-.151-3.138-.708-2.675-1.085-6.111-5.051-7.543-8.758-.428-1.107-.698-2.195-.689-3.172.009-.986.16-1.74 2.042-2.466 1.304-.499 2.838-.312 4.56.566 1.132.577 2.185 1.389 3.136 2.299 2.039 1.953 3.565 4.412 4.077 6.333zm170.546-8.466c-8.393-3.213-13.34-.191-15.54 1.894-5.516 5.219-5.071 14.55-3.017 20.956 3.649 11.398 13.473 21.34 25.025 25.322h.003c.72.248 2.233.772 4.088.772a9.17 9.17 0 003.029-.505c2.95-1.05 5.044-3.464 6.23-7.174 5.217-16.267-3.857-35.165-19.818-41.265zm8.493 35.661c-7.013-3.129-12.998-9.567-15.249-16.593-1.304-4.073-.859-7.495-.454-8.057.003-.003.094-.024.29-.024.387 0 1.177.085 2.496.59 9.084 3.473 14.866 14.574 12.917 24.084zm158.629-108.715c6.308 5.138 16.762 6.569 26.462 6.569 12.051 0 22.928-2.212 23.201-2.266 4.251-.887 7.038-2.92 8.29-6.057 1.84-4.629-.49-9.649-5.936-12.789-4.269-2.46-37.718-17.745-51.639-9.727-4.142 2.384-6.43 6.475-6.442 11.519-.011 5.099 2.085 9.511 6.064 12.751zm6.402-13.425c3.004-3.11 21.63 1.682 33.503 6.738-11.089 1.325-26.623 1.522-32.078-2.92-1.08-.88-1.501-1.755-1.498-3.116.001-.496.082-.702.073-.702zm-31.769-66.143c7.431.759 14.801 1.12 22.148 1.12.633 0 1.263-.036 1.896-.041.036.001.07.011.107.011.142 0 .284-.003.427-.012.052-.003.103-.01.155-.013 33.075-.379 65.495-7.959 98.845-19.071 18.335-6.109 36.948-13.256 56.116-20.876 44.229-17.582 96.273-38.934 146.91-63.977 42.538-21.037 79.066-42.126 111.671-64.47 31.279-21.434 61.387-42.892 85.934-69.681 15.976-17.439 27.335-39.25 33.061-62.057 4.005-15.954 5.278-32.392 3.344-48.18-3.083-25.17-16.874-51.4-35.134-66.827-4.675-3.945-10.157-7.361-17.261-10.744h-.003c-4.236-2.018-8.635-3.83-12.523-5.431-72.939-29.984-158.989-25.373-203.796-19.945-91.901 11.119-178.658 43.361-262.56 74.537-27.609 10.261-51.865 22.489-72.77 36.414l-.019.013c-82.146 54.731-111.645 136.117-81.092 231.539 10.426 32.561 24.673 56.905 43.383 74.141 2.232 2.056 4.513 4.032 6.873 5.887 19.212 15.097 44.9 24.661 74.288 27.663zm34.734-361.136c83.057-30.865 168.94-62.782 259.026-73.684 16.463-1.991 38.671-3.879 63.705-3.879 40.816 0 89.142 5.017 132.333 22.774 3.885 1.601 7.897 3.253 11.758 5.089 5.87 2.796 10.296 5.528 13.927 8.596 15.44 13.044 27.119 35.367 29.754 56.873 1.114 9.094 1.003 18.439-.166 27.758-3.202 25.506-14.576 50.801-32.287 70.134-23.434 25.579-52.758 46.459-83.266 67.363-31.996 21.93-67.908 42.656-109.783 63.363-50.141 24.798-101.822 46.002-145.767 63.469-11.429 4.543-22.65 8.921-33.717 12.998-15.295 5.636-30.29 10.672-45.125 14.792 10.899-8.468 20.655-18.748 28.816-30.701 8.87-12.992 16.037-27.484 21.473-43.389.053.001.104.013.157.013.756 0 1.525-.112 2.287-.348 7.72-2.381 14.979-4.645 21.943-6.842 84.017-26.511 118.884-41.957 245.933-102.033a7.741 7.741 0 003.691-10.311 7.744 7.744 0 00-10.311-3.691c-121.241 57.327-157.984 73.749-234.393 98.216a2897.21 2897.21 0 01-24.229 7.63c3.933-15.766 6.377-32.716 7.258-50.819a260.24 260.24 0 00-.242-29.69c.267-.064.535-.115.799-.21a1458.772 1458.772 0 0122.983-7.92c29.101-9.788 59.109-19.01 88.345-27.979 68.464-21.01 139.258-42.734 204.96-73.442a7.743 7.743 0 003.737-10.296 7.742 7.742 0 00-10.296-3.737c-64.722 30.247-134.989 51.811-202.945 72.664-28.607 8.778-57.953 17.792-86.547 27.367a1506.076 1506.076 0 00-22.578 7.754c-3.264-24.599-10.268-47.105-20.594-66.482-.084-.159-.175-.312-.26-.47 11.903-4.815 24.246-8.98 36.269-12.988l162.816-54.253 23.053-7.682a7.746 7.746 0 10-4.895-14.699l-185.87 61.938c-13.013 4.338-26.407 8.858-39.453 14.257-9.103-13.519-20.072-25.069-32.711-34.209l63.846-22.68a7.744 7.744 0 004.705-9.891 7.74 7.74 0 00-9.891-4.705l-75.862 26.948c-19.781-9.73-42.559-14.241-65.877-13.355a388.304 388.304 0 0123.491-9.611zM492.241 612.496c-8.427-12.721-15.51-28.1-21.369-46.398-34.577-107.994 15.46-174.206 74.151-213.422 40.479-16.304 85.457-13.184 117.536 8.217 11.698 7.802 21.837 17.98 30.364 29.978 21.376 30.076 32.315 71.948 30.018 119.132-2.015 41.433-12.487 76.286-31.128 103.586-20.554 30.104-52.263 48.49-87.036 50.506-7.494.075-15.001-.22-22.541-.991-26.465-2.702-49.388-11.149-66.289-24.432-8.878-6.978-16.749-15.674-23.706-26.176z"/></svg>