<svg xmlns="http://www.w3.org/2000/svg" viewBox="0 0 1200 1200"><path fill="#6D3334" d="M583.515 111.02c1.439-5.673 7.226-9.111 12.881-7.67 3.33.841 81.856 21.452 110.451 89.534 19.754 47.024 10.444 104.053-27.659 169.501a10.589 10.589 0 01-9.169 5.268 10.55 10.55 0 01-5.326-1.441c-5.061-2.944-6.775-9.434-3.827-14.494 34.575-59.389 43.466-110.066 26.434-150.621-24.549-58.445-95.402-77.015-96.114-77.197-5.675-1.438-9.11-7.206-7.671-12.88zm-28.386 212.466c-29.825 27.046-60.667 55.016-50.548 96.275 6.945 28.309 25.721 51.608 54.3 67.378 25.206 13.91 54.316 19.592 66.753 19.592 2.22 0 3.905-.182 4.949-.526 5.553-1.851 8.556-7.856 6.705-13.413a10.587 10.587 0 00-11.674-7.127c-.07.004-.145.004-.224.004-12.192 0-85.86-12.444-100.214-70.96-7.111-28.989 16.666-50.548 44.197-75.515 29.637-26.877 63.23-57.34 56.298-102.781-3.76-24.632-14.627-43.421-32.306-55.84-33.351-23.431-78.621-14.859-80.537-14.486-5.736 1.131-9.465 6.688-8.345 12.428s6.682 9.492 12.424 8.382c.383-.075 38.503-7.152 64.357 11.086 12.712 8.97 20.601 22.976 23.444 41.628 5.218 34.184-21.4 58.32-49.579 83.875zM452.023 521.462c2.387 0 4.791-.803 6.771-2.452 4.504-3.74 5.119-10.428 1.375-14.929-91.424-109.954 5.814-208.892 10.009-213.062 4.156-4.116 4.193-10.821.081-14.983-4.112-4.162-10.823-4.203-14.991-.091-1.166 1.151-115.393 116.621-11.403 241.695a10.577 10.577 0 008.158 3.822zm694.818 431.413c-7.57 7.574-64.777 87.566-99.054 136.214a10.607 10.607 0 01-8.626 4.493l-879.988 3.396c-3.503 0-6.748-1.69-8.732-4.531l-98.53-141.001a10.602 10.602 0 018.583-16.673c1.04-.009 42.064-.422 107.381-1.005-38.94-92.034 42.432-183.579 66.282-207.678-14.581-10.982-21.482-22.437-21.078-35.02.092-2.85.6-5.639 1.428-8.391l-44.946-32.305c-18.791.849-76.101 1.213-94.843-23.692-4.622-6.141-9.018-16.582-3.717-31.428 13.544-37.921 55.89-40.137 85.817-34.381-.932-15.405.571-38.406 14.43-54.996 11.763-14.08 29.527-20.698 52.931-19.58 20.694.961 35.488 8.614 43.974 22.735 16.172 26.922 2.454 68.156-4.51 85.289 7.623 6.821 16.343 18.321 25.451 22.776 16.534 8.088 27.237 4.306 37.063 24.981a215.957 215.957 0 001.905 3.921c128.765-111.178 255.582-95.29 339.509-62.139 239.293 94.509 359.62 207.968 367.714 346.64 109.859.963 110.755 3.037 113.904 10.533 1.669 3.978.7 8.794-2.348 11.842z"/><path fill="#F9CCA0" d="M265.452 631.366c-16.989 11.109-30.873 21.46-40.086 31.956-17.491-12.573-30.021-25.036-47.262-31.132-6.673-2.358-14.051-3.764-22.696-3.853-17.469-.18-51.783.445-63.75-15.457-1.518-2.017-2.968-5.156-.686-11.546 6.197-17.343 23.876-22.464 40.645-22.682 10.426-.137 36.319 10.026 44.326 3.479 8.171-6.68 1.598-21.93 1.863-30.519.486-15.764 7.364-33.505 21.685-41.52 14.065-7.872 41.406-6.272 50.482 8.808 7.722 12.842 4.503 30.438 1.215 44.125-3.575 14.869-15.378 27.622-6.273 42.085 1.521 2.416 25.023 23.448 25.825 22.967a157.781 157.781 0 00-5.288 3.289z"/><path fill="#DFEAE9" d="M346.118 952.407c-.614.11-1.234.17-1.854.17-.453 0-.899-.087-1.348-.145-90.946.692-180.289 1.481-262.113 2.294l83.839 119.98 868.966-3.354c14.08-19.944 61.766-87.322 85.666-118.874-81.986-3.825-438.021-2.611-773.156-.071zm88.135 89.521H177.026c-5.856 0-10.602-4.746-10.602-10.602s4.746-10.602 10.602-10.602h257.227c5.856 0 10.602 4.746 10.602 10.602s-4.747 10.602-10.602 10.602z"/><path fill="#9E7344" d="M549.082 851.549c-2.739-2.392 20.799-39.099 23.48-44.574 9.185-18.758 17.354-39.153 18.761-60.203 27.413 32.343 46.68 74.513 57.746 103.241-15.272 8.26-65.472 31.467-99.987 1.536zm66.074 78.179c5.262.021 61.769 2.998 62.702-.478 1.488-19.743-15.475-41.036-21.503-59.029-10.902 5.618-30.82 14.38-53.42 16.894-1.427.168-7.626 28.655-7.723 31.082-.608 15.177 4.845 11.471 19.944 11.531zm-34.124-42.388c-13.758-1.396-27.712-5.947-40.602-15.523-13.168 23.06-35.765 44.046-53.749 58.445 27.653-.178 55.696-.346 83.811-.499l10.54-42.423zm-65.651-78.785c-15.389-12.616-33.958-20.857-52.538-27.374 4.091 16.314 2.505 32.184-4.793 47.349-2.015 4.187-4.465 8.193-7.211 12.057 23.064 10.62 35.301 41.309 40.362 57.789 23.207-21.72 58.055-62.052 24.18-89.821zm-131.39-86.218c4.539 9.92 17.306 16.399 33.825 22.203 10.429-7.763 44.083-31.705 79.823-45.365-47.233-3.065-83.347-5.798-110.6-9.266-5.556 14.057-6.577 24.721-3.048 32.428zm161.669 90.047c12.131-21.725 36.694-74.886 15.515-94.515-5.137-4.762-12.966-7.552-24.317-7.44-33.133.323-67.325 24.27-93.74 42.135 28.188 8.55 59.855 18.402 85.708 39.594 7.503 6.15 13.073 12.921 16.834 20.226zm-259.224 65.678c-38.886-3.754-73.374 34.958-88.087 54.391 36.237-.315 78.003-.663 123.356-1.017l-16.133-19.402c-8.657-11.018-14.879-22.485-19.136-33.972zm8.064-104.076c6.175-10.479-31.579-29.798-37.709-33.803-9.896-6.462-26.619 21.269-31.674 27.881-.006.006 54.935 48.388 54.935 48.388 2.434-17.159 8.028-32.032 14.448-42.466zm-13.83 82.659a125.598 125.598 0 01-1.591-12.798l-66.318-58.4c-22.874 34.737-43.701 82.937-28.449 130.445 17.431-22.116 53.015-59 96.358-59.247zm566.24 67.776c1.99-25.286 10.861-78.066 49.141-115.69-15.737-10.382-40.167-5.203-57.16-.975-5.982 1.489-58.53 17.847-57.873 21.354 2.358 12.587 18.296 86.939 65.892 95.311zm51.822-86.583c22.277 10.214 71.055 35.857 81.043 68.432 2.359 7.694 2.442 15.414.327 22.822 12.174.062 23.482.126 33.932.199-3.089-47.686-20.874-92.368-53.717-134.329-28.246 8.713-47.915 24.656-61.585 42.876zm60.772 74.648c-7.131-23.255-49.623-46.432-72.202-56.544-14.974 28.407-18.653 58.133-19.515 72.884 32.646.002 62.446.058 89.315.164 3.397-5.429 4.183-10.698 2.402-16.504zm-281.14-232.032c15.379-10.811 42.443-34.718 43.97-51.55-19.823-8.939-40.667-17.729-62.547-26.369-27.175-10.732-59.165-19.526-94.39-22.11 10.164 10.771 20.134 23.961 27.706 38.747 13.459 4.585 57.401 27.672 85.261 61.282zm12.201 17.354c.22.379.459.752.674 1.135 3.539 6.293 6.205 12.639 8.078 18.998.038.025.08.035.118.06 33.428 21.429 103.024 14.973 122.6 12.639 5.3-25.102 5.638-46.251 5.642-46.746.001-.091.026-.174.029-.265-25.841-15.631-54.366-30.84-85.667-45.632-7.682 27.323-41.482 52.779-51.474 59.811zm222.05 97.021c9.568-6.787 20.524-12.678 33.051-17.315-25.36-28.204-57.796-55.155-97.385-80.953-1.485 20.191-6.74 60.694-25.147 92.803 28.177-7.596 68.134-13.483 89.481 5.465z"/><path fill="#B58555" d="M381.431 868.852c-25.386 12.861-51.473 20.942-63.43 24.295-27.054-39.304-17.569-81.816-8.933-101.266 25.174 12.966 82.072 48.978 72.557 76.161-.093.267-.123.54-.194.81zm22.085-12.756c27.728-18.441 50.493-47.649 34.344-81.965-.173-.367-.268-.745-.396-1.12-.716-.217-1.453-.445-2.164-.661-18.753-5.682-35.988-10.935-49.221-18.845l-33.466 39.799c22.663 15.729 47.484 38.191 50.903 62.792zm47.055 74.402c6.046-3.967 14.133-9.742 22.842-16.731-.027-.108-.074-.207-.098-.317-.163-.747-12.294-53.267-38.17-55.304-30.904 28.299-78.11 45.415-102.792 52.933l16.754 20.145c32.51-.246 66.545-.492 101.464-.726zM234.272 690.706c-.523 16.275 35.557 33.575 47.054 39.801 11.33-11.202 13.446-29.602 14.477-44.721.239-3.508-1.709-45.603-1.99-45.51-3.57 1.193-8.906 3.706-16.759 8.839-11.577 7.571-42.334 27.68-42.782 41.591zm82.724 81.415c3.556 1.785 9.883 5.09 17.606 9.655 11.727-13.946 23.125-28.448 35.395-41.835-11.957-15.42-10.433-35.745-4.342-53.238-25.228-4.495-40.111-10.307-47.92-18.981-.097-.108-.169-.226-.265-.335.724 24.767-2.168 56.633-18.632 75.563 11.011 8.702 18.8 18.128 18.158 29.171zm280.855-49.735c31.831.373 55.907 21.24 77.14 42.172 7.365-14.525 8.356-28.97 2.951-43.999-11.9-33.059-51.064-59.971-74.282-73.049 5.128 22.029 3.446 46.08-10.431 70.256a201.331 201.331 0 014.622 4.62zm210.537 206.482c-15.648.025-34.558-49.322-38.756-61-2.588-7.197-3.436-20.893-7.82-26.889-1.554-2.124-20.267-11.376-20.754-6.477-4.905 30.577-35.559 61.777-46.254 71.853 2.543 7.595 4.277 15.536 4.121 22.812 38.916-.145 75.485-.247 109.463-.299zm-46.781-115.863c29.204-5.669 45.482-32.581 54.579-60.377-9.744.961-23.605 1.965-39.091 1.965-24.27 0-52.453-2.468-74.724-11.432-.653 12.55-4.547 24.961-11.734 36.942 21.458 21.002 42.794 38.37 70.97 32.902zM685.8 885.408c13.505-13.958 33.291-38.255 34.647-56.861-20.588-9.16-37.68-26.258-53.492-42.079-15.424-15.432-30.309-30.268-47.155-37.805 37.761 51.958 57.252 115.671 60.477 126.825a180.43 180.43 0 015.523 9.92zm-222.332-209.76c16.264 1.151 33.029 2.218 49.688 3.276 23.891 1.518 45.06 10.86 63.615 24.734 30.917-60.187-31.78-114.534-43.235-123.761a276.424 276.424 0 00-26.965 2.352c-.351.178-.683.383-1.06.524-52.54 19.7-42.545 88.962-42.094 91.902.051.327.031.648.051.973zm-3.924-82.694c-37.487 11.97-76.522 32.977-115.81 66.508 18.206 6.845 55.223 11.167 98.209 14.577-2.537-21.432-.171-55.19 17.601-81.085z"/></svg>