<svg xmlns="http://www.w3.org/2000/svg" xmlns:xlink="http://www.w3.org/1999/xlink" viewBox="0 0 1200 1200"><path opacity=".13" d="M1150 607.929c0-101.345-28.241-196.093-77.283-276.805-3.696-6.083-7.539-12.067-11.469-17.988-3.18-4.791-6.406-9.548-9.735-14.229a531.328 531.328 0 00-7.564-10.371 536.65 536.65 0 00-33.228-40.183 536.848 536.848 0 00-17.072-17.891c-13.422-13.422-27.58-26.104-42.363-38.042-5.167-4.172-10.388-8.279-15.711-12.26a535.581 535.581 0 00-42.588-28.768c-80.712-49.042-175.46-77.283-276.805-77.283s-196.093 28.241-276.805 77.283a534.962 534.962 0 00-62.754 44.615 537.294 537.294 0 00-64.088 62.576 536.285 536.285 0 00-31.686 40.324 534.254 534.254 0 00-21.204 32.216 532.342 532.342 0 00-30.127 57.119 529.823 529.823 0 00-26.905 73.547c-13.19 46.444-20.251 95.467-20.251 146.14 0 23.033 1.459 45.725 4.289 67.989a534.125 534.125 0 006.556 39.594 529.883 529.883 0 0047.554 135.438 533.903 533.903 0 0040.088 65.999 535.535 535.535 0 0040.189 49.906 537.93 537.93 0 0026.839 27.487 536.196 536.196 0 0080.58 63.306 533.586 533.586 0 0022.011 13.374c78.246 44.993 168.975 70.725 265.713 70.725 41.459 0 81.814-4.726 120.556-13.669a529.242 529.242 0 0075.182-23.359 531.154 531.154 0 0058.712-27.401c5.187-2.817 10.302-5.749 15.384-8.732a535.205 535.205 0 0032.952-21.003c9.132-6.301 18.08-12.849 26.787-19.692 15.106-11.871 29.528-24.567 43.258-37.969 4.601-4.491 9.148-9.037 13.584-13.691 13.452-14.109 26.11-28.978 37.966-44.493 3.723-4.872 7.394-9.787 10.951-14.789a535.705 535.705 0 0014.389-21.298c3.174-4.951 6.239-9.978 9.252-15.039C1122.674 800.8 1150 707.562 1150 607.929z"/><circle fill="#E5DFDA" cx="583.82" cy="592.071" r="533.82"/><path fill="#A26641" d="M583.82 58.252C288.999 58.252 50 297.251 50 592.072c0 294.82 238.999 533.82 533.82 533.82s533.82-238.999 533.82-533.82-239-533.82-533.82-533.82zm0 1037.135c-277.974 0-503.316-225.342-503.316-503.316S305.846 88.756 583.82 88.756c277.974 0 503.316 225.342 503.316 503.316s-225.342 503.315-503.316 503.315z"/><path opacity=".26" d="M1040.327 761.974c-11.443-20.613-31.253-33.878-48.626-48.966-31.825-27.64-60.546-59.045-85.754-92.813a543.479 543.479 0 01-10.985-15.282c9.9-7.622 19.599-15.459 28.858-23.701 19.161-17.057 29.426-39.897 18.09-64.649-11.302-24.677-33.71-39.302-55.313-54.186-25.69-17.7-50.879-37.69-69.56-62.99-12.587-17.046-19.929-44.765-41.74-44.158-2.062-5.645-4.12-11.293-6.179-16.943a141.283 141.283 0 01-1.075-22.354c.819-26.538 3.646-53.771-12.038-77.051-1.531-2.271-4.071-3.812-6.816-4.507-.041-1.077-.087-2.16-.125-3.233-.635-17.976-5.345-34.508-21.608-44.127-.054-.031-.108-.049-.161-.079l-.499-2.949c-1.898-11.138-4.553-21.967-9.907-31.992-5.418-10.145-13.141-15.575-21.071-22.614-.158-.43-.341-.845-.494-1.278-2.948-8.371-17.602-7.854-16.61 2.248 1.281 13.045-1.312 26.084.128 39.166 1.461 13.269 4.587 26.497 7.067 39.606 1.155 6.107 2.278 12.214 3.421 18.321.294 9.266 1.431 18.308 4.833 25.967a7244.923 7244.923 0 016.963 38.413c5.655 31.731 13.671 62.473 23.558 92.708-.672.506-1.343 1.033-2.018 1.525-5.964 4.348-11.996 8.608-18.027 12.868-15.996-42.32-28.812-85.853-37.439-130.731-.095-.496-.179-.993-.273-1.488 2.566-10.63 2.873-22.631 3.339-29.184 1.846-25.947-.51-48.502-7.775-73.277-1.518-5.177-7.205-7.671-11.984-6.802-1.244-9.499-2.305-18.998-2.848-28.659-.466-8.3-.783-16.645-2.201-24.857-1.267-7.337-4.615-13.442-4.329-20.943.403-10.556-16.68-13.208-18.719-2.533-1.824 9.549-6.76 17.805-9.962 27.028-3.716-5.29-12.897-4.3-15.808 2.808-4.157 10.149-7.754 22.751-9.133 35.567-3.811-2.244-9.415-.581-9.487 5.112-.21 16.651-.545 30.254 3.847 46.629 4.204 15.674 11.16 30.248 19.083 44.363 1.5 2.672 3.398 4.589 5.505 5.9.239 1.759.457 3.519.712 5.276 2.668 18.326 6.069 36.531 10.124 54.59-3.627-5.084-7.981-9.173-11.543-12.839-6.012-6.188-21.282-8.434-31.66-10.951-10.378-2.517-24.715-.407-41.808 0-2.381.057-4.32.231-5.975.487-.692-1.034-1.277-2.155-1.648-3.446-.962-3.34-.74-6.69-1.932-10.029-1.27-3.556-3.468-6.693-5.196-10.021-1.441-2.775-6.618-1.646-6.19 1.676.475 3.69.628 7.421 1.824 10.981.796 2.37 2.012 3.836 3.393 5.352-.561-.296-1.093-.626-1.674-.897-1.683-.788-3.623-.734-5.002.645-1.192 1.193-1.727 3.557-.645 5.002.78 1.042 1.59 2.055 2.374 3.091-5.13-3.254-10.068-7.722-13.536-12.602-1.549-2.178-5.094-.229-3.651 2.134 3.484 5.706 8.844 8.929 13.163 13.696a46.836 46.836 0 00-4.476-.626c-4.088-.381-4.68 5.133-1.914 7.066 1.023.715 2.152 1.573 3.35 2.429-1.193 1.152-2.055 2.355-2.801 3.7-5.678-9.739-12.272-14.844-19.528-10.059-.175.116-.314.253-.483.373.005-.236.055-.457.047-.696-.443-13.529-3.721-26.938-6.141-40.226-2.156-11.838-3.247-22.615-13.448-30.136-3.35-2.47-8.26-1.08-11.06 1.427-1.477 1.322-2.678 2.787-3.694 4.341-5.378-12.023-10.346-24.266-15.189-36.395-4.96-12.421-20.736-12.691-25.627 0-5.222 13.55-5.921 27.35-3.68 40.968-17.477 10.28-1.667 40.294 6.799 52.88 10.867 16.155 22.599 32.583 38.224 43.428a9.72 9.72 0 001.007 2.131c6.32 9.892 9.345 21.345 14.758 31.715 6.244 11.964 13.951 23.849 22.23 34.496 5.051 6.497 10.137 12.966 15.215 19.44-2.996 5.224-5.371 9.978-6.029 12.965-1.127 5.111-4.839 7.931-6.184 12.405a397.523 397.523 0 01-11.27-18.844c-16.504-29.39-35.54-57.505-52.737-86.573-9.122-15.419-28.87-9.136-33.632 3.797-1.972-2.16-3.944-4.32-5.962-6.44a137.673 137.673 0 00-4.072-4.09c-.12-8.891-4.966-18.304-9.857-25.359-5.226-7.537-9.982-15.362-18.072-20.101-7.504-4.396-16.975-.201-19.498 7.49-3.291-3.527-6.03-7.685-7.941-13.186-5.077-14.609-28.744-13.209-28.211 3.818.301 9.608 2.443 19.202 5.819 28.44-9.825-2.705-18.448 8.608-16.014 17.668 4.468 16.635 18.312 28.703 32.579 37.492 6.917 4.261 14.085 5.96 22.074 6.843.786.087 1.546.223 2.297.378 10.145 12.883 20.319 25.745 30.578 38.559 7.688 9.602 15.374 19.19 23.208 28.649-.688-.066-1.375-.133-2.099-.141-15.597-.159-25.136-2.832-36.359-3.145-11.224-.313-19.046-2.17-24.883 3.145-5.837 5.314-16.289 17.878-16.289 17.878-7.502 12.049-12.394 20.162-14.664 29.267-.183-.248-.357-.502-.54-.749-.319-2.463-.622-4.958-.753-7.501-.657-12.811-.705-25.873-.299-38.698.308-9.715-12.681-10.072-15.819-2.141l-.186.476c-.514-3.405-1.049-6.815-1.342-10.229-1.059-12.346-.522-25.298-.333-37.686.142-9.347-12.283-12.027-17.009-4.607-1.309 2.056-2.538 4.365-3.688 6.83-1.314-1.729-2.635-3.412-3.779-5.04a3.228 3.228 0 00-.809-.797c-2.987-16.025-5.57-32.122-9.127-48.192-1.438-6.493-11.738-8.153-14.72-1.924-6.615 13.823-10.941 29.883-13.018 46.393-1.967-1.675-3.833-3.239-5.431-4.645-7.262-6.39-18.777 1.638-13.703 10.573 4.14 7.29 8.151 14.253 13.307 20.88a64.749 64.749 0 003.447 4.058c.01.131.027.261.055.395-3.111-3.154-6.318-6.183-9.102-9.711-3.593-4.554-12.627-.899-11.915 4.935.789 6.468.926 13.183 3.237 19.278 2.54 6.702 6.286 12.644 10.707 18.233 4.976 6.291 12.535 15.702 21.047 17.995a106.576 106.576 0 002.761 4.453c-3.065-1.169-6.107-2.398-9.089-3.782-8.89-4.125-15.29 7.188-7.588 12.981 9.724 7.313 17.744 16.489 27.227 24.193 9.89 8.034 20.661 14.648 30.939 22.147 18.919 13.804 37.305 29.274 55.606 43.965 24.915 20 49.478 40.443 73.609 61.383a495.246 495.246 0 00-25.91 20.967c-13.559-12.968-26.289-26.749-37.953-41.632-15.313-19.54-30.465-38.237-48.796-54.565.141-.172.314-.316.418-.515 1.627-3.103-.062-6.515-3.119-7.826-2.143-.92-4.652-.621-6.109.891-.501-.401-.969-.824-1.474-1.221a383.117 383.117 0 00-21.935-16.002c-2.072-4.825-4.771-9.533-6.97-14.077-2.024-4.183-9.368-1.195-7.605 3.206.254.637.503 1.291.751 1.944a383.49 383.49 0 00-19.436-11.178c-.164-.41-.384-.794-.689-1.099-.769-.769-1.973-1.085-3.075-.921-.15-.079-.298-.162-.448-.24-5.084-7.438-10.953-14.638-16.306-21.096-4.899-5.91-9.867-11.635-16.227-16.022-7.238-4.993-14.552-7.013-22.251-10.747-7.164-3.475-13.638 3.447-10.468 10.467 1.788 3.958 3.114 8.091 4.63 12.187a377.545 377.545 0 00-44.292-11.107c-27.364-5.13-39.369 36.09-11.633 42.194 21.05 4.632 41.574 11.585 61.121 20.624.819 1.03 1.749 2.003 2.79 2.824-6.896 2.046-10.021 12.221-2.462 16.134 17.648 9.137 35.519 17.82 53.374 26.749 7.463 3.732 15.021 6.919 22.581 10.305.017 1.064.519 1.925 1.28 2.436-4.564.881-4.274 8.434.899 8.434 1.398 0 2.436-.557 3.121-1.382 1.917.325 3.805.799 5.634 1.489 2.612.986 4.996 2.515 7.67 3.324 10.876 11.688 21.313 23.788 32.078 35.618 14.859 16.33 31.372 30.618 47.763 45.17-1.191 1.154-2.378 2.29-3.572 3.453-12.781 12.446-26.195 25.142-41.867 33.909-12.286 6.872-25.626 12.789-31.577 26.59-4.325 10.032-2.487 20.791 1.613 30.722 6.09 18.439 19.19 36.755 28.393 50.77 8.125 12.374 13.617 25.909 23.167 37.234 9.77 11.586 20.889 21.964 32.523 31.661 11.351 9.463 23.263 18.329 35.711 26.297 11.94 7.643 25.947 18.323 40.529 19.311 29.233 1.979 60.425-24.864 81.369-42.3 10.779-8.973 21.453-18.033 32.1-27.112a1614.64 1614.64 0 0126.559 28.748c-.057.653.067 1.324.536 1.946 1.874 2.492 4.424 5.015 7.279 6.836 6.2 6.996 12.356 14.032 18.414 21.159 17.049 20.058 32.995 40.804 48.177 62.075-.546 1.012-.636 2.282.102 3.613 2.783 5.021 5.257 10.669 8.815 15.177 1.173 1.487 3.117 1.501 4.686.72 15.312 22.485 29.869 45.515 43.847 69.052 18.324 30.856 63.54 3.737 47.75-27.911a630.666 630.666 0 00-5-9.796c14.949-4.836 31.697-11.777 42.329-23.331 15.507-16.851 8.093-35.494.09-53.495-14.842-33.386-30.779-64.251-53.054-93.385-21.159-27.674-45.121-53.795-69.732-78.429-4.408-4.412-8.987-8.648-13.609-12.842a1365.422 1365.422 0 0118.597-14.464c10.087 18.675 20.982 36.661 33.077 54.58 37.379 55.379 74.431 111.16 108.083 168.902 9.646 16.551 34.126 20.333 47.644 6.139-.99 1.04-2.068.56-3.145 1.085 1.86-.907 4.17-1.39 6.082-2.09 4.702-1.721 9.686-3.334 14.013-5.889 12.619-7.452 21.243-20.107 21.196-35.152-.083-26.617-29.323-49.527-45.195-68.037-37.34-43.546-73.714-88.001-109.83-132.565-6.856-8.459-13.608-17.004-20.356-25.553 4.838-3.562 9.678-7.12 14.525-10.67 22.519 31.815 47.889 62.1 72.734 91.644 36.821 43.785 73.496 88.079 112.078 130.321l.103-.798a33.244 33.244 0 003.739 3.141c4.129 4.688 10.089 7.876 17.397 8.019 19.991.39 38.021-17.092 38.021-37.403 0-11.788-9.198-22.576-19.138-32.082 3.869 2.255 7.984 4.107 12.45 5.355 4.196 1.173 8.681.027 12.018-2.546 8.003.625 15.715-1.801 22.875-9.605 12.288-13.396 10.786-31.096 2.362-45.438a23.914 23.914 0 007.507 2.142 13.83 13.83 0 005.877-.026c6.216-.754 12.363-3.846 16.786-9.698 14.404-19.065 11.763-43.96.649-63.982zM251.48 594.648a3.695 3.695 0 00-1.267-1.009c.278-.122.522-.316.742-.554a67.007 67.007 0 013.173 1.652 44.865 44.865 0 00-2.648-.089zm597.989 349.117l-.057-.092c1.428-.299 2.158-.146.057.092zm34.41-238.356a3887.258 3887.258 0 01-23.073-25.222c-7.711-10.908-15.306-21.894-22.83-32.928 2.239-1.672 4.488-3.331 6.724-5.009l.355-.264c12.161 21.614 24.929 42.868 38.824 63.423zM623.228 378.208c5.622-10.593 5.1-16.702 3.869-27.854a164.485 164.485 0 01-.505-5.559c7.61 27.535 16.662 54.679 26.939 81.32.904 2.343 1.869 4.655 2.791 6.989a4198.68 4198.68 0 00-16.669 11.94c-.153-.396-.29-.77-.469-1.203-5.006-12.149-10.553-22.381-14.603-29.45-3.239-5.653-7.605-10.339-13.969-17.797 3.974-4.538 8.944-11.467 12.616-18.386zM425.451 533.049c9.868-11.675 21.311-12.405 16.077-27.15-2.844-8.011-5.969-18.408-9.134-27.36 18.669 19.255 38.458 37.348 56.908 56.854 5.556 5.874 11.198 11.635 16.881 17.344-19.243 17.771-38.667 34.297-59.389 49.81-16.775-16.32-33.916-32.185-52.466-46.693 12.29-5.599 21.551-11.479 31.123-22.805zm222.506 349.915c12.131 20.388 22.415 41.591 31.398 63.338-28.298-37.77-59.701-73.499-92.327-107.43 5.425-4.62 10.871-9.218 16.321-13.809 16.626 18.058 32.168 36.994 44.608 57.901zm213.932-97.325c-26.025-27.945-51.735-56.119-78.564-83.3-2.833-2.869-5.701-5.702-8.541-8.563 5.681-4.144 11.357-8.295 17.033-12.447 13.761 20.097 27.91 39.945 42.378 59.558 20.586 27.906 42.025 55.35 64.288 81.942 3.088 3.688 6.183 7.375 9.292 11.052-15.417-15.963-30.759-32-45.886-48.242z"/><linearGradient id="a" gradientUnits="userSpaceOnUse" x1="115.769" y1="429.289" x2="698.135" y2="1095.765"><stop offset="0" stop-color="#686111"/><stop offset=".347" stop-color="#6e6711"/><stop offset=".811" stop-color="#7e7811"/><stop offset="1" stop-color="#878111"/></linearGradient><path fill="url(#a)" d="M723.677 1045.047C672.729 942.932 592.746 854.222 511.12 775.638c-40.893-39.37-84.461-76.981-128.171-113.189-23.732-19.659-45.596-41.045-64.642-65.349-18.092-23.087-35.91-45.035-59.08-63.237a382.74 382.74 0 00-59.408-38.367c-5.084-7.438-10.953-14.638-16.306-21.096-4.899-5.91-9.867-11.635-16.227-16.022-7.238-4.993-14.552-7.013-22.251-10.747-7.164-3.475-13.638 3.447-10.468 10.467 1.787 3.958 3.114 8.091 4.63 12.187a377.545 377.545 0 00-44.292-11.107c-27.364-5.13-39.369 36.09-11.632 42.194a298.832 298.832 0 0166.333 23.063c-.14.007-.273.003-.413.01-8.245.438-12.735 12.23-4.471 16.508 17.648 9.137 35.519 17.82 53.374 26.749 8.733 4.367 17.596 7.97 26.442 12.042 1.932.89 3.78 1.897 5.597 2.944 14.294 14.553 27.477 30.129 41.224 45.238 19.754 21.71 42.433 39.809 63.861 59.72 81.062 75.324 163.275 150.198 235.08 234.675 39.969 47.022 74.146 97.627 105.627 150.637 18.324 30.856 63.54 3.737 47.75-27.911z"/><linearGradient id="b" gradientUnits="userSpaceOnUse" x1="177.77" y1="351.541" x2="757.691" y2="1015.219"><stop offset="0" stop-color="#a3912b"/><stop offset=".239" stop-color="#9d8c26"/><stop offset=".559" stop-color="#8c7e18"/><stop offset=".88" stop-color="#746b04"/><stop offset=".893" stop-color="#786f0a"/><stop offset=".91" stop-color="#837a1a"/><stop offset=".93" stop-color="#948c35"/><stop offset=".951" stop-color="#ada55a"/><stop offset=".973" stop-color="#cdc58a"/><stop offset=".996" stop-color="#f4ecc4"/><stop offset="1" stop-color="#faf2ce"/></linearGradient><path fill="url(#b)" d="M761.097 958.425c-14.842-33.386-30.779-64.251-53.054-93.385-21.16-27.674-45.122-53.795-69.732-78.429-12.397-12.408-25.984-23.607-38.825-35.559-13.037-12.134-25.503-25.235-41.753-32.847-1.296-.607-2.65-.912-4.001-1.008-29.58-27.79-59.078-55.663-88.206-83.93-36.318-35.245-70.117-72.008-111.653-101.464-20.309-14.402-41.986-28.307-64.537-39.179-2.622-6.711-6.874-12.998-11.397-19.074-.319-2.463-.622-4.958-.753-7.501-.657-12.811-.705-25.873-.299-38.698.308-9.715-12.681-10.072-15.819-2.141l-.186.476c-.513-3.405-1.049-6.815-1.342-10.229-1.059-12.346-.522-25.298-.333-37.686.142-9.347-12.283-12.027-17.009-4.607-2.266 3.559-4.324 7.811-6.066 12.476-4.058-19.802-6.929-39.763-11.336-59.675-1.438-6.493-11.738-8.153-14.72-1.924-6.615 13.823-10.941 29.883-13.018 46.393-1.967-1.675-3.833-3.239-5.431-4.645-7.262-6.39-18.777 1.638-13.703 10.573 4.14 7.29 8.151 14.253 13.307 20.88 1.399 1.798 2.945 3.657 4.647 5.362.005.088.007.177.011.264-3.459-3.592-7.13-6.919-10.259-10.884-3.593-4.554-12.627-.899-11.915 4.935.789 6.468.926 13.183 3.237 19.278 2.54 6.702 6.286 12.644 10.707 18.233 4.976 6.291 12.535 15.702 21.047 17.995a105.893 105.893 0 002.761 4.452c-3.066-1.169-6.107-2.398-9.089-3.782-8.89-4.125-15.29 7.188-7.588 12.981 9.724 7.313 17.744 16.489 27.227 24.193 9.89 8.034 20.661 14.648 30.939 22.147 18.92 13.804 37.305 29.274 55.606 43.965 37.623 30.2 74.546 61.29 110.185 93.823 37.778 34.485 72.523 72.581 108.027 109.376 33.552 34.773 70.835 68.703 95.713 110.514 27.463 46.155 45.482 96.48 60.302 147.865 3.852 13.355 18.636 22.655 32.402 18.397 15.765-4.875 34.35-11.975 45.816-24.436 15.506-16.851 8.092-35.493.09-53.495z"/><linearGradient id="c" gradientUnits="userSpaceOnUse" x1="259.92" y1="273.167" x2="866.76" y2="967.652"><stop offset="0" stop-color="#929730"/><stop offset=".441" stop-color="#90952f"/><stop offset=".613" stop-color="#8b8e2b"/><stop offset=".738" stop-color="#818224"/><stop offset=".841" stop-color="#72711a"/><stop offset=".928" stop-color="#605a0d"/><stop offset=".994" stop-color="#4d4400"/></linearGradient><path fill="url(#c)" d="M825.053 878.844c-37.34-43.545-73.714-88.001-109.83-132.565-35.471-43.766-69.417-88.814-102.677-134.279-33.176-45.351-65.904-89.16-105.763-128.945-22.089-22.048-39.301-45.952-54.569-73.142-16.504-29.39-35.54-57.505-52.737-86.573-9.122-15.419-28.87-9.136-33.632 3.797-1.972-2.16-3.945-4.32-5.962-6.44a137.673 137.673 0 00-4.072-4.09c-.119-8.891-4.965-18.304-9.857-25.359-5.226-7.537-9.982-15.362-18.072-20.101-7.504-4.396-16.975-.201-19.498 7.49-3.291-3.527-6.029-7.685-7.941-13.186-5.077-14.609-28.744-13.209-28.211 3.818.301 9.608 2.443 19.202 5.819 28.44-9.825-2.705-18.448 8.608-16.014 17.668 4.468 16.635 18.312 28.704 32.579 37.492 6.917 4.261 14.085 5.96 22.074 6.843.786.087 1.547.223 2.297.378 10.145 12.883 20.319 25.745 30.578 38.559 17.383 21.712 34.708 43.39 53.928 63.536 19.645 20.592 40.767 39.649 60.339 60.341 20.058 21.207 41.082 41.093 62.066 61.415 22.518 21.806 40.423 46.775 59.345 71.716 9.085 11.975 17.058 24.493 24.898 37.309 7.964 13.018 13.195 26.593 19.81 40.282 13.696 28.341 28.81 54.542 46.425 80.64 37.379 55.379 74.431 111.16 108.083 168.902 9.646 16.551 34.126 20.333 47.643 6.139-.99 1.04-2.068.56-3.145 1.085 1.861-.907 4.17-1.39 6.082-2.09 4.702-1.721 9.685-3.334 14.013-5.889 12.619-7.452 21.243-20.107 21.196-35.152-.083-26.619-29.322-49.529-45.195-68.039zm-1.055 52.051l-.057-.092c1.428-.299 2.158-.146.057.092z"/><linearGradient id="d" gradientUnits="userSpaceOnUse" x1="346.88" y1="205.756" x2="964.128" y2="912.152"><stop offset="0" stop-color="#819718"/><stop offset=".496" stop-color="#839617"/><stop offset=".69" stop-color="#8a9314"/><stop offset=".831" stop-color="#968f10"/><stop offset=".946" stop-color="#a78809"/><stop offset=".994" stop-color="#b18405"/></linearGradient><path fill="url(#d)" d="M916.896 856.663c-27.026-27.773-54.065-55.533-80.478-83.894-26.025-27.945-51.735-56.119-78.564-83.3a3800.966 3800.966 0 00-28.99-29.064c-14.291-16.993-29.149-32.897-41.702-51.512-14.394-21.347-27.557-43.19-41.06-65.097-25.935-42.075-56.141-81.527-87.523-119.692-17.301-21.042-34.782-41.92-53.077-62.107-3.258-3.595-6.586-7.081-9.958-10.515-5.271-28.992-19.77-84.395-38.803-71.841-.175.116-.314.253-.483.373.005-.236.054-.457.046-.696-.443-13.529-3.72-26.938-6.14-40.226-2.156-11.838-3.247-22.615-13.448-30.136-3.35-2.47-8.26-1.08-11.061 1.427-1.477 1.322-2.678 2.787-3.694 4.341-5.378-12.023-10.346-24.266-15.189-36.395-4.96-12.421-20.736-12.691-25.627 0-5.222 13.55-5.921 27.35-3.68 40.968-17.477 10.28-1.667 40.294 6.799 52.88 10.866 16.155 22.599 32.583 38.224 43.428a9.72 9.72 0 001.007 2.131c6.32 9.892 9.345 21.345 14.757 31.715 6.244 11.964 13.951 23.849 22.23 34.496 15.117 19.444 30.395 38.752 45.606 58.122 30.817 39.242 60.333 79.799 92.796 117.693 16.112 18.808 32.739 37.223 47.74 56.913 15.807 20.749 29.322 41.808 43.065 63.875 26.675 42.832 60.026 82.608 92.438 121.151 36.821 43.785 73.496 88.079 112.078 130.321l.103-.798a33.244 33.244 0 003.739 3.141c4.129 4.688 10.09 7.876 17.397 8.019 19.991.39 38.021-17.092 38.021-37.403-.001-19.148-24.262-35.671-36.569-48.318z"/><linearGradient id="e" gradientUnits="userSpaceOnUse" x1="495.484" y1="153.791" x2="1059.074" y2="798.78"><stop offset="0" stop-color="#595b00"/><stop offset=".435" stop-color="#5b5c00"/><stop offset=".605" stop-color="#625f01"/><stop offset=".729" stop-color="#6e6501"/><stop offset=".83" stop-color="#7f6d02"/><stop offset=".917" stop-color="#967703"/><stop offset=".994" stop-color="#b18405"/><stop offset=".994" stop-color="#b18405"/></linearGradient><path fill="url(#e)" d="M978.579 812.927c-11.523-13.635-26.595-24.888-39.502-37.237a1370.032 1370.032 0 01-39.761-39.649c-21.762-22.603-42.995-45.562-63.982-68.724-21.676-30.664-42.758-61.717-62.448-93.781-60.51-98.533-109.22-204.084-131.159-318.214-.095-.496-.179-.993-.274-1.488 2.566-10.63 2.873-22.631 3.339-29.184 1.847-25.947-.51-48.502-7.775-73.277-1.518-5.177-7.205-7.671-11.984-6.802-1.244-9.499-2.305-18.998-2.848-28.659-.466-8.3-.783-16.645-2.201-24.857-1.267-7.337-4.615-13.442-4.329-20.943.403-10.556-16.68-13.208-18.719-2.533-1.824 9.549-6.76 17.805-9.962 27.028-3.716-5.29-12.897-4.3-15.808 2.808-4.157 10.149-7.754 22.751-9.133 35.567-3.811-2.244-9.415-.581-9.487 5.112-.21 16.651-.545 30.254 3.847 46.629 4.204 15.674 11.16 30.248 19.083 44.363 1.5 2.672 3.398 4.589 5.505 5.9.239 1.759.456 3.519.712 5.276 8.624 59.22 24.846 117.194 46.368 172.984 43.875 113.733 108.542 217.004 180.664 314.773 20.586 27.906 42.025 55.35 64.288 81.942 11.168 13.339 22.368 26.712 34.334 39.34 11.347 11.975 23.112 24.395 39.43 28.955 4.196 1.173 8.681.027 12.018-2.546 8.003.625 15.715-1.801 22.875-9.606 14.611-15.93 9.764-37.967-3.091-53.177z"/><linearGradient id="f" gradientUnits="userSpaceOnUse" x1="570.744" y1="185.281" x2="1074.164" y2="761.408"><stop offset="0" stop-color="#6c5c0f"/><stop offset=".393" stop-color="#6e5e0f"/><stop offset=".546" stop-color="#75630e"/><stop offset=".658" stop-color="#816d0e"/><stop offset=".749" stop-color="#927b0d"/><stop offset=".829" stop-color="#a98e0c"/><stop offset=".899" stop-color="#c5a40a"/><stop offset=".962" stop-color="#e5bf08"/><stop offset=".994" stop-color="#f9cf07"/></linearGradient><path fill="url(#f)" d="M1014.855 749.104c-11.442-20.613-31.253-33.878-48.625-48.966-31.826-27.64-60.546-59.045-85.755-92.813-7.605-10.186-14.815-20.657-21.755-31.314-1.523-2.797-3.062-5.581-4.563-8.394a3132.216 3132.216 0 01-67.407-133.892c-16.705-35.259-29.794-71.787-43.103-108.309a141.4 141.4 0 01-1.076-22.354c.819-26.538 3.646-53.771-12.038-77.051-1.531-2.271-4.071-3.812-6.816-4.507-.042-1.077-.088-2.16-.125-3.233-.635-17.976-5.345-34.508-21.608-44.127-.053-.031-.108-.049-.161-.079-.168-.997-.337-2-.499-2.949-1.898-11.138-4.553-21.967-9.907-31.992-5.418-10.145-13.141-15.575-21.071-22.614-.158-.43-.341-.845-.494-1.278-2.948-8.371-17.602-7.854-16.61 2.248 1.281 13.045-1.312 26.084.128 39.166 1.461 13.269 4.588 26.497 7.067 39.606 1.155 6.107 2.279 12.214 3.421 18.321.294 9.266 1.431 18.308 4.833 25.967a7226.909 7226.909 0 016.963 38.414c9.72 54.539 26.238 106.21 47.671 157.278 20.714 49.356 45.327 97.082 70.112 144.498 22.741 43.506 46.548 86.476 75.14 126.451 16.269 22.747 33.425 44.608 52.901 64.703 16.913 17.451 34.982 31.158 55.366 43.26 3.543 4.339 8.912 7.003 14.696 7.664a13.83 13.83 0 005.877-.026c6.216-.754 12.363-3.846 16.786-9.698 14.408-19.063 11.767-43.957.652-63.98z"/><path fill="#4C460C" d="M222.855 587.091c2.995.24 5.941.831 8.757 1.894 2.664 1.005 5.087 2.585 7.825 3.38 3.143.913 5.77-3.327 3.265-5.609-5.02-4.572-13.361-5.291-19.846-4.9-3.385.204-3.352 4.966-.001 5.235z"/><path fill="#4C460C" d="M222.856 588.878c5.484 0 5.493-8.523 0-8.523-5.485-.001-5.494 8.523 0 8.523z"/><path fill="#4C460C" d="M226.164 578.943c.823-3.533 1.567-6.997 2.948-10.363l-6.184 1.633c4.415 3.743 9.939 7.153 15.238 9.471 5.104 2.233 9.077-4.26 4.403-7.533-4.726-3.31-10.563-6.31-16.041-8.122-2.317-.766-4.669 1.267-4.684 3.568-.021 3.345-.622 6.546-1.181 9.831-.604 3.549 4.655 5.148 5.501 1.515zm-3.031-34.815c3.155 1.582 3.968 4.844 4.907 7.989 1.148 3.845 5.878 3.254 7.24 0 2.709-6.475-3.192-13.271-9.328-14.674-3.864-.884-6.688 4.745-2.819 6.685zm-29.566-2.593c3.443 4.028 6.744 8.047 10.97 11.29 1.683 1.292 4.419.427 5.57-1.112 1.374-1.839 1.055-3.949-.338-5.669-3.089-3.815-7.096-6.752-10.887-9.824-3.738-3.03-8.499 1.589-5.315 5.315zm1.963-31.799c2.073 3.085 4.066 6.248 6.248 9.257 1.801 2.483 4.176 5.703 7.426 6.148 1.016.139 2.3-.231 2.518-1.43.623-3.429-1.411-6.565-3.384-9.232-2.293-3.098-4.78-6.07-7.168-9.094-2.516-3.185-7.905.98-5.64 4.351zm56.601 51.737c1.941 5.384 5.008 9.917 9.573 13.391 3.888 2.959 8.996-3.632 5.25-6.805-3.255-2.757-5.893-5.696-7.708-9.586-1.849-3.961-8.613-1.154-7.115 3zm-75.76-40.014c1.891 1.649 3.558 3.455 4.886 5.591 1.41 2.266 2.362 4.414 4.499 6.104 1.512 1.196 4.374 1.091 4.801-1.268 1.218-6.729-4.849-12.419-9.835-16.066-3.276-2.397-7.412 2.968-4.351 5.639zm-24.867 1.51c2.578 3.813 7.531 9.111 12.614 8.096 2.251-.45 3.571-3.6 2.238-5.5-1.29-1.837-3.132-2.409-4.915-3.618a12.84 12.84 0 01-3.098-2.975c-1.261-1.724-3.437-2.579-5.418-1.421-1.755 1.027-2.624 3.638-1.421 5.418zm-4.026-36.243c3.688 3.236 6.47 6.897 9.251 10.907 1.558 2.246 5.22 8 8.542 5.244 3.264-2.709-.167-9.099-1.903-11.687-2.686-4.002-6.13-7.476-9.909-10.442-4.174-3.277-10.153 2.317-5.981 5.978zm-29.686.399c4.71 3.54 9.327 7.301 14.322 10.433 4.124 2.586 9.313-3.801 5.317-6.891-4.959-3.833-10.315-7.097-15.575-10.496-4.451-2.877-8.098 3.921-4.064 6.954zm-26.95-3.012c3.426 3.168 6.859 6.738 10.972 9.017 4.223 2.341 8.466-3.136 5.134-6.654-3.233-3.413-7.549-5.845-11.47-8.372-3.636-2.342-7.831 3.054-4.636 6.009z"/><path fill="#4C460C" d="M92.754 479.023c-1.918.548-3.867 1.264-5.834 1.596l1.893.248-.97-.566c-2.197-1.283-5.108-.088-5.779 2.351-.63 2.288 1.208 5.234 3.794 4.98 2.458-.241 5.892-.454 7.279-2.806a2.201 2.201 0 000-2.202c-1.355-2.351-4.841-2.597-7.279-2.86l3.794 4.98.291-1.102-1.129 1.468c1.618-.732 3.464-1.138 5.154-1.687 2.775-.901 1.631-5.213-1.214-4.4zm54.053-1.577c2.582 1.858 5.52 4.634 8.753 5.177 3.901.655 6.64-3.538 3.878-6.662-2.389-2.702-6.619-3.748-9.864-5.077-1.631-.668-3.638.592-4.236 2.079-.707 1.758-.024 3.409 1.469 4.483zm5.106-17.146c1.635 2.018 3.189 4.179 4.974 6.064 1.726 1.823 3.426 3.745 5.927 4.358 1.375.337 2.894-.668 2.846-2.168-.085-2.689-1.643-4.882-3.163-7.032-1.606-2.272-3.517-4.376-5.268-6.538-1.279-1.578-3.985-1.33-5.315 0-1.561 1.561-1.283 3.734-.001 5.316zm-56.699 8.503c1.651 2.09 3.011 4.049 5.844 4.457 2.688.388 4.467-1.42 4.096-4.096-.395-2.84-2.348-4.199-4.435-5.866-1.641-1.311-3.902-1.603-5.505 0-1.63 1.63-1.307 3.85 0 5.505z"/><path fill="#4C460C" d="M97.851 463.394c-4.133-.529-8.263-1.045-12.378-1.698-2.422-.384-5.233 2.752-2.754 4.732 2.899 2.315 6.29 5.656 10.069 6.184 1.692.236 2.904-1.204 2.16-2.81-1.592-3.435-5.753-5.74-8.798-7.82l-1.429 5.275c4.388.364 8.756.875 13.13 1.372 3.361.381 3.285-4.815 0-5.235zm44.062 54.382c1.908 5.061 7.766 10.663 13.585 9.578 1.28-.239 2.12-2.128 1.304-3.204-1.268-1.671-2.904-2.9-4.241-4.499-1.333-1.595-1.897-3.363-2.736-5.21-2.008-4.42-9.646-1.263-7.912 3.335zm111.081 82.772c6.79 6.269 13.474 12.684 20.476 18.716 1.106.953 2.724 1.674 4.208 1.112 1.703-.645 2.565-1.168 3.021-3.021.356-1.446.041-3.173-1.112-4.208-6.894-6.189-14.128-12.014-21.23-17.963-3.687-3.087-8.998 2.008-5.363 5.364zm10.718-15.116c2.795 3.035 5.94 7.748 10.174 8.738 2.533.592 4.716-1.588 4.122-4.122-.993-4.234-5.705-7.374-8.744-10.168-3.725-3.425-8.982 1.826-5.552 5.552z"/><path fill="#4C460C" d="M269.212 584.835c3.39-3.965 6.724-2.586 11-1.292 3.274.991 6.003-3.488 3.401-5.842-5.219-4.722-14.595-2.27-18.719 2.816-2.437 3.006 1.739 7.336 4.318 4.318zm-4.932-44.253c.392-.392.172-.29-.659.306l-2.504-.328c.403.253 1.787.946 2.249.621-.14.098-.947-.125-1.034-.27.05.084.478.264.554.27.354.031-.468-.43-.208-.195.269.243.161.401.075.036-.185-.791.11.525-.184-.325-.05-.145-.277-1.317-.208-.728.212 1.806 1.115 3.403 2.982 3.916 1.675.46 3.757-.285 4.586-1.866 1.627-3.103-.062-6.515-3.12-7.827-3.08-1.322-6.97-.188-7.302 3.562l.444-1.64c-.436.766-.624 1.521-.655 2.403-.086 2.484 3.285 3.913 4.984 2.065zm-41.563-33.592c2.765 6.902 5.013 14.909 9.182 21.102 2.662 3.955 8.979 1.555 7.8-3.289-1.77-7.269-6.135-14.32-9.377-21.019-2.024-4.184-9.368-1.196-7.605 3.206zm-24.75-9.64c-.7 1.532-2.046 3.723-.543 5.226 1.503 1.503 3.696.156 5.226-.543 2.042-.933 2.134-3.934.693-5.376-1.446-1.446-4.444-1.345-5.376.693zm-27.75-19.949c3.152 0 3.158-4.899 0-4.899-3.153 0-3.158 4.899 0 4.899zm123.447 146.713c2.85 4.091 5.571 9.132 9.711 12.028 3.039 2.126 8.118-1.477 6.617-5.087-1.954-4.7-6.172-8.447-9.582-12.146-3.251-3.525-9.566 1.157-6.746 5.205zm-2.888-24.639c3.483 1.791 6.931 3.732 10.497 5.348 3.087 1.4 6.534 3.316 9.952 2.322 1.315-.382 2.423-1.948 1.898-3.344-1.248-3.322-4.284-4.87-7.278-6.552-3.45-1.939-7.114-3.56-10.666-5.308-5.004-2.462-9.423 4.953-4.403 7.534zm27.408 37.538c.778 1.526 1.421 3.292 2.673 4.49 1.107 1.059 2.834 1.322 4.174.539 1.432-.838 1.796-2.354 1.583-3.89-.229-1.652-1.415-3.315-2.171-4.798-.888-1.743-3.339-2.247-4.958-1.3-1.773 1.037-2.193 3.209-1.301 4.959z"/><path fill="#4C460C" d="M319.3 632.807c-2.685 3.061-5.358 6.09-8.236 8.972-1.168 1.17-1.287 2.903-.558 4.322 2.597 5.052 6.22 9.146 12.151 9.838 3.386.395 4.393-4.075 2.556-6.171-2.665-3.041-6.392-4.982-9.106-7.989l.558 4.322c2.257-3.037 4.696-5.901 7.142-8.786 2.63-3.101-1.783-7.613-4.507-4.508zm13.853 22.478a30.216 30.216 0 016.073 4.762c1.673 1.693 3.371 3.966 5.529 5.002 1.157.555 2.388-.121 2.474-1.42.189-2.857-1.885-5.822-3.692-7.893-2.054-2.354-4.501-4.347-7.098-6.072-3.481-2.312-6.901 3.464-3.286 5.621z"/><path fill="#6B8222" d="M338.495 382.391c2.831 5.346 7.325 9.388 12.212 12.854 4.015 2.848 10.401 8.043 15.54 6.163 1.563-.572 2.896-2.233 2.273-4.004-1.72-4.891-7.627-6.606-11.723-9.273-4.843-3.153-9.294-6.882-14.354-9.688-2.572-1.427-5.295 1.405-3.948 3.948zm6.191-24.007c2.783 5.87 6.878 12.016 11.757 16.371 4.213 3.76 11.386-1.057 8.132-6.274-3.696-5.925-9.216-11.109-14.884-15.101-3.274-2.306-6.414 2.033-5.005 5.004zm28.921-16.577c5.163 4.614 6.795 10.802 9.303 16.975 1.956 4.813 8.948 4.342 9.272-1.255.545-9.396-6.564-17.05-14.062-21.57-3.557-2.144-7.717 2.987-4.513 5.85z"/><path fill="#6B8222" d="M381.581 331.195c.798 4.462 1.198 10.277 4.455 13.72 1.305 1.379 3.187.479 3.814-1.007 1.827-4.335-.036-10.34-.827-14.765-.872-4.882-8.312-2.813-7.442 2.052zM280.469 319.67c4.376 2.805 8.707 5.4 13.491 7.467 2.444 1.056 5.291.724 6.749-1.77 1.242-2.124.663-5.634-1.77-6.749-5.12-2.348-10.284-4.025-15.704-5.51-3.999-1.097-6.157 4.388-2.766 6.562z"/><path fill="#6B8222" d="M284.713 317.771c.897-5.713 1.566-11.516 3.114-17.099l-4.869 1.981c2.758 1.331 6.147 3.271 8.976 1.235.835-.601 1.368-1.564 1.064-2.615-.97-3.353-4.432-4.03-7.487-4.678-2.138-.454-4.129.951-4.195 3.196-.163 5.538-1.181 11.026-1.975 16.499-.506 3.493 4.814 5.034 5.372 1.481z"/><path fill="#4C460C" d="M578.956 213.809c2.956 4.318 5.666 8.77 8.024 13.444 2.035 4.032 5.34 9.266 5.113 13.893l3.409-4.477-.657.239 3.43.449c1.272.745.07-.086-.36-.505-.865-.844-2.258-1.316-3.445-.911l-.262.089c-1.651.564-3.023 2.054-2.966 3.895.132 4.245 3.618 6.933 7.725 5.303 2.33-.924 3.841-2.615 3.955-5.195.247-5.601-3.481-11.37-6.127-16.098-3.101-5.541-6.721-10.695-10.619-15.698-3.187-4.089-10.162 1.276-7.22 5.572zm1.823-21.665c3.551 4.665 5.989 10.207 8.522 15.461 1.758 3.646 5.753 10.91 10.492 7.282 4.065-3.112.215-9.18-1.856-12.877-2.98-5.321-5.939-10.796-9.938-15.438-3.358-3.898-10.398 1.397-7.22 5.572zm-8.83-37.413c-.143 5.848-.32 11.697-.43 17.546-.086 4.564-1.248 9.679 2.464 12.96 1.195 1.056 2.785 1.062 3.986 0 3.712-3.281 2.55-8.395 2.464-12.96-.11-5.849-.287-11.698-.43-17.546-.127-5.181-7.927-5.19-8.054 0zm33.517 24.097c.728 8.132 1.372 16.278 2.261 24.394.649 5.924.222 12.916 5.003 17.002 1.268 1.083 2.956.895 3.9-.503 3.528-5.224 1.254-11.849.297-17.745-1.308-8.06-2.87-16.082-4.342-24.112-.73-3.977-7.484-3.115-7.119.964zm11.652-21.303c-1.444 2.493-2.946 5.25-3.106 8.172-.064 1.173 1.253 1.69 2.171 1.246 2.693-1.302 4.61-3.905 6.382-6.234 1.032-1.357.213-3.529-1.132-4.316-1.471-.86-3.458-.346-4.315 1.132zm-23.169-35.694c-.202 7.198-.433 14.396-.606 21.595-.13 5.427-1.194 11.135 2.81 15.253.925.952 2.585.953 3.512 0 4.003-4.118 2.94-9.826 2.81-15.253-.173-7.199-.404-14.397-.606-21.595-.144-5.094-7.777-5.102-7.92 0zm25.121 118.456c-1.429 11.95-3.69 27.512 3.171 38.221.765 1.195 2.76 1.075 3.128-.409 2.958-11.927-.577-25.539.009-37.812.198-4.141-5.839-3.925-6.308 0z"/><path fill="#4C460C" d="M612.368 273.169c-.367 14.748-1.375 29.718 1.631 44.267.298 1.44 2.614 1.441 2.912 0 3.006-14.547 1.998-29.521 1.631-44.267-.099-3.972-6.075-3.979-6.174 0zm12.618 37.216c2.993 5.385 5.23 10.97 6.692 16.959 1.111 4.553 1.235 9.531 4.666 13.004.974.986 2.369.602 3.109-.401 6.443-8.728-2.94-25.745-7.629-33.559-2.623-4.371-9.319-.467-6.838 3.997z"/><path fill="#4C460C" d="M636.638 328.808c1.268 4.898 2.485 9.813 3.811 14.695 1.047 3.856 1.996 7.727 5.398 10.11 1.141.799 2.425-.107 2.859-1.163 1.588-3.861-.07-8.021-1.257-11.803-1.428-4.547-2.936-9.071-4.404-13.605-1.31-4.048-7.486-2.401-6.407 1.766z"/><path fill="#4C460C" d="M635.978 346.442c1.629 11.479 2.113 24.2 6.877 34.893.639 1.435 2.483.489 2.626-.711 1.391-11.632-2.04-24.287-3.873-35.734-.597-3.726-6.15-2.106-5.63 1.552zm-13.678-1.928c2.071 6.27 3.639 15.775 8.841 20.277 1.201 1.04 3.445.796 3.814-1.007 1.405-6.862-2.924-14.988-5.148-21.34-1.64-4.684-9.09-2.724-7.507 2.07z"/><path fill="#8C7F1F" d="M690.365 266.764c3.839 6.76 6.032 13.886 8.598 21.167.596 1.69 2.237 3.386 4.214 3.208.383-.034.79-.055 1.162-.156 1.68-.455 3.418-2.345 3.208-4.214-.992-8.855-4.693-17.061-9.3-24.612-3.057-5.009-10.793-.519-7.882 4.607zm-1.879-33.056c2.803 4.263 5.011 8.692 6.65 13.523 1.169 3.448 1.99 8.068 5.496 9.87.706.363 1.622.318 2.196-.283 6.328-6.638-3.388-21.451-7.388-27.174-2.932-4.196-9.832-.312-6.954 4.064zm10.314-9.689c4.491 0 4.499-6.98 0-6.98-4.491.001-4.498 6.98 0 6.98zm-23.604-68.272c1.321 8.924 1.981 17.874 1.864 26.898-.09 6.942-1.814 14.603.616 21.181.787 2.13 3.564 2.649 4.845.633 4.336-6.82 3.321-15.846 2.923-23.679-.461-9.053-1.819-17.978-3.712-26.835-.929-4.347-7.159-2.405-6.536 1.802zm-13.751-9.735c1.38 12.198.099 26.299 4.841 37.774.779 1.886 3.196 1.981 3.948 0 4.54-11.962 1.067-26.609-.813-38.853-.687-4.475-8.491-3.475-7.976 1.079zm55.798 89.871c-.35 5.691-1.193 13.417 1.664 18.613.756 1.375 2.895 1.375 3.651 0 2.858-5.197 2.014-12.922 1.664-18.613-.275-4.487-6.702-4.495-6.979 0zm-8.766 72.342l.991 15.186c.277 4.244.484 8.788 3.143 12.271.958 1.255 3.002 1.637 3.883 0 2.052-3.815 1.738-8.052 1.325-12.271l-1.488-15.186c-.487-4.947-8.187-5.099-7.854 0zm-8.51 31.641c1.518 6.562 2.694 13.266 5.299 19.498 1.149 2.748 5.966 2.834 5.734-.776-.451-7.031-2.418-13.816-4.044-20.648-1.08-4.54-8.04-2.618-6.989 1.926z"/><path fill="#6B8222" d="M382.718 406.701l6.718 5.11c2.451 1.864 4.534 3.409 7.751 3.208 2.348-.147 4.407-2.303 3.636-4.773-1.032-3.311-3.232-4.815-6.054-6.582-2.507-1.57-5.031-3.113-7.546-4.67-2.05-1.269-4.911-.442-6.106 1.601-1.341 2.293-.324 4.642 1.601 6.106zm12.483-22.687c4.822 1.626 7.648 4.743 10.438 8.805 3.053 4.445 10.119.494 7.323-4.28-3.277-5.594-9.82-9.463-16.03-10.802-4.105-.885-5.707 4.937-1.731 6.277zm-67.786-77.143c1.184 3.668 4.162 19.495 10.462 16.85 6.323-2.655-3.122-15.826-4.942-19.177-1.616-2.975-6.581-.959-5.52 2.327z"/><path fill="#6B8222" d="M331.659 304.748c-5.426-4.707-11.643-7.894-18.356-10.348-2.13-.779-3.504 1.478-3.261 3.261.764 5.606 4.083 10.788 8.657 14.07 1.508 1.082 2.806-.937 2.25-2.25-1.962-4.633-3.954-9.292-6.062-13.863l-2.994 3.894c6.399 1.03 11.952 3.952 16.823 8.178 2.015 1.747 4.97-1.184 2.943-2.942zm-14.094 33.822c4.001 4.933 8.046 10.29 13.988 13.03 1.81.834 3.502-.848 2.663-2.663-2.748-5.943-8.104-9.975-13.044-13.973-2.562-2.074-5.687 1.042-3.607 3.606zm99.363 96.676c3.343 4.752 6.853 9.383 10.572 13.848 3.411 4.096 7.032 8.904 12.043 10.982 2.127.882 4.816-1.789 3.921-3.921-1.884-4.49-5.875-7.884-9.147-11.435a189.732 189.732 0 01-11.073-13.166c-2.79-3.64-9.072-.226-6.316 3.692zm10.283-14.097c3.587 1.643 6.734 3.819 9.402 6.739 2.455 2.687 4.364 6.297 7.169 8.577 1.246 1.013 2.782.307 2.979-1.234.527-4.128-2.445-8.766-5.105-11.678-3.116-3.412-6.97-6.115-11.193-7.966-3.742-1.642-7.043 3.826-3.252 5.562zm-7.33 45.395c7.246 6.545 14.717 15.266 24.127 18.647 1.407.505 2.327-1.188 1.781-2.317-4.244-8.774-13.595-15.193-20.687-21.551-3.528-3.16-8.758 2.026-5.221 5.221z"/><path fill="#AF9F2C" d="M471.914 366.157c2.308 7.266 5.534 14.745 10.449 20.644 2.768 3.323 8.31-1.002 5.982-4.616-3.771-5.855-7.474-11.232-9.96-17.813-1.498-3.964-7.801-2.399-6.471 1.785zm-1.086-26.624c.772 3.017 1.204 6.289 3.121 8.831.525.696 1.97.836 2.147-.281.521-3.305-.607-6.436-1.385-9.621-.614-2.513-4.527-1.447-3.883 1.071zm-33.418-17.734c3.953 4.884 7.671 10.255 12.074 14.734 2.91 2.96 8.444-.996 5.91-4.56-3.828-5.384-8.627-10.213-12.954-15.205-3.034-3.5-7.862 1.532-5.03 5.031zm-10.863-35.19c5.528 4.274 11.007 9.525 17.113 12.928 3.359 1.872 6.851-2.545 4.119-5.339-4.89-5.001-11.383-8.909-16.963-13.123-3.162-2.388-7.433 3.087-4.269 5.534zm-22.286-35.907c2.253 3.812 4.273 7.742 5.894 11.867 1.273 3.239 2.406 7.057 4.952 9.51.93.896 2.58.524 2.916-.77 1.972-7.582-4.631-17.577-8.431-23.723-2.084-3.372-7.362-.32-5.331 3.116zm-8.603 7.867c1.225 4.179 4.685 7.643 9.203 7.602 1.584-.014 2.21-2.196.813-3.001-1.912-1.102-3.981-3.067-4.215-5.385-.178-1.758-1.451-3.156-3.345-2.9-1.716.231-2.962 1.961-2.456 3.684zm-4.052-37.909c4.306 4.185 8.324 8.643 11.859 13.503 2.7 3.713 5.023 8.767 9.612 10.33.977.333 2.394-.386 2.559-1.453.804-5.205-3.174-9.629-6.24-13.454-3.954-4.932-8.355-9.444-13.092-13.625-3.18-2.807-7.793 1.691-4.698 4.699zm2.594-20.136c3.078 3.095 6.132 6.216 9.253 9.268 2.889 2.825 5.633 6.321 9.407 7.922 1.433.608 3.911-.457 3.106-2.387-1.612-3.862-4.74-6.49-7.61-9.463-3.192-3.305-6.455-6.543-9.695-9.801-2.867-2.883-7.328 1.577-4.461 4.461zm45.214 38.315c1.191 4.476 2.333 8.97 3.593 13.427 1.035 3.662 1.378 7.491 4.588 9.79 1.366.979 3.001-.126 3.5-1.424 1.351-3.516-.812-7.497-1.908-10.918-1.332-4.157-2.761-8.286-4.142-12.428-1.181-3.539-6.606-2.11-5.631 1.553z"/><path fill="#A59737" d="M227.206 460.905c4.411 5.022 8.861 11.392 14.814 14.654 1.465.803 3.673-.553 3.03-2.329-2.403-6.64-8.174-12.193-12.631-17.536-3.023-3.623-8.352 1.637-5.213 5.211zm1.888-29.608l8.005 13.113c2.422 3.967 4.576 8.714 8.302 11.6 2.346 1.816 5.662.203 5.029-2.928-.938-4.642-4.182-8.62-6.681-12.559l-8.233-12.98c-2.553-4.027-8.93-.355-6.422 3.754z"/><path fill="#A59737" d="M229.035 409.777c-.155 8.371-2.209 19.635 1.239 27.475.546 1.24 2.724 1.24 3.27 0 3.449-7.839 1.394-19.104 1.239-27.475-.068-3.698-5.679-3.704-5.748 0zm-15.542 9.644l2.27 12.825c.631 3.565.832 7.29 3.557 9.888.823.785 2.552.804 3.08-.397 1.525-3.472.524-6.739-.268-10.35l-2.966-13.53c-.819-3.735-6.324-2.114-5.673 1.564zm-18.216-16.428c1.761 2.647 3.436 5.387 5.299 7.963 1.63 2.254 3.329 4.75 6.057 5.638 1.491.486 2.698-.789 2.825-2.152.252-2.72-1.487-5.383-2.86-7.621-1.572-2.562-3.267-5.058-4.898-7.583-2.594-4.015-9.079-.236-6.423 3.755z"/><path fill="#A59737" d="M211.45 373.837l9.535 19.07c2.555 5.11 4.796 11.423 9.996 14.29 1.585.874 3.277-.25 3.409-1.956.454-5.88-3.735-11.441-6.565-16.332l-10.654-18.416c-2.152-3.722-7.615-.445-5.721 3.344zm18.025 4.189c3.685 5.107 7.345 12.102 12.717 15.555 1.418.911 3.098-.59 2.732-2.1-1.464-6.037-6.669-11.512-10.194-16.526-2.242-3.191-7.544-.101-5.255 3.071zm-16.398-46.879l2.502 14.052c.748 4.198 1.29 7.414 4.394 10.465.695.683 2.215.689 2.655-.342 1.702-3.991 1.187-6.991.322-11.172-1.025-4.957-2.105-9.903-3.157-14.854-.939-4.421-7.492-2.509-6.716 1.851zm-9.58 47.691l.744 8.84c.124 1.477 2.175 1.48 2.299 0l.744-8.84c.205-2.435-3.992-2.439-3.787 0z"/><path fill="#A59737" d="M204.324 376.95c-4.58 3.292-6.139 8.763-4.988 14.202.959 4.534 5.798 10.814 11.059 8.768 1.249-.486 1.907-2.054.821-3.108-2.256-2.189-4.639-3.356-5.834-6.509-1.108-2.921-1.023-6.621 1.673-8.683 2.702-2.066.134-6.729-2.731-4.67zm52.952 112.182c4.113 5.391 8.184 10.818 12.342 16.175 3.426 4.414 7.191 9.595 12.215 12.204 1.571.816 3.416-.528 2.98-2.291-1.351-5.469-5.499-10.362-8.962-14.723-4.218-5.311-8.561-10.528-12.84-15.79-2.587-3.181-8.255 1.122-5.735 4.425zm36.567 27.998c.984 1.558 1.981 3.046 3.125 4.492 1.338 1.692 3.939-.161 3.447-2.007-.421-1.578-.979-3.073-1.566-4.595-.587-1.522-2.069-2.46-3.696-1.775-1.454.612-2.197 2.481-1.31 3.885zm-55.598-18.588c8.209 7.124 16.424 15.874 26.458 20.393 1.406.633 3.441-.786 2.359-2.359-6.221-9.05-16.099-15.498-24.561-22.289-2.963-2.378-7.222 1.681-4.256 4.255zm79.64 58.5c1.455 2.217 3.234 4.218 5.422 5.737 1.864 1.294 5.136 3.067 7.18 1.205 2.254-2.053-.513-4.352-2.264-5.38-2.03-1.191-3.944-2.56-5.375-4.463-.932-1.238-2.482-1.879-3.932-1.031-1.289.753-1.887 2.628-1.031 3.932z"/><path fill="#A59737" d="M298.174 524.692c4.409 3.719 8.723 7.617 13.289 11.143 3.787 2.925 8.225 6.575 13.171 6.786 1.447.062 2.738-1.551 2.25-2.953-1.595-4.582-6.073-7.618-9.87-10.392-4.769-3.484-9.878-6.559-14.824-9.787-3.107-2.029-6.916 2.757-4.016 5.203zm38.425 16.857l9.192 9.469c2.82 2.905 5.516 6.171 9.072 8.196 1.385.788 2.963-.788 2.174-2.174-2.023-3.555-5.291-6.252-8.196-9.072l-9.469-9.192c-1.813-1.76-4.534.959-2.773 2.773zm17.158 35.906l10.073 12.143c3.087 3.721 6.083 7.918 10.519 10.09 1.731.848 4.258-.58 3.526-2.711-1.607-4.683-5.179-8.144-8.505-11.685L358.012 573.2c-2.693-2.869-6.687 1.324-4.255 4.255z"/><path fill="#A59737" d="M375.063 594.725c3.098 3.468 7.532 6.235 12.261 6.495 1.345.074 1.368-1.745.294-2.175-3.767-1.511-7.069-3.315-9.499-6.678-1.641-2.273-4.941.248-3.056 2.358zm-12.93-34.528c5.49 4.324 10.986 9.946 17.474 12.657 1.672.699 3.163-1.588 2.291-2.98-3.584-5.726-9.876-10.088-14.84-14.602-3.37-3.064-8.38 2.205-4.925 4.925zm42.766 44.113c2.764 0 2.768-4.295 0-4.295-2.764 0-2.768 4.295 0 4.295zm30.706 31.075c3.239 0 3.244-5.033 0-5.033-3.239 0-3.244 5.033 0 5.033z"/><path fill="#6B8222" d="M457.451 466.29c3.525 4.224 6.968 8.541 10.614 12.659 2.959 3.342 6.622 7.275 10.906 8.781 1.436.505 2.593-1.013 2.312-2.312-.966-4.463-4.675-8.684-7.637-12.049-3.624-4.116-7.469-8.054-11.211-12.062-3.141-3.363-7.845 1.555-4.984 4.983zm19.827-1.646c3.671 0 3.677-5.705 0-5.705-3.671 0-3.677 5.705 0 5.705zm-17.166 24.374l11.145 7.331c3.004 1.976 6.686 5.123 10.407 4.909 1.318-.076 2.6-1.346 2.103-2.761-1.255-3.575-5.311-5.736-8.354-7.792l-11.677-7.888c-3.829-2.587-7.481 3.664-3.624 6.201zm30.325 13.998c2.246 0 2.249-3.49 0-3.49-2.245 0-2.249 3.49 0 3.49z"/><path fill="#AF9F2C" d="M497.551 416.387c5.075 3.419 8.286 8.307 11.339 13.469 2.061 3.484 7.866 1.215 6.641-2.8-2.235-7.322-8.067-12.831-14.829-16.058-3.618-1.727-6.508 3.128-3.151 5.389z"/><path fill="#AF9F2C" d="M502.169 413.713c.252-2.055 1.077-4.455 2.485-6.008 1.447-1.594 2.372-1.041 4.317-1.422 1.622-.318 1.974-2.18 1.402-3.446-.803-1.777-3.26-2.556-5.056-2.138-1.592.37-2.976 1.466-3.996 2.7-2.387 2.884-3.701 6.622-4.051 10.314-.301 3.168 4.523 3.068 4.899 0zm21.558 12.596l5.884 6.301c1.755 1.88 3.628 4.569 6.262 5.127 1.803.382 3.271-1.086 2.889-2.889-.56-2.643-3.241-4.501-5.127-6.262l-6.302-5.884c-2.402-2.243-5.851 1.203-3.606 3.607zm15.163 28.703l2.706 2.478c1.011.926 1.882 1.312 3.183 1.695 1.339.394 2.665-.931 2.27-2.27-.374-1.271-.781-2.186-1.695-3.183l-2.478-2.706c-2.456-2.682-6.668 1.529-3.986 3.986z"/><path fill="#4C460C" d="M653.414 403.593c.424 1.858.887 3.564 1.625 5.323.762 1.817 1.223 3.477 2.874 4.662 1.067.766 2.919.236 3.489-.915.875-1.767.508-3.439.331-5.336-.184-1.981-.615-3.8-1.135-5.714-1.263-4.64-8.249-2.685-7.184 1.98zm19.067 32.907c4.146 0 4.152-6.443 0-6.443-4.146.001-4.153 6.443 0 6.443zm169.658 402.432c3.843 5.321 7.407 12.358 13.442 15.377 2.178 1.09 4.098-.696 3.796-2.918-.872-6.419-6.018-11.737-9.646-16.897-3.241-4.608-10.9-.143-7.592 4.438z"/><path fill="#4C460C" d="M848.387 838.387c1.286-2.621 2.462-5.34 4.002-7.822l-4.546 1.192c2.552 1.085 4.127 2.966 5.806 5.099 1.184 1.505 3.752 1.39 5.115.305 1.573-1.253 1.897-3.245 1.003-5.026-1.785-3.557-5.538-5.767-9.364-6.451-1.853-.331-3.461.489-4.087 2.321-.857 2.505-2.103 4.893-3.203 7.3-1.611 3.525 3.527 6.643 5.274 3.082zm-29.914-35.755c1.482 6.46 2.586 14.62 6.863 19.926.789.979 2.546.414 2.804-.74 1.485-6.646-1.265-14.648-2.807-21.077-1.07-4.456-7.883-2.568-6.86 1.891z"/><path fill="#4C460C" d="M816.27 817.998c.389 1.823 1.213 3.485 2.366 4.94 1.221 1.541 2.597 2.426 4.541 2.807 1.481.29 3.198-1.328 2.16-2.81-1.208-1.724-2.43-3.704-2.41-5.839.019-2.046-1.856-3.597-3.84-3.329-2.085.284-3.245 2.229-2.817 4.231zm-14.385-28.814c3.584 0 3.59-5.57 0-5.57-3.584 0-3.59 5.57 0 5.57zm-69.283-77.509c3.519 6.968 8.641 16.494 15.873 20.189 3.435 1.755 7.21-1.805 5.306-5.306-1.82-3.347-4.871-6.099-7.28-9.04-2.56-3.126-4.767-6.505-6.771-10.009-2.656-4.645-9.51-.549-7.128 4.166zm-4.671-14.7c1.334.878 2.648 1.804 4.01 2.638 1.523.933 2.914 1.165 4.654.899 1.045-.16 1.555-1.444 1.336-2.353-.786-3.259-4.262-4.825-6.849-6.573-3.33-2.249-6.503 3.184-3.151 5.389z"/><path fill="#4C460C" d="M730.518 693.901c-.711-4.288-5.819-8.292-10.192-6.943-2.144.661-1.891 4.382.557 4.113 1.432-.157 2.7-.324 4.015.382 1.323.71 2.016 1.928 2.256 3.376.365 2.21 3.729 1.272 3.364-.928zm-64.67 78.784c5.429 3.643 10.009 8.183 13.821 13.488 2.159 3.004 6.967 11.96 11.305 6.178 3.466-4.62-3.502-11.785-6.494-15-4.245-4.563-9.249-8.388-14.669-11.446-4.443-2.507-8.131 3.983-3.963 6.78zm8.67-21.223c4.48 4.48 8.948 10.477 14.929 12.914 1.467.598 3.281-1.216 2.683-2.683-2.437-5.982-8.434-10.449-12.914-14.929-3.027-3.027-7.726 1.669-4.698 4.698z"/><path fill="#4C460C" d="M678.612 749.11c.057-2.006.067-4.019.177-6.023.092-1.679-.07-4.203.608-5.765l-3.422.897c3.789 2.406 6.999 5.945 10.892 8.094 1.401.773 2.943-.498 2.613-2.008-1.166-5.324-6.814-8.966-11.578-10.656-1.724-.612-3.721 1.335-3.076 3.076.706 1.909.456 4.348.461 6.362.004 2.005-.108 4.018-.165 6.023-.063 2.247 3.426 2.245 3.49 0zm-14.904-32.908c2.807 0 2.812-4.362 0-4.362-2.807-.001-2.812 4.362 0 4.362zm47.803 72.858c3.6 4.156 7.113 8.414 10.852 12.445 2.983 3.216 6.769 8.083 11.303 8.824 1.461.239 3.273-.634 3.143-2.394-.352-4.786-4.47-8.672-7.543-12.107-3.851-4.304-7.99-8.366-12.013-12.51-3.681-3.791-9.13 1.831-5.742 5.742z"/><path fill="#4C460C" d="M709.818 773.169c4.468 5.779 8.738 11.632 13.876 16.831 1.541 1.559 4.057-.426 3.004-2.318-3.56-6.395-7.99-12.138-12.295-18.051-2.463-3.383-7.185.175-4.585 3.538zm-76.253 50.561a158.7 158.7 0 0112.397 23.462c2.872 6.731 4.513 14.443 9.072 20.218 1.318 1.669 4.436.729 4.823-1.273 3.015-15.58-9.891-35.006-18.701-46.844-3.292-4.424-10.717-.432-7.591 4.437z"/><path fill="#4C460C" d="M650.629 836.773c2.58 2.025 4.677 4.435 6.093 7.414 1.103 2.322 1.577 6.035 4.009 7.34a1.833 1.833 0 002.155-.278c2.697-2.569.631-7.475-.794-10.201-1.884-3.606-4.632-6.513-7.884-8.914-2.673-1.971-6.218 2.567-3.579 4.639z"/><path fill="#4C460C" d="M650.804 835.772c2.03 3.219 3.371 6.595 4.366 10.26.821 3.024.998 6.568 2.645 9.257.701 1.144 2.374 1.158 3.071 0 4.216-6.998-1.94-17.058-6.446-22.323-1.712-2.001-5.029.597-3.636 2.806zm-62.783 94.238c3.337 10.262 8.175 20.21 13.789 29.448l8.346-6.44c-2.343-1.921-4.18-4.255-7.266-4.752-2.01-.324-3.347.778-3.611 2.75-.372 2.782.947 4.635 1.995 7.172 2.925 7.08 13.284 2.756 9.712-4.095-4.991-9.573-10.992-18.798-18.03-26.957-1.927-2.233-5.825.137-4.935 2.874zm-8.005-20.416c4.694 5.611 9.245 11.392 14.206 16.769 3.857 4.181 9.781-1.944 6.182-6.182-4.723-5.561-9.895-10.767-14.883-16.092-3.474-3.709-8.671 1.72-5.505 5.505z"/><path fill="#4C460C" d="M582.558 908.635c6.93.133 10.572 5.363 11.902 11.629.339 1.595 2.131 2.934 3.753 2.858.749-.035 1.291-.228 1.965-.531 1.434-.647 2.346-2.923 1.789-4.396-2.951-7.806-11.268-12.289-19.409-12.445-1.858-.037-1.858 2.849 0 2.885zm-27.054-5.245c3.535 4.314 6.858 9.533 11.28 12.947 3.584 2.767 7.525-2.406 5.757-5.757-1.325-2.51-3.555-4.619-5.405-6.753a32295.2 32295.2 0 00-5.605-6.464c-1.509-1.74-4.481-1.546-6.027 0-1.762 1.762-1.464 4.241 0 6.027z"/><path fill="#4C460C" d="M560.618 899.18c-3.01-4.205-6.971-6.832-11.18-9.686-2.816-1.91-6.964 1.997-4.832 4.832 2.904 3.861 7.42 7.823 12.198 9.079 2.928.77 5.739-2.556 4.04-5.255-2.622-4.165-7.684-7.403-12.25-9.012l-.939 6.937c3.448.216 6.529 3.075 8.442 5.747 1.945 2.716 6.487.105 4.521-2.642zm-4.745-37.823c1.973 1.978 3.715 4.116 5.313 6.406.739 1.058 1.389 2.171 2.089 3.254 1.08 1.67 2.184 2.633 3.813 3.743 2.56 1.745 6.883-.53 6.53-3.747-.227-2.068-.599-3.758-1.839-5.466-1.008-1.39-2.208-2.65-3.44-3.842-2.418-2.34-5.263-4.253-8.197-5.881-3.465-1.923-7.142 2.652-4.269 5.533z"/><path fill="#4C460C" d="M559.904 856.257c-2.483-1.233-5.15-2.395-7.211-4.289-1.982-1.822-5.593-1.21-6.258 1.652-.545 2.348-1.834 4.572-1.665 7.019.11 1.595 1.424 3.518 3.281 3.281 2.47-.315 4.375-1.409 5.322-3.819.786-2.001.999-4.433.282-6.481l-4.605 4.605c2.839.514 5.337 1.797 7.906 3.073 3.356 1.666 6.317-3.368 2.948-5.041zm-35.337 1.629c2.577.621 5.533 1.835 8.141.867 1.294-.481 2.186-1.987 1.344-3.303-1.531-2.392-4.207-3.119-6.692-4.188-1.982-.852-4.22-.453-5.141 1.733-.813 1.927.214 4.376 2.348 4.891zm94.012 130.123c2.783 5.021 5.257 10.669 8.815 15.177 2.491 3.157 8.477-.276 6.908-4.021-2.222-5.305-5.953-10.208-9-15.085-2.653-4.244-9.162-.47-6.723 3.929zm-5.809-32.253c2.743 3.378 5.475 6.766 8.23 10.134 2.415 2.952 4.94 6.233 8.935 6.9 1.204.201 2.422-.5 2.421-1.844-.002-4.127-2.772-7.168-5.347-10.098-3.012-3.428-6.076-6.812-9.114-10.218-3.151-3.532-8.012 1.572-5.125 5.126z"/><path fill="#4C460C" d="M617.757 953.722c1.167-2.894 3.077-5.353 5.762-6.979h-2.751c1.52.883 2.615 2.079 3.817 3.346 1.089 1.147 1.765 2.469 3.434 2.795.948.185 1.775-.137 2.312-.941 3.01-4.503-3.953-9.115-7.463-10.18-.946-.287-1.951.043-2.651.701-3.05 2.865-5.42 6.117-6.99 10.01-1.13 2.803 3.412 4.021 4.53 1.248zm19.307 3.022c2.885 5.806 5.444 12.6 10.005 17.32 1.262 1.305 3.057-.088 2.804-1.632-1.06-6.479-5.074-12.706-8-18.499-1.617-3.205-6.399-.388-4.809 2.811z"/><path fill="#E9520D" d="M296.968 418.548c-10.994 17.655-16.393 26.858-16.13 43.116.262 16.258 5.844 27.529 16.304 34.016 10.46 6.487 27.851 25.934 40.997 26.607 13.147.673 20.556.49 33.423-5.267 12.867-5.757 22.375-11.651 32.243-23.326 9.868-11.675 21.311-12.406 16.077-27.15-5.234-14.744-11.419-37.612-17.056-44.569s-12.73-21.147-28.327-21.306c-15.597-.159-25.136-2.832-36.359-3.145-11.223-.313-19.045-2.17-24.882 3.145-5.839 5.316-16.29 17.879-16.29 17.879z"/><path fill="#EF541B" d="M538.028 365.689c-18.103 2.278-22.569 6.822-32.527-3.693-9.958-10.515-17.562-14.912-24.176-19.223-6.614-4.311-10.722-10.751-12.381-20.073-1.658-9.322-7.014-12.825-2.14-26.19 4.875-13.364 5.694-16.394 9.424-24.62 3.73-8.226 3.771-11.829 12.523-16.364 8.753-4.535 4.784-10.544 21.878-10.951 17.094-.407 31.431-2.517 41.809 0 10.378 2.517 25.647 4.763 31.659 10.951 6.013 6.188 14.333 13.51 17.484 24.958s2.64 19.361 3.87 30.514c1.23 11.153 1.752 17.262-3.87 27.855s-14.304 21.249-17.762 23.232c-3.457 1.983-8.918 3.759-17.885 6.77-8.967 3.012-27.906-3.166-27.906-3.166z"/><path fill="#C40200" d="M495.543 351.482c-4.862 7.713-20.203 30.003-22.051 38.385-1.848 8.382-10.688 10.578-4.548 24.071 6.14 13.492 11.052 17.261 14.932 32.767 3.88 15.506 20.382 25.079 26.753 28.247 6.371 3.168 14.528 2.542 24.584 4.805s19.112 4.074 36.066-7.254c16.955-11.328 16.881-15.295 26.629-25.797 9.748-10.502 12.706-8.886 16.101-20.904 3.395-12.018 8.534-9.166 3.527-21.315-5.006-12.149-10.553-22.38-14.603-29.449-4.05-7.069-9.808-12.548-19.114-23.943-9.306-11.395-2.094-18.407-17.885-19.775-15.791-1.368-14.678-3.948-27.907-1.683s-24.022 4.211-27.398 7.137c-3.376 2.924-15.086 14.708-15.086 14.708z"/><g fill="#726F16"><path d="M348.971 439.829c2.427-1.046 3.167-4.531 2.203-6.724-.472-1.074-1.166-1.845-1.999-2.371.5-1.444.451-3.053-.438-4.431-1.511-2.343-5.031-3.76-7.56-1.982-.506.355-.996.734-1.495 1.099.191-2.147-1.758-4.108-3.89-4.126-4.294-.035-6.545 4.202-6.27 8.088.002.034.018.064.021.097-2.136-.417-4.311.013-5.701 2.093-1.729 2.587-.182 5.501 1.511 7.652l-.05.013c-4.003 1.021-4.053 7.158 0 8.154.345.085.699.179 1.056.274-.15.303-.308.589-.446.92-.914 2.183 1.389 4.856 3.592 4.715 2.399-.153 4.297-.936 6.444-1.943a40.276 40.276 0 002.149-1.089c1.309 1.147 2.678 2.209 4.162 3.02 2.768 1.513 6.227.429 7.468-2.517.983-2.332-.02-5.911-2.613-6.871-1.447-.967-2.94-1.85-4.417-2.758 2.164-.11 4.298-.462 6.273-1.313zM494.577 263.24c1.296 1.62 2.782 3.099 4.72 4.262 1.811 1.087 4.482 1.209 6.282 0l.166-.112c1.739-1.168 2.654-2.956 2.832-4.779.016-.135.065-.263.066-.399 1.329-.082 2.622-.806 3.35-1.909 1.61.554 3.214-.206 4.242-1.56a.802.802 0 01.197-.072 1.09 1.09 0 01-.159.028l.004-.005-.005.005c-.191.005 1.038-.434 1.242-.576 1.387-.971 2.204-2.554 1.734-4.263-.415-1.51-2.006-2.901-3.64-2.771-1.758.14-3.28.981-4.414 2.245-2.309-4.257-6.762-6.773-8.186-11.717-.962-3.34-.74-6.69-1.932-10.029-1.27-3.556-3.468-6.693-5.196-10.021-1.44-2.774-6.618-1.645-6.19 1.677.475 3.69.628 7.421 1.824 10.981.796 2.37 2.012 3.836 3.393 5.352-.561-.296-1.093-.626-1.674-.897-1.683-.788-3.623-.734-5.002.645-1.192 1.193-1.727 3.557-.645 5.002.78 1.041 1.589 2.055 2.374 3.091-5.13-3.253-10.068-7.722-13.536-12.601-1.549-2.179-5.094-.23-3.651 2.134 3.484 5.706 8.844 8.93 13.163 13.696a46.836 46.836 0 00-4.476-.626c-4.088-.381-4.68 5.133-1.914 7.066 4.058 2.837 9.743 7.918 15.031 6.153zm21.649-4.494c-.133.146-.168.086 0 0zm13.766 142.395l.126-.276c.84-1.845.893-4.172-.731-5.663-1.667-1.53-3.663-1.59-5.663-.731-1.447.622-2.102 1.892-2.639 3.27-.016.041-.014.08-.028.121-.021-.015-.044-.027-.065-.042.036-2.299-2.037-4.65-4.601-3.773-1.603.548-2.513-1.6-3.516-2.604-1.399-1.399-3.008-2.486-4.936-3.012-3.55-.97-8.28-.974-11.049 1.646a3.346 3.346 0 00-.695.984c-4.577.766-6.338 7.407-1.873 9.864 2.136 1.175 4.656 1.749 7.101 1.775-.797.747-1.419 1.674-1.74 2.669a17.875 17.875 0 00-4.645 1.307c-4.566 1.996-9.561 4.167-13.123 7.713-2.653 2.641.975 7.779 4.139 5.365 4.728-3.608 9.152-5.972 14.192-7.296-1.547 2.143 1.12 4.851 3.543 3.717 1.71-.8 3.414-.915 5.141-.907-.303.804-.618 1.602-.906 2.413-.409 1.152.454 2.061 1.469 2.268-.272 2.125.809 4.326 3.199 4.956.491.13.968.191 1.429.202.966.899 2.468 1.288 3.697.935 3.739-1.077 4.986-4.362 4.189-7.261 2.085.335 4.125-.445 5.071-2.691.724-1.719.288-3.8-.973-5.122l.003.001c-.008-.01-.018-.015-.026-.026l-.031-.034c3.375.993 7.291.339 8.003-3.795.497-2.88-1.086-5.616-4.062-5.973zm-15.14 2.693a1.444 1.444 0 01-.427-.641l-.003-.029c.14.225.258.461.43.67zm-.937-1.754c.111.334.249.653.431.965-.028.695.13 1.411.263 2.084.045.225.165.384.236.587-.674-.351-1.426-.56-2.24-.532a9.722 9.722 0 00-1.571.196 58.341 58.341 0 01-1.74-1.911c1.014-.374 1.686-1.492 1.495-2.469 1.014.528 2.064.907 3.126 1.08z"/><path d="M490.194 401.227c.777 0 .778-1.208 0-1.208-.777 0-.779 1.208 0 1.208z"/></g><path fill="#F7E5A3" d="M558.736 823.06l236.082 100.065s37.66-91.087-14.622-139.511c-52.282-48.423-101.632-81.833-150.245-50.369-48.614 31.465-71.215 89.815-71.215 89.815z"/><path fill="#F7E5A3" d="M748.881 642.497l67.301 246.492s54.735-16.781 80.015-66.943c25.28-50.163 30.219-76.319 6.824-110.206-23.395-33.886-21.779-52.545-64.503-62.712-42.726-10.167-89.637-6.631-89.637-6.631z"/><path fill="#E0D041" d="M779.745 784.715c-52.282-48.424-101.632-81.833-150.246-50.369-48.613 31.465-71.214 89.815-71.214 89.815l1.932.819c17.484-32.371 44.663-62.69 79.411-76.222 31.816-12.391 71.241-7.006 100.986 8.725 58.308 30.836 64.22 104.209 41.519 161.558l12.233 5.185c.001-.001 37.661-91.088-14.621-139.511z"/><path fill="#E0D041" d="M902.57 712.94c-23.395-33.887-21.779-52.546-64.503-62.712-42.724-10.167-89.636-6.631-89.636-6.631l1.497 5.484c17.049.482 33.755 3.317 50.576 6.027 13.718 2.21 27.88 2.898 41.424 6.056 29.296 6.831 43.586 30.107 52.89 57.185 10.224 29.755 5.927 60.114-8.67 87.587-15.451 29.081-42.688 49.415-63.66 74.175-2.497 2.948-5.355 4.372-8.204 4.677l1.447 5.3s54.735-16.781 80.015-66.943 30.219-76.319 6.824-110.205z"/><g fill="#FFFAD7"><path d="M896.905 725.264c-6.332-28.859-18.917-52.662-47.216-64.31-29.941-12.324-66.4-11.824-98.223-14.535-1.597-.136-2.243 2.339-.823 3.039 9.276 4.568 19.333 6.895 29.65 8.395a.476.476 0 00-.203.314c-4.714 25.355 0 54.186 1.932 79.727.037.486.757.498.765 0 .442-26.539.097-53.043-1.55-79.572a.569.569 0 00-.168-.361c6.802.96 13.707 1.587 20.581 2.244-.282.424-.45.908-.462 1.396-.008.016-.025.018-.031.036-5.636 15.223-7.584 31.493-9.392 47.537-.083.737 1.192.917 1.305.177 2.385-15.594 5.003-31 8.572-46.365.181.237.4.456.703.623 5.751 3.175 9.862 4.988 11.676 11.913 1.684 6.43-.205 12.957-1.186 19.355-9.581 23.292-18.417 47.057-26.95 70.461-.347.954 1.235 1.637 1.656.698 13.093-29.193 26.899-58.14 39.956-87.348 1.737-1.628 3.577-3.06 5.604-4.054 5.663-2.778 13.929-2.652 21.202-1.354 4.242 2.321 8.245 5.037 11.807 8.31 6.789 6.241 11.424 14.083 14.922 22.493.992 10.85 1.037 22.002-9.389 29.105-6.286 4.283-16.038 6.702-23.108 9.905-17.09 7.742-33.175 16.106-49.001 26.2-.631.402-.062 1.394.589 1.008 12.83-7.607 26.658-14.517 40.597-19.846 10.546-4.031 22.102-5.336 32.474-9.65.294-.122.54-.269.823-.396 3.7-.656 7.317-.042 10.964.7 1.982.403 3.674 1.044 5.469.924 1.345 18.669-2.734 36.701-10.169 53.782-2.043 2.331-5.848 2.821-9.525 2.669-22.526-8.2-47.482-15.023-67.656-27.428-1.216-.748-2.719 1.086-1.562 2.024 9.125 7.393 18.947 11.022 29.943 15.031 9.448 3.445 18.845 7.02 28.246 10.585-.084.39-.093.795.033 1.159 1.345 3.902 4.314 3.658 7.406 5.543 2.293 1.398 3.743 4.59 4.232 7.849a207.09 207.09 0 01-7.246 11.543c-3.158-4.425-8.099-8.14-12.126-11.557-4.82-4.089-9.91-7.786-15.108-11.375-.617-.426-1.372.546-.805 1.044 4.917 4.312 9.72 8.751 14.578 13.127 3.858 3.476 7.673 7.918 12.096 10.784-5.317 7.717-11.13 15.156-17.201 22.279-5.016 1.586-11.082.946-15.922-.403-8.604-6.213-16.788-18.938-20.353-24.25-.215-.32-.728-.029-.522.305 5.208 8.439 10.381 18.694 17.29 26.509a38.907 38.907 0 00-.245-.183c-1.813-1.353-3.882 1.533-2.366 3.067 1.964 1.989 4.346 4.462 4.316 7.481-.023 2.314-1.838 4.126-1.838 6.536 0 .661.248 1.196.622 1.602a546.212 546.212 0 01-12.357 12.148c-1.418 1.352.509 4.013 2.147 2.783 47.104-35.374 94.187-97.252 80.547-159.423zm-77.594-57.412c-.495-1.36-1.257-2.724-2.197-3.992 4.241-.157 2.551 7.441 3.506 9.751.164.397.457.74.805.986-.467 1.063-.916 2.138-1.379 3.204.488-3.398.422-6.764-.735-9.949zm5.697-1.237c-.418-1.387-1.116-2.684-2.044-3.733 1.148.206 2.285.44 3.421.676-.464 1.014-.917 2.039-1.377 3.057zm9.724-.577c-.703.284-1.372.604-2.019.949.258-.589.529-1.174.786-1.764.654.174 1.304.376 1.957.561-.242.089-.477.154-.724.254zm39.029 137.944c.487.18.97.369 1.458.549.312.115.601.153.863.133-.354.693-.691 1.393-1.055 2.083a17.845 17.845 0 00-1.266-2.765zm-40.166 58.481c-.004-.029-.004-.057-.008-.086a7.944 7.944 0 00-.08-1.847c.012-.257.01-.509.042-.774.083-.675-.214-1.109-.642-1.354-.2-.47-.43-.92-.696-1.346 1.263.84 2.889 1.504 4.628 1.91a418.865 418.865 0 01-3.244 3.497zm49.29-128.387c2.437-2.791 3.949-6.002 4.714-9.487.035.14.076.281.111.421.25.991.437 1.976.655 2.964-1.016.115-1.974 1.361-1.358 2.457.725 1.291 1.287 2.794 2.058 4.123-2.028-.376-4.022-.68-6.18-.478zm-203.097 31.962c-1.96 12.889-1.444 26.141-.926 39.125.025.619.967.625.966 0-.014-13.002 1.146-25.999.948-38.991-.008-.544-.9-.714-.988-.134zm7.123 43.993c.875-7.982 2.101-15.911 2.84-23.906.093-1.011-1.583-1.242-1.78-.241-1.565 7.98-2.213 16.04-2.791 24.146-.08 1.125 1.612 1.087 1.731.001zm19.498 42.303c-1.73 2.369-3.394 4.787-5.083 7.186-.341.484.475.971.8.467 1.583-2.459 3.196-4.902 4.736-7.389.18-.292-.258-.53-.453-.264zm33.531-46.282a177.474 177.474 0 019.829-14.875c.269-.366-.336-.834-.633-.488a108.681 108.681 0 00-10.552 14.57c-.525.867.842 1.664 1.356.793zm-35.369 59.898c16.013-20.191 32.683-40.027 48.062-60.693.276-.371-.32-.809-.633-.488-17.946 18.404-33.896 39.213-48.884 60.059-.608.845.8 1.947 1.455 1.122z"/><path d="M792.064 873.502c2.1-20.365 1.158-41.313-2.039-60.338-5.164-30.732-38.401-50.738-64.543-62.596-24.293-11.019-58.195-11.413-84.755-2.922-.671-.744-1.682-1.162-2.673-.767-2.361.942-4.092 2.22-5.34 3.736-.878.365-1.779.707-2.633 1.093-30.108 13.62-51.42 43.987-67.78 71.603-.8 1.351 1.23 3.046 2.245 1.732 12.899-16.689 24.753-33.742 40.134-47.472a19.165 19.165 0 012.413-.21c7.536-.13 12.741 7.425 16.749 12.875 5.627 7.651 10.602 15.079 17.604 21.59.211.197.436.281.657.32 8.621 13.352 17.194 26.746 25.478 40.307.189.309.669.031.487-.284-8.956-15.511-17.57-31.235-26.119-46.972-7.052-12.982-13.709-26.946-23.057-38.511 2.177-1.408 4.4-2.775 6.731-4.044 1.007-.548 2.076-1.046 3.124-1.561 4.327 13.974 13.163 26.939 20.131 39.666 8.3 15.157 16.062 30.601 23.947 45.976.475.926 1.844.112 1.391-.813-7.621-15.545-15.37-31.033-22.571-46.779-4.255-9.303-8.065-19.374-12.936-28.663-.937-5.446-.487-9.435.705-13.827 15.432-5.389 33.423-7.655 50.499-6.287-.017.919.6 1.896 1.514 2.254 1.869.732 3.847 1.085 5.7 1.838 4.866 1.978 6.403 5.442 7.006 9.933-4.269 14.014-5.423 30.662-7.682 43.601-3.713 21.262-7.927 42.5-11.211 63.83-.119.774 1.024 1.132 1.204.332 4.371-19.489 8.436-38.939 13.402-58.273.32.289.917.299 1.055-.243.584-2.3 1.127-4.594 1.601-6.919.096-.472-.542-.654-.72-.225 4.564-15.895 12.575-34.801 12.599-51.267 3.124 1.056 6.163 2.232 9.024 3.621 19.452 9.442 41.78 21.994 53.018 40.903.007.012.007.026.014.038 6.727 11.733-31.353 33.786-38.575 40.739-12.515 12.049-23.283 25.989-37.003 36.757-.924.725.266 2.213 1.244 1.613 23.117-14.185 39.244-36.853 61.627-52.359 2.24-1.552 7.143-4.985 11.683-9.046.199-.133.383-.285.588-.412 1.467-.913 3.185-1.696 4.944-1.195.753.215 1.342.675 1.919 1.165.155.881.362 1.736.471 2.639 2.083 17.299 3.281 35.706 2.33 53.828-15.793.104-31.555.144-47.397-.272-1.031-.027-.982 1.464 0 1.57 15.509 1.685 31.474 2.621 47.158 2.524-.092 1.314-.175 2.629-.291 3.938-18.442-1.747-37.16-1.569-55.634-.987-.468.015-.465.699 0 .725 18.443 1.007 36.813 2.903 55.226 4.184-1.192 10.984-3.28 21.752-6.605 31.973-.72 2.214 2.588 3.005 3.417.942 4.216-10.495 7.164-21.847 9.051-33.545.144-.317.196-.669.159-1.035.322-2.068.612-4.143.867-6.23.089-.002.179.001.267-.001 2.388-.062 2.448-3.608.181-3.79zM619.19 775.291c-.28-.289-.525-.608-.814-.891-1.583-1.551-3.287-2.905-5.205-3.752.968-.718 1.929-1.442 2.926-2.133a102.64 102.64 0 003.093 6.776zm88.526-20.247c-.05-.135-.078-.275-.133-.408-.253-.611-.595-1.151-.939-1.689.628.151 1.234.34 1.855.504-.273.519-.526 1.058-.783 1.593z"/><path d="M603.302 814.419c-.553-.269-1.037.528-.488.834 19.156 10.681 37.766 22.718 55.585 35.495.791.567 1.824-.752 1.049-1.36-17.578-13.795-36.075-25.178-56.146-34.969zm225.901-44.056c16.982 4.748 34.275 8.711 51.86 10.413 1.415.137 1.738-2.218.337-2.492-17.207-3.357-34.499-6.197-51.629-9.979-1.336-.295-1.899 1.686-.568 2.058zm34.367-3.663c.838.018 1.015-1.254.198-1.463-9.571-2.454-19.464-3.343-29.224-4.794-1.251-.186-1.827 1.686-.536 1.941 9.774 1.934 19.574 4.101 29.562 4.316zm-2.304-84.209c.085-.096-.056-.239-.143-.143l-3.463 3.852c-.104.116.068.288.171.171l3.435-3.88zm-49.845 59.914c14.095-18.724 29.153-36.737 43.013-55.623.231-.315-.276-.696-.538-.415-15.991 17.205-30.171 36.227-44.319 54.961-.826 1.095 1.027 2.162 1.844 1.077zm-8.408 17.331c21.417-23.25 43.641-46.254 62.958-71.32.539-.699-.603-1.527-1.202-.927-22.315 22.366-42.176 47.373-62.412 71.592-.375.451.246 1.1.656.655zm-16.131 15.349c15.043 18.916 30.204 38.396 47.783 55.044.553.524 1.61-.192 1.107-.854-14.702-19.352-31.679-37.127-47.608-55.472-.777-.893-1.993.388-1.282 1.282zm46.392 39.131c-9.259-16.924-24.904-29.026-36.972-43.794-.815-.998-2.585.345-1.802 1.391 11.443 15.286 25.882 27.936 37.279 43.276.65.876 2.043.129 1.495-.873zm-37.158-13.152c-.209-.452-.979-.131-.81.341 2.518 7.041 5.602 13.419 10.517 19.105.35.404.987-.115.727-.561-3.604-6.2-7.427-12.366-10.434-18.885z"/></g><path fill="#6D301E" d="M913.901 465.919c-11.302-24.677-33.71-39.302-55.313-54.186-25.69-17.7-50.879-37.69-69.56-62.99-14.751-19.978-22.282-54.649-54.368-41.154-14.756 6.206-27.182 18.472-40.005 27.822-14.875 10.845-30.052 21.3-45.072 31.944-57.379 40.664-114.091 81.025-165.47 129.243-28.112 26.383-56.364 49.978-88.256 71.688-30.697 20.897-56.319 44.659-82.845 70.49-12.781 12.446-26.195 25.142-41.867 33.909-12.286 6.872-25.626 12.789-31.577 26.59-4.325 10.032-2.487 20.791 1.614 30.722 6.09 18.439 19.19 36.755 28.393 50.77 8.125 12.374 13.617 25.909 23.167 37.234 9.77 11.586 20.889 21.964 32.523 31.661 11.351 9.463 23.263 18.329 35.711 26.297 11.94 7.643 25.947 18.323 40.529 19.311 29.233 1.979 60.425-24.865 81.369-42.3 54.03-44.978 105.737-91.931 161.826-134.493 56.757-43.069 115-84.119 171.99-126.872 26.482-19.867 54.372-39.008 79.12-61.038 19.162-17.056 29.427-39.896 18.091-64.648z"/><linearGradient id="g" gradientUnits="userSpaceOnUse" x1="786.236" y1="413.8" x2="343.073" y2="783.309"><stop offset="0" stop-color="#f3933d"/><stop offset=".098" stop-color="#f49037"/><stop offset="1" stop-color="#ff7902"/></linearGradient><path fill="url(#g)" d="M894.754 457.201c-10.872-24.221-32.427-38.575-53.207-53.184-24.713-17.373-48.942-36.993-66.912-61.825-14.19-19.609-21.434-53.639-52.298-40.393-14.194 6.091-26.147 18.13-38.482 27.307-14.308 10.645-28.908 20.906-43.356 31.353-55.195 39.912-109.749 79.526-159.172 126.853-27.042 25.895-54.219 49.054-84.897 70.362-29.529 20.511-54.175 43.834-79.692 69.186-12.295 12.216-25.198 24.677-40.273 33.282-11.818 6.745-24.651 12.552-30.375 26.098-4.161 9.846-2.393 20.406 1.552 30.154 5.858 18.098 18.46 36.075 27.313 49.831 7.816 12.145 13.099 25.43 22.285 36.546 9.398 11.372 20.094 21.558 31.285 31.076 10.919 9.288 22.378 17.99 34.352 25.811 11.486 7.502 24.96 17.985 38.987 18.953 28.121 1.943 58.125-24.405 78.272-41.517 51.974-44.147 101.713-90.231 155.667-132.006 54.597-42.273 110.623-82.564 165.444-124.526 25.474-19.499 52.303-38.286 76.109-59.909 18.428-16.739 28.302-39.158 17.398-63.452z"/><defs><path id="h" d="M894.535 457.201c-10.872-24.221-32.427-38.575-53.207-53.184-24.713-17.373-48.942-36.993-66.912-61.825-14.19-19.609-21.434-53.639-52.298-40.393-14.194 6.091-26.147 18.13-38.482 27.307-14.308 10.645-28.908 20.906-43.356 31.353-55.195 39.912-109.749 79.526-159.172 126.853-27.042 25.895-54.219 49.054-84.897 70.362-29.529 20.511-54.175 43.834-79.692 69.186-12.295 12.216-25.198 24.677-40.273 33.282-11.818 6.745-24.651 12.552-30.375 26.098-4.161 9.846-2.393 20.406 1.552 30.154 5.858 18.098 18.46 36.075 27.313 49.831 7.816 12.145 13.099 25.43 22.285 36.546 9.398 11.372 20.094 21.558 31.285 31.076 10.919 9.288 22.378 17.99 34.352 25.811 11.486 7.502 24.96 17.985 38.987 18.953 28.121 1.943 58.125-24.405 78.272-41.517 51.974-44.147 101.713-90.231 155.667-132.006 54.597-42.273 110.623-82.564 165.444-124.526 25.474-19.499 52.303-38.286 76.109-59.909 18.429-16.739 28.303-39.158 17.398-63.452z"/></defs><clipPath id="i"><use xlink:href="#h" overflow="visible"/></clipPath><g clip-path="url(#i)"><g opacity=".58" fill="#FFB273"><path d="M896.336 517.829c-13.172-5.939-29.345-6.567-43.649-7.975-8.61-.848-17.906-1.489-24.883 4.489-7.503 6.43-9.641 17.875-12.092 26.916-4.124 15.212-10.765 29.045-16.063 43.779-.315.875.965 1.609 1.57.914 12.416-14.237 18.912-32.909 24.971-50.491 6.107-17.718 16.734-21.374 34.571-17.874 11.306 2.219 22.758 5.855 34.337 4.807 2.143-.194 3.683-3.463 1.238-4.565z"/><path d="M898.954 500.206c-11.748-4.8-23.625-8.389-35.328-13.68-8.072-3.649-16.203-7.217-24.375-10.636-14.07-5.888-24.899-8.285-31.399 7.652-9.029 22.137-17.04 44.754-26.176 66.899-9.165 22.215-18.13 44.364-25.323 67.309-.471 1.501 1.862 2.533 2.576 1.086 17.96-36.413 31.668-74.74 49.633-111.145 2.385-4.833 7.458-20.001 12.283-22.544 7.102-3.743 24.824 7.759 31.666 10.62 13.437 5.618 30.982 11.627 45.675 10.107 3.321-.344 3.818-4.422.768-5.668z"/><path d="M785.949 487.546c1.616-4.489 3.041-11.274 5.685-15.306 5.108-7.789 11.077-7.233 18.918-7.448 13.654-.375 26.765 2.895 40.136 5.086 2.86.469 5.21-3.574 2.146-5.09-15.916-7.879-43.776-16.119-61.698-10.332-17.879 5.773-20.656 35.919-25.067 50.767-7.949 26.753-14.723 53.847-23.33 80.408-7.806 24.087-15.886 48.565-32.617 68.094-1.027 1.199.632 2.921 1.756 1.756 26.809-27.787 35.816-67.319 49.117-102.447 8.273-21.853 17.036-43.498 24.954-65.488z"/><path d="M771.729 462.192c1.227-4.49 2.511-8.98 3.592-13.51 2.287-9.592 7.066-10.78 16.844-10.003 14.141 1.124 28.945 7.389 42.896 10.251 5.33 1.093 7.599-6.734 2.266-8.219-15.036-4.188-30.334-7.487-45.509-11.137-7.89-1.898-13.81-2.76-20.699 2.004-8.406 5.814-10.679 14.753-13.217 24.059-4.175 15.307-8.711 30.508-13.328 45.686-18.207 59.854-40.494 117.25-67.38 173.78-1.025 2.155 2.011 4.019 3.245 1.897 25.969-44.658 46.984-91.587 66.231-139.501 9.885-24.608 18.071-49.728 25.059-75.307z"/><path d="M744.207 476.573c5.712-15.814 10.953-32.007 14.858-48.371 3.029-12.694 7.735-17.15 20.967-14.294 8.775 1.895 16.596 5.942 24.7 9.621 3.934 1.787 6.767-3.167 3.354-5.737-14.669-11.043-48.926-24.71-59.596-2.219-7.525 15.861-10.414 35.56-15.534 52.381-5.414 17.786-10.692 35.658-16.826 53.21-12.473 35.689-28.906 70.114-44.774 104.388-13.318 28.766-25.989 67.532-50.763 88.738-.885.758.314 2.35 1.26 1.634 9.399-7.11 18.007-13.391 25.137-22.945 8.424-11.287 14.628-24.152 20.514-36.894 14.059-30.435 27.349-61.255 40.499-92.091 12.348-28.956 25.508-57.808 36.204-87.421z"/><path d="M702.572 513.691c9.468-25.036 16.215-50.903 22.21-76.952a426.628 426.628 0 004.29-20.913c.843-4.735.509-13.577 3.162-17.55 10.103-15.123 37.778-6.956 51.362-3.105 2.394.678 3.414-3.223 1.017-3.689-10.73-2.087-21.193-4.147-31.783-6.778-7.096-1.763-16.228-4.307-23.274-.686-14.261 7.329-12.812 33.883-15.178 47.087-8.913 49.733-25.614 101.275-46.867 147.081-10.249 22.088-22.116 43.272-33.047 65.01-10.853 21.584-20.548 44.665-33.829 64.904-13.261 20.207-32.703 35.63-50.256 51.925-17.147 15.918-34.8 31.4-54.117 44.661-48.636 33.387-101.784 43.006-159.62 46.75-1.623.105-1.655 2.59 0 2.55 44.298-1.071 91.154-4.029 132.579-21.13 39.669-16.376 72.142-46.477 102.717-75.808 33.503-32.142 50.613-74.23 71.048-115.157 20.872-41.801 43.048-84.472 59.586-128.2z"/><path d="M446.709 812.531c41.581-17.992 74.343-48.287 101.832-83.762 56.49-72.9 99.897-156.177 130.57-243.039 9.044-25.61 16.905-51.603 23.219-78.022 3.223-13.485 3.408-32.471 13.293-42.106 6.062-5.909 5.618-6.239 12.83-4.11 4.185 1.236 7.871 3.367 11.93 4.83 7.677 2.767 15.086 4.859 22.337 8.672 3.143 1.653 5.272-3.146 1.913-4.538-15.388-6.382-34.34-25.171-52.772-17.94-16.461 6.458-16.716 35.413-20.071 49.649-11.285 47.891-25.946 94.925-44.899 140.349-37.408 89.656-89.158 184.018-172.241 238.649-21.815 14.344-45.738 25.081-71.298 30.638-31.991 6.957-64.538 4.989-96.956 7.251-3.02.211-2.931 4.299 0 4.631 48.021 5.429 94.996 8.457 140.313-11.152zm329.525-435.517c-2.489-.142-3.12 4.009-.598 4.416 17.281 2.794 37.455 11.197 54.996 6.532 2.368-.63 2.993-4.216.705-5.397-16.235-8.386-37.517-4.548-55.103-5.551zm19.568 24.692c-2.686.094-2.573 3.813 0 4.094 23.805 2.597 50.284 9.905 74.135 7.812 3.628-.318 4.181-4.884.839-6.196-22.412-8.797-51.388-6.54-74.974-5.71zm25.793 28.224c26.045 3.786 54.388 11.241 80.717 10.454 2.297-.069 3.494-2.849 1.874-4.526-7.384-7.643-21.089-6.665-31.013-7.591-16.992-1.586-33.973-2.077-51.025-2.424-2.278-.046-2.918 3.743-.553 4.087zm109.637 34.93c-24.372-11.14-56.206-13.166-82.767-14.977-2.968-.202-3.623 4.574-.705 5.207 14.286 3.098 28.587 6.002 42.915 8.898 12.775 2.583 25.742 6.928 38.778 7.437 3.346.131 5.003-5.092 1.779-6.565zm-2.26 17.25c-9.04-4.107-19.104-4.937-28.763-7.002-10.873-2.325-21.745-4.738-32.542-7.392-3.536-.869-4.652 3.99-1.463 5.307 17.788 7.343 41.557 17.277 61.209 14.841 2.633-.327 4.704-4.325 1.559-5.754zM754.997 360.276c11.438 2.45 22.847 4.936 34.317 7.241 10.109 2.032 20.576 5.607 30.892 4.846 3.363-.248 5.214-4.938 1.829-6.754-18.205-9.764-45.877-9.882-66.217-11.398-3.456-.257-4.218 5.337-.821 6.065zm41.385-16.684c1.866-.308 2.61-3.186 1.155-4.375-8.184-6.686-19.113-7.85-29.267-9.997-12.988-2.746-26.011-4.384-39.139-6.233-3.063-.431-4.507 3.954-1.32 4.789 12.699 3.326 25.251 7.203 37.941 10.578 10.047 2.673 20.208 6.956 30.63 5.238z"/><path d="M412.234 791.505c37.919-18.519 72.5-47.233 102.251-76.891 64.436-64.235 103.75-147.148 138.156-230.347 10.019-24.227 19-48.747 25.822-74.077 3.386-12.572 5.869-25.341 9.082-37.95 1.445-5.672 3.061-11.247 5.274-16.67 4.652-11.402 7.549-17.173 21.528-10.354 3.572 1.742 6.698-3.413 3.15-5.389-17.231-9.596-24.175-4.53-31.875 12.15-8.455 18.316-11.684 38.858-17.129 58.17-13.849 49.122-33.23 95.49-56.419 140.896-20.734 40.598-41.627 82.969-68.5 119.919-27.338 37.589-62.542 69.178-102.172 93.28-22.987 13.98-48.105 23.927-74.514 29.182-28.38 5.648-57.89 5.238-86.708 5.923-3.813.091-3.693 5.501 0 5.839 44.063 4.029 91.197 6.273 132.054-13.681z"/><path d="M425.579 735.995c21.441-8.228 42.074-19.06 59.955-33.565 19.189-15.566 33.37-35.735 47.647-55.65 32.078-44.745 56.532-93.554 78.212-144.064 21.557-50.225 46.184-99.817 60.013-152.902.762-2.925-3.452-3.993-4.465-1.231-18.32 49.954-40.43 98.341-63.915 146.062-11.546 23.461-22.391 47.504-32.536 71.61-5.339 12.686-8.92 26.003-15.641 38.09-6.069 10.916-13.584 21.152-20.8 31.325-15.63 22.035-31.589 44.01-53.794 59.918-19.594 14.037-42.057 23.254-64.564 31.485-23.009 8.414-46.492 15.627-69.766 23.269-23.889 7.844-50.814 13.72-72.802 25.989-1.793 1-1.108 4.283 1.101 4.065 26.774-2.645 53.987-13.946 79.702-21.596 24.012-7.144 48.243-13.821 71.653-22.805z"/><path d="M671.858 346.522c.261-2.833 1.291-6.612.03-9.281-.311-.658-1.428-.658-1.738 0-1.261 2.669-.231 6.449.03 9.281a.84.84 0 001.678 0zM394.896 716.345c40.274-15.4 79.418-37.846 107.113-71.582 15.397-18.755 27.402-40.572 39.252-61.658 11.093-19.74 20.984-40.156 27.832-61.777 8.205-25.907 14.166-52.315 23.08-78.04 8.702-25.115 19.775-49.5 27.923-74.77 1.148-3.56-4.502-6.062-6.133-2.586-20.609 43.924-33.556 91.241-48.501 137.232-14.5 44.622-39.848 88.234-67.244 126.26-27.294 37.884-68.054 62.169-111.128 78.365-46.13 17.345-95.421 29.77-143.673 39.598-3.255.663-2.579 6.176.794 5.866 25.354-2.327 50.034-8.61 74.735-14.564 25.652-6.184 51.273-12.909 75.95-22.344z"/><path d="M459.046 636.703c29.867-23.623 49.412-53.88 62.044-89.566 7.261-20.513 14.338-41.139 20.944-61.872 6.57-20.62 14.639-42.535 16.166-64.224.266-3.783-4.934-3.853-6.13-.83-7.607 19.224-10.952 40.504-16.876 60.343-6.138 20.559-13.257 40.708-21.994 60.317-15.528 34.854-33.37 65.453-63.245 89.968-62.895 51.611-144.958 66.953-220.222 91.926-2.481.824-1.466 4.679 1.088 3.948 43.011-12.308 86.16-25.436 128.33-40.403 35.703-12.673 69.869-25.859 99.895-49.607z"/><path d="M246.876 676.698c67.892-7.577 139.64-24.694 195.297-66.182 25.464-18.982 47.17-42.994 61.791-71.316 13.378-25.913 24.947-63.04 16.424-92.129-.654-2.233-4.387-2.556-4.854 0-2.713 14.847-2.742 29.839-6.556 44.554-4.094 15.791-10.427 31.132-18.309 45.406-15.444 27.962-37.867 51.779-63.526 70.662-53.516 39.381-116.241 55.307-180.58 66.698-1.288.229-1.007 2.455.313 2.307z"/><path d="M317 625.82c45.014-3.53 84.275-25.969 118.707-54.04 33.352-27.192 59.857-67.674 64.39-111.436.274-2.647-3.459-3.194-4.69-1.27-10.532 16.455-16.546 36.054-25.938 53.299-10.396 19.09-24.094 35.006-40.564 49.111-32.249 27.617-69.584 53.786-112.458 60.25-2.303.346-1.78 4.269.553 4.086zm376.702-316.405c41.535 9.673 82.176 15.477 124.595 17.08 2.414.091 3.025-3.825.58-4.285-41.366-7.765-82.502-13.201-124.577-17.212-2.531-.241-3.042 3.847-.598 4.417z"/></g><g fill="#FFC294"><path d="M315.403 624.698c87.102-4.88 157.106-77.43 181.05-157.055.394-1.31-1.646-1.867-2.045-.564-12.523 40.859-36.732 78.297-68.949 106.448-32.073 28.025-68.816 42.533-110.192 50.169-.563.103-.437 1.034.136 1.002z"/><path d="M270.044 668.544c63.646-6.193 129.103-26.382 178.366-68.533 45.241-38.71 76.579-98.732 69.376-159.321-.199-1.673-2.803-1.755-2.685 0 4.157 61.264-24.6 118.868-71.215 157.93-49.254 41.273-111.72 59.015-173.946 69.159-.429.07-.333.807.104.765z"/><path d="M461.088 626.76c27.031-23.805 49.516-52.681 64.908-85.3 17.652-37.411 23.37-78.034 25.783-118.966.094-1.603-2.411-1.602-2.497 0-2.29 42.866-9.35 84.556-28.781 123.199-15.725 31.272-37.724 59.498-64.584 81.967-30.494 25.509-65.445 40.941-102.801 53.659-42.232 14.378-84.834 27.883-126.668 43.393-.939.349-.57 1.826.421 1.527 45.945-13.85 91.527-29.498 136.893-45.139 35.835-12.354 68.735-29.162 97.326-54.34z"/><path d="M512.958 626.35c15.442-18.03 31.417-36.467 42.171-57.789 9.63-19.093 15.504-39.791 19.998-60.62 9.938-46.052 14.034-93.878 37.981-135.51.966-1.68-1.633-3.198-2.596-1.517-21.595 37.66-27.307 80.728-35.799 122.625-4.478 22.093-9.721 44.33-18.86 65.027-10.131 22.943-25.994 42.127-42.029 61.165-32.236 38.273-70.936 61.989-117.43 79.627-48.647 18.455-98.368 34.392-147.466 51.613-.92.323-.537 1.784.407 1.475 50.868-16.646 102.493-31.986 152.424-51.327 43.33-16.783 80.761-39.229 111.199-74.769z"/><path d="M430.234 727.446c39.6-18.177 74.432-46.227 100.854-80.859 32.55-42.665 50.288-96.077 71.356-144.938 23.703-54.969 46.689-110.322 71.079-164.98.551-1.235-1.189-1.983-1.717-.724-22.403 53.366-46.224 106.198-69.3 159.286-20.513 47.192-37.719 98.501-67.606 140.766-27.008 38.193-63.899 68.929-106.394 88.492-50.562 23.277-105.707 35.984-157.553 56.072-.913.354-.571 1.782.414 1.501 28.759-8.188 57.063-18.209 85.411-27.703 24.701-8.274 49.741-16.029 73.456-26.913z"/><path d="M503.001 721.188c31.128-31.054 58.107-62.148 79.525-100.735 23.309-41.994 47.517-84.334 66.674-128.419 9.972-22.948 17.037-46.653 23.373-70.82 3.322-12.672 6.438-25.414 10.213-37.96 2.007-6.67 4.165-13.302 6.603-19.828 1.991-5.329 10.577-31.777 22.091-18.205.799.942 2.213-.445 1.367-1.367-20.698-22.554-38.622 57.828-40.878 66.306-6.113 22.974-11.903 45.983-20.689 68.124-9.935 25.039-22.553 48.886-35.054 72.709-22.854 43.55-44.762 90.011-77.235 127.38-29.867 34.37-64.291 71.535-105.584 91.864-47.027 23.153-100.161 26.556-151.646 28.27-.896.029-.902 1.383 0 1.396 40.241.546 81.679-1.845 120.4-13.59 40.095-12.161 71.518-35.873 100.84-65.125z"/><path d="M526.767 744.674c60.54-75.364 106.877-164.93 142.089-254.592a1071.462 1071.462 0 0027.433-78.677c3.547-11.614 5.252-24.905 10.032-36.037 1.69-3.935 7.499-13.13 11.932-14.457 5.316-1.593 14.763 2.803 19.624 5.116 4.616 2.197 8.597 3.755 13.708 4.495 1.511.219 2.187-2.076.642-2.33-12.837-2.109-28.038-16.539-40.288-5.252-12.889 11.875-15.337 36.657-20.198 52.448-15.057 48.919-33.668 96.858-55.843 142.994-21.887 45.536-46.783 89.577-74.753 131.657-27.526 41.411-55.58 81.027-101.469 103.269-47.221 22.888-98.759 25.454-150.208 22.638-.862-.047-1.08 1.385-.207 1.529 77.85 12.923 166.849-9.742 217.506-72.801zm265.449-407.125c-19.43-6.906-42.073-9.861-62.632-11.078-.893-.053-1.116 1.429-.214 1.582 20.787 3.513 41.452 8.495 62.217 11.774 1.488.235 2.085-1.76.629-2.278zm-84.155-24.404c40.105-3.794 79.283 8.826 118.986 11.94 1.37.108 1.666-2.106.325-2.399-21.83-4.763-44.531-7.117-66.676-10.081-17.696-2.368-35.109-3.498-52.839-.963-.846.121-.655 1.584.204 1.503zm56.238 45.223c23.072 4.059 47.075 9.598 70.508 10.514 1.201.047 1.432-1.78.282-2.083-22.674-5.982-47.231-7.693-70.5-10.567-1.207-.149-1.495 1.924-.29 2.136zm19.794 22.131c-1.277.029-1.28 1.961 0 1.986 19.737.4 38.245 5.118 57.637 7.396.877.103 1.279-1.353.461-1.701-17.545-7.443-39.325-8.105-58.098-7.681zm15.577 22.148c25.316 1.544 50.083 6.165 75.239 8.656 1.481.146 1.738-2.191.346-2.558-24.181-6.376-50.719-7.438-75.586-8.005-1.233-.027-1.215 1.833.001 1.907zm28.121 26.946c28.937 4.003 57.78 11.228 86.772 14.197 1.212.124 1.323-1.68.275-2.03-27.274-9.123-58.242-11.616-86.807-13.934-.998-.08-1.247 1.628-.24 1.767zm105.622 40.105c-23.796-9.338-50.797-13.604-75.823-18.438-1.224-.236-1.759 1.582-.521 1.89 24.96 6.2 50.372 14.746 75.78 18.593 1.349.204 1.847-1.542.564-2.045zm-6.241 16.826c-14.479-9.653-34.254-13.622-51.18-16.147-1.333-.199-1.95 1.789-.571 2.071 17.866 3.653 33.552 11.104 50.8 16.333 1.39.422 2.08-1.504.951-2.257z"/><path d="M692.634 519.567c8.974-25.704 17.037-51.671 25.048-77.688 3.904-12.677 6.694-26.877 12.278-38.925 4.882-10.532 11.997-13.917 23.139-13.079 6.433.484 12.859 1.039 19.297 1.465 1.132.075 1.099-1.634 0-1.745-10.033-1.015-20.894-3.126-30.945-2.76-4.066.148-6.567.57-9.45 3.58-5.465 5.705-6.9 17.46-9.191 24.665-3.848 12.103-7.571 24.244-11.237 36.403-14.26 47.29-28.385 94.446-49.816 139.105-19.94 41.554-44.129 81.11-69.029 119.84-12.911 20.083-25.345 41.239-42.247 58.281-16.802 16.94-37.396 30.151-58.357 41.352-47.358 25.306-97.482 36.197-150.494 41.106-.509.047-.527.791 0 .805 41.654 1.141 84.585-9.04 122.879-24.927 37.269-15.462 75.299-37.13 100.68-69.216 27.759-35.092 51.072-75.726 72.68-114.823 21.873-39.571 39.869-80.772 54.765-123.439z"/><path d="M739.447 471.971c5.332-13.866 8.564-30.828 16.204-43.629 10.518-17.622 30.817-15.079 47.946-11.839 2.021.382 2.795-2.387.849-3.081-18.417-6.567-40.01-3.854-51.002 13.63-7.307 11.624-11.009 26.062-15.861 38.767-6.17 16.159-12.685 32.18-19.262 48.177-12.831 31.209-25.78 62.368-38.615 93.575a36455.202 36455.202 0 00-20.601 50.202c-7.292 17.807-13.779 36.26-26.729 50.87-.49.552.303 1.362.816.816 18.528-19.698 26.932-47.236 37.282-71.687 11.716-27.676 23.443-55.348 35.065-83.064 11.528-27.485 23.21-54.914 33.908-82.737z"/><path d="M760.637 467.617c4.632-16.345 13.412-35.009 33.337-34.22 14.441.572 29.978 5.8 44.145 8.699 2.6.532 3.707-3.47 1.099-3.987-18.704-3.708-48.303-16.188-65.013-1.902-18.431 15.757-20.268 45.926-26.204 67.735-16.737 61.495-46.596 116.466-73.326 173.832-.431.926.841 1.712 1.391.813 26.473-43.339 48.35-91.013 64.908-139.012 8.168-23.682 12.858-47.95 19.663-71.958z"/><path d="M783.722 481.86c6.514-13.642 16.013-20.486 31.597-20.902 11.387-.304 22.749 1.372 34.14.694 2.223-.132 2.121-3.118 0-3.383-16.444-2.054-42.989-6.335-57.263 4.818-14.026 10.96-19.474 34.436-24.84 50.277-15.644 46.184-26.364 94.355-51.638 136.631-.473.79.736 1.486 1.228.718 21.473-33.51 33.003-71.147 45.007-108.769 6.428-20.145 12.635-40.955 21.769-60.084z"/><path d="M893.079 498.15c-11.257-4.031-22.65-7.713-34.009-11.445-7.808-2.566-19.966-8.827-28.298-8.756-13.225.112-20.195 18.437-26.047 28.144-20.961 34.766-37.087 72.308-47.444 111.564-.243.921 1.156 1.304 1.424.393 9.744-33.1 22.55-65.17 39.572-95.229 3.737-6.6 7.65-13.101 11.737-19.491 2.166-3.386 4.348-7.452 6.974-10.548 3.57-5.975 9.4-9.375 17.49-10.2l5.208 1.849c17.392 2.995 35.377 12.447 52.288 17.731 2.581.807 3.597-3.12 1.105-4.012z"/><path d="M892.756 514.288c-16.664-5.61-48.413-5.233-62.741 6.518-7.152 5.865-9.72 16.261-13.196 24.495-5.971 14.144-11.821 28.279-17.222 42.649-.387 1.032 1.314 1.757 1.791.755 8.784-18.467 15.662-38.01 24.83-56.256 10.853-21.599 45.984-17.384 66.099-14.918 1.933.237 2.105-2.682.439-3.243z"/></g></g></svg>